<?xml version="1.0" encoding="UTF-8" ?>
<svg xmlns="http://www.w3.org/2000/svg" xmlns:xlink="http://www.w3.org/1999/xlink" width="1160pt" height="1824pt" viewBox="0.00 0.00 1160.00 1823.60">
<g id="graph0" class="graph" transform="scale(1 1) rotate(0) translate(4 1819.6)">
<title>%0</title>
<polygon fill="#ffffff" stroke="transparent" points="-4,4 -4,-1819.6 1156,-1819.6 1156,4 -4,4"/>
<text text-anchor="middle" x="576" y="-82" font-family="Times,serif" font-size="20.00" fill="#000000">github.com/dddplayer/hugoverse/internal/domain/contentspec</text>
<text text-anchor="middle" x="576" y="-58" font-family="Times,serif" font-size="20.00" fill="#000000">Domain Model</text>
<text text-anchor="middle" x="576" y="-10" font-family="Times,serif" font-size="20.00" fill="#000000">Powered by DDD Player</text>
<g id="clust2" class="cluster">
<title>cluster_dQal5L</title>
<polygon fill="none" stroke="#000000" points="508,-160 508,-1807.6 1144,-1807.6 1144,-160 508,-160"/>
<text text-anchor="middle" x="826" y="-1791" font-family="Times,serif" font-size="14.00" fill="#000000">github.com/dddplayer/hugoverse/internal/domain/contentspec</text>
</g>
<g id="clust3" class="cluster">
<title>cluster_depuPup</title>
<polygon fill="none" stroke="#000000" points="516,-1342 516,-1774.8 1002,-1774.8 1002,-1342 516,-1342"/>
<text text-anchor="middle" x="759" y="-1758.2" font-family="Times,serif" font-size="14.00" fill="#000000">github.com/dddplayer/hugoverse/internal/domain/contentspec/entity</text>
</g>
<g id="clust4" class="cluster">
<title>cluster_dezIify</title>
<polygon fill="none" stroke="#000000" points="590,-168 590,-628.4 1063,-628.4 1063,-168 590,-168"/>
<text text-anchor="middle" x="826.5" y="-611.8" font-family="Times,serif" font-size="14.00" fill="#000000">github.com/dddplayer/hugoverse/internal/domain/contentspec/factory</text>
</g>
<g id="clust5" class="cluster">
<title>cluster_dc4HJGF</title>
<polygon fill="none" stroke="#000000" points="598,-176 598,-346.8 1055,-346.8 1055,-176 598,-176"/>
<text text-anchor="middle" x="826.5" y="-330.2" font-family="Times,serif" font-size="14.00" fill="#000000">github.com/dddplayer/hugoverse/internal/domain/contentspec/factory/function</text>
</g>
<g id="clust1" class="cluster">
<title>cluster_ddd_concept</title>
<polygon fill="none" stroke="#000000" points="8,-1476 8,-1616 500,-1616 500,-1476 8,-1476"/>
</g>
<!-- ddd_concept -->
<g id="node1" class="node">
<title>ddd_concept</title>
<polygon fill="none" stroke="#ffffff" stroke-dasharray="1,5" points="492,-1608 16,-1608 16,-1484 492,-1484 492,-1608"/>
<polygon fill="transparent" stroke="transparent" points="26,-1566 26,-1602 140,-1602 140,-1566 26,-1566"/>
<text text-anchor="start" x="35.5582" y="-1579.4" font-family="Times,serif" font-size="14.00" fill="#000000">BoundedContext</text>
<polygon fill="#ffd966" stroke="transparent" points="142,-1566 142,-1602 247,-1602 247,-1566 142,-1566"/>
<text text-anchor="start" x="151.7356" y="-1579.4" font-family="Times,serif" font-size="14.00" fill="#000000">AggregateRoot</text>
<polygon fill="#ffe599" stroke="transparent" points="249,-1566 249,-1602 318,-1602 318,-1566 249,-1566"/>
<text text-anchor="start" x="266.3878" y="-1579.4" font-family="Times,serif" font-size="14.00" fill="#000000">Entity</text>
<polygon fill="#a2c4c9" stroke="transparent" points="320,-1566 320,-1602 410,-1602 410,-1566 320,-1566"/>
<text text-anchor="start" x="329.6283" y="-1579.4" font-family="Times,serif" font-size="14.00" fill="#000000">ValueObject</text>
<polygon fill="#e69138" stroke="transparent" points="412,-1566 412,-1602 482,-1602 482,-1566 412,-1566"/>
<text text-anchor="start" x="426.0112" y="-1579.4" font-family="Times,serif" font-size="14.00" fill="#000000">Service</text>
<polygon fill="#ffffff" stroke="transparent" points="26,-1528 26,-1564 140,-1564 140,-1528 26,-1528"/>
<polygon fill="#a4c2f4" stroke="transparent" points="142,-1528 142,-1564 247,-1564 247,-1528 142,-1528"/>
<text text-anchor="start" x="165.3338" y="-1541.4" font-family="Times,serif" font-size="14.00" fill="#000000">Command</text>
<polygon fill="#f6b26b" stroke="transparent" points="249,-1528 249,-1564 318,-1564 318,-1528 249,-1528"/>
<text text-anchor="start" x="267.1711" y="-1541.4" font-family="Times,serif" font-size="14.00" fill="#000000">Event</text>
<polygon fill="#cfe2f3" stroke="transparent" points="320,-1528 320,-1564 410,-1564 410,-1528 320,-1528"/>
<text text-anchor="start" x="343.6185" y="-1541.4" font-family="Times,serif" font-size="14.00" fill="#000000">Factory</text>
<polygon fill="#b4a7d6" stroke="transparent" points="412,-1528 412,-1564 482,-1564 482,-1528 412,-1528"/>
<text text-anchor="start" x="431.8345" y="-1541.4" font-family="Times,serif" font-size="14.00" fill="#000000">Class</text>
<polygon fill="#ffffff" stroke="transparent" points="26,-1490 26,-1526 140,-1526 140,-1490 26,-1490"/>
<polygon fill="#f4cccc" stroke="transparent" points="142,-1490 142,-1526 247,-1526 247,-1490 142,-1490"/>
<text text-anchor="start" x="172.3492" y="-1503.4" font-family="Times,serif" font-size="14.00" fill="#000000">General</text>
<polygon fill="#ead1dc" stroke="transparent" points="249,-1490 249,-1526 318,-1526 318,-1490 249,-1490"/>
<text text-anchor="start" x="258.6108" y="-1503.4" font-family="Times,serif" font-size="14.00" fill="#000000">Function</text>
<polygon fill="#9fc5e8" stroke="transparent" points="320,-1490 320,-1526 410,-1526 410,-1490 320,-1490"/>
<text text-anchor="start" x="340.1346" y="-1503.4" font-family="Times,serif" font-size="14.00" fill="#000000">Interface</text>
<polygon fill="#f3f3f3" stroke="transparent" points="412,-1490 412,-1526 482,-1526 482,-1490 412,-1490"/>
<text text-anchor="start" x="421.7279" y="-1503.4" font-family="Times,serif" font-size="14.00" fill="#000000">Attribute</text>
</g>
<!-- dQal5L -->
<g id="node2" class="node">
<title>dQal5L</title>
<polygon fill="none" stroke="#000000" stroke-dasharray="1,5" points="1135.5,-1259.2 516.5,-1259.2 516.5,-709.2 1135.5,-709.2 1135.5,-1259.2"/>
<polygon fill="#ffffff" stroke="transparent" points="527,-1233.2 527,-1253.2 547,-1253.2 547,-1233.2 527,-1233.2"/>
<polygon fill="#ffffff" stroke="transparent" points="527,-1211.2 527,-1231.2 547,-1231.2 547,-1211.2 527,-1211.2"/>
<polygon fill="#ffffff" stroke="transparent" points="527,-1173.2 527,-1209.2 547,-1209.2 547,-1173.2 527,-1173.2"/>
<polygon fill="#ffffff" stroke="transparent" points="549,-1173.2 549,-1209.2 602,-1209.2 602,-1173.2 549,-1173.2"/>
<polygon fill="#ffffff" stroke="transparent" points="604,-1173.2 604,-1209.2 669,-1209.2 669,-1173.2 604,-1173.2"/>
<polygon fill="#ffffff" stroke="transparent" points="671,-1173.2 671,-1209.2 691,-1209.2 691,-1173.2 671,-1173.2"/>
<polygon fill="#b4a7d6" stroke="transparent" points="693,-1173.2 693,-1209.2 816,-1209.2 816,-1173.2 693,-1173.2"/>
<text text-anchor="start" x="712.1206" y="-1186.6" font-family="Times,serif" font-size="14.00" fill="#000000">RenderContext</text>
<polygon fill="#f3f3f3" stroke="transparent" points="818,-1173.2 818,-1209.2 896,-1209.2 896,-1173.2 818,-1173.2"/>
<text text-anchor="start" x="847.6711" y="-1186.6" font-family="Times,serif" font-size="14.00" fill="#000000">Src</text>
<polygon fill="#f3f3f3" stroke="transparent" points="898,-1173.2 898,-1209.2 991,-1209.2 991,-1173.2 898,-1173.2"/>
<text text-anchor="start" x="910.2889" y="-1186.6" font-family="Times,serif" font-size="14.00" fill="#000000">RenderTOC</text>
<polygon fill="#ffffff" stroke="transparent" points="993,-1173.2 993,-1209.2 1104,-1209.2 1104,-1173.2 993,-1173.2"/>
<polygon fill="#ffffff" stroke="transparent" points="1106,-1173.2 1106,-1209.2 1126,-1209.2 1126,-1173.2 1106,-1173.2"/>
<polygon fill="#ffffff" stroke="transparent" points="527,-1151.2 527,-1171.2 547,-1171.2 547,-1151.2 527,-1151.2"/>
<polygon fill="#ffffff" stroke="transparent" points="527,-1113.2 527,-1149.2 547,-1149.2 547,-1113.2 527,-1113.2"/>
<polygon fill="#ffffff" stroke="transparent" points="549,-1113.2 549,-1149.2 602,-1149.2 602,-1113.2 549,-1113.2"/>
<polygon fill="#ffffff" stroke="transparent" points="604,-1113.2 604,-1149.2 669,-1149.2 669,-1113.2 604,-1113.2"/>
<polygon fill="#ffffff" stroke="transparent" points="671,-1113.2 671,-1149.2 691,-1149.2 691,-1113.2 671,-1113.2"/>
<polygon fill="#b4a7d6" stroke="transparent" points="693,-1075.2 693,-1149.2 816,-1149.2 816,-1075.2 693,-1075.2"/>
<text text-anchor="start" x="703.1753" y="-1108" font-family="Times,serif" font-size="14.00" fill="#000000">DocumentContext</text>
<polygon fill="#f3f3f3" stroke="transparent" points="818,-1113.2 818,-1149.2 896,-1149.2 896,-1113.2 818,-1113.2"/>
<text text-anchor="start" x="827.8415" y="-1126.6" font-family="Times,serif" font-size="14.00" fill="#000000">Document</text>
<polygon fill="#f3f3f3" stroke="transparent" points="898,-1113.2 898,-1149.2 991,-1149.2 991,-1113.2 898,-1113.2"/>
<text text-anchor="start" x="907.9579" y="-1126.6" font-family="Times,serif" font-size="14.00" fill="#000000">DocumentID</text>
<polygon fill="#f3f3f3" stroke="transparent" points="993,-1113.2 993,-1149.2 1104,-1149.2 1104,-1113.2 993,-1113.2"/>
<text text-anchor="start" x="1002.6283" y="-1126.6" font-family="Times,serif" font-size="14.00" fill="#000000">DocumentName</text>
<polygon fill="#ffffff" stroke="transparent" points="1106,-1113.2 1106,-1149.2 1126,-1149.2 1126,-1113.2 1106,-1113.2"/>
<polygon fill="#ffffff" stroke="transparent" points="527,-1075.2 527,-1111.2 547,-1111.2 547,-1075.2 527,-1075.2"/>
<polygon fill="#ffffff" stroke="transparent" points="549,-1075.2 549,-1111.2 602,-1111.2 602,-1075.2 549,-1075.2"/>
<polygon fill="#ffffff" stroke="transparent" points="604,-1075.2 604,-1111.2 669,-1111.2 669,-1075.2 604,-1075.2"/>
<polygon fill="#ffffff" stroke="transparent" points="671,-1075.2 671,-1111.2 691,-1111.2 691,-1075.2 671,-1075.2"/>
<polygon fill="#f3f3f3" stroke="transparent" points="818,-1075.2 818,-1111.2 896,-1111.2 896,-1075.2 818,-1075.2"/>
<text text-anchor="start" x="830.9509" y="-1088.6" font-family="Times,serif" font-size="14.00" fill="#000000">Filename</text>
<polygon fill="#ffffff" stroke="transparent" points="898,-1075.2 898,-1111.2 991,-1111.2 991,-1075.2 898,-1075.2"/>
<polygon fill="#ffffff" stroke="transparent" points="993,-1075.2 993,-1111.2 1104,-1111.2 1104,-1075.2 993,-1075.2"/>
<polygon fill="#ffffff" stroke="transparent" points="1106,-1075.2 1106,-1111.2 1126,-1111.2 1126,-1075.2 1106,-1075.2"/>
<polygon fill="#ffffff" stroke="transparent" points="527,-1053.2 527,-1073.2 547,-1073.2 547,-1053.2 527,-1053.2"/>
<polygon fill="#ffffff" stroke="transparent" points="527,-1015.2 527,-1051.2 547,-1051.2 547,-1015.2 527,-1015.2"/>
<polygon fill="#ffffff" stroke="transparent" points="549,-1015.2 549,-1051.2 602,-1051.2 602,-1015.2 549,-1015.2"/>
<polygon fill="#ead1dc" stroke="transparent" points="604,-1015.2 604,-1051.2 669,-1051.2 669,-1015.2 604,-1015.2"/>
<text text-anchor="start" x="623.2861" y="-1028.6" font-family="Times,serif" font-size="14.00" fill="#000000">New</text>
<polygon fill="#ffffff" stroke="transparent" points="671,-1015.2 671,-1051.2 691,-1051.2 691,-1015.2 671,-1015.2"/>
<polygon fill="#9fc5e8" stroke="transparent" points="693,-1015.2 693,-1051.2 816,-1051.2 816,-1015.2 693,-1015.2"/>
<text text-anchor="start" x="706.291" y="-1028.6" font-family="Times,serif" font-size="14.00" fill="#000000">ProviderProvider</text>
<polygon fill="#ffffff" stroke="transparent" points="818,-1015.2 818,-1051.2 896,-1051.2 896,-1015.2 818,-1015.2"/>
<polygon fill="#ffffff" stroke="transparent" points="898,-1015.2 898,-1051.2 991,-1051.2 991,-1015.2 898,-1015.2"/>
<polygon fill="#ffffff" stroke="transparent" points="993,-1015.2 993,-1051.2 1104,-1051.2 1104,-1015.2 993,-1015.2"/>
<polygon fill="#ffffff" stroke="transparent" points="1106,-1015.2 1106,-1051.2 1126,-1051.2 1126,-1015.2 1106,-1015.2"/>
<polygon fill="#ffffff" stroke="transparent" points="527,-993.2 527,-1013.2 547,-1013.2 547,-993.2 527,-993.2"/>
<polygon fill="#ffffff" stroke="transparent" points="527,-955.2 527,-991.2 547,-991.2 547,-955.2 527,-955.2"/>
<polygon fill="#ffffff" stroke="transparent" points="549,-955.2 549,-991.2 602,-991.2 602,-955.2 549,-955.2"/>
<polygon fill="#ead1dc" stroke="transparent" points="604,-955.2 604,-991.2 669,-991.2 669,-955.2 604,-955.2"/>
<text text-anchor="start" x="613.9488" y="-968.6" font-family="Times,serif" font-size="14.00" fill="#000000">Convert</text>
<polygon fill="#ffffff" stroke="transparent" points="671,-955.2 671,-991.2 691,-991.2 691,-955.2 671,-955.2"/>
<polygon fill="#9fc5e8" stroke="transparent" points="693,-955.2 693,-991.2 816,-991.2 816,-955.2 693,-955.2"/>
<text text-anchor="start" x="726.5112" y="-968.6" font-family="Times,serif" font-size="14.00" fill="#000000">Converter</text>
<polygon fill="#ffffff" stroke="transparent" points="818,-955.2 818,-991.2 896,-991.2 896,-955.2 818,-955.2"/>
<polygon fill="#ffffff" stroke="transparent" points="898,-955.2 898,-991.2 991,-991.2 991,-955.2 898,-955.2"/>
<polygon fill="#ffffff" stroke="transparent" points="993,-955.2 993,-991.2 1104,-991.2 1104,-955.2 993,-955.2"/>
<polygon fill="#ffffff" stroke="transparent" points="1106,-955.2 1106,-991.2 1126,-991.2 1126,-955.2 1106,-955.2"/>
<polygon fill="#ffffff" stroke="transparent" points="527,-933.2 527,-953.2 547,-953.2 547,-933.2 527,-933.2"/>
<polygon fill="#ffffff" stroke="transparent" points="527,-895.2 527,-931.2 547,-931.2 547,-895.2 527,-895.2"/>
<polygon fill="#ffffff" stroke="transparent" points="549,-895.2 549,-931.2 602,-931.2 602,-895.2 549,-895.2"/>
<polygon fill="#ead1dc" stroke="transparent" points="604,-895.2 604,-931.2 669,-931.2 669,-895.2 604,-895.2"/>
<text text-anchor="start" x="620.5568" y="-908.6" font-family="Times,serif" font-size="14.00" fill="#000000">Bytes</text>
<polygon fill="#ffffff" stroke="transparent" points="671,-895.2 671,-931.2 691,-931.2 691,-895.2 671,-895.2"/>
<polygon fill="#9fc5e8" stroke="transparent" points="693,-895.2 693,-931.2 816,-931.2 816,-895.2 693,-895.2"/>
<text text-anchor="start" x="736.6115" y="-908.6" font-family="Times,serif" font-size="14.00" fill="#000000">Result</text>
<polygon fill="#ffffff" stroke="transparent" points="818,-895.2 818,-931.2 896,-931.2 896,-895.2 818,-895.2"/>
<polygon fill="#ffffff" stroke="transparent" points="898,-895.2 898,-931.2 991,-931.2 991,-895.2 898,-895.2"/>
<polygon fill="#ffffff" stroke="transparent" points="993,-895.2 993,-931.2 1104,-931.2 1104,-895.2 993,-895.2"/>
<polygon fill="#ffffff" stroke="transparent" points="1106,-895.2 1106,-931.2 1126,-931.2 1126,-895.2 1106,-895.2"/>
<polygon fill="#ffffff" stroke="transparent" points="527,-873.2 527,-893.2 547,-893.2 547,-873.2 527,-873.2"/>
<polygon fill="#ffffff" stroke="transparent" points="527,-835.2 527,-871.2 547,-871.2 547,-835.2 527,-835.2"/>
<polygon fill="#ead1dc" stroke="transparent" points="549,-835.2 549,-871.2 602,-871.2 602,-835.2 549,-835.2"/>
<text text-anchor="start" x="558.7868" y="-848.6" font-family="Times,serif" font-size="14.00" fill="#000000">Name</text>
<polygon fill="#ead1dc" stroke="transparent" points="604,-835.2 604,-871.2 669,-871.2 669,-835.2 604,-835.2"/>
<text text-anchor="start" x="623.2861" y="-848.6" font-family="Times,serif" font-size="14.00" fill="#000000">New</text>
<polygon fill="#ffffff" stroke="transparent" points="671,-835.2 671,-871.2 691,-871.2 691,-835.2 671,-835.2"/>
<polygon fill="#9fc5e8" stroke="transparent" points="693,-835.2 693,-871.2 816,-871.2 816,-835.2 693,-835.2"/>
<text text-anchor="start" x="730.3955" y="-848.6" font-family="Times,serif" font-size="14.00" fill="#000000">Provider</text>
<polygon fill="#ffffff" stroke="transparent" points="818,-835.2 818,-871.2 896,-871.2 896,-835.2 818,-835.2"/>
<polygon fill="#ffffff" stroke="transparent" points="898,-835.2 898,-871.2 991,-871.2 991,-835.2 898,-835.2"/>
<polygon fill="#ffffff" stroke="transparent" points="993,-835.2 993,-871.2 1104,-871.2 1104,-835.2 993,-835.2"/>
<polygon fill="#ffffff" stroke="transparent" points="1106,-835.2 1106,-871.2 1126,-871.2 1126,-835.2 1106,-835.2"/>
<polygon fill="#ffffff" stroke="transparent" points="527,-813.2 527,-833.2 547,-833.2 547,-813.2 527,-813.2"/>
<polygon fill="#ffffff" stroke="transparent" points="527,-775.2 527,-811.2 547,-811.2 547,-775.2 527,-775.2"/>
<polygon fill="#ffffff" stroke="transparent" points="549,-775.2 549,-811.2 602,-811.2 602,-775.2 549,-775.2"/>
<polygon fill="#ead1dc" stroke="transparent" points="604,-775.2 604,-811.2 669,-811.2 669,-775.2 604,-775.2"/>
<text text-anchor="start" x="626.3941" y="-788.6" font-family="Times,serif" font-size="14.00" fill="#000000">Get</text>
<polygon fill="#ffffff" stroke="transparent" points="671,-775.2 671,-811.2 691,-811.2 691,-775.2 671,-775.2"/>
<polygon fill="#9fc5e8" stroke="transparent" points="693,-775.2 693,-811.2 816,-811.2 816,-775.2 693,-775.2"/>
<text text-anchor="start" x="702.7924" y="-788.6" font-family="Times,serif" font-size="14.00" fill="#000000">ConverterRegistry</text>
<polygon fill="#ffffff" stroke="transparent" points="818,-775.2 818,-811.2 896,-811.2 896,-775.2 818,-775.2"/>
<polygon fill="#ffffff" stroke="transparent" points="898,-775.2 898,-811.2 991,-811.2 991,-775.2 898,-775.2"/>
<polygon fill="#ffffff" stroke="transparent" points="993,-775.2 993,-811.2 1104,-811.2 1104,-775.2 993,-775.2"/>
<polygon fill="#ffffff" stroke="transparent" points="1106,-775.2 1106,-811.2 1126,-811.2 1126,-775.2 1106,-775.2"/>
<polygon fill="#ffffff" stroke="transparent" points="527,-753.2 527,-773.2 547,-773.2 547,-753.2 527,-753.2"/>
<polygon fill="#ffffff" stroke="transparent" points="527,-715.2 527,-751.2 1126,-751.2 1126,-715.2 527,-715.2"/>
<text text-anchor="start" x="793.4579" y="-728.6" font-family="Times,serif" font-size="14.00" fill="#000000">contentspec</text>
</g>
<!-- depuPup -->
<g id="node3" class="node">
<title>depuPup</title>
<polygon fill="none" stroke="#000000" stroke-dasharray="1,5" points="994,-1742 524,-1742 524,-1350 994,-1350 994,-1742"/>
<polygon fill="#ffffff" stroke="transparent" points="534,-1716 534,-1736 554,-1736 554,-1716 534,-1716"/>
<polygon fill="#ffffff" stroke="transparent" points="534,-1694 534,-1714 554,-1714 554,-1694 534,-1694"/>
<polygon fill="#ffffff" stroke="transparent" points="534,-1656 534,-1692 554,-1692 554,-1656 534,-1656"/>
<polygon fill="#ffffff" stroke="transparent" points="556,-1656 556,-1692 609,-1692 609,-1656 556,-1656"/>
<polygon fill="#a4c2f4" stroke="transparent" points="611,-1656 611,-1692 676,-1692 676,-1656 611,-1656"/>
<text text-anchor="start" x="620.9488" y="-1669.4" font-family="Times,serif" font-size="14.00" fill="#000000">Convert</text>
<polygon fill="#ffffff" stroke="transparent" points="678,-1656 678,-1692 698,-1692 698,-1656 678,-1656"/>
<polygon fill="#b4a7d6" stroke="transparent" points="700,-1656 700,-1692 824,-1692 824,-1656 700,-1656"/>
<text text-anchor="start" x="725.0659" y="-1669.4" font-family="Times,serif" font-size="14.00" fill="#000000">mdConverter</text>
<polygon fill="#ffffff" stroke="transparent" points="826,-1656 826,-1692 907,-1692 907,-1656 826,-1656"/>
<polygon fill="#ffffff" stroke="transparent" points="909,-1656 909,-1692 962,-1692 962,-1656 909,-1656"/>
<polygon fill="#ffffff" stroke="transparent" points="964,-1656 964,-1692 984,-1692 984,-1656 964,-1656"/>
<polygon fill="#ffffff" stroke="transparent" points="534,-1634 534,-1654 554,-1654 554,-1634 534,-1634"/>
<polygon fill="#ffffff" stroke="transparent" points="534,-1596 534,-1632 554,-1632 554,-1596 534,-1596"/>
<polygon fill="#ffffff" stroke="transparent" points="556,-1596 556,-1632 609,-1632 609,-1596 556,-1596"/>
<polygon fill="#a4c2f4" stroke="transparent" points="611,-1596 611,-1632 676,-1632 676,-1596 611,-1596"/>
<text text-anchor="start" x="630.2861" y="-1609.4" font-family="Times,serif" font-size="14.00" fill="#000000">New</text>
<polygon fill="#ffffff" stroke="transparent" points="678,-1596 678,-1632 698,-1632 698,-1596 678,-1596"/>
<polygon fill="#b4a7d6" stroke="transparent" points="700,-1596 700,-1632 824,-1632 824,-1596 700,-1596"/>
<text text-anchor="start" x="740.6171" y="-1609.4" font-family="Times,serif" font-size="14.00" fill="#000000">provide</text>
<polygon fill="#f3f3f3" stroke="transparent" points="826,-1596 826,-1632 907,-1632 907,-1596 826,-1596"/>
<text text-anchor="start" x="851.3401" y="-1609.4" font-family="Times,serif" font-size="14.00" fill="#000000">name</text>
<polygon fill="#ffffff" stroke="transparent" points="909,-1596 909,-1632 962,-1632 962,-1596 909,-1596"/>
<polygon fill="#ffffff" stroke="transparent" points="964,-1596 964,-1632 984,-1632 984,-1596 964,-1596"/>
<polygon fill="#ffffff" stroke="transparent" points="534,-1574 534,-1594 554,-1594 554,-1574 534,-1574"/>
<polygon fill="#ffffff" stroke="transparent" points="534,-1536 534,-1572 554,-1572 554,-1536 534,-1536"/>
<polygon fill="#ffffff" stroke="transparent" points="556,-1536 556,-1572 609,-1572 609,-1536 556,-1536"/>
<polygon fill="#ffffff" stroke="transparent" points="611,-1536 611,-1572 676,-1572 676,-1536 611,-1536"/>
<polygon fill="#ffffff" stroke="transparent" points="678,-1536 678,-1572 698,-1572 698,-1536 678,-1536"/>
<polygon fill="#b4a7d6" stroke="transparent" points="700,-1536 700,-1572 824,-1572 824,-1536 700,-1536"/>
<text text-anchor="start" x="726.2279" y="-1549.4" font-family="Times,serif" font-size="14.00" fill="#000000">ContentSpec</text>
<polygon fill="#f3f3f3" stroke="transparent" points="826,-1536 826,-1572 907,-1572 907,-1536 826,-1536"/>
<text text-anchor="start" x="835.7889" y="-1549.4" font-family="Times,serif" font-size="14.00" fill="#000000">Converters</text>
<polygon fill="#f3f3f3" stroke="transparent" points="909,-1536 909,-1572 962,-1572 962,-1536 909,-1536"/>
<text text-anchor="start" x="925.0014" y="-1549.4" font-family="Times,serif" font-size="14.00" fill="#000000">Cfg</text>
<polygon fill="#ffffff" stroke="transparent" points="964,-1536 964,-1572 984,-1572 984,-1536 964,-1536"/>
<polygon fill="#ffffff" stroke="transparent" points="534,-1514 534,-1534 554,-1534 554,-1514 534,-1514"/>
<polygon fill="#ffffff" stroke="transparent" points="534,-1476 534,-1512 554,-1512 554,-1476 534,-1476"/>
<polygon fill="#ffffff" stroke="transparent" points="556,-1476 556,-1512 609,-1512 609,-1476 556,-1476"/>
<polygon fill="#a4c2f4" stroke="transparent" points="611,-1476 611,-1512 676,-1512 676,-1476 611,-1476"/>
<text text-anchor="start" x="633.3941" y="-1489.4" font-family="Times,serif" font-size="14.00" fill="#000000">Get</text>
<polygon fill="#ffffff" stroke="transparent" points="678,-1476 678,-1512 698,-1512 698,-1476 678,-1476"/>
<polygon fill="#b4a7d6" stroke="transparent" points="700,-1476 700,-1512 824,-1512 824,-1476 700,-1476"/>
<text text-anchor="start" x="710.2924" y="-1489.4" font-family="Times,serif" font-size="14.00" fill="#000000">ConverterRegistry</text>
<polygon fill="#f3f3f3" stroke="transparent" points="826,-1476 826,-1512 907,-1512 907,-1476 826,-1476"/>
<text text-anchor="start" x="835.7889" y="-1489.4" font-family="Times,serif" font-size="14.00" fill="#000000">Converters</text>
<polygon fill="#ffffff" stroke="transparent" points="909,-1476 909,-1512 962,-1512 962,-1476 909,-1476"/>
<polygon fill="#ffffff" stroke="transparent" points="964,-1476 964,-1512 984,-1512 984,-1476 964,-1476"/>
<polygon fill="#ffffff" stroke="transparent" points="534,-1454 534,-1474 554,-1474 554,-1454 534,-1454"/>
<polygon fill="#ffffff" stroke="transparent" points="534,-1416 534,-1452 554,-1452 554,-1416 534,-1416"/>
<polygon fill="#a4c2f4" stroke="transparent" points="556,-1416 556,-1452 609,-1452 609,-1416 556,-1416"/>
<text text-anchor="start" x="565.7868" y="-1429.4" font-family="Times,serif" font-size="14.00" fill="#000000">Name</text>
<polygon fill="#a4c2f4" stroke="transparent" points="611,-1416 611,-1452 676,-1452 676,-1416 611,-1416"/>
<text text-anchor="start" x="630.2861" y="-1429.4" font-family="Times,serif" font-size="14.00" fill="#000000">New</text>
<polygon fill="#ffffff" stroke="transparent" points="678,-1416 678,-1452 698,-1452 698,-1416 678,-1416"/>
<polygon fill="#b4a7d6" stroke="transparent" points="700,-1416 700,-1452 824,-1452 824,-1416 700,-1416"/>
<text text-anchor="start" x="709.9067" y="-1429.4" font-family="Times,serif" font-size="14.00" fill="#000000">ConverterProvider</text>
<polygon fill="#f3f3f3" stroke="transparent" points="826,-1416 826,-1452 907,-1452 907,-1416 826,-1416"/>
<text text-anchor="start" x="851.3401" y="-1429.4" font-family="Times,serif" font-size="14.00" fill="#000000">name</text>
<polygon fill="#f3f3f3" stroke="transparent" points="909,-1416 909,-1452 962,-1452 962,-1416 909,-1416"/>
<text text-anchor="start" x="918.7952" y="-1429.4" font-family="Times,serif" font-size="14.00" fill="#000000">create</text>
<polygon fill="#ffffff" stroke="transparent" points="964,-1416 964,-1452 984,-1452 984,-1416 964,-1416"/>
<polygon fill="#ffffff" stroke="transparent" points="534,-1394 534,-1414 554,-1414 554,-1394 534,-1394"/>
<polygon fill="#ffffff" stroke="transparent" points="534,-1356 534,-1392 984,-1392 984,-1356 534,-1356"/>
<text text-anchor="start" x="743.0568" y="-1369.4" font-family="Times,serif" font-size="14.00" fill="#000000">entity</text>
</g>
<!-- dQal5L&#45;&gt;depuPup -->
<g id="edge3" class="edge">
<title>dQal5L-&gt;depuPup</title>
<g id="a_edge3"><a xlink:title="contentspec -&gt; entity: &#10;&#10;">
<path fill="none" stroke="#000000" stroke-dasharray="1,5" d="M793.1751,-1259.4389C790.0301,-1285.8102 786.8772,-1312.248 783.8272,-1337.8221"/>
<polygon fill="#000000" stroke="#000000" points="783.8074,-1337.9885 787.0687,-1344.42 782.3863,-1349.904 779.125,-1343.4725 783.8074,-1337.9885"/>
</a>
</g>
<text text-anchor="middle" x="791.5" y="-1300.4" font-family="Times,serif" font-size="14.00" fill="#000000">1</text>
</g>
<!-- dezIify -->
<g id="node4" class="node">
<title>dezIify</title>
<polygon fill="none" stroke="#000000" stroke-dasharray="1,5" points="870.5,-595.6 781.5,-595.6 781.5,-503.6 870.5,-503.6 870.5,-595.6"/>
<polygon fill="#ffffff" stroke="transparent" points="792,-569.6 792,-589.6 831,-589.6 831,-569.6 792,-569.6"/>
<polygon fill="#ffffff" stroke="transparent" points="792,-547.6 792,-567.6 831,-567.6 831,-547.6 792,-547.6"/>
<polygon fill="#ffffff" stroke="transparent" points="792,-509.6 792,-545.6 861,-545.6 861,-509.6 792,-509.6"/>
<text text-anchor="start" x="806.6795" y="-523" font-family="Times,serif" font-size="14.00" fill="#000000">factory</text>
</g>
<!-- dQal5L&#45;&gt;dezIify -->
<g id="edge5" class="edge">
<title>dQal5L-&gt;dezIify</title>
<g id="a_edge5"><a xlink:title="contentspec -&gt; factory: &#10;&#10;">
<path fill="none" stroke="#000000" stroke-dasharray="1,5" d="M826,-708.9612C826,-671.1258 826,-635.8185 826,-608.1022"/>
<polygon fill="#000000" stroke="#000000" points="826.0001,-607.92 822,-601.92 826,-595.92 830,-601.9199 826.0001,-607.92"/>
</a>
</g>
<text text-anchor="middle" x="829.5" y="-659.6" font-family="Times,serif" font-size="14.00" fill="#000000">1</text>
</g>
<!-- depuPup&#45;&gt;dQal5L -->
<g id="edge1" class="edge">
<title>depuPup:ddhlfss-&gt;dQal5L:dcNwaWt</title>
<g id="a_edge1"><a xlink:title="ContentSpec.Converters -&gt; ConverterRegistry: &#10;&#10;From: contentspec.go (Line: 9, Column: 2) To: . (Line: -1, Column: 0)&#10;">
<path fill="none" stroke="#000000" stroke-dasharray="1,5" d="M864.3182,-1535.944C849.3945,-1435.4665 776.5947,-945.3241 758.2189,-821.6046"/>
<polygon fill="#000000" stroke="#000000" points="761.6382,-820.802 756.7069,-811.4248 754.7141,-821.8305 761.6382,-820.802"/>
</a>
</g>
<text text-anchor="middle" x="834.5" y="-1300.4" font-family="Times,serif" font-size="14.00" fill="#000000">1</text>
</g>
<!-- depuPup&#45;&gt;dQal5L -->
<g id="edge2" class="edge">
<title>depuPup:dboA9v7-&gt;dQal5L:dcY4PKH</title>
<g id="a_edge2"><a xlink:title="ConverterRegistry.Converters -&gt; Provider: &#10;&#10;From: converter.go (Line: 13, Column: 2) To: . (Line: -1, Column: 0)&#10;">
<path fill="none" stroke="#000000" stroke-dasharray="1,5" d="M861.1505,-1475.9543C850.8632,-1443.616 829.4456,-1373.5114 817,-1313 783.7284,-1151.2312 763.3476,-953.7344 756.5452,-881.4356"/>
<polygon fill="#000000" stroke="#000000" points="760.0149,-880.9463 755.605,-871.3128 753.0449,-881.5937 760.0149,-880.9463"/>
</a>
</g>
<text text-anchor="middle" x="820.5" y="-1300.4" font-family="Times,serif" font-size="14.00" fill="#000000">1</text>
</g>
<!-- dc4HJGF -->
<g id="node5" class="node">
<title>dc4HJGF</title>
<polygon fill="none" stroke="#000000" stroke-dasharray="1,5" points="1005,-314 647,-314 647,-184 1005,-184 1005,-314"/>
<polygon fill="#ffffff" stroke="transparent" points="657,-288 657,-308 677,-308 677,-288 657,-288"/>
<polygon fill="#ffffff" stroke="transparent" points="657,-250 657,-286 677,-286 677,-250 657,-250"/>
<polygon fill="#ead1dc" stroke="transparent" points="679,-250 679,-286 798,-286 798,-250 679,-250"/>
<text text-anchor="start" x="689.514" y="-263.4" font-family="Times,serif" font-size="14.00" fill="#000000">NewContentSpec</text>
<polygon fill="#ffffff" stroke="transparent" points="800,-250 800,-286 820,-286 820,-250 800,-250"/>
<polygon fill="#ead1dc" stroke="transparent" points="822,-250 822,-286 973,-286 973,-250 822,-250"/>
<text text-anchor="start" x="832.5785" y="-263.4" font-family="Times,serif" font-size="14.00" fill="#000000">NewConverterRegistry</text>
<polygon fill="#ffffff" stroke="transparent" points="975,-250 975,-286 995,-286 995,-250 975,-250"/>
<polygon fill="#ffffff" stroke="transparent" points="657,-228 657,-248 677,-248 677,-228 657,-228"/>
<polygon fill="#ffffff" stroke="transparent" points="657,-190 657,-226 995,-226 995,-190 657,-190"/>
<text text-anchor="start" x="802.6718" y="-203.4" font-family="Times,serif" font-size="14.00" fill="#000000">function</text>
</g>
<!-- dezIify&#45;&gt;dc4HJGF -->
<g id="edge4" class="edge">
<title>dezIify-&gt;dc4HJGF</title>
<g id="a_edge4"><a xlink:title="factory -&gt; function: &#10;&#10;">
<path fill="none" stroke="#000000" stroke-dasharray="1,5" d="M826,-503.2249C826,-491.1395 826,-478.1321 826,-466.1 826,-466.1 826,-466.1 826,-374.3 826,-358.0869 826,-340.6937 826,-324.1818"/>
<polygon fill="#000000" stroke="#000000" points="829.5001,-324.0331 826,-314.0331 822.5001,-324.0331 829.5001,-324.0331"/>
</a>
</g>
<text text-anchor="middle" x="829.5" y="-416" font-family="Times,serif" font-size="14.00" fill="#000000">1</text>
</g>
</g>
</svg>