<svg version="1.1" viewBox="0.0 0.0 1045.5564304461943 234.4435695538058" fill="none" stroke="none" stroke-linecap="square" stroke-miterlimit="10" xmlns:xlink="http://www.w3.org/1999/xlink" xmlns="http://www.w3.org/2000/svg"><clipPath id="p.0"><path d="m0 0l1045.5564 0l0 234.44357l-1045.5564 0l0 -234.44357z" clip-rule="nonzero"/></clipPath><g clip-path="url(#p.0)"><path fill="#000000" fill-opacity="0.0" d="m0 0l1045.5564 0l0 234.44357l-1045.5564 0z" fill-rule="evenodd"/><path fill="#d9ead3" d="m30.721785 20.0l113.07086 0l0 42.48819l-113.07086 0z" fill-rule="evenodd"/><path stroke="#000000" stroke-width="1.0" stroke-linejoin="round" stroke-linecap="butt" d="m30.721785 20.0l113.07086 0l0 42.48819l-113.07086 0z" fill-rule="evenodd"/><path fill="#000000" d="m70.94862 47.104095l0 -11.453125l1.40625 0l0 11.453125l-1.40625 0zm9.2578125 -2.671875l1.453125 0.171875q-0.34375 1.28125 -1.28125 1.984375q-0.921875 0.703125 -2.359375 0.703125q-1.828125 0 -2.890625 -1.125q-1.0625 -1.125 -1.0625 -3.140625q0 -2.09375 1.078125 -3.25q1.078125 -1.15625 2.796875 -1.15625q1.65625 0 2.703125 1.140625q1.0625 1.125 1.0625 3.171875q0 0.125 0 0.375l-6.1875 0q0.078125 1.375 0.765625 2.109375q0.703125 0.71875 1.734375 0.71875q0.78125 0 1.328125 -0.40625q0.546875 -0.40625 0.859375 -1.296875zm-4.609375 -2.28125l4.625 0q-0.09375 -1.046875 -0.53125 -1.5625q-0.671875 -0.8125 -1.734375 -0.8125q-0.96875 0 -1.640625 0.65625q-0.65625 0.640625 -0.71875 1.71875zm6.8984375 4.953125l3.03125 -4.3125l-2.8125 -3.984375l1.765625 0l1.265625 1.9375q0.359375 0.5625 0.578125 0.9375q0.34375 -0.515625 0.640625 -0.921875l1.390625 -1.953125l1.6875 0l-2.875 3.90625l3.09375 4.390625l-1.734375 0l-1.703125 -2.578125l-0.453125 -0.703125l-2.171875 3.28125l-1.703125 0zm14.609375 -2.671875l1.453125 0.171875q-0.34375 1.28125 -1.28125 1.984375q-0.921875 0.703125 -2.359375 0.703125q-1.828125 0 -2.890625 -1.125q-1.0625 -1.125 -1.0625 -3.140625q0 -2.09375 1.078125 -3.25q1.078125 -1.15625 2.796875 -1.15625q1.65625 0 2.703125 1.140625q1.0625 1.125 1.0625 3.171875q0 0.125 0 0.375l-6.1875 0q0.078125 1.375 0.765625 2.109375q0.703125 0.71875 1.734375 0.71875q0.78125 0 1.328125 -0.40625q0.546875 -0.40625 0.859375 -1.296875zm-4.609375 -2.28125l4.625 0q-0.09375 -1.046875 -0.53125 -1.5625q-0.671875 -0.8125 -1.734375 -0.8125q-0.96875 0 -1.640625 0.65625q-0.65625 0.640625 -0.71875 1.71875zm7.8203125 4.953125l0 -8.296875l1.265625 0l0 1.25q0.484375 -0.875 0.890625 -1.15625q0.40625 -0.28125 0.90625 -0.28125q0.703125 0 1.4375 0.453125l-0.484375 1.296875q-0.515625 -0.296875 -1.03125 -0.296875q-0.453125 0 -0.828125 0.28125q-0.359375 0.265625 -0.515625 0.765625q-0.234375 0.75 -0.234375 1.640625l0 4.34375l-1.40625 0z" fill-rule="nonzero"/><path fill="#ffffff" d="m30.721785 62.48819l113.07086 0l0 34.425194l-113.07086 0z" fill-rule="evenodd"/><path stroke="#000000" stroke-width="1.0" stroke-linejoin="round" stroke-linecap="butt" d="m30.721785 62.48819l113.07086 0l0 34.425194l-113.07086 0z" fill-rule="evenodd"/><path fill="#ffffff" d="m67.75404 71.70079l39.006348 0l0 16.0l-39.006348 0l0 -16.0z" fill-rule="nonzero"/><path fill="#000000" fill-opacity="0.0" d="m67.75404 73.67803l39.006348 0l0 14.7265625l-39.006348 0l0 -14.7265625z" fill-rule="nonzero"/><path fill="#2b2b2b" d="m73.41029 79.36016q0 -0.1875 0.078125 -0.265625q0.078125 -0.09375 0.1875 -0.09375q0.125 0 0.203125 0.09375q0.078125 0.078125 0.078125 0.265625l0 0.921875q0 0.1875 -0.078125 0.28125q-0.078125 0.078125 -0.203125 0.078125q-0.09375 0 -0.171875 -0.0625q-0.078125 -0.078125 -0.09375 -0.25q-0.03125 -0.375 -0.390625 -0.625q-0.515625 -0.34375 -1.375 -0.34375q-0.890625 0 -1.390625 0.359375q-0.375 0.265625 -0.375 0.609375q0 0.375 0.453125 0.625q0.296875 0.1875 1.140625 0.28125q1.125 0.109375 1.546875 0.265625q0.625 0.21875 0.921875 0.625q0.296875 0.390625 0.296875 0.84375q0 0.6875 -0.65625 1.21875q-0.640625 0.515625 -1.90625 0.515625q-1.265625 0 -2.078125 -0.640625q0 0.21875 -0.03125 0.28125q-0.015625 0.0625 -0.09375 0.109375q-0.0625 0.046875 -0.140625 0.046875q-0.109375 0 -0.1875 -0.078125q-0.078125 -0.09375 -0.078125 -0.28125l0 -1.09375q0 -0.1875 0.0625 -0.265625q0.078125 -0.09375 0.203125 -0.09375q0.109375 0 0.1875 0.078125q0.09375 0.078125 0.09375 0.21875q0 0.296875 0.140625 0.484375q0.21875 0.3125 0.703125 0.515625q0.484375 0.1875 1.1875 0.1875q1.046875 0 1.546875 -0.375q0.515625 -0.390625 0.515625 -0.828125q0 -0.5 -0.515625 -0.796875q-0.515625 -0.296875 -1.515625 -0.390625q-0.984375 -0.109375 -1.421875 -0.265625q-0.4375 -0.171875 -0.671875 -0.5q-0.234375 -0.328125 -0.234375 -0.71875q0 -0.671875 0.671875 -1.078125q0.671875 -0.40625 1.59375 -0.40625q1.109375 0 1.796875 0.546875zm4.9575195 -0.359375l2.890625 0q0.1875 0 0.265625 0.078125q0.09375 0.078125 0.09375 0.203125q0 0.109375 -0.09375 0.1875q-0.078125 0.078125 -0.265625 0.078125l-2.890625 0l0 3.546875q0 0.453125 0.359375 0.765625q0.375 0.3125 1.09375 0.3125q0.546875 0 1.171875 -0.15625q0.625 -0.15625 0.96875 -0.359375q0.125 -0.09375 0.21875 -0.09375q0.09375 0 0.171875 0.078125q0.078125 0.078125 0.078125 0.1875q0 0.09375 -0.078125 0.1875q-0.203125 0.203125 -1.0 0.453125q-0.78125 0.234375 -1.5 0.234375q-0.921875 0 -1.484375 -0.4375q-0.546875 -0.4375 -0.546875 -1.171875l0 -3.546875l-0.984375 0q-0.1875 0 -0.28125 -0.078125q-0.078125 -0.078125 -0.078125 -0.203125q0 -0.109375 0.078125 -0.1875q0.09375 -0.078125 0.28125 -0.078125l0.984375 0l0 -1.578125q0 -0.1875 0.078125 -0.265625q0.078125 -0.078125 0.1875 -0.078125q0.125 0 0.203125 0.078125q0.078125 0.078125 0.078125 0.265625l0 1.578125zm10.42627 5.5l0 -0.765625q-1.171875 0.96875 -2.484375 0.96875q-0.953125 0 -1.5 -0.484375q-0.53125 -0.484375 -0.53125 -1.1875q0 -0.765625 0.703125 -1.34375q0.71875 -0.578125 2.078125 -0.578125q0.359375 0 0.796875 0.046875q0.4375 0.046875 0.9375 0.140625l0 -0.859375q0 -0.4375 -0.40625 -0.75q-0.40625 -0.328125 -1.21875 -0.328125q-0.625 0 -1.75 0.359375q-0.203125 0.0625 -0.265625 0.0625q-0.09375 0 -0.171875 -0.078125q-0.0625 -0.078125 -0.0625 -0.1875q0 -0.109375 0.0625 -0.171875q0.078125 -0.09375 0.71875 -0.265625q0.984375 -0.265625 1.484375 -0.265625q1.015625 0 1.578125 0.5q0.5625 0.5 0.5625 1.125l0 3.53125l0.71875 0q0.1875 0 0.265625 0.078125q0.09375 0.0625 0.09375 0.1875q0 0.109375 -0.09375 0.1875q-0.078125 0.078125 -0.265625 0.078125l-1.25 0zm0 -2.65625q-0.375 -0.109375 -0.796875 -0.15625q-0.421875 -0.046875 -0.875 -0.046875q-1.171875 0 -1.828125 0.5q-0.484375 0.375 -0.484375 0.890625q0 0.484375 0.375 0.8125q0.375 0.328125 1.09375 0.328125q0.703125 0 1.296875 -0.265625q0.59375 -0.28125 1.21875 -0.890625l0 -1.171875zm5.6293945 -2.84375l0 1.34375q1.03125 -0.9375 1.546875 -1.203125q0.53125 -0.265625 0.96875 -0.265625q0.46875 0 0.875 0.328125q0.421875 0.3125 0.421875 0.46875q0 0.125 -0.09375 0.203125q-0.078125 0.078125 -0.1875 0.078125q-0.0625 0 -0.109375 -0.015625q-0.046875 -0.03125 -0.171875 -0.140625q-0.21875 -0.234375 -0.390625 -0.3125q-0.15625 -0.078125 -0.3125 -0.078125q-0.359375 0 -0.859375 0.28125q-0.484375 0.28125 -1.6875 1.359375l0 2.921875l2.359375 0q0.203125 0 0.28125 0.078125q0.078125 0.0625 0.078125 0.1875q0 0.109375 -0.078125 0.1875q-0.078125 0.078125 -0.28125 0.078125l-4.1875 0q-0.1875 0 -0.28125 -0.0625q-0.078125 -0.078125 -0.078125 -0.203125q0 -0.109375 0.078125 -0.171875q0.09375 -0.078125 0.28125 -0.078125l1.296875 0l0 -4.4375l-0.984375 0q-0.1875 0 -0.28125 -0.078125q-0.078125 -0.078125 -0.078125 -0.203125q0 -0.109375 0.078125 -0.1875q0.078125 -0.078125 0.28125 -0.078125l1.515625 0zm7.3481445 0l2.890625 0q0.1875 0 0.265625 0.078125q0.09375 0.078125 0.09375 0.203125q0 0.109375 -0.09375 0.1875q-0.078125 0.078125 -0.265625 0.078125l-2.890625 0l0 3.546875q0 0.453125 0.359375 0.765625q0.375 0.3125 1.09375 0.3125q0.546875 0 1.171875 -0.15625q0.625 -0.15625 0.96875 -0.359375q0.125 -0.09375 0.21875 -0.09375q0.09375 0 0.171875 0.078125q0.078125 0.078125 0.078125 0.1875q0 0.09375 -0.078125 0.1875q-0.203125 0.203125 -1.0 0.453125q-0.78125 0.234375 -1.5 0.234375q-0.921875 0 -1.484375 -0.4375q-0.546875 -0.4375 -0.546875 -1.171875l0 -3.546875l-0.984375 0q-0.1875 0 -0.28125 -0.078125q-0.078125 -0.078125 -0.078125 -0.203125q0 -0.109375 0.078125 -0.1875q0.09375 -0.078125 0.28125 -0.078125l0.984375 0l0 -1.578125q0 -0.1875 0.078125 -0.265625q0.078125 -0.078125 0.1875 -0.078125q0.125 0 0.203125 0.078125q0.078125 0.078125 0.078125 0.265625l0 1.578125z" fill-rule="nonzero"/><path fill="#010000" fill-opacity="0.0" d="m106.76039 73.67803l0 0l0 14.7265625l0 0l0 -14.7265625z" fill-rule="nonzero"/><path fill="#ffffff" d="m30.721785 96.91338l113.07086 0l0 34.425194l-113.07086 0z" fill-rule="evenodd"/><path stroke="#000000" stroke-width="1.0" stroke-linejoin="round" stroke-linecap="butt" d="m30.721785 96.91338l113.07086 0l0 34.425194l-113.07086 0z" fill-rule="evenodd"/><path fill="#ffffff" d="m75.55531 106.125984l23.403809 0l0 16.0l-23.403809 0l0 -16.0z" fill-rule="nonzero"/><path fill="#000000" fill-opacity="0.0" d="m75.55531 108.10323l23.403809 0l0 14.7265625l-23.403809 0l0 -14.7265625z" fill-rule="nonzero"/><path fill="#2b2b2b" d="m77.44594 113.42599l0 0.96875q0.484375 -0.578125 1.015625 -0.859375q0.546875 -0.296875 1.296875 -0.296875q0.78125 0 1.453125 0.375q0.671875 0.359375 1.03125 1.015625q0.359375 0.65625 0.359375 1.390625q0 1.140625 -0.828125 1.953125q-0.8125 0.8125 -2.015625 0.8125q-1.421875 0 -2.3125 -1.15625l0 3.21875l1.296875 0q0.1875 0 0.265625 0.0625q0.09375 0.078125 0.09375 0.203125q0 0.109375 -0.09375 0.1875q-0.078125 0.078125 -0.265625 0.078125l-2.546875 0q-0.1875 0 -0.28125 -0.078125q-0.078125 -0.078125 -0.078125 -0.1875q0 -0.125 0.078125 -0.203125q0.09375 -0.0625 0.28125 -0.0625l0.71875 0l0 -6.875l-0.71875 0q-0.1875 0 -0.28125 -0.078125q-0.078125 -0.078125 -0.078125 -0.203125q0 -0.109375 0.078125 -0.1875q0.09375 -0.078125 0.28125 -0.078125l1.25 0zm4.625 2.59375q0 -0.921875 -0.671875 -1.578125q-0.671875 -0.65625 -1.640625 -0.65625q-0.96875 0 -1.640625 0.65625q-0.671875 0.65625 -0.671875 1.578125q0 0.90625 0.671875 1.578125q0.671875 0.65625 1.640625 0.65625q0.96875 0 1.640625 -0.65625q0.671875 -0.65625 0.671875 -1.578125zm8.160645 0.171875q0 1.21875 -0.875 2.078125q-0.859375 0.859375 -2.09375 0.859375q-1.25 0 -2.125 -0.859375q-0.859375 -0.875 -0.859375 -2.078125q0 -1.21875 0.859375 -2.078125q0.875 -0.875 2.125 -0.875q1.234375 0 2.09375 0.859375q0.875 0.859375 0.875 2.09375zm-0.53125 0q0 -1.0 -0.71875 -1.703125q-0.71875 -0.703125 -1.734375 -0.703125q-1.015625 0 -1.734375 0.703125q-0.703125 0.703125 -0.703125 1.703125q0 0.984375 0.703125 1.703125q0.71875 0.703125 1.734375 0.703125q1.015625 0 1.734375 -0.703125q0.71875 -0.703125 0.71875 -1.703125zm7.1137695 -2.40625q0 -0.1875 0.078125 -0.265625q0.078125 -0.09375 0.1875 -0.09375q0.125 0 0.203125 0.09375q0.078125 0.078125 0.078125 0.265625l0 0.921875q0 0.1875 -0.078125 0.28125q-0.078125 0.078125 -0.203125 0.078125q-0.09375 0 -0.171875 -0.0625q-0.078125 -0.078125 -0.09375 -0.25q-0.03125 -0.375 -0.390625 -0.625q-0.515625 -0.34375 -1.375 -0.34375q-0.890625 0 -1.390625 0.359375q-0.375 0.265625 -0.375 0.609375q0 0.375 0.453125 0.625q0.296875 0.1875 1.140625 0.28125q1.125 0.109375 1.546875 0.265625q0.625 0.21875 0.921875 0.625q0.296875 0.390625 0.296875 0.84375q0 0.6875 -0.65625 1.21875q-0.640625 0.515625 -1.90625 0.515625q-1.265625 0 -2.078125 -0.640625q0 0.21875 -0.03125 0.28125q-0.015625 0.0625 -0.09375 0.109375q-0.0625 0.046875 -0.140625 0.046875q-0.109375 0 -0.1875 -0.078125q-0.078125 -0.09375 -0.078125 -0.28125l0 -1.09375q0 -0.1875 0.0625 -0.265625q0.078125 -0.09375 0.203125 -0.09375q0.109375 0 0.1875 0.078125q0.09375 0.078125 0.09375 0.21875q0 0.296875 0.140625 0.484375q0.21875 0.3125 0.703125 0.515625q0.484375 0.1875 1.1875 0.1875q1.046875 0 1.546875 -0.375q0.515625 -0.390625 0.515625 -0.828125q0 -0.5 -0.515625 -0.796875q-0.515625 -0.296875 -1.515625 -0.390625q-0.984375 -0.109375 -1.421875 -0.265625q-0.4375 -0.171875 -0.671875 -0.5q-0.234375 -0.328125 -0.234375 -0.71875q0 -0.671875 0.671875 -1.078125q0.671875 -0.40625 1.59375 -0.40625q1.109375 0 1.796875 0.546875z" fill-rule="nonzero"/><path fill="#000000" fill-opacity="0.0" d="m98.95912 108.10323l0 0l0 14.7265625l0 0l0 -14.7265625z" fill-rule="nonzero"/><path fill="#ffffff" d="m30.721785 131.33858l113.07086 0l0 34.4252l-113.07086 0z" fill-rule="evenodd"/><path stroke="#000000" stroke-width="1.0" stroke-linejoin="round" stroke-linecap="butt" d="m30.721785 131.33858l113.07086 0l0 34.4252l-113.07086 0z" fill-rule="evenodd"/><path fill="#ffffff" d="m71.65468 140.55118l31.205078 0l0 16.0l-31.205078 0l0 -16.0z" fill-rule="nonzero"/><path fill="#000000" fill-opacity="0.0" d="m71.65468 142.52843l31.205078 0l0 14.7265625l-31.205078 0l0 -14.7265625z" fill-rule="nonzero"/><path fill="#2b2b2b" d="m75.82655 145.38243l0 7.4375l2.09375 0q0.203125 0 0.28125 0.078125q0.078125 0.0625 0.078125 0.1875q0 0.109375 -0.078125 0.1875q-0.078125 0.078125 -0.28125 0.078125l-4.71875 0q-0.1875 0 -0.28125 -0.078125q-0.078125 -0.078125 -0.078125 -0.1875q0 -0.125 0.078125 -0.1875q0.09375 -0.078125 0.28125 -0.078125l2.09375 0l0 -6.890625l-1.546875 0q-0.1875 0 -0.28125 -0.078125q-0.078125 -0.078125 -0.078125 -0.203125q0 -0.109375 0.078125 -0.1875q0.09375 -0.078125 0.28125 -0.078125l2.078125 0zm7.8012695 -0.265625l0 1.375l-0.796875 0l0 -1.375l0.796875 0zm0.015625 2.734375l0 4.96875l2.09375 0q0.1875 0 0.265625 0.078125q0.09375 0.0625 0.09375 0.1875q0 0.109375 -0.09375 0.1875q-0.078125 0.078125 -0.265625 0.078125l-4.71875 0q-0.203125 0 -0.28125 -0.078125q-0.078125 -0.078125 -0.078125 -0.1875q0 -0.125 0.078125 -0.1875q0.078125 -0.078125 0.28125 -0.078125l2.09375 0l0 -4.421875l-1.5625 0q-0.1875 0 -0.28125 -0.078125q-0.078125 -0.078125 -0.078125 -0.1875q0 -0.125 0.078125 -0.203125q0.078125 -0.078125 0.28125 -0.078125l2.09375 0zm5.7856445 0l0 0.8125q0.5625 -0.5625 1.015625 -0.78125q0.453125 -0.21875 1.015625 -0.21875q0.609375 0 1.109375 0.265625q0.359375 0.1875 0.640625 0.625q0.296875 0.4375 0.296875 0.90625l0 3.359375l0.453125 0q0.1875 0 0.265625 0.078125q0.078125 0.0625 0.078125 0.1875q0 0.109375 -0.078125 0.1875q-0.078125 0.078125 -0.265625 0.078125l-1.4375 0q-0.1875 0 -0.28125 -0.078125q-0.078125 -0.078125 -0.078125 -0.1875q0 -0.125 0.078125 -0.1875q0.09375 -0.078125 0.28125 -0.078125l0.453125 0l0 -3.265625q0 -0.578125 -0.421875 -0.953125q-0.40625 -0.390625 -1.09375 -0.390625q-0.53125 0 -0.921875 0.21875q-0.390625 0.203125 -1.109375 1.046875l0 3.34375l0.609375 0q0.1875 0 0.265625 0.078125q0.09375 0.0625 0.09375 0.1875q0 0.109375 -0.09375 0.1875q-0.078125 0.078125 -0.265625 0.078125l-1.734375 0q-0.203125 0 -0.28125 -0.078125q-0.078125 -0.078125 -0.078125 -0.1875q0 -0.125 0.078125 -0.1875q0.078125 -0.078125 0.28125 -0.078125l0.59375 0l0 -4.421875l-0.453125 0q-0.1875 0 -0.265625 -0.078125q-0.078125 -0.078125 -0.078125 -0.203125q0 -0.109375 0.078125 -0.1875q0.078125 -0.078125 0.265625 -0.078125l0.984375 0zm12.410645 2.875l-5.421875 0q0.125 1.03125 0.859375 1.671875q0.734375 0.625 1.796875 0.625q0.59375 0 1.25 -0.1875q0.65625 -0.203125 1.0625 -0.53125q0.125 -0.09375 0.21875 -0.09375q0.09375 0 0.171875 0.078125q0.078125 0.078125 0.078125 0.1875q0 0.109375 -0.09375 0.21875q-0.3125 0.3125 -1.09375 0.59375q-0.765625 0.265625 -1.59375 0.265625q-1.375 0 -2.296875 -0.890625q-0.90625 -0.90625 -0.90625 -2.171875q0 -1.171875 0.859375 -2.0q0.859375 -0.828125 2.125 -0.828125q1.3125 0 2.15625 0.859375q0.84375 0.84375 0.828125 2.203125zm-0.53125 -0.53125q-0.15625 -0.890625 -0.84375 -1.4375q-0.671875 -0.546875 -1.609375 -0.546875q-0.921875 0 -1.59375 0.546875q-0.671875 0.53125 -0.84375 1.4375l4.890625 0z" fill-rule="nonzero"/><path fill="#010000" fill-opacity="0.0" d="m102.85976 142.52843l0 0l0 14.7265625l0 0l0 -14.7265625z" fill-rule="nonzero"/><path fill="#ffffff" d="m193.1076 19.998688l34.204727 0l0 34.425198l-34.204727 0z" fill-rule="evenodd"/><path stroke="#000000" stroke-width="1.0" stroke-linejoin="round" stroke-linecap="butt" d="m193.1076 19.998688l34.204727 0l0 34.425198l-34.204727 0z" fill-rule="evenodd"/><path fill="#ffffff" d="m206.30934 29.211287l7.8012695 0l0 15.999998l-7.8012695 0l0 -15.999998z" fill-rule="nonzero"/><path fill="#000000" fill-opacity="0.0" d="m206.30934 31.188532l7.8012695 0l0 14.726561l-7.8012695 0l0 -14.726561z" fill-rule="nonzero"/><path fill="#2b2b2b" d="m206.93434 38.30816l5.765625 -3.203125q0.140625 -0.078125 0.203125 -0.078125q0.109375 0 0.1875 0.078125q0.078125 0.078125 0.078125 0.1875q0 0.15625 -0.21875 0.28125l-4.9375 2.734375l4.9375 2.75q0.21875 0.109375 0.21875 0.28125q0 0.09375 -0.078125 0.1875q-0.078125 0.078125 -0.1875 0.078125q-0.078125 0 -0.21875 -0.078125l-5.75 -3.21875z" fill-rule="nonzero"/><path fill="#010000" fill-opacity="0.0" d="m214.11061 31.188532l0 0l0 14.726561l0 0l0 -14.726561z" fill-rule="nonzero"/><path fill="#ffffff" d="m227.32545 19.998688l34.204727 0l0 34.425198l-34.204727 0z" fill-rule="evenodd"/><path stroke="#000000" stroke-width="1.0" stroke-linejoin="round" stroke-linecap="butt" d="m227.32545 19.998688l34.204727 0l0 34.425198l-34.204727 0z" fill-rule="evenodd"/><path fill="#ffffff" d="m240.52719 29.211287l7.8012695 0l0 15.999998l-7.8012695 0l0 -15.999998z" fill-rule="nonzero"/><path fill="#000000" fill-opacity="0.0" d="m240.52719 31.188532l7.8012695 0l0 14.726561l-7.8012695 0l0 -14.726561z" fill-rule="nonzero"/><path fill="#2b2b2b" d="m242.41782 36.511284l0 0.96875q0.484375 -0.578125 1.015625 -0.859375q0.546875 -0.296875 1.296875 -0.296875q0.78125 0 1.453125 0.375q0.671875 0.359375 1.03125 1.015625q0.359375 0.65625 0.359375 1.390625q0 1.140625 -0.828125 1.953125q-0.8125 0.8125 -2.015625 0.8125q-1.421875 0 -2.3125 -1.15625l0 3.21875l1.296875 0q0.1875 0 0.265625 0.0625q0.09375 0.078125 0.09375 0.203125q0 0.109375 -0.09375 0.1875q-0.078125 0.078125 -0.265625 0.078125l-2.546875 0q-0.1875 0 -0.28125 -0.078125q-0.078125 -0.078125 -0.078125 -0.1875q0 -0.125 0.078125 -0.203125q0.09375 -0.0625 0.28125 -0.0625l0.71875 0l0 -6.875l-0.71875 0q-0.1875 0 -0.28125 -0.078125q-0.078125 -0.078125 -0.078125 -0.203125q0 -0.109375 0.078125 -0.1875q0.09375 -0.078125 0.28125 -0.078125l1.25 0zm4.625 2.59375q0 -0.921875 -0.671875 -1.578125q-0.671875 -0.65625 -1.640625 -0.65625q-0.96875 0 -1.640625 0.65625q-0.671875 0.65625 -0.671875 1.578125q0 0.90625 0.671875 1.578125q0.671875 0.65625 1.640625 0.65625q0.96875 0 1.640625 -0.65625q0.671875 -0.65625 0.671875 -1.578125z" fill-rule="nonzero"/><path fill="#010000" fill-opacity="0.0" d="m248.32846 31.188532l0 0l0 14.726561l0 0l0 -14.726561z" fill-rule="nonzero"/><path fill="#ffffff" d="m261.5433 19.998688l34.204712 0l0 34.425198l-34.204712 0z" fill-rule="evenodd"/><path stroke="#000000" stroke-width="1.0" stroke-linejoin="round" stroke-linecap="butt" d="m261.5433 19.998688l34.204712 0l0 34.425198l-34.204712 0z" fill-rule="evenodd"/><path fill="#ffffff" d="m274.74503 29.211287l7.8012695 0l0 15.999998l-7.8012695 0l0 -15.999998z" fill-rule="nonzero"/><path fill="#000000" fill-opacity="0.0" d="m274.74503 31.188532l7.8012695 0l0 14.726561l-7.8012695 0l0 -14.726561z" fill-rule="nonzero"/><path fill="#2b2b2b" d="m281.9169 38.30816l-5.75 3.21875q-0.140625 0.078125 -0.21875 0.078125q-0.109375 0 -0.1875 -0.078125q-0.078125 -0.09375 -0.078125 -0.1875q0 -0.171875 0.21875 -0.28125l4.9375 -2.75l-4.9375 -2.734375q-0.203125 -0.125 -0.203125 -0.28125q0 -0.109375 0.078125 -0.1875q0.078125 -0.078125 0.1875 -0.078125q0.0625 0 0.203125 0.078125l5.75 3.203125z" fill-rule="nonzero"/><path fill="#010000" fill-opacity="0.0" d="m282.5463 31.188532l0 0l0 14.726561l0 0l0 -14.726561z" fill-rule="nonzero"/><path fill="#ffffff" d="m295.74802 19.998688l34.204742 0l0 34.425198l-34.204742 0z" fill-rule="evenodd"/><path stroke="#000000" stroke-width="1.0" stroke-linejoin="round" stroke-linecap="butt" d="m295.74802 19.998688l34.204742 0l0 34.425198l-34.204742 0z" fill-rule="evenodd"/><path fill="#ffffff" d="m308.94977 29.211287l7.8012695 0l0 15.999998l-7.8012695 0l0 -15.999998z" fill-rule="nonzero"/><path fill="#000000" fill-opacity="0.0" d="m308.94977 31.188532l7.8012695 0l0 14.726561l-7.8012695 0l0 -14.726561z" fill-rule="nonzero"/><path fill="#2b2b2b" d="m309.57477 38.30816l5.765625 -3.203125q0.140625 -0.078125 0.203125 -0.078125q0.109375 0 0.1875 0.078125q0.078125 0.078125 0.078125 0.1875q0 0.15625 -0.21875 0.28125l-4.9375 2.734375l4.9375 2.75q0.21875 0.109375 0.21875 0.28125q0 0.09375 -0.078125 0.1875q-0.078125 0.078125 -0.1875 0.078125q-0.078125 0 -0.21875 -0.078125l-5.75 -3.21875z" fill-rule="nonzero"/><path fill="#000000" fill-opacity="0.0" d="m316.75104 31.188532l0 0l0 14.726561l0 0l0 -14.726561z" fill-rule="nonzero"/><path fill="#ffffff" d="m329.979 19.998688l34.204712 0l0 34.425198l-34.204712 0z" fill-rule="evenodd"/><path stroke="#000000" stroke-width="1.0" stroke-linejoin="round" stroke-linecap="butt" d="m329.979 19.998688l34.204712 0l0 34.425198l-34.204712 0z" fill-rule="evenodd"/><path fill="#ffffff" d="m343.18073 29.211287l7.8012695 0l0 15.999998l-7.8012695 0l0 -15.999998z" fill-rule="nonzero"/><path fill="#000000" fill-opacity="0.0" d="m343.18073 31.188532l7.8012695 0l0 14.726561l-7.8012695 0l0 -14.726561z" fill-rule="nonzero"/><path fill="#2b2b2b" d="m347.58698 34.58941l-0.234375 4.296875q-0.015625 0.203125 -0.09375 0.296875q-0.0625 0.078125 -0.171875 0.078125q-0.109375 0 -0.1875 -0.078125q-0.078125 -0.09375 -0.09375 -0.296875l-0.234375 -4.296875q0 -0.15625 0 -0.234375q0 -0.203125 0.140625 -0.34375q0.15625 -0.15625 0.375 -0.15625q0.21875 0 0.359375 0.15625q0.15625 0.140625 0.15625 0.359375q0 0.0625 -0.015625 0.21875zm-0.625 6.296875l0.25 0q0.265625 0 0.453125 0.1875q0.203125 0.1875 0.203125 0.46875q0 0.28125 -0.203125 0.46875q-0.1875 0.1875 -0.453125 0.1875l-0.25 0q-0.28125 0 -0.484375 -0.1875q-0.1875 -0.203125 -0.1875 -0.46875q0 -0.28125 0.203125 -0.46875q0.203125 -0.1875 0.46875 -0.1875z" fill-rule="nonzero"/><path fill="#010000" fill-opacity="0.0" d="m350.982 31.188532l0 0l0 14.726561l0 0l0 -14.726561z" fill-rule="nonzero"/><path fill="#ffffff" d="m364.19684 19.998688l34.204742 0l0 34.425198l-34.204742 0z" fill-rule="evenodd"/><path stroke="#000000" stroke-width="1.0" stroke-linejoin="round" stroke-linecap="butt" d="m364.19684 19.998688l34.204742 0l0 34.425198l-34.204742 0z" fill-rule="evenodd"/><path fill="#ffffff" d="m377.3986 29.211287l7.8012695 0l0 15.999998l-7.8012695 0l0 -15.999998z" fill-rule="nonzero"/><path fill="#000000" fill-opacity="0.0" d="m377.3986 31.188532l7.8012695 0l0 14.726561l-7.8012695 0l0 -14.726561z" fill-rule="nonzero"/><path fill="#2b2b2b" d="m384.0236 37.948784l0 0.765625l-5.4375 0l0 -0.765625l5.4375 0z" fill-rule="nonzero"/><path fill="#010000" fill-opacity="0.0" d="m385.19986 31.188532l0 0l0 14.726561l0 0l0 -14.726561z" fill-rule="nonzero"/><path fill="#ffffff" d="m398.4147 19.998688l34.204712 0l0 34.425198l-34.204712 0z" fill-rule="evenodd"/><path stroke="#000000" stroke-width="1.0" stroke-linejoin="round" stroke-linecap="butt" d="m398.4147 19.998688l34.204712 0l0 34.425198l-34.204712 0z" fill-rule="evenodd"/><path fill="#ffffff" d="m411.61642 29.211287l7.8012695 0l0 15.999998l-7.8012695 0l0 -15.999998z" fill-rule="nonzero"/><path fill="#000000" fill-opacity="0.0" d="m411.61642 31.188532l7.8012695 0l0 14.726561l-7.8012695 0l0 -14.726561z" fill-rule="nonzero"/><path fill="#2b2b2b" d="m418.24142 37.948784l0 0.765625l-5.4375 0l0 -0.765625l5.4375 0z" fill-rule="nonzero"/><path fill="#010000" fill-opacity="0.0" d="m419.4177 31.188532l0 0l0 14.726561l0 0l0 -14.726561z" fill-rule="nonzero"/><path fill="#ffffff" d="m432.61942 19.998688l34.204742 0l0 34.425198l-34.204742 0z" fill-rule="evenodd"/><path stroke="#000000" stroke-width="1.0" stroke-linejoin="round" stroke-linecap="butt" d="m432.61942 19.998688l34.204742 0l0 34.425198l-34.204742 0z" fill-rule="evenodd"/><path fill="#ffffff" d="m466.8504 19.998688l34.204712 0l0 34.425198l-34.204712 0z" fill-rule="evenodd"/><path stroke="#000000" stroke-width="1.0" stroke-linejoin="round" stroke-linecap="butt" d="m466.8504 19.998688l34.204712 0l0 34.425198l-34.204712 0z" fill-rule="evenodd"/><path fill="#ffffff" d="m480.05212 29.211287l7.8012695 0l0 15.999998l-7.8012695 0l0 -15.999998z" fill-rule="nonzero"/><path fill="#000000" fill-opacity="0.0" d="m480.05212 31.188532l7.8012695 0l0 14.726561l-7.8012695 0l0 -14.726561z" fill-rule="nonzero"/><path fill="#2b2b2b" d="m485.75525 38.417534l-3.53125 0l0 3.0625l0.71875 0q0.1875 0 0.265625 0.078125q0.09375 0.0625 0.09375 0.1875q0 0.109375 -0.09375 0.1875q-0.078125 0.078125 -0.265625 0.078125l-1.859375 0q-0.1875 0 -0.28125 -0.078125q-0.078125 -0.078125 -0.078125 -0.1875q0 -0.125 0.078125 -0.1875q0.09375 -0.078125 0.28125 -0.078125l0.609375 0l0 -6.359375l-0.328125 0q-0.203125 0 -0.28125 -0.078125q-0.078125 -0.078125 -0.078125 -0.1875q0 -0.125 0.078125 -0.1875q0.078125 -0.078125 0.28125 -0.078125l1.578125 0q0.1875 0 0.265625 0.078125q0.09375 0.0625 0.09375 0.1875q0 0.109375 -0.09375 0.1875q-0.078125 0.078125 -0.265625 0.078125l-0.71875 0l0 2.765625l3.53125 0l0 -2.765625l-0.703125 0q-0.1875 0 -0.28125 -0.078125q-0.078125 -0.078125 -0.078125 -0.1875q0 -0.125 0.078125 -0.1875q0.078125 -0.078125 0.28125 -0.078125l1.578125 0q0.1875 0 0.265625 0.078125q0.09375 0.0625 0.09375 0.1875q0 0.109375 -0.09375 0.1875q-0.078125 0.078125 -0.265625 0.078125l-0.328125 0l0 6.359375l0.59375 0q0.203125 0 0.28125 0.078125q0.078125 0.0625 0.078125 0.1875q0 0.109375 -0.078125 0.1875q-0.078125 0.078125 -0.28125 0.078125l-1.84375 0q-0.1875 0 -0.28125 -0.078125q-0.078125 -0.078125 -0.078125 -0.1875q0 -0.125 0.078125 -0.1875q0.078125 -0.078125 0.28125 -0.078125l0.703125 0l0 -3.0625z" fill-rule="nonzero"/><path fill="#010000" fill-opacity="0.0" d="m487.8534 31.188532l0 0l0 14.726561l0 0l0 -14.726561z" fill-rule="nonzero"/><path fill="#ffffff" d="m501.06824 19.998688l34.204712 0l0 34.425198l-34.204712 0z" fill-rule="evenodd"/><path stroke="#000000" stroke-width="1.0" stroke-linejoin="round" stroke-linecap="butt" d="m501.06824 19.998688l34.204712 0l0 34.425198l-34.204712 0z" fill-rule="evenodd"/><path fill="#ffffff" d="m514.26996 29.211287l7.8012695 0l0 15.999998l-7.8012695 0l0 -15.999998z" fill-rule="nonzero"/><path fill="#000000" fill-opacity="0.0" d="m514.26996 31.188532l7.8012695 0l0 14.726561l-7.8012695 0l0 -14.726561z" fill-rule="nonzero"/><path fill="#2b2b2b" d="m518.44183 35.12066l0 6.359375l1.375 0q0.1875 0 0.265625 0.078125q0.09375 0.0625 0.09375 0.1875q0 0.109375 -0.09375 0.1875q-0.078125 0.078125 -0.265625 0.078125l-3.3125 0q-0.1875 0 -0.265625 -0.078125q-0.078125 -0.078125 -0.078125 -0.1875q0 -0.125 0.078125 -0.1875q0.078125 -0.078125 0.265625 -0.078125l1.390625 0l0 -6.359375l-2.1875 0l0 1.84375q0 0.203125 -0.078125 0.28125q-0.0625 0.078125 -0.1875 0.078125q-0.109375 0 -0.1875 -0.078125q-0.078125 -0.078125 -0.078125 -0.28125l0 -2.375l5.96875 0l0 2.375q0 0.203125 -0.078125 0.28125q-0.0625 0.078125 -0.1875 0.078125q-0.109375 0 -0.1875 -0.078125q-0.078125 -0.078125 -0.078125 -0.28125l0 -1.84375l-2.171875 0z" fill-rule="nonzero"/><path fill="#010000" fill-opacity="0.0" d="m522.0712 31.188532l0 0l0 14.726561l0 0l0 -14.726561z" fill-rule="nonzero"/><path fill="#ffffff" d="m535.2861 19.998688l34.204712 0l0 34.425198l-34.204712 0z" fill-rule="evenodd"/><path stroke="#000000" stroke-width="1.0" stroke-linejoin="round" stroke-linecap="butt" d="m535.2861 19.998688l34.204712 0l0 34.425198l-34.204712 0z" fill-rule="evenodd"/><path fill="#ffffff" d="m548.4878 29.211287l7.8012695 0l0 15.999998l-7.8012695 0l0 -15.999998z" fill-rule="nonzero"/><path fill="#000000" fill-opacity="0.0" d="m548.4878 31.188532l7.8012695 0l0 14.726561l-7.8012695 0l0 -14.726561z" fill-rule="nonzero"/><path fill="#2b2b2b" d="m552.7378 39.77691l-0.609375 0l-2.046875 -4.65625l-0.109375 0l0 6.359375l0.984375 0q0.203125 0 0.28125 0.078125q0.078125 0.0625 0.078125 0.1875q0 0.109375 -0.078125 0.1875q-0.078125 0.078125 -0.28125 0.078125l-1.953125 0q-0.203125 0 -0.28125 -0.078125q-0.078125 -0.078125 -0.078125 -0.1875q0 -0.125 0.078125 -0.1875q0.078125 -0.078125 0.28125 -0.078125l0.4375 0l0 -6.359375l-0.328125 0q-0.1875 0 -0.28125 -0.078125q-0.078125 -0.078125 -0.078125 -0.1875q0 -0.125 0.078125 -0.1875q0.09375 -0.078125 0.28125 -0.078125l1.3125 0l2.015625 4.59375l1.984375 -4.59375l1.3125 0q0.1875 0 0.265625 0.078125q0.09375 0.0625 0.09375 0.1875q0 0.109375 -0.09375 0.1875q-0.078125 0.078125 -0.265625 0.078125l-0.34375 0l0 6.359375l0.453125 0q0.1875 0 0.265625 0.078125q0.09375 0.0625 0.09375 0.1875q0 0.109375 -0.09375 0.1875q-0.078125 0.078125 -0.265625 0.078125l-1.96875 0q-0.1875 0 -0.28125 -0.078125q-0.078125 -0.078125 -0.078125 -0.1875q0 -0.125 0.078125 -0.1875q0.09375 -0.078125 0.28125 -0.078125l0.984375 0l0 -6.359375l-0.109375 0l-2.015625 4.65625z" fill-rule="nonzero"/><path fill="#010000" fill-opacity="0.0" d="m556.28906 31.188532l0 0l0 14.726561l0 0l0 -14.726561z" fill-rule="nonzero"/><path fill="#ffffff" d="m569.4908 19.998688l34.204773 0l0 34.425198l-34.204773 0z" fill-rule="evenodd"/><path stroke="#000000" stroke-width="1.0" stroke-linejoin="round" stroke-linecap="butt" d="m569.4908 19.998688l34.204773 0l0 34.425198l-34.204773 0z" fill-rule="evenodd"/><path fill="#ffffff" d="m582.69257 29.211287l7.8012695 0l0 15.999998l-7.8012695 0l0 -15.999998z" fill-rule="nonzero"/><path fill="#000000" fill-opacity="0.0" d="m582.69257 31.188532l7.8012695 0l0 14.726561l-7.8012695 0l0 -14.726561z" fill-rule="nonzero"/><path fill="#2b2b2b" d="m585.67694 35.12066l0 6.359375l3.53125 0l0 -2.125q0 -0.1875 0.078125 -0.265625q0.078125 -0.09375 0.203125 -0.09375q0.109375 0 0.1875 0.09375q0.078125 0.078125 0.078125 0.265625l0 2.65625l-5.890625 0q-0.1875 0 -0.28125 -0.078125q-0.078125 -0.078125 -0.078125 -0.1875q0 -0.125 0.078125 -0.1875q0.09375 -0.078125 0.28125 -0.078125l1.265625 0l0 -6.359375l-1.265625 0q-0.1875 0 -0.28125 -0.078125q-0.078125 -0.078125 -0.078125 -0.1875q0 -0.125 0.078125 -0.1875q0.09375 -0.078125 0.28125 -0.078125l3.078125 0q0.1875 0 0.265625 0.078125q0.09375 0.0625 0.09375 0.1875q0 0.109375 -0.09375 0.1875q-0.078125 0.078125 -0.265625 0.078125l-1.265625 0z" fill-rule="nonzero"/><path fill="#010000" fill-opacity="0.0" d="m590.49384 31.188532l0 0l0 14.726561l0 0l0 -14.726561z" fill-rule="nonzero"/><path fill="#ffffff" d="m603.7218 19.998688l34.204712 0l0 34.425198l-34.204712 0z" fill-rule="evenodd"/><path stroke="#000000" stroke-width="1.0" stroke-linejoin="round" stroke-linecap="butt" d="m603.7218 19.998688l34.204712 0l0 34.425198l-34.204712 0z" fill-rule="evenodd"/><path fill="#ffffff" d="m637.93964 19.998688l34.204712 0l0 34.425198l-34.204712 0z" fill-rule="evenodd"/><path stroke="#000000" stroke-width="1.0" stroke-linejoin="round" stroke-linecap="butt" d="m637.93964 19.998688l34.204712 0l0 34.425198l-34.204712 0z" fill-rule="evenodd"/><path fill="#ffffff" d="m651.14136 29.211287l7.8012695 0l0 15.999998l-7.8012695 0l0 -15.999998z" fill-rule="nonzero"/><path fill="#000000" fill-opacity="0.0" d="m651.14136 31.188532l7.8012695 0l0 14.726561l-7.8012695 0l0 -14.726561z" fill-rule="nonzero"/><path fill="#2b2b2b" d="m657.26636 37.05816l0 -0.1875q0 -0.1875 0.078125 -0.265625q0.078125 -0.09375 0.1875 -0.09375q0.125 0 0.203125 0.09375q0.078125 0.078125 0.078125 0.265625l0 1.21875q-0.015625 0.1875 -0.09375 0.28125q-0.0625 0.078125 -0.1875 0.078125q-0.109375 0 -0.1875 -0.078125q-0.0625 -0.078125 -0.078125 -0.25q-0.03125 -0.4375 -0.59375 -0.84375q-0.546875 -0.40625 -1.5 -0.40625q-1.1875 0 -1.796875 0.75q-0.609375 0.734375 -0.609375 1.6875q0 1.03125 0.671875 1.703125q0.6875 0.671875 1.765625 0.671875q0.609375 0 1.25 -0.21875q0.65625 -0.234375 1.171875 -0.734375q0.140625 -0.140625 0.234375 -0.140625q0.109375 0 0.171875 0.078125q0.078125 0.078125 0.078125 0.1875q0 0.265625 -0.640625 0.6875q-1.03125 0.671875 -2.296875 0.671875q-1.28125 0 -2.125 -0.8125q-0.828125 -0.828125 -0.828125 -2.09375q0 -1.28125 0.84375 -2.125q0.859375 -0.859375 2.140625 -0.859375q1.234375 0 2.0625 0.734375z" fill-rule="nonzero"/><path fill="#010000" fill-opacity="0.0" d="m658.9426 31.188532l0 0l0 14.726561l0 0l0 -14.726561z" fill-rule="nonzero"/><path fill="#ffffff" d="m672.1575 19.998688l34.204712 0l0 34.425198l-34.204712 0z" fill-rule="evenodd"/><path stroke="#000000" stroke-width="1.0" stroke-linejoin="round" stroke-linecap="butt" d="m672.1575 19.998688l34.204712 0l0 34.425198l-34.204712 0z" fill-rule="evenodd"/><path fill="#ffffff" d="m685.3592 29.211287l7.8012695 0l0 15.999998l-7.8012695 0l0 -15.999998z" fill-rule="nonzero"/><path fill="#000000" fill-opacity="0.0" d="m685.3592 31.188532l7.8012695 0l0 14.726561l-7.8012695 0l0 -14.726561z" fill-rule="nonzero"/><path fill="#2b2b2b" d="m692.2342 39.27691q0 1.21875 -0.875 2.078125q-0.859375 0.859375 -2.09375 0.859375q-1.25 0 -2.125 -0.859375q-0.859375 -0.875 -0.859375 -2.078125q0 -1.21875 0.859375 -2.078125q0.875 -0.875 2.125 -0.875q1.234375 0 2.09375 0.859375q0.875 0.859375 0.875 2.09375zm-0.53125 0q0 -1.0 -0.71875 -1.703125q-0.71875 -0.703125 -1.734375 -0.703125q-1.015625 0 -1.734375 0.703125q-0.703125 0.703125 -0.703125 1.703125q0 0.984375 0.703125 1.703125q0.71875 0.703125 1.734375 0.703125q1.015625 0 1.734375 -0.703125q0.71875 -0.703125 0.71875 -1.703125z" fill-rule="nonzero"/><path fill="#010000" fill-opacity="0.0" d="m693.16046 31.188532l0 0l0 14.726561l0 0l0 -14.726561z" fill-rule="nonzero"/><path fill="#ffffff" d="m706.3622 19.998688l34.204773 0l0 34.425198l-34.204773 0z" fill-rule="evenodd"/><path stroke="#000000" stroke-width="1.0" stroke-linejoin="round" stroke-linecap="butt" d="m706.3622 19.998688l34.204773 0l0 34.425198l-34.204773 0z" fill-rule="evenodd"/><path fill="#ffffff" d="m719.5639 29.211287l7.8012695 0l0 15.999998l-7.8012695 0l0 -15.999998z" fill-rule="nonzero"/><path fill="#000000" fill-opacity="0.0" d="m719.5639 31.188532l7.8012695 0l0 14.726561l-7.8012695 0l0 -14.726561z" fill-rule="nonzero"/><path fill="#2b2b2b" d="m721.03265 36.511284l0 0.546875q0.6875 -0.734375 1.375 -0.734375q0.40625 0 0.71875 0.21875q0.3125 0.21875 0.515625 0.65625q0.359375 -0.4375 0.71875 -0.65625q0.375 -0.21875 0.734375 -0.21875q0.578125 0 0.921875 0.375q0.453125 0.484375 0.453125 1.046875l0 3.734375l0.453125 0q0.1875 0 0.265625 0.078125q0.09375 0.0625 0.09375 0.1875q0 0.109375 -0.09375 0.1875q-0.078125 0.078125 -0.265625 0.078125l-0.984375 0l0 -4.203125q0 -0.40625 -0.25 -0.671875q-0.25 -0.265625 -0.578125 -0.265625q-0.28125 0 -0.609375 0.21875q-0.328125 0.21875 -0.734375 0.859375l0 3.53125l0.4375 0q0.203125 0 0.28125 0.078125q0.078125 0.0625 0.078125 0.1875q0 0.109375 -0.078125 0.1875q-0.078125 0.078125 -0.28125 0.078125l-0.984375 0l0 -4.171875q0 -0.421875 -0.25 -0.6875q-0.25 -0.28125 -0.5625 -0.28125q-0.28125 0 -0.5625 0.171875q-0.390625 0.265625 -0.8125 0.90625l0 3.53125l0.453125 0q0.1875 0 0.265625 0.078125q0.09375 0.0625 0.09375 0.1875q0 0.109375 -0.09375 0.1875q-0.078125 0.078125 -0.265625 0.078125l-1.4375 0q-0.1875 0 -0.265625 -0.078125q-0.078125 -0.078125 -0.078125 -0.1875q0 -0.125 0.078125 -0.1875q0.078125 -0.078125 0.265625 -0.078125l0.453125 0l0 -4.421875l-0.453125 0q-0.1875 0 -0.265625 -0.078125q-0.078125 -0.078125 -0.078125 -0.203125q0 -0.109375 0.078125 -0.1875q0.078125 -0.078125 0.265625 -0.078125l0.984375 0z" fill-rule="nonzero"/><path fill="#010000" fill-opacity="0.0" d="m727.3652 31.188532l0 0l0 14.726561l0 0l0 -14.726561z" fill-rule="nonzero"/><path fill="#ffffff" d="m740.5932 19.998688l34.204712 0l0 34.425198l-34.204712 0z" fill-rule="evenodd"/><path stroke="#000000" stroke-width="1.0" stroke-linejoin="round" stroke-linecap="butt" d="m740.5932 19.998688l34.204712 0l0 34.425198l-34.204712 0z" fill-rule="evenodd"/><path fill="#ffffff" d="m753.7949 29.211287l7.8012695 0l0 15.999998l-7.8012695 0l0 -15.999998z" fill-rule="nonzero"/><path fill="#000000" fill-opacity="0.0" d="m753.7949 31.188532l7.8012695 0l0 14.726561l-7.8012695 0l0 -14.726561z" fill-rule="nonzero"/><path fill="#2b2b2b" d="m755.2637 36.511284l0 0.546875q0.6875 -0.734375 1.375 -0.734375q0.40625 0 0.71875 0.21875q0.3125 0.21875 0.515625 0.65625q0.359375 -0.4375 0.71875 -0.65625q0.375 -0.21875 0.734375 -0.21875q0.578125 0 0.921875 0.375q0.453125 0.484375 0.453125 1.046875l0 3.734375l0.453125 0q0.1875 0 0.265625 0.078125q0.09375 0.0625 0.09375 0.1875q0 0.109375 -0.09375 0.1875q-0.078125 0.078125 -0.265625 0.078125l-0.984375 0l0 -4.203125q0 -0.40625 -0.25 -0.671875q-0.25 -0.265625 -0.578125 -0.265625q-0.28125 0 -0.609375 0.21875q-0.328125 0.21875 -0.734375 0.859375l0 3.53125l0.4375 0q0.203125 0 0.28125 0.078125q0.078125 0.0625 0.078125 0.1875q0 0.109375 -0.078125 0.1875q-0.078125 0.078125 -0.28125 0.078125l-0.984375 0l0 -4.171875q0 -0.421875 -0.25 -0.6875q-0.25 -0.28125 -0.5625 -0.28125q-0.28125 0 -0.5625 0.171875q-0.390625 0.265625 -0.8125 0.90625l0 3.53125l0.453125 0q0.1875 0 0.265625 0.078125q0.09375 0.0625 0.09375 0.1875q0 0.109375 -0.09375 0.1875q-0.078125 0.078125 -0.265625 0.078125l-1.4375 0q-0.1875 0 -0.265625 -0.078125q-0.078125 -0.078125 -0.078125 -0.1875q0 -0.125 0.078125 -0.1875q0.078125 -0.078125 0.265625 -0.078125l0.453125 0l0 -4.421875l-0.453125 0q-0.1875 0 -0.265625 -0.078125q-0.078125 -0.078125 -0.078125 -0.203125q0 -0.109375 0.078125 -0.1875q0.078125 -0.078125 0.265625 -0.078125l0.984375 0z" fill-rule="nonzero"/><path fill="#010000" fill-opacity="0.0" d="m761.5962 31.188532l0 0l0 14.726561l0 0l0 -14.726561z" fill-rule="nonzero"/><path fill="#ffffff" d="m774.7979 19.998688l34.204712 0l0 34.425198l-34.204712 0z" fill-rule="evenodd"/><path stroke="#000000" stroke-width="1.0" stroke-linejoin="round" stroke-linecap="butt" d="m774.7979 19.998688l34.204712 0l0 34.425198l-34.204712 0z" fill-rule="evenodd"/><path fill="#ffffff" d="m787.99963 29.211287l7.8012695 0l0 15.999998l-7.8012695 0l0 -15.999998z" fill-rule="nonzero"/><path fill="#000000" fill-opacity="0.0" d="m787.99963 31.188532l7.8012695 0l0 14.726561l-7.8012695 0l0 -14.726561z" fill-rule="nonzero"/><path fill="#2b2b2b" d="m794.7809 39.386284l-5.421875 0q0.125 1.03125 0.859375 1.671875q0.734375 0.625 1.796875 0.625q0.59375 0 1.25 -0.1875q0.65625 -0.203125 1.0625 -0.53125q0.125 -0.09375 0.21875 -0.09375q0.09375 0 0.171875 0.078125q0.078125 0.078125 0.078125 0.1875q0 0.109375 -0.09375 0.21875q-0.3125 0.3125 -1.09375 0.59375q-0.765625 0.265625 -1.59375 0.265625q-1.375 0 -2.296875 -0.890625q-0.90625 -0.90625 -0.90625 -2.171875q0 -1.171875 0.859375 -2.0q0.859375 -0.828125 2.125 -0.828125q1.3125 0 2.15625 0.859375q0.84375 0.84375 0.828125 2.203125zm-0.53125 -0.53125q-0.15625 -0.890625 -0.84375 -1.4375q-0.671875 -0.546875 -1.609375 -0.546875q-0.921875 0 -1.59375 0.546875q-0.671875 0.53125 -0.84375 1.4375l4.890625 0z" fill-rule="nonzero"/><path fill="#010000" fill-opacity="0.0" d="m795.8009 31.188532l0 0l0 14.726561l0 0l0 -14.726561z" fill-rule="nonzero"/><path fill="#ffffff" d="m809.0289 19.998688l34.204712 0l0 34.425198l-34.204712 0z" fill-rule="evenodd"/><path stroke="#000000" stroke-width="1.0" stroke-linejoin="round" stroke-linecap="butt" d="m809.0289 19.998688l34.204712 0l0 34.425198l-34.204712 0z" fill-rule="evenodd"/><path fill="#ffffff" d="m822.2306 29.211287l7.8012695 0l0 15.999998l-7.8012695 0l0 -15.999998z" fill-rule="nonzero"/><path fill="#000000" fill-opacity="0.0" d="m822.2306 31.188532l7.8012695 0l0 14.726561l-7.8012695 0l0 -14.726561z" fill-rule="nonzero"/><path fill="#2b2b2b" d="m824.40247 36.511284l0 0.8125q0.5625 -0.5625 1.015625 -0.78125q0.453125 -0.21875 1.015625 -0.21875q0.609375 0 1.109375 0.265625q0.359375 0.1875 0.640625 0.625q0.296875 0.4375 0.296875 0.90625l0 3.359375l0.453125 0q0.1875 0 0.265625 0.078125q0.078125 0.0625 0.078125 0.1875q0 0.109375 -0.078125 0.1875q-0.078125 0.078125 -0.265625 0.078125l-1.4375 0q-0.1875 0 -0.28125 -0.078125q-0.078125 -0.078125 -0.078125 -0.1875q0 -0.125 0.078125 -0.1875q0.09375 -0.078125 0.28125 -0.078125l0.453125 0l0 -3.265625q0 -0.578125 -0.421875 -0.953125q-0.40625 -0.390625 -1.09375 -0.390625q-0.53125 0 -0.921875 0.21875q-0.390625 0.203125 -1.109375 1.046875l0 3.34375l0.609375 0q0.1875 0 0.265625 0.078125q0.09375 0.0625 0.09375 0.1875q0 0.109375 -0.09375 0.1875q-0.078125 0.078125 -0.265625 0.078125l-1.734375 0q-0.203125 0 -0.28125 -0.078125q-0.078125 -0.078125 -0.078125 -0.1875q0 -0.125 0.078125 -0.1875q0.078125 -0.078125 0.28125 -0.078125l0.59375 0l0 -4.421875l-0.453125 0q-0.1875 0 -0.265625 -0.078125q-0.078125 -0.078125 -0.078125 -0.203125q0 -0.109375 0.078125 -0.1875q0.078125 -0.078125 0.265625 -0.078125l0.984375 0z" fill-rule="nonzero"/><path fill="#010000" fill-opacity="0.0" d="m830.03186 31.188532l0 0l0 14.726561l0 0l0 -14.726561z" fill-rule="nonzero"/><path fill="#ffffff" d="m843.2467 19.998688l34.204712 0l0 34.425198l-34.204712 0z" fill-rule="evenodd"/><path stroke="#000000" stroke-width="1.0" stroke-linejoin="round" stroke-linecap="butt" d="m843.2467 19.998688l34.204712 0l0 34.425198l-34.204712 0z" fill-rule="evenodd"/><path fill="#ffffff" d="m856.4484 29.211287l7.8012695 0l0 15.999998l-7.8012695 0l0 -15.999998z" fill-rule="nonzero"/><path fill="#000000" fill-opacity="0.0" d="m856.4484 31.188532l7.8012695 0l0 14.726561l-7.8012695 0l0 -14.726561z" fill-rule="nonzero"/><path fill="#2b2b2b" d="m859.2609 36.511284l2.890625 0q0.1875 0 0.265625 0.078125q0.09375 0.078125 0.09375 0.203125q0 0.109375 -0.09375 0.1875q-0.078125 0.078125 -0.265625 0.078125l-2.890625 0l0 3.546875q0 0.453125 0.359375 0.765625q0.375 0.3125 1.09375 0.3125q0.546875 0 1.171875 -0.15625q0.625 -0.15625 0.96875 -0.359375q0.125 -0.09375 0.21875 -0.09375q0.09375 0 0.171875 0.078125q0.078125 0.078125 0.078125 0.1875q0 0.09375 -0.078125 0.1875q-0.203125 0.203125 -1.0 0.453125q-0.78125 0.234375 -1.5 0.234375q-0.921875 0 -1.484375 -0.4375q-0.546875 -0.4375 -0.546875 -1.171875l0 -3.546875l-0.984375 0q-0.1875 0 -0.28125 -0.078125q-0.078125 -0.078125 -0.078125 -0.203125q0 -0.109375 0.078125 -0.1875q0.09375 -0.078125 0.28125 -0.078125l0.984375 0l0 -1.578125q0 -0.1875 0.078125 -0.265625q0.078125 -0.078125 0.1875 -0.078125q0.125 0 0.203125 0.078125q0.078125 0.078125 0.078125 0.265625l0 1.578125z" fill-rule="nonzero"/><path fill="#010000" fill-opacity="0.0" d="m864.2497 31.188532l0 0l0 14.726561l0 0l0 -14.726561z" fill-rule="nonzero"/><path fill="#ffffff" d="m877.46454 19.998688l34.204773 0l0 34.425198l-34.204773 0z" fill-rule="evenodd"/><path stroke="#000000" stroke-width="1.0" stroke-linejoin="round" stroke-linecap="butt" d="m877.46454 19.998688l34.204773 0l0 34.425198l-34.204773 0z" fill-rule="evenodd"/><path fill="#ffffff" d="m911.6693 19.998688l34.204712 0l0 34.425198l-34.204712 0z" fill-rule="evenodd"/><path stroke="#000000" stroke-width="1.0" stroke-linejoin="round" stroke-linecap="butt" d="m911.6693 19.998688l34.204712 0l0 34.425198l-34.204712 0z" fill-rule="evenodd"/><path fill="#ffffff" d="m924.87103 29.211287l7.8012695 0l0 15.999998l-7.8012695 0l0 -15.999998z" fill-rule="nonzero"/><path fill="#000000" fill-opacity="0.0" d="m924.87103 31.188532l7.8012695 0l0 14.726561l-7.8012695 0l0 -14.726561z" fill-rule="nonzero"/><path fill="#2b2b2b" d="m931.49603 37.948784l0 0.765625l-5.4375 0l0 -0.765625l5.4375 0z" fill-rule="nonzero"/><path fill="#010000" fill-opacity="0.0" d="m932.6723 31.188532l0 0l0 14.726561l0 0l0 -14.726561z" fill-rule="nonzero"/><path fill="#ffffff" d="m945.90027 19.998688l34.204712 0l0 34.425198l-34.204712 0z" fill-rule="evenodd"/><path stroke="#000000" stroke-width="1.0" stroke-linejoin="round" stroke-linecap="butt" d="m945.90027 19.998688l34.204712 0l0 34.425198l-34.204712 0z" fill-rule="evenodd"/><path fill="#ffffff" d="m959.102 29.211287l7.8012695 0l0 15.999998l-7.8012695 0l0 -15.999998z" fill-rule="nonzero"/><path fill="#000000" fill-opacity="0.0" d="m959.102 31.188532l7.8012695 0l0 14.726561l-7.8012695 0l0 -14.726561z" fill-rule="nonzero"/><path fill="#2b2b2b" d="m965.727 37.948784l0 0.765625l-5.4375 0l0 -0.765625l5.4375 0z" fill-rule="nonzero"/><path fill="#010000" fill-opacity="0.0" d="m966.90326 31.188532l0 0l0 14.726561l0 0l0 -14.726561z" fill-rule="nonzero"/><path fill="#ffffff" d="m980.1181 19.998688l34.204712 0l0 34.425198l-34.204712 0z" fill-rule="evenodd"/><path stroke="#000000" stroke-width="1.0" stroke-linejoin="round" stroke-linecap="butt" d="m980.1181 19.998688l34.204712 0l0 34.425198l-34.204712 0z" fill-rule="evenodd"/><path fill="#ffffff" d="m993.3198 29.211287l7.8012695 0l0 15.999998l-7.8012695 0l0 -15.999998z" fill-rule="nonzero"/><path fill="#000000" fill-opacity="0.0" d="m993.3198 31.188532l7.8012695 0l0 14.726561l-7.8012695 0l0 -14.726561z" fill-rule="nonzero"/><path fill="#2b2b2b" d="m1000.4917 38.30816l-5.75 3.21875q-0.140625 0.078125 -0.21875 0.078125q-0.109375 0 -0.1875 -0.078125q-0.078125 -0.09375 -0.078125 -0.1875q0 -0.171875 0.21875 -0.28125l4.9375 -2.75l-4.9375 -2.734375q-0.203125 -0.125 -0.203125 -0.28125q0 -0.109375 0.078125 -0.1875q0.078125 -0.078125 0.1875 -0.078125q0.0625 0 0.203125 0.078125l5.75 3.203125z" fill-rule="nonzero"/><path fill="#010000" fill-opacity="0.0" d="m1001.1211 31.188532l0 0l0 14.726561l0 0l0 -14.726561z" fill-rule="nonzero"/><path fill="#ffffff" d="m193.1076 59.998688l34.204727 0l0 34.425194l-34.204727 0z" fill-rule="evenodd"/><path stroke="#000000" stroke-width="1.0" stroke-linejoin="round" stroke-linecap="butt" d="m193.1076 59.998688l34.204727 0l0 34.425194l-34.204727 0z" fill-rule="evenodd"/><path fill="#ffffff" d="m206.30934 69.21129l7.8012695 0l0 16.0l-7.8012695 0l0 -16.0z" fill-rule="nonzero"/><path fill="#000000" fill-opacity="0.0" d="m206.30934 71.18853l7.8012695 0l0 14.7265625l-7.8012695 0l0 -14.7265625z" fill-rule="nonzero"/><path fill="#2b2b2b" d="m211.74684 82.011284l0 -0.765625q-1.171875 0.96875 -2.484375 0.96875q-0.953125 0 -1.5 -0.484375q-0.53125 -0.484375 -0.53125 -1.1875q0 -0.765625 0.703125 -1.34375q0.71875 -0.578125 2.078125 -0.578125q0.359375 0 0.796875 0.046875q0.4375 0.046875 0.9375 0.140625l0 -0.859375q0 -0.4375 -0.40625 -0.75q-0.40625 -0.328125 -1.21875 -0.328125q-0.625 0 -1.75 0.359375q-0.203125 0.0625 -0.265625 0.0625q-0.09375 0 -0.171875 -0.078125q-0.0625 -0.078125 -0.0625 -0.1875q0 -0.109375 0.0625 -0.171875q0.078125 -0.09375 0.71875 -0.265625q0.984375 -0.265625 1.484375 -0.265625q1.015625 0 1.578125 0.5q0.5625 0.5 0.5625 1.125l0 3.53125l0.71875 0q0.1875 0 0.265625 0.078125q0.09375 0.0625 0.09375 0.1875q0 0.109375 -0.09375 0.1875q-0.078125 0.078125 -0.265625 0.078125l-1.25 0zm0 -2.65625q-0.375 -0.109375 -0.796875 -0.15625q-0.421875 -0.046875 -0.875 -0.046875q-1.171875 0 -1.828125 0.5q-0.484375 0.375 -0.484375 0.890625q0 0.484375 0.375 0.8125q0.375 0.328125 1.09375 0.328125q0.703125 0 1.296875 -0.265625q0.59375 -0.28125 1.21875 -0.890625l0 -1.171875z" fill-rule="nonzero"/><path fill="#010000" fill-opacity="0.0" d="m214.11061 71.18853l0 0l0 14.7265625l0 0l0 -14.7265625z" fill-rule="nonzero"/><path fill="#ffffff" d="m227.32545 59.998688l34.204727 0l0 34.425194l-34.204727 0z" fill-rule="evenodd"/><path stroke="#000000" stroke-width="1.0" stroke-linejoin="round" stroke-linecap="butt" d="m227.32545 59.998688l34.204727 0l0 34.425194l-34.204727 0z" fill-rule="evenodd"/><path fill="#ffffff" d="m240.52719 69.21129l7.8012695 0l0 16.0l-7.8012695 0l0 -16.0z" fill-rule="nonzero"/><path fill="#000000" fill-opacity="0.0" d="m240.52719 71.18853l7.8012695 0l0 14.7265625l-7.8012695 0l0 -14.7265625z" fill-rule="nonzero"/><path fill="#2b2b2b" d="m242.41782 74.042534l0 3.53125q0.96875 -1.25 2.328125 -1.25q1.171875 0 2.0 0.84375q0.828125 0.84375 0.828125 2.078125q0 1.25 -0.84375 2.109375q-0.828125 0.859375 -1.984375 0.859375q-1.390625 0 -2.328125 -1.25l0 1.046875l-1.25 0q-0.1875 0 -0.28125 -0.078125q-0.078125 -0.078125 -0.078125 -0.1875q0 -0.125 0.078125 -0.1875q0.09375 -0.078125 0.28125 -0.078125l0.71875 0l0 -6.890625l-0.71875 0q-0.1875 0 -0.28125 -0.078125q-0.078125 -0.078125 -0.078125 -0.203125q0 -0.109375 0.078125 -0.1875q0.09375 -0.078125 0.28125 -0.078125l1.25 0zm4.625 5.234375q0 -1.015625 -0.6875 -1.703125q-0.6875 -0.703125 -1.625 -0.703125q-0.921875 0 -1.625 0.703125q-0.6875 0.6875 -0.6875 1.703125q0 1.0 0.6875 1.703125q0.703125 0.703125 1.625 0.703125q0.9375 0 1.625 -0.703125q0.6875 -0.703125 0.6875 -1.703125z" fill-rule="nonzero"/><path fill="#010000" fill-opacity="0.0" d="m248.32846 71.18853l0 0l0 14.7265625l0 0l0 -14.7265625z" fill-rule="nonzero"/><path fill="#ffffff" d="m261.5433 59.998688l34.204712 0l0 34.425194l-34.204712 0z" fill-rule="evenodd"/><path stroke="#000000" stroke-width="1.0" stroke-linejoin="round" stroke-linecap="butt" d="m261.5433 59.998688l34.204712 0l0 34.425194l-34.204712 0z" fill-rule="evenodd"/><path fill="#ffffff" d="m274.74503 69.21129l7.8012695 0l0 16.0l-7.8012695 0l0 -16.0z" fill-rule="nonzero"/><path fill="#000000" fill-opacity="0.0" d="m274.74503 71.18853l7.8012695 0l0 14.7265625l-7.8012695 0l0 -14.7265625z" fill-rule="nonzero"/><path fill="#2b2b2b" d="m280.87003 77.05816l0 -0.1875q0 -0.1875 0.078125 -0.265625q0.078125 -0.09375 0.1875 -0.09375q0.125 0 0.203125 0.09375q0.078125 0.078125 0.078125 0.265625l0 1.21875q-0.015625 0.1875 -0.09375 0.28125q-0.0625 0.078125 -0.1875 0.078125q-0.109375 0 -0.1875 -0.078125q-0.0625 -0.078125 -0.078125 -0.25q-0.03125 -0.4375 -0.59375 -0.84375q-0.546875 -0.40625 -1.5 -0.40625q-1.1875 0 -1.796875 0.75q-0.609375 0.734375 -0.609375 1.6875q0 1.03125 0.671875 1.703125q0.6875 0.671875 1.765625 0.671875q0.609375 0 1.25 -0.21875q0.65625 -0.234375 1.171875 -0.734375q0.140625 -0.140625 0.234375 -0.140625q0.109375 0 0.171875 0.078125q0.078125 0.078125 0.078125 0.1875q0 0.265625 -0.640625 0.6875q-1.03125 0.671875 -2.296875 0.671875q-1.28125 0 -2.125 -0.8125q-0.828125 -0.828125 -0.828125 -2.09375q0 -1.28125 0.84375 -2.125q0.859375 -0.859375 2.140625 -0.859375q1.234375 0 2.0625 0.734375z" fill-rule="nonzero"/><path fill="#010000" fill-opacity="0.0" d="m282.5463 71.18853l0 0l0 14.7265625l0 0l0 -14.7265625z" fill-rule="nonzero"/><path fill="#ffffff" d="m295.74802 59.998688l34.204742 0l0 34.425194l-34.204742 0z" fill-rule="evenodd"/><path stroke="#000000" stroke-width="1.0" stroke-linejoin="round" stroke-linecap="butt" d="m295.74802 59.998688l34.204742 0l0 34.425194l-34.204742 0z" fill-rule="evenodd"/><path fill="#ffffff" d="m308.94977 69.21129l7.8012695 0l0 16.0l-7.8012695 0l0 -16.0z" fill-rule="nonzero"/><path fill="#000000" fill-opacity="0.0" d="m308.94977 71.18853l7.8012695 0l0 14.7265625l-7.8012695 0l0 -14.7265625z" fill-rule="nonzero"/><path fill="#2b2b2b" d="m309.57477 78.30816l5.765625 -3.203125q0.140625 -0.078125 0.203125 -0.078125q0.109375 0 0.1875 0.078125q0.078125 0.078125 0.078125 0.1875q0 0.15625 -0.21875 0.28125l-4.9375 2.734375l4.9375 2.75q0.21875 0.109375 0.21875 0.28125q0 0.09375 -0.078125 0.1875q-0.078125 0.078125 -0.1875 0.078125q-0.078125 0 -0.21875 -0.078125l-5.75 -3.21875z" fill-rule="nonzero"/><path fill="#000000" fill-opacity="0.0" d="m316.75104 71.18853l0 0l0 14.7265625l0 0l0 -14.7265625z" fill-rule="nonzero"/><path fill="#ffffff" d="m329.979 59.998688l34.204712 0l0 34.425194l-34.204712 0z" fill-rule="evenodd"/><path stroke="#000000" stroke-width="1.0" stroke-linejoin="round" stroke-linecap="butt" d="m329.979 59.998688l34.204712 0l0 34.425194l-34.204712 0z" fill-rule="evenodd"/><path fill="#ffffff" d="m343.18073 69.21129l7.8012695 0l0 16.0l-7.8012695 0l0 -16.0z" fill-rule="nonzero"/><path fill="#000000" fill-opacity="0.0" d="m343.18073 71.18853l7.8012695 0l0 14.7265625l-7.8012695 0l0 -14.7265625z" fill-rule="nonzero"/><path fill="#2b2b2b" d="m349.4776 73.65191l-4.296875 9.203125q-0.109375 0.234375 -0.265625 0.234375q-0.109375 0 -0.203125 -0.078125q-0.078125 -0.078125 -0.078125 -0.1875q0 -0.0625 0.078125 -0.203125l4.28125 -9.1875q0.0625 -0.15625 0.125 -0.1875q0.0625 -0.046875 0.15625 -0.046875q0.109375 0 0.1875 0.078125q0.078125 0.078125 0.078125 0.171875q0 0.0625 -0.0625 0.203125z" fill-rule="nonzero"/><path fill="#010000" fill-opacity="0.0" d="m350.982 71.18853l0 0l0 14.7265625l0 0l0 -14.7265625z" fill-rule="nonzero"/><path fill="#ffffff" d="m364.19684 59.998688l34.204742 0l0 34.425194l-34.204742 0z" fill-rule="evenodd"/><path stroke="#000000" stroke-width="1.0" stroke-linejoin="round" stroke-linecap="butt" d="m364.19684 59.998688l34.204742 0l0 34.425194l-34.204742 0z" fill-rule="evenodd"/><path fill="#ffffff" d="m377.3986 69.21129l7.8012695 0l0 16.0l-7.8012695 0l0 -16.0z" fill-rule="nonzero"/><path fill="#000000" fill-opacity="0.0" d="m377.3986 71.18853l7.8012695 0l0 14.7265625l-7.8012695 0l0 -14.7265625z" fill-rule="nonzero"/><path fill="#2b2b2b" d="m379.2892 76.511284l0 0.96875q0.484375 -0.578125 1.015625 -0.859375q0.546875 -0.296875 1.296875 -0.296875q0.78125 0 1.453125 0.375q0.671875 0.359375 1.03125 1.015625q0.359375 0.65625 0.359375 1.390625q0 1.140625 -0.828125 1.953125q-0.8125 0.8125 -2.015625 0.8125q-1.421875 0 -2.3125 -1.15625l0 3.21875l1.296875 0q0.1875 0 0.265625 0.0625q0.09375 0.078125 0.09375 0.203125q0 0.109375 -0.09375 0.1875q-0.078125 0.078125 -0.265625 0.078125l-2.546875 0q-0.1875 0 -0.28125 -0.078125q-0.078125 -0.078125 -0.078125 -0.1875q0 -0.125 0.078125 -0.203125q0.09375 -0.0625 0.28125 -0.0625l0.71875 0l0 -6.875l-0.71875 0q-0.1875 0 -0.28125 -0.078125q-0.078125 -0.078125 -0.078125 -0.203125q0 -0.109375 0.078125 -0.1875q0.09375 -0.078125 0.28125 -0.078125l1.25 0zm4.625 2.59375q0 -0.921875 -0.671875 -1.578125q-0.671875 -0.65625 -1.640625 -0.65625q-0.96875 0 -1.640625 0.65625q-0.671875 0.65625 -0.671875 1.578125q0 0.90625 0.671875 1.578125q0.671875 0.65625 1.640625 0.65625q0.96875 0 1.640625 -0.65625q0.671875 -0.65625 0.671875 -1.578125z" fill-rule="nonzero"/><path fill="#010000" fill-opacity="0.0" d="m385.19986 71.18853l0 0l0 14.7265625l0 0l0 -14.7265625z" fill-rule="nonzero"/><path fill="#ffffff" d="m398.4147 59.998688l34.204712 0l0 34.425194l-34.204712 0z" fill-rule="evenodd"/><path stroke="#000000" stroke-width="1.0" stroke-linejoin="round" stroke-linecap="butt" d="m398.4147 59.998688l34.204712 0l0 34.425194l-34.204712 0z" fill-rule="evenodd"/><path fill="#ffffff" d="m411.61642 69.21129l7.8012695 0l0 16.0l-7.8012695 0l0 -16.0z" fill-rule="nonzero"/><path fill="#000000" fill-opacity="0.0" d="m411.61642 71.18853l7.8012695 0l0 14.7265625l-7.8012695 0l0 -14.7265625z" fill-rule="nonzero"/><path fill="#2b2b2b" d="m418.7883 78.30816l-5.75 3.21875q-0.140625 0.078125 -0.21875 0.078125q-0.109375 0 -0.1875 -0.078125q-0.078125 -0.09375 -0.078125 -0.1875q0 -0.171875 0.21875 -0.28125l4.9375 -2.75l-4.9375 -2.734375q-0.203125 -0.125 -0.203125 -0.28125q0 -0.109375 0.078125 -0.1875q0.078125 -0.078125 0.1875 -0.078125q0.0625 0 0.203125 0.078125l5.75 3.203125z" fill-rule="nonzero"/><path fill="#010000" fill-opacity="0.0" d="m419.4177 71.18853l0 0l0 14.7265625l0 0l0 -14.7265625z" fill-rule="nonzero"/><path fill="#ffffff" d="m432.61942 59.998688l34.204742 0l0 34.425194l-34.204742 0z" fill-rule="evenodd"/><path stroke="#000000" stroke-width="1.0" stroke-linejoin="round" stroke-linecap="butt" d="m432.61942 59.998688l34.204742 0l0 34.425194l-34.204742 0z" fill-rule="evenodd"/><path fill="#ffffff" d="m441.9205 69.21129l15.602539 0l0 16.0l-15.602539 0l0 -16.0z" fill-rule="nonzero"/><path fill="#000000" fill-opacity="0.0" d="m441.9205 71.18853l15.602539 0l0 14.7265625l-15.602539 0l0 -14.7265625z" fill-rule="nonzero"/><path fill="#2b2b2b" d="m443.9205 73.46441l4.28125 9.1875q0.0625 0.140625 0.0625 0.203125q0 0.109375 -0.078125 0.1875q-0.078125 0.078125 -0.1875 0.078125q-0.1875 0 -0.28125 -0.234375l-4.296875 -9.203125q-0.0625 -0.125 -0.0625 -0.203125q0 -0.09375 0.078125 -0.171875q0.078125 -0.078125 0.1875 -0.078125q0.171875 0 0.296875 0.234375zm7.9731445 3.046875l0 0.8125q0.5625 -0.5625 1.015625 -0.78125q0.453125 -0.21875 1.015625 -0.21875q0.609375 0 1.109375 0.265625q0.359375 0.1875 0.640625 0.625q0.296875 0.4375 0.296875 0.90625l0 3.359375l0.453125 0q0.1875 0 0.265625 0.078125q0.078125 0.0625 0.078125 0.1875q0 0.109375 -0.078125 0.1875q-0.078125 0.078125 -0.265625 0.078125l-1.4375 0q-0.1875 0 -0.28125 -0.078125q-0.078125 -0.078125 -0.078125 -0.1875q0 -0.125 0.078125 -0.1875q0.09375 -0.078125 0.28125 -0.078125l0.453125 0l0 -3.265625q0 -0.578125 -0.421875 -0.953125q-0.40625 -0.390625 -1.09375 -0.390625q-0.53125 0 -0.921875 0.21875q-0.390625 0.203125 -1.109375 1.046875l0 3.34375l0.609375 0q0.1875 0 0.265625 0.078125q0.09375 0.0625 0.09375 0.1875q0 0.109375 -0.09375 0.1875q-0.078125 0.078125 -0.265625 0.078125l-1.734375 0q-0.203125 0 -0.28125 -0.078125q-0.078125 -0.078125 -0.078125 -0.1875q0 -0.125 0.078125 -0.1875q0.078125 -0.078125 0.28125 -0.078125l0.59375 0l0 -4.421875l-0.453125 0q-0.1875 0 -0.265625 -0.078125q-0.078125 -0.078125 -0.078125 -0.203125q0 -0.109375 0.078125 -0.1875q0.078125 -0.078125 0.265625 -0.078125l0.984375 0z" fill-rule="nonzero"/><path fill="#010000" fill-opacity="0.0" d="m457.52304 71.18853l0 0l0 14.7265625l0 0l0 -14.7265625z" fill-rule="nonzero"/><path fill="#ffffff" d="m466.8504 59.998688l34.204712 0l0 34.425194l-34.204712 0z" fill-rule="evenodd"/><path stroke="#000000" stroke-width="1.0" stroke-linejoin="round" stroke-linecap="butt" d="m466.8504 59.998688l34.204712 0l0 34.425194l-34.204712 0z" fill-rule="evenodd"/><path fill="#ffffff" d="m480.05212 69.21129l7.8012695 0l0 16.0l-7.8012695 0l0 -16.0z" fill-rule="nonzero"/><path fill="#000000" fill-opacity="0.0" d="m480.05212 71.18853l7.8012695 0l0 14.7265625l-7.8012695 0l0 -14.7265625z" fill-rule="nonzero"/><path fill="#2b2b2b" d="m483.64587 78.855034q0.3125 0.234375 0.4375 0.453125q0.140625 0.28125 0.140625 0.671875l0 2.28125q0 0.359375 0.203125 0.59375q0.21875 0.234375 0.53125 0.265625q0.1875 0.015625 0.25 0.078125q0.09375 0.078125 0.09375 0.1875q0 0.125 -0.09375 0.1875q-0.078125 0.078125 -0.234375 0.078125q-0.5 0 -0.84375 -0.3125q-0.453125 -0.4375 -0.453125 -1.0625l0 -2.296875q0 -0.34375 -0.203125 -0.578125q-0.203125 -0.234375 -0.53125 -0.265625q-0.1875 -0.015625 -0.25 -0.078125q-0.0625 -0.078125 -0.0625 -0.203125q0 -0.125 0.0625 -0.1875q0.0625 -0.078125 0.25 -0.09375q0.328125 -0.03125 0.53125 -0.265625q0.203125 -0.234375 0.203125 -0.59375l0 -2.28125q0 -0.59375 0.375 -0.984375q0.390625 -0.40625 0.921875 -0.40625q0.15625 0 0.234375 0.078125q0.09375 0.078125 0.09375 0.1875q0 0.125 -0.09375 0.1875q-0.046875 0.0625 -0.25 0.09375q-0.328125 0.03125 -0.53125 0.265625q-0.203125 0.234375 -0.203125 0.578125l0 2.28125q0 0.40625 -0.125 0.65625q-0.125 0.234375 -0.453125 0.484375z" fill-rule="nonzero"/><path fill="#010000" fill-opacity="0.0" d="m487.8534 71.18853l0 0l0 14.7265625l0 0l0 -14.7265625z" fill-rule="nonzero"/><path fill="#ffffff" d="m501.06824 59.998688l34.204712 0l0 34.425194l-34.204712 0z" fill-rule="evenodd"/><path stroke="#000000" stroke-width="1.0" stroke-linejoin="round" stroke-linecap="butt" d="m501.06824 59.998688l34.204712 0l0 34.425194l-34.204712 0z" fill-rule="evenodd"/><path fill="#ffffff" d="m514.26996 69.21129l7.8012695 0l0 16.0l-7.8012695 0l0 -16.0z" fill-rule="nonzero"/><path fill="#000000" fill-opacity="0.0" d="m514.26996 71.18853l7.8012695 0l0 14.7265625l-7.8012695 0l0 -14.7265625z" fill-rule="nonzero"/><path fill="#2b2b2b" d="m517.8637 78.855034q0.3125 0.234375 0.4375 0.453125q0.140625 0.28125 0.140625 0.671875l0 2.28125q0 0.359375 0.203125 0.59375q0.21875 0.234375 0.53125 0.265625q0.1875 0.015625 0.25 0.078125q0.09375 0.078125 0.09375 0.1875q0 0.125 -0.09375 0.1875q-0.078125 0.078125 -0.234375 0.078125q-0.5 0 -0.84375 -0.3125q-0.453125 -0.4375 -0.453125 -1.0625l0 -2.296875q0 -0.34375 -0.203125 -0.578125q-0.203125 -0.234375 -0.53125 -0.265625q-0.1875 -0.015625 -0.25 -0.078125q-0.0625 -0.078125 -0.0625 -0.203125q0 -0.125 0.0625 -0.1875q0.0625 -0.078125 0.25 -0.09375q0.328125 -0.03125 0.53125 -0.265625q0.203125 -0.234375 0.203125 -0.59375l0 -2.28125q0 -0.59375 0.375 -0.984375q0.390625 -0.40625 0.921875 -0.40625q0.15625 0 0.234375 0.078125q0.09375 0.078125 0.09375 0.1875q0 0.125 -0.09375 0.1875q-0.046875 0.0625 -0.25 0.09375q-0.328125 0.03125 -0.53125 0.265625q-0.203125 0.234375 -0.203125 0.578125l0 2.28125q0 0.40625 -0.125 0.65625q-0.125 0.234375 -0.453125 0.484375z" fill-rule="nonzero"/><path fill="#010000" fill-opacity="0.0" d="m522.0712 71.18853l0 0l0 14.7265625l0 0l0 -14.7265625z" fill-rule="nonzero"/><path fill="#ffffff" d="m535.2861 59.998688l34.204712 0l0 34.425194l-34.204712 0z" fill-rule="evenodd"/><path stroke="#000000" stroke-width="1.0" stroke-linejoin="round" stroke-linecap="butt" d="m535.2861 59.998688l34.204712 0l0 34.425194l-34.204712 0z" fill-rule="evenodd"/><path fill="#000000" fill-opacity="0.0" d="m552.3884 71.18853l7.8012695 0l0 14.7265625l-7.8012695 0l0 -14.7265625z" fill-rule="nonzero"/><path fill="#010000" fill-opacity="0.0" d="m560.1897 71.18853l0 0l0 14.7265625l0 0l0 -14.7265625z" fill-rule="nonzero"/><path fill="#ffffff" d="m569.4908 59.998688l34.204773 0l0 34.425194l-34.204773 0z" fill-rule="evenodd"/><path stroke="#000000" stroke-width="1.0" stroke-linejoin="round" stroke-linecap="butt" d="m569.4908 59.998688l34.204773 0l0 34.425194l-34.204773 0z" fill-rule="evenodd"/><path fill="#ffffff" d="m582.69257 69.21129l7.8012695 0l0 16.0l-7.8012695 0l0 -16.0z" fill-rule="nonzero"/><path fill="#000000" fill-opacity="0.0" d="m582.69257 71.18853l7.8012695 0l0 14.7265625l-7.8012695 0l0 -14.7265625z" fill-rule="nonzero"/><path fill="#2b2b2b" d="m586.48944 80.480034l0.21875 0q0.359375 0 0.609375 0.25q0.25 0.25 0.25 0.609375q0 0.359375 -0.25 0.609375q-0.25 0.25 -0.609375 0.25l-0.21875 0q-0.359375 0 -0.625 -0.25q-0.25 -0.25 -0.25 -0.609375q0 -0.359375 0.25 -0.609375q0.265625 -0.25 0.625 -0.25z" fill-rule="nonzero"/><path fill="#010000" fill-opacity="0.0" d="m590.49384 71.18853l0 0l0 14.7265625l0 0l0 -14.7265625z" fill-rule="nonzero"/><path fill="#ffffff" d="m603.7218 59.998688l34.204712 0l0 34.425194l-34.204712 0z" fill-rule="evenodd"/><path stroke="#000000" stroke-width="1.0" stroke-linejoin="round" stroke-linecap="butt" d="m603.7218 59.998688l34.204712 0l0 34.425194l-34.204712 0z" fill-rule="evenodd"/><path fill="#ffffff" d="m616.9235 69.21129l7.8012695 0l0 16.0l-7.8012695 0l0 -16.0z" fill-rule="nonzero"/><path fill="#000000" fill-opacity="0.0" d="m616.9235 71.18853l7.8012695 0l0 14.7265625l-7.8012695 0l0 -14.7265625z" fill-rule="nonzero"/><path fill="#2b2b2b" d="m623.1735 75.30816l0 -0.375q0 -0.1875 0.0625 -0.265625q0.078125 -0.078125 0.203125 -0.078125q0.125 0 0.1875 0.078125q0.078125 0.078125 0.078125 0.265625l0 1.484375q0 0.203125 -0.078125 0.28125q-0.0625 0.078125 -0.1875 0.078125q-0.109375 0 -0.1875 -0.078125q-0.0625 -0.078125 -0.078125 -0.234375q-0.03125 -0.546875 -0.578125 -0.953125q-0.734375 -0.5625 -1.671875 -0.5625q-0.625 0 -1.171875 0.265625q-0.40625 0.203125 -0.640625 0.484375q-0.421875 0.5 -0.671875 1.09375q-0.171875 0.453125 -0.171875 1.015625l0 0.921875q0 1.203125 0.859375 2.078125q0.859375 0.875 2.0 0.875q0.6875 0 1.234375 -0.296875q0.546875 -0.296875 1.046875 -0.90625q0.109375 -0.125 0.25 -0.125q0.109375 0 0.171875 0.078125q0.078125 0.0625 0.078125 0.171875q0 0.140625 -0.28125 0.4375q-0.515625 0.59375 -1.171875 0.890625q-0.640625 0.28125 -1.3125 0.28125q-0.578125 0 -1.171875 -0.21875q-0.453125 -0.171875 -0.75 -0.390625q-0.296875 -0.234375 -0.734375 -0.78125q-0.4375 -0.546875 -0.59375 -1.0q-0.15625 -0.453125 -0.15625 -1.015625l0 -1.078125q0 -0.796875 0.421875 -1.609375q0.421875 -0.828125 1.140625 -1.265625q0.734375 -0.4375 1.59375 -0.4375q1.328125 0 2.28125 0.890625z" fill-rule="nonzero"/><path fill="#010000" fill-opacity="0.0" d="m624.7248 71.18853l0 0l0 14.7265625l0 0l0 -14.7265625z" fill-rule="nonzero"/><path fill="#ffffff" d="m637.93964 59.998688l34.204712 0l0 34.425194l-34.204712 0z" fill-rule="evenodd"/><path stroke="#000000" stroke-width="1.0" stroke-linejoin="round" stroke-linecap="butt" d="m637.93964 59.998688l34.204712 0l0 34.425194l-34.204712 0z" fill-rule="evenodd"/><path fill="#ffffff" d="m651.14136 69.21129l7.8012695 0l0 16.0l-7.8012695 0l0 -16.0z" fill-rule="nonzero"/><path fill="#000000" fill-opacity="0.0" d="m651.14136 71.18853l7.8012695 0l0 14.7265625l-7.8012695 0l0 -14.7265625z" fill-rule="nonzero"/><path fill="#2b2b2b" d="m658.01636 79.27691q0 1.21875 -0.875 2.078125q-0.859375 0.859375 -2.09375 0.859375q-1.25 0 -2.125 -0.859375q-0.859375 -0.875 -0.859375 -2.078125q0 -1.21875 0.859375 -2.078125q0.875 -0.875 2.125 -0.875q1.234375 0 2.09375 0.859375q0.875 0.859375 0.875 2.09375zm-0.53125 0q0 -1.0 -0.71875 -1.703125q-0.71875 -0.703125 -1.734375 -0.703125q-1.015625 0 -1.734375 0.703125q-0.703125 0.703125 -0.703125 1.703125q0 0.984375 0.703125 1.703125q0.71875 0.703125 1.734375 0.703125q1.015625 0 1.734375 -0.703125q0.71875 -0.703125 0.71875 -1.703125z" fill-rule="nonzero"/><path fill="#010000" fill-opacity="0.0" d="m658.9426 71.18853l0 0l0 14.7265625l0 0l0 -14.7265625z" fill-rule="nonzero"/><path fill="#ffffff" d="m672.1575 59.998688l34.204712 0l0 34.425194l-34.204712 0z" fill-rule="evenodd"/><path stroke="#000000" stroke-width="1.0" stroke-linejoin="round" stroke-linecap="butt" d="m672.1575 59.998688l34.204712 0l0 34.425194l-34.204712 0z" fill-rule="evenodd"/><path fill="#ffffff" d="m685.3592 69.21129l7.8012695 0l0 16.0l-7.8012695 0l0 -16.0z" fill-rule="nonzero"/><path fill="#000000" fill-opacity="0.0" d="m685.3592 71.18853l7.8012695 0l0 14.7265625l-7.8012695 0l0 -14.7265625z" fill-rule="nonzero"/><path fill="#2b2b2b" d="m687.53107 76.511284l0 0.8125q0.5625 -0.5625 1.015625 -0.78125q0.453125 -0.21875 1.015625 -0.21875q0.609375 0 1.109375 0.265625q0.359375 0.1875 0.640625 0.625q0.296875 0.4375 0.296875 0.90625l0 3.359375l0.453125 0q0.1875 0 0.265625 0.078125q0.078125 0.0625 0.078125 0.1875q0 0.109375 -0.078125 0.1875q-0.078125 0.078125 -0.265625 0.078125l-1.4375 0q-0.1875 0 -0.28125 -0.078125q-0.078125 -0.078125 -0.078125 -0.1875q0 -0.125 0.078125 -0.1875q0.09375 -0.078125 0.28125 -0.078125l0.453125 0l0 -3.265625q0 -0.578125 -0.421875 -0.953125q-0.40625 -0.390625 -1.09375 -0.390625q-0.53125 0 -0.921875 0.21875q-0.390625 0.203125 -1.109375 1.046875l0 3.34375l0.609375 0q0.1875 0 0.265625 0.078125q0.09375 0.0625 0.09375 0.1875q0 0.109375 -0.09375 0.1875q-0.078125 0.078125 -0.265625 0.078125l-1.734375 0q-0.203125 0 -0.28125 -0.078125q-0.078125 -0.078125 -0.078125 -0.1875q0 -0.125 0.078125 -0.1875q0.078125 -0.078125 0.28125 -0.078125l0.59375 0l0 -4.421875l-0.453125 0q-0.1875 0 -0.265625 -0.078125q-0.078125 -0.078125 -0.078125 -0.203125q0 -0.109375 0.078125 -0.1875q0.078125 -0.078125 0.265625 -0.078125l0.984375 0z" fill-rule="nonzero"/><path fill="#010000" fill-opacity="0.0" d="m693.16046 71.18853l0 0l0 14.7265625l0 0l0 -14.7265625z" fill-rule="nonzero"/><path fill="#ffffff" d="m706.3622 59.998688l34.204773 0l0 34.425194l-34.204773 0z" fill-rule="evenodd"/><path stroke="#000000" stroke-width="1.0" stroke-linejoin="round" stroke-linecap="butt" d="m706.3622 59.998688l34.204773 0l0 34.425194l-34.204773 0z" fill-rule="evenodd"/><path fill="#ffffff" d="m719.5639 69.21129l7.8012695 0l0 16.0l-7.8012695 0l0 -16.0z" fill-rule="nonzero"/><path fill="#000000" fill-opacity="0.0" d="m719.5639 71.18853l7.8012695 0l0 14.7265625l-7.8012695 0l0 -14.7265625z" fill-rule="nonzero"/><path fill="#2b2b2b" d="m722.3764 76.511284l2.890625 0q0.1875 0 0.265625 0.078125q0.09375 0.078125 0.09375 0.203125q0 0.109375 -0.09375 0.1875q-0.078125 0.078125 -0.265625 0.078125l-2.890625 0l0 3.546875q0 0.453125 0.359375 0.765625q0.375 0.3125 1.09375 0.3125q0.546875 0 1.171875 -0.15625q0.625 -0.15625 0.96875 -0.359375q0.125 -0.09375 0.21875 -0.09375q0.09375 0 0.171875 0.078125q0.078125 0.078125 0.078125 0.1875q0 0.09375 -0.078125 0.1875q-0.203125 0.203125 -1.0 0.453125q-0.78125 0.234375 -1.5 0.234375q-0.921875 0 -1.484375 -0.4375q-0.546875 -0.4375 -0.546875 -1.171875l0 -3.546875l-0.984375 0q-0.1875 0 -0.28125 -0.078125q-0.078125 -0.078125 -0.078125 -0.203125q0 -0.109375 0.078125 -0.1875q0.09375 -0.078125 0.28125 -0.078125l0.984375 0l0 -1.578125q0 -0.1875 0.078125 -0.265625q0.078125 -0.078125 0.1875 -0.078125q0.125 0 0.203125 0.078125q0.078125 0.078125 0.078125 0.265625l0 1.578125z" fill-rule="nonzero"/><path fill="#010000" fill-opacity="0.0" d="m727.3652 71.18853l0 0l0 14.7265625l0 0l0 -14.7265625z" fill-rule="nonzero"/><path fill="#ffffff" d="m740.5932 59.998688l34.204712 0l0 34.425194l-34.204712 0z" fill-rule="evenodd"/><path stroke="#000000" stroke-width="1.0" stroke-linejoin="round" stroke-linecap="butt" d="m740.5932 59.998688l34.204712 0l0 34.425194l-34.204712 0z" fill-rule="evenodd"/><path fill="#ffffff" d="m753.7949 69.21129l7.8012695 0l0 16.0l-7.8012695 0l0 -16.0z" fill-rule="nonzero"/><path fill="#000000" fill-opacity="0.0" d="m753.7949 71.18853l7.8012695 0l0 14.7265625l-7.8012695 0l0 -14.7265625z" fill-rule="nonzero"/><path fill="#2b2b2b" d="m760.5762 79.386284l-5.421875 0q0.125 1.03125 0.859375 1.671875q0.734375 0.625 1.796875 0.625q0.59375 0 1.25 -0.1875q0.65625 -0.203125 1.0625 -0.53125q0.125 -0.09375 0.21875 -0.09375q0.09375 0 0.171875 0.078125q0.078125 0.078125 0.078125 0.1875q0 0.109375 -0.09375 0.21875q-0.3125 0.3125 -1.09375 0.59375q-0.765625 0.265625 -1.59375 0.265625q-1.375 0 -2.296875 -0.890625q-0.90625 -0.90625 -0.90625 -2.171875q0 -1.171875 0.859375 -2.0q0.859375 -0.828125 2.125 -0.828125q1.3125 0 2.15625 0.859375q0.84375 0.84375 0.828125 2.203125zm-0.53125 -0.53125q-0.15625 -0.890625 -0.84375 -1.4375q-0.671875 -0.546875 -1.609375 -0.546875q-0.921875 0 -1.59375 0.546875q-0.671875 0.53125 -0.84375 1.4375l4.890625 0z" fill-rule="nonzero"/><path fill="#010000" fill-opacity="0.0" d="m761.5962 71.18853l0 0l0 14.7265625l0 0l0 -14.7265625z" fill-rule="nonzero"/><path fill="#ffffff" d="m774.7979 59.998688l34.204712 0l0 34.425194l-34.204712 0z" fill-rule="evenodd"/><path stroke="#000000" stroke-width="1.0" stroke-linejoin="round" stroke-linecap="butt" d="m774.7979 59.998688l34.204712 0l0 34.425194l-34.204712 0z" fill-rule="evenodd"/><path fill="#ffffff" d="m787.99963 69.21129l7.8012695 0l0 16.0l-7.8012695 0l0 -16.0z" fill-rule="nonzero"/><path fill="#000000" fill-opacity="0.0" d="m787.99963 71.18853l7.8012695 0l0 14.7265625l-7.8012695 0l0 -14.7265625z" fill-rule="nonzero"/><path fill="#2b2b2b" d="m790.1715 76.511284l0 0.8125q0.5625 -0.5625 1.015625 -0.78125q0.453125 -0.21875 1.015625 -0.21875q0.609375 0 1.109375 0.265625q0.359375 0.1875 0.640625 0.625q0.296875 0.4375 0.296875 0.90625l0 3.359375l0.453125 0q0.1875 0 0.265625 0.078125q0.078125 0.0625 0.078125 0.1875q0 0.109375 -0.078125 0.1875q-0.078125 0.078125 -0.265625 0.078125l-1.4375 0q-0.1875 0 -0.28125 -0.078125q-0.078125 -0.078125 -0.078125 -0.1875q0 -0.125 0.078125 -0.1875q0.09375 -0.078125 0.28125 -0.078125l0.453125 0l0 -3.265625q0 -0.578125 -0.421875 -0.953125q-0.40625 -0.390625 -1.09375 -0.390625q-0.53125 0 -0.921875 0.21875q-0.390625 0.203125 -1.109375 1.046875l0 3.34375l0.609375 0q0.1875 0 0.265625 0.078125q0.09375 0.0625 0.09375 0.1875q0 0.109375 -0.09375 0.1875q-0.078125 0.078125 -0.265625 0.078125l-1.734375 0q-0.203125 0 -0.28125 -0.078125q-0.078125 -0.078125 -0.078125 -0.1875q0 -0.125 0.078125 -0.1875q0.078125 -0.078125 0.28125 -0.078125l0.59375 0l0 -4.421875l-0.453125 0q-0.1875 0 -0.265625 -0.078125q-0.078125 -0.078125 -0.078125 -0.203125q0 -0.109375 0.078125 -0.1875q0.078125 -0.078125 0.265625 -0.078125l0.984375 0z" fill-rule="nonzero"/><path fill="#010000" fill-opacity="0.0" d="m795.8009 71.18853l0 0l0 14.7265625l0 0l0 -14.7265625z" fill-rule="nonzero"/><path fill="#ffffff" d="m809.0289 59.998688l34.204712 0l0 34.425194l-34.204712 0z" fill-rule="evenodd"/><path stroke="#000000" stroke-width="1.0" stroke-linejoin="round" stroke-linecap="butt" d="m809.0289 59.998688l34.204712 0l0 34.425194l-34.204712 0z" fill-rule="evenodd"/><path fill="#ffffff" d="m822.2306 69.21129l7.8012695 0l0 16.0l-7.8012695 0l0 -16.0z" fill-rule="nonzero"/><path fill="#000000" fill-opacity="0.0" d="m822.2306 71.18853l7.8012695 0l0 14.7265625l-7.8012695 0l0 -14.7265625z" fill-rule="nonzero"/><path fill="#2b2b2b" d="m825.0431 76.511284l2.890625 0q0.1875 0 0.265625 0.078125q0.09375 0.078125 0.09375 0.203125q0 0.109375 -0.09375 0.1875q-0.078125 0.078125 -0.265625 0.078125l-2.890625 0l0 3.546875q0 0.453125 0.359375 0.765625q0.375 0.3125 1.09375 0.3125q0.546875 0 1.171875 -0.15625q0.625 -0.15625 0.96875 -0.359375q0.125 -0.09375 0.21875 -0.09375q0.09375 0 0.171875 0.078125q0.078125 0.078125 0.078125 0.1875q0 0.09375 -0.078125 0.1875q-0.203125 0.203125 -1.0 0.453125q-0.78125 0.234375 -1.5 0.234375q-0.921875 0 -1.484375 -0.4375q-0.546875 -0.4375 -0.546875 -1.171875l0 -3.546875l-0.984375 0q-0.1875 0 -0.28125 -0.078125q-0.078125 -0.078125 -0.078125 -0.203125q0 -0.109375 0.078125 -0.1875q0.09375 -0.078125 0.28125 -0.078125l0.984375 0l0 -1.578125q0 -0.1875 0.078125 -0.265625q0.078125 -0.078125 0.1875 -0.078125q0.125 0 0.203125 0.078125q0.078125 0.078125 0.078125 0.265625l0 1.578125z" fill-rule="nonzero"/><path fill="#010000" fill-opacity="0.0" d="m830.03186 71.18853l0 0l0 14.7265625l0 0l0 -14.7265625z" fill-rule="nonzero"/><path fill="#ffffff" d="m843.2467 59.998688l34.204712 0l0 34.425194l-34.204712 0z" fill-rule="evenodd"/><path stroke="#000000" stroke-width="1.0" stroke-linejoin="round" stroke-linecap="butt" d="m843.2467 59.998688l34.204712 0l0 34.425194l-34.204712 0z" fill-rule="evenodd"/><path fill="#000000" fill-opacity="0.0" d="m860.34906 71.18853l7.8012695 0l0 14.7265625l-7.8012695 0l0 -14.7265625z" fill-rule="nonzero"/><path fill="#010000" fill-opacity="0.0" d="m868.1503 71.18853l0 0l0 14.7265625l0 0l0 -14.7265625z" fill-rule="nonzero"/><path fill="#ffffff" d="m877.46454 59.998688l34.204773 0l0 34.425194l-34.204773 0z" fill-rule="evenodd"/><path stroke="#000000" stroke-width="1.0" stroke-linejoin="round" stroke-linecap="butt" d="m877.46454 59.998688l34.204773 0l0 34.425194l-34.204773 0z" fill-rule="evenodd"/><path fill="#ffffff" d="m890.6663 69.21129l7.8012695 0l0 16.0l-7.8012695 0l0 -16.0z" fill-rule="nonzero"/><path fill="#000000" fill-opacity="0.0" d="m890.6663 71.18853l7.8012695 0l0 14.7265625l-7.8012695 0l0 -14.7265625z" fill-rule="nonzero"/><path fill="#2b2b2b" d="m894.8851 78.855034q-0.328125 -0.25 -0.4375 -0.46875q-0.140625 -0.265625 -0.140625 -0.671875l0 -2.28125q0 -0.359375 -0.21875 -0.59375q-0.203125 -0.234375 -0.515625 -0.25q-0.203125 -0.03125 -0.265625 -0.078125q-0.078125 -0.078125 -0.078125 -0.203125q0 -0.109375 0.078125 -0.1875q0.078125 -0.078125 0.234375 -0.078125q0.515625 0 0.84375 0.328125q0.453125 0.421875 0.453125 1.0625l0 2.28125q0 0.359375 0.203125 0.59375q0.21875 0.234375 0.546875 0.265625q0.171875 0.015625 0.234375 0.09375q0.078125 0.0625 0.078125 0.1875q0 0.125 -0.078125 0.203125q-0.0625 0.0625 -0.234375 0.078125q-0.328125 0.03125 -0.546875 0.265625q-0.203125 0.234375 -0.203125 0.578125l0 2.296875q0 0.59375 -0.390625 0.984375q-0.375 0.40625 -0.90625 0.40625q-0.15625 0 -0.234375 -0.078125q-0.078125 -0.078125 -0.078125 -0.203125q0 -0.109375 0.078125 -0.1875q0.0625 -0.0625 0.265625 -0.078125q0.3125 -0.03125 0.515625 -0.265625q0.21875 -0.234375 0.21875 -0.59375l0 -2.28125q0 -0.390625 0.125 -0.640625q0.125 -0.25 0.453125 -0.484375z" fill-rule="nonzero"/><path fill="#010000" fill-opacity="0.0" d="m898.4676 71.18853l0 0l0 14.7265625l0 0l0 -14.7265625z" fill-rule="nonzero"/><path fill="#ffffff" d="m911.6693 59.998688l34.204712 0l0 34.425194l-34.204712 0z" fill-rule="evenodd"/><path stroke="#000000" stroke-width="1.0" stroke-linejoin="round" stroke-linecap="butt" d="m911.6693 59.998688l34.204712 0l0 34.425194l-34.204712 0z" fill-rule="evenodd"/><path fill="#ffffff" d="m924.87103 69.21129l7.8012695 0l0 16.0l-7.8012695 0l0 -16.0z" fill-rule="nonzero"/><path fill="#000000" fill-opacity="0.0" d="m924.87103 71.18853l7.8012695 0l0 14.7265625l-7.8012695 0l0 -14.7265625z" fill-rule="nonzero"/><path fill="#2b2b2b" d="m929.0898 78.855034q-0.328125 -0.25 -0.4375 -0.46875q-0.140625 -0.265625 -0.140625 -0.671875l0 -2.28125q0 -0.359375 -0.21875 -0.59375q-0.203125 -0.234375 -0.515625 -0.25q-0.203125 -0.03125 -0.265625 -0.078125q-0.078125 -0.078125 -0.078125 -0.203125q0 -0.109375 0.078125 -0.1875q0.078125 -0.078125 0.234375 -0.078125q0.515625 0 0.84375 0.328125q0.453125 0.421875 0.453125 1.0625l0 2.28125q0 0.359375 0.203125 0.59375q0.21875 0.234375 0.546875 0.265625q0.171875 0.015625 0.234375 0.09375q0.078125 0.0625 0.078125 0.1875q0 0.125 -0.078125 0.203125q-0.0625 0.0625 -0.234375 0.078125q-0.328125 0.03125 -0.546875 0.265625q-0.203125 0.234375 -0.203125 0.578125l0 2.296875q0 0.59375 -0.390625 0.984375q-0.375 0.40625 -0.90625 0.40625q-0.15625 0 -0.234375 -0.078125q-0.078125 -0.078125 -0.078125 -0.203125q0 -0.109375 0.078125 -0.1875q0.0625 -0.0625 0.265625 -0.078125q0.3125 -0.03125 0.515625 -0.265625q0.21875 -0.234375 0.21875 -0.59375l0 -2.28125q0 -0.390625 0.125 -0.640625q0.125 -0.25 0.453125 -0.484375z" fill-rule="nonzero"/><path fill="#010000" fill-opacity="0.0" d="m932.6723 71.18853l0 0l0 14.7265625l0 0l0 -14.7265625z" fill-rule="nonzero"/><path fill="#ffffff" d="m945.90027 59.998688l34.204712 0l0 34.425194l-34.204712 0z" fill-rule="evenodd"/><path stroke="#000000" stroke-width="1.0" stroke-linejoin="round" stroke-linecap="butt" d="m945.90027 59.998688l34.204712 0l0 34.425194l-34.204712 0z" fill-rule="evenodd"/><path fill="#ffffff" d="m951.3007 69.21129l23.403809 0l0 16.0l-23.403809 0l0 -16.0z" fill-rule="nonzero"/><path fill="#000000" fill-opacity="0.0" d="m951.3007 71.18853l23.403809 0l0 14.7265625l-23.403809 0l0 -14.7265625z" fill-rule="nonzero"/><path fill="#2b2b2b" d="m953.4726 78.417534l0 3.0625l4.09375 0l0 -1.578125q0 -0.1875 0.0625 -0.265625q0.078125 -0.09375 0.203125 -0.09375q0.125 0 0.1875 0.09375q0.078125 0.078125 0.078125 0.265625l0 2.109375l-5.875 0q-0.203125 0 -0.28125 -0.078125q-0.078125 -0.078125 -0.078125 -0.1875q0 -0.125 0.078125 -0.1875q0.078125 -0.078125 0.28125 -0.078125l0.703125 0l0 -6.359375l-0.703125 0q-0.203125 0 -0.28125 -0.078125q-0.078125 -0.078125 -0.078125 -0.1875q0 -0.125 0.078125 -0.1875q0.078125 -0.078125 0.28125 -0.078125l5.59375 0l0 1.828125q0 0.1875 -0.078125 0.28125q-0.0625 0.078125 -0.1875 0.078125q-0.125 0 -0.203125 -0.078125q-0.0625 -0.09375 -0.0625 -0.28125l0 -1.296875l-3.8125 0l0 2.765625l1.90625 0l0 -0.59375q0 -0.1875 0.078125 -0.265625q0.078125 -0.09375 0.1875 -0.09375q0.125 0 0.1875 0.09375q0.078125 0.078125 0.078125 0.265625l0 1.734375q0 0.1875 -0.078125 0.28125q-0.0625 0.078125 -0.1875 0.078125q-0.109375 0 -0.1875 -0.078125q-0.078125 -0.09375 -0.078125 -0.28125l0 -0.609375l-1.90625 0zm12.785645 -0.09375q0 1.0625 -0.4375 1.96875q-0.421875 0.90625 -1.1875 1.421875q-0.75 0.5 -1.625 0.5q-1.28125 0 -2.265625 -1.09375q-0.984375 -1.09375 -0.984375 -2.796875q0 -1.734375 0.984375 -2.8125q0.984375 -1.09375 2.265625 -1.09375q0.875 0 1.625 0.515625q0.765625 0.5 1.1875 1.40625q0.4375 0.90625 0.4375 1.984375zm-0.53125 0q0 -1.3125 -0.765625 -2.34375q-0.75 -1.03125 -1.953125 -1.03125q-1.125 0 -1.921875 0.984375q-0.796875 0.984375 -0.796875 2.390625q0 1.484375 0.828125 2.421875q0.84375 0.9375 1.890625 0.9375q1.203125 0 1.953125 -1.03125q0.765625 -1.03125 0.765625 -2.328125zm3.7856445 0.09375l0 3.0625l1.828125 0q0.203125 0 0.28125 0.078125q0.078125 0.0625 0.078125 0.1875q0 0.109375 -0.078125 0.1875q-0.078125 0.078125 -0.28125 0.078125l-3.078125 0q-0.1875 0 -0.265625 -0.078125q-0.078125 -0.078125 -0.078125 -0.1875q0 -0.125 0.078125 -0.1875q0.078125 -0.078125 0.265625 -0.078125l0.71875 0l0 -6.359375l-0.71875 0q-0.1875 0 -0.265625 -0.078125q-0.078125 -0.078125 -0.078125 -0.1875q0 -0.125 0.09375 -0.203125q0.0625 -0.0625 0.25 -0.0625l5.875 0l0 1.828125q0 0.1875 -0.078125 0.28125q-0.078125 0.078125 -0.1875 0.078125q-0.125 0 -0.203125 -0.078125q-0.0625 -0.09375 -0.0625 -0.28125l0 -1.296875l-4.09375 0l0 2.765625l1.921875 0l0 -0.59375q0 -0.1875 0.0625 -0.265625q0.078125 -0.09375 0.203125 -0.09375q0.109375 0 0.1875 0.09375q0.078125 0.078125 0.078125 0.265625l0 1.734375q0 0.1875 -0.078125 0.28125q-0.078125 0.078125 -0.1875 0.078125q-0.125 0 -0.203125 -0.078125q-0.0625 -0.09375 -0.0625 -0.28125l0 -0.609375l-1.921875 0z" fill-rule="nonzero"/><path fill="#010000" fill-opacity="0.0" d="m974.7045 71.18853l0 0l0 14.7265625l0 0l0 -14.7265625z" fill-rule="nonzero"/><path fill="#ffffff" d="m30.721785 165.76378l113.07086 0l0 34.4252l-113.07086 0z" fill-rule="evenodd"/><path stroke="#000000" stroke-width="1.0" stroke-linejoin="round" stroke-linecap="butt" d="m30.721785 165.76378l113.07086 0l0 34.4252l-113.07086 0z" fill-rule="evenodd"/><path fill="#ffffff" d="m52.15151 174.97638l70.211426 0l0 16.0l-70.211426 0l0 -16.0z" fill-rule="nonzero"/><path fill="#000000" fill-opacity="0.0" d="m52.15151 176.95363l70.211426 0l0 14.7265625l-70.211426 0l0 -14.7265625z" fill-rule="nonzero"/><path fill="#2b2b2b" d="m57.80776 182.63576q0 -0.1875 0.078125 -0.265625q0.078125 -0.09375 0.1875 -0.09375q0.125 0 0.203125 0.09375q0.078125 0.078125 0.078125 0.265625l0 0.921875q0 0.1875 -0.078125 0.28125q-0.078125 0.078125 -0.203125 0.078125q-0.09375 0 -0.171875 -0.0625q-0.078125 -0.078125 -0.09375 -0.25q-0.03125 -0.375 -0.390625 -0.625q-0.515625 -0.34375 -1.375 -0.34375q-0.890625 0 -1.390625 0.359375q-0.375 0.265625 -0.375 0.609375q0 0.375 0.453125 0.625q0.296875 0.1875 1.140625 0.28125q1.125 0.109375 1.546875 0.265625q0.625 0.21875 0.921875 0.625q0.296875 0.390625 0.296875 0.84375q0 0.6875 -0.65625 1.21875q-0.640625 0.515625 -1.90625 0.515625q-1.265625 0 -2.078125 -0.640625q0 0.21875 -0.03125 0.28125q-0.015625 0.0625 -0.09375 0.109375q-0.0625 0.046875 -0.140625 0.046875q-0.109375 0 -0.1875 -0.078125q-0.078125 -0.09375 -0.078125 -0.28125l0 -1.09375q0 -0.1875 0.0625 -0.265625q0.078125 -0.09375 0.203125 -0.09375q0.109375 0 0.1875 0.078125q0.09375 0.078125 0.09375 0.21875q0 0.296875 0.140625 0.484375q0.21875 0.3125 0.703125 0.515625q0.484375 0.1875 1.1875 0.1875q1.046875 0 1.546875 -0.375q0.515625 -0.390625 0.515625 -0.828125q0 -0.5 -0.515625 -0.796875q-0.515625 -0.296875 -1.515625 -0.390625q-0.984375 -0.109375 -1.421875 -0.265625q-0.4375 -0.171875 -0.671875 -0.5q-0.234375 -0.328125 -0.234375 -0.71875q0 -0.671875 0.671875 -1.078125q0.671875 -0.40625 1.59375 -0.40625q1.109375 0 1.796875 0.546875zm4.9575195 -0.359375l2.8906212 0q0.1875 0 0.265625 0.078125q0.09375 0.078125 0.09375 0.203125q0 0.109375 -0.09375 0.1875q-0.078125 0.078125 -0.265625 0.078125l-2.8906212 0l0 3.546875q0 0.453125 0.359375 0.765625q0.375 0.3125 1.0937462 0.3125q0.546875 0 1.171875 -0.15625q0.625 -0.15625 0.96875 -0.359375q0.125 -0.09375 0.21875 -0.09375q0.09375 0 0.171875 0.078125q0.078125 0.078125 0.078125 0.1875q0 0.09375 -0.078125 0.1875q-0.203125 0.203125 -1.0 0.453125q-0.78125 0.234375 -1.5 0.234375q-0.9218712 0 -1.4843712 -0.4375q-0.546875 -0.4375 -0.546875 -1.171875l0 -3.546875l-0.984375 0q-0.1875 0 -0.28125 -0.078125q-0.078125 -0.078125 -0.078125 -0.203125q0 -0.109375 0.078125 -0.1875q0.09375 -0.078125 0.28125 -0.078125l0.984375 0l0 -1.578125q0 -0.1875 0.078125 -0.265625q0.078125 -0.078125 0.1875 -0.078125q0.125 0 0.203125 0.078125q0.078125 0.078125 0.078125 0.265625l0 1.578125zm10.426266 5.5l0 -0.765625q-1.171875 0.96875 -2.484375 0.96875q-0.953125 0 -1.5 -0.484375q-0.53125 -0.484375 -0.53125 -1.1875q0 -0.765625 0.703125 -1.34375q0.71875 -0.578125 2.078125 -0.578125q0.359375 0 0.796875 0.046875q0.4375 0.046875 0.9375 0.140625l0 -0.859375q0 -0.4375 -0.40625 -0.75q-0.40625 -0.328125 -1.21875 -0.328125q-0.625 0 -1.75 0.359375q-0.203125 0.0625 -0.265625 0.0625q-0.09375 0 -0.171875 -0.078125q-0.0625 -0.078125 -0.0625 -0.1875q0 -0.109375 0.0625 -0.171875q0.078125 -0.09375 0.71875 -0.265625q0.984375 -0.265625 1.484375 -0.265625q1.015625 0 1.578125 0.5q0.5625 0.5 0.5625 1.125l0 3.53125l0.71875 0q0.1875 0 0.265625 0.078125q0.09375 0.0625 0.09375 0.1875q0 0.109375 -0.09375 0.1875q-0.078125 0.078125 -0.265625 0.078125l-1.25 0zm0 -2.65625q-0.375 -0.109375 -0.796875 -0.15625q-0.421875 -0.046875 -0.875 -0.046875q-1.171875 0 -1.828125 0.5q-0.484375 0.375 -0.484375 0.890625q0 0.484375 0.375 0.8125q0.375 0.328125 1.09375 0.328125q0.703125 0 1.296875 -0.265625q0.59375 -0.28125 1.21875 -0.890625l0 -1.171875zm5.6293945 -2.84375l0 1.34375q1.03125 -0.9375 1.546875 -1.203125q0.53125 -0.265625 0.96875 -0.265625q0.46875 0 0.875 0.328125q0.421875 0.3125 0.421875 0.46875q0 0.125 -0.09375 0.203125q-0.078125 0.078125 -0.1875 0.078125q-0.0625 0 -0.109375 -0.015625q-0.046875 -0.03125 -0.171875 -0.140625q-0.21875 -0.234375 -0.390625 -0.3125q-0.15625 -0.078125 -0.3125 -0.078125q-0.359375 0 -0.859375 0.28125q-0.484375 0.28125 -1.6875 1.359375l0 2.921875l2.359375 0q0.203125 0 0.28125 0.078125q0.078125 0.0625 0.078125 0.1875q0 0.109375 -0.078125 0.1875q-0.078125 0.078125 -0.28125 0.078125l-4.1875 0q-0.1875 0 -0.28125 -0.0625q-0.078125 -0.078125 -0.078125 -0.203125q0 -0.109375 0.078125 -0.171875q0.09375 -0.078125 0.28125 -0.078125l1.296875 0l0 -4.4375l-0.984375 0q-0.1875 0 -0.28125 -0.078125q-0.078125 -0.078125 -0.078125 -0.203125q0 -0.109375 0.078125 -0.1875q0.078125 -0.078125 0.28125 -0.078125l1.515625 0zm7.3481445 0l2.890625 0q0.1875 0 0.265625 0.078125q0.09375 0.078125 0.09375 0.203125q0 0.109375 -0.09375 0.1875q-0.078125 0.078125 -0.265625 0.078125l-2.890625 0l0 3.546875q0 0.453125 0.359375 0.765625q0.375 0.3125 1.09375 0.3125q0.546875 0 1.171875 -0.15625q0.625 -0.15625 0.96875 -0.359375q0.125 -0.09375 0.21875 -0.09375q0.09375 0 0.171875 0.078125q0.078125 0.078125 0.078125 0.1875q0 0.09375 -0.078125 0.1875q-0.203125 0.203125 -1.0 0.453125q-0.78125 0.234375 -1.5 0.234375q-0.921875 0 -1.484375 -0.4375q-0.546875 -0.4375 -0.546875 -1.171875l0 -3.546875l-0.984375 0q-0.1875 0 -0.28125 -0.078125q-0.078125 -0.078125 -0.078125 -0.203125q0 -0.109375 0.078125 -0.1875q0.09375 -0.078125 0.28125 -0.078125l0.984375 0l0 -1.578125q0 -0.1875 0.078125 -0.265625q0.078125 -0.078125 0.1875 -0.078125q0.125 0 0.203125 0.078125q0.078125 0.078125 0.078125 0.265625l0 1.578125zm7.9731445 -1.390625l0 6.359375l3.53125 0l0 -2.125q0 -0.1875 0.078125 -0.265625q0.078125 -0.09375 0.203125 -0.09375q0.109375 0 0.1875 0.09375q0.078125 0.078125 0.078125 0.265625l0 2.65625l-5.890625 0q-0.1875 0 -0.28125 -0.078125q-0.078125 -0.078125 -0.078125 -0.1875q0 -0.125 0.078125 -0.1875q0.09375 -0.078125 0.28125 -0.078125l1.265625 0l0 -6.359375l-1.265625 0q-0.1875 0 -0.28125 -0.078125q-0.078125 -0.078125 -0.078125 -0.1875q0 -0.125 0.078125 -0.1875q0.09375 -0.078125 0.28125 -0.078125l3.078125 0q0.1875 0 0.265625 0.078125q0.09375 0.0625 0.09375 0.1875q0 0.109375 -0.09375 0.1875q-0.078125 0.078125 -0.265625 0.078125l-1.265625 0zm8.98877 -1.34375l0 1.375l-0.796875 0l0 -1.375l0.796875 0zm0.015625 2.734375l0 4.96875l2.09375 0q0.1875 0 0.265625 0.078125q0.09375 0.0625 0.09375 0.1875q0 0.109375 -0.09375 0.1875q-0.078125 0.078125 -0.265625 0.078125l-4.71875 0q-0.203125 0 -0.28125 -0.078125q-0.078125 -0.078125 -0.078125 -0.1875q0 -0.125 0.078125 -0.1875q0.078125 -0.078125 0.28125 -0.078125l2.09375 0l0 -4.421875l-1.5625 0q-0.1875 0 -0.28125 -0.078125q-0.078125 -0.078125 -0.078125 -0.1875q0 -0.125 0.078125 -0.203125q0.078125 -0.078125 0.28125 -0.078125l2.09375 0zm5.7856445 0l0 0.8125q0.5625 -0.5625 1.015625 -0.78125q0.453125 -0.21875 1.015625 -0.21875q0.609375 0 1.109375 0.265625q0.359375 0.1875 0.640625 0.625q0.296875 0.4375 0.296875 0.90625l0 3.359375l0.453125 0q0.1875 0 0.265625 0.078125q0.078125 0.0625 0.078125 0.1875q0 0.109375 -0.078125 0.1875q-0.078125 0.078125 -0.265625 0.078125l-1.4375 0q-0.1875 0 -0.28125 -0.078125q-0.078125 -0.078125 -0.078125 -0.1875q0 -0.125 0.078125 -0.1875q0.09375 -0.078125 0.28125 -0.078125l0.453125 0l0 -3.265625q0 -0.578125 -0.421875 -0.953125q-0.40625 -0.390625 -1.09375 -0.390625q-0.53125 0 -0.921875 0.21875q-0.390625 0.203125 -1.109375 1.046875l0 3.34375l0.609375 0q0.1875 0 0.265625 0.078125q0.09375 0.0625 0.09375 0.1875q0 0.109375 -0.09375 0.1875q-0.078125 0.078125 -0.265625 0.078125l-1.734375 0q-0.203125 0 -0.28125 -0.078125q-0.078125 -0.078125 -0.078125 -0.1875q0 -0.125 0.078125 -0.1875q0.078125 -0.078125 0.28125 -0.078125l0.59375 0l0 -4.421875l-0.453125 0q-0.1875 0 -0.265625 -0.078125q-0.078125 -0.078125 -0.078125 -0.203125q0 -0.109375 0.078125 -0.1875q0.078125 -0.078125 0.265625 -0.078125l0.984375 0zm12.410645 2.875l-5.421875 0q0.125 1.03125 0.859375 1.671875q0.734375 0.625 1.796875 0.625q0.59375 0 1.25 -0.1875q0.65625 -0.203125 1.0625 -0.53125q0.125 -0.09375 0.21875 -0.09375q0.09375 0 0.171875 0.078125q0.078125 0.078125 0.078125 0.1875q0 0.109375 -0.09375 0.21875q-0.3125 0.3125 -1.09375 0.59375q-0.765625 0.265625 -1.59375 0.265625q-1.375 0 -2.296875 -0.890625q-0.90625 -0.90625 -0.90625 -2.171875q0 -1.171875 0.859375 -2.0q0.859375 -0.828125 2.125 -0.828125q1.3125 0 2.15625 0.859375q0.84375 0.84375 0.828125 2.203125zm-0.53125 -0.53125q-0.15625 -0.890625 -0.84375 -1.4375q-0.671875 -0.546875 -1.609375 -0.546875q-0.921875 0 -1.59375 0.546875q-0.671875 0.53125 -0.84375 1.4375l4.890625 0z" fill-rule="nonzero"/><path fill="#000000" fill-opacity="0.0" d="m122.36293 176.95363l0 0l0 14.7265625l0 0l0 -14.7265625z" fill-rule="nonzero"/></g></svg>