<svg version="1.1" viewBox="0.0 0.0 874.4435695538058 186.66666666666666" fill="none" stroke="none" stroke-linecap="square" stroke-miterlimit="10" xmlns:xlink="http://www.w3.org/1999/xlink" xmlns="http://www.w3.org/2000/svg"><clipPath id="p.0"><path d="m0 0l874.44354 0l0 186.66667l-874.44354 0l0 -186.66667z" clip-rule="nonzero"/></clipPath><g clip-path="url(#p.0)"><path fill="#000000" fill-opacity="0.0" d="m0 0l874.44354 0l0 186.66667l-874.44354 0z" fill-rule="evenodd"/><path fill="#2b2b2b" d="m30.720472 18.099737l810.01575 0l0 34.425194l-810.01575 0z" fill-rule="evenodd"/><path fill="#2b2b2b" d="m43.817917 19.312336l783.82086 0l0 32.0l-783.82086 0l0 -32.0z" fill-rule="nonzero"/><path fill="#000000" fill-opacity="0.0" d="m43.817917 22.720486l687.8427 0l0 30.196537l-687.8427 0l0 -30.196537z" fill-rule="nonzero"/><path fill="#6a8759" d="m50.89604 27.474834l2.9375 2.375q0.53125 0.421875 0.53125 0.84375q0 0.359375 -0.265625 0.609375q-0.25 0.25 -0.609375 0.25q-0.296875 0 -0.75 -0.359375l-2.9375 -2.375q-0.515625 -0.421875 -0.515625 -0.84375q0 -0.359375 0.25 -0.609375q0.25 -0.25 0.625 -0.25q0.296875 0 0.734375 0.359375zm14.121353 9.84375l8.640625 4.78125q0.65625 0.359375 0.859375 0.65625q0.21875 0.28125 0.21875 0.71875q0 0.5625 -0.40625 0.984375q-0.390625 0.40625 -0.921875 0.40625q-0.359375 0 -1.0625 -0.390625l-12.875 -7.15625l12.875 -7.171875q0.703125 -0.375 1.046875 -0.375q0.546875 0 0.9375 0.40625q0.40625 0.40625 0.40625 0.96875q0 0.4375 -0.21875 0.734375q-0.203125 0.28125 -0.859375 0.640625l-8.640625 4.796875zm15.480728 6.125l0 4.375l1.59375 0q0.96875 0 1.375 0.359375q0.40625 0.375 0.40625 0.984375q0 0.578125 -0.40625 0.9531288q-0.40625 0.375 -1.375 0.375l-4.71875 0q-0.96875 0 -1.375 -0.375q-0.40625 -0.3750038 -0.40625 -0.9531288q0 -0.609375 0.40625 -0.984375q0.421875 -0.359375 1.375 -0.359375l0.453125 0l0 -12.0625l-0.453125 0q-0.96875 0 -1.375 -0.359375q-0.40625 -0.375 -0.40625 -0.96875q0 -0.59375 0.40625 -0.953125q0.40625 -0.375 1.375 -0.375l3.125 0l0 0.90625q0.9375 -0.640625 1.9375 -0.953125q1.0 -0.3125 2.0625 -0.3125q2.734375 0 4.65625 1.859375q1.921875 1.859375 1.921875 4.25q0 2.640625 -2.28125 4.359375q-1.890625 1.4375 -4.28125 1.4375q-1.03125 0 -2.03125 -0.296875q-1.0 -0.3125 -1.984375 -0.90625zm7.90625 -4.578125q0 -0.5625 -0.4375 -1.421875q-0.4375 -0.875 -1.359375 -1.453125q-0.921875 -0.578125 -2.15625 -0.578125q-1.984375 0 -3.15625 1.5q-0.796875 1.03125 -0.796875 1.96875q0 1.078125 1.140625 2.09375q1.140625 1.0 2.8125 1.0q1.6875 0 2.8125 -1.0q1.140625 -1.015625 1.140625 -2.109375zm14.215103 -1.546875l-8.640625 -4.796875q-0.65625 -0.359375 -0.875 -0.640625q-0.203125 -0.296875 -0.203125 -0.734375q0 -0.5625 0.40625 -0.96875q0.40625 -0.40625 0.953125 -0.40625q0.328125 0 1.03125 0.375l12.875 7.171875l-12.875 7.15625q-0.703125 0.390625 -1.03125 0.390625q-0.546875 0 -0.953125 -0.40625q-0.40625 -0.40625 -0.40625 -0.984375q0 -0.4375 0.203125 -0.71875q0.21875 -0.296875 0.875 -0.65625l8.640625 -4.78125zm10.386978 0l8.640625 4.78125q0.65625 0.359375 0.859375 0.65625q0.21875 0.28125 0.21875 0.71875q0 0.5625 -0.40625 0.984375q-0.390625 0.40625 -0.921875 0.40625q-0.359375 0 -1.0625 -0.390625l-12.875 -7.15625l12.875 -7.171875q0.703125 -0.375 1.046875 -0.375q0.546875 0 0.9375 0.40625q0.40625 0.40625 0.40625 0.96875q0 0.4375 -0.21875 0.734375q-0.203125 0.28125 -0.859375 0.640625l-8.640625 4.796875zm20.777603 -6.625l-0.75 8.03125q-0.046875 0.625 -0.421875 0.96875q-0.359375 0.34375 -0.90625 0.34375q-0.546875 0 -0.90625 -0.34375q-0.359375 -0.34375 -0.40625 -0.96875l-0.765625 -8.03125q-0.046875 -0.625 -0.046875 -0.8125q0 -1.015625 0.609375 -1.625q0.609375 -0.625 1.515625 -0.625q0.90625 0 1.515625 0.625q0.625 0.625 0.625 1.578125q0 0.1875 -0.0625 0.859375zm-0.4375 13.25q0 0.5625 -0.4375 0.96875q-0.421875 0.390625 -1.171875 0.390625q-0.75 0 -1.1875 -0.390625q-0.421875 -0.40625 -0.421875 -0.96875q0 -0.5625 0.421875 -0.953125q0.421875 -0.40625 1.1875 -0.40625q0.765625 0 1.1875 0.390625q0.421875 0.390625 0.421875 0.96875zm20.043228 -5.390625l-11.140625 0l0 -2.421875l11.140625 0l0 2.421875zm15.996353 0l-11.140625 0l0 -2.421875l11.140625 0l0 2.421875zm29.320831 -0.171875l-5.703125 0l0 3.859375l0.421875 0q0.953125 0 1.359375 0.375q0.421875 0.375 0.421875 0.96875q0 0.59375 -0.421875 0.96875q-0.40625 0.359375 -1.359375 0.359375l-3.265625 0q-0.96875 0 -1.390625 -0.359375q-0.40625 -0.375 -0.40625 -0.984375q0 -0.71875 0.640625 -1.125q0.3125 -0.21875 1.328125 -0.203125l0 -10.4375q-0.703125 -0.0625 -1.0625 -0.421875q-0.359375 -0.375 -0.359375 -0.921875q0 -0.59375 0.40625 -0.953125q0.421875 -0.375 1.390625 -0.375l2.71875 0q0.953125 0 1.359375 0.375q0.421875 0.359375 0.421875 0.953125q0 0.609375 -0.421875 0.984375q-0.40625 0.359375 -1.359375 0.359375l-0.421875 0l0 3.90625l5.703125 0l0 -3.90625l-0.421875 0q-0.953125 0 -1.375 -0.359375q-0.40625 -0.375 -0.40625 -0.984375q0 -0.59375 0.40625 -0.953125q0.421875 -0.375 1.375 -0.375l2.71875 0q0.96875 0 1.375 0.375q0.40625 0.359375 0.40625 0.953125q0 0.546875 -0.359375 0.921875q-0.34375 0.359375 -1.046875 0.421875l0 10.4375q1.015625 0 1.328125 0.203125q0.625 0.40625 0.625 1.140625q0 0.59375 -0.40625 0.96875q-0.40625 0.359375 -1.375 0.359375l-3.265625 0q-0.953125 0 -1.375 -0.359375q-0.40625 -0.375 -0.40625 -0.984375q0 -0.578125 0.40625 -0.953125q0.421875 -0.375 1.375 -0.375l0.421875 0l0 -3.859375zm14.371353 -6.578125l0 10.4375l1.796875 0q0.953125 0 1.359375 0.375q0.421875 0.375 0.421875 0.96875q0 0.59375 -0.421875 0.96875q-0.40625 0.359375 -1.359375 0.359375l-6.25 0q-0.96875 0 -1.375 -0.359375q-0.40625 -0.375 -0.40625 -0.984375q0 -0.578125 0.40625 -0.953125q0.40625 -0.375 1.375 -0.375l1.78125 0l0 -10.4375l-2.890625 0l0 2.53125q0 0.953125 -0.375 1.375q-0.359375 0.40625 -0.96875 0.40625q-0.578125 0 -0.953125 -0.40625q-0.375 -0.421875 -0.375 -1.375l0 -5.203125l13.828125 0l0 5.203125q0 0.953125 -0.375 1.375q-0.375 0.40625 -0.96875 0.40625q-0.578125 0 -0.953125 -0.40625q-0.375 -0.421875 -0.375 -1.375l0 -2.53125l-2.921875 0zm10.527603 2.484375l0 7.953125l0.96875 0q0.953125 0 1.359375 0.375q0.421875 0.375 0.421875 0.96875q0 0.59375 -0.421875 0.96875q-0.40625 0.359375 -1.359375 0.359375l-3.515625 0q-0.953125 0 -1.359375 -0.359375q-0.421875 -0.375 -0.421875 -0.984375q0 -0.578125 0.40625 -0.953125q0.40625 -0.375 1.25 -0.375l0 -10.4375q-0.703125 -0.0625 -1.0625 -0.421875q-0.359375 -0.375 -0.359375 -0.921875q0 -0.59375 0.40625 -0.953125q0.421875 -0.375 1.375 -0.375l2.9375 0l3.625 8.03125l3.578125 -8.03125l2.953125 0q0.953125 0 1.359375 0.375q0.421875 0.359375 0.421875 0.953125q0 0.546875 -0.375 0.921875q-0.359375 0.359375 -1.046875 0.421875l0 10.4375q0.84375 0 1.25 0.390625q0.40625 0.375 0.40625 0.953125q0 0.59375 -0.421875 0.96875q-0.40625 0.359375 -1.359375 0.359375l-3.515625 0q-0.953125 0 -1.375 -0.359375q-0.40625 -0.375 -0.40625 -0.984375q0 -0.578125 0.40625 -0.953125q0.421875 -0.375 1.375 -0.375l0.96875 0l0 -7.953125l-3.0625 6.875l-2.3125 0l-3.09375 -6.875zm19.058853 -2.484375l0 10.4375l5.75 0l0 -2.515625q0 -0.96875 0.359375 -1.375q0.375 -0.40625 0.984375 -0.40625q0.578125 0 0.953125 0.40625q0.375 0.40625 0.375 1.375l0 5.1875l-12.640625 0q-0.96875 0 -1.375 -0.359375q-0.40625 -0.375 -0.40625 -0.984375q0 -0.578125 0.40625 -0.953125q0.40625 -0.375 1.375 -0.375l1.546875 0l0 -10.4375l-1.546875 0q-0.96875 0 -1.375 -0.359375q-0.40625 -0.375 -0.40625 -0.984375q0 -0.59375 0.40625 -0.953125q0.40625 -0.375 1.375 -0.375l5.78125 0q0.953125 0 1.359375 0.375q0.421875 0.359375 0.421875 0.953125q0 0.609375 -0.421875 0.984375q-0.40625 0.359375 -1.359375 0.359375l-1.5625 0zm37.258316 1.765625q0.484375 -0.453125 0.984375 -0.453125q0.578125 0 0.9375 0.421875q0.375 0.40625 0.375 1.359375l0 1.71875q0 0.953125 -0.375 1.359375q-0.359375 0.40625 -0.953125 0.40625q-0.546875 0 -0.921875 -0.3125q-0.28125 -0.234375 -0.4375 -0.953125q-0.15625 -0.734375 -0.75 -1.078125q-1.0625 -0.625 -2.703125 -0.625q-1.875 0 -3.015625 1.109375q-1.140625 1.109375 -1.140625 2.796875q0 1.5625 1.09375 2.46875q1.09375 0.90625 3.625 0.90625q1.671875 0 2.71875 -0.34375q0.625 -0.203125 1.1875 -0.703125q0.5625 -0.515625 1.015625 -0.515625q0.546875 0 0.9375 0.40625q0.40625 0.40625 0.40625 0.953125q0 0.890625 -1.21875 1.6875q-1.796875 1.171875 -5.25 1.171875q-3.109375 0 -4.84375 -1.28125q-2.34375 -1.734375 -2.34375 -4.734375q0 -2.859375 1.890625 -4.71875q1.90625 -1.875 4.96875 -1.875q1.109375 0 2.046875 0.21875q0.953125 0.203125 1.765625 0.609375zm18.761963 5.65625q0 1.53125 -0.859375 2.96875q-0.84375 1.4375 -2.53125 2.296875q-1.671875 0.84375 -3.515625 0.84375q-1.8125 0 -3.484375 -0.828125q-1.6718445 -0.84375 -2.5468445 -2.28125q-0.859375 -1.453125 -0.859375 -3.03125q0 -1.59375 0.875 -3.140625q0.890625 -1.546875 2.5468445 -2.421875q1.65625 -0.890625 3.46875 -0.890625q1.828125 0 3.515625 0.90625q1.6875 0.90625 2.53125 2.4375q0.859375 1.53125 0.859375 3.140625zm-2.65625 0.015625q0 -1.296875 -0.921875 -2.375q-1.265625 -1.453125 -3.328125 -1.453125q-1.8125 0 -3.03125 1.15625q-1.203125 1.15625 -1.203125 2.6875q0 1.25 1.21875 2.34375q1.234375 1.078125 3.015625 1.078125q1.796875 0 3.015625 -1.078125q1.234375 -1.09375 1.234375 -2.359375zm7.6057434 -6.140625l0 0.75q0.65625 -0.640625 1.171875 -0.875q0.53125 -0.25 1.234375 -0.25q0.578125 0 1.140625 0.296875q0.578125 0.28125 1.125 0.859375q0.6875 -0.578125 1.390625 -0.859375q0.71875 -0.28125 1.46875 -0.28125q1.484375 0 2.40625 0.796875q1.21875 1.046875 1.21875 2.734375l0 5.96875q0.828125 0 1.234375 0.390625q0.40625 0.375 0.40625 0.953125q0 0.59375 -0.40625 0.96875q-0.40625 0.359375 -1.359375 0.359375l-2.546875 0l0 -8.421875q0 -0.609375 -0.21875 -0.84375q-0.21875 -0.234375 -0.671875 -0.234375q-0.4375 0 -0.828125 0.234375q-0.46875 0.328125 -1.171875 1.21875l0 5.375q0.84375 0 1.234375 0.390625q0.40625 0.375 0.40625 0.953125q0 0.59375 -0.40625 0.96875q-0.390625 0.359375 -1.359375 0.359375l-2.53125 0l0 -8.421875q0 -0.59375 -0.234375 -0.828125q-0.21875 -0.25 -0.6875 -0.25q-0.46875 0 -0.921875 0.296875q-0.453125 0.28125 -1.09375 1.15625l0 5.375q0.84375 0 1.25 0.390625q0.40625 0.375 0.40625 0.953125q0 0.59375 -0.40625 0.96875q-0.40625 0.359375 -1.375 0.359375l-2.40625 0q-0.96875 0 -1.375 -0.359375q-0.40625 -0.375 -0.40625 -0.984375q0 -0.578125 0.40625 -0.953125q0.390625 -0.375 1.234375 -0.375l0 -6.484375q-0.84375 0 -1.234375 -0.375q-0.40625 -0.375 -0.40625 -0.953125q0 -0.59375 0.40625 -0.953125q0.40625 -0.375 1.375 -0.375l2.53125 0zm15.996338 0l0 0.75q0.65625 -0.640625 1.171875 -0.875q0.53125 -0.25 1.234375 -0.25q0.578125 0 1.140625 0.296875q0.578125 0.28125 1.125 0.859375q0.6875 -0.578125 1.390625 -0.859375q0.71875 -0.28125 1.46875 -0.28125q1.484375 0 2.40625 0.796875q1.21875 1.046875 1.21875 2.734375l0 5.96875q0.828125 0 1.234375 0.390625q0.40625 0.375 0.40625 0.953125q0 0.59375 -0.40625 0.96875q-0.40625 0.359375 -1.359375 0.359375l-2.546875 0l0 -8.421875q0 -0.609375 -0.21875 -0.84375q-0.21875 -0.234375 -0.671875 -0.234375q-0.4375 0 -0.828125 0.234375q-0.46875 0.328125 -1.171875 1.21875l0 5.375q0.84375 0 1.234375 0.390625q0.40625 0.375 0.40625 0.953125q0 0.59375 -0.40625 0.96875q-0.390625 0.359375 -1.359375 0.359375l-2.53125 0l0 -8.421875q0 -0.59375 -0.234375 -0.828125q-0.21875 -0.25 -0.6875 -0.25q-0.46875 0 -0.921875 0.296875q-0.453125 0.28125 -1.09375 1.15625l0 5.375q0.84375 0 1.25 0.390625q0.40625 0.375 0.40625 0.953125q0 0.59375 -0.40625 0.96875q-0.40625 0.359375 -1.375 0.359375l-2.40625 0q-0.96875 0 -1.375 -0.359375q-0.40625 -0.375 -0.40625 -0.984375q0 -0.578125 0.40625 -0.953125q0.390625 -0.375 1.234375 -0.375l0 -6.484375q-0.84375 0 -1.234375 -0.375q-0.40625 -0.375 -0.40625 -0.953125q0 -0.59375 0.40625 -0.953125q0.40625 -0.375 1.375 -0.375l2.53125 0zm26.808838 7.25l-10.9375 0q0.421875 1.046875 1.46875 1.6875q1.0625 0.640625 2.875 0.640625q1.484375 0 3.953125 -0.640625q1.015625 -0.265625 1.390625 -0.265625q0.546875 0 0.90625 0.390625q0.359375 0.375 0.359375 0.9375q0 0.53125 -0.390625 0.890625q-0.515625 0.484375 -2.53125 0.921875q-2.015625 0.421875 -3.875 0.421875q-3.203125 0 -5.125 -1.796875q-1.921875 -1.8125 -1.921875 -4.453125q0 -2.8125 2.078125 -4.578125q2.078125 -1.765625 4.78125 -1.765625q1.625 0 2.984375 0.578125q1.359375 0.5625 2.03125 1.234375q0.9375 0.96875 1.546875 2.375q0.40625 1.0 0.40625 2.296875l0 1.125zm-2.953125 -2.65625q-0.609375 -1.15625 -1.59375 -1.71875q-0.984375 -0.5625 -2.359375 -0.5625q-1.34375 0 -2.34375 0.5625q-0.984375 0.5625 -1.609375 1.71875l7.90625 0zm9.558838 -4.59375l0 0.890625q0.734375 -0.625 1.609375 -0.9375q0.875 -0.3125 1.90625 -0.3125q2.375 0 3.75 1.46875q1.09375 1.171875 1.09375 3.078125l0 4.953125q0.84375 0 1.25 0.375q0.40625 0.375 0.40625 0.96875q0 0.59375 -0.421875 0.96875q-0.40625 0.359375 -1.375 0.359375l-2.40625 0q-0.953125 0 -1.375 -0.359375q-0.40625 -0.375 -0.40625 -0.984375q0 -0.578125 0.40625 -0.953125q0.40625 -0.375 1.25 -0.375l0 -5.03125q0 -0.875 -0.46875 -1.28125q-0.609375 -0.515625 -1.828125 -0.515625q-0.9375 0 -1.640625 0.359375q-0.6875 0.359375 -1.75 1.515625l0 4.953125q1.03125 0 1.328125 0.203125q0.640625 0.390625 0.640625 1.140625q0 0.59375 -0.421875 0.96875q-0.40625 0.359375 -1.359375 0.359375l-3.03125 0q-0.96875 0 -1.390625 -0.359375q-0.40625 -0.375 -0.40625 -0.984375q0 -0.71875 0.625 -1.125q0.3125 -0.203125 1.34375 -0.203125l0 -6.484375q-0.84375 0 -1.25 -0.375q-0.40625 -0.375 -0.40625 -0.953125q0 -0.59375 0.40625 -0.953125q0.421875 -0.375 1.390625 -0.375l2.53125 0zm18.043213 2.65625l0 5.359375q0 0.859375 0.34375 1.125q0.546875 0.4375 1.953125 0.4375q2.046875 0 3.78125 -0.875q0.65625 -0.34375 1.03125 -0.34375q0.53125 0 0.90625 0.390625q0.390625 0.390625 0.390625 0.953125q0 0.515625 -0.421875 0.90625q-0.640625 0.609375 -2.515625 1.125q-1.875 0.5 -3.171875 0.5q-2.484375 0 -3.734375 -1.0625q-1.234375 -1.078125 -1.234375 -2.640625l0 -5.875l-0.96875 0q-0.953125 0 -1.375 -0.359375q-0.40625 -0.375 -0.40625 -0.96875q0 -0.59375 0.40625 -0.953125q0.421875 -0.375 1.375 -0.375l0.96875 0l0 -2.40625q0 -0.96875 0.375 -1.375q0.375 -0.421875 0.96875 -0.421875q0.578125 0 0.953125 0.421875q0.375 0.40625 0.375 1.375l0 2.40625l4.9375 0q0.953125 0 1.359375 0.375q0.421875 0.359375 0.421875 0.953125q0 0.59375 -0.421875 0.96875q-0.40625 0.359375 -1.359375 0.359375l-4.9375 0zm38.242676 2.796875l-11.140625 0l0 -2.421875l11.140625 0l0 2.421875zm15.996338 0l-11.140625 0l0 -2.421875l11.140625 0l0 2.421875zm13.215088 -1.234375l-8.640625 -4.796875q-0.65625 -0.359375 -0.875 -0.640625q-0.203125 -0.296875 -0.203125 -0.734375q0 -0.5625 0.40625 -0.96875q0.40625 -0.40625 0.953125 -0.40625q0.328125 0 1.03125 0.375l12.875 7.171875l-12.875 7.15625q-0.703125 0.390625 -1.03125 0.390625q-0.546875 0 -0.953125 -0.40625q-0.40625 -0.40625 -0.40625 -0.984375q0 -0.4375 0.203125 -0.71875q0.21875 -0.296875 0.875 -0.65625l8.640625 -4.78125zm15.590088 7.59375l0 -0.625q-1.015625 0.53125 -2.234375 0.796875q-1.203125 0.265625 -2.1875 0.265625q-2.140625 0 -3.484375 -1.125q-1.34375 -1.140625 -1.34375 -2.53125q0 -1.671875 1.703125 -3.109375q1.71875 -1.4375 4.734375 -1.4375q1.21875 0 2.8125 0.25l0 -0.625q0 -0.609375 -0.515625 -0.984375q-0.515625 -0.375 -1.96875 -0.375q-1.1875 0 -3.0625 0.46875q-0.703125 0.171875 -1.09375 0.171875q-0.53125 0 -0.90625 -0.375q-0.375 -0.390625 -0.375 -1.0q0 -0.328125 0.125 -0.578125q0.140625 -0.25 0.375 -0.390625q0.234375 -0.15625 0.96875 -0.375q1.0 -0.265625 2.015625 -0.421875q1.03125 -0.171875 1.859375 -0.171875q2.5 0 3.859375 1.078125q1.375 1.078125 1.375 2.9375l0 5.484375l0.453125 0q0.96875 0 1.375 0.375q0.421875 0.375 0.421875 0.96875q0 0.59375 -0.421875 0.96875q-0.40625 0.359375 -1.375 0.359375l-3.109375 0zm0 -4.78125q-1.609375 -0.3125 -2.96875 -0.3125q-1.625 0 -2.796875 0.796875q-0.71875 0.515625 -0.71875 1.03125q0 0.375 0.34375 0.609375q0.65625 0.4375 1.78125 0.4375q0.96875 0 2.1875 -0.375q1.21875 -0.390625 2.171875 -1.03125l0 -1.15625zm10.230713 -12.09375l0 5.984375q0.96875 -0.640625 1.96875 -0.953125q1.015625 -0.328125 2.046875 -0.328125q2.765625 0 4.6875 1.921875q1.9375 1.90625 1.9375 4.609375q0 2.59375 -1.84375 4.328125q-1.828125 1.734375 -4.828125 1.734375q-1.078125 0 -2.0625 -0.265625q-0.984375 -0.265625 -1.90625 -0.8125l0 0.65625l-3.125 0q-0.96875 0 -1.375 -0.359375q-0.40625 -0.375 -0.40625 -0.984375q0 -0.578125 0.40625 -0.953125q0.421875 -0.375 1.375 -0.375l0.453125 0l0 -11.546875l-0.453125 0q-0.96875 0 -1.375 -0.359375q-0.40625 -0.375 -0.40625 -0.96875q0 -0.59375 0.40625 -0.953125q0.40625 -0.375 1.375 -0.375l3.125 0zm7.96875 11.3125q0 -1.640625 -1.15625 -2.78125q-1.15625 -1.15625 -2.84375 -1.15625q-1.65625 0 -2.8125 1.15625q-1.15625 1.140625 -1.15625 2.75q0 1.46875 1.03125 2.421875q1.046875 0.9375 2.9375 0.9375q1.90625 0 2.953125 -0.9375q1.046875 -0.953125 1.046875 -2.390625zm15.543213 -5.78125q0.484375 -0.453125 0.984375 -0.453125q0.578125 0 0.9375 0.421875q0.375 0.40625 0.375 1.359375l0 1.71875q0 0.953125 -0.375 1.359375q-0.359375 0.40625 -0.953125 0.40625q-0.546875 0 -0.921875 -0.3125q-0.28125 -0.234375 -0.4375 -0.953125q-0.15625 -0.734375 -0.75 -1.078125q-1.0625 -0.625 -2.703125 -0.625q-1.875 0 -3.015625 1.109375q-1.140625 1.109375 -1.140625 2.796875q0 1.5625 1.09375 2.46875q1.09375 0.90625 3.625 0.90625q1.671875 0 2.71875 -0.34375q0.625 -0.203125 1.1875 -0.703125q0.5625 -0.515625 1.015625 -0.515625q0.546875 0 0.9375 0.40625q0.40625 0.40625 0.40625 0.953125q0 0.890625 -1.21875 1.6875q-1.796875 1.171875 -5.25 1.171875q-3.109375 0 -4.84375 -1.28125q-2.34375 -1.734375 -2.34375 -4.734375q0 -2.859375 1.890625 -4.71875q1.90625 -1.875 4.96875 -1.875q1.109375 0 2.046875 0.21875q0.953125 0.203125 1.765625 0.609375zm9.043213 3.75l8.640625 4.78125q0.65625 0.359375 0.859375 0.65625q0.21875 0.28125 0.21875 0.71875q0 0.5625 -0.40625 0.984375q-0.390625 0.40625 -0.921875 0.40625q-0.359375 0 -1.0625 -0.390625l-12.875 -7.15625l12.875 -7.171875q0.703125 -0.375 1.046875 -0.375q0.546875 0 0.9375 0.40625q0.40625 0.40625 0.40625 0.96875q0 0.4375 -0.21875 0.734375q-0.203125 0.28125 -0.859375 0.640625l-8.640625 4.796875zm24.293243 -8.9375l-8.546875 18.4375q-0.328125 0.6875 -0.59375 0.890625q-0.34378052 0.28125 -0.8125305 0.28125q-0.546875 0 -0.953125 -0.390625q-0.390625 -0.390625 -0.390625 -0.890625q0 -0.359375 0.3125 -1.03125l8.5781555 -18.421875q0.328125 -0.6875 0.5625 -0.890625q0.359375 -0.28125 0.828125 -0.28125q0.546875 0 0.9375 0.390625q0.390625 0.390625 0.390625 0.875q0 0.359375 -0.3125 1.03125zm7.183838 15.0625l0 4.375l1.59375 0q0.96875 0 1.375 0.359375q0.40625 0.375 0.40625 0.984375q0 0.578125 -0.40625 0.9531288q-0.40625 0.375 -1.375 0.375l-4.71875 0q-0.96875 0 -1.375 -0.375q-0.40625 -0.3750038 -0.40625 -0.9531288q0 -0.609375 0.40625 -0.984375q0.421875 -0.359375 1.375 -0.359375l0.453125 0l0 -12.0625l-0.453125 0q-0.96875 0 -1.375 -0.359375q-0.40625 -0.375 -0.40625 -0.96875q0 -0.59375 0.40625 -0.953125q0.40625 -0.375 1.375 -0.375l3.125 0l0 0.90625q0.9375 -0.640625 1.9375 -0.953125q1.0 -0.3125 2.0625 -0.3125q2.734375 0 4.65625 1.859375q1.921875 1.859375 1.921875 4.25q0 2.640625 -2.28125 4.359375q-1.890625 1.4375 -4.28125 1.4375q-1.03125 0 -2.03125 -0.296875q-1.0 -0.3125 -1.984375 -0.90625zm7.90625 -4.578125q0 -0.5625 -0.4375 -1.421875q-0.4375 -0.875 -1.359375 -1.453125q-0.921875 -0.578125 -2.15625 -0.578125q-1.984375 0 -3.15625 1.5q-0.796875 1.03125 -0.796875 1.96875q0 1.078125 1.140625 2.09375q1.140625 1.0 2.8125 1.0q1.6875 0 2.8125 -1.0q1.140625 -1.015625 1.140625 -2.109375zm14.215027 -1.546875l-8.640564 -4.796875q-0.65625 -0.359375 -0.875 -0.640625q-0.203125 -0.296875 -0.203125 -0.734375q0 -0.5625 0.40625 -0.96875q0.40625 -0.40625 0.953125 -0.40625q0.328125 0 1.031189 0.375l12.875 7.171875l-12.875 7.15625q-0.70306396 0.390625 -1.031189 0.390625q-0.546875 0 -0.953125 -0.40625q-0.40625 -0.40625 -0.40625 -0.984375q0 -0.4375 0.203125 -0.71875q0.21875 -0.296875 0.875 -0.65625l8.640564 -4.78125zm10.136963 -10.0625l8.5625 18.359375q0.0625 0.140625 0.21875 0.65625q0.078125 0.3125 0.078125 0.46875q0 0.46875 -0.375 0.8125q-0.375 0.359375 -0.921875 0.359375q-0.5 0 -0.796875 -0.234375q-0.296875 -0.234375 -0.625 -0.921875l-8.5625 -18.359375q-0.3125 -0.6875 -0.3125 -1.03125q0 -0.5 0.390625 -0.890625q0.390625 -0.390625 0.9375 -0.390625q0.46875 0 0.765625 0.234375q0.3125 0.234375 0.640625 0.9375zm16.340088 5.84375l0 0.890625q0.734375 -0.625 1.609375 -0.9375q0.875 -0.3125 1.90625 -0.3125q2.375 0 3.75 1.46875q1.09375 1.171875 1.09375 3.078125l0 4.953125q0.84375 0 1.25 0.375q0.40625 0.375 0.40625 0.96875q0 0.59375 -0.421875 0.96875q-0.40625 0.359375 -1.375 0.359375l-2.40625 0q-0.953125 0 -1.375 -0.359375q-0.40625 -0.375 -0.40625 -0.984375q0 -0.578125 0.40625 -0.953125q0.40625 -0.375 1.25 -0.375l0 -5.03125q0 -0.875 -0.46875 -1.28125q-0.609375 -0.515625 -1.828125 -0.515625q-0.9375 0 -1.640625 0.359375q-0.6875 0.359375 -1.75 1.515625l0 4.953125q1.03125 0 1.328125 0.203125q0.640625 0.390625 0.640625 1.140625q0 0.59375 -0.421875 0.96875q-0.40625 0.359375 -1.359375 0.359375l-3.03125 0q-0.96875 0 -1.390625 -0.359375q-0.40625 -0.375 -0.40625 -0.984375q0 -0.71875 0.625 -1.125q0.3125 -0.203125 1.34375 -0.203125l0 -6.484375q-0.84375 0 -1.25 -0.375q-0.40625 -0.375 -0.40625 -0.953125q0 -0.59375 0.40625 -0.953125q0.421875 -0.375 1.390625 -0.375l2.53125 0zm19.230713 5.34375q0.46875 0.53125 0.640625 1.03125q0.171875 0.5 0.171875 1.625l0 4.234375q0 0.546875 0.203125 0.765625q0.203125 0.234375 0.75 0.28125q0.546875 0.046875 0.890625 0.421875q0.359375 0.375 0.359375 0.921875q0 0.578125 -0.40625 0.96875q-0.390625 0.390625 -1.0 0.390625q-0.875 0 -1.6875 -0.46875q-0.796875 -0.46875 -1.40625 -1.5q-0.375 -0.6875 -0.375 -1.578125l0 -4.703125q0 -0.5625 -0.1875 -0.765625q-0.171875 -0.203125 -0.78125 -0.265625q-0.59375 -0.078125 -0.90625 -0.421875q-0.3125 -0.359375 -0.3125 -0.9375q0 -0.578125 0.3125 -0.921875q0.3125 -0.359375 0.921875 -0.4375q0.609375 -0.078125 0.734375 -0.234375q0.21875 -0.265625 0.21875 -0.8125l0 -4.453125q0 -1.4375 1.046875 -2.484375q1.046875 -1.046875 2.40625 -1.046875q0.625 0 1.015625 0.390625q0.40625 0.390625 0.40625 0.96875q0 0.53125 -0.359375 0.90625q-0.34375 0.375 -0.90625 0.4375q-0.5625 0.046875 -0.703125 0.234375q-0.234375 0.265625 -0.234375 0.796875l0 4.25q0 0.890625 -0.171875 1.390625q-0.171875 0.484375 -0.640625 1.015625zm15.996338 0q0.46875 0.53125 0.640625 1.03125q0.171875 0.5 0.171875 1.625l0 4.234375q0 0.546875 0.203125 0.765625q0.203125 0.234375 0.75 0.28125q0.546875 0.046875 0.890625 0.421875q0.359375 0.375 0.359375 0.921875q0 0.578125 -0.40625 0.96875q-0.390625 0.390625 -1.0 0.390625q-0.875 0 -1.6875 -0.46875q-0.796875 -0.46875 -1.40625 -1.5q-0.375 -0.6875 -0.375 -1.578125l0 -4.703125q0 -0.5625 -0.1875 -0.765625q-0.171875 -0.203125 -0.78125 -0.265625q-0.59375 -0.078125 -0.90625 -0.421875q-0.3125 -0.359375 -0.3125 -0.9375q0 -0.578125 0.3125 -0.921875q0.3125 -0.359375 0.921875 -0.4375q0.609375 -0.078125 0.734375 -0.234375q0.21875 -0.265625 0.21875 -0.8125l0 -4.453125q0 -1.4375 1.046875 -2.484375q1.046875 -1.046875 2.40625 -1.046875q0.625 0 1.015625 0.390625q0.40625 0.390625 0.40625 0.96875q0 0.53125 -0.359375 0.90625q-0.34375 0.375 -0.90625 0.4375q-0.5625 0.046875 -0.703125 0.234375q-0.234375 0.265625 -0.234375 0.796875l0 4.25q0 0.890625 -0.171875 1.390625q-0.171875 0.484375 -0.640625 1.015625zm33.492676 5.125q0 0.765625 -0.53125 1.265625q-0.53125 0.5 -1.46875 0.5q-0.9375 0 -1.46875 -0.5q-0.53125 -0.5 -0.53125 -1.265625q0 -0.75 0.53125 -1.25q0.53125 -0.515625 1.46875 -0.515625q0.9375 0 1.46875 0.515625q0.53125 0.5 0.53125 1.25zm18.152588 -13.75q0.25 -0.34375 0.53125 -0.515625q0.296875 -0.171875 0.640625 -0.171875q0.578125 0 0.953125 0.40625q0.375 0.40625 0.375 1.375l0 2.265625q0 0.953125 -0.375 1.375q-0.375 0.40625 -0.953125 0.40625q-0.53125 0 -0.859375 -0.296875q-0.328125 -0.3125 -0.484375 -1.125q-0.09375 -0.546875 -0.359375 -0.84375q-0.546875 -0.59375 -1.5 -0.9375q-0.953125 -0.359375 -1.921875 -0.359375q-1.1875 0 -2.203125 0.53125q-1.0 0.515625 -1.765625 1.6875q-0.765625 1.171875 -0.765625 2.78125l0 1.734375q0 1.921875 1.390625 3.21875q1.40625 1.28125 3.890625 1.28125q1.484375 0 2.515625 -0.40625q0.59375 -0.234375 1.28125 -0.921875q0.40625 -0.40625 0.640625 -0.53125q0.234375 -0.125 0.53125 -0.125q0.546875 0 0.9375 0.40625q0.40625 0.390625 0.40625 0.9375q0 0.546875 -0.546875 1.171875q-0.796875 0.921875 -2.03125 1.4375q-1.6875 0.703125 -3.71875 0.703125q-2.359375 0 -4.265625 -0.96875q-1.53125 -0.78125 -2.625 -2.46875q-1.078125 -1.6875 -1.078125 -3.6875l0 -1.796875q0 -2.09375 0.96875 -3.890625q0.96875 -1.796875 2.6875 -2.765625q1.71875 -0.984375 3.65625 -0.984375q1.15625 0 2.15625 0.265625q1.015625 0.265625 1.890625 0.8125zm18.730713 9.40625q0 1.53125 -0.859375 2.96875q-0.84375 1.4375 -2.53125 2.296875q-1.671875 0.84375 -3.515625 0.84375q-1.8125 0 -3.484375 -0.828125q-1.671875 -0.84375 -2.546875 -2.28125q-0.859375 -1.453125 -0.859375 -3.03125q0 -1.59375 0.875 -3.140625q0.890625 -1.546875 2.546875 -2.421875q1.65625 -0.890625 3.46875 -0.890625q1.828125 0 3.515625 0.90625q1.6875 0.90625 2.53125 2.4375q0.859375 1.53125 0.859375 3.140625zm-2.65625 0.015625q0 -1.296875 -0.921875 -2.375q-1.265625 -1.453125 -3.328125 -1.453125q-1.8125 0 -3.03125 1.15625q-1.203125 1.15625 -1.203125 2.6875q0 1.25 1.21875 2.34375q1.234375 1.078125 3.015625 1.078125q1.796875 0 3.015625 -1.078125q1.234375 -1.09375 1.234375 -2.359375zm9.027588 -6.140625l0 0.890625q0.734375 -0.625 1.609375 -0.9375q0.875 -0.3125 1.90625 -0.3125q2.375 0 3.75 1.46875q1.09375 1.171875 1.09375 3.078125l0 4.953125q0.84375 0 1.25 0.375q0.40625 0.375 0.40625 0.96875q0 0.59375 -0.421875 0.96875q-0.40625 0.359375 -1.375 0.359375l-2.40625 0q-0.953125 0 -1.375 -0.359375q-0.40625 -0.375 -0.40625 -0.984375q0 -0.578125 0.40625 -0.953125q0.40625 -0.375 1.25 -0.375l0 -5.03125q0 -0.875 -0.46875 -1.28125q-0.609375 -0.515625 -1.828125 -0.515625q-0.9375 0 -1.640625 0.359375q-0.6875 0.359375 -1.75 1.515625l0 4.953125q1.03125 0 1.328125 0.203125q0.640625 0.390625 0.640625 1.140625q0 0.59375 -0.421875 0.96875q-0.40625 0.359375 -1.359375 0.359375l-3.03125 0q-0.96875 0 -1.390625 -0.359375q-0.40625 -0.375 -0.40625 -0.984375q0 -0.71875 0.625 -1.125q0.3125 -0.203125 1.34375 -0.203125l0 -6.484375q-0.84375 0 -1.25 -0.375q-0.40625 -0.375 -0.40625 -0.953125q0 -0.59375 0.40625 -0.953125q0.421875 -0.375 1.390625 -0.375l2.53125 0zm18.043213 2.65625l0 5.359375q0 0.859375 0.34375 1.125q0.546875 0.4375 1.953125 0.4375q2.046875 0 3.78125 -0.875q0.65625 -0.34375 1.03125 -0.34375q0.53125 0 0.90625 0.390625q0.390625 0.390625 0.390625 0.953125q0 0.515625 -0.421875 0.90625q-0.640625 0.609375 -2.515625 1.125q-1.875 0.5 -3.171875 0.5q-2.484375 0 -3.734375 -1.0625q-1.234375 -1.078125 -1.234375 -2.640625l0 -5.875l-0.96875 0q-0.953125 0 -1.375 -0.359375q-0.40625 -0.375 -0.40625 -0.96875q0 -0.59375 0.40625 -0.953125q0.421875 -0.375 1.375 -0.375l0.96875 0l0 -2.40625q0 -0.96875 0.375 -1.375q0.375 -0.421875 0.96875 -0.421875q0.578125 0 0.953125 0.421875q0.375 0.40625 0.375 1.375l0 2.40625l4.9375 0q0.953125 0 1.359375 0.375q0.421875 0.359375 0.421875 0.953125q0 0.59375 -0.421875 0.96875q-0.40625 0.359375 -1.359375 0.359375l-4.9375 0zm23.340088 4.59375l-10.9375 0q0.421875 1.046875 1.46875 1.6875q1.0625 0.640625 2.875 0.640625q1.484375 0 3.953125 -0.640625q1.015625 -0.265625 1.390625 -0.265625q0.546875 0 0.90625 0.390625q0.359375 0.375 0.359375 0.9375q0 0.53125 -0.390625 0.890625q-0.515625 0.484375 -2.53125 0.921875q-2.015625 0.421875 -3.875 0.421875q-3.203125 0 -5.125 -1.796875q-1.921875 -1.8125 -1.921875 -4.453125q0 -2.8125 2.078125 -4.578125q2.078125 -1.765625 4.78125 -1.765625q1.625 0 2.984375 0.578125q1.359375 0.5625 2.03125 1.234375q0.9375 0.96875 1.546875 2.375q0.40625 1.0 0.40625 2.296875l0 1.125zm-2.953125 -2.65625q-0.609375 -1.15625 -1.59375 -1.71875q-0.984375 -0.5625 -2.359375 -0.5625q-1.34375 0 -2.34375 0.5625q-0.984375 0.5625 -1.609375 1.71875l7.90625 0z" fill-rule="nonzero"/><path fill="#010000" fill-opacity="0.0" d="m731.66064 22.720486l79.98175 0l0 30.196537l-79.98175 0l0 -30.196537z" fill-rule="nonzero"/><path fill="#6a8759" d="m736.9575 33.099834l0 0.890625q0.734375 -0.625 1.609375 -0.9375q0.875 -0.3125 1.90625 -0.3125q2.375 0 3.75 1.46875q1.09375 1.171875 1.09375 3.078125l0 4.953125q0.84375 0 1.25 0.375q0.40625 0.375 0.40625 0.96875q0 0.59375 -0.421875 0.96875q-0.40625 0.359375 -1.375 0.359375l-2.40625 0q-0.953125 0 -1.375 -0.359375q-0.40625 -0.375 -0.40625 -0.984375q0 -0.578125 0.40625 -0.953125q0.40625 -0.375 1.25 -0.375l0 -5.03125q0 -0.875 -0.46875 -1.28125q-0.609375 -0.515625 -1.828125 -0.515625q-0.9375 0 -1.640625 0.359375q-0.6875 0.359375 -1.75 1.515625l0 4.953125q1.03125 0 1.328125 0.203125q0.640625 0.390625 0.640625 1.140625q0 0.59375 -0.421875 0.96875q-0.40625 0.359375 -1.359375 0.359375l-3.03125 0q-0.96875 0 -1.390625 -0.359375q-0.40625 -0.375 -0.40625 -0.984375q0 -0.71875 0.625 -1.125q0.3125 -0.203125 1.34375 -0.203125l0 -6.484375q-0.84375 0 -1.25 -0.375q-0.40625 -0.375 -0.40625 -0.953125q0 -0.59375 0.40625 -0.953125q0.421875 -0.375 1.390625 -0.375l2.53125 0zm18.043213 2.65625l0 5.359375q0 0.859375 0.34375 1.125q0.546875 0.4375 1.953125 0.4375q2.046875 0 3.78125 -0.875q0.65625 -0.34375 1.03125 -0.34375q0.53125 0 0.90625 0.390625q0.390625 0.390625 0.390625 0.953125q0 0.515625 -0.421875 0.90625q-0.640625 0.609375 -2.515625 1.125q-1.875 0.5 -3.171875 0.5q-2.484375 0 -3.734375 -1.0625q-1.234375 -1.078125 -1.234375 -2.640625l0 -5.875l-0.96875 0q-0.953125 0 -1.375 -0.359375q-0.40625 -0.375 -0.40625 -0.96875q0 -0.59375 0.40625 -0.953125q0.421875 -0.375 1.375 -0.375l0.96875 0l0 -2.40625q0 -0.96875 0.375 -1.375q0.375 -0.421875 0.96875 -0.421875q0.578125 0 0.953125 0.421875q0.375 0.40625 0.375 1.375l0 2.40625l4.9375 0q0.953125 0 1.359375 0.375q0.421875 0.359375 0.421875 0.953125q0 0.59375 -0.421875 0.96875q-0.40625 0.359375 -1.359375 0.359375l-4.9375 0zm32.03961 2.6875q-0.453125 -0.53125 -0.625 -1.03125q-0.171875 -0.5 -0.171875 -1.375l0 -4.25q0 -0.53125 -0.203125 -0.75q-0.203125 -0.234375 -0.75 -0.28125q-0.546875 -0.0625 -0.90625 -0.4375q-0.34375 -0.375 -0.34375 -0.90625q0 -0.578125 0.390625 -0.96875q0.40625 -0.390625 1.015625 -0.390625q0.875 0 1.671875 0.46875q0.8125 0.453125 1.40625 1.5q0.375 0.671875 0.375 1.5625l0 4.453125q0 0.5625 0.1875 0.78125q0.1875 0.203125 0.78125 0.28125q0.59375 0.0625 0.90625 0.421875q0.328125 0.34375 0.328125 0.921875q0 0.578125 -0.328125 0.9375q-0.3125 0.34375 -0.921875 0.421875q-0.59375 0.0625 -0.734375 0.234375q-0.21875 0.25 -0.21875 0.796875l0 4.703125q0 1.4375 -1.046875 2.484375q-1.03125 1.0625 -2.390625 1.0625q-0.625 0 -1.03125 -0.390625q-0.390625 -0.390625 -0.390625 -0.96875q0 -0.53125 0.34375 -0.921875q0.359375 -0.375 0.90625 -0.421875q0.5625 -0.046875 0.71875 -0.234375q0.234375 -0.265625 0.234375 -0.8125l0 -4.234375q0 -1.125 0.15625 -1.609375q0.15625 -0.5 0.640625 -1.046875zm15.996338 0q-0.453125 -0.53125 -0.625 -1.03125q-0.171875 -0.5 -0.171875 -1.375l0 -4.25q0 -0.53125 -0.203125 -0.75q-0.203125 -0.234375 -0.75 -0.28125q-0.546875 -0.0625 -0.90625 -0.4375q-0.34375 -0.375 -0.34375 -0.90625q0 -0.578125 0.390625 -0.96875q0.40625 -0.390625 1.015625 -0.390625q0.875 0 1.671875 0.46875q0.8125 0.453125 1.40625 1.5q0.375 0.671875 0.375 1.5625l0 4.453125q0 0.5625 0.1875 0.78125q0.1875 0.203125 0.78125 0.28125q0.59375 0.0625 0.90625 0.421875q0.328125 0.34375 0.328125 0.921875q0 0.578125 -0.328125 0.9375q-0.3125 0.34375 -0.921875 0.421875q-0.59375 0.0625 -0.734375 0.234375q-0.21875 0.25 -0.21875 0.796875l0 4.703125q0 1.4375 -1.046875 2.484375q-1.03125 1.0625 -2.390625 1.0625q-0.625 0 -1.03125 -0.390625q-0.390625 -0.390625 -0.390625 -0.96875q0 -0.53125 0.34375 -0.921875q0.359375 -0.375 0.90625 -0.421875q0.5625 -0.046875 0.71875 -0.234375q0.234375 -0.265625 0.234375 -0.8125l0 -4.234375q0 -1.125 0.15625 -1.609375q0.15625 -0.5 0.640625 -1.046875z" fill-rule="nonzero"/><path fill="#000000" fill-opacity="0.0" d="m811.64246 22.720486l15.996338 0l0 30.196537l-15.996338 0l0 -30.196537z" fill-rule="nonzero"/><path fill="#6a8759" d="m818.7206 27.474834l2.9375 2.375q0.53125 0.421875 0.53125 0.84375q0 0.359375 -0.265625 0.609375q-0.25 0.25 -0.609375 0.25q-0.296875 0 -0.75 -0.359375l-2.9375 -2.375q-0.515625 -0.421875 -0.515625 -0.84375q0 -0.359375 0.25 -0.609375q0.25 -0.25 0.625 -0.25q0.296875 0 0.734375 0.359375z" fill-rule="nonzero"/><path fill="#000000" fill-opacity="0.0" d="m827.6388 22.720486l0 0l0 30.196537l0 0l0 -30.196537z" fill-rule="nonzero"/><path fill="#cfe2f3" d="m193.1063 120.301834l86.26773 0l0 42.48819l-86.26773 0z" fill-rule="evenodd"/><path stroke="#000000" stroke-width="1.0" stroke-linejoin="round" stroke-linecap="butt" d="m193.1063 120.301834l86.26773 0l0 42.48819l-86.26773 0z" fill-rule="evenodd"/><path fill="#000000" d="m225.72453 147.40593l0 -10.109375l-3.78125 0l0 -1.34375l9.078125 0l0 1.34375l-3.78125 0l0 10.109375l-1.515625 0zm10.578125 -2.671875l1.453125 0.171875q-0.34375 1.28125 -1.28125 1.984375q-0.921875 0.703125 -2.359375 0.703125q-1.828125 0 -2.890625 -1.125q-1.0625 -1.125 -1.0625 -3.140625q0 -2.09375 1.078125 -3.25q1.078125 -1.15625 2.796875 -1.15625q1.65625 0 2.703125 1.140625q1.0625 1.125 1.0625 3.171875q0 0.125 0 0.375l-6.1875 0q0.078125 1.375 0.765625 2.109375q0.703125 0.71875 1.734375 0.71875q0.78125 0 1.328125 -0.40625q0.546875 -0.40625 0.859375 -1.296875zm-4.609375 -2.28125l4.625 0q-0.09375 -1.046875 -0.53125 -1.5625q-0.671875 -0.8125 -1.734375 -0.8125q-0.96875 0 -1.640625 0.65625q-0.65625 0.640625 -0.71875 1.71875zm6.8984375 4.953125l3.03125 -4.3125l-2.8125 -3.984375l1.765625 0l1.265625 1.9375q0.359375 0.5625 0.578125 0.9375q0.34375 -0.515625 0.640625 -0.921875l1.390625 -1.953125l1.6875 0l-2.875 3.90625l3.09375 4.390625l-1.734375 0l-1.703125 -2.578125l-0.453125 -0.703125l-2.171875 3.28125l-1.703125 0zm12.0 -1.265625l0.203125 1.25q-0.59375 0.125 -1.0625 0.125q-0.765625 0 -1.1875 -0.234375q-0.421875 -0.25 -0.59375 -0.640625q-0.171875 -0.40625 -0.171875 -1.671875l0 -4.765625l-1.03125 0l0 -1.09375l1.03125 0l0 -2.0625l1.40625 -0.84375l0 2.90625l1.40625 0l0 1.09375l-1.40625 0l0 4.84375q0 0.609375 0.0625 0.78125q0.078125 0.171875 0.25 0.28125q0.171875 0.09375 0.484375 0.09375q0.234375 0 0.609375 -0.0625z" fill-rule="nonzero"/><path fill="#cfe2f3" d="m286.1209 120.301834l86.26773 0l0 42.48819l-86.26773 0z" fill-rule="evenodd"/><path stroke="#000000" stroke-width="1.0" stroke-linejoin="round" stroke-linecap="butt" d="m286.1209 120.301834l86.26773 0l0 42.48819l-86.26773 0z" fill-rule="evenodd"/><path fill="#000000" d="m317.08292 137.90593l0 -11.453125l1.515625 0l0 10.09375l5.640625 0l0 1.359375l-7.15625 0zm14.4609375 -2.671875l1.453125 0.171875q-0.34375 1.28125 -1.28125 1.984375q-0.921875 0.703125 -2.359375 0.703125q-1.828125 0 -2.890625 -1.125q-1.0625 -1.125 -1.0625 -3.140625q0 -2.09375 1.078125 -3.25q1.078125 -1.15625 2.796875 -1.15625q1.65625 0 2.703125 1.140625q1.0625 1.125 1.0625 3.171875q0 0.125 0 0.375l-6.1875 0q0.078125 1.375 0.765625 2.109375q0.703125 0.71875 1.734375 0.71875q0.78125 0 1.328125 -0.40625q0.546875 -0.40625 0.859375 -1.296875zm-4.609375 -2.28125l4.625 0q-0.09375 -1.046875 -0.53125 -1.5625q-0.671875 -0.8125 -1.734375 -0.8125q-0.96875 0 -1.640625 0.65625q-0.65625 0.640625 -0.71875 1.71875zm8.1640625 4.953125l0 -7.203125l-1.234375 0l0 -1.09375l1.234375 0l0 -0.890625q0 -0.828125 0.15625 -1.234375q0.203125 -0.546875 0.703125 -0.890625q0.515625 -0.34375 1.4375 -0.34375q0.59375 0 1.3125 0.140625l-0.203125 1.234375q-0.4375 -0.078125 -0.828125 -0.078125q-0.640625 0 -0.90625 0.28125q-0.265625 0.265625 -0.265625 1.015625l0 0.765625l1.609375 0l0 1.09375l-1.609375 0l0 7.203125l-1.40625 0zm7.1796875 -1.265625l0.203125 1.25q-0.59375 0.125 -1.0625 0.125q-0.765625 0 -1.1875 -0.234375q-0.421875 -0.25 -0.59375 -0.640625q-0.171875 -0.40625 -0.171875 -1.671875l0 -4.765625l-1.03125 0l0 -1.09375l1.03125 0l0 -2.0625l1.40625 -0.84375l0 2.90625l1.40625 0l0 1.09375l-1.40625 0l0 4.84375q0 0.609375 0.0625 0.78125q0.078125 0.171875 0.25 0.28125q0.171875 0.09375 0.484375 0.09375q0.234375 0 0.609375 -0.0625z" fill-rule="nonzero"/><path fill="#000000" d="m310.04385 156.90593l0 -11.453125l3.953125 0q1.328125 0 2.03125 0.15625q0.984375 0.234375 1.6875 0.828125q0.90625 0.765625 1.34375 1.953125q0.453125 1.1875 0.453125 2.71875q0 1.3125 -0.3125 2.328125q-0.296875 1.0 -0.78125 1.65625q-0.46875 0.65625 -1.03125 1.046875q-0.5625 0.375 -1.375 0.578125q-0.796875 0.1875 -1.828125 0.1875l-4.140625 0zm1.515625 -1.359375l2.453125 0q1.125 0 1.765625 -0.203125q0.65625 -0.21875 1.03125 -0.59375q0.546875 -0.546875 0.84375 -1.453125q0.296875 -0.90625 0.296875 -2.203125q0 -1.796875 -0.59375 -2.765625q-0.578125 -0.96875 -1.421875 -1.296875q-0.609375 -0.234375 -1.96875 -0.234375l-2.40625 0l0 8.75zm15.5390625 -1.3125l1.453125 0.171875q-0.34375 1.28125 -1.28125 1.984375q-0.921875 0.703125 -2.359375 0.703125q-1.828125 0 -2.890625 -1.125q-1.0625 -1.125 -1.0625 -3.140625q0 -2.09375 1.078125 -3.25q1.078125 -1.15625 2.796875 -1.15625q1.65625 0 2.703125 1.140625q1.0625 1.125 1.0625 3.171875q0 0.125 0 0.375l-6.1875 0q0.078125 1.375 0.765625 2.109375q0.703125 0.71875 1.734375 0.71875q0.78125 0 1.328125 -0.40625q0.546875 -0.40625 0.859375 -1.296875zm-4.609375 -2.28125l4.625 0q-0.09375 -1.046875 -0.53125 -1.5625q-0.671875 -0.8125 -1.734375 -0.8125q-0.96875 0 -1.640625 0.65625q-0.65625 0.640625 -0.71875 1.71875zm7.8046875 4.953125l0 -11.453125l1.40625 0l0 11.453125l-1.40625 0zm3.5859375 -9.84375l0 -1.609375l1.40625 0l0 1.609375l-1.40625 0zm0 9.84375l0 -8.296875l1.40625 0l0 8.296875l-1.40625 0zm3.5546875 0l0 -8.296875l1.25 0l0 1.15625q0.390625 -0.609375 1.03125 -0.96875q0.65625 -0.375 1.484375 -0.375q0.921875 0 1.515625 0.390625q0.59375 0.375 0.828125 1.0625q0.984375 -1.453125 2.5625 -1.453125q1.234375 0 1.890625 0.6875q0.671875 0.671875 0.671875 2.09375l0 5.703125l-1.390625 0l0 -5.234375q0 -0.84375 -0.140625 -1.203125q-0.140625 -0.375 -0.5 -0.59375q-0.359375 -0.234375 -0.84375 -0.234375q-0.875 0 -1.453125 0.578125q-0.578125 0.578125 -0.578125 1.859375l0 4.828125l-1.40625 0l0 -5.390625q0 -0.9375 -0.34375 -1.40625q-0.34375 -0.46875 -1.125 -0.46875q-0.59375 0 -1.09375 0.3125q-0.5 0.3125 -0.734375 0.921875q-0.21875 0.59375 -0.21875 1.71875l0 4.3125l-1.40625 0z" fill-rule="nonzero"/><path fill="#cfe2f3" d="m82.18767 120.301834l88.44095 0l0 42.48819l-88.44095 0z" fill-rule="evenodd"/><path stroke="#000000" stroke-width="1.0" stroke-linejoin="round" stroke-linecap="butt" stroke-dasharray="1.0,3.0" d="m82.18767 120.301834l88.44095 0l0 42.48819l-88.44095 0z" fill-rule="evenodd"/><path fill="#000000" d="m108.35736 137.56218l0 -1.609375l1.40625 0l0 1.609375l-1.40625 0zm0 9.84375l0 -8.296875l1.40625 0l0 8.296875l-1.40625 0zm6.6171875 -1.265625l0.203125 1.25q-0.59375 0.125 -1.0625 0.125q-0.765625 0 -1.1875 -0.234375q-0.421875 -0.25 -0.59375 -0.640625q-0.171875 -0.40625 -0.171875 -1.671875l0 -4.765625l-1.03125 0l0 -1.09375l1.03125 0l0 -2.0625l1.40625 -0.84375l0 2.90625l1.40625 0l0 1.09375l-1.40625 0l0 4.84375q0 0.609375 0.0625 0.78125q0.078125 0.171875 0.25 0.28125q0.171875 0.09375 0.484375 0.09375q0.234375 0 0.609375 -0.0625zm7.0546875 -1.40625l1.453125 0.171875q-0.34375 1.28125 -1.28125 1.984375q-0.921875 0.703125 -2.359375 0.703125q-1.828125 0 -2.890625 -1.125q-1.0625 -1.125 -1.0625 -3.140625q0 -2.09375 1.078125 -3.25q1.078125 -1.15625 2.796875 -1.15625q1.65625 0 2.703125 1.140625q1.0625 1.125 1.0625 3.171875q0 0.125 0 0.375l-6.1875 0q0.078125 1.375 0.765625 2.109375q0.703125 0.71875 1.734375 0.71875q0.78125 0 1.328125 -0.40625q0.546875 -0.40625 0.859375 -1.296875zm-4.609375 -2.28125l4.625 0q-0.09375 -1.046875 -0.53125 -1.5625q-0.671875 -0.8125 -1.734375 -0.8125q-0.96875 0 -1.640625 0.65625q-0.65625 0.640625 -0.71875 1.71875zm7.8359375 4.953125l0 -8.296875l1.25 0l0 1.15625q0.390625 -0.609375 1.03125 -0.96875q0.65625 -0.375 1.484375 -0.375q0.921875 0 1.515625 0.390625q0.59375 0.375 0.828125 1.0625q0.984375 -1.453125 2.5625 -1.453125q1.234375 0 1.890625 0.6875q0.671875 0.671875 0.671875 2.09375l0 5.703125l-1.390625 0l0 -5.234375q0 -0.84375 -0.140625 -1.203125q-0.140625 -0.375 -0.5 -0.59375q-0.359375 -0.234375 -0.84375 -0.234375q-0.875 0 -1.453125 0.578125q-0.578125 0.578125 -0.578125 1.859375l0 4.828125l-1.40625 0l0 -5.390625q0 -0.9375 -0.34375 -1.40625q-0.34375 -0.46875 -1.125 -0.46875q-0.59375 0 -1.09375 0.3125q-0.5 0.3125 -0.734375 0.921875q-0.21875 0.59375 -0.21875 1.71875l0 4.3125l-1.40625 0zm12.765625 -2.484375l1.390625 -0.21875q0.109375 0.84375 0.640625 1.296875q0.546875 0.4375 1.5 0.4375q0.96875 0 1.4375 -0.390625q0.46875 -0.40625 0.46875 -0.9375q0 -0.46875 -0.40625 -0.75q-0.296875 -0.1875 -1.4375 -0.46875q-1.546875 -0.390625 -2.15625 -0.671875q-0.59375 -0.296875 -0.90625 -0.796875q-0.296875 -0.5 -0.296875 -1.109375q0 -0.5625 0.25 -1.03125q0.25 -0.46875 0.6875 -0.78125q0.328125 -0.25 0.890625 -0.40625q0.578125 -0.171875 1.21875 -0.171875q0.984375 0 1.71875 0.28125q0.734375 0.28125 1.078125 0.765625q0.359375 0.46875 0.5 1.28125l-1.375 0.1875q-0.09375 -0.640625 -0.546875 -1.0q-0.453125 -0.359375 -1.265625 -0.359375q-0.96875 0 -1.390625 0.328125q-0.40625 0.3125 -0.40625 0.734375q0 0.28125 0.171875 0.5q0.171875 0.21875 0.53125 0.375q0.21875 0.078125 1.25 0.359375q1.484375 0.390625 2.078125 0.65625q0.59375 0.25 0.921875 0.734375q0.34375 0.484375 0.34375 1.203125q0 0.703125 -0.421875 1.328125q-0.40625 0.609375 -1.1875 0.953125q-0.765625 0.34375 -1.734375 0.34375q-1.625 0 -2.46875 -0.671875q-0.84375 -0.671875 -1.078125 -2.0z" fill-rule="nonzero"/><path fill="#cfe2f3" d="m379.13556 120.301834l86.2677 0l0 42.48819l-86.2677 0z" fill-rule="evenodd"/><path stroke="#000000" stroke-width="1.0" stroke-linejoin="round" stroke-linecap="butt" d="m379.13556 120.301834l86.2677 0l0 42.48819l-86.2677 0z" fill-rule="evenodd"/><path fill="#000000" d="m400.30457 143.71843l1.4375 -0.125q0.09375 0.859375 0.46875 1.421875q0.375 0.546875 1.15625 0.890625q0.78125 0.328125 1.75 0.328125q0.875 0 1.53125 -0.25q0.671875 -0.265625 0.984375 -0.703125q0.328125 -0.453125 0.328125 -0.984375q0 -0.546875 -0.3125 -0.9375q-0.3125 -0.40625 -1.03125 -0.6875q-0.453125 -0.171875 -2.03125 -0.546875q-1.578125 -0.390625 -2.21875 -0.71875q-0.8125 -0.4375 -1.21875 -1.0625q-0.40625 -0.640625 -0.40625 -1.4375q0 -0.859375 0.484375 -1.609375q0.5 -0.765625 1.4375 -1.15625q0.953125 -0.390625 2.109375 -0.390625q1.28125 0 2.25 0.421875q0.96875 0.40625 1.484375 1.203125q0.53125 0.796875 0.578125 1.796875l-1.453125 0.109375q-0.125 -1.078125 -0.796875 -1.625q-0.671875 -0.5625 -2.0 -0.5625q-1.375 0 -2.0 0.5q-0.625 0.5 -0.625 1.21875q0 0.609375 0.4375 1.015625q0.4375 0.390625 2.28125 0.8125q1.859375 0.421875 2.546875 0.734375q1.0 0.453125 1.46875 1.171875q0.484375 0.703125 0.484375 1.625q0 0.90625 -0.53125 1.71875q-0.515625 0.8125 -1.5 1.265625q-0.984375 0.453125 -2.203125 0.453125q-1.5625 0 -2.609375 -0.453125q-1.046875 -0.46875 -1.65625 -1.375q-0.59375 -0.90625 -0.625 -2.0625zm11.015625 6.875l0 -11.484375l1.28125 0l0 1.078125q0.453125 -0.640625 1.015625 -0.953125q0.578125 -0.3125 1.390625 -0.3125q1.0625 0 1.875 0.546875q0.8125 0.546875 1.21875 1.546875q0.421875 0.984375 0.421875 2.171875q0 1.28125 -0.46875 2.296875q-0.453125 1.015625 -1.328125 1.5625q-0.859375 0.546875 -1.828125 0.546875q-0.703125 0 -1.265625 -0.296875q-0.546875 -0.296875 -0.90625 -0.75l0 4.046875l-1.40625 0zm1.265625 -7.296875q0 1.609375 0.640625 2.375q0.65625 0.765625 1.578125 0.765625q0.9375 0 1.609375 -0.796875q0.671875 -0.796875 0.671875 -2.453125q0 -1.59375 -0.65625 -2.375q-0.65625 -0.796875 -1.5625 -0.796875q-0.890625 0 -1.59375 0.84375q-0.6875 0.84375 -0.6875 2.4375zm13.0390625 3.078125q-0.78125 0.671875 -1.5 0.953125q-0.71875 0.265625 -1.546875 0.265625q-1.375 0 -2.109375 -0.671875q-0.734375 -0.671875 -0.734375 -1.703125q0 -0.609375 0.28125 -1.109375q0.28125 -0.515625 0.71875 -0.8125q0.453125 -0.3125 1.015625 -0.46875q0.421875 -0.109375 1.25 -0.203125q1.703125 -0.203125 2.515625 -0.484375q0 -0.296875 0 -0.375q0 -0.859375 -0.390625 -1.203125q-0.546875 -0.484375 -1.609375 -0.484375q-0.984375 0 -1.46875 0.359375q-0.46875 0.34375 -0.6875 1.21875l-1.375 -0.1875q0.1875 -0.875 0.609375 -1.421875q0.4375 -0.546875 1.25 -0.828125q0.8125 -0.296875 1.875 -0.296875q1.0625 0 1.71875 0.25q0.671875 0.25 0.984375 0.625q0.3125 0.375 0.4375 0.953125q0.078125 0.359375 0.078125 1.296875l0 1.875q0 1.96875 0.078125 2.484375q0.09375 0.515625 0.359375 1.0l-1.46875 0q-0.21875 -0.4375 -0.28125 -1.03125zm-0.109375 -3.140625q-0.765625 0.3125 -2.296875 0.53125q-0.875 0.125 -1.234375 0.28125q-0.359375 0.15625 -0.5625 0.46875q-0.1875 0.296875 -0.1875 0.65625q0 0.5625 0.421875 0.9375q0.4375 0.375 1.25 0.375q0.8125 0 1.4375 -0.34375q0.640625 -0.359375 0.9375 -0.984375q0.234375 -0.46875 0.234375 -1.40625l0 -0.515625zm9.0078125 1.125l1.390625 0.1875q-0.234375 1.421875 -1.171875 2.234375q-0.921875 0.8125 -2.28125 0.8125q-1.703125 0 -2.75 -1.109375q-1.03125 -1.125 -1.03125 -3.203125q0 -1.34375 0.4375 -2.34375q0.453125 -1.015625 1.359375 -1.515625q0.921875 -0.5 1.984375 -0.5q1.359375 0 2.21875 0.6875q0.859375 0.671875 1.09375 1.9375l-1.359375 0.203125q-0.203125 -0.828125 -0.703125 -1.25q-0.484375 -0.421875 -1.1875 -0.421875q-1.0625 0 -1.734375 0.765625q-0.65625 0.75 -0.65625 2.40625q0 1.671875 0.640625 2.4375q0.640625 0.75 1.671875 0.75q0.828125 0 1.375 -0.5q0.5625 -0.515625 0.703125 -1.578125zm8.265625 0.375l1.453125 0.171875q-0.34375 1.28125 -1.28125 1.984375q-0.921875 0.703125 -2.359375 0.703125q-1.828125 0 -2.890625 -1.125q-1.0625 -1.125 -1.0625 -3.140625q0 -2.09375 1.078125 -3.25q1.078125 -1.15625 2.796875 -1.15625q1.65625 0 2.703125 1.140625q1.0625 1.125 1.0625 3.171875q0 0.125 0 0.375l-6.1875 0q0.078125 1.375 0.765625 2.109375q0.703125 0.71875 1.734375 0.71875q0.78125 0 1.328125 -0.40625q0.546875 -0.40625 0.859375 -1.296875zm-4.609375 -2.28125l4.625 0q-0.09375 -1.046875 -0.53125 -1.5625q-0.671875 -0.8125 -1.734375 -0.8125q-0.96875 0 -1.640625 0.65625q-0.65625 0.640625 -0.71875 1.71875z" fill-rule="nonzero"/><path fill="#cfe2f3" d="m472.15018 120.301834l86.26773 0l0 42.48819l-86.26773 0z" fill-rule="evenodd"/><path stroke="#000000" stroke-width="1.0" stroke-linejoin="round" stroke-linecap="butt" d="m472.15018 120.301834l86.26773 0l0 42.48819l-86.26773 0z" fill-rule="evenodd"/><path fill="#000000" d="m499.25668 147.40593l0 -11.453125l7.734375 0l0 1.34375l-6.21875 0l0 3.546875l5.375 0l0 1.359375l-5.375 0l0 5.203125l-1.515625 0zm9.5234375 -9.84375l0 -1.609375l1.40625 0l0 1.609375l-1.40625 0zm0 9.84375l0 -8.296875l1.40625 0l0 8.296875l-1.40625 0zm9.226593 -2.671875l1.453125 0.171875q-0.34375 1.28125 -1.28125 1.984375q-0.921875 0.703125 -2.359375 0.703125q-1.828125 0 -2.890625 -1.125q-1.0625305 -1.125 -1.0625305 -3.140625q0 -2.09375 1.0781555 -3.25q1.078125 -1.15625 2.796875 -1.15625q1.65625 0 2.703125 1.140625q1.0625 1.125 1.0625 3.171875q0 0.125 0 0.375l-6.1875 0q0.078125 1.375 0.765625 2.109375q0.703125 0.71875 1.734375 0.71875q0.78125 0 1.328125 -0.40625q0.546875 -0.40625 0.859375 -1.296875zm-4.609375 -2.28125l4.625 0q-0.09375 -1.046875 -0.53125 -1.5625q-0.671875 -0.8125 -1.734375 -0.8125q-0.96875 0 -1.640625 0.65625q-0.65625 0.640625 -0.71875 1.71875zm7.8046875 4.953125l0 -11.453125l1.40625 0l0 11.453125l-1.40625 0zm8.9609375 0l0 -1.046875q-0.78125 1.234375 -2.3125 1.234375q-1.0 0 -1.828125 -0.546875q-0.828125 -0.546875 -1.296875 -1.53125q-0.453125 -0.984375 -0.453125 -2.25q0 -1.25 0.40625 -2.25q0.421875 -1.015625 1.25 -1.546875q0.828125 -0.546875 1.859375 -0.546875q0.75 0 1.328125 0.3125q0.59375 0.3125 0.953125 0.828125l0 -4.109375l1.40625 0l0 11.453125l-1.3125 0zm-4.4375 -4.140625q0 1.59375 0.671875 2.390625q0.671875 0.78125 1.578125 0.78125q0.921875 0 1.5625 -0.75q0.65625 -0.765625 0.65625 -2.3125q0 -1.703125 -0.65625 -2.5q-0.65625 -0.796875 -1.625 -0.796875q-0.9375 0 -1.5625 0.765625q-0.625 0.765625 -0.625 2.421875z" fill-rule="nonzero"/><path fill="#cfe2f3" d="m565.1648 120.301834l86.2677 0l0 42.48819l-86.2677 0z" fill-rule="evenodd"/><path stroke="#000000" stroke-width="1.0" stroke-linejoin="round" stroke-linecap="butt" d="m565.1648 120.301834l86.2677 0l0 42.48819l-86.2677 0z" fill-rule="evenodd"/><path fill="#000000" d="m586.3338 143.71843l1.4375 -0.125q0.09375 0.859375 0.46875 1.421875q0.375 0.546875 1.15625 0.890625q0.78125 0.328125 1.75 0.328125q0.875 0 1.53125 -0.25q0.671875 -0.265625 0.984375 -0.703125q0.328125 -0.453125 0.328125 -0.984375q0 -0.546875 -0.3125 -0.9375q-0.3125 -0.40625 -1.03125 -0.6875q-0.453125 -0.171875 -2.03125 -0.546875q-1.578125 -0.390625 -2.21875 -0.71875q-0.8125 -0.4375 -1.21875 -1.0625q-0.40625 -0.640625 -0.40625 -1.4375q0 -0.859375 0.484375 -1.609375q0.5 -0.765625 1.4375 -1.15625q0.953125 -0.390625 2.109375 -0.390625q1.28125 0 2.25 0.421875q0.96875 0.40625 1.484375 1.203125q0.53125 0.796875 0.578125 1.796875l-1.453125 0.109375q-0.125 -1.078125 -0.796875 -1.625q-0.671875 -0.5625 -2.0 -0.5625q-1.375 0 -2.0 0.5q-0.625 0.5 -0.625 1.21875q0 0.609375 0.4375 1.015625q0.4375 0.390625 2.28125 0.8125q1.859375 0.421875 2.546875 0.734375q1.0 0.453125 1.46875 1.171875q0.484375 0.703125 0.484375 1.625q0 0.90625 -0.53125 1.71875q-0.515625 0.8125 -1.5 1.265625q-0.984375 0.453125 -2.203125 0.453125q-1.5625 0 -2.609375 -0.453125q-1.046875 -0.46875 -1.65625 -1.375q-0.59375 -0.90625 -0.625 -2.0625zm11.015625 6.875l0 -11.484375l1.28125 0l0 1.078125q0.453125 -0.640625 1.015625 -0.953125q0.578125 -0.3125 1.390625 -0.3125q1.0625 0 1.875 0.546875q0.8125 0.546875 1.21875 1.546875q0.421875 0.984375 0.421875 2.171875q0 1.28125 -0.46875 2.296875q-0.453125 1.015625 -1.328125 1.5625q-0.859375 0.546875 -1.828125 0.546875q-0.703125 0 -1.265625 -0.296875q-0.546875 -0.296875 -0.90625 -0.75l0 4.046875l-1.40625 0zm1.265625 -7.296875q0 1.609375 0.640625 2.375q0.65625 0.765625 1.578125 0.765625q0.9375 0 1.609375 -0.796875q0.671875 -0.796875 0.671875 -2.453125q0 -1.59375 -0.65625 -2.375q-0.65625 -0.796875 -1.5625 -0.796875q-0.890625 0 -1.59375 0.84375q-0.6875 0.84375 -0.6875 2.4375zm13.0390625 3.078125q-0.78125 0.671875 -1.5 0.953125q-0.71875 0.265625 -1.546875 0.265625q-1.375 0 -2.109375 -0.671875q-0.734375 -0.671875 -0.734375 -1.703125q0 -0.609375 0.28125 -1.109375q0.28125 -0.515625 0.71875 -0.8125q0.453125 -0.3125 1.015625 -0.46875q0.421875 -0.109375 1.25 -0.203125q1.703125 -0.203125 2.515625 -0.484375q0 -0.296875 0 -0.375q0 -0.859375 -0.390625 -1.203125q-0.546875 -0.484375 -1.609375 -0.484375q-0.984375 0 -1.46875 0.359375q-0.46875 0.34375 -0.6875 1.21875l-1.375 -0.1875q0.1875 -0.875 0.609375 -1.421875q0.4375 -0.546875 1.25 -0.828125q0.8125 -0.296875 1.875 -0.296875q1.0625 0 1.71875 0.25q0.671875 0.25 0.984375 0.625q0.3125 0.375 0.4375 0.953125q0.078125 0.359375 0.078125 1.296875l0 1.875q0 1.96875 0.078125 2.484375q0.09375 0.515625 0.359375 1.0l-1.46875 0q-0.21875 -0.4375 -0.28125 -1.03125zm-0.109375 -3.140625q-0.765625 0.3125 -2.296875 0.53125q-0.875 0.125 -1.234375 0.28125q-0.359375 0.15625 -0.5625 0.46875q-0.1875 0.296875 -0.1875 0.65625q0 0.5625 0.421875 0.9375q0.4375 0.375 1.25 0.375q0.8125 0 1.4375 -0.34375q0.640625 -0.359375 0.9375 -0.984375q0.234375 -0.46875 0.234375 -1.40625l0 -0.515625zm9.0078125 1.125l1.390625 0.1875q-0.234375 1.421875 -1.171875 2.234375q-0.921875 0.8125 -2.28125 0.8125q-1.703125 0 -2.75 -1.109375q-1.03125 -1.125 -1.03125 -3.203125q0 -1.34375 0.4375 -2.34375q0.453125 -1.015625 1.359375 -1.515625q0.921875 -0.5 1.984375 -0.5q1.359375 0 2.21875 0.6875q0.859375 0.671875 1.09375 1.9375l-1.359375 0.203125q-0.203125 -0.828125 -0.703125 -1.25q-0.484375 -0.421875 -1.1875 -0.421875q-1.0625 0 -1.734375 0.765625q-0.65625 0.75 -0.65625 2.40625q0 1.671875 0.640625 2.4375q0.640625 0.75 1.671875 0.75q0.828125 0 1.375 -0.5q0.5625 -0.515625 0.703125 -1.578125zm8.265625 0.375l1.453125 0.171875q-0.34375 1.28125 -1.28125 1.984375q-0.921875 0.703125 -2.359375 0.703125q-1.828125 0 -2.890625 -1.125q-1.0625 -1.125 -1.0625 -3.140625q0 -2.09375 1.078125 -3.25q1.078125 -1.15625 2.796875 -1.15625q1.65625 0 2.703125 1.140625q1.0625 1.125 1.0625 3.171875q0 0.125 0 0.375l-6.1875 0q0.078125 1.375 0.765625 2.109375q0.703125 0.71875 1.734375 0.71875q0.78125 0 1.328125 -0.40625q0.546875 -0.40625 0.859375 -1.296875zm-4.609375 -2.28125l4.625 0q-0.09375 -1.046875 -0.53125 -1.5625q-0.671875 -0.8125 -1.734375 -0.8125q-0.96875 0 -1.640625 0.65625q-0.65625 0.640625 -0.71875 1.71875z" fill-rule="nonzero"/><path fill="#cfe2f3" d="m658.1779 120.301834l86.2677 0l0 42.48819l-86.2677 0z" fill-rule="evenodd"/><path stroke="#000000" stroke-width="1.0" stroke-linejoin="round" stroke-linecap="butt" d="m658.1779 120.301834l86.2677 0l0 42.48819l-86.2677 0z" fill-rule="evenodd"/><path fill="#000000" d="m683.9016 137.90593l0 -11.453125l5.078125 0q1.53125 0 2.328125 0.3125q0.796875 0.296875 1.265625 1.078125q0.484375 0.78125 0.484375 1.734375q0 1.21875 -0.796875 2.0625q-0.78125 0.828125 -2.4375 1.046875q0.609375 0.296875 0.921875 0.578125q0.65625 0.609375 1.25 1.515625l2.0 3.125l-1.90625 0l-1.515625 -2.390625q-0.671875 -1.03125 -1.109375 -1.578125q-0.421875 -0.546875 -0.765625 -0.765625q-0.328125 -0.21875 -0.6875 -0.296875q-0.25 -0.0625 -0.84375 -0.0625l-1.75 0l0 5.09375l-1.515625 0zm1.515625 -6.40625l3.25 0q1.046875 0 1.625 -0.203125q0.59375 -0.21875 0.890625 -0.6875q0.3125 -0.484375 0.3125 -1.03125q0 -0.8125 -0.59375 -1.328125q-0.59375 -0.53125 -1.859375 -0.53125l-3.625 0l0 3.78125zm9.8359375 -3.4375l0 -1.609375l1.40625 0l0 1.609375l-1.40625 0zm0 9.84375l0 -8.296875l1.40625 0l0 8.296875l-1.40625 0zm3.2890625 0.6875l1.375 0.203125q0.078125 0.640625 0.46875 0.921875q0.53125 0.390625 1.4375 0.390625q0.96875 0 1.5 -0.390625q0.53125 -0.390625 0.71875 -1.09375q0.109375 -0.421875 0.109375 -1.8125q-0.921875 1.09375 -2.296875 1.09375q-1.71875 0 -2.65625 -1.234375q-0.9375 -1.234375 -0.9375 -2.96875q0 -1.1875 0.421875 -2.1875q0.4375 -1.0 1.25 -1.546875q0.828125 -0.546875 1.921875 -0.546875q1.46875 0 2.421875 1.1875l0 -1.0l1.296875 0l0 7.171875q0 1.9375 -0.390625 2.75q-0.390625 0.8125 -1.25 1.28125q-0.859375 0.46875 -2.109375 0.46875q-1.484375 0 -2.40625 -0.671875q-0.90625 -0.671875 -0.875 -2.015625zm1.171875 -4.984375q0 1.625 0.640625 2.375q0.65625 0.75 1.625 0.75q0.96875 0 1.625 -0.734375q0.65625 -0.75 0.65625 -2.34375q0 -1.53125 -0.671875 -2.296875q-0.671875 -0.78125 -1.625 -0.78125q-0.9375 0 -1.59375 0.765625q-0.65625 0.765625 -0.65625 2.265625zm7.9921875 4.296875l0 -11.453125l1.40625 0l0 4.109375q0.984375 -1.140625 2.484375 -1.140625q0.921875 0 1.59375 0.359375q0.6875 0.359375 0.96875 1.0q0.296875 0.640625 0.296875 1.859375l0 5.265625l-1.40625 0l0 -5.265625q0 -1.046875 -0.453125 -1.53125q-0.453125 -0.484375 -1.296875 -0.484375q-0.625 0 -1.171875 0.328125q-0.546875 0.328125 -0.78125 0.890625q-0.234375 0.546875 -0.234375 1.515625l0 4.546875l-1.40625 0zm11.9609375 -1.265625l0.203125 1.25q-0.59375 0.125 -1.0625 0.125q-0.765625 0 -1.1875 -0.234375q-0.421875 -0.25 -0.59375 -0.640625q-0.171875 -0.40625 -0.171875 -1.671875l0 -4.765625l-1.03125 0l0 -1.09375l1.03125 0l0 -2.0625l1.40625 -0.84375l0 2.90625l1.40625 0l0 1.09375l-1.40625 0l0 4.84375q0 0.609375 0.0625 0.78125q0.078125 0.171875 0.25 0.28125q0.171875 0.09375 0.484375 0.09375q0.234375 0 0.609375 -0.0625z" fill-rule="nonzero"/><path fill="#000000" d="m682.1008 156.90593l0 -11.453125l3.953125 0q1.328125 0 2.03125 0.15625q0.984375 0.234375 1.6875 0.828125q0.90625 0.765625 1.34375 1.953125q0.453125 1.1875 0.453125 2.71875q0 1.3125 -0.3125 2.328125q-0.296875 1.0 -0.78125 1.65625q-0.46875 0.65625 -1.03125 1.046875q-0.5625 0.375 -1.375 0.578125q-0.796875 0.1875 -1.828125 0.1875l-4.140625 0zm1.515625 -1.359375l2.453125 0q1.125 0 1.765625 -0.203125q0.65625 -0.21875 1.03125 -0.59375q0.546875 -0.546875 0.84375 -1.453125q0.296875 -0.90625 0.296875 -2.203125q0 -1.796875 -0.59375 -2.765625q-0.578125 -0.96875 -1.421875 -1.296875q-0.609375 -0.234375 -1.96875 -0.234375l-2.40625 0l0 8.75zm15.5390625 -1.3125l1.453125 0.171875q-0.34375 1.28125 -1.28125 1.984375q-0.921875 0.703125 -2.359375 0.703125q-1.828125 0 -2.890625 -1.125q-1.0625 -1.125 -1.0625 -3.140625q0 -2.09375 1.078125 -3.25q1.078125 -1.15625 2.796875 -1.15625q1.65625 0 2.703125 1.140625q1.0625 1.125 1.0625 3.171875q0 0.125 0 0.375l-6.1875 0q0.078125 1.375 0.765625 2.109375q0.703125 0.71875 1.734375 0.71875q0.78125 0 1.328125 -0.40625q0.546875 -0.40625 0.859375 -1.296875zm-4.609375 -2.28125l4.625 0q-0.09375 -1.046875 -0.53125 -1.5625q-0.671875 -0.8125 -1.734375 -0.8125q-0.96875 0 -1.640625 0.65625q-0.65625 0.640625 -0.71875 1.71875zm7.8046875 4.953125l0 -11.453125l1.40625 0l0 11.453125l-1.40625 0zm3.5859375 -9.84375l0 -1.609375l1.40625 0l0 1.609375l-1.40625 0zm0 9.84375l0 -8.296875l1.40625 0l0 8.296875l-1.40625 0zm3.5546875 0l0 -8.296875l1.25 0l0 1.15625q0.390625 -0.609375 1.03125 -0.96875q0.65625 -0.375 1.484375 -0.375q0.921875 0 1.515625 0.390625q0.59375 0.375 0.828125 1.0625q0.984375 -1.453125 2.5625 -1.453125q1.234375 0 1.890625 0.6875q0.671875 0.671875 0.671875 2.09375l0 5.703125l-1.390625 0l0 -5.234375q0 -0.84375 -0.140625 -1.203125q-0.140625 -0.375 -0.5 -0.59375q-0.359375 -0.234375 -0.84375 -0.234375q-0.875 0 -1.453125 0.578125q-0.578125 0.578125 -0.578125 1.859375l0 4.828125l-1.40625 0l0 -5.390625q0 -0.9375 -0.34375 -1.40625q-0.34375 -0.46875 -1.125 -0.46875q-0.59375 0 -1.09375 0.3125q-0.5 0.3125 -0.734375 0.921875q-0.21875 0.59375 -0.21875 1.71875l0 4.3125l-1.40625 0z" fill-rule="nonzero"/><path fill="#cfe2f3" d="m751.19104 120.301834l86.2677 0l0 42.48819l-86.2677 0z" fill-rule="evenodd"/><path stroke="#000000" stroke-width="1.0" stroke-linejoin="round" stroke-linecap="butt" d="m751.19104 120.301834l86.2677 0l0 42.48819l-86.2677 0z" fill-rule="evenodd"/><path fill="#000000" d="m779.1452 147.40593l0 -11.453125l8.28125 0l0 1.34375l-6.765625 0l0 3.515625l6.34375 0l0 1.34375l-6.34375 0l0 3.890625l7.03125 0l0 1.359375l-8.546875 0zm10.1875 -5.578125q0 -2.859375 1.53125 -4.46875q1.53125 -1.609375 3.953125 -1.609375q1.578125 0 2.84375 0.765625q1.28125 0.75 1.953125 2.109375q0.671875 1.34375 0.671875 3.0625q0 1.75 -0.703125 3.125q-0.703125 1.375 -2.0 2.09375q-1.28125 0.703125 -2.78125 0.703125q-1.609375 0 -2.890625 -0.78125q-1.265625 -0.796875 -1.921875 -2.140625q-0.65625 -1.359375 -0.65625 -2.859375zm1.5625 0.015625q0 2.078125 1.109375 3.265625q1.109375 1.1875 2.796875 1.1875q1.703125 0 2.8125 -1.203125q1.109375 -1.203125 1.109375 -3.40625q0 -1.40625 -0.484375 -2.4375q-0.46875 -1.046875 -1.375 -1.625q-0.90625 -0.578125 -2.046875 -0.578125q-1.609375 0 -2.765625 1.109375q-1.15625 1.109375 -1.15625 3.6875zm11.4140625 5.5625l0 -11.453125l7.734375 0l0 1.34375l-6.21875 0l0 3.546875l5.375 0l0 1.359375l-5.375 0l0 5.203125l-1.515625 0z" fill-rule="nonzero"/><path fill="#000000" fill-opacity="0.0" d="m585.2192 52.51706c0 3.6181183 -2.9331055 6.551182 -6.5512085 6.551182l-248.99213 0c-3.618103 0 -6.551178 2.9330635 -6.551178 6.551182l0 0c0 -3.6181183 -2.9330444 -6.551182 -6.551178 -6.551182l-248.99213 0l0 0c-3.6181183 0 -6.5511856 -2.9330635 -6.5511856 -6.551182z" fill-rule="evenodd"/><path fill="#000000" fill-opacity="0.0" d="m585.2192 52.51706c0 3.6181183 -2.9331055 6.551182 -6.5512085 6.551182l-248.99213 0c-3.618103 0 -6.551178 2.9330635 -6.551178 6.551182l0 0c0 -3.6181183 -2.9330444 -6.551182 -6.551178 -6.551182l-248.99213 0l0 0c-3.6181183 0 -6.5511856 -2.9330635 -6.5511856 -6.551182" fill-rule="evenodd"/><path stroke="#000000" stroke-width="1.0" stroke-linejoin="round" stroke-linecap="butt" d="m585.2192 52.51706c0 3.6181183 -2.9331055 6.551182 -6.5512085 6.551182l-248.99213 0c-3.618103 0 -6.551178 2.9330635 -6.551178 6.551182l0 0c0 -3.6181183 -2.9330444 -6.551182 -6.551178 -6.551182l-248.99213 0l0 0c-3.6181183 0 -6.5511856 -2.9330635 -6.5511856 -6.551182" fill-rule="evenodd"/><path fill="#000000" fill-opacity="0.0" d="m613.8727 52.51706c0 3.6181183 -2.199768 6.551182 -4.913391 6.551182l0 0c-2.713562 0 -4.91333 2.9330635 -4.91333 6.551182l0 0c0 -3.6181183 -2.199829 -6.551182 -4.913391 -6.551182l0 0l0 0c-2.713623 0 -4.913391 -2.9330635 -4.913391 -6.551182z" fill-rule="evenodd"/><path fill="#000000" fill-opacity="0.0" d="m613.8727 52.51706c0 3.6181183 -2.199768 6.551182 -4.913391 6.551182l0 0c-2.713562 0 -4.91333 2.9330635 -4.91333 6.551182l0 0c0 -3.6181183 -2.199829 -6.551182 -4.913391 -6.551182l0 0l0 0c-2.713623 0 -4.913391 -2.9330635 -4.913391 -6.551182" fill-rule="evenodd"/><path stroke="#000000" stroke-width="1.0" stroke-linejoin="round" stroke-linecap="butt" d="m613.8727 52.51706c0 3.6181183 -2.199768 6.551182 -4.913391 6.551182l0 0c-2.713562 0 -4.91333 2.9330635 -4.91333 6.551182l0 0c0 -3.6181183 -2.199829 -6.551182 -4.913391 -6.551182l0 0l0 0c-2.713623 0 -4.913391 -2.9330635 -4.913391 -6.551182" fill-rule="evenodd"/><path fill="#000000" fill-opacity="0.0" d="m637.6207 52.51706c0 3.6181183 -2.1715698 6.551182 -4.850403 6.551182l0 0c-2.678772 0 -4.850403 2.9330635 -4.850403 6.551182l0 0c0 -3.6181183 -2.1715698 -6.551182 -4.850342 -6.551182l0 0l0 0c-2.678833 0 -4.850403 -2.9330635 -4.850403 -6.551182z" fill-rule="evenodd"/><path fill="#000000" fill-opacity="0.0" d="m637.6207 52.51706c0 3.6181183 -2.1715698 6.551182 -4.850403 6.551182l0 0c-2.678772 0 -4.850403 2.9330635 -4.850403 6.551182l0 0c0 -3.6181183 -2.1715698 -6.551182 -4.850342 -6.551182l0 0l0 0c-2.678833 0 -4.850403 -2.9330635 -4.850403 -6.551182" fill-rule="evenodd"/><path stroke="#000000" stroke-width="1.0" stroke-linejoin="round" stroke-linecap="butt" d="m637.6207 52.51706c0 3.6181183 -2.1715698 6.551182 -4.850403 6.551182l0 0c-2.678772 0 -4.850403 2.9330635 -4.850403 6.551182l0 0c0 -3.6181183 -2.1715698 -6.551182 -4.850342 -6.551182l0 0l0 0c-2.678833 0 -4.850403 -2.9330635 -4.850403 -6.551182" fill-rule="evenodd"/><path fill="#000000" fill-opacity="0.0" d="m762.94354 52.51706c0 3.6181183 -2.9330444 6.551182 -6.5511475 6.551182l-47.259827 0c-3.618164 0 -6.5512085 2.9330635 -6.5512085 6.551182l0 0c0 -3.6181183 -2.9330444 -6.551182 -6.5511475 -6.551182l-47.259888 0l0 0c-3.618103 0 -6.5511475 -2.9330635 -6.5511475 -6.551182z" fill-rule="evenodd"/><path fill="#000000" fill-opacity="0.0" d="m762.94354 52.51706c0 3.6181183 -2.9330444 6.551182 -6.5511475 6.551182l-47.259827 0c-3.618164 0 -6.5512085 2.9330635 -6.5512085 6.551182l0 0c0 -3.6181183 -2.9330444 -6.551182 -6.5511475 -6.551182l-47.259888 0l0 0c-3.618103 0 -6.5511475 -2.9330635 -6.5511475 -6.551182" fill-rule="evenodd"/><path stroke="#000000" stroke-width="1.0" stroke-linejoin="round" stroke-linecap="butt" d="m762.94354 52.51706c0 3.6181183 -2.9330444 6.551182 -6.5511475 6.551182l-47.259827 0c-3.618164 0 -6.5512085 2.9330635 -6.5512085 6.551182l0 0c0 -3.6181183 -2.9330444 -6.551182 -6.5511475 -6.551182l-47.259888 0l0 0c-3.618103 0 -6.5511475 -2.9330635 -6.5511475 -6.551182" fill-rule="evenodd"/><path fill="#000000" fill-opacity="0.0" d="m781.6207 52.51706c0 3.6181183 -2.1715698 6.551182 -4.850403 6.551182l0 0c-2.678772 0 -4.850403 2.9330635 -4.850403 6.551182l0 0c0 -3.6181183 -2.1715698 -6.551182 -4.850342 -6.551182l0 0l0 0c-2.678833 0 -4.850403 -2.9330635 -4.850403 -6.551182z" fill-rule="evenodd"/><path fill="#000000" fill-opacity="0.0" d="m781.6207 52.51706c0 3.6181183 -2.1715698 6.551182 -4.850403 6.551182l0 0c-2.678772 0 -4.850403 2.9330635 -4.850403 6.551182l0 0c0 -3.6181183 -2.1715698 -6.551182 -4.850342 -6.551182l0 0l0 0c-2.678833 0 -4.850403 -2.9330635 -4.850403 -6.551182" fill-rule="evenodd"/><path stroke="#000000" stroke-width="1.0" stroke-linejoin="round" stroke-linecap="butt" d="m781.6207 52.51706c0 3.6181183 -2.1715698 6.551182 -4.850403 6.551182l0 0c-2.678772 0 -4.850403 2.9330635 -4.850403 6.551182l0 0c0 -3.6181183 -2.1715698 -6.551182 -4.850342 -6.551182l0 0l0 0c-2.678833 0 -4.850403 -2.9330635 -4.850403 -6.551182" fill-rule="evenodd"/><path fill="#000000" fill-opacity="0.0" d="m805.6207 52.51706c0 3.6181183 -2.1715698 6.551182 -4.850403 6.551182l0 0c-2.678772 0 -4.850403 2.9330635 -4.850403 6.551182l0 0c0 -3.6181183 -2.1715698 -6.551182 -4.850342 -6.551182l0 0l0 0c-2.678833 0 -4.850403 -2.9330635 -4.850403 -6.551182z" fill-rule="evenodd"/><path fill="#000000" fill-opacity="0.0" d="m805.6207 52.51706c0 3.6181183 -2.1715698 6.551182 -4.850403 6.551182l0 0c-2.678772 0 -4.850403 2.9330635 -4.850403 6.551182l0 0c0 -3.6181183 -2.1715698 -6.551182 -4.850342 -6.551182l0 0l0 0c-2.678833 0 -4.850403 -2.9330635 -4.850403 -6.551182" fill-rule="evenodd"/><path stroke="#000000" stroke-width="1.0" stroke-linejoin="round" stroke-linecap="butt" d="m805.6207 52.51706c0 3.6181183 -2.1715698 6.551182 -4.850403 6.551182l0 0c-2.678772 0 -4.850403 2.9330635 -4.850403 6.551182l0 0c0 -3.6181183 -2.1715698 -6.551182 -4.850342 -6.551182l0 0l0 0c-2.678833 0 -4.850403 -2.9330635 -4.850403 -6.551182" fill-rule="evenodd"/><path fill="#000000" fill-opacity="0.0" d="m323.12466 65.61942c0 13.670654 -21.724396 20.506668 -43.448822 27.341316c-21.724396 6.834648 -43.448807 13.667923 -43.448807 27.335846" fill-rule="evenodd"/><path stroke="#000000" stroke-width="1.0" stroke-linejoin="round" stroke-linecap="butt" d="m323.12466 65.61942c0 13.670654 -21.724396 20.506668 -43.448822 27.341316c-21.724396 6.834648 -43.448807 13.667923 -43.448807 27.335846" fill-rule="evenodd"/><path fill="#000000" fill-opacity="0.0" d="m604.04596 65.61942c0 13.670654 -68.700806 20.506668 -137.40161 27.341316c-68.700775 6.834648 -137.40158 13.667923 -137.40158 27.335846" fill-rule="evenodd"/><path stroke="#000000" stroke-width="1.0" stroke-linejoin="round" stroke-linecap="butt" d="m604.04596 65.61942c0 13.670654 -68.700806 20.506668 -137.40161 27.341316c-68.700775 6.834648 -137.40158 13.667923 -137.40158 27.335846" fill-rule="evenodd"/><path fill="#000000" fill-opacity="0.0" d="m627.9199 65.61942c0 13.670654 -51.409424 20.506668 -102.81885 27.341316c-51.409485 6.834648 -102.81891 13.667923 -102.81891 27.335846" fill-rule="evenodd"/><path stroke="#000000" stroke-width="1.0" stroke-linejoin="round" stroke-linecap="butt" d="m627.9199 65.61942c0 13.670654 -51.409424 20.506668 -102.81885 27.341316c-51.409485 6.834648 -102.81891 13.667923 -102.81891 27.335846" fill-rule="evenodd"/><path fill="#000000" fill-opacity="0.0" d="m702.58136 65.61942c0 13.670654 -46.826782 20.506668 -93.653564 27.341316c-46.82672 6.834648 -93.6535 13.667923 -93.6535 27.335846" fill-rule="evenodd"/><path stroke="#000000" stroke-width="1.0" stroke-linejoin="round" stroke-linecap="butt" d="m702.58136 65.61942c0 13.670654 -46.826782 20.506668 -93.653564 27.341316c-46.82672 6.834648 -93.6535 13.667923 -93.6535 27.335846" fill-rule="evenodd"/><path fill="#000000" fill-opacity="0.0" d="m771.9199 65.61942c0 13.670654 -40.905457 20.506668 -81.810974 27.341316c-40.905518 6.834648 -81.811035 13.667923 -81.811035 27.335846" fill-rule="evenodd"/><path stroke="#000000" stroke-width="1.0" stroke-linejoin="round" stroke-linecap="butt" d="m771.9199 65.61942c0 13.670654 -40.905457 20.506668 -81.810974 27.341316c-40.905518 6.834648 -81.811035 13.667923 -81.811035 27.335846" fill-rule="evenodd"/><path fill="#000000" fill-opacity="0.0" d="m795.9199 65.61942c0 13.670654 -23.653503 20.506668 -47.307068 27.341316c-23.653564 6.834648 -47.307068 13.667923 -47.307068 27.335846" fill-rule="evenodd"/><path stroke="#000000" stroke-width="1.0" stroke-linejoin="round" stroke-linecap="butt" d="m795.9199 65.61942c0 13.670654 -23.653503 20.506668 -47.307068 27.341316c-23.653564 6.834648 -47.307068 13.667923 -47.307068 27.335846" fill-rule="evenodd"/><path fill="#000000" fill-opacity="0.0" d="m829.6207 52.51706c0 3.6181183 -2.1715698 6.551182 -4.850403 6.551182l0 0c-2.678772 0 -4.850403 2.9330635 -4.850403 6.551182l0 0c0 -3.6181183 -2.1715698 -6.551182 -4.850342 -6.551182l0 0l0 0c-2.678833 0 -4.850403 -2.9330635 -4.850403 -6.551182z" fill-rule="evenodd"/><path fill="#000000" fill-opacity="0.0" d="m829.6207 52.51706c0 3.6181183 -2.1715698 6.551182 -4.850403 6.551182l0 0c-2.678772 0 -4.850403 2.9330635 -4.850403 6.551182l0 0c0 -3.6181183 -2.1715698 -6.551182 -4.850342 -6.551182l0 0l0 0c-2.678833 0 -4.850403 -2.9330635 -4.850403 -6.551182" fill-rule="evenodd"/><path stroke="#000000" stroke-width="1.0" stroke-linejoin="round" stroke-linecap="butt" d="m829.6207 52.51706c0 3.6181183 -2.1715698 6.551182 -4.850403 6.551182l0 0c-2.678772 0 -4.850403 2.9330635 -4.850403 6.551182l0 0c0 -3.6181183 -2.1715698 -6.551182 -4.850342 -6.551182l0 0l0 0c-2.678833 0 -4.850403 -2.9330635 -4.850403 -6.551182" fill-rule="evenodd"/><path fill="#000000" fill-opacity="0.0" d="m819.9199 65.61942c0 13.670654 -6.4015503 20.506668 -12.803101 27.341316c-6.4016113 6.834648 -12.803162 13.667923 -12.803162 27.335846" fill-rule="evenodd"/><path stroke="#000000" stroke-width="1.0" stroke-linejoin="round" stroke-linecap="butt" d="m819.9199 65.61942c0 13.670654 -6.4015503 20.506668 -12.803101 27.341316c-6.4016113 6.834648 -12.803162 13.667923 -12.803162 27.335846" fill-rule="evenodd"/></g></svg>