<?xml version="1.0" encoding="UTF-8" ?>
<svg xmlns="http://www.w3.org/2000/svg" xmlns:xlink="http://www.w3.org/1999/xlink" width="1033pt" height="1044pt" viewBox="0.00 0.00 1033.00 1044.40">
<g id="graph0" class="graph" transform="scale(1 1) rotate(0) translate(4 1040.4)">
<title>%0</title>
<polygon fill="#ffffff" stroke="transparent" points="-4,4 -4,-1040.4 1029,-1040.4 1029,4 -4,4"/>
<text text-anchor="middle" x="512.5" y="-82" font-family="Times,serif" font-size="20.00" fill="#000000">github.com/dddplayer/hugoverse/pkg/overlayfs</text>
<text text-anchor="middle" x="512.5" y="-58" font-family="Times,serif" font-size="20.00" fill="#000000">Domain Model</text>
<text text-anchor="middle" x="512.5" y="-10" font-family="Times,serif" font-size="20.00" fill="#000000">Powered by DDD Player</text>
<g id="clust2" class="cluster">
<title>cluster_ddyVTic</title>
<polygon fill="none" stroke="#000000" points="508,-160 508,-1028.4 1017,-1028.4 1017,-160 508,-160"/>
<text text-anchor="middle" x="762.5" y="-1011.8" font-family="Times,serif" font-size="14.00" fill="#000000">github.com/dddplayer/hugoverse/pkg/overlayfs</text>
</g>
<g id="clust3" class="cluster">
<title>cluster_dexw6vf</title>
<polygon fill="none" stroke="#000000" points="584,-168 584,-338.8 916,-338.8 916,-168 584,-168"/>
<text text-anchor="middle" x="750" y="-322.2" font-family="Times,serif" font-size="14.00" fill="#000000">github.com/dddplayer/hugoverse/pkg/overlayfs/function</text>
</g>
<g id="clust1" class="cluster">
<title>cluster_ddd_concept</title>
<polygon fill="none" stroke="#000000" points="8,-637.6 8,-777.6 500,-777.6 500,-637.6 8,-637.6"/>
</g>
<!-- ddd_concept -->
<g id="node1" class="node">
<title>ddd_concept</title>
<polygon fill="none" stroke="#ffffff" stroke-dasharray="1,5" points="492,-769.6 16,-769.6 16,-645.6 492,-645.6 492,-769.6"/>
<polygon fill="transparent" stroke="transparent" points="26,-727.6 26,-763.6 140,-763.6 140,-727.6 26,-727.6"/>
<text text-anchor="start" x="35.5582" y="-741" font-family="Times,serif" font-size="14.00" fill="#000000">BoundedContext</text>
<polygon fill="#ffd966" stroke="transparent" points="142,-727.6 142,-763.6 247,-763.6 247,-727.6 142,-727.6"/>
<text text-anchor="start" x="151.7356" y="-741" font-family="Times,serif" font-size="14.00" fill="#000000">AggregateRoot</text>
<polygon fill="#ffe599" stroke="transparent" points="249,-727.6 249,-763.6 318,-763.6 318,-727.6 249,-727.6"/>
<text text-anchor="start" x="266.3878" y="-741" font-family="Times,serif" font-size="14.00" fill="#000000">Entity</text>
<polygon fill="#a2c4c9" stroke="transparent" points="320,-727.6 320,-763.6 410,-763.6 410,-727.6 320,-727.6"/>
<text text-anchor="start" x="329.6283" y="-741" font-family="Times,serif" font-size="14.00" fill="#000000">ValueObject</text>
<polygon fill="#e69138" stroke="transparent" points="412,-727.6 412,-763.6 482,-763.6 482,-727.6 412,-727.6"/>
<text text-anchor="start" x="426.0112" y="-741" font-family="Times,serif" font-size="14.00" fill="#000000">Service</text>
<polygon fill="#ffffff" stroke="transparent" points="26,-689.6 26,-725.6 140,-725.6 140,-689.6 26,-689.6"/>
<polygon fill="#a4c2f4" stroke="transparent" points="142,-689.6 142,-725.6 247,-725.6 247,-689.6 142,-689.6"/>
<text text-anchor="start" x="165.3338" y="-703" font-family="Times,serif" font-size="14.00" fill="#000000">Command</text>
<polygon fill="#f6b26b" stroke="transparent" points="249,-689.6 249,-725.6 318,-725.6 318,-689.6 249,-689.6"/>
<text text-anchor="start" x="267.1711" y="-703" font-family="Times,serif" font-size="14.00" fill="#000000">Event</text>
<polygon fill="#cfe2f3" stroke="transparent" points="320,-689.6 320,-725.6 410,-725.6 410,-689.6 320,-689.6"/>
<text text-anchor="start" x="343.6185" y="-703" font-family="Times,serif" font-size="14.00" fill="#000000">Factory</text>
<polygon fill="#b4a7d6" stroke="transparent" points="412,-689.6 412,-725.6 482,-725.6 482,-689.6 412,-689.6"/>
<text text-anchor="start" x="431.8345" y="-703" font-family="Times,serif" font-size="14.00" fill="#000000">Class</text>
<polygon fill="#ffffff" stroke="transparent" points="26,-651.6 26,-687.6 140,-687.6 140,-651.6 26,-651.6"/>
<polygon fill="#f4cccc" stroke="transparent" points="142,-651.6 142,-687.6 247,-687.6 247,-651.6 142,-651.6"/>
<text text-anchor="start" x="172.3492" y="-665" font-family="Times,serif" font-size="14.00" fill="#000000">General</text>
<polygon fill="#ead1dc" stroke="transparent" points="249,-651.6 249,-687.6 318,-687.6 318,-651.6 249,-651.6"/>
<text text-anchor="start" x="258.6108" y="-665" font-family="Times,serif" font-size="14.00" fill="#000000">Function</text>
<polygon fill="#9fc5e8" stroke="transparent" points="320,-651.6 320,-687.6 410,-687.6 410,-651.6 320,-651.6"/>
<text text-anchor="start" x="340.1346" y="-665" font-family="Times,serif" font-size="14.00" fill="#000000">Interface</text>
<polygon fill="#f3f3f3" stroke="transparent" points="412,-651.6 412,-687.6 482,-687.6 482,-651.6 412,-651.6"/>
<text text-anchor="start" x="421.7279" y="-665" font-family="Times,serif" font-size="14.00" fill="#000000">Attribute</text>
</g>
<!-- ddyVTic -->
<g id="node2" class="node">
<title>ddyVTic</title>
<polygon fill="none" stroke="#000000" stroke-dasharray="1,5" points="984,-995.6 516,-995.6 516,-419.6 984,-419.6 984,-995.6"/>
<polygon fill="#ffffff" stroke="transparent" points="526,-969.6 526,-989.6 546,-989.6 546,-969.6 526,-969.6"/>
<polygon fill="#ffffff" stroke="transparent" points="526,-947.6 526,-967.6 546,-967.6 546,-947.6 526,-947.6"/>
<polygon fill="#ffffff" stroke="transparent" points="526,-909.6 526,-945.6 546,-945.6 546,-909.6 526,-909.6"/>
<polygon fill="#a4c2f4" stroke="transparent" points="548,-909.6 548,-945.6 632,-945.6 632,-909.6 548,-909.6"/>
<text text-anchor="start" x="574.0645" y="-923" font-family="Times,serif" font-size="14.00" fill="#000000">Write</text>
<polygon fill="#a4c2f4" stroke="transparent" points="634,-909.6 634,-945.6 700,-945.6 700,-909.6 634,-909.6"/>
<text text-anchor="start" x="653.3941" y="-923" font-family="Times,serif" font-size="14.00" fill="#000000">Seek</text>
<polygon fill="#a4c2f4" stroke="transparent" points="702,-909.6 702,-945.6 802,-945.6 802,-909.6 702,-909.6"/>
<text text-anchor="start" x="730.6185" y="-923" font-family="Times,serif" font-size="14.00" fill="#000000">ReadAt</text>
<polygon fill="#ffffff" stroke="transparent" points="804,-909.6 804,-945.6 824,-945.6 824,-909.6 804,-909.6"/>
<polygon fill="#b4a7d6" stroke="transparent" points="826,-795.6 826,-945.6 909,-945.6 909,-795.6 826,-795.6"/>
<text text-anchor="start" x="856.6108" y="-866.4" font-family="Times,serif" font-size="14.00" fill="#000000">File</text>
<polygon fill="#f3f3f3" stroke="transparent" points="911,-909.6 911,-945.6 952,-945.6 952,-909.6 911,-909.6"/>
<text text-anchor="start" x="920.6108" y="-923" font-family="Times,serif" font-size="14.00" fill="#000000">File</text>
<polygon fill="#ffffff" stroke="transparent" points="954,-909.6 954,-945.6 974,-945.6 974,-909.6 954,-909.6"/>
<polygon fill="#ffffff" stroke="transparent" points="526,-871.6 526,-907.6 546,-907.6 546,-871.6 526,-871.6"/>
<polygon fill="#a4c2f4" stroke="transparent" points="548,-871.6 548,-907.6 632,-907.6 632,-871.6 548,-871.6"/>
<text text-anchor="start" x="567.8415" y="-885" font-family="Times,serif" font-size="14.00" fill="#000000">Readdir</text>
<polygon fill="#a4c2f4" stroke="transparent" points="634,-871.6 634,-907.6 700,-907.6 700,-871.6 634,-871.6"/>
<text text-anchor="start" x="650.2868" y="-885" font-family="Times,serif" font-size="14.00" fill="#000000">Name</text>
<polygon fill="#a4c2f4" stroke="transparent" points="702,-871.6 702,-907.6 802,-907.6 802,-871.6 702,-871.6"/>
<text text-anchor="start" x="729.0659" y="-885" font-family="Times,serif" font-size="14.00" fill="#000000">WriteAt</text>
<polygon fill="#ffffff" stroke="transparent" points="804,-871.6 804,-907.6 824,-907.6 824,-871.6 804,-871.6"/>
<polygon fill="#ffffff" stroke="transparent" points="911,-871.6 911,-907.6 952,-907.6 952,-871.6 911,-871.6"/>
<polygon fill="#ffffff" stroke="transparent" points="954,-871.6 954,-907.6 974,-907.6 974,-871.6 954,-871.6"/>
<polygon fill="#ffffff" stroke="transparent" points="526,-833.6 526,-869.6 546,-869.6 546,-833.6 526,-833.6"/>
<polygon fill="#a4c2f4" stroke="transparent" points="548,-833.6 548,-869.6 632,-869.6 632,-833.6 548,-833.6"/>
<text text-anchor="start" x="565.1262" y="-847" font-family="Times,serif" font-size="14.00" fill="#000000">Truncate</text>
<polygon fill="#a4c2f4" stroke="transparent" points="634,-833.6 634,-869.6 700,-869.6 700,-833.6 634,-833.6"/>
<text text-anchor="start" x="653.0014" y="-847" font-family="Times,serif" font-size="14.00" fill="#000000">Sync</text>
<polygon fill="#a4c2f4" stroke="transparent" points="702,-833.6 702,-869.6 802,-869.6 802,-833.6 702,-833.6"/>
<text text-anchor="start" x="711.9593" y="-847" font-family="Times,serif" font-size="14.00" fill="#000000">Readdirnames</text>
<polygon fill="#ffffff" stroke="transparent" points="804,-833.6 804,-869.6 824,-869.6 824,-833.6 804,-833.6"/>
<polygon fill="#ffffff" stroke="transparent" points="911,-833.6 911,-869.6 952,-869.6 952,-833.6 911,-833.6"/>
<polygon fill="#ffffff" stroke="transparent" points="954,-833.6 954,-869.6 974,-869.6 974,-833.6 954,-833.6"/>
<polygon fill="#ffffff" stroke="transparent" points="526,-795.6 526,-831.6 546,-831.6 546,-795.6 526,-795.6"/>
<polygon fill="#ffffff" stroke="transparent" points="548,-795.6 548,-831.6 632,-831.6 632,-795.6 548,-795.6"/>
<polygon fill="#ffffff" stroke="transparent" points="634,-795.6 634,-831.6 700,-831.6 700,-795.6 634,-795.6"/>
<polygon fill="#a4c2f4" stroke="transparent" points="702,-795.6 702,-831.6 802,-831.6 802,-795.6 702,-795.6"/>
<text text-anchor="start" x="718.9523" y="-809" font-family="Times,serif" font-size="14.00" fill="#000000">WriteString</text>
<polygon fill="#ffffff" stroke="transparent" points="804,-795.6 804,-831.6 824,-831.6 824,-795.6 804,-795.6"/>
<polygon fill="#ffffff" stroke="transparent" points="911,-795.6 911,-831.6 952,-831.6 952,-795.6 911,-795.6"/>
<polygon fill="#ffffff" stroke="transparent" points="954,-795.6 954,-831.6 974,-831.6 974,-795.6 954,-795.6"/>
<polygon fill="#ffffff" stroke="transparent" points="526,-773.6 526,-793.6 546,-793.6 546,-773.6 526,-773.6"/>
<polygon fill="#ffffff" stroke="transparent" points="526,-735.6 526,-771.6 546,-771.6 546,-735.6 526,-735.6"/>
<polygon fill="#a4c2f4" stroke="transparent" points="548,-735.6 548,-771.6 632,-771.6 632,-735.6 548,-735.6"/>
<text text-anchor="start" x="563.5582" y="-749" font-family="Times,serif" font-size="14.00" fill="#000000">MkdirAll</text>
<polygon fill="#a4c2f4" stroke="transparent" points="634,-735.6 634,-771.6 700,-771.6 700,-735.6 634,-735.6"/>
<text text-anchor="start" x="649.5021" y="-749" font-family="Times,serif" font-size="14.00" fill="#000000">Mkdir</text>
<polygon fill="#a4c2f4" stroke="transparent" points="702,-735.6 702,-771.6 802,-771.6 802,-735.6 702,-735.6"/>
<text text-anchor="start" x="733.7342" y="-749" font-family="Times,serif" font-size="14.00" fill="#000000">Create</text>
<polygon fill="#ffffff" stroke="transparent" points="804,-735.6 804,-771.6 824,-771.6 824,-735.6 804,-735.6"/>
<polygon fill="#b4a7d6" stroke="transparent" points="826,-545.6 826,-771.6 909,-771.6 909,-545.6 826,-545.6"/>
<text text-anchor="start" x="838.3429" y="-654.4" font-family="Times,serif" font-size="14.00" fill="#000000">OverlayFs</text>
<polygon fill="#f3f3f3" stroke="transparent" points="911,-735.6 911,-771.6 952,-771.6 952,-735.6 911,-735.6"/>
<text text-anchor="start" x="923.7251" y="-749" font-family="Times,serif" font-size="14.00" fill="#000000">fss</text>
<polygon fill="#ffffff" stroke="transparent" points="954,-735.6 954,-771.6 974,-771.6 974,-735.6 954,-735.6"/>
<polygon fill="#ffffff" stroke="transparent" points="526,-697.6 526,-733.6 546,-733.6 546,-697.6 526,-697.6"/>
<polygon fill="#a4c2f4" stroke="transparent" points="548,-697.6 548,-733.6 632,-733.6 632,-697.6 548,-697.6"/>
<text text-anchor="start" x="557.7279" y="-711" font-family="Times,serif" font-size="14.00" fill="#000000">RemoveAll</text>
<polygon fill="#a4c2f4" stroke="transparent" points="634,-697.6 634,-733.6 700,-733.6 700,-697.6 634,-697.6"/>
<text text-anchor="start" x="643.6718" y="-711" font-family="Times,serif" font-size="14.00" fill="#000000">Remove</text>
<polygon fill="#a4c2f4" stroke="transparent" points="702,-697.6 702,-733.6 802,-733.6 802,-697.6 702,-697.6"/>
<text text-anchor="start" x="725.9502" y="-711" font-family="Times,serif" font-size="14.00" fill="#000000">OpenFile</text>
<polygon fill="#ffffff" stroke="transparent" points="804,-697.6 804,-733.6 824,-733.6 824,-697.6 804,-697.6"/>
<polygon fill="#ffffff" stroke="transparent" points="911,-697.6 911,-733.6 952,-733.6 952,-697.6 911,-697.6"/>
<polygon fill="#ffffff" stroke="transparent" points="954,-697.6 954,-733.6 974,-733.6 974,-697.6 954,-697.6"/>
<polygon fill="#ffffff" stroke="transparent" points="526,-659.6 526,-695.6 546,-695.6 546,-659.6 526,-659.6"/>
<polygon fill="#a4c2f4" stroke="transparent" points="548,-659.6 548,-695.6 632,-695.6 632,-659.6 548,-659.6"/>
<text text-anchor="start" x="569.3864" y="-673" font-family="Times,serif" font-size="14.00" fill="#000000">Chmod</text>
<polygon fill="#a4c2f4" stroke="transparent" points="634,-659.6 634,-695.6 700,-695.6 700,-659.6 634,-659.6"/>
<text text-anchor="start" x="650.2868" y="-673" font-family="Times,serif" font-size="14.00" fill="#000000">Name</text>
<polygon fill="#a4c2f4" stroke="transparent" points="702,-659.6 702,-695.6 802,-695.6 802,-659.6 702,-659.6"/>
<text text-anchor="start" x="729.0645" y="-673" font-family="Times,serif" font-size="14.00" fill="#000000">Rename</text>
<polygon fill="#ffffff" stroke="transparent" points="804,-659.6 804,-695.6 824,-695.6 824,-659.6 804,-659.6"/>
<polygon fill="#ffffff" stroke="transparent" points="911,-659.6 911,-695.6 952,-695.6 952,-659.6 911,-659.6"/>
<polygon fill="#ffffff" stroke="transparent" points="954,-659.6 954,-695.6 974,-695.6 974,-659.6 954,-659.6"/>
<polygon fill="#ffffff" stroke="transparent" points="526,-621.6 526,-657.6 546,-657.6 546,-621.6 526,-621.6"/>
<polygon fill="#a4c2f4" stroke="transparent" points="548,-621.6 548,-657.6 632,-657.6 632,-621.6 548,-621.6"/>
<text text-anchor="start" x="567.8394" y="-635" font-family="Times,serif" font-size="14.00" fill="#000000">Append</text>
<polygon fill="#a4c2f4" stroke="transparent" points="634,-621.6 634,-657.6 700,-657.6 700,-621.6 634,-621.6"/>
<text text-anchor="start" x="643.6662" y="-635" font-family="Times,serif" font-size="14.00" fill="#000000">Chtimes</text>
<polygon fill="#a4c2f4" stroke="transparent" points="702,-621.6 702,-657.6 802,-657.6 802,-621.6 702,-621.6"/>
<text text-anchor="start" x="731.7784" y="-635" font-family="Times,serif" font-size="14.00" fill="#000000">Chown</text>
<polygon fill="#ffffff" stroke="transparent" points="804,-621.6 804,-657.6 824,-657.6 824,-621.6 804,-621.6"/>
<polygon fill="#ffffff" stroke="transparent" points="911,-621.6 911,-657.6 952,-657.6 952,-621.6 911,-621.6"/>
<polygon fill="#ffffff" stroke="transparent" points="954,-621.6 954,-657.6 974,-657.6 974,-621.6 954,-621.6"/>
<polygon fill="#ffffff" stroke="transparent" points="526,-583.6 526,-619.6 546,-619.6 546,-583.6 526,-583.6"/>
<polygon fill="#a4c2f4" stroke="transparent" points="548,-583.6 548,-619.6 632,-619.6 632,-583.6 548,-583.6"/>
<text text-anchor="start" x="580.2798" y="-597" font-family="Times,serif" font-size="14.00" fill="#000000">stat</text>
<polygon fill="#a4c2f4" stroke="transparent" points="634,-583.6 634,-619.6 700,-619.6 700,-583.6 634,-583.6"/>
<text text-anchor="start" x="656.1108" y="-597" font-family="Times,serif" font-size="14.00" fill="#000000">Stat</text>
<polygon fill="#a4c2f4" stroke="transparent" points="702,-583.6 702,-619.6 802,-619.6 802,-583.6 702,-583.6"/>
<text text-anchor="start" x="736.8394" y="-597" font-family="Times,serif" font-size="14.00" fill="#000000">Open</text>
<polygon fill="#ffffff" stroke="transparent" points="804,-583.6 804,-619.6 824,-619.6 824,-583.6 804,-583.6"/>
<polygon fill="#ffffff" stroke="transparent" points="911,-583.6 911,-619.6 952,-619.6 952,-583.6 911,-583.6"/>
<polygon fill="#ffffff" stroke="transparent" points="954,-583.6 954,-619.6 974,-619.6 974,-583.6 954,-583.6"/>
<polygon fill="#ffffff" stroke="transparent" points="526,-545.6 526,-581.6 546,-581.6 546,-545.6 526,-545.6"/>
<polygon fill="#ffffff" stroke="transparent" points="548,-545.6 548,-581.6 632,-581.6 632,-545.6 548,-545.6"/>
<polygon fill="#ffffff" stroke="transparent" points="634,-545.6 634,-581.6 700,-581.6 700,-545.6 634,-545.6"/>
<polygon fill="#a4c2f4" stroke="transparent" points="702,-545.6 702,-581.6 802,-581.6 802,-545.6 702,-545.6"/>
<text text-anchor="start" x="728.2882" y="-559" font-family="Times,serif" font-size="14.00" fill="#000000">ReadDir</text>
<polygon fill="#ffffff" stroke="transparent" points="804,-545.6 804,-581.6 824,-581.6 824,-545.6 804,-545.6"/>
<polygon fill="#ffffff" stroke="transparent" points="911,-545.6 911,-581.6 952,-581.6 952,-545.6 911,-545.6"/>
<polygon fill="#ffffff" stroke="transparent" points="954,-545.6 954,-581.6 974,-581.6 974,-545.6 954,-545.6"/>
<polygon fill="#ffffff" stroke="transparent" points="526,-523.6 526,-543.6 546,-543.6 546,-523.6 526,-523.6"/>
<polygon fill="#ffffff" stroke="transparent" points="526,-485.6 526,-521.6 546,-521.6 546,-485.6 526,-485.6"/>
<polygon fill="#ffffff" stroke="transparent" points="548,-485.6 548,-521.6 632,-521.6 632,-485.6 548,-485.6"/>
<polygon fill="#ead1dc" stroke="transparent" points="634,-485.6 634,-521.6 700,-521.6 700,-485.6 634,-485.6"/>
<text text-anchor="start" x="657.6641" y="-499" font-family="Times,serif" font-size="14.00" fill="#000000">Fss</text>
<polygon fill="#ead1dc" stroke="transparent" points="702,-485.6 702,-521.6 802,-521.6 802,-485.6 702,-485.6"/>
<text text-anchor="start" x="740.7244" y="-499" font-family="Times,serif" font-size="14.00" fill="#000000">Abs</text>
<polygon fill="#ffffff" stroke="transparent" points="804,-485.6 804,-521.6 824,-521.6 824,-485.6 804,-485.6"/>
<polygon fill="#9fc5e8" stroke="transparent" points="826,-485.6 826,-521.6 909,-521.6 909,-485.6 826,-485.6"/>
<text text-anchor="start" x="835.9993" y="-499" font-family="Times,serif" font-size="14.00" fill="#000000">AbsStatFss</text>
<polygon fill="#ffffff" stroke="transparent" points="911,-485.6 911,-521.6 952,-521.6 952,-485.6 911,-485.6"/>
<polygon fill="#ffffff" stroke="transparent" points="954,-485.6 954,-521.6 974,-521.6 974,-485.6 954,-485.6"/>
<polygon fill="#ffffff" stroke="transparent" points="526,-463.6 526,-483.6 546,-483.6 546,-463.6 526,-463.6"/>
<polygon fill="#ffffff" stroke="transparent" points="526,-425.6 526,-461.6 974,-461.6 974,-425.6 526,-425.6"/>
<text text-anchor="start" x="723.9572" y="-439" font-family="Times,serif" font-size="14.00" fill="#000000">overlayfs</text>
</g>
<!-- ddyVTic&#45;&gt;ddyVTic -->
<g id="edge2" class="edge">
<title>ddyVTic:dc17YGP-&gt;ddyVTic:diPTEb</title>
<g id="a_edge2"><a xlink:title="OverlayFs.fss -&gt; AbsStatFss: &#10;&#10;From: overlayfs.go (Line: 24, Column: 2) To: . (Line: -1, Column: 0)&#10;">
<path fill="none" stroke="#000000" stroke-dasharray="1,5" d="M946.25,-771.9132C992.0167,-828.5435 1002,-812.39 1002,-628.6 1002,-451.9893 963.5891,-430.1743 897.5406,-478.9893"/>
<polygon fill="#000000" stroke="#000000" points="895.1441,-476.4169 889.3496,-485.2868 899.4107,-481.9663 895.1441,-476.4169"/>
</a>
</g>
<text text-anchor="middle" x="1005.5" y="-703.4" font-family="Times,serif" font-size="14.00" fill="#000000">1</text>
</g>
<!-- dexw6vf -->
<g id="node3" class="node">
<title>dexw6vf</title>
<polygon fill="none" stroke="#000000" stroke-dasharray="1,5" points="889.5,-306 610.5,-306 610.5,-176 889.5,-176 889.5,-306"/>
<polygon fill="#ffffff" stroke="transparent" points="621,-280 621,-300 641,-300 641,-280 621,-280"/>
<polygon fill="#ffffff" stroke="transparent" points="621,-242 621,-278 641,-278 641,-242 621,-242"/>
<polygon fill="#ead1dc" stroke="transparent" points="643,-242 643,-278 708,-278 708,-242 643,-242"/>
<text text-anchor="start" x="652.5659" y="-255.4" font-family="Times,serif" font-size="14.00" fill="#000000">readFile</text>
<polygon fill="#ffffff" stroke="transparent" points="710,-242 710,-278 730,-278 730,-242 710,-242"/>
<polygon fill="#ead1dc" stroke="transparent" points="732,-242 732,-278 786,-278 786,-242 732,-242"/>
<text text-anchor="start" x="741.5098" y="-255.4" font-family="Times,serif" font-size="14.00" fill="#000000">merge</text>
<polygon fill="#ffffff" stroke="transparent" points="788,-242 788,-278 808,-278 808,-242 788,-242"/>
<polygon fill="#ead1dc" stroke="transparent" points="810,-242 810,-278 856,-278 856,-242 810,-242"/>
<text text-anchor="start" x="819.7861" y="-255.4" font-family="Times,serif" font-size="14.00" fill="#000000">New</text>
<polygon fill="#ffffff" stroke="transparent" points="858,-242 858,-278 878,-278 878,-242 858,-242"/>
<polygon fill="#ffffff" stroke="transparent" points="621,-220 621,-240 641,-240 641,-220 621,-220"/>
<polygon fill="#ffffff" stroke="transparent" points="621,-182 621,-218 880,-218 880,-182 621,-182"/>
<text text-anchor="start" x="727.1718" y="-195.4" font-family="Times,serif" font-size="14.00" fill="#000000">function</text>
</g>
<!-- ddyVTic&#45;&gt;dexw6vf -->
<g id="edge1" class="edge">
<title>ddyVTic-&gt;dexw6vf</title>
<g id="a_edge1"><a xlink:title="overlayfs -&gt; function: &#10;&#10;">
<path fill="none" stroke="#000000" stroke-dasharray="1,5" d="M750,-419.3987C750,-381.5964 750,-345.833 750,-316.3919"/>
<polygon fill="#000000" stroke="#000000" points="753.5001,-316.249 750,-306.249 746.5001,-316.249 753.5001,-316.249"/>
</a>
</g>
<text text-anchor="middle" x="753.5" y="-370" font-family="Times,serif" font-size="14.00" fill="#000000">1</text>
</g>
</g>
</svg>