<?xml version="1.0" encoding="UTF-8" standalone="no"?><!DOCTYPE svg PUBLIC "-//W3C//DTD SVG 1.1//EN" "http://www.w3.org/Graphics/SVG/1.1/DTD/svg11.dtd"><!-- Generated by graphviz version 2.40.1 (20161225.0304)
 --><!-- Title: %0 Pages: 1 --><svg xmlns="http://www.w3.org/2000/svg" xmlns:xlink="http://www.w3.org/1999/xlink" width="2624pt" height="3407pt" viewBox="0.00 0.00 2624.00 3407.20">
<g id="graph0" class="graph" transform="scale(1 1) rotate(0) translate(4 3403.2)">
<title>%0</title>
<polygon fill="#ffffff" stroke="transparent" points="-4,4 -4,-3403.2 2620,-3403.2 2620,4 -4,4"/>
<text text-anchor="middle" x="1308" y="-82" font-family="Times,serif" font-size="20.00" fill="#000000">github.com/dddplayer/hugoverse</text>
<text text-anchor="middle" x="1308" y="-58" font-family="Times,serif" font-size="20.00" fill="#000000">Domain Model</text>
<text text-anchor="middle" x="1308" y="-10" font-family="Times,serif" font-size="20.00" fill="#000000">Powered by DDD Player</text>
<g id="clust1" class="cluster">
<title>cluster_dUQ30Z</title>
<polygon fill="none" stroke="#000000" points="8,-160 8,-3391.2 2608,-3391.2 2608,-160 8,-160"/>
<text text-anchor="middle" x="1308" y="-3374.6" font-family="Times,serif" font-size="14.00" fill="#000000">github.com/dddplayer/hugoverse</text>
</g>
<g id="clust2" class="cluster">
<title>cluster_dbPwjkq</title>
<polygon fill="none" stroke="#000000" points="2337,-3014.8 2337,-3185.6 2588,-3185.6 2588,-3014.8 2337,-3014.8"/>
<text text-anchor="middle" x="2462.5" y="-3169" font-family="Times,serif" font-size="14.00" fill="#000000">github.com/dddplayer/hugoverse/function</text>
</g>
<g id="clust3" class="cluster">
<title>cluster_di7GIv</title>
<polygon fill="none" stroke="#000000" points="16,-168 16,-3166.6 2297,-3166.6 2297,-168 16,-168"/>
<text text-anchor="middle" x="1156.5" y="-3150" font-family="Times,serif" font-size="14.00" fill="#000000">github.com/dddplayer/hugoverse/internal</text>
</g>
<g id="clust4" class="cluster">
<title>cluster_dWutTC</title>
<polygon fill="none" stroke="#000000" points="1126,-176 1126,-2400.8 2289,-2400.8 2289,-176 1126,-176"/>
<text text-anchor="middle" x="1707.5" y="-2384.2" font-family="Times,serif" font-size="14.00" fill="#000000">github.com/dddplayer/hugoverse/internal/interfaces</text>
</g>
<g id="clust5" class="cluster">
<title>cluster_dbFIgov</title>
<polygon fill="none" stroke="#000000" points="1134,-184 1134,-1570.8 1789,-1570.8 1789,-184 1134,-184"/>
<text text-anchor="middle" x="1461.5" y="-1554.2" font-family="Times,serif" font-size="14.00" fill="#000000">github.com/dddplayer/hugoverse/internal/interfaces/api</text>
</g>
<g id="clust6" class="cluster">
<title>cluster_ddtvzaY</title>
<polygon fill="none" stroke="#000000" points="1261,-192 1261,-362.8 1638,-362.8 1638,-192 1261,-192"/>
<text text-anchor="middle" x="1449.5" y="-346.2" font-family="Times,serif" font-size="14.00" fill="#000000">github.com/dddplayer/hugoverse/internal/interfaces/api/function</text>
</g>
<g id="clust7" class="cluster">
<title>cluster_dcUGxVR</title>
<polygon fill="none" stroke="#000000" points="1797,-1329 1797,-1581.8 2281,-1581.8 2281,-1329 1797,-1329"/>
<text text-anchor="middle" x="2039" y="-1565.2" font-family="Times,serif" font-size="14.00" fill="#000000">github.com/dddplayer/hugoverse/internal/interfaces/cmd</text>
</g>
<g id="clust8" class="cluster">
<title>cluster_dbYmF3O</title>
<polygon fill="none" stroke="#000000" points="24,-645.8 24,-2866 680,-2866 680,-645.8 24,-645.8"/>
<text text-anchor="middle" x="352" y="-2849.4" font-family="Times,serif" font-size="14.00" fill="#000000">github.com/dddplayer/hugoverse/internal/domain</text>
</g>
<g id="clust9" class="cluster">
<title>cluster_dctHGkf</title>
<polygon fill="none" stroke="#000000" points="32,-653.8 32,-2400.8 672,-2400.8 672,-653.8 32,-653.8"/>
<text text-anchor="middle" x="352" y="-2384.2" font-family="Times,serif" font-size="14.00" fill="#000000">github.com/dddplayer/hugoverse/internal/domain/config</text>
</g>
<g id="clust10" class="cluster">
<title>cluster_dbvalZB</title>
<polygon fill="none" stroke="#000000" points="40,-661.8 40,-854.6 664,-854.6 664,-661.8 40,-661.8"/>
<text text-anchor="middle" x="352" y="-838" font-family="Times,serif" font-size="14.00" fill="#000000">github.com/dddplayer/hugoverse/internal/domain/config/entity</text>
</g>
<g id="clust11" class="cluster">
<title>cluster_dCbZAW</title>
<polygon fill="none" stroke="#000000" points="688,-1001.4 688,-2021.2 1118,-2021.2 1118,-1001.4 688,-1001.4"/>
<text text-anchor="middle" x="903" y="-2004.6" font-family="Times,serif" font-size="14.00" fill="#000000">github.com/dddplayer/hugoverse/internal/application</text>
</g>
<g id="clust12" class="cluster">
<title>cluster_ddeNuT</title>
<polygon fill="none" stroke="#000000" points="696,-1009.4 696,-1180.2 1110,-1180.2 1110,-1009.4 696,-1009.4"/>
<text text-anchor="middle" x="903" y="-1163.6" font-family="Times,serif" font-size="14.00" fill="#000000">github.com/dddplayer/hugoverse/internal/application/function</text>
</g>
<g id="clust13" class="cluster">
<title>cluster_d5iImG</title>
<polygon fill="none" stroke="#000000" points="2305,-1652.6 2305,-2211 2600,-2211 2600,-1652.6 2305,-1652.6"/>
<text text-anchor="middle" x="2452.5" y="-2194.4" font-family="Times,serif" font-size="14.00" fill="#000000">github.com/dddplayer/hugoverse/cmd</text>
</g>
<g id="clust14" class="cluster">
<title>cluster_ddREsL</title>
<polygon fill="none" stroke="#000000" points="2313,-1660.6 2313,-1831.4 2592,-1831.4 2592,-1660.6 2313,-1660.6"/>
<text text-anchor="middle" x="2452.5" y="-1814.8" font-family="Times,serif" font-size="14.00" fill="#000000">github.com/dddplayer/hugoverse/cmd/function</text>
</g>
<!-- dUQ30Z -->
<g id="node1" class="node">
<title>dUQ30Z</title>
<polygon fill="none" stroke="#000000" stroke-dasharray="1,5" points="2380.5,-3358.4 2273.5,-3358.4 2273.5,-3266.4 2380.5,-3266.4 2380.5,-3358.4"/>
<polygon fill="#ffffff" stroke="transparent" points="2284,-3332.4 2284,-3352.4 2332,-3352.4 2332,-3332.4 2284,-3332.4"/>
<polygon fill="#ffffff" stroke="transparent" points="2284,-3310.4 2284,-3330.4 2332,-3330.4 2332,-3310.4 2284,-3310.4"/>
<polygon fill="#ffffff" stroke="transparent" points="2284,-3272.4 2284,-3308.4 2371,-3308.4 2371,-3272.4 2284,-3272.4"/>
<text text-anchor="start" x="2298.7328" y="-3285.8" font-family="Times,serif" font-size="14.00" fill="#000000">hugoverse</text>
</g>
<!-- dbPwjkq -->
<g id="node2" class="node">
<title>dbPwjkq</title>
<polygon fill="none" stroke="#000000" stroke-dasharray="1,5" points="2463.5,-3152.8 2346.5,-3152.8 2346.5,-3022.8 2463.5,-3022.8 2463.5,-3152.8"/>
<polygon fill="#ffffff" stroke="transparent" points="2357,-3126.8 2357,-3146.8 2377,-3146.8 2377,-3126.8 2357,-3126.8"/>
<polygon fill="#ffffff" stroke="transparent" points="2357,-3088.8 2357,-3124.8 2377,-3124.8 2377,-3088.8 2357,-3088.8"/>
<polygon fill="#ead1dc" stroke="transparent" points="2379,-3088.8 2379,-3124.8 2432,-3124.8 2432,-3088.8 2379,-3088.8"/>
<text text-anchor="start" x="2391.5021" y="-3102.2" font-family="Times,serif" font-size="14.00" fill="#000000">main</text>
<polygon fill="#ffffff" stroke="transparent" points="2434,-3088.8 2434,-3124.8 2454,-3124.8 2454,-3088.8 2434,-3088.8"/>
<polygon fill="#ffffff" stroke="transparent" points="2357,-3066.8 2357,-3086.8 2377,-3086.8 2377,-3066.8 2357,-3066.8"/>
<polygon fill="#ffffff" stroke="transparent" points="2357,-3028.8 2357,-3064.8 2454,-3064.8 2454,-3028.8 2357,-3028.8"/>
<text text-anchor="start" x="2382.1718" y="-3042.2" font-family="Times,serif" font-size="14.00" fill="#000000">function</text>
</g>
<!-- dUQ30Z&#45;&gt;dbPwjkq -->
<g id="edge20" class="edge">
<title>dUQ30Z-&gt;dbPwjkq</title>
<g id="a_edge20"><a xlink:title="hugoverse -&gt; function: &#10;&#10;">
<path fill="none" stroke="#000000" stroke-dasharray="1,5" d="M2343.0671,-3266.1351C2353.4212,-3236.3206 2367.12,-3196.8751 2379.001,-3162.6638"/>
<polygon fill="#000000" stroke="#000000" points="2382.3252,-3163.7604 2382.2996,-3153.1656 2375.7126,-3161.4639 2382.3252,-3163.7604"/>
</a>
</g>
<text text-anchor="middle" x="2364.5" y="-3216.8" font-family="Times,serif" font-size="14.00" fill="#000000">1</text>
</g>
<!-- di7GIv -->
<g id="node3" class="node">
<title>di7GIv</title>
<polygon fill="none" stroke="#000000" stroke-dasharray="1,5" points="1130,-3133.8 1038,-3133.8 1038,-3041.8 1130,-3041.8 1130,-3133.8"/>
<polygon fill="#ffffff" stroke="transparent" points="1048,-3107.8 1048,-3127.8 1089,-3127.8 1089,-3107.8 1048,-3107.8"/>
<polygon fill="#ffffff" stroke="transparent" points="1048,-3085.8 1048,-3105.8 1089,-3105.8 1089,-3085.8 1048,-3085.8"/>
<polygon fill="#ffffff" stroke="transparent" points="1048,-3047.8 1048,-3083.8 1120,-3083.8 1120,-3047.8 1048,-3047.8"/>
<text text-anchor="start" x="1062.6192" y="-3061.2" font-family="Times,serif" font-size="14.00" fill="#000000">internal</text>
</g>
<!-- dUQ30Z&#45;&gt;di7GIv -->
<g id="edge13" class="edge">
<title>dUQ30Z-&gt;di7GIv</title>
<g id="a_edge13"><a xlink:title="hugoverse -&gt; internal: &#10;&#10;">
<path fill="none" stroke="#000000" stroke-dasharray="1,5" d="M2273.3906,-3309.6904C2053.6675,-3298.185 1229.1128,-3250.9555 1134,-3185.6 1119.7089,-3175.78 1109.2618,-3160.5973 1101.7311,-3145.1004"/>
<polygon fill="#000000" stroke="#000000" points="1101.602,-3144.8082 1095.5174,-3140.938 1096.7497,-3133.8329 1102.8343,-3137.7032 1101.602,-3144.8082"/>
</a>
</g>
<text text-anchor="middle" x="1310.5" y="-3216.8" font-family="Times,serif" font-size="14.00" fill="#000000">1</text>
</g>
<!-- d5iImG -->
<g id="node13" class="node">
<title>d5iImG</title>
<polygon fill="none" stroke="#000000" stroke-dasharray="1,5" points="2387,-2178.2 2313,-2178.2 2313,-2086.2 2387,-2086.2 2387,-2178.2"/>
<polygon fill="#ffffff" stroke="transparent" points="2323,-2152.2 2323,-2172.2 2355,-2172.2 2355,-2152.2 2323,-2152.2"/>
<polygon fill="#ffffff" stroke="transparent" points="2323,-2130.2 2323,-2150.2 2355,-2150.2 2355,-2130.2 2323,-2130.2"/>
<polygon fill="#ffffff" stroke="transparent" points="2323,-2092.2 2323,-2128.2 2377,-2128.2 2377,-2092.2 2323,-2092.2"/>
<text text-anchor="start" x="2337.9474" y="-2105.6" font-family="Times,serif" font-size="14.00" fill="#000000">cmd</text>
</g>
<!-- dUQ30Z&#45;&gt;d5iImG -->
<g id="edge7" class="edge">
<title>dUQ30Z-&gt;d5iImG</title>
<g id="a_edge7"><a xlink:title="hugoverse -&gt; cmd: &#10;&#10;">
<path fill="none" stroke="#000000" stroke-dasharray="1,5" d="M2327,-3266.3713C2327,-3251.8548 2327,-3235.7573 2327,-3221 2327,-3221 2327,-3221 2327,-2238.5 2327,-2222.7071 2329.4552,-2205.8867 2332.7612,-2190.3962"/>
<polygon fill="#000000" stroke="#000000" points="2332.8545,-2189.9932 2330.3128,-2183.2449 2335.5644,-2178.3032 2338.1061,-2185.0515 2332.8545,-2189.9932"/>
</a>
</g>
<text text-anchor="middle" x="2330.5" y="-2653.6" font-family="Times,serif" font-size="14.00" fill="#000000">1</text>
</g>
<!-- ddREsL -->
<g id="node14" class="node">
<title>ddREsL</title>
<polygon fill="none" stroke="#000000" stroke-dasharray="1,5" points="2437,-1798.6 2321,-1798.6 2321,-1668.6 2437,-1668.6 2437,-1798.6"/>
<polygon fill="#ffffff" stroke="transparent" points="2331,-1772.6 2331,-1792.6 2351,-1792.6 2351,-1772.6 2331,-1772.6"/>
<polygon fill="#ffffff" stroke="transparent" points="2331,-1734.6 2331,-1770.6 2351,-1770.6 2351,-1734.6 2331,-1734.6"/>
<polygon fill="#ead1dc" stroke="transparent" points="2353,-1734.6 2353,-1770.6 2405,-1770.6 2405,-1734.6 2353,-1734.6"/>
<text text-anchor="start" x="2365.7861" y="-1748" font-family="Times,serif" font-size="14.00" fill="#000000">New</text>
<polygon fill="#ffffff" stroke="transparent" points="2407,-1734.6 2407,-1770.6 2427,-1770.6 2427,-1734.6 2407,-1734.6"/>
<polygon fill="#ffffff" stroke="transparent" points="2331,-1712.6 2331,-1732.6 2351,-1732.6 2351,-1712.6 2331,-1712.6"/>
<polygon fill="#ffffff" stroke="transparent" points="2331,-1674.6 2331,-1710.6 2427,-1710.6 2427,-1674.6 2331,-1674.6"/>
<text text-anchor="start" x="2355.6718" y="-1688" font-family="Times,serif" font-size="14.00" fill="#000000">function</text>
</g>
<!-- dbPwjkq&#45;&gt;ddREsL -->
<g id="edge10" class="edge">
<title>dbPwjkq:dcdc8xt-&gt;ddREsL:dcvzibt</title>
<g id="a_edge10"><a xlink:title="main -&gt; New: &#10;&#10;From: main.go (Line: 10, Column: 16) To: command.go (Line: 11, Column: 6)&#10;">
<path fill="none" stroke="#000000" d="M2406,-3088.6855C2406,-3064.9429 2406,-3022.0031 2406,-2985.3 2406,-2985.3 2406,-2985.3 2406,-1858.9 2406,-1831.5734 2397.5144,-1801.4777 2390.0574,-1780.3059"/>
<polygon fill="#000000" stroke="#000000" points="2393.255,-1778.8601 2386.521,-1770.6806 2386.6844,-1781.2742 2393.255,-1778.8601"/>
</a>
</g>
<text text-anchor="middle" x="2409.5" y="-2508" font-family="Times,serif" font-size="14.00" fill="#000000">2</text>
</g>
<!-- dWutTC -->
<g id="node4" class="node">
<title>dWutTC</title>
<polygon fill="none" stroke="#000000" stroke-dasharray="1,5" points="1501,-2368 1397,-2368 1397,-2276 1501,-2276 1501,-2368"/>
<polygon fill="#ffffff" stroke="transparent" points="1407,-2342 1407,-2362 1454,-2362 1454,-2342 1407,-2342"/>
<polygon fill="#ffffff" stroke="transparent" points="1407,-2320 1407,-2340 1454,-2340 1454,-2320 1407,-2320"/>
<polygon fill="#ffffff" stroke="transparent" points="1407,-2282 1407,-2318 1491,-2318 1491,-2282 1407,-2282"/>
<text text-anchor="start" x="1421.7973" y="-2295.4" font-family="Times,serif" font-size="14.00" fill="#000000">interfaces</text>
</g>
<!-- di7GIv&#45;&gt;dWutTC -->
<g id="edge15" class="edge">
<title>di7GIv-&gt;dWutTC</title>
<g id="a_edge15"><a xlink:title="internal -&gt; interfaces: &#10;&#10;">
<path fill="none" stroke="#000000" stroke-dasharray="1,5" d="M1107.0215,-3041.6094C1114.2801,-3031.2528 1123.2672,-3021.3935 1134,-3014.8 1176.5921,-2988.6344 1357,-3035.2873 1357,-2985.3 1357,-2985.3 1357,-2985.3 1357,-2428.3 1357,-2419.353 1355.6784,-2415.1314 1362,-2408.8 1372.0537,-2398.7307 1381.2783,-2408.8667 1393,-2400.8 1402.0364,-2394.5813 1410.1089,-2386.4015 1417.1206,-2377.6674"/>
<polygon fill="#000000" stroke="#000000" points="1417.1298,-2377.6552 1417.5136,-2370.4543 1424.3082,-2368.039 1423.9244,-2375.2399 1417.1298,-2377.6552"/>
</a>
</g>
<text text-anchor="middle" x="1360.5" y="-2653.6" font-family="Times,serif" font-size="14.00" fill="#000000">1</text>
</g>
<!-- dbYmF3O -->
<g id="node8" class="node">
<title>dbYmF3O</title>
<polygon fill="none" stroke="#000000" stroke-dasharray="1,5" points="653.5,-2833.2 562.5,-2833.2 562.5,-2741.2 653.5,-2741.2 653.5,-2833.2"/>
<polygon fill="#ffffff" stroke="transparent" points="573,-2807.2 573,-2827.2 613,-2827.2 613,-2807.2 573,-2807.2"/>
<polygon fill="#ffffff" stroke="transparent" points="573,-2785.2 573,-2805.2 613,-2805.2 613,-2785.2 573,-2785.2"/>
<polygon fill="#ffffff" stroke="transparent" points="573,-2747.2 573,-2783.2 644,-2783.2 644,-2747.2 573,-2747.2"/>
<text text-anchor="start" x="587.5021" y="-2760.6" font-family="Times,serif" font-size="14.00" fill="#000000">domain</text>
</g>
<!-- di7GIv&#45;&gt;dbYmF3O -->
<g id="edge12" class="edge">
<title>di7GIv-&gt;dbYmF3O</title>
<g id="a_edge12"><a xlink:title="internal -&gt; domain: &#10;&#10;">
<path fill="none" stroke="#000000" stroke-dasharray="1,5" d="M1037.8168,-3079.4219C963.1032,-3064.5379 824,-3030.7268 824,-2985.3 824,-2985.3 824,-2985.3 824,-2893.5 824,-2856.1083 689.1785,-2886.6407 658,-2866 649.1658,-2860.1516 641.5824,-2852.1496 635.1872,-2843.4757"/>
<polygon fill="#000000" stroke="#000000" points="635.1609,-2843.4366 628.4945,-2840.6873 628.4683,-2833.4762 635.1348,-2836.2256 635.1609,-2843.4366"/>
</a>
</g>
<text text-anchor="middle" x="827.5" y="-2935.2" font-family="Times,serif" font-size="14.00" fill="#000000">1</text>
</g>
<!-- dCbZAW -->
<g id="node11" class="node">
<title>dCbZAW</title>
<polygon fill="none" stroke="#000000" stroke-dasharray="1,5" points="1072,-1988.4 960,-1988.4 960,-1896.4 1072,-1896.4 1072,-1988.4"/>
<polygon fill="#ffffff" stroke="transparent" points="970,-1962.4 970,-1982.4 1021,-1982.4 1021,-1962.4 970,-1962.4"/>
<polygon fill="#ffffff" stroke="transparent" points="970,-1940.4 970,-1960.4 1021,-1960.4 1021,-1940.4 970,-1940.4"/>
<polygon fill="#ffffff" stroke="transparent" points="970,-1902.4 970,-1938.4 1062,-1938.4 1062,-1902.4 970,-1902.4"/>
<text text-anchor="start" x="984.8969" y="-1915.8" font-family="Times,serif" font-size="14.00" fill="#000000">application</text>
</g>
<!-- di7GIv&#45;&gt;dCbZAW -->
<g id="edge23" class="edge">
<title>di7GIv-&gt;dCbZAW</title>
<g id="a_edge23"><a xlink:title="internal -&gt; application: &#10;&#10;">
<path fill="none" stroke="#000000" stroke-dasharray="1,5" d="M1072.3968,-3041.6678C1068.9138,-3024.1369 1066,-3003.9095 1066,-2985.3 1066,-2985.3 1066,-2985.3 1066,-2048.7 1066,-2031.7965 1060.7589,-2014.6959 1053.6705,-1999.2977"/>
<polygon fill="#000000" stroke="#000000" points="1053.5956,-1999.1476 1047.3353,-1995.5687 1048.2311,-1988.4134 1054.4914,-1991.9923 1053.5956,-1999.1476"/>
</a>
</g>
<text text-anchor="middle" x="1069.5" y="-2561.8" font-family="Times,serif" font-size="14.00" fill="#000000">1</text>
</g>
<!-- dbFIgov -->
<g id="node5" class="node">
<title>dbFIgov</title>
<polygon fill="none" stroke="#000000" stroke-dasharray="1,5" points="1756,-1538 1142,-1538 1142,-1348 1756,-1348 1756,-1538"/>
<polygon fill="#ffffff" stroke="transparent" points="1152,-1512 1152,-1532 1172,-1532 1172,-1512 1152,-1512"/>
<polygon fill="#ffffff" stroke="transparent" points="1152,-1490 1152,-1510 1172,-1510 1172,-1490 1152,-1490"/>
<polygon fill="#ffffff" stroke="transparent" points="1152,-1452 1152,-1488 1172,-1488 1172,-1452 1152,-1452"/>
<polygon fill="#a4c2f4" stroke="transparent" points="1174,-1452 1174,-1488 1260,-1488 1260,-1452 1174,-1452"/>
<text text-anchor="start" x="1183.5666" y="-1465.4" font-family="Times,serif" font-size="14.00" fill="#000000">ServeHTTP</text>
<polygon fill="#a4c2f4" stroke="transparent" points="1262,-1452 1262,-1488 1369,-1488 1369,-1452 1262,-1452"/>
<text text-anchor="start" x="1271.9684" y="-1465.4" font-family="Times,serif" font-size="14.00" fill="#000000">registerHandler</text>
<polygon fill="#a4c2f4" stroke="transparent" points="1371,-1452 1371,-1488 1506,-1488 1506,-1452 1371,-1452"/>
<text text-anchor="start" x="1400.3962" y="-1465.4" font-family="Times,serif" font-size="14.00" fill="#000000">handleConfig</text>
<polygon fill="#ffffff" stroke="transparent" points="1508,-1452 1508,-1488 1528,-1488 1528,-1452 1508,-1452"/>
<polygon fill="#b4a7d6" stroke="transparent" points="1530,-1414 1530,-1488 1586,-1488 1586,-1414 1530,-1414"/>
<text text-anchor="start" x="1539.7335" y="-1446.8" font-family="Times,serif" font-size="14.00" fill="#000000">Server</text>
<polygon fill="#f3f3f3" stroke="transparent" points="1588,-1452 1588,-1488 1632,-1488 1632,-1452 1588,-1452"/>
<text text-anchor="start" x="1597.5547" y="-1465.4" font-family="Times,serif" font-size="14.00" fill="#000000">mux</text>
<polygon fill="#f3f3f3" stroke="transparent" points="1634,-1452 1634,-1488 1702,-1488 1702,-1452 1634,-1452"/>
<text text-anchor="start" x="1652.0708" y="-1465.4" font-family="Times,serif" font-size="14.00" fill="#000000">cache</text>
<polygon fill="#ffffff" stroke="transparent" points="1704,-1452 1704,-1488 1724,-1488 1724,-1452 1704,-1452"/>
<polygon fill="#ffffff" stroke="transparent" points="1726,-1452 1726,-1488 1746,-1488 1746,-1452 1726,-1452"/>
<polygon fill="#ffffff" stroke="transparent" points="1152,-1414 1152,-1450 1172,-1450 1172,-1414 1152,-1414"/>
<polygon fill="#ffffff" stroke="transparent" points="1174,-1414 1174,-1450 1260,-1450 1260,-1414 1174,-1414"/>
<polygon fill="#ffffff" stroke="transparent" points="1262,-1414 1262,-1450 1369,-1450 1369,-1414 1262,-1414"/>
<polygon fill="#a4c2f4" stroke="transparent" points="1371,-1414 1371,-1450 1506,-1450 1506,-1414 1371,-1414"/>
<text text-anchor="start" x="1380.5708" y="-1427.4" font-family="Times,serif" font-size="14.00" fill="#000000">writeJSONResponse</text>
<polygon fill="#ffffff" stroke="transparent" points="1508,-1414 1508,-1450 1528,-1450 1528,-1414 1508,-1414"/>
<polygon fill="#f3f3f3" stroke="transparent" points="1588,-1414 1588,-1450 1632,-1450 1632,-1414 1588,-1414"/>
<text text-anchor="start" x="1598.7237" y="-1427.4" font-family="Times,serif" font-size="14.00" fill="#000000">Log</text>
<polygon fill="#f3f3f3" stroke="transparent" points="1634,-1414 1634,-1450 1702,-1450 1702,-1414 1634,-1414"/>
<text text-anchor="start" x="1643.8892" y="-1427.4" font-family="Times,serif" font-size="14.00" fill="#000000">ProjPath</text>
<polygon fill="#ffffff" stroke="transparent" points="1704,-1414 1704,-1450 1724,-1450 1724,-1414 1704,-1414"/>
<polygon fill="#ffffff" stroke="transparent" points="1726,-1414 1726,-1450 1746,-1450 1746,-1414 1726,-1414"/>
<polygon fill="#ffffff" stroke="transparent" points="1152,-1392 1152,-1412 1172,-1412 1172,-1392 1152,-1392"/>
<polygon fill="#ffffff" stroke="transparent" points="1152,-1354 1152,-1390 1746,-1390 1746,-1354 1152,-1354"/>
<text text-anchor="start" x="1440.4474" y="-1367.4" font-family="Times,serif" font-size="14.00" fill="#000000">api</text>
</g>
<!-- dWutTC&#45;&gt;dbFIgov -->
<g id="edge11" class="edge">
<title>dWutTC-&gt;dbFIgov</title>
<g id="a_edge11"><a xlink:title="interfaces -&gt; api: &#10;&#10;">
<path fill="none" stroke="#000000" stroke-dasharray="1,5" d="M1449,-2275.6249C1449,-2263.5395 1449,-2250.5321 1449,-2238.5 1449,-2238.5 1449,-2238.5 1449,-1617.2 1449,-1595.6376 1449,-1572.574 1449,-1550.5177"/>
<polygon fill="#000000" stroke="#000000" points="1449.0001,-1550.3838 1445,-1544.3839 1449,-1538.3838 1453,-1544.3838 1449.0001,-1550.3838"/>
</a>
</g>
<text text-anchor="middle" x="1452.5" y="-1938.2" font-family="Times,serif" font-size="14.00" fill="#000000">1</text>
</g>
<!-- dcUGxVR -->
<g id="node7" class="node">
<title>dcUGxVR</title>
<polygon fill="none" stroke="#000000" stroke-dasharray="1,5" points="2273,-1549 1805,-1549 1805,-1337 2273,-1337 2273,-1549"/>
<polygon fill="#ffffff" stroke="transparent" points="1815,-1523 1815,-1543 1835,-1543 1835,-1523 1815,-1523"/>
<polygon fill="#ffffff" stroke="transparent" points="1815,-1501 1815,-1521 1835,-1521 1835,-1501 1815,-1501"/>
<polygon fill="#ffffff" stroke="transparent" points="1815,-1463 1815,-1499 1835,-1499 1835,-1463 1815,-1463"/>
<polygon fill="#a4c2f4" stroke="transparent" points="1837,-1463 1837,-1499 1880,-1499 1880,-1463 1837,-1463"/>
<text text-anchor="start" x="1846.8317" y="-1476.4" font-family="Times,serif" font-size="14.00" fill="#000000">Run</text>
<polygon fill="#a4c2f4" stroke="transparent" points="1882,-1463 1882,-1499 1936,-1499 1936,-1463 1882,-1463"/>
<text text-anchor="start" x="1891.5098" y="-1476.4" font-family="Times,serif" font-size="14.00" fill="#000000">Usage</text>
<polygon fill="#ffffff" stroke="transparent" points="1938,-1463 1938,-1499 1958,-1499 1958,-1463 1938,-1463"/>
<polygon fill="#b4a7d6" stroke="transparent" points="1960,-1463 1960,-1499 2041,-1499 2041,-1463 1960,-1463"/>
<text text-anchor="start" x="1972.4958" y="-1476.4" font-family="Times,serif" font-size="14.00" fill="#000000">buildCmd</text>
<polygon fill="#f3f3f3" stroke="transparent" points="2043,-1463 2043,-1499 2097,-1499 2097,-1463 2043,-1463"/>
<text text-anchor="start" x="2052.5098" y="-1476.4" font-family="Times,serif" font-size="14.00" fill="#000000">parent</text>
<polygon fill="#f3f3f3" stroke="transparent" points="2099,-1463 2099,-1499 2143,-1499 2143,-1463 2099,-1463"/>
<text text-anchor="start" x="2108.9474" y="-1476.4" font-family="Times,serif" font-size="14.00" fill="#000000">cmd</text>
<polygon fill="#f3f3f3" stroke="transparent" points="2145,-1463 2145,-1499 2241,-1499 2241,-1463 2145,-1463"/>
<text text-anchor="start" x="2154.8892" y="-1476.4" font-family="Times,serif" font-size="14.00" fill="#000000">hugoProjPath</text>
<polygon fill="#ffffff" stroke="transparent" points="2243,-1463 2243,-1499 2263,-1499 2263,-1463 2243,-1463"/>
<polygon fill="#ffffff" stroke="transparent" points="1815,-1441 1815,-1461 1835,-1461 1835,-1441 1815,-1441"/>
<polygon fill="#ffffff" stroke="transparent" points="1815,-1403 1815,-1439 1835,-1439 1835,-1403 1815,-1403"/>
<polygon fill="#a4c2f4" stroke="transparent" points="1837,-1403 1837,-1439 1880,-1439 1880,-1403 1837,-1403"/>
<text text-anchor="start" x="1846.8317" y="-1416.4" font-family="Times,serif" font-size="14.00" fill="#000000">Run</text>
<polygon fill="#a4c2f4" stroke="transparent" points="1882,-1403 1882,-1439 1936,-1439 1936,-1403 1882,-1403"/>
<text text-anchor="start" x="1891.5098" y="-1416.4" font-family="Times,serif" font-size="14.00" fill="#000000">Usage</text>
<polygon fill="#ffffff" stroke="transparent" points="1938,-1403 1938,-1439 1958,-1439 1958,-1403 1938,-1403"/>
<polygon fill="#b4a7d6" stroke="transparent" points="1960,-1403 1960,-1439 2041,-1439 2041,-1403 1960,-1403"/>
<text text-anchor="start" x="1969.7889" y="-1416.4" font-family="Times,serif" font-size="14.00" fill="#000000">serverCmd</text>
<polygon fill="#f3f3f3" stroke="transparent" points="2043,-1403 2043,-1439 2097,-1439 2097,-1403 2043,-1403"/>
<text text-anchor="start" x="2052.5098" y="-1416.4" font-family="Times,serif" font-size="14.00" fill="#000000">parent</text>
<polygon fill="#f3f3f3" stroke="transparent" points="2099,-1403 2099,-1439 2143,-1439 2143,-1403 2099,-1403"/>
<text text-anchor="start" x="2108.9474" y="-1416.4" font-family="Times,serif" font-size="14.00" fill="#000000">cmd</text>
<polygon fill="#f3f3f3" stroke="transparent" points="2145,-1403 2145,-1439 2241,-1439 2241,-1403 2145,-1403"/>
<text text-anchor="start" x="2154.8892" y="-1416.4" font-family="Times,serif" font-size="14.00" fill="#000000">hugoProjPath</text>
<polygon fill="#ffffff" stroke="transparent" points="2243,-1403 2243,-1439 2263,-1439 2263,-1403 2243,-1403"/>
<polygon fill="#ffffff" stroke="transparent" points="1815,-1381 1815,-1401 1835,-1401 1835,-1381 1815,-1381"/>
<polygon fill="#ffffff" stroke="transparent" points="1815,-1343 1815,-1379 2263,-1379 2263,-1343 1815,-1343"/>
<text text-anchor="start" x="2026.9474" y="-1356.4" font-family="Times,serif" font-size="14.00" fill="#000000">cmd</text>
</g>
<!-- dWutTC&#45;&gt;dcUGxVR -->
<g id="edge14" class="edge">
<title>dWutTC-&gt;dcUGxVR</title>
<g id="a_edge14"><a xlink:title="interfaces -&gt; cmd: &#10;&#10;">
<path fill="none" stroke="#000000" stroke-dasharray="1,5" d="M1501.3006,-2277.9546C1502.5295,-2277.2741 1503.7633,-2276.6213 1505,-2276 1566.7906,-2244.958 1656,-2307.6497 1656,-2238.5 1656,-2238.5 1656,-2238.5 1656,-1617.2 1656,-1554.3113 1734.6743,-1605.3183 1793,-1581.8 1812.7622,-1573.8314 1832.9032,-1564.569 1852.725,-1554.6815"/>
<polygon fill="#000000" stroke="#000000" points="1852.9924,-1554.5462 1856.5402,-1548.2682 1863.6998,-1549.1284 1860.152,-1555.4064 1852.9924,-1554.5462"/>
</a>
</g>
<text text-anchor="middle" x="1659.5" y="-1938.2" font-family="Times,serif" font-size="14.00" fill="#000000">1</text>
</g>
<!-- dbFIgov&#45;&gt;dbFIgov -->
<g id="edge18" class="edge">
<title>dbFIgov:dd6Itnh-&gt;dbFIgov:ddEFKA</title>
<g id="a_edge18"><a xlink:title="Server.registerHandler -&gt; Server.handleConfig: &#10;&#10;From: server.go (Line: 34, Column: 18) To: config.go (Line: 8, Column: 18)&#10;">
<path fill="none" stroke="#000000" d="M1369.1237,-1480.6443C1509.6994,-1500.4612 1774,-1496.9131 1774,-1470 1774,-1445.3447 1629.9888,-1440.2986 1516.5384,-1454.8615"/>
<polygon fill="#000000" stroke="#000000" points="1515.7976,-1451.4296 1506.3546,-1456.2337 1516.7324,-1458.367 1515.7976,-1451.4296"/>
</a>
</g>
<text text-anchor="middle" x="1777.5" y="-1438.8" font-family="Times,serif" font-size="14.00" fill="#000000">1</text>
</g>
<!-- ddtvzaY -->
<g id="node6" class="node">
<title>ddtvzaY</title>
<polygon fill="none" stroke="#000000" stroke-dasharray="1,5" points="1525,-330 1373,-330 1373,-200 1525,-200 1525,-330"/>
<polygon fill="#ffffff" stroke="transparent" points="1383,-304 1383,-324 1403,-324 1403,-304 1383,-304"/>
<polygon fill="#ffffff" stroke="transparent" points="1383,-266 1383,-302 1403,-302 1403,-266 1383,-266"/>
<polygon fill="#ead1dc" stroke="transparent" points="1405,-266 1405,-302 1493,-302 1493,-266 1405,-266"/>
<text text-anchor="start" x="1417.5196" y="-279.4" font-family="Times,serif" font-size="14.00" fill="#000000">NewServer</text>
<polygon fill="#ffffff" stroke="transparent" points="1495,-266 1495,-302 1515,-302 1515,-266 1495,-266"/>
<polygon fill="#ffffff" stroke="transparent" points="1383,-244 1383,-264 1403,-264 1403,-244 1383,-244"/>
<polygon fill="#ffffff" stroke="transparent" points="1383,-206 1383,-242 1515,-242 1515,-206 1383,-206"/>
<text text-anchor="start" x="1425.6718" y="-219.4" font-family="Times,serif" font-size="14.00" fill="#000000">function</text>
</g>
<!-- dbFIgov&#45;&gt;ddtvzaY -->
<g id="edge5" class="edge">
<title>dbFIgov-&gt;ddtvzaY</title>
<g id="a_edge5"><a xlink:title="api -&gt; function: &#10;&#10;">
<path fill="none" stroke="#000000" stroke-dasharray="1,5" d="M1449,-1347.6712C1449,-1331.5919 1449,-1315.0707 1449,-1299.5 1449,-1299.5 1449,-1299.5 1449,-390.3 1449,-374.0869 1449,-356.6937 1449,-340.1818"/>
<polygon fill="#000000" stroke="#000000" points="1452.5001,-340.0331 1449,-330.0331 1445.5001,-340.0331 1452.5001,-340.0331"/>
</a>
</g>
<text text-anchor="middle" x="1452.5" y="-741.6" font-family="Times,serif" font-size="14.00" fill="#000000">1</text>
</g>
<!-- ddeNuT -->
<g id="node12" class="node">
<title>ddeNuT</title>
<polygon fill="none" stroke="#000000" stroke-dasharray="1,5" points="1102.5,-1147.4 703.5,-1147.4 703.5,-1017.4 1102.5,-1017.4 1102.5,-1147.4"/>
<polygon fill="#ffffff" stroke="transparent" points="714,-1121.4 714,-1141.4 734,-1141.4 734,-1121.4 714,-1121.4"/>
<polygon fill="#ffffff" stroke="transparent" points="714,-1083.4 714,-1119.4 734,-1119.4 734,-1083.4 714,-1083.4"/>
<polygon fill="#ead1dc" stroke="transparent" points="736,-1083.4 736,-1119.4 862,-1119.4 862,-1083.4 736,-1083.4"/>
<text text-anchor="start" x="746.9109" y="-1096.8" font-family="Times,serif" font-size="14.00" fill="#000000">GenerateStaticSite</text>
<polygon fill="#ffffff" stroke="transparent" points="864,-1083.4 864,-1119.4 884,-1119.4 884,-1083.4 864,-1083.4"/>
<polygon fill="#ead1dc" stroke="transparent" points="886,-1083.4 886,-1119.4 1071,-1119.4 1071,-1083.4 886,-1083.4"/>
<text text-anchor="start" x="896.8499" y="-1096.8" font-family="Times,serif" font-size="14.00" fill="#000000">AllConfigurationInformation</text>
<polygon fill="#ffffff" stroke="transparent" points="1073,-1083.4 1073,-1119.4 1093,-1119.4 1093,-1083.4 1073,-1083.4"/>
<polygon fill="#ffffff" stroke="transparent" points="714,-1061.4 714,-1081.4 734,-1081.4 734,-1061.4 714,-1061.4"/>
<polygon fill="#ffffff" stroke="transparent" points="714,-1023.4 714,-1059.4 1093,-1059.4 1093,-1023.4 714,-1023.4"/>
<text text-anchor="start" x="880.1718" y="-1036.8" font-family="Times,serif" font-size="14.00" fill="#000000">function</text>
</g>
<!-- dbFIgov&#45;&gt;ddeNuT -->
<g id="edge17" class="edge">
<title>dbFIgov:ddEFKA-&gt;ddeNuT:dbsclp6</title>
<g id="a_edge17"><a xlink:title="Server.handleConfig -&gt; AllConfigurationInformation: &#10;&#10;From: config.go (Line: 11, Column: 60) To: config.go (Line: 9, Column: 6)&#10;">
<path fill="none" stroke="#000000" d="M1396.7644,-1451.8231C1345.3103,-1426.0115 1264,-1373.5137 1264,-1299.5 1264,-1299.5 1264,-1299.5 1264,-1207.7 1264,-1177.3016 1158.641,-1190.386 1130,-1180.2 1089.4757,-1165.7877 1046.2548,-1142.3143 1016.4839,-1124.7291"/>
<polygon fill="#000000" stroke="#000000" points="1018.0739,-1121.6019 1007.6943,-1119.4771 1014.4834,-1127.611 1018.0739,-1121.6019"/>
</a>
</g>
<text text-anchor="middle" x="1267.5" y="-1249.4" font-family="Times,serif" font-size="14.00" fill="#000000">1</text>
</g>
<!-- ddtvzaY&#45;&gt;dbFIgov -->
<g id="edge9" class="edge">
<title>ddtvzaY:degUkn5-&gt;dbFIgov:dd6Itnh</title>
<g id="a_edge9"><a xlink:title="NewServer -&gt; Server.registerHandler: &#10;&#10;From: server.go (Line: 29, Column: 19) To: server.go (Line: 33, Column: 18)&#10;">
<path fill="none" stroke="#000000" d="M1420.1855,-302.1647C1394.521,-320.8263 1361,-352.4461 1361,-390.3 1361,-1299.5 1361,-1299.5 1361,-1299.5 1361,-1351.1797 1341.0566,-1408.7234 1327.4331,-1442.003"/>
<polygon fill="#000000" stroke="#000000" points="1324.082,-1440.9436 1323.4371,-1451.5188 1330.536,-1443.6539 1324.082,-1440.9436"/>
</a>
</g>
<text text-anchor="middle" x="1364.5" y="-741.6" font-family="Times,serif" font-size="14.00" fill="#000000">1</text>
</g>
<!-- dcUGxVR&#45;&gt;ddtvzaY -->
<g id="edge1" class="edge">
<title>dcUGxVR:dbtwUMD-&gt;ddtvzaY:degUkn5</title>
<g id="a_edge1"><a xlink:title="serverCmd.Run -&gt; NewServer: &#10;&#10;From: server.go (Line: 56, Column: 25) To: server.go (Line: 19, Column: 6)&#10;">
<path fill="none" stroke="#000000" d="M1850.0302,-1402.8149C1839.8634,-1381.7847 1820.2714,-1347.6711 1793,-1329 1748.3941,-1298.461 1675,-1353.5585 1675,-1299.5 1675,-1299.5 1675,-1299.5 1675,-390.3 1675,-381.353 1675.9249,-377.5041 1670,-370.8 1627.096,-322.2534 1553.5708,-300.5992 1503.1965,-291.1152"/>
<polygon fill="#000000" stroke="#000000" points="1503.591,-287.6304 1493.1323,-289.3235 1502.364,-294.5221 1503.591,-287.6304"/>
</a>
</g>
<text text-anchor="middle" x="1678.5" y="-741.6" font-family="Times,serif" font-size="14.00" fill="#000000">1</text>
</g>
<!-- dcUGxVR&#45;&gt;ddeNuT -->
<g id="edge4" class="edge">
<title>dcUGxVR:dFJoku-&gt;ddeNuT:d6GWrL</title>
<g id="a_edge4"><a xlink:title="buildCmd.Run -&gt; GenerateStaticSite: &#10;&#10;From: build.go (Line: 54, Column: 41) To: ssg.go (Line: 9, Column: 6)&#10;">
<path fill="none" stroke="#000000" d="M1856.3176,-1462.8568C1852.173,-1429.7767 1838.2479,-1360.1992 1793,-1329 1759.7675,-1306.0857 1067,-1339.8666 1067,-1299.5 1067,-1299.5 1067,-1299.5 1067,-1207.7 1067,-1198.753 1068.1085,-1194.7372 1062,-1188.2 1035.8346,-1160.1982 940.2771,-1133.4129 871.8935,-1117.1868"/>
<polygon fill="#000000" stroke="#000000" points="872.5476,-1113.7453 862.0127,-1114.8705 870.9499,-1120.5606 872.5476,-1113.7453"/>
</a>
</g>
<text text-anchor="middle" x="1070.5" y="-1249.4" font-family="Times,serif" font-size="14.00" fill="#000000">1</text>
</g>
<!-- dctHGkf -->
<g id="node9" class="node">
<title>dctHGkf</title>
<polygon fill="none" stroke="#000000" stroke-dasharray="1,5" points="496.5,-2368 411.5,-2368 411.5,-2276 496.5,-2276 496.5,-2368"/>
<polygon fill="#ffffff" stroke="transparent" points="422,-2342 422,-2362 459,-2362 459,-2342 422,-2342"/>
<polygon fill="#ffffff" stroke="transparent" points="422,-2320 422,-2340 459,-2340 459,-2320 422,-2320"/>
<polygon fill="#ffffff" stroke="transparent" points="422,-2282 422,-2318 487,-2318 487,-2282 422,-2282"/>
<text text-anchor="start" x="436.6171" y="-2295.4" font-family="Times,serif" font-size="14.00" fill="#000000">config</text>
</g>
<!-- dbYmF3O&#45;&gt;dctHGkf -->
<g id="edge21" class="edge">
<title>dbYmF3O-&gt;dctHGkf</title>
<g id="a_edge21"><a xlink:title="domain -&gt; config: &#10;&#10;">
<path fill="none" stroke="#000000" stroke-dasharray="1,5" d="M562.381,-2779.0159C522.5276,-2768.9289 471,-2747.4313 471,-2703.7 471,-2703.7 471,-2703.7 471,-2428.3 471,-2412.5944 469.1681,-2395.7454 466.7071,-2380.1961"/>
<polygon fill="#000000" stroke="#000000" points="466.6526,-2379.878 461.6947,-2374.6416 464.6215,-2368.0511 469.5793,-2373.2875 466.6526,-2379.878"/>
</a>
</g>
<text text-anchor="middle" x="474.5" y="-2561.8" font-family="Times,serif" font-size="14.00" fill="#000000">1</text>
</g>
<!-- dbvalZB -->
<g id="node10" class="node">
<title>dbvalZB</title>
<polygon fill="none" stroke="#000000" stroke-dasharray="1,5" points="656,-821.8 48,-821.8 48,-669.8 656,-669.8 656,-821.8"/>
<polygon fill="#ffffff" stroke="transparent" points="58,-795.8 58,-815.8 78,-815.8 78,-795.8 58,-795.8"/>
<polygon fill="#ffffff" stroke="transparent" points="58,-773.8 58,-793.8 78,-793.8 78,-773.8 58,-773.8"/>
<polygon fill="#ffffff" stroke="transparent" points="58,-735.8 58,-771.8 78,-771.8 78,-735.8 58,-735.8"/>
<polygon fill="#a4c2f4" stroke="transparent" points="80,-735.8 80,-771.8 219,-771.8 219,-735.8 80,-735.8"/>
<text text-anchor="start" x="89.6157" y="-749.2" font-family="Times,serif" font-size="14.00" fill="#000000">loadConfigFromDisk</text>
<polygon fill="#a4c2f4" stroke="transparent" points="221,-735.8 221,-771.8 314,-771.8 314,-735.8 221,-735.8"/>
<text text-anchor="start" x="230.9502" y="-749.2" font-family="Times,serif" font-size="14.00" fill="#000000">loadModules</text>
<polygon fill="#a4c2f4" stroke="transparent" points="316,-735.8 316,-771.8 364,-771.8 364,-735.8 316,-735.8"/>
<text text-anchor="start" x="325.6164" y="-749.2" font-family="Times,serif" font-size="14.00" fill="#000000">Load</text>
<polygon fill="#ffffff" stroke="transparent" points="366,-735.8 366,-771.8 386,-771.8 386,-735.8 366,-735.8"/>
<polygon fill="#b4a7d6" stroke="transparent" points="388,-735.8 388,-771.8 446,-771.8 446,-735.8 388,-735.8"/>
<text text-anchor="start" x="397.5561" y="-749.2" font-family="Times,serif" font-size="14.00" fill="#000000">Config</text>
<polygon fill="#f3f3f3" stroke="transparent" points="448,-735.8 448,-771.8 492,-771.8 492,-735.8 448,-735.8"/>
<text text-anchor="start" x="457.5561" y="-749.2" font-family="Times,serif" font-size="14.00" fill="#000000">Path</text>
<polygon fill="#f3f3f3" stroke="transparent" points="494,-735.8 494,-771.8 562,-771.8 562,-735.8 494,-735.8"/>
<text text-anchor="start" x="503.5028" y="-749.2" font-family="Times,serif" font-size="14.00" fill="#000000">Modules</text>
<polygon fill="#f3f3f3" stroke="transparent" points="564,-735.8 564,-771.8 624,-771.8 624,-735.8 564,-735.8"/>
<text text-anchor="start" x="573.7861" y="-749.2" font-family="Times,serif" font-size="14.00" fill="#000000">Logger</text>
<polygon fill="#ffffff" stroke="transparent" points="626,-735.8 626,-771.8 646,-771.8 646,-735.8 626,-735.8"/>
<polygon fill="#ffffff" stroke="transparent" points="58,-713.8 58,-733.8 78,-733.8 78,-713.8 58,-713.8"/>
<polygon fill="#ffffff" stroke="transparent" points="58,-675.8 58,-711.8 646,-711.8 646,-675.8 58,-675.8"/>
<text text-anchor="start" x="336.0568" y="-689.2" font-family="Times,serif" font-size="14.00" fill="#000000">entity</text>
</g>
<!-- dctHGkf&#45;&gt;dbvalZB -->
<g id="edge6" class="edge">
<title>dctHGkf-&gt;dbvalZB</title>
<g id="a_edge6"><a xlink:title="config -&gt; entity: &#10;&#10;">
<path fill="none" stroke="#000000" stroke-dasharray="1,5" d="M411.3207,-2290.0034C397.6584,-2276.0392 386,-2258.3172 386,-2238.5 386,-2238.5 386,-2238.5 386,-882.1 386,-866.3581 383.8385,-849.8895 380.6056,-834.0613"/>
<polygon fill="#000000" stroke="#000000" points="380.5514,-833.8179 375.3426,-828.831 377.9425,-822.1049 383.1513,-827.0917 380.5514,-833.8179"/>
</a>
</g>
<text text-anchor="middle" x="389.5" y="-1438.8" font-family="Times,serif" font-size="14.00" fill="#000000">1</text>
</g>
<!-- dCbZAW&#45;&gt;ddeNuT -->
<g id="edge22" class="edge">
<title>dCbZAW-&gt;ddeNuT</title>
<g id="a_edge22"><a xlink:title="application -&gt; function: &#10;&#10;">
<path fill="none" stroke="#000000" stroke-dasharray="1,5" d="M959.9257,-1902.1369C949.075,-1889.8846 941,-1875.268 941,-1858.9 941,-1858.9 941,-1858.9 941,-1207.7 941,-1191.1342 937.9206,-1173.8461 933.5151,-1157.5893"/>
<polygon fill="#000000" stroke="#000000" points="936.7684,-1156.2419 930.6163,-1147.6162 930.0466,-1158.1957 936.7684,-1156.2419"/>
</a>
</g>
<text text-anchor="middle" x="944.5" y="-1438.8" font-family="Times,serif" font-size="14.00" fill="#000000">1</text>
</g>
<!-- ddeNuT&#45;&gt;dbvalZB -->
<g id="edge3" class="edge">
<title>ddeNuT:d6GWrL-&gt;dbvalZB:deIyBAf</title>
<g id="a_edge3"><a xlink:title="GenerateStaticSite -&gt; Config.Load: &#10;&#10;From: ssg.go (Line: 14, Column: 25) To: config.go (Line: 31, Column: 18)&#10;">
<path fill="none" stroke="#000000" d="M778.9036,-1083.3486C755.1805,-1062.4525 714.1219,-1027.5616 676,-1001.4 655.728,-987.4881 628,-998.4865 628,-973.9 628,-973.9 628,-973.9 628,-882.1 628,-873.153 628.949,-869.2827 623,-862.6 556.8001,-788.2362 433.9366,-764.3661 374.2781,-756.9701"/>
<polygon fill="#000000" stroke="#000000" points="374.5777,-753.4815 364.2416,-755.8088 373.773,-760.4351 374.5777,-753.4815"/>
</a>
</g>
<text text-anchor="middle" x="631.5" y="-923.8" font-family="Times,serif" font-size="14.00" fill="#000000">1</text>
</g>
<!-- ddeNuT&#45;&gt;dbvalZB -->
<g id="edge8" class="edge">
<title>ddeNuT:dbsclp6-&gt;dbvalZB:deIyBAf</title>
<g id="a_edge8"><a xlink:title="AllConfigurationInformation -&gt; Config.Load: &#10;&#10;From: config.go (Line: 12, Column: 15) To: config.go (Line: 31, Column: 18)&#10;">
<path fill="none" stroke="#000000" d="M936.4033,-1083.3685C896.1867,-1063.1539 842,-1026.2111 842,-973.9 842,-973.9 842,-973.9 842,-882.1 842,-785.3712 487.7147,-760.6164 374.4056,-755.1727"/>
<polygon fill="#000000" stroke="#000000" points="374.3626,-751.6671 364.2125,-754.7044 374.0413,-758.6597 374.3626,-751.6671"/>
</a>
</g>
<text text-anchor="middle" x="845.5" y="-923.8" font-family="Times,serif" font-size="14.00" fill="#000000">1</text>
</g>
<!-- d5iImG&#45;&gt;ddREsL -->
<g id="edge16" class="edge">
<title>d5iImG-&gt;ddREsL</title>
<g id="a_edge16"><a xlink:title="cmd -&gt; function: &#10;&#10;">
<path fill="none" stroke="#000000" stroke-dasharray="1,5" d="M2360.5393,-2086.055C2362.5284,-2073.9665 2364,-2060.9001 2364,-2048.7 2364,-2048.7 2364,-2048.7 2364,-1858.9 2364,-1842.6618 2365.2573,-1825.3233 2367.0439,-1808.8827"/>
<polygon fill="#000000" stroke="#000000" points="2370.5402,-1809.1173 2368.2183,-1798.78 2363.587,-1808.309 2370.5402,-1809.1173"/>
</a>
</g>
<text text-anchor="middle" x="2367.5" y="-1938.2" font-family="Times,serif" font-size="14.00" fill="#000000">1</text>
</g>
<!-- ddREsL&#45;&gt;dcUGxVR -->
<g id="edge2" class="edge">
<title>ddREsL:dcvzibt-&gt;dcUGxVR:dbtwUMD</title>
<g id="a_edge2"><a xlink:title="New -&gt; serverCmd.Run: &#10;&#10;From: command.go (Line: 53, Column: 25) To: server.go (Line: 40, Column: 22)&#10;">
<path fill="none" stroke="#000000" d="M2366.6946,-1734.5606C2351.3448,-1713.0391 2323.3934,-1676.9218 2293,-1652.6 2157.7853,-1544.3967 1964.4459,-1462.5124 1889.4281,-1432.9724"/>
<polygon fill="#000000" stroke="#000000" points="1890.6433,-1429.6896 1880.0552,-1429.3124 1888.0971,-1436.2101 1890.6433,-1429.6896"/>
</a>
</g>
<text text-anchor="middle" x="2259.5" y="-1613" font-family="Times,serif" font-size="14.00" fill="#000000">1</text>
</g>
<!-- ddREsL&#45;&gt;dcUGxVR -->
<g id="edge19" class="edge">
<title>ddREsL:dcvzibt-&gt;dcUGxVR:dFJoku</title>
<g id="a_edge19"><a xlink:title="New -&gt; buildCmd.Run: &#10;&#10;From: command.go (Line: 69, Column: 25) To: build.go (Line: 38, Column: 21)&#10;">
<path fill="none" stroke="#000000" d="M2367.4529,-1734.2871C2352.655,-1712.1557 2325.0501,-1675.094 2293,-1652.6 2279.1832,-1642.9028 2237.7331,-1631.7161 2222,-1625.6 2098.6733,-1577.6576 1952.521,-1519.0522 1889.4987,-1493.6941"/>
<polygon fill="#000000" stroke="#000000" points="1890.6977,-1490.4039 1880.114,-1489.9165 1888.0837,-1496.8975 1890.6977,-1490.4039"/>
</a>
</g>
<text text-anchor="middle" x="2225.5" y="-1613" font-family="Times,serif" font-size="14.00" fill="#000000">1</text>
</g>
</g>
</svg>