<?xml version="1.0" encoding="UTF-8" ?>
<svg xmlns="http://www.w3.org/2000/svg" xmlns:xlink="http://www.w3.org/1999/xlink" width="3457pt" height="5139pt" viewBox="0.00 0.00 3457.00 5139.00">
<g id="graph0" class="graph" transform="scale(1 1) rotate(0) translate(4 5135)">
<title>%0</title>
<polygon fill="#ffffff" stroke="transparent" points="-4,4 -4,-5135 3453,-5135 3453,4 -4,4"/>
<text text-anchor="middle" x="1724.5" y="-82" font-family="Times,serif" font-size="20.00" fill="#000000">github.com/dddplayer/hugoverse</text>
<text text-anchor="middle" x="1724.5" y="-58" font-family="Times,serif" font-size="20.00" fill="#000000">Domain Model</text>
<text text-anchor="middle" x="1724.5" y="-10" font-family="Times,serif" font-size="20.00" fill="#000000">Powered by DDD Player</text>
<g id="clust1" class="cluster">
<title>cluster_ddd_concept</title>
<polygon fill="none" stroke="#000000" points="8,-4974.2 8,-5114.2 500,-5114.2 500,-4974.2 8,-4974.2"/>
</g>
<g id="clust2" class="cluster">
<title>cluster_dUQ30Z</title>
<polygon fill="none" stroke="#000000" points="508,-160 508,-5123 3441,-5123 3441,-160 508,-160"/>
<text text-anchor="middle" x="1974.5" y="-5106.4" font-family="Times,serif" font-size="14.00" fill="#000000">github.com/dddplayer/hugoverse</text>
</g>
<g id="clust3" class="cluster">
<title>cluster_dbPwjkq</title>
<polygon fill="none" stroke="#000000" points="516,-4730.6 516,-4901.4 767,-4901.4 767,-4730.6 516,-4730.6"/>
<text text-anchor="middle" x="641.5" y="-4884.8" font-family="Times,serif" font-size="14.00" fill="#000000">github.com/dddplayer/hugoverse/function</text>
</g>
<g id="clust4" class="cluster">
<title>cluster_d5iImG</title>
<polygon fill="none" stroke="#000000" points="775,-4403 775,-4882.4 1070,-4882.4 1070,-4403 775,-4403"/>
<text text-anchor="middle" x="922.5" y="-4865.8" font-family="Times,serif" font-size="14.00" fill="#000000">github.com/dddplayer/hugoverse/cmd</text>
</g>
<g id="clust5" class="cluster">
<title>cluster_ddREsL</title>
<polygon fill="none" stroke="#000000" points="783,-4411 783,-4581.8 1062,-4581.8 1062,-4411 783,-4411"/>
<text text-anchor="middle" x="922.5" y="-4565.2" font-family="Times,serif" font-size="14.00" fill="#000000">github.com/dddplayer/hugoverse/cmd/function</text>
</g>
<g id="clust6" class="cluster">
<title>cluster_di7GIv</title>
<polygon fill="none" stroke="#000000" points="1078,-168 1078,-4882.4 3433,-4882.4 3433,-168 1078,-168"/>
<text text-anchor="middle" x="2255.5" y="-4865.8" font-family="Times,serif" font-size="14.00" fill="#000000">github.com/dddplayer/hugoverse/internal</text>
</g>
<g id="clust7" class="cluster">
<title>cluster_dbYmF3O</title>
<polygon fill="none" stroke="#000000" points="1086,-176 1086,-4562.8 2534,-4562.8 2534,-176 1086,-176"/>
<text text-anchor="middle" x="1810" y="-4546.2" font-family="Times,serif" font-size="14.00" fill="#000000">github.com/dddplayer/hugoverse/internal/domain</text>
</g>
<g id="clust11" class="cluster">
<title>cluster_demwjcF</title>
<polygon fill="none" stroke="#000000" points="2054,-184 2054,-2931 2526,-2931 2526,-184 2054,-184"/>
<text text-anchor="middle" x="2290" y="-2914.4" font-family="Times,serif" font-size="14.00" fill="#000000">github.com/dddplayer/hugoverse/internal/domain/pathspec</text>
</g>
<g id="clust12" class="cluster">
<title>cluster_dbae8za</title>
<polygon fill="none" stroke="#000000" points="2062,-192 2062,-2079.6 2518,-2079.6 2518,-192 2062,-192"/>
<text text-anchor="middle" x="2290" y="-2063" font-family="Times,serif" font-size="14.00" fill="#000000">github.com/dddplayer/hugoverse/internal/domain/pathspec/factory</text>
</g>
<g id="clust13" class="cluster">
<title>cluster_dF72rL</title>
<polygon fill="none" stroke="#000000" points="2070,-200 2070,-370.8 2510,-370.8 2510,-200 2070,-200"/>
<text text-anchor="middle" x="2290" y="-354.2" font-family="Times,serif" font-size="14.00" fill="#000000">github.com/dddplayer/hugoverse/internal/domain/pathspec/factory/function</text>
</g>
<g id="clust14" class="cluster">
<title>cluster_ddaltgo</title>
<polygon fill="none" stroke="#000000" points="1550,-1155.2 1550,-3976.2 2046,-3976.2 2046,-1155.2 1550,-1155.2"/>
<text text-anchor="middle" x="1798" y="-3959.6" font-family="Times,serif" font-size="14.00" fill="#000000">github.com/dddplayer/hugoverse/internal/domain/hugosites</text>
</g>
<g id="clust15" class="cluster">
<title>cluster_dmhopf</title>
<polygon fill="none" stroke="#000000" points="1558,-1163.2 1558,-2931 2038,-2931 2038,-1163.2 1558,-1163.2"/>
<text text-anchor="middle" x="1798" y="-2914.4" font-family="Times,serif" font-size="14.00" fill="#000000">github.com/dddplayer/hugoverse/internal/domain/hugosites/factory</text>
</g>
<g id="clust16" class="cluster">
<title>cluster_ddyjrVs</title>
<polygon fill="none" stroke="#000000" points="1566,-1171.2 1566,-1342 2030,-1342 2030,-1171.2 1566,-1171.2"/>
<text text-anchor="middle" x="1798" y="-1325.4" font-family="Times,serif" font-size="14.00" fill="#000000">github.com/dddplayer/hugoverse/internal/domain/hugosites/factory/function</text>
</g>
<g id="clust8" class="cluster">
<title>cluster_dcsgz25</title>
<polygon fill="none" stroke="#000000" points="1094,-669.6 1094,-3348.8 1542,-3348.8 1542,-669.6 1094,-669.6"/>
<text text-anchor="middle" x="1318" y="-3332.2" font-family="Times,serif" font-size="14.00" fill="#000000">github.com/dddplayer/hugoverse/internal/domain/deps</text>
</g>
<g id="clust9" class="cluster">
<title>cluster_dbQLBV2</title>
<polygon fill="none" stroke="#000000" points="1102,-677.6 1102,-2513.2 1534,-2513.2 1534,-677.6 1102,-677.6"/>
<text text-anchor="middle" x="1318" y="-2496.6" font-family="Times,serif" font-size="14.00" fill="#000000">github.com/dddplayer/hugoverse/internal/domain/deps/factory</text>
</g>
<g id="clust10" class="cluster">
<title>cluster_dDvPFV</title>
<polygon fill="none" stroke="#000000" points="1110,-685.6 1110,-856.4 1526,-856.4 1526,-685.6 1110,-685.6"/>
<text text-anchor="middle" x="1318" y="-839.8" font-family="Times,serif" font-size="14.00" fill="#000000">github.com/dddplayer/hugoverse/internal/domain/deps/factory/function</text>
</g>
<g id="clust17" class="cluster">
<title>cluster_dWutTC</title>
<polygon fill="none" stroke="#000000" points="2542,-3805.4 2542,-4562.8 3038,-4562.8 3038,-3805.4 2542,-3805.4"/>
<text text-anchor="middle" x="2790" y="-4546.2" font-family="Times,serif" font-size="14.00" fill="#000000">github.com/dddplayer/hugoverse/internal/interfaces</text>
</g>
<g id="clust18" class="cluster">
<title>cluster_dcUGxVR</title>
<polygon fill="none" stroke="#000000" points="2550,-3813.4 2550,-4006.2 3030,-4006.2 3030,-3813.4 2550,-3813.4"/>
<text text-anchor="middle" x="2790" y="-3989.6" font-family="Times,serif" font-size="14.00" fill="#000000">github.com/dddplayer/hugoverse/internal/interfaces/cmd</text>
</g>
<g id="clust19" class="cluster">
<title>cluster_dCbZAW</title>
<polygon fill="none" stroke="#000000" points="3046,-3479.8 3046,-4272 3425,-4272 3425,-3479.8 3046,-3479.8"/>
<text text-anchor="middle" x="3235.5" y="-4255.4" font-family="Times,serif" font-size="14.00" fill="#000000">github.com/dddplayer/hugoverse/internal/application</text>
</g>
<g id="clust20" class="cluster">
<title>cluster_ddeNuT</title>
<polygon fill="none" stroke="#000000" points="3054,-3487.8 3054,-3658.6 3417,-3658.6 3417,-3487.8 3054,-3487.8"/>
<text text-anchor="middle" x="3235.5" y="-3642" font-family="Times,serif" font-size="14.00" fill="#000000">github.com/dddplayer/hugoverse/internal/application/function</text>
</g>
<!-- ddd_concept -->
<g id="node1" class="node">
<title>ddd_concept</title>
<polygon fill="none" stroke="#ffffff" stroke-dasharray="1,5" points="492,-5106.2 16,-5106.2 16,-4982.2 492,-4982.2 492,-5106.2"/>
<polygon fill="transparent" stroke="transparent" points="26,-5064.2 26,-5100.2 140,-5100.2 140,-5064.2 26,-5064.2"/>
<text text-anchor="start" x="35.5582" y="-5077.6" font-family="Times,serif" font-size="14.00" fill="#000000">BoundedContext</text>
<polygon fill="#ffd966" stroke="transparent" points="142,-5064.2 142,-5100.2 247,-5100.2 247,-5064.2 142,-5064.2"/>
<text text-anchor="start" x="151.7356" y="-5077.6" font-family="Times,serif" font-size="14.00" fill="#000000">AggregateRoot</text>
<polygon fill="#ffe599" stroke="transparent" points="249,-5064.2 249,-5100.2 318,-5100.2 318,-5064.2 249,-5064.2"/>
<text text-anchor="start" x="266.3878" y="-5077.6" font-family="Times,serif" font-size="14.00" fill="#000000">Entity</text>
<polygon fill="#a2c4c9" stroke="transparent" points="320,-5064.2 320,-5100.2 410,-5100.2 410,-5064.2 320,-5064.2"/>
<text text-anchor="start" x="329.6283" y="-5077.6" font-family="Times,serif" font-size="14.00" fill="#000000">ValueObject</text>
<polygon fill="#e69138" stroke="transparent" points="412,-5064.2 412,-5100.2 482,-5100.2 482,-5064.2 412,-5064.2"/>
<text text-anchor="start" x="426.0112" y="-5077.6" font-family="Times,serif" font-size="14.00" fill="#000000">Service</text>
<polygon fill="#ffffff" stroke="transparent" points="26,-5026.2 26,-5062.2 140,-5062.2 140,-5026.2 26,-5026.2"/>
<polygon fill="#a4c2f4" stroke="transparent" points="142,-5026.2 142,-5062.2 247,-5062.2 247,-5026.2 142,-5026.2"/>
<text text-anchor="start" x="165.3338" y="-5039.6" font-family="Times,serif" font-size="14.00" fill="#000000">Command</text>
<polygon fill="#f6b26b" stroke="transparent" points="249,-5026.2 249,-5062.2 318,-5062.2 318,-5026.2 249,-5026.2"/>
<text text-anchor="start" x="267.1711" y="-5039.6" font-family="Times,serif" font-size="14.00" fill="#000000">Event</text>
<polygon fill="#cfe2f3" stroke="transparent" points="320,-5026.2 320,-5062.2 410,-5062.2 410,-5026.2 320,-5026.2"/>
<text text-anchor="start" x="343.6185" y="-5039.6" font-family="Times,serif" font-size="14.00" fill="#000000">Factory</text>
<polygon fill="#b4a7d6" stroke="transparent" points="412,-5026.2 412,-5062.2 482,-5062.2 482,-5026.2 412,-5026.2"/>
<text text-anchor="start" x="431.8345" y="-5039.6" font-family="Times,serif" font-size="14.00" fill="#000000">Class</text>
<polygon fill="#ffffff" stroke="transparent" points="26,-4988.2 26,-5024.2 140,-5024.2 140,-4988.2 26,-4988.2"/>
<polygon fill="#f4cccc" stroke="transparent" points="142,-4988.2 142,-5024.2 247,-5024.2 247,-4988.2 142,-4988.2"/>
<text text-anchor="start" x="172.3492" y="-5001.6" font-family="Times,serif" font-size="14.00" fill="#000000">General</text>
<polygon fill="#ead1dc" stroke="transparent" points="249,-4988.2 249,-5024.2 318,-5024.2 318,-4988.2 249,-4988.2"/>
<text text-anchor="start" x="258.6108" y="-5001.6" font-family="Times,serif" font-size="14.00" fill="#000000">Function</text>
<polygon fill="#9fc5e8" stroke="transparent" points="320,-4988.2 320,-5024.2 410,-5024.2 410,-4988.2 320,-4988.2"/>
<text text-anchor="start" x="340.1346" y="-5001.6" font-family="Times,serif" font-size="14.00" fill="#000000">Interface</text>
<polygon fill="#f3f3f3" stroke="transparent" points="412,-4988.2 412,-5024.2 482,-5024.2 482,-4988.2 412,-4988.2"/>
<text text-anchor="start" x="421.7279" y="-5001.6" font-family="Times,serif" font-size="14.00" fill="#000000">Attribute</text>
</g>
<!-- dUQ30Z -->
<g id="node2" class="node">
<title>dUQ30Z</title>
<polygon fill="none" stroke="#000000" stroke-dasharray="1,5" points="975.5,-5090.2 868.5,-5090.2 868.5,-4998.2 975.5,-4998.2 975.5,-5090.2"/>
<polygon fill="#ffffff" stroke="transparent" points="879,-5064.2 879,-5084.2 927,-5084.2 927,-5064.2 879,-5064.2"/>
<polygon fill="#ffffff" stroke="transparent" points="879,-5042.2 879,-5062.2 927,-5062.2 927,-5042.2 879,-5042.2"/>
<polygon fill="#ffffff" stroke="transparent" points="879,-5004.2 879,-5040.2 966,-5040.2 966,-5004.2 879,-5004.2"/>
<text text-anchor="start" x="893.7328" y="-5017.6" font-family="Times,serif" font-size="14.00" fill="#000000">hugoverse</text>
</g>
<!-- dbPwjkq -->
<g id="node3" class="node">
<title>dbPwjkq</title>
<polygon fill="none" stroke="#000000" stroke-dasharray="1,5" points="758.5,-4868.6 641.5,-4868.6 641.5,-4738.6 758.5,-4738.6 758.5,-4868.6"/>
<polygon fill="#ffffff" stroke="transparent" points="652,-4842.6 652,-4862.6 672,-4862.6 672,-4842.6 652,-4842.6"/>
<polygon fill="#ffffff" stroke="transparent" points="652,-4804.6 652,-4840.6 672,-4840.6 672,-4804.6 652,-4804.6"/>
<polygon fill="#ead1dc" stroke="transparent" points="674,-4804.6 674,-4840.6 727,-4840.6 727,-4804.6 674,-4804.6"/>
<text text-anchor="start" x="686.5021" y="-4818" font-family="Times,serif" font-size="14.00" fill="#000000">main</text>
<polygon fill="#ffffff" stroke="transparent" points="729,-4804.6 729,-4840.6 749,-4840.6 749,-4804.6 729,-4804.6"/>
<polygon fill="#ffffff" stroke="transparent" points="652,-4782.6 652,-4802.6 672,-4802.6 672,-4782.6 652,-4782.6"/>
<polygon fill="#ffffff" stroke="transparent" points="652,-4744.6 652,-4780.6 749,-4780.6 749,-4744.6 652,-4744.6"/>
<text text-anchor="start" x="677.1718" y="-4758" font-family="Times,serif" font-size="14.00" fill="#000000">function</text>
</g>
<!-- dUQ30Z&#45;&gt;dbPwjkq -->
<g id="edge12" class="edge">
<title>dUQ30Z-&gt;dbPwjkq</title>
<g id="a_edge12"><a xlink:title="hugoverse -&gt; function: &#10;&#10;">
<path fill="none" stroke="#000000" stroke-dasharray="1,5" d="M868.6485,-4998.192C838.6354,-4971.2448 801.2367,-4935.8315 771,-4901.4 764.2328,-4893.694 757.4614,-4885.3653 750.9342,-4876.9326"/>
<polygon fill="#000000" stroke="#000000" points="753.6052,-4874.6632 744.759,-4868.8327 748.0385,-4878.9073 753.6052,-4874.6632"/>
</a>
</g>
<text text-anchor="middle" x="815.5" y="-4932.6" font-family="Times,serif" font-size="14.00" fill="#000000">1</text>
</g>
<!-- d5iImG -->
<g id="node4" class="node">
<title>d5iImG</title>
<polygon fill="none" stroke="#000000" stroke-dasharray="1,5" points="959,-4849.6 885,-4849.6 885,-4757.6 959,-4757.6 959,-4849.6"/>
<polygon fill="#ffffff" stroke="transparent" points="895,-4823.6 895,-4843.6 927,-4843.6 927,-4823.6 895,-4823.6"/>
<polygon fill="#ffffff" stroke="transparent" points="895,-4801.6 895,-4821.6 927,-4821.6 927,-4801.6 895,-4801.6"/>
<polygon fill="#ffffff" stroke="transparent" points="895,-4763.6 895,-4799.6 949,-4799.6 949,-4763.6 895,-4763.6"/>
<text text-anchor="start" x="909.9474" y="-4777" font-family="Times,serif" font-size="14.00" fill="#000000">cmd</text>
</g>
<!-- dUQ30Z&#45;&gt;d5iImG -->
<g id="edge8" class="edge">
<title>dUQ30Z-&gt;d5iImG</title>
<g id="a_edge8"><a xlink:title="hugoverse -&gt; cmd: &#10;&#10;">
<path fill="none" stroke="#000000" stroke-dasharray="1,5" d="M922,-4998.0946C922,-4959.4303 922,-4903.9903 922,-4862.1858"/>
<polygon fill="#000000" stroke="#000000" points="922.0001,-4861.9589 918,-4855.959 922,-4849.9589 926,-4855.9589 922.0001,-4861.9589"/>
</a>
</g>
<text text-anchor="middle" x="925.5" y="-4932.6" font-family="Times,serif" font-size="14.00" fill="#000000">1</text>
</g>
<!-- di7GIv -->
<g id="node6" class="node">
<title>di7GIv</title>
<polygon fill="none" stroke="#000000" stroke-dasharray="1,5" points="2434,-4849.6 2342,-4849.6 2342,-4757.6 2434,-4757.6 2434,-4849.6"/>
<polygon fill="#ffffff" stroke="transparent" points="2352,-4823.6 2352,-4843.6 2393,-4843.6 2393,-4823.6 2352,-4823.6"/>
<polygon fill="#ffffff" stroke="transparent" points="2352,-4801.6 2352,-4821.6 2393,-4821.6 2393,-4801.6 2352,-4801.6"/>
<polygon fill="#ffffff" stroke="transparent" points="2352,-4763.6 2352,-4799.6 2424,-4799.6 2424,-4763.6 2352,-4763.6"/>
<text text-anchor="start" x="2366.6192" y="-4777" font-family="Times,serif" font-size="14.00" fill="#000000">internal</text>
</g>
<!-- dUQ30Z&#45;&gt;di7GIv -->
<g id="edge11" class="edge">
<title>dUQ30Z-&gt;di7GIv</title>
<g id="a_edge11"><a xlink:title="hugoverse -&gt; internal: &#10;&#10;">
<path fill="none" stroke="#000000" stroke-dasharray="1,5" d="M975.9143,-5035.3516C1204.5402,-4997.8295 2093.0422,-4852.0085 2329.7725,-4813.1563"/>
<polygon fill="#000000" stroke="#000000" points="2330.0046,-4813.1183 2335.2775,-4808.1993 2341.8462,-4811.1748 2336.5732,-4816.0937 2330.0046,-4813.1183"/>
</a>
</g>
<text text-anchor="middle" x="1621.5" y="-4932.6" font-family="Times,serif" font-size="14.00" fill="#000000">1</text>
</g>
<!-- ddREsL -->
<g id="node5" class="node">
<title>ddREsL</title>
<polygon fill="none" stroke="#000000" stroke-dasharray="1,5" points="980,-4549 864,-4549 864,-4419 980,-4419 980,-4549"/>
<polygon fill="#ffffff" stroke="transparent" points="874,-4523 874,-4543 894,-4543 894,-4523 874,-4523"/>
<polygon fill="#ffffff" stroke="transparent" points="874,-4485 874,-4521 894,-4521 894,-4485 874,-4485"/>
<polygon fill="#ead1dc" stroke="transparent" points="896,-4485 896,-4521 948,-4521 948,-4485 896,-4485"/>
<text text-anchor="start" x="908.7861" y="-4498.4" font-family="Times,serif" font-size="14.00" fill="#000000">New</text>
<polygon fill="#ffffff" stroke="transparent" points="950,-4485 950,-4521 970,-4521 970,-4485 950,-4485"/>
<polygon fill="#ffffff" stroke="transparent" points="874,-4463 874,-4483 894,-4483 894,-4463 874,-4463"/>
<polygon fill="#ffffff" stroke="transparent" points="874,-4425 874,-4461 970,-4461 970,-4425 874,-4425"/>
<text text-anchor="start" x="898.6718" y="-4438.4" font-family="Times,serif" font-size="14.00" fill="#000000">function</text>
</g>
<!-- dbPwjkq&#45;&gt;ddREsL -->
<g id="edge16" class="edge">
<title>dbPwjkq:dcdc8xt-&gt;ddREsL:dcvzibt</title>
<g id="a_edge16"><a xlink:title="main -&gt; New: &#10;&#10;From: main.go (Line: 10, Column: 16) To: command.go (Line: 11, Column: 6)&#10;">
<path fill="none" stroke="#000000" d="M714.7112,-4804.4626C739.6764,-4771.3608 790,-4704.2459 790,-4701.1 790,-4701.1 790,-4701.1 790,-4609.3 790,-4559.6613 847.3245,-4529.2824 886.4202,-4514.336"/>
<polygon fill="#000000" stroke="#000000" points="887.7285,-4517.5844 895.921,-4510.8663 885.3272,-4511.0092 887.7285,-4517.5844"/>
</a>
</g>
<text text-anchor="middle" x="793.5" y="-4651" font-family="Times,serif" font-size="14.00" fill="#000000">1</text>
</g>
<!-- d5iImG&#45;&gt;ddREsL -->
<g id="edge21" class="edge">
<title>d5iImG-&gt;ddREsL</title>
<g id="a_edge21"><a xlink:title="cmd -&gt; function: &#10;&#10;">
<path fill="none" stroke="#000000" stroke-dasharray="1,5" d="M922,-4757.4229C922,-4739.7975 922,-4719.518 922,-4701.1 922,-4701.1 922,-4701.1 922,-4609.3 922,-4593.0869 922,-4575.6937 922,-4559.1818"/>
<polygon fill="#000000" stroke="#000000" points="925.5001,-4559.0331 922,-4549.0331 918.5001,-4559.0331 925.5001,-4559.0331"/>
</a>
</g>
<text text-anchor="middle" x="925.5" y="-4651" font-family="Times,serif" font-size="14.00" fill="#000000">1</text>
</g>
<!-- dcUGxVR -->
<g id="node18" class="node">
<title>dcUGxVR</title>
<polygon fill="none" stroke="#000000" stroke-dasharray="1,5" points="3021.5,-3973.4 2558.5,-3973.4 2558.5,-3821.4 3021.5,-3821.4 3021.5,-3973.4"/>
<polygon fill="#ffffff" stroke="transparent" points="2569,-3947.4 2569,-3967.4 2589,-3967.4 2589,-3947.4 2569,-3947.4"/>
<polygon fill="#ffffff" stroke="transparent" points="2569,-3925.4 2569,-3945.4 2589,-3945.4 2589,-3925.4 2569,-3925.4"/>
<polygon fill="#ffffff" stroke="transparent" points="2569,-3887.4 2569,-3923.4 2589,-3923.4 2589,-3887.4 2569,-3887.4"/>
<polygon fill="#a4c2f4" stroke="transparent" points="2591,-3887.4 2591,-3923.4 2634,-3923.4 2634,-3887.4 2591,-3887.4"/>
<text text-anchor="start" x="2600.8317" y="-3900.8" font-family="Times,serif" font-size="14.00" fill="#000000">Run</text>
<polygon fill="#a4c2f4" stroke="transparent" points="2636,-3887.4 2636,-3923.4 2690,-3923.4 2690,-3887.4 2636,-3887.4"/>
<text text-anchor="start" x="2645.5098" y="-3900.8" font-family="Times,serif" font-size="14.00" fill="#000000">Usage</text>
<polygon fill="#ffffff" stroke="transparent" points="2692,-3887.4 2692,-3923.4 2712,-3923.4 2712,-3887.4 2692,-3887.4"/>
<polygon fill="#b4a7d6" stroke="transparent" points="2714,-3887.4 2714,-3923.4 2790,-3923.4 2790,-3887.4 2714,-3887.4"/>
<text text-anchor="start" x="2723.9958" y="-3900.8" font-family="Times,serif" font-size="14.00" fill="#000000">buildCmd</text>
<polygon fill="#f3f3f3" stroke="transparent" points="2792,-3887.4 2792,-3923.4 2846,-3923.4 2846,-3887.4 2792,-3887.4"/>
<text text-anchor="start" x="2801.5098" y="-3900.8" font-family="Times,serif" font-size="14.00" fill="#000000">parent</text>
<polygon fill="#f3f3f3" stroke="transparent" points="2848,-3887.4 2848,-3923.4 2892,-3923.4 2892,-3887.4 2848,-3887.4"/>
<text text-anchor="start" x="2857.9474" y="-3900.8" font-family="Times,serif" font-size="14.00" fill="#000000">cmd</text>
<polygon fill="#f3f3f3" stroke="transparent" points="2894,-3887.4 2894,-3923.4 2990,-3923.4 2990,-3887.4 2894,-3887.4"/>
<text text-anchor="start" x="2903.8892" y="-3900.8" font-family="Times,serif" font-size="14.00" fill="#000000">hugoProjPath</text>
<polygon fill="#ffffff" stroke="transparent" points="2992,-3887.4 2992,-3923.4 3012,-3923.4 3012,-3887.4 2992,-3887.4"/>
<polygon fill="#ffffff" stroke="transparent" points="2569,-3865.4 2569,-3885.4 2589,-3885.4 2589,-3865.4 2569,-3865.4"/>
<polygon fill="#ffffff" stroke="transparent" points="2569,-3827.4 2569,-3863.4 3012,-3863.4 3012,-3827.4 2569,-3827.4"/>
<text text-anchor="start" x="2778.4474" y="-3840.8" font-family="Times,serif" font-size="14.00" fill="#000000">cmd</text>
</g>
<!-- ddREsL&#45;&gt;dcUGxVR -->
<g id="edge20" class="edge">
<title>ddREsL:dcvzibt-&gt;dcUGxVR:dFJoku</title>
<g id="a_edge20"><a xlink:title="New -&gt; buildCmd.Run: &#10;&#10;From: command.go (Line: 69, Column: 25) To: build.go (Line: 38, Column: 21)&#10;">
<path fill="none" stroke="#000000" d="M941.0568,-4484.6401C962.9825,-4461.4509 996,-4419.2649 996,-4375.5 996,-4375.5 996,-4375.5 996,-4033.7 996,-4004.4123 2020.8638,-4009.1757 2050,-4006.2 2254.5049,-3985.3136 2496.48,-3932.1186 2581.0155,-3912.6664"/>
<polygon fill="#000000" stroke="#000000" points="2582.029,-3916.0244 2590.983,-3910.3608 2580.4515,-3909.2045 2582.029,-3916.0244"/>
</a>
</g>
<text text-anchor="middle" x="999.5" y="-4189" font-family="Times,serif" font-size="14.00" fill="#000000">1</text>
</g>
<!-- dbYmF3O -->
<g id="node7" class="node">
<title>dbYmF3O</title>
<polygon fill="none" stroke="#000000" stroke-dasharray="1,5" points="1987.5,-4530 1896.5,-4530 1896.5,-4438 1987.5,-4438 1987.5,-4530"/>
<polygon fill="#ffffff" stroke="transparent" points="1907,-4504 1907,-4524 1947,-4524 1947,-4504 1907,-4504"/>
<polygon fill="#ffffff" stroke="transparent" points="1907,-4482 1907,-4502 1947,-4502 1947,-4482 1907,-4482"/>
<polygon fill="#ffffff" stroke="transparent" points="1907,-4444 1907,-4480 1978,-4480 1978,-4444 1907,-4444"/>
<text text-anchor="start" x="1921.5021" y="-4457.4" font-family="Times,serif" font-size="14.00" fill="#000000">domain</text>
</g>
<!-- di7GIv&#45;&gt;dbYmF3O -->
<g id="edge17" class="edge">
<title>di7GIv-&gt;dbYmF3O</title>
<g id="a_edge17"><a xlink:title="internal -&gt; domain: &#10;&#10;">
<path fill="none" stroke="#000000" stroke-dasharray="1,5" d="M2341.7819,-4796.3646C2262.7314,-4782.6726 2110,-4749.9037 2110,-4701.1 2110,-4701.1 2110,-4701.1 2110,-4609.3 2110,-4552.7091 2047.9896,-4518.6317 1999.3168,-4500.6001"/>
<polygon fill="#000000" stroke="#000000" points="1999.2215,-4500.5665 1992.2318,-4502.3396 1987.9067,-4496.5695 1994.8965,-4494.7964 1999.2215,-4500.5665"/>
</a>
</g>
<text text-anchor="middle" x="2113.5" y="-4651" font-family="Times,serif" font-size="14.00" fill="#000000">1</text>
</g>
<!-- dWutTC -->
<g id="node17" class="node">
<title>dWutTC</title>
<polygon fill="none" stroke="#000000" stroke-dasharray="1,5" points="2748,-4530 2644,-4530 2644,-4438 2748,-4438 2748,-4530"/>
<polygon fill="#ffffff" stroke="transparent" points="2654,-4504 2654,-4524 2701,-4524 2701,-4504 2654,-4504"/>
<polygon fill="#ffffff" stroke="transparent" points="2654,-4482 2654,-4502 2701,-4502 2701,-4482 2654,-4482"/>
<polygon fill="#ffffff" stroke="transparent" points="2654,-4444 2654,-4480 2738,-4480 2738,-4444 2654,-4444"/>
<text text-anchor="start" x="2668.7973" y="-4457.4" font-family="Times,serif" font-size="14.00" fill="#000000">interfaces</text>
</g>
<!-- di7GIv&#45;&gt;dWutTC -->
<g id="edge25" class="edge">
<title>di7GIv-&gt;dWutTC</title>
<g id="a_edge25"><a xlink:title="internal -&gt; interfaces: &#10;&#10;">
<path fill="none" stroke="#000000" stroke-dasharray="1,5" d="M2434.18,-4796.0276C2484.2178,-4784.8769 2557,-4758.7492 2557,-4701.1 2557,-4701.1 2557,-4701.1 2557,-4609.3 2557,-4565.0921 2596.2689,-4532.4802 2633.0626,-4511.6265"/>
<polygon fill="#000000" stroke="#000000" points="2633.2907,-4511.5032 2636.6656,-4505.1305 2643.8461,-4505.7948 2640.4712,-4512.1674 2633.2907,-4511.5032"/>
</a>
</g>
<text text-anchor="middle" x="2560.5" y="-4651" font-family="Times,serif" font-size="14.00" fill="#000000">1</text>
</g>
<!-- dCbZAW -->
<g id="node19" class="node">
<title>dCbZAW</title>
<polygon fill="none" stroke="#000000" stroke-dasharray="1,5" points="3190,-4239.2 3078,-4239.2 3078,-4147.2 3190,-4147.2 3190,-4239.2"/>
<polygon fill="#ffffff" stroke="transparent" points="3088,-4213.2 3088,-4233.2 3139,-4233.2 3139,-4213.2 3088,-4213.2"/>
<polygon fill="#ffffff" stroke="transparent" points="3088,-4191.2 3088,-4211.2 3139,-4211.2 3139,-4191.2 3088,-4191.2"/>
<polygon fill="#ffffff" stroke="transparent" points="3088,-4153.2 3088,-4189.2 3180,-4189.2 3180,-4153.2 3088,-4153.2"/>
<text text-anchor="start" x="3102.8969" y="-4166.6" font-family="Times,serif" font-size="14.00" fill="#000000">application</text>
</g>
<!-- di7GIv&#45;&gt;dCbZAW -->
<g id="edge5" class="edge">
<title>di7GIv-&gt;dCbZAW</title>
<g id="a_edge5"><a xlink:title="internal -&gt; application: &#10;&#10;">
<path fill="none" stroke="#000000" stroke-dasharray="1,5" d="M2434.1337,-4801.7136C2589.9479,-4794.7369 3087,-4767.2937 3087,-4701.1 3087,-4701.1 3087,-4701.1 3087,-4299.5 3087,-4282.7757 3091.9266,-4265.7382 3098.5897,-4250.3435"/>
<polygon fill="#000000" stroke="#000000" points="3098.6032,-4250.3146 3097.5321,-4243.1834 3103.7028,-4239.452 3104.7739,-4246.5831 3098.6032,-4250.3146"/>
</a>
</g>
<text text-anchor="middle" x="3090.5" y="-4479.8" font-family="Times,serif" font-size="14.00" fill="#000000">1</text>
</g>
<!-- dcsgz25 -->
<g id="node8" class="node">
<title>dcsgz25</title>
<polygon fill="none" stroke="#000000" stroke-dasharray="1,5" points="1531.5,-3316 1456.5,-3316 1456.5,-3224 1531.5,-3224 1531.5,-3316"/>
<polygon fill="#ffffff" stroke="transparent" points="1467,-3290 1467,-3310 1499,-3310 1499,-3290 1467,-3290"/>
<polygon fill="#ffffff" stroke="transparent" points="1467,-3268 1467,-3288 1499,-3288 1499,-3268 1467,-3268"/>
<polygon fill="#ffffff" stroke="transparent" points="1467,-3230 1467,-3266 1522,-3266 1522,-3230 1467,-3230"/>
<text text-anchor="start" x="1481.6704" y="-3243.4" font-family="Times,serif" font-size="14.00" fill="#000000">deps</text>
</g>
<!-- dbYmF3O&#45;&gt;dcsgz25 -->
<g id="edge13" class="edge">
<title>dbYmF3O-&gt;dcsgz25</title>
<g id="a_edge13"><a xlink:title="domain -&gt; deps: &#10;&#10;">
<path fill="none" stroke="#000000" stroke-dasharray="1,5" d="M1896.1965,-4482.0668C1785.7842,-4476.1629 1514,-4453.6891 1514,-4375.5 1514,-4375.5 1514,-4375.5 1514,-3376.3 1514,-3360.5934 1511.8651,-3343.803 1508.9903,-3328.3136"/>
<polygon fill="#000000" stroke="#000000" points="1508.923,-3327.9795 1503.8167,-3322.8878 1506.5527,-3316.2159 1511.6591,-3321.3076 1508.923,-3327.9795"/>
</a>
</g>
<text text-anchor="middle" x="1517.5" y="-3893.2" font-family="Times,serif" font-size="14.00" fill="#000000">1</text>
</g>
<!-- demwjcF -->
<g id="node11" class="node">
<title>demwjcF</title>
<polygon fill="none" stroke="#000000" stroke-dasharray="1,5" points="2161,-2898.2 2063,-2898.2 2063,-2806.2 2161,-2806.2 2161,-2898.2"/>
<polygon fill="#ffffff" stroke="transparent" points="2073,-2872.2 2073,-2892.2 2117,-2892.2 2117,-2872.2 2073,-2872.2"/>
<polygon fill="#ffffff" stroke="transparent" points="2073,-2850.2 2073,-2870.2 2117,-2870.2 2117,-2850.2 2073,-2850.2"/>
<polygon fill="#ffffff" stroke="transparent" points="2073,-2812.2 2073,-2848.2 2151,-2848.2 2151,-2812.2 2073,-2812.2"/>
<text text-anchor="start" x="2087.5105" y="-2825.6" font-family="Times,serif" font-size="14.00" fill="#000000">pathspec</text>
</g>
<!-- dbYmF3O&#45;&gt;demwjcF -->
<g id="edge1" class="edge">
<title>dbYmF3O-&gt;demwjcF</title>
<g id="a_edge1"><a xlink:title="domain -&gt; pathspec: &#10;&#10;">
<path fill="none" stroke="#000000" stroke-dasharray="1,5" d="M1987.5145,-4471.8249C2031.3327,-4457.0187 2091,-4427.3395 2091,-4375.5 2091,-4375.5 2091,-4375.5 2091,-2958.5 2091,-2942.7659 2093.2417,-2925.966 2096.2602,-2910.4762"/>
<polygon fill="#000000" stroke="#000000" points="2096.3355,-2910.1201 2093.6642,-2903.422 2098.8196,-2898.38 2101.4909,-2905.0781 2096.3355,-2910.1201"/>
</a>
</g>
<text text-anchor="middle" x="2094.5" y="-3556.6" font-family="Times,serif" font-size="14.00" fill="#000000">1</text>
</g>
<!-- ddaltgo -->
<g id="node14" class="node">
<title>ddaltgo</title>
<polygon fill="none" stroke="#000000" stroke-dasharray="1,5" points="1966,-3943.4 1864,-3943.4 1864,-3851.4 1966,-3851.4 1966,-3943.4"/>
<polygon fill="#ffffff" stroke="transparent" points="1874,-3917.4 1874,-3937.4 1920,-3937.4 1920,-3917.4 1874,-3917.4"/>
<polygon fill="#ffffff" stroke="transparent" points="1874,-3895.4 1874,-3915.4 1920,-3915.4 1920,-3895.4 1874,-3895.4"/>
<polygon fill="#ffffff" stroke="transparent" points="1874,-3857.4 1874,-3893.4 1956,-3893.4 1956,-3857.4 1874,-3857.4"/>
<text text-anchor="start" x="1888.5575" y="-3870.8" font-family="Times,serif" font-size="14.00" fill="#000000">hugosites</text>
</g>
<!-- dbYmF3O&#45;&gt;ddaltgo -->
<g id="edge14" class="edge">
<title>dbYmF3O-&gt;ddaltgo</title>
<g id="a_edge14"><a xlink:title="domain -&gt; hugosites: &#10;&#10;">
<path fill="none" stroke="#000000" stroke-dasharray="1,5" d="M1934.0261,-4437.9491C1931.3352,-4418.7099 1929,-4396.0841 1929,-4375.5 1929,-4375.5 1929,-4375.5 1929,-4033.7 1929,-4008.0753 1926.5211,-3979.8818 1923.6495,-3955.8187"/>
<polygon fill="#000000" stroke="#000000" points="1923.6163,-3955.554 1918.9008,-3950.0984 1922.123,-3943.6473 1926.8386,-3949.1029 1923.6163,-3955.554"/>
</a>
</g>
<text text-anchor="middle" x="1932.5" y="-4189" font-family="Times,serif" font-size="14.00" fill="#000000">1</text>
</g>
<!-- dbQLBV2 -->
<g id="node9" class="node">
<title>dbQLBV2</title>
<polygon fill="none" stroke="#000000" stroke-dasharray="1,5" points="1518.5,-2480.4 1429.5,-2480.4 1429.5,-2388.4 1518.5,-2388.4 1518.5,-2480.4"/>
<polygon fill="#ffffff" stroke="transparent" points="1440,-2454.4 1440,-2474.4 1479,-2474.4 1479,-2454.4 1440,-2454.4"/>
<polygon fill="#ffffff" stroke="transparent" points="1440,-2432.4 1440,-2452.4 1479,-2452.4 1479,-2432.4 1440,-2432.4"/>
<polygon fill="#ffffff" stroke="transparent" points="1440,-2394.4 1440,-2430.4 1509,-2430.4 1509,-2394.4 1440,-2394.4"/>
<text text-anchor="start" x="1454.6795" y="-2407.8" font-family="Times,serif" font-size="14.00" fill="#000000">factory</text>
</g>
<!-- dcsgz25&#45;&gt;dbQLBV2 -->
<g id="edge9" class="edge">
<title>dcsgz25-&gt;dbQLBV2</title>
<g id="a_edge9"><a xlink:title="deps -&gt; factory: &#10;&#10;">
<path fill="none" stroke="#000000" stroke-dasharray="1,5" d="M1480.3573,-3223.5662C1477.8468,-3211.5974 1476,-3198.6602 1476,-3186.5 1476,-3186.5 1476,-3186.5 1476,-2540.7 1476,-2525.1159 1475.7825,-2508.2488 1475.4909,-2492.6402"/>
<polygon fill="#000000" stroke="#000000" points="1475.4869,-2492.4383 1471.3662,-2486.5205 1475.2439,-2480.4408 1479.3646,-2486.3585 1475.4869,-2492.4383"/>
</a>
</g>
<text text-anchor="middle" x="1479.5" y="-2848" font-family="Times,serif" font-size="14.00" fill="#000000">1</text>
</g>
<!-- dDvPFV -->
<g id="node10" class="node">
<title>dDvPFV</title>
<polygon fill="none" stroke="#000000" stroke-dasharray="1,5" points="1518,-823.6 1402,-823.6 1402,-693.6 1518,-693.6 1518,-823.6"/>
<polygon fill="#ffffff" stroke="transparent" points="1412,-797.6 1412,-817.6 1432,-817.6 1432,-797.6 1412,-797.6"/>
<polygon fill="#ffffff" stroke="transparent" points="1412,-759.6 1412,-795.6 1432,-795.6 1432,-759.6 1412,-759.6"/>
<polygon fill="#ead1dc" stroke="transparent" points="1434,-759.6 1434,-795.6 1486,-795.6 1486,-759.6 1434,-759.6"/>
<text text-anchor="start" x="1446.7861" y="-773" font-family="Times,serif" font-size="14.00" fill="#000000">New</text>
<polygon fill="#ffffff" stroke="transparent" points="1488,-759.6 1488,-795.6 1508,-795.6 1508,-759.6 1488,-759.6"/>
<polygon fill="#ffffff" stroke="transparent" points="1412,-737.6 1412,-757.6 1432,-757.6 1432,-737.6 1412,-737.6"/>
<polygon fill="#ffffff" stroke="transparent" points="1412,-699.6 1412,-735.6 1508,-735.6 1508,-699.6 1412,-699.6"/>
<text text-anchor="start" x="1436.6718" y="-713" font-family="Times,serif" font-size="14.00" fill="#000000">function</text>
</g>
<!-- dbQLBV2&#45;&gt;dDvPFV -->
<g id="edge7" class="edge">
<title>dbQLBV2-&gt;dDvPFV</title>
<g id="a_edge7"><a xlink:title="factory -&gt; function: &#10;&#10;">
<path fill="none" stroke="#000000" stroke-dasharray="1,5" d="M1467.2247,-2388.1204C1465.9461,-2376.0337 1465,-2363.0018 1465,-2350.9 1465,-2350.9 1465,-2350.9 1465,-883.9 1465,-867.674 1464.5762,-850.2754 1463.9754,-833.7623"/>
<polygon fill="#000000" stroke="#000000" points="1467.4667,-833.4698 1463.5806,-823.6134 1460.472,-833.742 1467.4667,-833.4698"/>
</a>
</g>
<text text-anchor="middle" x="1468.5" y="-1639.2" font-family="Times,serif" font-size="14.00" fill="#000000">1</text>
</g>
<!-- dF72rL -->
<g id="node13" class="node">
<title>dF72rL</title>
<polygon fill="none" stroke="#000000" stroke-dasharray="1,5" points="2246,-338 2078,-338 2078,-208 2246,-208 2246,-338"/>
<polygon fill="#ffffff" stroke="transparent" points="2088,-312 2088,-332 2108,-332 2108,-312 2088,-312"/>
<polygon fill="#ffffff" stroke="transparent" points="2088,-274 2088,-310 2108,-310 2108,-274 2088,-274"/>
<polygon fill="#ead1dc" stroke="transparent" points="2110,-274 2110,-310 2214,-310 2214,-274 2110,-274"/>
<text text-anchor="start" x="2122.7363" y="-287.4" font-family="Times,serif" font-size="14.00" fill="#000000">NewPathSpec</text>
<polygon fill="#ffffff" stroke="transparent" points="2216,-274 2216,-310 2236,-310 2236,-274 2216,-274"/>
<polygon fill="#ffffff" stroke="transparent" points="2088,-252 2088,-272 2108,-272 2108,-252 2088,-252"/>
<polygon fill="#ffffff" stroke="transparent" points="2088,-214 2088,-250 2236,-250 2236,-214 2088,-214"/>
<text text-anchor="start" x="2138.6718" y="-227.4" font-family="Times,serif" font-size="14.00" fill="#000000">function</text>
</g>
<!-- dDvPFV&#45;&gt;dF72rL -->
<g id="edge6" class="edge">
<title>dDvPFV:dbP4wDx-&gt;dF72rL:dIrEGN</title>
<g id="a_edge6"><a xlink:title="New -&gt; NewPathSpec: &#10;&#10;From: deps.go (Line: 42, Column: 34) To: pathspec.go (Line: 10, Column: 6)&#10;">
<path fill="none" stroke="#000000" d="M1486.1269,-772.616C1563.4855,-757.1205 1786,-706.9157 1786,-642.1 1786,-642.1 1786,-642.1 1786,-398.3 1786,-333.8979 1992.8443,-306.5522 2099.7003,-296.7223"/>
<polygon fill="#000000" stroke="#000000" points="2100.0709,-300.2032 2109.7188,-295.8251 2099.4464,-293.2311 2100.0709,-300.2032"/>
</a>
</g>
<text text-anchor="middle" x="1789.5" y="-516" font-family="Times,serif" font-size="14.00" fill="#000000">1</text>
</g>
<!-- dbae8za -->
<g id="node12" class="node">
<title>dbae8za</title>
<polygon fill="none" stroke="#000000" stroke-dasharray="1,5" points="2182.5,-2046.8 2093.5,-2046.8 2093.5,-1954.8 2182.5,-1954.8 2182.5,-2046.8"/>
<polygon fill="#ffffff" stroke="transparent" points="2104,-2020.8 2104,-2040.8 2143,-2040.8 2143,-2020.8 2104,-2020.8"/>
<polygon fill="#ffffff" stroke="transparent" points="2104,-1998.8 2104,-2018.8 2143,-2018.8 2143,-1998.8 2104,-1998.8"/>
<polygon fill="#ffffff" stroke="transparent" points="2104,-1960.8 2104,-1996.8 2173,-1996.8 2173,-1960.8 2104,-1960.8"/>
<text text-anchor="start" x="2118.6795" y="-1974.2" font-family="Times,serif" font-size="14.00" fill="#000000">factory</text>
</g>
<!-- demwjcF&#45;&gt;dbae8za -->
<g id="edge2" class="edge">
<title>demwjcF-&gt;dbae8za</title>
<g id="a_edge2"><a xlink:title="pathspec -&gt; factory: &#10;&#10;">
<path fill="none" stroke="#000000" stroke-dasharray="1,5" d="M2121.7865,-2806.0235C2123.6335,-2793.9354 2125,-2780.8771 2125,-2768.7 2125,-2768.7 2125,-2768.7 2125,-2107.1 2125,-2091.4759 2126.4008,-2074.6549 2128.2828,-2059.1064"/>
<polygon fill="#000000" stroke="#000000" points="2128.3158,-2058.8548 2125.1308,-2052.3852 2129.8777,-2046.9568 2133.0627,-2053.4265 2128.3158,-2058.8548"/>
</a>
</g>
<text text-anchor="middle" x="2128.5" y="-2430.2" font-family="Times,serif" font-size="14.00" fill="#000000">1</text>
</g>
<!-- dbae8za&#45;&gt;dF72rL -->
<g id="edge3" class="edge">
<title>dbae8za-&gt;dF72rL</title>
<g id="a_edge3"><a xlink:title="factory -&gt; function: &#10;&#10;">
<path fill="none" stroke="#000000" stroke-dasharray="1,5" d="M2147.0337,-1954.5943C2148.7386,-1942.5066 2150,-1929.4557 2150,-1917.3 2150,-1917.3 2150,-1917.3 2150,-398.3 2150,-382.1032 2151.0059,-364.7821 2152.4352,-348.3453"/>
<polygon fill="#000000" stroke="#000000" points="2155.9335,-348.5245 2153.3746,-338.2434 2148.9636,-347.8763 2155.9335,-348.5245"/>
</a>
</g>
<text text-anchor="middle" x="2153.5" y="-1240" font-family="Times,serif" font-size="14.00" fill="#000000">1</text>
</g>
<!-- dmhopf -->
<g id="node15" class="node">
<title>dmhopf</title>
<polygon fill="none" stroke="#000000" stroke-dasharray="1,5" points="1878.5,-2898.2 1789.5,-2898.2 1789.5,-2806.2 1878.5,-2806.2 1878.5,-2898.2"/>
<polygon fill="#ffffff" stroke="transparent" points="1800,-2872.2 1800,-2892.2 1839,-2892.2 1839,-2872.2 1800,-2872.2"/>
<polygon fill="#ffffff" stroke="transparent" points="1800,-2850.2 1800,-2870.2 1839,-2870.2 1839,-2850.2 1800,-2850.2"/>
<polygon fill="#ffffff" stroke="transparent" points="1800,-2812.2 1800,-2848.2 1869,-2848.2 1869,-2812.2 1800,-2812.2"/>
<text text-anchor="start" x="1814.6795" y="-2825.6" font-family="Times,serif" font-size="14.00" fill="#000000">factory</text>
</g>
<!-- ddaltgo&#45;&gt;dmhopf -->
<g id="edge24" class="edge">
<title>ddaltgo-&gt;dmhopf</title>
<g id="a_edge24"><a xlink:title="hugosites -&gt; factory: &#10;&#10;">
<path fill="none" stroke="#000000" stroke-dasharray="1,5" d="M1890.2727,-3851.0207C1881.4628,-3835.9496 1870.9827,-3819.4897 1860,-3805.4 1856.9087,-3801.4342 1854.4906,-3801.7682 1852,-3797.4 1847.5684,-3789.6276 1847,-3786.847 1847,-3777.9 1847,-3777.9 1847,-3777.9 1847,-2958.5 1847,-2942.8759 1845.5992,-2926.0549 1843.7172,-2910.5064"/>
<polygon fill="#000000" stroke="#000000" points="1843.6842,-2910.2548 1838.9373,-2904.8265 1842.1223,-2898.3568 1846.8692,-2903.7852 1843.6842,-2910.2548"/>
</a>
</g>
<text text-anchor="middle" x="1850.5" y="-3265.8" font-family="Times,serif" font-size="14.00" fill="#000000">1</text>
</g>
<!-- ddyjrVs -->
<g id="node16" class="node">
<title>ddyjrVs</title>
<polygon fill="none" stroke="#000000" stroke-dasharray="1,5" points="1972,-1309.2 1574,-1309.2 1574,-1179.2 1972,-1179.2 1972,-1309.2"/>
<polygon fill="#ffffff" stroke="transparent" points="1584,-1283.2 1584,-1303.2 1604,-1303.2 1604,-1283.2 1584,-1283.2"/>
<polygon fill="#ffffff" stroke="transparent" points="1584,-1245.2 1584,-1281.2 1604,-1281.2 1604,-1245.2 1584,-1245.2"/>
<polygon fill="#ead1dc" stroke="transparent" points="1606,-1245.2 1606,-1281.2 1685,-1281.2 1685,-1245.2 1606,-1245.2"/>
<text text-anchor="start" x="1615.5645" y="-1258.6" font-family="Times,serif" font-size="14.00" fill="#000000">applyDeps</text>
<polygon fill="#ffffff" stroke="transparent" points="1687,-1245.2 1687,-1281.2 1707,-1281.2 1707,-1245.2 1687,-1245.2"/>
<polygon fill="#ead1dc" stroke="transparent" points="1709,-1245.2 1709,-1281.2 1810,-1281.2 1810,-1245.2 1709,-1245.2"/>
<text text-anchor="start" x="1718.6746" y="-1258.6" font-family="Times,serif" font-size="14.00" fill="#000000">newHugoSites</text>
<polygon fill="#ffffff" stroke="transparent" points="1812,-1245.2 1812,-1281.2 1832,-1281.2 1832,-1245.2 1812,-1245.2"/>
<polygon fill="#ead1dc" stroke="transparent" points="1834,-1245.2 1834,-1281.2 1938,-1281.2 1938,-1245.2 1834,-1245.2"/>
<text text-anchor="start" x="1843.6213" y="-1258.6" font-family="Times,serif" font-size="14.00" fill="#000000">NewHugoSites</text>
<polygon fill="#ffffff" stroke="transparent" points="1940,-1245.2 1940,-1281.2 1960,-1281.2 1960,-1245.2 1940,-1245.2"/>
<polygon fill="#ffffff" stroke="transparent" points="1584,-1223.2 1584,-1243.2 1604,-1243.2 1604,-1223.2 1584,-1223.2"/>
<polygon fill="#ffffff" stroke="transparent" points="1584,-1185.2 1584,-1221.2 1962,-1221.2 1962,-1185.2 1584,-1185.2"/>
<text text-anchor="start" x="1749.6718" y="-1198.6" font-family="Times,serif" font-size="14.00" fill="#000000">function</text>
</g>
<!-- dmhopf&#45;&gt;ddyjrVs -->
<g id="edge10" class="edge">
<title>dmhopf-&gt;ddyjrVs</title>
<g id="a_edge10"><a xlink:title="factory -&gt; function: &#10;&#10;">
<path fill="none" stroke="#000000" stroke-dasharray="1,5" d="M1807.8857,-2805.8219C1803.3203,-2794.0717 1800,-2781.2218 1800,-2768.7 1800,-2768.7 1800,-2768.7 1800,-1369.5 1800,-1353.099 1797.762,-1335.7559 1794.5747,-1319.3727"/>
<polygon fill="#000000" stroke="#000000" points="1797.945,-1318.3888 1792.479,-1309.3128 1791.0921,-1319.8165 1797.945,-1318.3888"/>
</a>
</g>
<text text-anchor="middle" x="1803.5" y="-1996.6" font-family="Times,serif" font-size="14.00" fill="#000000">1</text>
</g>
<!-- ddyjrVs&#45;&gt;dDvPFV -->
<g id="edge23" class="edge">
<title>ddyjrVs:dcdFe5C-&gt;dDvPFV:dbP4wDx</title>
<g id="a_edge23"><a xlink:title="applyDeps -&gt; New: &#10;&#10;From: sites.go (Line: 123, Column: 27) To: deps.go (Line: 21, Column: 6)&#10;">
<path fill="none" stroke="#000000" d="M1628.648,-1244.9634C1608.2437,-1220.2537 1576,-1173.8978 1576,-1127.7 1576,-1127.7 1576,-1127.7 1576,-883.9 1576,-839.5811 1529.4064,-808.7411 1495.2788,-792.0963"/>
<polygon fill="#000000" stroke="#000000" points="1496.5744,-788.8386 1486.0327,-787.7787 1493.6125,-795.1811 1496.5744,-788.8386"/>
</a>
</g>
<text text-anchor="middle" x="1579.5" y="-1001.6" font-family="Times,serif" font-size="14.00" fill="#000000">1</text>
</g>
<!-- ddyjrVs&#45;&gt;ddyjrVs -->
<g id="edge15" class="edge">
<title>ddyjrVs:dc2o0aH-&gt;ddyjrVs:ddmxdgz</title>
<g id="a_edge15"><a xlink:title="NewHugoSites -&gt; newHugoSites: &#10;&#10;From: sites.go (Line: 21, Column: 21) To: sites.go (Line: 50, Column: 6)&#10;">
<path fill="none" stroke="#000000" d="M1938.1673,-1277.8766C1973.8183,-1285.2485 1990,-1280.3562 1990,-1263.2 1990,-1244.7622 1896.3556,-1240.4891 1820.1531,-1250.3807"/>
<polygon fill="#000000" stroke="#000000" points="1819.424,-1246.9484 1810.0046,-1251.7987 1820.3927,-1253.8811 1819.424,-1246.9484"/>
</a>
</g>
<text text-anchor="middle" x="1993.5" y="-1240" font-family="Times,serif" font-size="14.00" fill="#000000">1</text>
</g>
<!-- ddyjrVs&#45;&gt;ddyjrVs -->
<g id="edge18" class="edge">
<title>ddyjrVs:ddmxdgz-&gt;ddyjrVs:dcdFe5C</title>
<g id="a_edge18"><a xlink:title="newHugoSites -&gt; applyDeps: &#10;&#10;From: sites.go (Line: 78, Column: 21) To: sites.go (Line: 91, Column: 6)&#10;">
<path fill="none" stroke="#000000" d="M1810.0046,-1274.6013C1887.758,-1286.2661 1990,-1282.4656 1990,-1263.2 1990,-1243.1716 1800.1105,-1239.8572 1695.225,-1253.2568"/>
<polygon fill="#000000" stroke="#000000" points="1694.4729,-1249.8271 1685.04,-1254.6511 1695.4223,-1256.7624 1694.4729,-1249.8271"/>
</a>
</g>
<text text-anchor="middle" x="1993.5" y="-1240" font-family="Times,serif" font-size="14.00" fill="#000000">1</text>
</g>
<!-- dWutTC&#45;&gt;dcUGxVR -->
<g id="edge4" class="edge">
<title>dWutTC-&gt;dcUGxVR</title>
<g id="a_edge4"><a xlink:title="interfaces -&gt; cmd: &#10;&#10;">
<path fill="none" stroke="#000000" stroke-dasharray="1,5" d="M2725.7658,-4437.7828C2735.0933,-4419.1804 2743,-4397.0546 2743,-4375.5 2743,-4375.5 2743,-4375.5 2743,-4033.7 2743,-4017.743 2745.9146,-4001.2811 2750.2922,-3985.5551"/>
<polygon fill="#000000" stroke="#000000" points="2750.4081,-3985.1739 2748.3277,-3978.2694 2753.9009,-3973.6934 2755.9813,-3980.5979 2750.4081,-3985.1739"/>
</a>
</g>
<text text-anchor="middle" x="2746.5" y="-4189" font-family="Times,serif" font-size="14.00" fill="#000000">1</text>
</g>
<!-- ddeNuT -->
<g id="node20" class="node">
<title>ddeNuT</title>
<polygon fill="none" stroke="#000000" stroke-dasharray="1,5" points="3256,-3625.8 3062,-3625.8 3062,-3495.8 3256,-3495.8 3256,-3625.8"/>
<polygon fill="#ffffff" stroke="transparent" points="3072,-3599.8 3072,-3619.8 3092,-3619.8 3092,-3599.8 3072,-3599.8"/>
<polygon fill="#ffffff" stroke="transparent" points="3072,-3561.8 3072,-3597.8 3092,-3597.8 3092,-3561.8 3072,-3561.8"/>
<polygon fill="#ead1dc" stroke="transparent" points="3094,-3561.8 3094,-3597.8 3224,-3597.8 3224,-3561.8 3094,-3561.8"/>
<text text-anchor="start" x="3106.9109" y="-3575.2" font-family="Times,serif" font-size="14.00" fill="#000000">GenerateStaticSite</text>
<polygon fill="#ffffff" stroke="transparent" points="3226,-3561.8 3226,-3597.8 3246,-3597.8 3246,-3561.8 3226,-3561.8"/>
<polygon fill="#ffffff" stroke="transparent" points="3072,-3539.8 3072,-3559.8 3092,-3559.8 3092,-3539.8 3072,-3539.8"/>
<polygon fill="#ffffff" stroke="transparent" points="3072,-3501.8 3072,-3537.8 3246,-3537.8 3246,-3501.8 3072,-3501.8"/>
<text text-anchor="start" x="3135.6718" y="-3515.2" font-family="Times,serif" font-size="14.00" fill="#000000">function</text>
</g>
<!-- dcUGxVR&#45;&gt;ddeNuT -->
<g id="edge19" class="edge">
<title>dcUGxVR:dFJoku-&gt;ddeNuT:d6GWrL</title>
<g id="a_edge19"><a xlink:title="buildCmd.Run -&gt; GenerateStaticSite: &#10;&#10;From: build.go (Line: 54, Column: 41) To: ssg.go (Line: 13, Column: 6)&#10;">
<path fill="none" stroke="#000000" d="M2634.0965,-3904.5398C2695.8931,-3900.8405 2866,-3881.2696 2866,-3777.9 2866,-3777.9 2866,-3777.9 2866,-3686.1 2866,-3639.7743 2997.0691,-3607.865 3083.8811,-3591.811"/>
<polygon fill="#000000" stroke="#000000" points="3084.7598,-3595.2087 3093.9738,-3589.9787 3083.5094,-3588.3213 3084.7598,-3595.2087"/>
</a>
</g>
<text text-anchor="middle" x="2869.5" y="-3727.8" font-family="Times,serif" font-size="14.00" fill="#000000">1</text>
</g>
<!-- dCbZAW&#45;&gt;ddeNuT -->
<g id="edge22" class="edge">
<title>dCbZAW-&gt;ddeNuT</title>
<g id="a_edge22"><a xlink:title="application -&gt; function: &#10;&#10;">
<path fill="none" stroke="#000000" stroke-dasharray="1,5" d="M3143.0337,-4146.9943C3144.7386,-4134.9066 3146,-4121.8557 3146,-4109.7 3146,-4109.7 3146,-4109.7 3146,-3686.1 3146,-3669.8904 3147.0897,-3652.5639 3148.6381,-3636.126"/>
<polygon fill="#000000" stroke="#000000" points="3152.1357,-3636.3243 3149.6558,-3626.0238 3145.171,-3635.6226 3152.1357,-3636.3243"/>
</a>
</g>
<text text-anchor="middle" x="3149.5" y="-3893.2" font-family="Times,serif" font-size="14.00" fill="#000000">1</text>
</g>
<!-- ddeNuT&#45;&gt;ddyjrVs -->
<g id="edge26" class="edge">
<title>ddeNuT:d6GWrL-&gt;ddyjrVs:dc2o0aH</title>
<g id="a_edge26"><a xlink:title="GenerateStaticSite -&gt; NewHugoSites: &#10;&#10;From: ssg.go (Line: 29, Column: 49) To: sites.go (Line: 15, Column: 6)&#10;">
<path fill="none" stroke="#000000" d="M3093.7844,-3566.2086C3004.4592,-3545.6833 2855,-3503.6655 2855,-3452.3 2855,-3452.3 2855,-3452.3 2855,-1369.5 2855,-1325.1959 2101.1167,-1352.1886 2058,-1342 2009.7897,-1330.6078 1958.6856,-1305.2883 1924.8307,-1286.4059"/>
<polygon fill="#000000" stroke="#000000" points="1926.1825,-1283.1492 1915.756,-1281.2677 1922.7335,-1289.2406 1926.1825,-1283.1492"/>
</a>
</g>
<text text-anchor="middle" x="2858.5" y="-2300.8" font-family="Times,serif" font-size="14.00" fill="#000000">1</text>
</g>
</g>
</svg>