<?xml version="1.0" encoding="UTF-8" ?>
<svg xmlns="http://www.w3.org/2000/svg" xmlns:xlink="http://www.w3.org/1999/xlink" width="1874pt" height="1741pt" viewBox="0.00 0.00 1874.49 1741.40">
<g id="graph0" class="graph" transform="scale(1 1) rotate(0) translate(4 1737.4)">
<title>%0</title>
<polygon fill="#ffffff" stroke="transparent" points="-4,4 -4,-1737.4 1870.4902,-1737.4 1870.4902,4 -4,4"/>
<text text-anchor="middle" x="933.2451" y="-82" font-family="Times,serif" font-size="20.00" fill="#000000">github.com/dddplayer/hugoverse</text>
<text text-anchor="middle" x="933.2451" y="-58" font-family="Times,serif" font-size="20.00" fill="#000000">Domain Model</text>
<text text-anchor="middle" x="933.2451" y="-10" font-family="Times,serif" font-size="20.00" fill="#000000">Powered by DDD Player</text>
<g id="clust9" class="cluster">
<title>cluster_dctHGkf</title>
<polygon fill="none" stroke="#000000" points="70.4902,-160 70.4902,-1557.8 1858.4902,-1557.8 1858.4902,-160 70.4902,-160"/>
<text text-anchor="middle" x="964.4902" y="-1541.2" font-family="Times,serif" font-size="14.00" fill="#000000">github.com/dddplayer/hugoverse/internal/domain/config</text>
</g>
<g id="clust13" class="cluster">
<title>cluster_dbjiWUc</title>
<polygon fill="none" stroke="#000000" points="110.4902,-168 110.4902,-1216.2 1225.4902,-1216.2 1225.4902,-168 110.4902,-168"/>
<text text-anchor="middle" x="667.9902" y="-1199.6" font-family="Times,serif" font-size="14.00" fill="#000000">config/valueobject</text>
</g>
<g id="clust14" class="cluster">
<title>cluster_dbVptRJ</title>
<polygon fill="none" stroke="#000000" points="786.4902,-214 786.4902,-384.8 1022.4902,-384.8 1022.4902,-214 786.4902,-214"/>
<text text-anchor="middle" x="904.4902" y="-368.2" font-family="Times,serif" font-size="14.00" fill="#000000">config/valueobject/general</text>
</g>
<g id="clust15" class="cluster">
<title>cluster_ddVref9</title>
<polygon fill="none" stroke="#000000" points="118.4902,-176 118.4902,-422.8 778.4902,-422.8 778.4902,-176 118.4902,-176"/>
<text text-anchor="middle" x="448.4902" y="-406.2" font-family="Times,serif" font-size="14.00" fill="#000000">config/valueobject/function</text>
</g>
<g id="clust10" class="cluster">
<title>cluster_dLI3Vv</title>
<polygon fill="none" stroke="#000000" points="1352.4902,-206 1352.4902,-968.2 1850.4902,-968.2 1850.4902,-206 1352.4902,-206"/>
<text text-anchor="middle" x="1601.4902" y="-951.6" font-family="Times,serif" font-size="14.00" fill="#000000">config/entity</text>
</g>
<g id="clust11" class="cluster">
<title>cluster_d97PCi</title>
<polygon fill="none" stroke="#000000" points="1696.4902,-214 1696.4902,-384.8 1842.4902,-384.8 1842.4902,-214 1696.4902,-214"/>
<text text-anchor="middle" x="1769.4902" y="-368.2" font-family="Times,serif" font-size="14.00" fill="#000000">config/entity/general</text>
</g>
<g id="clust12" class="cluster">
<title>cluster_ddRsd1k</title>
<polygon fill="none" stroke="#000000" points="1360.4902,-214 1360.4902,-384.8 1688.4902,-384.8 1688.4902,-214 1360.4902,-214"/>
<text text-anchor="middle" x="1524.4902" y="-368.2" font-family="Times,serif" font-size="14.00" fill="#000000">config/entity/function</text>
</g>
<g id="clust1" class="cluster">
<title>cluster_dUQ30Z</title>
<polygon fill="none" stroke="#000000" points="1180.4902,-1592.6 1180.4902,-1725.4 1380.4902,-1725.4 1380.4902,-1592.6 1180.4902,-1592.6"/>
<text text-anchor="middle" x="1280.4902" y="-1708.8" font-family="Times,serif" font-size="14.00" fill="#000000">github.com/dddplayer/hugoverse</text>
</g>
<!-- dUQ30Z -->
<g id="node1" class="node">
<title>dUQ30Z</title>
<polygon fill="none" stroke="#000000" stroke-dasharray="1,5" points="1333.9902,-1692.6 1226.9902,-1692.6 1226.9902,-1600.6 1333.9902,-1600.6 1333.9902,-1692.6"/>
<polygon fill="#ffffff" stroke="transparent" points="1237.4902,-1666.6 1237.4902,-1686.6 1285.4902,-1686.6 1285.4902,-1666.6 1237.4902,-1666.6"/>
<polygon fill="#ffffff" stroke="transparent" points="1237.4902,-1644.6 1237.4902,-1664.6 1285.4902,-1664.6 1285.4902,-1644.6 1237.4902,-1644.6"/>
<polygon fill="#ffffff" stroke="transparent" points="1237.4902,-1606.6 1237.4902,-1642.6 1324.4902,-1642.6 1324.4902,-1606.6 1237.4902,-1606.6"/>
<text text-anchor="start" x="1252.223" y="-1620" font-family="Times,serif" font-size="14.00" fill="#000000">hugoverse</text>
</g>
<!-- dctHGkf -->
<g id="node2" class="node">
<title>dctHGkf</title>
<polygon fill="none" stroke="#000000" stroke-dasharray="1,5" points="1524.4902,-1525 880.4902,-1525 880.4902,-1297 1524.4902,-1297 1524.4902,-1525"/>
<polygon fill="#ffffff" stroke="transparent" points="890.4902,-1499 890.4902,-1519 910.4902,-1519 910.4902,-1499 890.4902,-1499"/>
<polygon fill="#ffffff" stroke="transparent" points="890.4902,-1461 890.4902,-1497 910.4902,-1497 910.4902,-1461 890.4902,-1461"/>
<polygon fill="#a4c2f4" stroke="transparent" points="912.4902,-1461 912.4902,-1497 1051.4902,-1497 1051.4902,-1461 912.4902,-1461"/>
<text text-anchor="start" x="922.1059" y="-1474.4" font-family="Times,serif" font-size="14.00" fill="#000000">loadConfigFromDisk</text>
<polygon fill="#a4c2f4" stroke="transparent" points="1053.4902,-1461 1053.4902,-1497 1146.4902,-1497 1146.4902,-1461 1053.4902,-1461"/>
<text text-anchor="start" x="1063.4404" y="-1474.4" font-family="Times,serif" font-size="14.00" fill="#000000">loadModules</text>
<polygon fill="#a4c2f4" stroke="transparent" points="1148.4902,-1461 1148.4902,-1497 1222.4902,-1497 1222.4902,-1461 1148.4902,-1461"/>
<text text-anchor="start" x="1171.1066" y="-1474.4" font-family="Times,serif" font-size="14.00" fill="#000000">Load</text>
<polygon fill="#ffffff" stroke="transparent" points="1224.4902,-1461 1224.4902,-1497 1244.4902,-1497 1244.4902,-1461 1224.4902,-1461"/>
<polygon fill="#ffd966" stroke="transparent" points="1246.4902,-1461 1246.4902,-1497 1314.4902,-1497 1314.4902,-1461 1246.4902,-1461"/>
<text text-anchor="start" x="1261.0463" y="-1474.4" font-family="Times,serif" font-size="14.00" fill="#000000">Config</text>
<polygon fill="#f3f3f3" stroke="transparent" points="1316.4902,-1461 1316.4902,-1497 1360.4902,-1497 1360.4902,-1461 1316.4902,-1461"/>
<text text-anchor="start" x="1326.0463" y="-1474.4" font-family="Times,serif" font-size="14.00" fill="#000000">Path</text>
<polygon fill="#f3f3f3" stroke="transparent" points="1362.4902,-1461 1362.4902,-1497 1430.4902,-1497 1430.4902,-1461 1362.4902,-1461"/>
<text text-anchor="start" x="1371.993" y="-1474.4" font-family="Times,serif" font-size="14.00" fill="#000000">Modules</text>
<polygon fill="#f3f3f3" stroke="transparent" points="1432.4902,-1461 1432.4902,-1497 1492.4902,-1497 1492.4902,-1461 1432.4902,-1461"/>
<text text-anchor="start" x="1442.2763" y="-1474.4" font-family="Times,serif" font-size="14.00" fill="#000000">Logger</text>
<polygon fill="#ffffff" stroke="transparent" points="1494.4902,-1461 1494.4902,-1497 1514.4902,-1497 1514.4902,-1461 1494.4902,-1461"/>
<polygon fill="#ffffff" stroke="transparent" points="890.4902,-1439 890.4902,-1459 910.4902,-1459 910.4902,-1439 890.4902,-1439"/>
<polygon fill="#ffffff" stroke="transparent" points="890.4902,-1401 890.4902,-1437 910.4902,-1437 910.4902,-1401 890.4902,-1401"/>
<polygon fill="#ead1dc" stroke="transparent" points="912.4902,-1401 912.4902,-1437 1051.4902,-1437 1051.4902,-1401 912.4902,-1401"/>
<text text-anchor="start" x="949.3352" y="-1414.4" font-family="Times,serif" font-size="14.00" fill="#000000">SetDefaults</text>
<polygon fill="#ead1dc" stroke="transparent" points="1053.4902,-1401 1053.4902,-1437 1146.4902,-1437 1146.4902,-1401 1053.4902,-1401"/>
<text text-anchor="start" x="1091.0463" y="-1414.4" font-family="Times,serif" font-size="14.00" fill="#000000">Set</text>
<polygon fill="#ead1dc" stroke="transparent" points="1148.4902,-1401 1148.4902,-1437 1222.4902,-1437 1222.4902,-1401 1148.4902,-1401"/>
<text text-anchor="start" x="1175.3843" y="-1414.4" font-family="Times,serif" font-size="14.00" fill="#000000">Get</text>
<polygon fill="#ffffff" stroke="transparent" points="1224.4902,-1401 1224.4902,-1437 1244.4902,-1437 1244.4902,-1401 1224.4902,-1401"/>
<polygon fill="#9fc5e8" stroke="transparent" points="1246.4902,-1363 1246.4902,-1437 1314.4902,-1437 1314.4902,-1363 1246.4902,-1363"/>
<text text-anchor="start" x="1256.3857" y="-1395.8" font-family="Times,serif" font-size="14.00" fill="#000000">Provider</text>
<polygon fill="#ffffff" stroke="transparent" points="1316.4902,-1401 1316.4902,-1437 1360.4902,-1437 1360.4902,-1401 1316.4902,-1401"/>
<polygon fill="#ffffff" stroke="transparent" points="1362.4902,-1401 1362.4902,-1437 1430.4902,-1437 1430.4902,-1401 1362.4902,-1401"/>
<polygon fill="#ffffff" stroke="transparent" points="1432.4902,-1401 1432.4902,-1437 1492.4902,-1437 1492.4902,-1401 1432.4902,-1401"/>
<polygon fill="#ffffff" stroke="transparent" points="1494.4902,-1401 1494.4902,-1437 1514.4902,-1437 1514.4902,-1401 1494.4902,-1401"/>
<polygon fill="#ffffff" stroke="transparent" points="890.4902,-1363 890.4902,-1399 910.4902,-1399 910.4902,-1363 890.4902,-1363"/>
<polygon fill="#ffffff" stroke="transparent" points="912.4902,-1363 912.4902,-1399 1051.4902,-1399 1051.4902,-1363 912.4902,-1363"/>
<polygon fill="#ffffff" stroke="transparent" points="1053.4902,-1363 1053.4902,-1399 1146.4902,-1399 1146.4902,-1363 1053.4902,-1363"/>
<polygon fill="#ead1dc" stroke="transparent" points="1148.4902,-1363 1148.4902,-1399 1222.4902,-1399 1222.4902,-1363 1148.4902,-1363"/>
<text text-anchor="start" x="1158.2721" y="-1376.4" font-family="Times,serif" font-size="14.00" fill="#000000">GetString</text>
<polygon fill="#ffffff" stroke="transparent" points="1224.4902,-1363 1224.4902,-1399 1244.4902,-1399 1244.4902,-1363 1224.4902,-1363"/>
<polygon fill="#ffffff" stroke="transparent" points="1316.4902,-1363 1316.4902,-1399 1360.4902,-1399 1360.4902,-1363 1316.4902,-1363"/>
<polygon fill="#ffffff" stroke="transparent" points="1362.4902,-1363 1362.4902,-1399 1430.4902,-1399 1430.4902,-1363 1362.4902,-1363"/>
<polygon fill="#ffffff" stroke="transparent" points="1432.4902,-1363 1432.4902,-1399 1492.4902,-1399 1492.4902,-1363 1432.4902,-1363"/>
<polygon fill="#ffffff" stroke="transparent" points="1494.4902,-1363 1494.4902,-1399 1514.4902,-1399 1514.4902,-1363 1494.4902,-1363"/>
<polygon fill="#ffffff" stroke="transparent" points="890.4902,-1341 890.4902,-1361 910.4902,-1361 910.4902,-1341 890.4902,-1341"/>
<polygon fill="#ffffff" stroke="transparent" points="890.4902,-1303 890.4902,-1339 1514.4902,-1339 1514.4902,-1303 890.4902,-1303"/>
<text text-anchor="start" x="1184.6073" y="-1316.4" font-family="Times,serif" font-size="14.00" fill="#000000">config</text>
</g>
<!-- dUQ30Z&#45;&gt;dctHGkf -->
<g id="edge16" class="edge">
<title>dUQ30Z-&gt;dctHGkf:dco61II</title>
<g id="a_edge16"><a xlink:title="hugoverse -&gt; Config: &#10;&#10;">
<path fill="none" stroke="#000000" stroke-dasharray="1,5" d="M1280.4902,-1600.3589C1280.4902,-1571.3156 1280.4902,-1534.6832 1280.4902,-1509.3024"/>
<polygon fill="#000000" stroke="#000000" points="1280.4903,-1509.1552 1276.4903,-1503.1553 1280.4902,-1497.1552 1284.4903,-1503.1552 1280.4903,-1509.1552"/>
</a>
</g>
<text text-anchor="middle" x="1283.9902" y="-1570" font-family="Times,serif" font-size="14.00" fill="#000000">1</text>
</g>
<!-- dctHGkf&#45;&gt;dctHGkf -->
<g id="edge3" class="edge">
<title>dctHGkf:db2x0eV-&gt;dctHGkf:dckXbYW</title>
<g id="a_edge3"><a xlink:title="Config.Load -&gt; Config.loadModules: &#10;&#10;From: config.go (Line: 46, Column: 32) To: config.go (Line: 59, Column: 18)&#10;">
<path fill="none" stroke="#000000" d="M1222.8673,-1487.879C1344.9488,-1511.6726 1542.4902,-1508.7129 1542.4902,-1479 1542.4902,-1450.5185 1296.9219,-1446.6187 1156.8107,-1467.3005"/>
<polygon fill="#000000" stroke="#000000" points="1156.2571,-1463.8445 1146.9097,-1468.8321 1157.3273,-1470.7622 1156.2571,-1463.8445"/>
</a>
</g>
<text text-anchor="middle" x="1545.9902" y="-1406.8" font-family="Times,serif" font-size="14.00" fill="#000000">1</text>
</g>
<!-- dctHGkf&#45;&gt;dctHGkf -->
<g id="edge9" class="edge">
<title>dctHGkf:db2x0eV-&gt;dctHGkf:ddK2640</title>
<g id="a_edge9"><a xlink:title="Config.Load -&gt; Config.loadConfigFromDisk: &#10;&#10;From: config.go (Line: 32, Column: 32) To: config.go (Line: 83, Column: 18)&#10;">
<path fill="none" stroke="#000000" d="M1222.8673,-1487.879C1344.9488,-1511.6726 1542.4902,-1508.7129 1542.4902,-1479 1542.4902,-1451.461 1230.7286,-1446.9037 1061.6789,-1465.3281"/>
<polygon fill="#000000" stroke="#000000" points="1061.0413,-1461.878 1051.5011,-1466.486 1061.8327,-1468.8331 1061.0413,-1461.878"/>
</a>
</g>
<text text-anchor="middle" x="1545.9902" y="-1406.8" font-family="Times,serif" font-size="14.00" fill="#000000">1</text>
</g>
<!-- dctHGkf&#45;&gt;dctHGkf -->
<g id="edge33" class="edge">
<title>dctHGkf:dco61II-&gt;dctHGkf:dc7deqD</title>
<g id="a_edge33"><a xlink:title="Config -&gt; Provider: &#10;&#10;">
<path fill="none" stroke="#000000" stroke-dasharray="1,5" d="M1314.5329,-1487.687C1421.4422,-1511.3086 1542.4902,-1504.9199 1542.4902,-1439.5 1542.4902,-1376.5078 1430.2595,-1368.2469 1326.4864,-1388.8087"/>
<polygon fill="#000000" stroke="#000000" points="1326.2779,-1388.8523 1321.2256,-1393.9976 1314.5329,-1391.313 1319.5851,-1386.1676 1326.2779,-1388.8523"/>
</a>
</g>
<text text-anchor="middle" x="1545.9902" y="-1406.8" font-family="Times,serif" font-size="14.00" fill="#000000">1</text>
</g>
<!-- dLI3Vv -->
<g id="node3" class="node">
<title>dLI3Vv</title>
<polygon fill="none" stroke="#000000" stroke-dasharray="1,5" points="1564.9902,-935.4 1483.9902,-935.4 1483.9902,-843.4 1564.9902,-843.4 1564.9902,-935.4"/>
<polygon fill="#ffffff" stroke="transparent" points="1494.4902,-909.4 1494.4902,-929.4 1529.4902,-929.4 1529.4902,-909.4 1494.4902,-909.4"/>
<polygon fill="#ffffff" stroke="transparent" points="1494.4902,-887.4 1494.4902,-907.4 1529.4902,-907.4 1529.4902,-887.4 1494.4902,-887.4"/>
<polygon fill="#ffffff" stroke="transparent" points="1494.4902,-849.4 1494.4902,-885.4 1555.4902,-885.4 1555.4902,-849.4 1494.4902,-849.4"/>
<text text-anchor="start" x="1509.047" y="-862.8" font-family="Times,serif" font-size="14.00" fill="#000000">entity</text>
</g>
<!-- dctHGkf&#45;&gt;dLI3Vv -->
<g id="edge12" class="edge">
<title>dctHGkf:dco61II-&gt;dLI3Vv</title>
<g id="a_edge12"><a xlink:title="Config -&gt; entity: &#10;&#10;">
<path fill="none" stroke="#000000" stroke-dasharray="1,5" d="M1299.9552,-1460.7978C1341.1885,-1420.943 1437.1013,-1321.1039 1480.4902,-1216.2 1517.1306,-1127.6122 1524.6628,-1015.0869 1525.49,-947.8462"/>
<polygon fill="#000000" stroke="#000000" points="1525.4927,-947.4279 1521.5326,-941.4015 1525.5724,-935.4282 1529.5324,-941.4546 1525.4927,-947.4279"/>
</a>
</g>
<text text-anchor="middle" x="1470.9902" y="-1247.4" font-family="Times,serif" font-size="14.00" fill="#000000">1</text>
</g>
<!-- ddRsd1k -->
<g id="node5" class="node">
<title>ddRsd1k</title>
<polygon fill="none" stroke="#000000" stroke-dasharray="1,5" points="1680.4902,-352 1368.4902,-352 1368.4902,-222 1680.4902,-222 1680.4902,-352"/>
<polygon fill="#ffffff" stroke="transparent" points="1378.4902,-326 1378.4902,-346 1398.4902,-346 1398.4902,-326 1378.4902,-326"/>
<polygon fill="#ffffff" stroke="transparent" points="1378.4902,-288 1378.4902,-324 1398.4902,-324 1398.4902,-288 1378.4902,-288"/>
<polygon fill="#ead1dc" stroke="transparent" points="1400.4902,-288 1400.4902,-324 1498.4902,-324 1498.4902,-288 1400.4902,-288"/>
<text text-anchor="start" x="1411.0028" y="-301.4" font-family="Times,serif" font-size="14.00" fill="#000000">UnmarshalTo</text>
<polygon fill="#ffffff" stroke="transparent" points="1500.4902,-288 1500.4902,-324 1520.4902,-324 1520.4902,-288 1500.4902,-288"/>
<polygon fill="#ead1dc" stroke="transparent" points="1522.4902,-288 1522.4902,-324 1648.4902,-324 1648.4902,-288 1522.4902,-288"/>
<text text-anchor="start" x="1532.9916" y="-301.4" font-family="Times,serif" font-size="14.00" fill="#000000">FormatFromString</text>
<polygon fill="#ffffff" stroke="transparent" points="1650.4902,-288 1650.4902,-324 1670.4902,-324 1670.4902,-288 1650.4902,-288"/>
<polygon fill="#ffffff" stroke="transparent" points="1378.4902,-266 1378.4902,-286 1398.4902,-286 1398.4902,-266 1378.4902,-266"/>
<polygon fill="#ffffff" stroke="transparent" points="1378.4902,-228 1378.4902,-264 1670.4902,-264 1670.4902,-228 1378.4902,-228"/>
<text text-anchor="start" x="1501.162" y="-241.4" font-family="Times,serif" font-size="14.00" fill="#000000">function</text>
</g>
<!-- dctHGkf&#45;&gt;ddRsd1k -->
<g id="edge8" class="edge">
<title>dctHGkf:ddK2640-&gt;ddRsd1k:dcLWo4o</title>
<g id="a_edge8"><a xlink:title="Config.loadConfigFromDisk -&gt; UnmarshalTo: &#10;&#10;From: config.go (Line: 93, Column: 23) To: config.go (Line: 119, Column: 6)&#10;">
<path fill="none" stroke="#000000" d="M1008.4022,-1460.7924C1062.0242,-1422.7449 1181.1809,-1328.9275 1229.4902,-1216.2 1298.4396,-1055.3098 1196.3857,-579.0269 1289.4902,-430.8 1317.7333,-385.8355 1368.1838,-350.5563 1404.9007,-329.1446"/>
<polygon fill="#000000" stroke="#000000" points="1406.9649,-331.9966 1413.9177,-324.0023 1403.4971,-325.9159 1406.9649,-331.9966"/>
</a>
</g>
<text text-anchor="middle" x="1258.9902" y="-545.8" font-family="Times,serif" font-size="14.00" fill="#000000">1</text>
</g>
<!-- dctHGkf&#45;&gt;ddRsd1k -->
<g id="edge23" class="edge">
<title>dctHGkf:ddK2640-&gt;ddRsd1k:ddp1FjC</title>
<g id="a_edge23"><a xlink:title="Config.loadConfigFromDisk -&gt; FormatFromString: &#10;&#10;From: config.go (Line: 90, Column: 28) To: config.go (Line: 103, Column: 6)&#10;">
<path fill="none" stroke="#000000" d="M1013.796,-1460.8302C1074.9717,-1424.1629 1205.2889,-1334.6135 1246.4902,-1216.2 1347.9623,-924.5668 1294.4902,-831.8823 1294.4902,-523.1 1294.4902,-523.1 1294.4902,-523.1 1294.4902,-450.3 1294.4902,-401.7028 1426.3988,-353.1335 1512.5954,-326.5833"/>
<polygon fill="#000000" stroke="#000000" points="1513.8012,-329.8749 1522.3475,-323.613 1511.7616,-323.1786 1513.8012,-329.8749"/>
</a>
</g>
<text text-anchor="middle" x="1297.9902" y="-545.8" font-family="Times,serif" font-size="14.00" fill="#000000">1</text>
</g>
<!-- dbjiWUc -->
<g id="node6" class="node">
<title>dbjiWUc</title>
<polygon fill="none" stroke="#000000" stroke-dasharray="1,5" points="941.9902,-1183.4 118.9902,-1183.4 118.9902,-595.4 941.9902,-595.4 941.9902,-1183.4"/>
<polygon fill="#ffffff" stroke="transparent" points="129.4902,-1157.4 129.4902,-1177.4 149.4902,-1177.4 149.4902,-1157.4 129.4902,-1157.4"/>
<polygon fill="#ffffff" stroke="transparent" points="129.4902,-1135.4 129.4902,-1155.4 149.4902,-1155.4 149.4902,-1135.4 129.4902,-1135.4"/>
<polygon fill="#ffffff" stroke="transparent" points="129.4902,-1097.4 129.4902,-1133.4 149.4902,-1133.4 149.4902,-1097.4 129.4902,-1097.4"/>
<polygon fill="#ffffff" stroke="transparent" points="151.4902,-1097.4 151.4902,-1133.4 300.4902,-1133.4 300.4902,-1097.4 151.4902,-1097.4"/>
<polygon fill="#ffffff" stroke="transparent" points="302.4902,-1097.4 302.4902,-1133.4 411.4902,-1133.4 411.4902,-1097.4 302.4902,-1097.4"/>
<polygon fill="#ffffff" stroke="transparent" points="413.4902,-1097.4 413.4902,-1133.4 522.4902,-1133.4 522.4902,-1097.4 413.4902,-1097.4"/>
<polygon fill="#ffffff" stroke="transparent" points="524.4902,-1097.4 524.4902,-1133.4 544.4902,-1133.4 544.4902,-1097.4 524.4902,-1097.4"/>
<polygon fill="#a2c4c9" stroke="transparent" points="546.4902,-1097.4 546.4902,-1133.4 695.4902,-1133.4 695.4902,-1097.4 546.4902,-1097.4"/>
<text text-anchor="start" x="579.7714" y="-1110.8" font-family="Times,serif" font-size="14.00" fill="#000000">ModuleConfig</text>
<polygon fill="#f3f3f3" stroke="transparent" points="697.4902,-1097.4 697.4902,-1133.4 782.4902,-1133.4 782.4902,-1097.4 697.4902,-1097.4"/>
<text text-anchor="start" x="718.6003" y="-1110.8" font-family="Times,serif" font-size="14.00" fill="#000000">Mounts</text>
<polygon fill="#f3f3f3" stroke="transparent" points="784.4902,-1097.4 784.4902,-1133.4 847.4902,-1133.4 847.4902,-1097.4 784.4902,-1097.4"/>
<text text-anchor="start" x="794.2167" y="-1110.8" font-family="Times,serif" font-size="14.00" fill="#000000">Imports</text>
<polygon fill="#ffffff" stroke="transparent" points="849.4902,-1097.4 849.4902,-1133.4 910.4902,-1133.4 910.4902,-1097.4 849.4902,-1097.4"/>
<polygon fill="#ffffff" stroke="transparent" points="912.4902,-1097.4 912.4902,-1133.4 932.4902,-1133.4 932.4902,-1097.4 912.4902,-1097.4"/>
<polygon fill="#ffffff" stroke="transparent" points="129.4902,-1075.4 129.4902,-1095.4 149.4902,-1095.4 149.4902,-1075.4 129.4902,-1075.4"/>
<polygon fill="#ffffff" stroke="transparent" points="129.4902,-1037.4 129.4902,-1073.4 149.4902,-1073.4 149.4902,-1037.4 129.4902,-1037.4"/>
<polygon fill="#a4c2f4" stroke="transparent" points="151.4902,-1037.4 151.4902,-1073.4 300.4902,-1073.4 300.4902,-1037.4 151.4902,-1037.4"/>
<text text-anchor="start" x="215.8829" y="-1050.8" font-family="Times,serif" font-size="14.00" fill="#000000">add</text>
<polygon fill="#a4c2f4" stroke="transparent" points="302.4902,-1037.4 302.4902,-1073.4 411.4902,-1073.4 411.4902,-1037.4 302.4902,-1037.4"/>
<text text-anchor="start" x="312.2868" y="-1050.8" font-family="Times,serif" font-size="14.00" fill="#000000">addAndRecurse</text>
<polygon fill="#a4c2f4" stroke="transparent" points="413.4902,-1037.4 413.4902,-1073.4 522.4902,-1073.4 522.4902,-1037.4 413.4902,-1037.4"/>
<text text-anchor="start" x="423.2742" y="-1050.8" font-family="Times,serif" font-size="14.00" fill="#000000">CollectModules</text>
<polygon fill="#ffffff" stroke="transparent" points="524.4902,-1037.4 524.4902,-1073.4 544.4902,-1073.4 544.4902,-1037.4 524.4902,-1037.4"/>
<polygon fill="#a2c4c9" stroke="transparent" points="546.4902,-1037.4 546.4902,-1073.4 695.4902,-1073.4 695.4902,-1037.4 546.4902,-1037.4"/>
<text text-anchor="start" x="573.1662" y="-1050.8" font-family="Times,serif" font-size="14.00" fill="#000000">ModuleCollector</text>
<polygon fill="#f3f3f3" stroke="transparent" points="697.4902,-1037.4 697.4902,-1073.4 782.4902,-1073.4 782.4902,-1037.4 697.4902,-1037.4"/>
<text text-anchor="start" x="715.493" y="-1050.8" font-family="Times,serif" font-size="14.00" fill="#000000">Modules</text>
<polygon fill="#ffffff" stroke="transparent" points="784.4902,-1037.4 784.4902,-1073.4 847.4902,-1073.4 847.4902,-1037.4 784.4902,-1037.4"/>
<polygon fill="#ffffff" stroke="transparent" points="849.4902,-1037.4 849.4902,-1073.4 910.4902,-1073.4 910.4902,-1037.4 849.4902,-1037.4"/>
<polygon fill="#ffffff" stroke="transparent" points="912.4902,-1037.4 912.4902,-1073.4 932.4902,-1073.4 932.4902,-1037.4 912.4902,-1037.4"/>
<polygon fill="#ffffff" stroke="transparent" points="129.4902,-1015.4 129.4902,-1035.4 149.4902,-1035.4 149.4902,-1015.4 129.4902,-1015.4"/>
<polygon fill="#ffffff" stroke="transparent" points="129.4902,-977.4 129.4902,-1013.4 149.4902,-1013.4 149.4902,-977.4 129.4902,-977.4"/>
<polygon fill="#ffffff" stroke="transparent" points="151.4902,-977.4 151.4902,-1013.4 300.4902,-1013.4 300.4902,-977.4 151.4902,-977.4"/>
<polygon fill="#ffffff" stroke="transparent" points="302.4902,-977.4 302.4902,-1013.4 411.4902,-1013.4 411.4902,-977.4 302.4902,-977.4"/>
<polygon fill="#ffffff" stroke="transparent" points="413.4902,-977.4 413.4902,-1013.4 522.4902,-1013.4 522.4902,-977.4 413.4902,-977.4"/>
<polygon fill="#ffffff" stroke="transparent" points="524.4902,-977.4 524.4902,-1013.4 544.4902,-1013.4 544.4902,-977.4 524.4902,-977.4"/>
<polygon fill="#a2c4c9" stroke="transparent" points="546.4902,-977.4 546.4902,-1013.4 695.4902,-1013.4 695.4902,-977.4 546.4902,-977.4"/>
<text text-anchor="start" x="602.3226" y="-990.8" font-family="Times,serif" font-size="14.00" fill="#000000">Mount</text>
<polygon fill="#f3f3f3" stroke="transparent" points="697.4902,-977.4 697.4902,-1013.4 782.4902,-1013.4 782.4902,-977.4 697.4902,-977.4"/>
<text text-anchor="start" x="720.554" y="-990.8" font-family="Times,serif" font-size="14.00" fill="#000000">Source</text>
<polygon fill="#f3f3f3" stroke="transparent" points="784.4902,-977.4 784.4902,-1013.4 847.4902,-1013.4 847.4902,-977.4 784.4902,-977.4"/>
<text text-anchor="start" x="797.7237" y="-990.8" font-family="Times,serif" font-size="14.00" fill="#000000">Target</text>
<polygon fill="#f3f3f3" stroke="transparent" points="849.4902,-977.4 849.4902,-1013.4 910.4902,-1013.4 910.4902,-977.4 849.4902,-977.4"/>
<text text-anchor="start" x="865.6066" y="-990.8" font-family="Times,serif" font-size="14.00" fill="#000000">Lang</text>
<polygon fill="#ffffff" stroke="transparent" points="912.4902,-977.4 912.4902,-1013.4 932.4902,-1013.4 932.4902,-977.4 912.4902,-977.4"/>
<polygon fill="#ffffff" stroke="transparent" points="129.4902,-955.4 129.4902,-975.4 149.4902,-975.4 149.4902,-955.4 129.4902,-955.4"/>
<polygon fill="#ffffff" stroke="transparent" points="129.4902,-917.4 129.4902,-953.4 149.4902,-953.4 149.4902,-917.4 129.4902,-917.4"/>
<polygon fill="#ffffff" stroke="transparent" points="151.4902,-917.4 151.4902,-953.4 300.4902,-953.4 300.4902,-917.4 151.4902,-917.4"/>
<polygon fill="#ffffff" stroke="transparent" points="302.4902,-917.4 302.4902,-953.4 411.4902,-953.4 411.4902,-917.4 302.4902,-917.4"/>
<polygon fill="#ffffff" stroke="transparent" points="413.4902,-917.4 413.4902,-953.4 522.4902,-953.4 522.4902,-917.4 413.4902,-917.4"/>
<polygon fill="#ffffff" stroke="transparent" points="524.4902,-917.4 524.4902,-953.4 544.4902,-953.4 544.4902,-917.4 524.4902,-917.4"/>
<polygon fill="#a2c4c9" stroke="transparent" points="546.4902,-917.4 546.4902,-953.4 695.4902,-953.4 695.4902,-917.4 546.4902,-917.4"/>
<text text-anchor="start" x="601.939" y="-930.8" font-family="Times,serif" font-size="14.00" fill="#000000">Import</text>
<polygon fill="#f3f3f3" stroke="transparent" points="697.4902,-917.4 697.4902,-953.4 782.4902,-953.4 782.4902,-917.4 697.4902,-917.4"/>
<text text-anchor="start" x="727.5463" y="-930.8" font-family="Times,serif" font-size="14.00" fill="#000000">Path</text>
<polygon fill="#ffffff" stroke="transparent" points="784.4902,-917.4 784.4902,-953.4 847.4902,-953.4 847.4902,-917.4 784.4902,-917.4"/>
<polygon fill="#ffffff" stroke="transparent" points="849.4902,-917.4 849.4902,-953.4 910.4902,-953.4 910.4902,-917.4 849.4902,-917.4"/>
<polygon fill="#ffffff" stroke="transparent" points="912.4902,-917.4 912.4902,-953.4 932.4902,-953.4 932.4902,-917.4 912.4902,-917.4"/>
<polygon fill="#ffffff" stroke="transparent" points="129.4902,-895.4 129.4902,-915.4 149.4902,-915.4 149.4902,-895.4 129.4902,-895.4"/>
<polygon fill="#ffffff" stroke="transparent" points="129.4902,-857.4 129.4902,-893.4 149.4902,-893.4 149.4902,-857.4 129.4902,-857.4"/>
<polygon fill="#ffffff" stroke="transparent" points="151.4902,-857.4 151.4902,-893.4 300.4902,-893.4 300.4902,-857.4 151.4902,-857.4"/>
<polygon fill="#a4c2f4" stroke="transparent" points="302.4902,-857.4 302.4902,-893.4 411.4902,-893.4 411.4902,-857.4 302.4902,-857.4"/>
<text text-anchor="start" x="335.6003" y="-870.8" font-family="Times,serif" font-size="14.00" fill="#000000">Mounts</text>
<polygon fill="#a4c2f4" stroke="transparent" points="413.4902,-857.4 413.4902,-893.4 522.4902,-893.4 522.4902,-857.4 413.4902,-857.4"/>
<text text-anchor="start" x="448.5463" y="-870.8" font-family="Times,serif" font-size="14.00" fill="#000000">Config</text>
<polygon fill="#ffffff" stroke="transparent" points="524.4902,-857.4 524.4902,-893.4 544.4902,-893.4 544.4902,-857.4 524.4902,-857.4"/>
<polygon fill="#a2c4c9" stroke="transparent" points="546.4902,-819.4 546.4902,-893.4 695.4902,-893.4 695.4902,-819.4 546.4902,-819.4"/>
<text text-anchor="start" x="577.4488" y="-852.2" font-family="Times,serif" font-size="14.00" fill="#000000">moduleAdapter</text>
<polygon fill="#f3f3f3" stroke="transparent" points="697.4902,-857.4 697.4902,-893.4 782.4902,-893.4 782.4902,-857.4 697.4902,-857.4"/>
<text text-anchor="start" x="707.3324" y="-870.8" font-family="Times,serif" font-size="14.00" fill="#000000">projectMod</text>
<polygon fill="#f3f3f3" stroke="transparent" points="784.4902,-857.4 784.4902,-893.4 847.4902,-893.4 847.4902,-857.4 784.4902,-857.4"/>
<text text-anchor="start" x="798.4993" y="-870.8" font-family="Times,serif" font-size="14.00" fill="#000000">owner</text>
<polygon fill="#f3f3f3" stroke="transparent" points="849.4902,-857.4 849.4902,-893.4 910.4902,-893.4 910.4902,-857.4 849.4902,-857.4"/>
<text text-anchor="start" x="859.3773" y="-870.8" font-family="Times,serif" font-size="14.00" fill="#000000">mounts</text>
<polygon fill="#ffffff" stroke="transparent" points="912.4902,-857.4 912.4902,-893.4 932.4902,-893.4 932.4902,-857.4 912.4902,-857.4"/>
<polygon fill="#ffffff" stroke="transparent" points="129.4902,-819.4 129.4902,-855.4 149.4902,-855.4 149.4902,-819.4 129.4902,-819.4"/>
<polygon fill="#ffffff" stroke="transparent" points="151.4902,-819.4 151.4902,-855.4 300.4902,-855.4 300.4902,-819.4 151.4902,-819.4"/>
<polygon fill="#ffffff" stroke="transparent" points="302.4902,-819.4 302.4902,-855.4 411.4902,-855.4 411.4902,-819.4 302.4902,-819.4"/>
<polygon fill="#a4c2f4" stroke="transparent" points="413.4902,-819.4 413.4902,-855.4 522.4902,-855.4 522.4902,-819.4 413.4902,-819.4"/>
<text text-anchor="start" x="448.946" y="-832.8" font-family="Times,serif" font-size="14.00" fill="#000000">Owner</text>
<polygon fill="#ffffff" stroke="transparent" points="524.4902,-819.4 524.4902,-855.4 544.4902,-855.4 544.4902,-819.4 524.4902,-819.4"/>
<polygon fill="#f3f3f3" stroke="transparent" points="697.4902,-819.4 697.4902,-855.4 782.4902,-855.4 782.4902,-819.4 697.4902,-819.4"/>
<text text-anchor="start" x="722.1073" y="-832.8" font-family="Times,serif" font-size="14.00" fill="#000000">config</text>
<polygon fill="#ffffff" stroke="transparent" points="784.4902,-819.4 784.4902,-855.4 847.4902,-855.4 847.4902,-819.4 784.4902,-819.4"/>
<polygon fill="#ffffff" stroke="transparent" points="849.4902,-819.4 849.4902,-855.4 910.4902,-855.4 910.4902,-819.4 849.4902,-819.4"/>
<polygon fill="#ffffff" stroke="transparent" points="912.4902,-819.4 912.4902,-855.4 932.4902,-855.4 932.4902,-819.4 912.4902,-819.4"/>
<polygon fill="#ffffff" stroke="transparent" points="129.4902,-797.4 129.4902,-817.4 149.4902,-817.4 149.4902,-797.4 129.4902,-797.4"/>
<polygon fill="#ffffff" stroke="transparent" points="129.4902,-759.4 129.4902,-795.4 149.4902,-795.4 149.4902,-759.4 129.4902,-759.4"/>
<polygon fill="#a4c2f4" stroke="transparent" points="151.4902,-759.4 151.4902,-795.4 300.4902,-795.4 300.4902,-759.4 151.4902,-759.4"/>
<text text-anchor="start" x="161.4586" y="-772.8" font-family="Times,serif" font-size="14.00" fill="#000000">getNestedKeyAndMap</text>
<polygon fill="#a4c2f4" stroke="transparent" points="302.4902,-759.4 302.4902,-795.4 411.4902,-795.4 411.4902,-759.4 302.4902,-759.4"/>
<text text-anchor="start" x="329.7721" y="-772.8" font-family="Times,serif" font-size="14.00" fill="#000000">GetString</text>
<polygon fill="#a4c2f4" stroke="transparent" points="413.4902,-759.4 413.4902,-795.4 522.4902,-795.4 522.4902,-759.4 413.4902,-759.4"/>
<text text-anchor="start" x="457.8843" y="-772.8" font-family="Times,serif" font-size="14.00" fill="#000000">Get</text>
<polygon fill="#ffffff" stroke="transparent" points="524.4902,-759.4 524.4902,-795.4 544.4902,-795.4 544.4902,-759.4 524.4902,-759.4"/>
<polygon fill="#a2c4c9" stroke="transparent" points="546.4902,-721.4 546.4902,-795.4 695.4902,-795.4 695.4902,-721.4 546.4902,-721.4"/>
<text text-anchor="start" x="556.453" y="-754.2" font-family="Times,serif" font-size="14.00" fill="#000000">DefaultConfigProvider</text>
<polygon fill="#f3f3f3" stroke="transparent" points="697.4902,-759.4 697.4902,-795.4 782.4902,-795.4 782.4902,-759.4 697.4902,-759.4"/>
<text text-anchor="start" x="726.3766" y="-772.8" font-family="Times,serif" font-size="14.00" fill="#000000">Root</text>
<polygon fill="#ffffff" stroke="transparent" points="784.4902,-759.4 784.4902,-795.4 847.4902,-795.4 847.4902,-759.4 784.4902,-759.4"/>
<polygon fill="#ffffff" stroke="transparent" points="849.4902,-759.4 849.4902,-795.4 910.4902,-795.4 910.4902,-759.4 849.4902,-759.4"/>
<polygon fill="#ffffff" stroke="transparent" points="912.4902,-759.4 912.4902,-795.4 932.4902,-795.4 932.4902,-759.4 912.4902,-759.4"/>
<polygon fill="#ffffff" stroke="transparent" points="129.4902,-721.4 129.4902,-757.4 149.4902,-757.4 149.4902,-721.4 129.4902,-721.4"/>
<polygon fill="#ffffff" stroke="transparent" points="151.4902,-721.4 151.4902,-757.4 300.4902,-757.4 300.4902,-721.4 151.4902,-721.4"/>
<polygon fill="#a4c2f4" stroke="transparent" points="302.4902,-721.4 302.4902,-757.4 411.4902,-757.4 411.4902,-721.4 302.4902,-721.4"/>
<text text-anchor="start" x="324.3352" y="-734.8" font-family="Times,serif" font-size="14.00" fill="#000000">SetDefaults</text>
<polygon fill="#a4c2f4" stroke="transparent" points="413.4902,-721.4 413.4902,-757.4 522.4902,-757.4 522.4902,-721.4 413.4902,-721.4"/>
<text text-anchor="start" x="459.0463" y="-734.8" font-family="Times,serif" font-size="14.00" fill="#000000">Set</text>
<polygon fill="#ffffff" stroke="transparent" points="524.4902,-721.4 524.4902,-757.4 544.4902,-757.4 544.4902,-721.4 524.4902,-721.4"/>
<polygon fill="#ffffff" stroke="transparent" points="697.4902,-721.4 697.4902,-757.4 782.4902,-757.4 782.4902,-721.4 697.4902,-721.4"/>
<polygon fill="#ffffff" stroke="transparent" points="784.4902,-721.4 784.4902,-757.4 847.4902,-757.4 847.4902,-721.4 784.4902,-721.4"/>
<polygon fill="#ffffff" stroke="transparent" points="849.4902,-721.4 849.4902,-757.4 910.4902,-757.4 910.4902,-721.4 849.4902,-721.4"/>
<polygon fill="#ffffff" stroke="transparent" points="912.4902,-721.4 912.4902,-757.4 932.4902,-757.4 932.4902,-721.4 912.4902,-721.4"/>
<polygon fill="#ffffff" stroke="transparent" points="129.4902,-699.4 129.4902,-719.4 149.4902,-719.4 149.4902,-699.4 129.4902,-699.4"/>
<polygon fill="#ffffff" stroke="transparent" points="129.4902,-661.4 129.4902,-697.4 149.4902,-697.4 149.4902,-661.4 129.4902,-661.4"/>
<polygon fill="#ead1dc" stroke="transparent" points="151.4902,-661.4 151.4902,-697.4 300.4902,-697.4 300.4902,-661.4 151.4902,-661.4"/>
<text text-anchor="start" x="204.6003" y="-674.8" font-family="Times,serif" font-size="14.00" fill="#000000">Mounts</text>
<polygon fill="#ead1dc" stroke="transparent" points="302.4902,-661.4 302.4902,-697.4 411.4902,-697.4 411.4902,-661.4 302.4902,-661.4"/>
<text text-anchor="start" x="337.946" y="-674.8" font-family="Times,serif" font-size="14.00" fill="#000000">Owner</text>
<polygon fill="#ead1dc" stroke="transparent" points="413.4902,-661.4 413.4902,-697.4 522.4902,-697.4 522.4902,-661.4 413.4902,-661.4"/>
<text text-anchor="start" x="448.5463" y="-674.8" font-family="Times,serif" font-size="14.00" fill="#000000">Config</text>
<polygon fill="#ffffff" stroke="transparent" points="524.4902,-661.4 524.4902,-697.4 544.4902,-697.4 544.4902,-661.4 524.4902,-661.4"/>
<polygon fill="#9fc5e8" stroke="transparent" points="546.4902,-661.4 546.4902,-697.4 695.4902,-697.4 695.4902,-661.4 546.4902,-661.4"/>
<text text-anchor="start" x="599.2153" y="-674.8" font-family="Times,serif" font-size="14.00" fill="#000000">Module</text>
<polygon fill="#ffffff" stroke="transparent" points="697.4902,-661.4 697.4902,-697.4 782.4902,-697.4 782.4902,-661.4 697.4902,-661.4"/>
<polygon fill="#ffffff" stroke="transparent" points="784.4902,-661.4 784.4902,-697.4 847.4902,-697.4 847.4902,-661.4 784.4902,-661.4"/>
<polygon fill="#ffffff" stroke="transparent" points="849.4902,-661.4 849.4902,-697.4 910.4902,-697.4 910.4902,-661.4 849.4902,-661.4"/>
<polygon fill="#ffffff" stroke="transparent" points="912.4902,-661.4 912.4902,-697.4 932.4902,-697.4 932.4902,-661.4 912.4902,-661.4"/>
<polygon fill="#ffffff" stroke="transparent" points="129.4902,-639.4 129.4902,-659.4 149.4902,-659.4 149.4902,-639.4 129.4902,-639.4"/>
<polygon fill="#ffffff" stroke="transparent" points="129.4902,-601.4 129.4902,-637.4 932.4902,-637.4 932.4902,-601.4 129.4902,-601.4"/>
<text text-anchor="start" x="498.7251" y="-614.8" font-family="Times,serif" font-size="14.00" fill="#000000">valueobject</text>
</g>
<!-- dctHGkf&#45;&gt;dbjiWUc -->
<g id="edge7" class="edge">
<title>dctHGkf:dckXbYW-&gt;dbjiWUc:dAAwxA</title>
<g id="a_edge7"><a xlink:title="Config.loadModules -&gt; ModuleCollector.CollectModules: &#10;&#10;From: config.go (Line: 78, Column: 19) To: collect.go (Line: 15, Column: 28)&#10;">
<path fill="none" stroke="#000000" d="M1072.334,-1460.7984C971.2462,-1393.0441 616.7363,-1155.4327 502.9403,-1079.1605"/>
<polygon fill="#000000" stroke="#000000" points="504.8007,-1076.194 494.5453,-1073.5338 500.9033,-1082.0088 504.8007,-1076.194"/>
</a>
</g>
<text text-anchor="middle" x="774.9902" y="-1247.4" font-family="Times,serif" font-size="14.00" fill="#000000">1</text>
</g>
<!-- dctHGkf&#45;&gt;dbjiWUc -->
<g id="edge15" class="edge">
<title>dctHGkf:dco61II-&gt;dbjiWUc</title>
<g id="a_edge15"><a xlink:title="Config -&gt; valueobject: &#10;&#10;">
<path fill="none" stroke="#000000" stroke-dasharray="1,5" d="M1283.7118,-1460.8038C1289.5143,-1421.6116 1296.9848,-1328.6752 1248.4902,-1278 1153.767,-1179.0175 1070.8001,-1273.7939 946.4902,-1216.2 929.0651,-1208.1268 911.7112,-1199.1922 894.5331,-1189.5906"/>
<polygon fill="#000000" stroke="#000000" points="894.2949,-1189.4553 887.1021,-1189.9696 883.861,-1183.5279 891.0537,-1183.0136 894.2949,-1189.4553"/>
</a>
</g>
<text text-anchor="middle" x="1229.9902" y="-1247.4" font-family="Times,serif" font-size="14.00" fill="#000000">1</text>
</g>
<!-- dbVptRJ -->
<g id="node7" class="node">
<title>dbVptRJ</title>
<polygon fill="none" stroke="#000000" stroke-dasharray="1,5" points="1014.9902,-352 793.9902,-352 793.9902,-222 1014.9902,-222 1014.9902,-352"/>
<polygon fill="#ffffff" stroke="transparent" points="804.4902,-326 804.4902,-346 824.4902,-346 824.4902,-326 804.4902,-326"/>
<polygon fill="#ffffff" stroke="transparent" points="804.4902,-288 804.4902,-324 824.4902,-324 824.4902,-288 804.4902,-288"/>
<polygon fill="#f4cccc" stroke="transparent" points="826.4902,-288 826.4902,-324 896.4902,-324 896.4902,-288 826.4902,-288"/>
<text text-anchor="start" x="836.993" y="-301.4" font-family="Times,serif" font-size="14.00" fill="#000000">Modules</text>
<polygon fill="#ffffff" stroke="transparent" points="898.4902,-288 898.4902,-324 918.4902,-324 918.4902,-288 898.4902,-288"/>
<polygon fill="#f4cccc" stroke="transparent" points="920.4902,-288 920.4902,-324 983.4902,-324 983.4902,-288 920.4902,-288"/>
<text text-anchor="start" x="931.3864" y="-301.4" font-family="Times,serif" font-size="14.00" fill="#000000">Params</text>
<polygon fill="#ffffff" stroke="transparent" points="985.4902,-288 985.4902,-324 1005.4902,-324 1005.4902,-288 985.4902,-288"/>
<polygon fill="#ffffff" stroke="transparent" points="804.4902,-266 804.4902,-286 824.4902,-286 824.4902,-266 804.4902,-266"/>
<polygon fill="#ffffff" stroke="transparent" points="804.4902,-228 804.4902,-264 1005.4902,-264 1005.4902,-228 804.4902,-228"/>
<text text-anchor="start" x="884.3927" y="-241.4" font-family="Times,serif" font-size="14.00" fill="#000000">general</text>
</g>
<!-- dctHGkf&#45;&gt;dbVptRJ -->
<g id="edge10" class="edge">
<title>dctHGkf:dcJxkvA-&gt;dbVptRJ:ddiJRTI</title>
<g id="a_edge10"><a xlink:title="Config.Modules -&gt; Modules: &#10;&#10;From: config.go (Line: 27, Column: 2) To: . (Line: -1, Column: 0)&#10;">
<path fill="none" stroke="#000000" stroke-dasharray="1,5" d="M1392.4384,-1460.9513C1383.0769,-1418.5104 1359.878,-1308.9589 1348.4902,-1216.2 1329.6618,-1062.834 1370.6615,-659.7507 1299.4902,-522.6 1275.8574,-477.0584 1271.155,-460.743 1229.4902,-430.8 1127.9317,-357.8136 980.4832,-325.0891 906.8641,-312.5888"/>
<polygon fill="#000000" stroke="#000000" points="906.9884,-309.0621 896.5522,-310.8888 905.8497,-315.9689 906.9884,-309.0621"/>
</a>
</g>
<text text-anchor="middle" x="1316.9902" y="-545.8" font-family="Times,serif" font-size="14.00" fill="#000000">1</text>
</g>
<!-- ddVref9 -->
<g id="node8" class="node">
<title>ddVref9</title>
<polygon fill="none" stroke="#000000" stroke-dasharray="1,5" points="670.4902,-390 126.4902,-390 126.4902,-184 670.4902,-184 670.4902,-390"/>
<polygon fill="#ffffff" stroke="transparent" points="136.4902,-364 136.4902,-384 156.4902,-384 156.4902,-364 136.4902,-364"/>
<polygon fill="#ffffff" stroke="transparent" points="136.4902,-326 136.4902,-362 156.4902,-362 156.4902,-326 136.4902,-326"/>
<polygon fill="#ead1dc" stroke="transparent" points="158.4902,-326 158.4902,-362 325.4902,-362 325.4902,-326 158.4902,-326"/>
<text text-anchor="start" x="200.0126" y="-339.4" font-family="Times,serif" font-size="14.00" fill="#000000">PrepareParams</text>
<polygon fill="#ffffff" stroke="transparent" points="327.4902,-326 327.4902,-362 347.4902,-362 347.4902,-326 327.4902,-326"/>
<polygon fill="#ead1dc" stroke="transparent" points="349.4902,-326 349.4902,-362 452.4902,-362 452.4902,-326 349.4902,-326"/>
<text text-anchor="start" x="386.9937" y="-339.4" font-family="Times,serif" font-size="14.00" fill="#000000">IsNil</text>
<polygon fill="#ffffff" stroke="transparent" points="454.4902,-326 454.4902,-362 482.4902,-362 482.4902,-326 454.4902,-326"/>
<polygon fill="#ead1dc" stroke="transparent" points="484.4902,-326 484.4902,-362 636.4902,-362 636.4902,-326 484.4902,-326"/>
<text text-anchor="start" x="531.3254" y="-339.4" font-family="Times,serif" font-size="14.00" fill="#000000">ToStringE</text>
<polygon fill="#ffffff" stroke="transparent" points="638.4902,-326 638.4902,-362 658.4902,-362 658.4902,-326 638.4902,-326"/>
<polygon fill="#ffffff" stroke="transparent" points="136.4902,-288 136.4902,-324 156.4902,-324 156.4902,-288 136.4902,-288"/>
<polygon fill="#ead1dc" stroke="transparent" points="158.4902,-288 158.4902,-324 325.4902,-324 325.4902,-288 158.4902,-288"/>
<text text-anchor="start" x="168.1325" y="-301.4" font-family="Times,serif" font-size="14.00" fill="#000000">indirectToStringerOrError</text>
<polygon fill="#ffffff" stroke="transparent" points="327.4902,-288 327.4902,-324 347.4902,-324 347.4902,-288 327.4902,-288"/>
<polygon fill="#ead1dc" stroke="transparent" points="349.4902,-288 349.4902,-324 452.4902,-324 452.4902,-288 349.4902,-288"/>
<text text-anchor="start" x="358.9958" y="-301.4" font-family="Times,serif" font-size="14.00" fill="#000000">ToStringMapE</text>
<polygon fill="#ffffff" stroke="transparent" points="454.4902,-288 454.4902,-324 482.4902,-324 482.4902,-288 454.4902,-288"/>
<polygon fill="#ead1dc" stroke="transparent" points="484.4902,-288 484.4902,-324 636.4902,-324 636.4902,-288 484.4902,-288"/>
<text text-anchor="start" x="498.683" y="-301.4" font-family="Times,serif" font-size="14.00" fill="#000000">ToParamsAndPrepare</text>
<polygon fill="#ffffff" stroke="transparent" points="638.4902,-288 638.4902,-324 658.4902,-324 658.4902,-288 638.4902,-288"/>
<polygon fill="#ffffff" stroke="transparent" points="136.4902,-250 136.4902,-286 156.4902,-286 156.4902,-250 136.4902,-250"/>
<polygon fill="#ead1dc" stroke="transparent" points="158.4902,-250 158.4902,-286 347.4902,-286 347.4902,-250 158.4902,-250"/>
<text text-anchor="start" x="191.9523" y="-263.4" font-family="Times,serif" font-size="14.00" fill="#000000">NewModuleCollector</text>
<polygon fill="#ffffff" stroke="transparent" points="349.4902,-250 349.4902,-286 452.4902,-286 452.4902,-250 349.4902,-250"/>
<polygon fill="#ead1dc" stroke="transparent" points="454.4902,-250 454.4902,-286 636.4902,-286 636.4902,-250 454.4902,-250"/>
<text text-anchor="start" x="465.0098" y="-263.4" font-family="Times,serif" font-size="14.00" fill="#000000">ApplyProjectConfigDefaults</text>
<polygon fill="#ffffff" stroke="transparent" points="638.4902,-250 638.4902,-286 658.4902,-286 658.4902,-250 638.4902,-250"/>
<polygon fill="#ffffff" stroke="transparent" points="136.4902,-228 136.4902,-248 156.4902,-248 156.4902,-228 136.4902,-228"/>
<polygon fill="#ffffff" stroke="transparent" points="136.4902,-190 136.4902,-226 660.4902,-226 660.4902,-190 136.4902,-190"/>
<text text-anchor="start" x="375.162" y="-203.4" font-family="Times,serif" font-size="14.00" fill="#000000">function</text>
</g>
<!-- dctHGkf&#45;&gt;ddVref9 -->
<g id="edge31" class="edge">
<title>dctHGkf:dckXbYW-&gt;ddVref9:dPIxy2</title>
<g id="a_edge31"><a xlink:title="Config.loadModules -&gt; NewModuleCollector: &#10;&#10;From: config.go (Line: 70, Column: 38) To: collect.go (Line: 9, Column: 6)&#10;">
<path fill="none" stroke="#000000" d="M1053.4376,-1477.2488C873.1068,-1469.34 218.7694,-1430.4483 94.4902,-1279 -118.6269,-1019.2924 96.4902,-859.0567 96.4902,-523.1 96.4902,-523.1 96.4902,-523.1 96.4902,-450.3 96.4902,-379.2728 165.6969,-321.9878 211.919,-291.6487"/>
<polygon fill="#000000" stroke="#000000" points="214.013,-294.4639 220.5448,-286.1221 210.2366,-288.5699 214.013,-294.4639"/>
</a>
</g>
<text text-anchor="middle" x="98.9902" y="-545.8" font-family="Times,serif" font-size="14.00" fill="#000000">1</text>
</g>
<!-- dctHGkf&#45;&gt;ddVref9 -->
<g id="edge32" class="edge">
<title>dctHGkf:dckXbYW-&gt;ddVref9:dbhQG7W</title>
<g id="a_edge32"><a xlink:title="Config.loadModules -&gt; ApplyProjectConfigDefaults: &#10;&#10;From: config.go (Line: 76, Column: 41) To: module.go (Line: 66, Column: 6)&#10;">
<path fill="none" stroke="#000000" d="M1053.201,-1474.0926C873.4993,-1454.003 226.1468,-1371.6435 106.4902,-1216.2 22.3398,-1106.8819 95.6992,-732.9329 106.4902,-595.4 107.1589,-586.8771 106.6825,-584.4749 109.4902,-576.4 118.4178,-550.7243 139.4902,-550.2835 139.4902,-523.1 139.4902,-523.1 139.4902,-523.1 139.4902,-450.3 139.4902,-441.353 138.6036,-437.5378 144.4902,-430.8 221.4017,-342.7666 352.9368,-301.6062 444.2948,-282.8606"/>
<polygon fill="#000000" stroke="#000000" points="444.9956,-286.2899 454.1167,-280.8996 443.625,-279.4253 444.9956,-286.2899"/>
</a>
</g>
<text text-anchor="middle" x="137.9902" y="-545.8" font-family="Times,serif" font-size="14.00" fill="#000000">1</text>
</g>
<!-- d97PCi -->
<g id="node4" class="node">
<title>d97PCi</title>
<polygon fill="none" stroke="#000000" stroke-dasharray="1,5" points="1834.4902,-352 1704.4902,-352 1704.4902,-222 1834.4902,-222 1834.4902,-352"/>
<polygon fill="#ffffff" stroke="transparent" points="1714.4902,-326 1714.4902,-346 1734.4902,-346 1734.4902,-326 1714.4902,-326"/>
<polygon fill="#ffffff" stroke="transparent" points="1714.4902,-288 1714.4902,-324 1734.4902,-324 1734.4902,-288 1714.4902,-288"/>
<polygon fill="#f4cccc" stroke="transparent" points="1736.4902,-288 1736.4902,-324 1802.4902,-324 1802.4902,-288 1736.4902,-288"/>
<text text-anchor="start" x="1749.2707" y="-301.4" font-family="Times,serif" font-size="14.00" fill="#000000">Format</text>
<polygon fill="#ffffff" stroke="transparent" points="1804.4902,-288 1804.4902,-324 1824.4902,-324 1824.4902,-288 1804.4902,-288"/>
<polygon fill="#ffffff" stroke="transparent" points="1714.4902,-266 1714.4902,-286 1734.4902,-286 1734.4902,-266 1714.4902,-266"/>
<polygon fill="#ffffff" stroke="transparent" points="1714.4902,-228 1714.4902,-264 1824.4902,-264 1824.4902,-228 1714.4902,-228"/>
<text text-anchor="start" x="1748.8927" y="-241.4" font-family="Times,serif" font-size="14.00" fill="#000000">general</text>
</g>
<!-- dLI3Vv&#45;&gt;d97PCi -->
<g id="edge24" class="edge">
<title>dLI3Vv-&gt;d97PCi</title>
<g id="a_edge24"><a xlink:title="entity -&gt; general: &#10;&#10;">
<path fill="none" stroke="#000000" stroke-dasharray="1,5" d="M1558.2518,-843.1487C1600.8139,-780.1567 1668.4902,-662.3336 1668.4902,-550 1668.4902,-550 1668.4902,-550 1668.4902,-450.3 1668.4902,-434.0778 1683.1085,-436.0342 1692.4902,-422.8 1706.1438,-403.5397 1719.421,-381.6634 1730.997,-361.1813"/>
<polygon fill="#000000" stroke="#000000" points="1734.197,-362.6298 1736.0201,-352.193 1728.0864,-359.2149 1734.197,-362.6298"/>
</a>
</g>
<text text-anchor="middle" x="1671.9902" y="-492" font-family="Times,serif" font-size="14.00" fill="#000000">1</text>
</g>
<!-- dLI3Vv&#45;&gt;ddRsd1k -->
<g id="edge34" class="edge">
<title>dLI3Vv-&gt;ddRsd1k</title>
<g id="a_edge34"><a xlink:title="entity -&gt; function: &#10;&#10;">
<path fill="none" stroke="#000000" stroke-dasharray="1,5" d="M1524.4902,-843.2867C1524.4902,-777.9998 1524.4902,-654.884 1524.4902,-550 1524.4902,-550 1524.4902,-550 1524.4902,-450.3 1524.4902,-421.5152 1524.4902,-389.8763 1524.4902,-362.175"/>
<polygon fill="#000000" stroke="#000000" points="1527.9903,-362.16 1524.4902,-352.16 1520.9903,-362.16 1527.9903,-362.16"/>
</a>
</g>
<text text-anchor="middle" x="1527.9902" y="-492" font-family="Times,serif" font-size="14.00" fill="#000000">1</text>
</g>
<!-- dbjiWUc&#45;&gt;dctHGkf -->
<g id="edge30" class="edge">
<title>dbjiWUc:dbkVtat-&gt;dctHGkf:dc7deqD</title>
<g id="a_edge30"><a xlink:title="DefaultConfigProvider -&gt; Provider: &#10;&#10;From: provider.go (Line: 14, Column: 6) To: type.go (Line: 10, Column: 6)&#10;">
<path fill="none" stroke="#000000" stroke-dasharray="1,5" d="M635.0781,-795.4313C670.3858,-885.714 774.4391,-1117.0077 946.4902,-1216.2 974.622,-1232.4188 1210.9899,-1224.4335 1237.4902,-1243.2 1271.6015,-1267.3563 1280.6378,-1316.0295 1282.1944,-1352.7748"/>
<polygon fill="#000000" stroke="#000000" points="1278.6959,-1352.8847 1282.4497,-1362.7922 1285.6936,-1352.7062 1278.6959,-1352.8847"/>
</a>
</g>
<text text-anchor="middle" x="1257.9902" y="-1247.4" font-family="Times,serif" font-size="14.00" fill="#000000">1</text>
</g>
<!-- dbjiWUc&#45;&gt;dbjiWUc -->
<g id="edge1" class="edge">
<title>dbjiWUc:dePcT4q-&gt;dbjiWUc:dbaGVfW</title>
<g id="a_edge1"><a xlink:title="ModuleCollector.addAndRecurse -&gt; ModuleCollector.add: &#10;&#10;From: collect.go (Line: 38, Column: 15) To: collect.go (Line: 47, Column: 28)&#10;">
<path fill="none" stroke="#000000" d="M398.8122,-1073.4019C573.7316,-1132.8498 959.9902,-1126.8492 959.9902,-1055.4 959.9902,-985.1369 480.1494,-978.1674 280.307,-1034.4915"/>
<polygon fill="#000000" stroke="#000000" points="279.0343,-1031.2175 270.429,-1037.3981 281.0103,-1037.9329 279.0343,-1031.2175"/>
</a>
</g>
<text text-anchor="middle" x="963.4902" y="-885.2" font-family="Times,serif" font-size="14.00" fill="#000000">1</text>
</g>
<!-- dbjiWUc&#45;&gt;dbjiWUc -->
<g id="edge2" class="edge">
<title>dbjiWUc:dePcT4q-&gt;dbjiWUc:dbkZG3x</title>
<g id="a_edge2"><a xlink:title="ModuleCollector.addAndRecurse -&gt; moduleAdapter.Config: &#10;&#10;From: collect.go (Line: 34, Column: 30) To: module.go (Line: 43, Column: 25)&#10;">
<path fill="none" stroke="#000000" d="M399.0921,-1073.4426C574.1433,-1132.2012 959.9902,-1119.2086 959.9902,-965.4 959.9902,-814.5955 678.5085,-799.16 517.3352,-853.9971"/>
<polygon fill="#000000" stroke="#000000" points="516.107,-850.719 507.8498,-857.3574 518.4445,-857.3172 516.107,-850.719"/>
</a>
</g>
<text text-anchor="middle" x="963.4902" y="-885.2" font-family="Times,serif" font-size="14.00" fill="#000000">1</text>
</g>
<!-- dbjiWUc&#45;&gt;dbjiWUc -->
<g id="edge4" class="edge">
<title>dbjiWUc:dqLLYv-&gt;dbjiWUc:dR7k1E</title>
<g id="a_edge4"><a xlink:title="moduleAdapter.mounts -&gt; Mount: &#10;&#10;From: module.go (Line: 39, Column: 2) To: . (Line: -1, Column: 0)&#10;">
<path fill="none" stroke="#000000" stroke-dasharray="1,5" d="M896.6905,-857.0569C949.9641,-798.4192 959.9902,-809.2594 959.9902,-935.4 959.9902,-1058.8391 803.7028,-1071.8636 668.2599,-1017.4145"/>
<polygon fill="#000000" stroke="#000000" points="669.5366,-1014.155 658.9588,-1013.555 666.8537,-1020.6205 669.5366,-1014.155"/>
</a>
</g>
<text text-anchor="middle" x="963.4902" y="-885.2" font-family="Times,serif" font-size="14.00" fill="#000000">1</text>
</g>
<!-- dbjiWUc&#45;&gt;dbjiWUc -->
<g id="edge6" class="edge">
<title>dbjiWUc:dAAwxA-&gt;dbjiWUc:dePcT4q</title>
<g id="a_edge6"><a xlink:title="ModuleCollector.CollectModules -&gt; ModuleCollector.addAndRecurse: &#10;&#10;From: collect.go (Line: 22, Column: 18) To: collect.go (Line: 33, Column: 28)&#10;">
<path fill="none" stroke="#000000" d="M507.5949,-1073.4019C666.87,-1132.8498 959.9902,-1126.8492 959.9902,-1055.4 959.9902,-985.2416 587.5621,-978.1883 408.4961,-1034.2402"/>
<polygon fill="#000000" stroke="#000000" points="407.2343,-1030.9702 398.8122,-1037.3981 409.4046,-1037.6253 407.2343,-1030.9702"/>
</a>
</g>
<text text-anchor="middle" x="963.4902" y="-885.2" font-family="Times,serif" font-size="14.00" fill="#000000">1</text>
</g>
<!-- dbjiWUc&#45;&gt;dbjiWUc -->
<g id="edge19" class="edge">
<title>dbjiWUc:dUreeW-&gt;dbjiWUc:dclxj9q</title>
<g id="a_edge19"><a xlink:title="ModuleConfig.Imports -&gt; Import: &#10;&#10;From: module.go (Line: 20, Column: 2) To: . (Line: -1, Column: 0)&#10;">
<path fill="none" stroke="#000000" stroke-dasharray="1,5" d="M847.4854,-1133.5366C949.9426,-1192.1873 959.9902,-1179.1266 959.9902,-1025.4 959.9902,-875.1263 803.7028,-859.2704 668.2599,-913.4207"/>
<polygon fill="#000000" stroke="#000000" points="666.8646,-910.2101 658.9588,-917.2634 669.5376,-916.6797 666.8646,-910.2101"/>
</a>
</g>
<text text-anchor="middle" x="963.4902" y="-885.2" font-family="Times,serif" font-size="14.00" fill="#000000">1</text>
</g>
<!-- dbjiWUc&#45;&gt;dbjiWUc -->
<g id="edge20" class="edge">
<title>dbjiWUc:deFcLeA-&gt;dbjiWUc:dcxbtYx</title>
<g id="a_edge20"><a xlink:title="moduleAdapter.owner -&gt; Module: &#10;&#10;From: module.go (Line: 38, Column: 2) To: . (Line: -1, Column: 0)&#10;">
<path fill="none" stroke="#000000" stroke-dasharray="1,5" d="M847.4854,-893.5317C949.9426,-952.1296 959.9902,-938.4469 959.9902,-777.4 959.9902,-619.9704 803.7028,-603.3594 668.2599,-657.4301"/>
<polygon fill="#000000" stroke="#000000" points="666.8675,-654.2183 658.9588,-661.2683 669.5378,-660.689 666.8675,-654.2183"/>
</a>
</g>
<text text-anchor="middle" x="963.4902" y="-885.2" font-family="Times,serif" font-size="14.00" fill="#000000">1</text>
</g>
<!-- dbjiWUc&#45;&gt;dbjiWUc -->
<g id="edge25" class="edge">
<title>dbjiWUc:dcuSHL6-&gt;dbjiWUc:dR7k1E</title>
<g id="a_edge25"><a xlink:title="ModuleConfig.Mounts -&gt; Mount: &#10;&#10;From: module.go (Line: 19, Column: 2) To: . (Line: -1, Column: 0)&#10;">
<path fill="none" stroke="#000000" stroke-dasharray="1,5" d="M775.5278,-1133.555C896.0766,-1192.4039 959.9902,-1181.6754 959.9902,-1055.4 959.9902,-931.9609 803.7028,-918.9364 668.2599,-973.3855"/>
<polygon fill="#000000" stroke="#000000" points="666.8537,-970.1795 658.9588,-977.245 669.5366,-976.645 666.8537,-970.1795"/>
</a>
</g>
<text text-anchor="middle" x="963.4902" y="-885.2" font-family="Times,serif" font-size="14.00" fill="#000000">1</text>
</g>
<!-- dbjiWUc&#45;&gt;dbjiWUc -->
<g id="edge26" class="edge">
<title>dbjiWUc:ddqNUt3-&gt;dbjiWUc:dezdQwX</title>
<g id="a_edge26"><a xlink:title="moduleAdapter.config -&gt; ModuleConfig: &#10;&#10;From: module.go (Line: 40, Column: 2) To: . (Line: -1, Column: 0)&#10;">
<path fill="none" stroke="#000000" stroke-dasharray="1,5" d="M775.5278,-819.2935C896.0766,-760.9664 959.9902,-777.8365 959.9902,-976.4 959.9902,-1170.5036 803.7028,-1190.9841 668.2599,-1137.3217"/>
<polygon fill="#000000" stroke="#000000" points="669.539,-1134.0635 658.9588,-1133.5065 666.8824,-1140.5398 669.539,-1134.0635"/>
</a>
</g>
<text text-anchor="middle" x="963.4902" y="-885.2" font-family="Times,serif" font-size="14.00" fill="#000000">1</text>
</g>
<!-- dbjiWUc&#45;&gt;dbjiWUc -->
<g id="edge35" class="edge">
<title>dbjiWUc:dbgAW26-&gt;dbjiWUc:dcxbtYx</title>
<g id="a_edge35"><a xlink:title="moduleAdapter -&gt; Module: &#10;&#10;From: module.go (Line: 36, Column: 6) To: module.go (Line: 23, Column: 6)&#10;">
<path fill="none" stroke="#000000" stroke-dasharray="1,5" d="M695.5246,-888.2476C823.8117,-929.8649 959.9902,-906.921 959.9902,-767.9 959.9902,-618.968 803.7028,-603.2537 668.2599,-657.4189"/>
<polygon fill="#000000" stroke="#000000" points="666.8641,-654.2086 658.9588,-661.2625 669.5375,-660.678 666.8641,-654.2086"/>
</a>
</g>
<text text-anchor="middle" x="963.4902" y="-885.2" font-family="Times,serif" font-size="14.00" fill="#000000">1</text>
</g>
<!-- dbjiWUc&#45;&gt;dbjiWUc -->
<g id="edge36" class="edge">
<title>dbjiWUc:dbzoaUq-&gt;dbjiWUc:deFWscJ</title>
<g id="a_edge36"><a xlink:title="DefaultConfigProvider.Get -&gt; DefaultConfigProvider.getNestedKeyAndMap: &#10;&#10;From: provider.go (Line: 25, Column: 32) To: provider.go (Line: 41, Column: 33)&#10;">
<path fill="none" stroke="#000000" d="M507.5949,-795.4019C666.87,-854.8498 959.9902,-848.8492 959.9902,-777.4 959.9902,-707.1369 480.1494,-700.1674 280.307,-756.4915"/>
<polygon fill="#000000" stroke="#000000" points="279.0343,-753.2175 270.429,-759.3981 281.0103,-759.9329 279.0343,-753.2175"/>
</a>
</g>
<text text-anchor="middle" x="963.4902" y="-885.2" font-family="Times,serif" font-size="14.00" fill="#000000">1</text>
</g>
<!-- dbjiWUc&#45;&gt;dbjiWUc -->
<g id="edge37" class="edge">
<title>dbjiWUc:drKUNB-&gt;dbjiWUc:dbzoaUq</title>
<g id="a_edge37"><a xlink:title="DefaultConfigProvider.GetString -&gt; DefaultConfigProvider.Get: &#10;&#10;From: provider.go (Line: 34, Column: 12) To: provider.go (Line: 21, Column: 33)&#10;">
<path fill="none" stroke="#000000" d="M398.8122,-795.4019C573.7316,-854.8498 959.9902,-848.8492 959.9902,-777.4 959.9902,-707.3463 678.2082,-700.2095 517.0775,-755.9898"/>
<polygon fill="#000000" stroke="#000000" points="515.8216,-752.7219 507.5949,-759.3981 518.1894,-759.3093 515.8216,-752.7219"/>
</a>
</g>
<text text-anchor="middle" x="963.4902" y="-885.2" font-family="Times,serif" font-size="14.00" fill="#000000">1</text>
</g>
<!-- dbjiWUc&#45;&gt;dbVptRJ -->
<g id="edge14" class="edge">
<title>dbjiWUc:dbL6RM-&gt;dbVptRJ:deOPgY1</title>
<g id="a_edge14"><a xlink:title="DefaultConfigProvider.Root -&gt; Params: &#10;&#10;From: provider.go (Line: 15, Column: 2) To: . (Line: -1, Column: 0)&#10;">
<path fill="none" stroke="#000000" stroke-dasharray="1,5" d="M767.2688,-759.3064C814.9222,-724.7126 909.4902,-644.195 909.4902,-550 909.4902,-550 909.4902,-550 909.4902,-450.3 909.4902,-408.2094 926.501,-361.9809 939.1241,-333.4708"/>
<polygon fill="#000000" stroke="#000000" points="942.4049,-334.7119 943.371,-324.1612 936.0363,-331.8066 942.4049,-334.7119"/>
</a>
</g>
<text text-anchor="middle" x="912.9902" y="-492" font-family="Times,serif" font-size="14.00" fill="#000000">1</text>
</g>
<!-- dbjiWUc&#45;&gt;dbVptRJ -->
<g id="edge17" class="edge">
<title>dbjiWUc:dqgHw4-&gt;dbVptRJ:ddiJRTI</title>
<g id="a_edge17"><a xlink:title="ModuleCollector.Modules -&gt; Modules: &#10;&#10;From: collect.go (Line: 6, Column: 2) To: . (Line: -1, Column: 0)&#10;">
<path fill="none" stroke="#000000" stroke-dasharray="1,5" d="M743.1175,-1037.0876C752.3123,-971.3538 782.4902,-741.0588 782.4902,-550 782.4902,-550 782.4902,-550 782.4902,-450.3 782.4902,-404.2893 813.7744,-359.0433 836.9693,-331.82"/>
<polygon fill="#000000" stroke="#000000" points="839.601,-334.1274 843.5639,-324.3015 834.3385,-329.5115 839.601,-334.1274"/>
</a>
</g>
<text text-anchor="middle" x="785.9902" y="-492" font-family="Times,serif" font-size="14.00" fill="#000000">1</text>
</g>
<!-- dbjiWUc&#45;&gt;dbVptRJ -->
<g id="edge21" class="edge">
<title>dbjiWUc-&gt;dbVptRJ</title>
<g id="a_edge21"><a xlink:title="valueobject -&gt; general: &#10;&#10;">
<path fill="none" stroke="#000000" stroke-dasharray="1,5" d="M687.7023,-595.1604C709.0605,-558.5526 731.2884,-521.9973 753.4902,-487.8 781.7544,-444.2648 816.3698,-397.8149 845.3244,-360.5671"/>
<polygon fill="#000000" stroke="#000000" points="848.3991,-362.3161 851.7916,-352.2791 842.8804,-358.0098 848.3991,-362.3161"/>
</a>
</g>
<text text-anchor="middle" x="756.9902" y="-492" font-family="Times,serif" font-size="14.00" fill="#000000">1</text>
</g>
<!-- dbjiWUc&#45;&gt;ddVref9 -->
<g id="edge5" class="edge">
<title>dbjiWUc:drKUNB-&gt;ddVref9:deFli4o</title>
<g id="a_edge5"><a xlink:title="DefaultConfigProvider.GetString -&gt; ToStringE: &#10;&#10;From: provider.go (Line: 35, Column: 19) To: provider.go (Line: 171, Column: 6)&#10;">
<path fill="none" stroke="#000000" d="M359.0224,-759.3117C367.2886,-705.2288 397.401,-541.65 472.4902,-430.8 488.3915,-407.3257 511.3199,-384.9611 529.7861,-368.8135"/>
<polygon fill="#000000" stroke="#000000" points="532.0817,-371.4557 537.3935,-362.2887 527.5244,-366.1424 532.0817,-371.4557"/>
</a>
</g>
<text text-anchor="middle" x="441.9902" y="-492" font-family="Times,serif" font-size="14.00" fill="#000000">1</text>
</g>
<!-- dbjiWUc&#45;&gt;ddVref9 -->
<g id="edge11" class="edge">
<title>dbjiWUc:ddVelVe-&gt;ddVref9:db0FSv2</title>
<g id="a_edge11"><a xlink:title="DefaultConfigProvider.SetDefaults -&gt; PrepareParams: &#10;&#10;From: provider.go (Line: 80, Column: 15) To: provider.go (Line: 142, Column: 6)&#10;">
<path fill="none" stroke="#000000" d="M346.9127,-721.1532C330.4391,-688.0202 298.4902,-615.3394 298.4902,-550 298.4902,-550 298.4902,-550 298.4902,-450.3 298.4902,-420.1161 280.4198,-390.2225 264.6281,-369.8614"/>
<polygon fill="#000000" stroke="#000000" points="267.2921,-367.5894 258.2838,-362.0125 261.8481,-371.9898 267.2921,-367.5894"/>
</a>
</g>
<text text-anchor="middle" x="301.9902" y="-492" font-family="Times,serif" font-size="14.00" fill="#000000">1</text>
</g>
<!-- dbjiWUc&#45;&gt;ddVref9 -->
<g id="edge18" class="edge">
<title>dbjiWUc-&gt;ddVref9</title>
<g id="a_edge18"><a xlink:title="valueobject -&gt; function: &#10;&#10;">
<path fill="none" stroke="#000000" stroke-dasharray="1,5" d="M510.6099,-595.144C504.9601,-558.6727 497.732,-522.1557 488.4902,-487.8 480.5773,-458.3844 468.8624,-427.8126 456.4817,-399.6586"/>
<polygon fill="#000000" stroke="#000000" points="459.5352,-397.9125 452.262,-390.2086 453.1434,-400.7667 459.5352,-397.9125"/>
</a>
</g>
<text text-anchor="middle" x="495.9902" y="-492" font-family="Times,serif" font-size="14.00" fill="#000000">1</text>
</g>
<!-- dbjiWUc&#45;&gt;ddVref9 -->
<g id="edge22" class="edge">
<title>dbjiWUc:db3VcFg-&gt;ddVref9:demTJ2</title>
<g id="a_edge22"><a xlink:title="DefaultConfigProvider.Set -&gt; ToParamsAndPrepare: &#10;&#10;From: provider.go (Line: 67, Column: 32) To: provider.go (Line: 91, Column: 6)&#10;">
<path fill="none" stroke="#000000" d="M469.0747,-721.3976C471.8945,-687.758 477.4902,-613.0566 477.4902,-550 477.4902,-550 477.4902,-550 477.4902,-450.3 477.4902,-403.7417 510.3585,-358.6373 534.7278,-331.5942"/>
<polygon fill="#000000" stroke="#000000" points="537.4185,-333.8401 541.6562,-324.1297 532.2879,-329.078 537.4185,-333.8401"/>
</a>
</g>
<text text-anchor="middle" x="480.9902" y="-492" font-family="Times,serif" font-size="14.00" fill="#000000">1</text>
</g>
<!-- ddVref9&#45;&gt;ddVref9 -->
<g id="edge13" class="edge">
<title>ddVref9:deFli4o-&gt;ddVref9:db7pasJ</title>
<g id="a_edge13"><a xlink:title="ToStringE -&gt; indirectToStringerOrError: &#10;&#10;From: provider.go (Line: 172, Column: 31) To: provider.go (Line: 233, Column: 6)&#10;">
<path fill="none" stroke="#000000" d="M614.0851,-362.0297C669.1741,-377.4613 688.4902,-368.1836 688.4902,-325 688.4902,-282.1371 475.7159,-272.6783 336.0537,-287.6306"/>
<polygon fill="#000000" stroke="#000000" points="335.2543,-284.1986 325.7104,-288.7989 336.04,-291.1543 335.2543,-284.1986"/>
</a>
</g>
<text text-anchor="middle" x="691.9902" y="-282.8" font-family="Times,serif" font-size="14.00" fill="#000000">1</text>
</g>
<!-- ddVref9&#45;&gt;ddVref9 -->
<g id="edge27" class="edge">
<title>ddVref9:demTJ2-&gt;ddVref9:db0FSv2</title>
<g id="a_edge27"><a xlink:title="ToParamsAndPrepare -&gt; PrepareParams: &#10;&#10;From: provider.go (Line: 99, Column: 15) To: provider.go (Line: 142, Column: 6)&#10;">
<path fill="none" stroke="#000000" d="M614.0851,-287.9703C669.1741,-272.5387 688.4902,-281.8164 688.4902,-325 688.4902,-367.8629 475.7159,-377.3217 336.0537,-362.3694"/>
<polygon fill="#000000" stroke="#000000" points="336.04,-358.8457 325.7104,-361.2011 335.2543,-365.8014 336.04,-358.8457"/>
</a>
</g>
<text text-anchor="middle" x="691.9902" y="-282.8" font-family="Times,serif" font-size="14.00" fill="#000000">1</text>
</g>
<!-- ddVref9&#45;&gt;ddVref9 -->
<g id="edge28" class="edge">
<title>ddVref9:demTJ2-&gt;ddVref9:dblMdE2</title>
<g id="a_edge28"><a xlink:title="ToParamsAndPrepare -&gt; IsNil: &#10;&#10;From: provider.go (Line: 92, Column: 10) To: provider.go (Line: 104, Column: 6)&#10;">
<path fill="none" stroke="#000000" d="M614.0851,-287.9703C669.1741,-272.5387 688.4902,-281.8164 688.4902,-325 688.4902,-369.8654 561.838,-378.1325 462.6912,-360.1148"/>
<polygon fill="#000000" stroke="#000000" points="463.0614,-356.6218 452.5797,-358.1658 461.7365,-363.4953 463.0614,-356.6218"/>
</a>
</g>
<text text-anchor="middle" x="691.9902" y="-282.8" font-family="Times,serif" font-size="14.00" fill="#000000">1</text>
</g>
<!-- ddVref9&#45;&gt;ddVref9 -->
<g id="edge29" class="edge">
<title>ddVref9:demTJ2-&gt;ddVref9:dcCtgDq</title>
<g id="a_edge29"><a xlink:title="ToParamsAndPrepare -&gt; ToStringMapE: &#10;&#10;From: provider.go (Line: 95, Column: 24) To: provider.go (Line: 121, Column: 6)&#10;">
<path fill="none" stroke="#000000" d="M613.6733,-324.0974C669.0779,-340.3684 688.4902,-334.3359 688.4902,-306 688.4902,-276.6039 561.582,-271.2114 462.3909,-289.8226"/>
<polygon fill="#000000" stroke="#000000" points="461.7113,-286.3892 452.5797,-291.7617 463.0686,-293.2563 461.7113,-286.3892"/>
</a>
</g>
<text text-anchor="middle" x="691.9902" y="-282.8" font-family="Times,serif" font-size="14.00" fill="#000000">1</text>
</g>
</g>
</svg>