<svg version="1.1" viewBox="0.0 0.0 327.2020997375328 229.91076115485563" fill="none" stroke="none" stroke-linecap="square" stroke-miterlimit="10" xmlns:xlink="http://www.w3.org/1999/xlink" xmlns="http://www.w3.org/2000/svg"><clipPath id="p.0"><path d="m0 0l327.2021 0l0 229.91077l-327.2021 0l0 -229.91077z" clip-rule="nonzero"/></clipPath><g clip-path="url(#p.0)"><path fill="#000000" fill-opacity="0.0" d="m0 0l327.2021 0l0 229.91077l-327.2021 0z" fill-rule="evenodd"/><path fill="#ffd966" d="m166.65355 204.7454l-95.99996 -48.0l0 -96.0l95.99996 -48.0l95.999954 48.0l0 96.0z" fill-rule="evenodd"/><path stroke="#000000" stroke-width="1.0" stroke-linejoin="round" stroke-linecap="butt" d="m166.65355 204.7454l-95.99996 -48.0l0 -96.0l95.99996 -48.0l95.999954 48.0l0 96.0z" fill-rule="evenodd"/><path fill="#fff2cc" d="m166.65355 147.13911l-38.393692 -19.196854l0 -38.393707l38.393692 -19.196846l38.393677 19.196846l0 38.393707z" fill-rule="evenodd"/><path stroke="#000000" stroke-width="1.0" stroke-linejoin="round" stroke-linecap="butt" d="m166.65355 147.13911l-38.393692 -19.196854l0 -38.393707l38.393692 -19.196846l38.393677 19.196846l0 38.393707z" fill-rule="evenodd"/><path fill="#000000" fill-opacity="0.0" d="m109.89764 30.590551l113.51182 0l0 23.149607l-113.51182 0z" fill-rule="evenodd"/><path fill="#000000" d="m134.0367 46.965355l3.65625 -9.546875l1.359375 0l3.90625 9.546875l-1.4375 0l-1.109375 -2.890625l-3.984375 0l-1.046875 2.890625l-1.34375 0zm2.75 -3.921875l3.234375 0l-1.0 -2.640625q-0.453125 -1.203125 -0.671875 -1.96875q-0.1875 0.90625 -0.515625 1.8125l-1.046875 2.796875zm7.0303802 6.578125l0 -9.5625l1.078125 0l0 0.890625q0.375 -0.53125 0.84375 -0.78125q0.484375 -0.265625 1.15625 -0.265625q0.875 0 1.546875 0.453125q0.6875 0.453125 1.03125 1.28125q0.34375 0.828125 0.34375 1.828125q0 1.046875 -0.375 1.90625q-0.375 0.84375 -1.109375 1.296875q-0.71875 0.453125 -1.53125 0.453125q-0.578125 0 -1.046875 -0.25q-0.46875 -0.25 -0.765625 -0.625l0 3.375l-1.171875 0zm1.0625 -6.078125q0 1.34375 0.53125 1.984375q0.546875 0.625 1.3125 0.625q0.78125 0 1.34375 -0.65625q0.5625 -0.65625 0.5625 -2.046875q0 -1.3125 -0.546875 -1.96875q-0.546875 -0.671875 -1.296875 -0.671875q-0.75 0 -1.328125 0.703125q-0.578125 0.703125 -0.578125 2.03125zm6.3499756 6.078125l0 -9.5625l1.078125 0l0 0.890625q0.375 -0.53125 0.84375 -0.78125q0.484375 -0.265625 1.15625 -0.265625q0.875 0 1.546875 0.453125q0.6875 0.453125 1.03125 1.28125q0.34375 0.828125 0.34375 1.828125q0 1.046875 -0.375 1.90625q-0.375 0.84375 -1.109375 1.296875q-0.71875 0.453125 -1.53125 0.453125q-0.578125 0 -1.046875 -0.25q-0.46875 -0.25 -0.765625 -0.625l0 3.375l-1.171875 0zm1.0625 -6.078125q0 1.34375 0.53125 1.984375q0.546875 0.625 1.3125 0.625q0.78125 0 1.34375 -0.65625q0.5625 -0.65625 0.5625 -2.046875q0 -1.3125 -0.546875 -1.96875q-0.546875 -0.671875 -1.296875 -0.671875q-0.75 0 -1.328125 0.703125q-0.578125 0.703125 -0.578125 2.03125zm6.3343506 3.421875l0 -9.546875l1.171875 0l0 9.546875l-1.171875 0zm2.99234 -8.1875l0 -1.359375l1.171875 0l0 1.359375l-1.171875 0zm0 8.1875l0 -6.90625l1.171875 0l0 6.90625l-1.171875 0zm7.46109 -2.53125l1.15625 0.15625q-0.1875 1.1875 -0.96875 1.859375q-0.78125 0.671875 -1.921875 0.671875q-1.40625 0 -2.28125 -0.921875q-0.859375 -0.9375 -0.859375 -2.65625q0 -1.125 0.375 -1.96875q0.375 -0.84375 1.125 -1.25q0.765625 -0.421875 1.65625 -0.421875q1.125 0 1.84375 0.578125q0.71875 0.5625 0.921875 1.609375l-1.140625 0.171875q-0.171875 -0.703125 -0.59375 -1.046875q-0.40625 -0.359375 -0.984375 -0.359375q-0.890625 0 -1.453125 0.640625q-0.546875 0.640625 -0.546875 2.0q0 1.40625 0.53125 2.03125q0.546875 0.625 1.40625 0.625q0.6875 0 1.140625 -0.421875q0.46875 -0.421875 0.59375 -1.296875zm6.6640625 1.671875q-0.65625 0.5625 -1.265625 0.796875q-0.59375 0.21875 -1.28125 0.21875q-1.140625 0 -1.75 -0.546875q-0.609375 -0.5625 -0.609375 -1.4375q0 -0.5 0.21875 -0.921875q0.234375 -0.421875 0.609375 -0.671875q0.375 -0.25 0.84375 -0.390625q0.34375 -0.078125 1.046875 -0.171875q1.421875 -0.171875 2.09375 -0.40625q0 -0.234375 0 -0.296875q0 -0.71875 -0.328125 -1.015625q-0.453125 -0.390625 -1.34375 -0.390625q-0.8125 0 -1.21875 0.296875q-0.390625 0.28125 -0.578125 1.015625l-1.140625 -0.15625q0.15625 -0.734375 0.515625 -1.1875q0.359375 -0.453125 1.03125 -0.6875q0.671875 -0.25 1.5625 -0.25q0.890625 0 1.4375 0.203125q0.5625 0.203125 0.8125 0.53125q0.265625 0.3125 0.375 0.796875q0.046875 0.296875 0.046875 1.078125l0 1.5625q0 1.625 0.078125 2.0625q0.078125 0.4375 0.296875 0.828125l-1.21875 0q-0.1875 -0.359375 -0.234375 -0.859375zm-0.09375 -2.609375q-0.640625 0.265625 -1.921875 0.4375q-0.71875 0.109375 -1.015625 0.25q-0.296875 0.125 -0.46875 0.375q-0.15625 0.25 -0.15625 0.546875q0 0.46875 0.34375 0.78125q0.359375 0.3125 1.046875 0.3125q0.671875 0 1.203125 -0.296875q0.53125 -0.296875 0.78125 -0.8125q0.1875 -0.390625 0.1875 -1.171875l0 -0.421875zm5.5531006 2.421875l0.171875 1.03125q-0.5 0.109375 -0.890625 0.109375q-0.640625 0 -1.0 -0.203125q-0.34375 -0.203125 -0.484375 -0.53125q-0.140625 -0.328125 -0.140625 -1.390625l0 -3.96875l-0.859375 0l0 -0.90625l0.859375 0l0 -1.71875l1.171875 -0.703125l0 2.421875l1.171875 0l0 0.90625l-1.171875 0l0 4.046875q0 0.5 0.046875 0.640625q0.0625 0.140625 0.203125 0.234375q0.140625 0.078125 0.40625 0.078125q0.203125 0 0.515625 -0.046875zm1.1561127 -7.140625l0 -1.359375l1.171875 0l0 1.359375l-1.171875 0zm0 8.1875l0 -6.90625l1.171875 0l0 6.90625l-1.171875 0zm2.507965 -3.453125q0 -1.921875 1.078125 -2.84375q0.890625 -0.765625 2.171875 -0.765625q1.421875 0 2.328125 0.9375q0.90625 0.921875 0.90625 2.578125q0 1.328125 -0.40625 2.09375q-0.390625 0.765625 -1.15625 1.1875q-0.765625 0.421875 -1.671875 0.421875q-1.453125 0 -2.359375 -0.921875q-0.890625 -0.9375 -0.890625 -2.6875zm1.203125 0q0 1.328125 0.578125 1.984375q0.59375 0.65625 1.46875 0.65625q0.875 0 1.453125 -0.65625q0.578125 -0.671875 0.578125 -2.03125q0 -1.28125 -0.59375 -1.9375q-0.578125 -0.65625 -1.4375 -0.65625q-0.875 0 -1.46875 0.65625q-0.578125 0.65625 -0.578125 1.984375zm6.6468506 3.453125l0 -6.90625l1.0625 0l0 0.984375q0.75 -1.140625 2.1875 -1.140625q0.625 0 1.15625 0.21875q0.53125 0.21875 0.78125 0.59375q0.265625 0.359375 0.375 0.859375q0.0625 0.328125 0.0625 1.140625l0 4.25l-1.171875 0l0 -4.203125q0 -0.71875 -0.140625 -1.0625q-0.140625 -0.359375 -0.484375 -0.5625q-0.34375 -0.21875 -0.8125 -0.21875q-0.75 0 -1.296875 0.46875q-0.546875 0.46875 -0.546875 1.796875l0 3.78125l-1.171875 0z" fill-rule="nonzero"/><path fill="#000000" fill-opacity="0.0" d="m109.89764 94.59055l113.51182 0l0 23.149605l-113.51182 0z" fill-rule="evenodd"/><path fill="#000000" d="m144.72174 110.965355l0 -9.546875l3.28125 0q1.109375 0 1.703125 0.140625q0.8125 0.1875 1.390625 0.6875q0.765625 0.640625 1.140625 1.640625q0.375 0.984375 0.375 2.25q0 1.09375 -0.265625 1.9375q-0.25 0.828125 -0.65625 1.390625q-0.390625 0.546875 -0.859375 0.859375q-0.46875 0.3125 -1.140625 0.484375q-0.65625 0.15625 -1.53125 0.15625l-3.4375 0zm1.265625 -1.125l2.03125 0q0.9375 0 1.46875 -0.171875q0.546875 -0.1875 0.875 -0.5q0.4375 -0.453125 0.6875 -1.203125q0.25 -0.765625 0.25 -1.84375q0 -1.5 -0.5 -2.296875q-0.484375 -0.8125 -1.1875 -1.078125q-0.5 -0.203125 -1.625 -0.203125l-2.0 0l0 7.296875zm7.7657776 -2.328125q0 -1.921875 1.078125 -2.84375q0.890625 -0.765625 2.171875 -0.765625q1.421875 0 2.328125 0.9375q0.90625 0.921875 0.90625 2.578125q0 1.328125 -0.40625 2.09375q-0.390625 0.765625 -1.15625 1.1875q-0.765625 0.421875 -1.671875 0.421875q-1.453125 0 -2.359375 -0.921875q-0.890625 -0.9375 -0.890625 -2.6875zm1.203125 0q0 1.328125 0.578125 1.984375q0.59375 0.65625 1.46875 0.65625q0.875 0 1.453125 -0.65625q0.578125 -0.671875 0.578125 -2.03125q0 -1.28125 -0.59375 -1.9375q-0.578125 -0.65625 -1.4375 -0.65625q-0.875 0 -1.46875 0.65625q-0.578125 0.65625 -0.578125 1.984375zm6.6468506 3.453125l0 -6.90625l1.046875 0l0 0.96875q0.328125 -0.515625 0.859375 -0.8125q0.546875 -0.3125 1.234375 -0.3125q0.78125 0 1.265625 0.3125q0.484375 0.3125 0.6875 0.890625q0.828125 -1.203125 2.140625 -1.203125q1.03125 0 1.578125 0.578125q0.5625 0.5625 0.5625 1.734375l0 4.75l-1.171875 0l0 -4.359375q0 -0.703125 -0.125 -1.0q-0.109375 -0.3125 -0.40625 -0.5q-0.296875 -0.1875 -0.703125 -0.1875q-0.71875 0 -1.203125 0.484375q-0.484375 0.484375 -0.484375 1.546875l0 4.015625l-1.171875 0l0 -4.484375q0 -0.78125 -0.296875 -1.171875q-0.28125 -0.390625 -0.921875 -0.390625q-0.5 0 -0.921875 0.265625q-0.421875 0.25 -0.609375 0.75q-0.1875 0.5 -0.1875 1.453125l0 3.578125l-1.171875 0zm15.618057 -0.859375q-0.65625 0.5625 -1.265625 0.796875q-0.59375 0.21875 -1.28125 0.21875q-1.140625 0 -1.75 -0.546875q-0.609375 -0.5625 -0.609375 -1.4375q0 -0.5 0.21875 -0.921875q0.234375 -0.421875 0.609375 -0.671875q0.375 -0.25 0.84375 -0.390625q0.34375 -0.078125 1.046875 -0.171875q1.421875 -0.171875 2.09375 -0.40625q0 -0.234375 0 -0.296875q0 -0.71875 -0.328125 -1.015625q-0.453125 -0.390625 -1.34375 -0.390625q-0.8125 0 -1.21875 0.296875q-0.390625 0.28125 -0.578125 1.015625l-1.140625 -0.15625q0.15625 -0.734375 0.515625 -1.1875q0.359375 -0.453125 1.03125 -0.6875q0.671875 -0.25 1.5625 -0.25q0.890625 0 1.4375 0.203125q0.5625 0.203125 0.8125 0.53125q0.265625 0.3125 0.375 0.796875q0.046875 0.296875 0.046875 1.078125l0 1.5625q0 1.625 0.078125 2.0625q0.078125 0.4375 0.296875 0.828125l-1.21875 0q-0.1875 -0.359375 -0.234375 -0.859375zm-0.09375 -2.609375q-0.640625 0.265625 -1.921875 0.4375q-0.71875 0.109375 -1.015625 0.25q-0.296875 0.125 -0.46875 0.375q-0.15625 0.25 -0.15625 0.546875q0 0.46875 0.34375 0.78125q0.359375 0.3125 1.046875 0.3125q0.671875 0 1.203125 -0.296875q0.53125 -0.296875 0.78125 -0.8125q0.1875 -0.390625 0.1875 -1.171875l0 -0.421875zm3.0062256 -4.71875l0 -1.359375l1.171875 0l0 1.359375l-1.171875 0zm0 8.1875l0 -6.90625l1.171875 0l0 6.90625l-1.171875 0zm2.945465 0l0 -6.90625l1.0625 0l0 0.984375q0.75 -1.140625 2.1875 -1.140625q0.625 0 1.15625 0.21875q0.53125 0.21875 0.78125 0.59375q0.265625 0.359375 0.375 0.859375q0.0625 0.328125 0.0625 1.140625l0 4.25l-1.171875 0l0 -4.203125q0 -0.71875 -0.140625 -1.0625q-0.140625 -0.359375 -0.484375 -0.5625q-0.34375 -0.21875 -0.8125 -0.21875q-0.75 0 -1.296875 0.46875q-0.546875 0.46875 -0.546875 1.796875l0 3.78125l-1.171875 0z" fill-rule="nonzero"/><path fill="#ff4f52" d="m70.00031 155.6588l0 -93.82678l34.740158 0l0 93.82678z" fill-rule="evenodd"/><path fill="#ffffff" d="m83.982895 133.41447l-1.359375 0l0 -1.171875l1.359375 0l0 1.171875zm8.1875 0l-6.90625 0l0 -1.171875l6.90625 0l0 1.171875zm0 -2.945465l-6.90625 0l0 -1.0625l0.984375 0q-1.140625 -0.75 -1.140625 -2.1874924q0 -0.625 0.21875 -1.15625q0.21875 -0.53125 0.59375 -0.78125q0.359375 -0.265625 0.859375 -0.375q0.328125 -0.0625 1.140625 -0.0625l4.25 0l0 1.171875l-4.203125 0q-0.71875 0 -1.0625 0.140625q-0.359375 0.140625 -0.5625 0.484375q-0.21875 0.34375 -0.21875 0.8125q0 0.7499924 0.46875 1.2968674q0.46875 0.546875 1.796875 0.546875l3.78125 0l0 1.171875zm-1.046875 -9.974968l1.03125 -0.171875q0.109375 0.5 0.109375 0.890625q0 0.640625 -0.203125 1.0q-0.203125 0.34375 -0.53125 0.484375q-0.328125 0.140625 -1.390625 0.140625l-3.96875 0l0 0.859375l-0.90625 0l0 -0.859375l-1.71875 0l-0.703125 -1.171875l2.421875 0l0 -1.171875l0.90625 0l0 1.171875l4.046875 0q0.5 0 0.640625 -0.046875q0.140625 -0.0625 0.234375 -0.203125q0.078125 -0.140625 0.078125 -0.40625q0 -0.203125 -0.046875 -0.515625zm-1.171875 -5.8748627l0.140625 -1.203125q1.0625 0.28125 1.65625 1.0625q0.578125 0.765625 0.578125 1.96875q0 1.515625 -0.9375 2.40625q-0.9375 0.890625 -2.609375 0.890625q-1.75 0 -2.703125 -0.890625q-0.96875 -0.90625 -0.96875 -2.34375q0 -1.390625 0.9375 -2.265625q0.9375 -0.875 2.65625 -0.875q0.109375 0 0.3125 0l0 5.15625q1.140625 -0.0625 1.75 -0.640625q0.59375 -0.578125 0.59375 -1.4375q0 -0.65625 -0.328125 -1.109375q-0.34375 -0.453125 -1.078125 -0.71875zm-1.90625 3.84375l0 -3.859375q-0.859375 0.078125 -1.296875 0.4375q-0.6875 0.5625 -0.6875 1.453125q0 0.8125 0.546875 1.359375q0.53125 0.546875 1.4375 0.609375zm4.125 -6.5062256l-6.90625 0l0 -1.0625l1.046875 0q-0.734375 -0.40625 -0.96875 -0.734375q-0.234375 -0.34375 -0.234375 -0.765625q0 -0.59375 0.375 -1.203125l1.078125 0.40625q-0.25 0.4375 -0.25 0.859375q0 0.390625 0.234375 0.703125q0.234375 0.296875 0.640625 0.421875q0.625 0.203125 1.359375 0.203125l3.625 0l0 1.171875zm0 -4.7352448l-6.0 0l0 1.03125l-0.90625 0l0 -1.03125l-0.734375 0q-0.703125 0 -1.046875 -0.125q-0.453125 -0.171875 -0.734375 -0.59375q-0.28125 -0.421875 -0.28125 -1.203125q0 -0.484375 0.109375 -1.09375l1.03125 0.1875q-0.0625 0.359375 -0.0625 0.6875q0 0.53125 0.234375 0.75q0.21875 0.21875 0.84375 0.21875l0.640625 0l0 -1.34375l0.90625 0l0 1.34375l6.0 0l0 1.171875zm-0.859375 -7.9373627q0.5625 0.65625 0.796875 1.265625q0.21875 0.59375 0.21875 1.28125q0 1.140625 -0.546875 1.75q-0.5625 0.609375 -1.4375 0.609375q-0.5 0 -0.921875 -0.21875q-0.421875 -0.234375 -0.671875 -0.609375q-0.25 -0.375 -0.390625 -0.84375q-0.078125 -0.34375 -0.171875 -1.046875q-0.171875 -1.421875 -0.40625 -2.09375q-0.234375 0 -0.296875 0q-0.71875 0 -1.015625 0.328125q-0.390625 0.453125 -0.390625 1.34375q0 0.8125 0.296875 1.21875q0.28125 0.390625 1.015625 0.578125l-0.15625 1.140625q-0.734375 -0.15625 -1.1875 -0.515625q-0.453125 -0.359375 -0.6875 -1.03125q-0.25 -0.671875 -0.25 -1.5625q0 -0.890625 0.203125 -1.4375q0.203125 -0.5625 0.53125 -0.8125q0.3125 -0.265625 0.796875 -0.375q0.296875 -0.046875 1.078125 -0.046875l1.5625 0q1.625 0 2.0625 -0.078125q0.4375 -0.078125 0.828125 -0.296875l0 1.21875q-0.359375 0.1875 -0.859375 0.234375zm-2.609375 0.09375q0.265625 0.640625 0.4375 1.921875q0.109375 0.71875 0.25 1.015625q0.125 0.296875 0.375 0.46875q0.25 0.15625 0.546875 0.15625q0.46875 0 0.78125 -0.34375q0.3125 -0.359375 0.3125 -1.046875q0 -0.671875 -0.296875 -1.203125q-0.296875 -0.53125 -0.8125 -0.78125q-0.390625 -0.1875 -1.171875 -0.1875l-0.421875 0zm0.9375 -7.5062256l0.15625 -1.15625q1.1875 0.1875 1.859375 0.96875q0.671875 0.78125 0.671875 1.921875q0 1.40625 -0.921875 2.28125q-0.9375 0.859375 -2.65625 0.859375q-1.125 0 -1.96875 -0.375q-0.84375 -0.375 -1.25 -1.125q-0.421875 -0.765625 -0.421875 -1.65625q0 -1.125 0.578125 -1.84375q0.5625 -0.71875 1.609375 -0.921875l0.171875 1.140625q-0.703125 0.171875 -1.046875 0.59375q-0.359375 0.40625 -0.359375 0.984375q0 0.890625 0.640625 1.453125q0.640625 0.546875 2.0 0.546875q1.40625 0 2.03125 -0.53125q0.625 -0.546875 0.625 -1.40625q0 -0.6875 -0.421875 -1.140625q-0.421875 -0.46875 -1.296875 -0.59375zm0.3125 -6.8828125l0.140625 -1.203125q1.0625 0.28125 1.65625 1.0625q0.578125 0.765625 0.578125 1.96875q0 1.515625 -0.9375 2.40625q-0.9375 0.890625 -2.609375 0.890625q-1.75 0 -2.703125 -0.890625q-0.96875 -0.90625 -0.96875 -2.34375q0 -1.390625 0.9375 -2.265625q0.9375 -0.875 2.65625 -0.875q0.109375 0 0.3125 0l0 5.15625q1.140625 -0.0625 1.75 -0.640625q0.59375 -0.578125 0.59375 -1.4375q0 -0.65625 -0.328125 -1.109375q-0.34375 -0.453125 -1.078125 -0.71875zm-1.90625 3.84375l0 -3.859375q-0.859375 0.078125 -1.296875 0.4375q-0.6875 0.5625 -0.6875 1.453125q0 0.8125 0.546875 1.359375q0.53125 0.546875 1.4375 0.609375z" fill-rule="nonzero"/><path fill="#4487e8" d="m263.14047 61.83202l0 93.82678l-34.740158 0l0 -93.82678z" fill-rule="evenodd"/><path fill="#ffffff" d="m249.1579 96.67233l1.359375 0l0 1.171875l-1.359375 0l0 -1.171875zm-8.1875 0l6.90625 0l0 1.171875l-6.90625 0l0 -1.171875zm0 2.945465l6.90625 0l0 1.0625l-0.984375 0q1.140625 0.75 1.140625 2.1875q0 0.625 -0.21875 1.15625q-0.21875 0.53125 -0.59375 0.78125q-0.359375 0.265625 -0.859375 0.375q-0.328125 0.0625 -1.140625 0.0625l-4.25 0l0 -1.171875l4.203125 0q0.71875 0 1.0625 -0.140625q0.359375 -0.140625 0.5625 -0.484375q0.21875 -0.34375 0.21875 -0.8125q0 -0.75 -0.46875 -1.296875q-0.46875 -0.546875 -1.796875 -0.546875l-3.78125 0l0 -1.171875zm0 7.6937256l6.0 0l0 -1.03125l0.90625 0l0 1.03125l0.734375 0q0.703125 0 1.046875 0.125q0.453125 0.171875 0.734375 0.59375q0.28125 0.421875 0.28125 1.203125q0 0.484375 -0.109375 1.09375l-1.03125 -0.1875q0.0625 -0.359375 0.0625 -0.6875q0 -0.53125 -0.234375 -0.75q-0.21875 -0.21875 -0.84375 -0.21875l-0.640625 0l0 1.34375l-0.90625 0l0 -1.34375l-6.0 0l0 -1.171875zm0 3.4061127l6.90625 0l0 1.0625l-1.046875 0q0.734375 0.40625 0.96875 0.734375q0.234375 0.34375 0.234375 0.765625q0 0.59375 -0.375 1.203125l-1.078125 -0.40625q0.25 -0.4375 0.25 -0.859375q0 -0.390625 -0.234375 -0.703125q-0.234375 -0.296875 -0.640625 -0.421875q-0.625 -0.203125 -1.359375 -0.203125l-3.625 0l0 -1.171875zm0.859375 8.96962q-0.5625 -0.65625 -0.796875 -1.265625q-0.21875 -0.59375 -0.21875 -1.28125q0 -1.140625 0.546875 -1.75q0.5625 -0.609375 1.4375 -0.609375q0.5 0 0.921875 0.21875q0.421875 0.234375 0.671875 0.609375q0.25 0.375 0.390625 0.84375q0.078125 0.34375 0.171875 1.046875q0.171875 1.421875 0.40625 2.09375q0.234375 0 0.296875 0q0.71875 0 1.015625 -0.328125q0.390625 -0.453125 0.390625 -1.34375q0 -0.8125 -0.296875 -1.21875q-0.28125 -0.390625 -1.015625 -0.578125l0.15625 -1.140625q0.734375 0.15625 1.1875 0.515625q0.453125 0.359375 0.6875 1.03125q0.25 0.671875 0.25 1.5625q0 0.890625 -0.203125 1.4375q-0.203125 0.5625 -0.53125 0.8125q-0.3125 0.265625 -0.796875 0.375q-0.296875 0.046875 -1.078125 0.046875l-1.5625 0q-1.625 0 -2.0625 0.078125q-0.4375 0.078125 -0.828125 0.296875l0 -1.21875q0.359375 -0.1875 0.859375 -0.234375zm2.609375 -0.09375q-0.265625 -0.640625 -0.4375 -1.921875q-0.109375 -0.71875 -0.25 -1.015625q-0.125 -0.296875 -0.375 -0.46875q-0.25 -0.15625 -0.546875 -0.15625q-0.46875 0 -0.78125 0.34375q-0.3125 0.359375 -0.3125 1.046875q0 0.671875 0.296875 1.203125q0.296875 0.53125 0.8125 0.78125q0.390625 0.1875 1.171875 0.1875l0.421875 0z" fill-rule="nonzero"/><path fill="#d9ead3" d="m14.320315 74.59055l55.59055 0l0 23.149605l-55.59055 0z" fill-rule="evenodd"/><path fill="#000000" d="m31.358715 90.965355l3.65625 -9.546875l1.359375 0l3.90625 9.546875l-1.4375 0l-1.109375 -2.890625l-3.984375 0l-1.046875 2.890625l-1.34375 0zm2.75 -3.921875l3.234375 0l-1.0 -2.640625q-0.453125 -1.203125 -0.671875 -1.96875q-0.1875 0.90625 -0.515625 1.8125l-1.046875 2.796875zm7.1866302 3.921875l0 -9.546875l3.59375 0q0.953125 0 1.453125 0.09375q0.703125 0.125 1.171875 0.453125q0.484375 0.328125 0.765625 0.921875q0.296875 0.59375 0.296875 1.296875q0 1.21875 -0.78125 2.0625q-0.765625 0.84375 -2.796875 0.84375l-2.4375 0l0 3.875l-1.265625 0zm1.265625 -5.0l2.453125 0q1.234375 0 1.75 -0.453125q0.515625 -0.46875 0.515625 -1.28125q0 -0.609375 -0.3125 -1.03125q-0.296875 -0.421875 -0.796875 -0.5625q-0.3125 -0.09375 -1.171875 -0.09375l-2.4375 0l0 3.421875zm7.8428802 5.0l0 -9.546875l1.25 0l0 9.546875l-1.25 0z" fill-rule="nonzero"/><path fill="#d9ead3" d="m14.320315 114.59055l55.59055 0l0 23.149605l-55.59055 0z" fill-rule="evenodd"/><path fill="#000000" d="m34.767345 127.621605l1.265625 0.3125q-0.390625 1.5624924 -1.421875 2.3749924q-1.03125 0.8125 -2.53125 0.8125q-1.53125 0 -2.5 -0.625q-0.96875 -0.625 -1.484375 -1.8125q-0.5 -1.1874924 -0.5 -2.5624924q0 -1.484375 0.5625 -2.59375q0.578125 -1.109375 1.625 -1.6875q1.0625 -0.578125 2.328125 -0.578125q1.421875 0 2.390625 0.734375q0.984375 0.71875 1.375 2.046875l-1.25 0.296875q-0.328125 -1.046875 -0.96875 -1.515625q-0.625 -0.484375 -1.578125 -0.484375q-1.09375 0 -1.84375 0.53125q-0.734375 0.53125 -1.03125 1.421875q-0.296875 0.875 -0.296875 1.828125q0 1.21875 0.34375 2.1249924q0.359375 0.90625 1.109375 1.359375q0.75 0.4375 1.625 0.4375q1.0625 0 1.796875 -0.609375q0.734375 -0.609375 0.984375 -1.8124924zm2.7814026 3.3437424l0 -9.546867l1.90625 0l2.25 6.7656174q0.3125 0.9375 0.46875 1.40625q0.15625 -0.515625 0.5 -1.53125l2.28125 -6.6406174l1.703125 0l0 9.546867l-1.21875 0l0 -7.9843674l-2.765625 7.9843674l-1.140625 0l-2.765625 -8.124992l0 8.124992l-1.21875 0zm11.149307 0l0 -9.546867l3.28125 0q1.109375 0 1.703125 0.140625q0.8125 0.1875 1.390625 0.6875q0.765625 0.640625 1.140625 1.640625q0.375 0.984375 0.375 2.25q0 1.09375 -0.265625 1.9374924q-0.25 0.828125 -0.65625 1.390625q-0.390625 0.546875 -0.859375 0.859375q-0.46875 0.3125 -1.140625 0.484375q-0.65625 0.15625 -1.53125 0.15625l-3.4375 0zm1.265625 -1.125l2.03125 0q0.9375 0 1.46875 -0.171875q0.546875 -0.1875 0.875 -0.5q0.4375 -0.453125 0.6875 -1.2031174q0.25 -0.765625 0.25 -1.84375q0 -1.5 -0.5 -2.296875q-0.484375 -0.8125 -1.1875 -1.078125q-0.5 -0.203125 -1.625 -0.203125l-2.0 0l0 7.2968674z" fill-rule="nonzero"/></g></svg>