<svg version="1.1" viewBox="0.0 0.0 645.0813648293963 464.5459317585302" fill="none" stroke="none" stroke-linecap="square" stroke-miterlimit="10" xmlns:xlink="http://www.w3.org/1999/xlink" xmlns="http://www.w3.org/2000/svg"><clipPath id="p.0"><path d="m0 0l645.08136 0l0 464.54593l-645.08136 0l0 -464.54593z" clip-rule="nonzero"/></clipPath><g clip-path="url(#p.0)"><path fill="#000000" fill-opacity="0.0" d="m0 0l645.08136 0l0 464.54593l-645.08136 0z" fill-rule="evenodd"/><path fill="#ffffff" d="m23.333334 20.0l597.7953 0l0 423.3386l-597.7953 0z" fill-rule="evenodd"/><path stroke="#000000" stroke-width="1.0" stroke-linejoin="round" stroke-linecap="butt" d="m23.333334 20.0l597.7953 0l0 423.3386l-597.7953 0z" fill-rule="evenodd"/><path fill="#000000" d="m37.177082 46.92l0 -11.78125l-4.40625 0l0 -1.578125l10.578125 0l0 1.578125l-4.40625 0l0 11.78125l-1.765625 0zm5.1082153 -4.84375q0 -2.6875 1.484375 -3.96875q1.25 -1.078125 3.046875 -1.078125q2.0 0 3.265625 1.3125q1.265625 1.296875 1.265625 3.609375q0 1.859375 -0.5625 2.9375q-0.5625 1.0625 -1.640625 1.65625q-1.0625 0.59375 -2.328125 0.59375q-2.03125 0 -3.28125 -1.296875q-1.25 -1.3125 -1.25 -3.765625zm1.6875 0q0 1.859375 0.796875 2.796875q0.8125 0.921875 2.046875 0.921875q1.21875 0 2.03125 -0.921875q0.8125 -0.9375 0.8125 -2.84375q0 -1.796875 -0.8125 -2.71875q-0.8125 -0.921875 -2.03125 -0.921875q-1.234375 0 -2.046875 0.921875q-0.796875 0.90625 -0.796875 2.765625zm9.297592 4.84375l0 -13.359375l1.640625 0l0 7.625l3.890625 -3.9375l2.109375 0l-3.6875 3.59375l4.0625 6.078125l-2.015625 0l-3.203125 -4.953125l-1.15625 1.125l0 3.828125l-1.640625 0zm15.953129 -3.109375l1.6875 0.203125q-0.40625 1.484375 -1.484375 2.3125q-1.078125 0.8125 -2.765625 0.8125q-2.125 0 -3.3750038 -1.296875q-1.234375 -1.3125 -1.234375 -3.671875q0 -2.453125 1.25 -3.796875q1.2656288 -1.34375 3.2656288 -1.34375q1.9375 0 3.15625 1.328125q1.234375 1.3125 1.234375 3.703125q0 0.15625 0 0.4375l-7.218754 0q0.09375 1.59375 0.9062538 2.453125q0.8125 0.84375 2.015625 0.84375q0.90625 0 1.546875 -0.46875q0.640625 -0.484375 1.015625 -1.515625zm-5.390629 -2.65625l5.406254 0q-0.109375 -1.21875 -0.625 -1.828125q-0.78125 -0.953125 -2.03125 -0.953125q-1.125 0 -1.90625 0.765625q-0.7656288 0.75 -0.8437538 2.015625zm9.141346 5.765625l0 -9.671875l1.46875 0l0 1.375q1.0625 -1.59375 3.078125 -1.59375q0.875 0 1.609375 0.3125q0.734375 0.3125 1.09375 0.828125q0.375 0.5 0.515625 1.203125q0.09375 0.453125 0.09375 1.59375l0 5.953125l-1.640625 0l0 -5.890625q0 -1.0 -0.203125 -1.484375q-0.1875 -0.5 -0.671875 -0.796875q-0.484375 -0.296875 -1.140625 -0.296875q-1.046875 0 -1.8125 0.671875q-0.75 0.65625 -0.75 2.515625l0 5.28125l-1.640625 0zm9.719467 -2.890625l1.625 -0.25q0.125 0.96875 0.75 1.5q0.625 0.515625 1.75 0.515625q1.125 0 1.671875 -0.453125q0.546875 -0.46875 0.546875 -1.09375q0 -0.546875 -0.484375 -0.875q-0.328125 -0.21875 -1.671875 -0.546875q-1.8125 -0.46875 -2.515625 -0.796875q-0.6875 -0.328125 -1.046875 -0.90625q-0.359375 -0.59375 -0.359375 -1.3125q0 -0.640625 0.296875 -1.1875q0.296875 -0.5625 0.8125 -0.921875q0.375 -0.28125 1.03125 -0.46875q0.671875 -0.203125 1.421875 -0.203125q1.140625 0 2.0 0.328125q0.859375 0.328125 1.265625 0.890625q0.421875 0.5625 0.578125 1.5l-1.609375 0.21875q-0.109375 -0.75 -0.640625 -1.171875q-0.515625 -0.421875 -1.46875 -0.421875q-1.140625 0 -1.625 0.375q-0.46875 0.375 -0.46875 0.875q0 0.3125 0.1875 0.578125q0.203125 0.265625 0.640625 0.4375q0.234375 0.09375 1.4375 0.421875q1.75 0.453125 2.4375 0.75q0.6875 0.296875 1.078125 0.859375q0.390625 0.5625 0.390625 1.40625q0 0.828125 -0.484375 1.546875q-0.46875 0.71875 -1.375 1.125q-0.90625 0.390625 -2.046875 0.390625q-1.875 0 -2.875 -0.78125q-0.984375 -0.78125 -1.25 -2.328125z" fill-rule="nonzero"/><path fill="#d9ead3" d="m71.99654 181.18373l113.07086 0l0 42.48819l-113.07086 0z" fill-rule="evenodd"/><path stroke="#000000" stroke-width="1.0" stroke-linejoin="round" stroke-linecap="butt" d="m71.99654 181.18373l113.07086 0l0 42.48819l-113.07086 0z" fill-rule="evenodd"/><path fill="#000000" d="m119.762436 207.0222l0.203125 1.25q-0.59375 0.125 -1.0625 0.125q-0.765625 0 -1.1875 -0.234375q-0.421875 -0.25 -0.59375 -0.640625q-0.171875 -0.40625 -0.171875 -1.671875l0 -4.765625l-1.03125 0l0 -1.09375l1.03125 0l0 -2.0625l1.40625 -0.84375l0 2.90625l1.40625 0l0 1.09375l-1.40625 0l0 4.84375q0 0.609375 0.0625 0.78125q0.078125 0.171875 0.25 0.28125q0.171875 0.09375 0.484375 0.09375q0.234375 0 0.609375 -0.0625zm7.0546875 -1.40625l1.453125 0.171875q-0.34375 1.28125 -1.28125 1.984375q-0.921875 0.703125 -2.359375 0.703125q-1.828125 0 -2.890625 -1.125q-1.0625 -1.125 -1.0625 -3.140625q0 -2.09375 1.078125 -3.25q1.078125 -1.15625 2.796875 -1.15625q1.65625 0 2.703125 1.140625q1.0625 1.125 1.0625 3.171875q0 0.125 0 0.375l-6.1875 0q0.078125 1.375 0.765625 2.109375q0.703125 0.71875 1.734375 0.71875q0.78125 0 1.328125 -0.40625q0.546875 -0.40625 0.859375 -1.296875zm-4.609375 -2.28125l4.625 0q-0.09375 -1.046875 -0.53125 -1.5625q-0.671875 -0.8125 -1.734375 -0.8125q-0.96875 0 -1.640625 0.65625q-0.65625 0.640625 -0.71875 1.71875zm6.8984375 4.953125l3.03125 -4.3125l-2.8125 -3.984375l1.765625 0l1.265625 1.9375q0.359375 0.5625 0.578125 0.9375q0.34375 -0.515625 0.640625 -0.921875l1.390625 -1.953125l1.6875 0l-2.875 3.90625l3.09375 4.390625l-1.734375 0l-1.703125 -2.578125l-0.453125 -0.703125l-2.171875 3.28125l-1.703125 0zm12.0 -1.265625l0.203125 1.25q-0.59375 0.125 -1.0625 0.125q-0.765625 0 -1.1875 -0.234375q-0.421875 -0.25 -0.59375 -0.640625q-0.171875 -0.40625 -0.171875 -1.671875l0 -4.765625l-1.03125 0l0 -1.09375l1.03125 0l0 -2.0625l1.40625 -0.84375l0 2.90625l1.40625 0l0 1.09375l-1.40625 0l0 4.84375q0 0.609375 0.0625 0.78125q0.078125 0.171875 0.25 0.28125q0.171875 0.09375 0.484375 0.09375q0.234375 0 0.609375 -0.0625z" fill-rule="nonzero"/><path fill="#d9ead3" d="m275.0044 181.18373l113.07089 0l0 42.48819l-113.07089 0z" fill-rule="evenodd"/><path stroke="#000000" stroke-width="1.0" stroke-linejoin="round" stroke-linecap="butt" d="m275.0044 181.18373l113.07089 0l0 42.48819l-113.07089 0z" fill-rule="evenodd"/><path fill="#000000" d="m316.66095 207.25658q-0.78125 0.671875 -1.5 0.953125q-0.71875 0.265625 -1.546875 0.265625q-1.375 0 -2.109375 -0.671875q-0.734375 -0.671875 -0.734375 -1.703125q0 -0.609375 0.28125 -1.109375q0.28125 -0.515625 0.71875 -0.8125q0.453125 -0.3125 1.015625 -0.46875q0.421875 -0.109375 1.25 -0.203125q1.703125 -0.203125 2.515625 -0.484375q0 -0.296875 0 -0.375q0 -0.859375 -0.390625 -1.203125q-0.546875 -0.484375 -1.609375 -0.484375q-0.984375 0 -1.46875 0.359375q-0.46875 0.34375 -0.6875 1.21875l-1.375 -0.1875q0.1875 -0.875 0.609375 -1.421875q0.4375 -0.546875 1.25 -0.828125q0.8125 -0.296875 1.875 -0.296875q1.0625 0 1.71875 0.25q0.671875 0.25 0.984375 0.625q0.3125 0.375 0.4375 0.953125q0.078125 0.359375 0.078125 1.296875l0 1.875q0 1.96875 0.078125 2.484375q0.09375 0.515625 0.359375 1.0l-1.46875 0q-0.21875 -0.4375 -0.28125 -1.03125zm-0.109375 -3.140625q-0.765625 0.3125 -2.296875 0.53125q-0.875 0.125 -1.234375 0.28125q-0.359375 0.15625 -0.5625 0.46875q-0.1875 0.296875 -0.1875 0.65625q0 0.5625 0.421875 0.9375q0.4375 0.375 1.25 0.375q0.8125 0 1.4375 -0.34375q0.640625 -0.359375 0.9375 -0.984375q0.234375 -0.46875 0.234375 -1.40625l0 -0.515625zm9.0078125 1.125l1.390625 0.1875q-0.234375 1.421875 -1.171875 2.234375q-0.921875 0.8125 -2.28125 0.8125q-1.703125 0 -2.75 -1.109375q-1.03125 -1.125 -1.03125 -3.203125q0 -1.34375 0.4375 -2.34375q0.453125 -1.015625 1.359375 -1.515625q0.921875 -0.5 1.984375 -0.5q1.359375 0 2.21875 0.6875q0.859375 0.671875 1.09375 1.9375l-1.359375 0.203125q-0.203125 -0.828125 -0.703125 -1.25q-0.484375 -0.421875 -1.1875 -0.421875q-1.0625 0 -1.734375 0.765625q-0.65625 0.75 -0.65625 2.40625q0 1.671875 0.640625 2.4375q0.640625 0.75 1.671875 0.75q0.828125 0 1.375 -0.5q0.5625 -0.515625 0.703125 -1.578125zm5.65625 1.78125l0.203125 1.25q-0.59375 0.125 -1.0625 0.125q-0.765625 0 -1.1875 -0.234375q-0.421875 -0.25 -0.59375 -0.640625q-0.171875 -0.40625 -0.171875 -1.671875l0 -4.765625l-1.03125 0l0 -1.09375l1.03125 0l0 -2.0625l1.40625 -0.84375l0 2.90625l1.40625 0l0 1.09375l-1.40625 0l0 4.84375q0 0.609375 0.0625 0.78125q0.078125 0.171875 0.25 0.28125q0.171875 0.09375 0.484375 0.09375q0.234375 0 0.609375 -0.0625zm1.3828125 -8.578125l0 -1.609375l1.40625 0l0 1.609375l-1.40625 0zm0 9.84375l0 -8.296875l1.40625 0l0 8.296875l-1.40625 0zm3.0234375 -4.15625q0 -2.296875 1.28125 -3.40625q1.078125 -0.921875 2.6093445 -0.921875q1.71875 0 2.796875 1.125q1.09375 1.109375 1.09375 3.09375q0 1.59375 -0.484375 2.515625q-0.484375 0.921875 -1.40625 1.4375q-0.90625 0.5 -2.0 0.5q-1.7343445 0 -2.8124695 -1.109375q-1.078125 -1.125 -1.078125 -3.234375zm1.453125 0q0 1.59375 0.6875 2.390625q0.703125 0.796875 1.7499695 0.796875q1.046875 0 1.734375 -0.796875q0.703125 -0.796875 0.703125 -2.4375q0 -1.53125 -0.703125 -2.328125q-0.6875 -0.796875 -1.734375 -0.796875q-1.0468445 0 -1.7499695 0.796875q-0.6875 0.78125 -0.6875 2.375zm7.976532 4.15625l0 -8.296875l1.265625 0l0 1.171875q0.90625 -1.359375 2.640625 -1.359375q0.75 0 1.375 0.265625q0.625 0.265625 0.9375 0.703125q0.3125 0.4375 0.4375 1.046875q0.078125 0.390625 0.078125 1.359375l0 5.109375l-1.40625 0l0 -5.046875q0 -0.859375 -0.171875 -1.28125q-0.15625 -0.4375 -0.578125 -0.6875q-0.40625 -0.25 -0.96875 -0.25q-0.90625 0 -1.5625 0.578125q-0.640625 0.5625 -0.640625 2.15625l0 4.53125l-1.40625 0z" fill-rule="nonzero"/><path fill="#d9ead3" d="m94.4401 341.4567l113.07087 0l0 42.48819l-113.07087 0z" fill-rule="evenodd"/><path stroke="#000000" stroke-width="1.0" stroke-linejoin="round" stroke-linecap="butt" d="m94.4401 341.4567l113.07087 0l0 42.48819l-113.07087 0z" fill-rule="evenodd"/><path fill="#000000" d="m117.46382 368.5608l0 -11.453125l1.515625 0l0 10.09375l5.640625 0l0 1.359375l-7.15625 0zm14.4609375 -2.671875l1.453125 0.171875q-0.34375 1.28125 -1.28125 1.984375q-0.921875 0.703125 -2.359375 0.703125q-1.828125 0 -2.890625 -1.125q-1.0625 -1.125 -1.0625 -3.140625q0 -2.09375 1.078125 -3.25q1.078125 -1.15625 2.796875 -1.15625q1.65625 0 2.703125 1.140625q1.0625 1.125 1.0625 3.171875q0 0.125 0 0.375l-6.1875 0q0.078125 1.375 0.765625 2.109375q0.703125 0.71875 1.734375 0.71875q0.78125 0 1.328125 -0.40625q0.546875 -0.40625 0.859375 -1.296875zm-4.609375 -2.28125l4.625 0q-0.09375 -1.046875 -0.53125 -1.5625q-0.671875 -0.8125 -1.734375 -0.8125q-0.96875 0 -1.640625 0.65625q-0.65625 0.640625 -0.71875 1.71875zm8.1640625 4.953125l0 -7.203125l-1.234375 0l0 -1.09375l1.234375 0l0 -0.890625q0 -0.828125 0.15625 -1.234375q0.203125 -0.546875 0.703125 -0.890625q0.515625 -0.34375 1.4375 -0.34375q0.59375 0 1.3125 0.140625l-0.203125 1.234375q-0.4375 -0.078125 -0.828125 -0.078125q-0.640625 0 -0.90625 0.28125q-0.265625 0.265625 -0.265625 1.015625l0 0.765625l1.609375 0l0 1.09375l-1.609375 0l0 7.203125l-1.40625 0zm7.1796875 -1.265625l0.203125 1.25q-0.59375 0.125 -1.0625 0.125q-0.765625 0 -1.1875 -0.234375q-0.421875 -0.25 -0.59375 -0.640625q-0.171875 -0.40625 -0.171875 -1.671875l0 -4.765625l-1.03125 0l0 -1.09375l1.03125 0l0 -2.0625l1.40625 -0.84375l0 2.90625l1.40625 0l0 1.09375l-1.40625 0l0 4.84375q0 0.609375 0.0625 0.78125q0.078125 0.171875 0.25 0.28125q0.171875 0.09375 0.484375 0.09375q0.234375 0 0.609375 -0.0625zm11.203125 1.265625l0 -1.046875q-0.78125 1.234375 -2.3125 1.234375q-1.0 0 -1.828125 -0.546875q-0.828125 -0.546875 -1.296875 -1.53125q-0.453125 -0.984375 -0.453125 -2.25q0 -1.25 0.40625 -2.25q0.421875 -1.015625 1.25 -1.546875q0.828125 -0.546875 1.859375 -0.546875q0.75 0 1.328125 0.3125q0.59375 0.3125 0.953125 0.828125l0 -4.109375l1.40625 0l0 11.453125l-1.3125 0zm-4.4375 -4.140625q0 1.59375 0.671875 2.390625q0.671875 0.78125 1.578125 0.78125q0.921875 0 1.5625 -0.75q0.65625 -0.765625 0.65625 -2.3125q0 -1.703125 -0.65625 -2.5q-0.65625 -0.796875 -1.625 -0.796875q-0.9375 0 -1.5625 0.765625q-0.625 0.765625 -0.625 2.421875zm13.6328125 1.46875l1.453125 0.171875q-0.34375 1.28125 -1.28125 1.984375q-0.921875 0.703125 -2.359375 0.703125q-1.828125 0 -2.890625 -1.125q-1.0625 -1.125 -1.0625 -3.140625q0 -2.09375 1.078125 -3.25q1.078125 -1.15625 2.796875 -1.15625q1.65625 0 2.703125 1.140625q1.0625 1.125 1.0625 3.171875q0 0.125 0 0.375l-6.1875 0q0.078125 1.375 0.765625 2.109375q0.703125 0.71875 1.734375 0.71875q0.78125 0 1.328125 -0.40625q0.546875 -0.40625 0.859375 -1.296875zm-4.609375 -2.28125l4.625 0q-0.09375 -1.046875 -0.53125 -1.5625q-0.671875 -0.8125 -1.734375 -0.8125q-0.96875 0 -1.640625 0.65625q-0.65625 0.640625 -0.71875 1.71875zm7.8046875 4.953125l0 -11.453125l1.40625 0l0 11.453125l-1.40625 0zm3.5859375 -9.84375l0 -1.609375l1.40625 0l0 1.609375l-1.40625 0zm0 9.84375l0 -8.296875l1.40625 0l0 8.296875l-1.40625 0zm3.5546875 0l0 -8.296875l1.25 0l0 1.15625q0.390625 -0.609375 1.03125 -0.96875q0.65625 -0.375 1.484375 -0.375q0.921875 0 1.515625 0.390625q0.59375 0.375 0.828125 1.0625q0.984375 -1.453125 2.5625 -1.453125q1.234375 0 1.890625 0.6875q0.671875 0.671875 0.671875 2.09375l0 5.703125l-1.390625 0l0 -5.234375q0 -0.84375 -0.140625 -1.203125q-0.140625 -0.375 -0.5 -0.59375q-0.359375 -0.234375 -0.84375 -0.234375q-0.875 0 -1.453125 0.578125q-0.578125 0.578125 -0.578125 1.859375l0 4.828125l-1.40625 0l0 -5.390625q0 -0.9375 -0.34375 -1.40625q-0.34375 -0.46875 -1.125 -0.46875q-0.59375 0 -1.09375 0.3125q-0.5 0.3125 -0.734375 0.921875q-0.21875 0.59375 -0.21875 1.71875l0 4.3125l-1.40625 0z" fill-rule="nonzero"/><path fill="#d9ead3" d="m226.94667 341.4567l113.07088 0l0 42.48819l-113.07088 0z" fill-rule="evenodd"/><path stroke="#000000" stroke-width="1.0" stroke-linejoin="round" stroke-linecap="butt" d="m226.94667 341.4567l113.07088 0l0 42.48819l-113.07088 0z" fill-rule="evenodd"/><path fill="#000000" d="m262.63443 366.07642l1.390625 -0.21875q0.109375 0.84375 0.640625 1.296875q0.546875 0.4375 1.5 0.4375q0.96875 0 1.4375 -0.390625q0.46875 -0.40625 0.46875 -0.9375q0 -0.46875 -0.40625 -0.75q-0.296875 -0.1875 -1.4375 -0.46875q-1.546875 -0.390625 -2.15625 -0.671875q-0.59375 -0.296875 -0.90625 -0.796875q-0.296875 -0.5 -0.296875 -1.109375q0 -0.5625 0.25 -1.03125q0.25 -0.46875 0.6875 -0.78125q0.328125 -0.25 0.890625 -0.40625q0.578125 -0.171875 1.21875 -0.171875q0.984375 0 1.71875 0.28125q0.734375 0.28125 1.078125 0.765625q0.359375 0.46875 0.5 1.28125l-1.375 0.1875q-0.09375 -0.640625 -0.546875 -1.0q-0.453125 -0.359375 -1.265625 -0.359375q-0.96875 0 -1.390625 0.328125q-0.40625 0.3125 -0.40625 0.734375q0 0.28125 0.171875 0.5q0.171875 0.21875 0.53125 0.375q0.21875 0.078125 1.25 0.359375q1.484375 0.390625 2.078125 0.65625q0.59375 0.25 0.921875 0.734375q0.34375 0.484375 0.34375 1.203125q0 0.703125 -0.421875 1.328125q-0.40625 0.609375 -1.1875 0.953125q-0.765625 0.34375 -1.734375 0.34375q-1.625 0 -2.46875 -0.671875q-0.84375 -0.671875 -1.078125 -2.0zm8.5625 5.671875l0 -11.484375l1.28125 0l0 1.078125q0.453125 -0.640625 1.015625 -0.953125q0.578125 -0.3125 1.390625 -0.3125q1.0625 0 1.875 0.546875q0.8125 0.546875 1.21875 1.546875q0.421875 0.984375 0.421875 2.171875q0 1.28125 -0.46875 2.296875q-0.453125 1.015625 -1.328125 1.5625q-0.859375 0.546875 -1.828125 0.546875q-0.703125 0 -1.265625 -0.296875q-0.546875 -0.296875 -0.90625 -0.75l0 4.046875l-1.40625 0zm1.265625 -7.296875q0 1.609375 0.640625 2.375q0.65625 0.765625 1.578125 0.765625q0.9375 0 1.609375 -0.796875q0.671875 -0.796875 0.671875 -2.453125q0 -1.59375 -0.65625 -2.375q-0.65625 -0.796875 -1.5625 -0.796875q-0.890625 0 -1.59375 0.84375q-0.6875 0.84375 -0.6875 2.4375zm13.0390625 3.078125q-0.78125 0.671875 -1.5 0.953125q-0.71875 0.265625 -1.546875 0.265625q-1.375 0 -2.109375 -0.671875q-0.734375 -0.671875 -0.734375 -1.703125q0 -0.609375 0.28125 -1.109375q0.28125 -0.515625 0.71875 -0.8125q0.453125 -0.3125 1.015625 -0.46875q0.421875 -0.109375 1.25 -0.203125q1.703125 -0.203125 2.515625 -0.484375q0 -0.296875 0 -0.375q0 -0.859375 -0.390625 -1.203125q-0.546875 -0.484375 -1.609375 -0.484375q-0.984375 0 -1.46875 0.359375q-0.46875 0.34375 -0.6875 1.21875l-1.375 -0.1875q0.1875 -0.875 0.609375 -1.421875q0.4375 -0.546875 1.25 -0.828125q0.8125 -0.296875 1.875 -0.296875q1.0625 0 1.71875 0.25q0.671875 0.25 0.984375 0.625q0.3125 0.375 0.4375 0.953125q0.078125 0.359375 0.078125 1.296875l0 1.875q0 1.96875 0.078125 2.484375q0.09375 0.515625 0.359375 1.0l-1.46875 0q-0.21875 -0.4375 -0.28125 -1.03125zm-0.109375 -3.140625q-0.765625 0.3125 -2.296875 0.53125q-0.875 0.125 -1.234375 0.28125q-0.359375 0.15625 -0.5625 0.46875q-0.1875 0.296875 -0.1875 0.65625q0 0.5625 0.421875 0.9375q0.4375 0.375 1.25 0.375q0.8125 0 1.4375 -0.34375q0.640625 -0.359375 0.9375 -0.984375q0.234375 -0.46875 0.234375 -1.40625l0 -0.515625zm9.0078125 1.125l1.390625 0.1875q-0.234375 1.421875 -1.171875 2.234375q-0.921875 0.8125 -2.28125 0.8125q-1.703125 0 -2.75 -1.109375q-1.03125 -1.125 -1.03125 -3.203125q0 -1.34375 0.4375 -2.34375q0.453125 -1.015625 1.359375 -1.515625q0.921875 -0.5 1.984375 -0.5q1.359375 0 2.21875 0.6875q0.859375 0.671875 1.09375 1.9375l-1.359375 0.203125q-0.203125 -0.828125 -0.703125 -1.25q-0.484375 -0.421875 -1.1875 -0.421875q-1.0625 0 -1.734375 0.765625q-0.65625 0.75 -0.65625 2.40625q0 1.671875 0.640625 2.4375q0.640625 0.75 1.671875 0.75q0.828125 0 1.375 -0.5q0.5625 -0.515625 0.703125 -1.578125zm8.265625 0.375l1.453125 0.171875q-0.34375 1.28125 -1.28125 1.984375q-0.921875 0.703125 -2.359375 0.703125q-1.828125 0 -2.890625 -1.125q-1.0625 -1.125 -1.0625 -3.140625q0 -2.09375 1.078125 -3.25q1.078125 -1.15625 2.796875 -1.15625q1.65625 0 2.703125 1.140625q1.0625 1.125 1.0625 3.171875q0 0.125 0 0.375l-6.1875 0q0.078125 1.375 0.765625 2.109375q0.703125 0.71875 1.734375 0.71875q0.78125 0 1.328125 -0.40625q0.546875 -0.40625 0.859375 -1.296875zm-4.609375 -2.28125l4.625 0q-0.09375 -1.046875 -0.53125 -1.5625q-0.671875 -0.8125 -1.734375 -0.8125q-0.96875 0 -1.640625 0.65625q-0.65625 0.640625 -0.71875 1.71875z" fill-rule="nonzero"/><path fill="#d9ead3" d="m359.45322 341.4567l113.07089 0l0 42.48819l-113.07089 0z" fill-rule="evenodd"/><path stroke="#000000" stroke-width="1.0" stroke-linejoin="round" stroke-linecap="butt" d="m359.45322 341.4567l113.07089 0l0 42.48819l-113.07089 0z" fill-rule="evenodd"/><path fill="#000000" d="m402.70352 368.5608l0 -7.203125l-1.234375 0l0 -1.09375l1.234375 0l0 -0.890625q0 -0.828125 0.15625 -1.234375q0.203125 -0.546875 0.703125 -0.890625q0.515625 -0.34375 1.4375 -0.34375q0.59375 0 1.3125 0.140625l-0.203125 1.234375q-0.4375 -0.078125 -0.828125 -0.078125q-0.640625 0 -0.90625 0.28125q-0.265625 0.265625 -0.265625 1.015625l0 0.765625l1.609375 0l0 1.09375l-1.609375 0l0 7.203125l-1.40625 0zm4.1171875 -9.84375l0 -1.609375l1.40625 0l0 1.609375l-1.40625 0zm0 9.84375l0 -8.296875l1.40625 0l0 8.296875l-1.40625 0zm9.2265625 -2.671875l1.453125 0.171875q-0.34375 1.28125 -1.28125 1.984375q-0.921875 0.703125 -2.359375 0.703125q-1.828125 0 -2.890625 -1.125q-1.0625 -1.125 -1.0625 -3.140625q0 -2.09375 1.078125 -3.25q1.078125 -1.15625 2.796875 -1.15625q1.65625 0 2.703125 1.140625q1.0625 1.125 1.0625 3.171875q0 0.125 0 0.375l-6.1875 0q0.078125 1.375 0.765625 2.109375q0.703125 0.71875 1.734375 0.71875q0.78125 0 1.328125 -0.40625q0.546875 -0.40625 0.859375 -1.296875zm-4.609375 -2.28125l4.625 0q-0.09375 -1.046875 -0.53125 -1.5625q-0.671875 -0.8125 -1.734375 -0.8125q-0.96875 0 -1.640625 0.65625q-0.65625 0.640625 -0.71875 1.71875zm7.8046875 4.953125l0 -11.453125l1.40625 0l0 11.453125l-1.40625 0zm8.960907 0l0 -1.046875q-0.78125 1.234375 -2.3125 1.234375q-1.0 0 -1.828125 -0.546875q-0.8280945 -0.546875 -1.2968445 -1.53125q-0.453125 -0.984375 -0.453125 -2.25q0 -1.25 0.40625 -2.25q0.421875 -1.015625 1.2499695 -1.546875q0.828125 -0.546875 1.859375 -0.546875q0.75 0 1.328125 0.3125q0.59375 0.3125 0.953125 0.828125l0 -4.109375l1.40625 0l0 11.453125l-1.3125 0zm-4.4375 -4.140625q0 1.59375 0.671875 2.390625q0.671875 0.78125 1.578125 0.78125q0.921875 0 1.5625 -0.75q0.65625 -0.765625 0.65625 -2.3125q0 -1.703125 -0.65625 -2.5q-0.65625 -0.796875 -1.625 -0.796875q-0.9375 0 -1.5625 0.765625q-0.625 0.765625 -0.625 2.421875z" fill-rule="nonzero"/><path fill="#d9ead3" d="m169.44798 71.291336l113.07088 0l0 42.48819l-113.07088 0z" fill-rule="evenodd"/><path stroke="#000000" stroke-width="1.0" stroke-linejoin="round" stroke-linecap="butt" d="m169.44798 71.291336l113.07088 0l0 42.48819l-113.07088 0z" fill-rule="evenodd"/><path fill="#000000" d="m209.67482 98.39543l0 -11.453125l1.40625 0l0 11.453125l-1.40625 0zm9.2578125 -2.671875l1.453125 0.171875q-0.34375 1.28125 -1.28125 1.984375q-0.921875 0.703125 -2.359375 0.703125q-1.828125 0 -2.890625 -1.125q-1.0625 -1.125 -1.0625 -3.140625q0 -2.09375 1.078125 -3.25q1.078125 -1.15625 2.796875 -1.15625q1.65625 0 2.703125 1.140625q1.0625 1.125 1.0625 3.171875q0 0.125 0 0.375l-6.1875 0q0.078125 1.375 0.765625 2.109375q0.703125 0.71875 1.734375 0.71875q0.78125 0 1.328125 -0.40625q0.546875 -0.40625 0.859375 -1.296875zm-4.609375 -2.28125l4.625 0q-0.09375 -1.046875 -0.53125 -1.5625q-0.671875 -0.8125 -1.734375 -0.8125q-0.96875 0 -1.640625 0.65625q-0.65625 0.640625 -0.71875 1.71875zm6.8984375 4.953125l3.03125 -4.3125l-2.8125 -3.984375l1.765625 0l1.265625 1.9375q0.359375 0.5625 0.578125 0.9375q0.34375 -0.515625 0.640625 -0.921875l1.390625 -1.953125l1.6875 0l-2.875 3.90625l3.09375 4.390625l-1.734375 0l-1.703125 -2.578125l-0.453125 -0.703125l-2.171875 3.28125l-1.703125 0zm14.609375 -2.671875l1.453125 0.171875q-0.34375 1.28125 -1.28125 1.984375q-0.921875 0.703125 -2.359375 0.703125q-1.828125 0 -2.890625 -1.125q-1.0625 -1.125 -1.0625 -3.140625q0 -2.09375 1.078125 -3.25q1.078125 -1.15625 2.796875 -1.15625q1.65625 0 2.703125 1.140625q1.0625 1.125 1.0625 3.171875q0 0.125 0 0.375l-6.1875 0q0.078125 1.375 0.765625 2.109375q0.703125 0.71875 1.734375 0.71875q0.78125 0 1.328125 -0.40625q0.546875 -0.40625 0.859375 -1.296875zm-4.609375 -2.28125l4.625 0q-0.09375 -1.046875 -0.53125 -1.5625q-0.671875 -0.8125 -1.734375 -0.8125q-0.96875 0 -1.640625 0.65625q-0.65625 0.640625 -0.71875 1.71875zm7.8203125 4.953125l0 -8.296875l1.265625 0l0 1.25q0.484375 -0.875 0.890625 -1.15625q0.40625 -0.28125 0.90625 -0.28125q0.703125 0 1.4375 0.453125l-0.484375 1.296875q-0.515625 -0.296875 -1.03125 -0.296875q-0.453125 0 -0.828125 0.28125q-0.359375 0.265625 -0.515625 0.765625q-0.234375 0.75 -0.234375 1.640625l0 4.34375l-1.40625 0z" fill-rule="nonzero"/><path fill="#d9ead3" d="m491.95978 341.4567l113.07086 0l0 42.48819l-113.07086 0z" fill-rule="evenodd"/><path stroke="#000000" stroke-width="1.0" stroke-linejoin="round" stroke-linecap="butt" d="m491.95978 341.4567l113.07086 0l0 42.48819l-113.07086 0z" fill-rule="evenodd"/><path fill="#000000" d="m533.9796 368.5608l0 -8.296875l1.265625 0l0 1.25q0.484375 -0.875 0.890625 -1.15625q0.40625 -0.28125 0.90625 -0.28125q0.703125 0 1.4375 0.453125l-0.484375 1.296875q-0.515625 -0.296875 -1.03125 -0.296875q-0.453125 0 -0.828125 0.28125q-0.359375 0.265625 -0.515625 0.765625q-0.234375 0.75 -0.234375 1.640625l0 4.34375l-1.40625 0zm5.34375 -9.84375l0 -1.609375l1.40625 0l0 1.609375l-1.40625 0zm0 9.84375l0 -8.296875l1.40625 0l0 8.296875l-1.40625 0zm3.2890625 0.6875l1.375 0.203125q0.078125 0.640625 0.46875 0.921875q0.53125 0.390625 1.4375 0.390625q0.96875 0 1.5 -0.390625q0.53125 -0.390625 0.71875 -1.09375q0.109375 -0.421875 0.109375 -1.8125q-0.921875 1.09375 -2.296875 1.09375q-1.71875 0 -2.65625 -1.234375q-0.9375 -1.234375 -0.9375 -2.96875q0 -1.1875 0.421875 -2.1875q0.4375 -1.0 1.25 -1.546875q0.828125 -0.546875 1.921875 -0.546875q1.46875 0 2.421875 1.1875l0 -1.0l1.296875 0l0 7.171875q0 1.9375 -0.390625 2.75q-0.390625 0.8125 -1.25 1.28125q-0.859375 0.46875 -2.109375 0.46875q-1.484375 0 -2.40625 -0.671875q-0.90625 -0.671875 -0.875 -2.015625zm1.171875 -4.984375q0 1.625 0.640625 2.375q0.65625 0.75 1.625 0.75q0.96875 0 1.625 -0.734375q0.65625 -0.75 0.65625 -2.34375q0 -1.53125 -0.671875 -2.296875q-0.671875 -0.78125 -1.625 -0.78125q-0.9375 0 -1.59375 0.765625q-0.65625 0.765625 -0.65625 2.265625zm7.9921875 4.296875l0 -11.453125l1.40625 0l0 4.109375q0.984375 -1.140625 2.484375 -1.140625q0.921875 0 1.59375 0.359375q0.6875 0.359375 0.96875 1.0q0.296875 0.640625 0.296875 1.859375l0 5.265625l-1.40625 0l0 -5.265625q0 -1.046875 -0.453125 -1.53125q-0.453125 -0.484375 -1.296875 -0.484375q-0.625 0 -1.171875 0.328125q-0.546875 0.328125 -0.78125 0.890625q-0.234375 0.546875 -0.234375 1.515625l0 4.546875l-1.40625 0zm11.9609375 -1.265625l0.203125 1.25q-0.59375 0.125 -1.0625 0.125q-0.765625 0 -1.1875 -0.234375q-0.421875 -0.25 -0.59375 -0.640625q-0.171875 -0.40625 -0.171875 -1.671875l0 -4.765625l-1.03125 0l0 -1.09375l1.03125 0l0 -2.0625l1.40625 -0.84375l0 2.90625l1.40625 0l0 1.09375l-1.40625 0l0 4.84375q0 0.609375 0.0625 0.78125q0.078125 0.171875 0.25 0.28125q0.171875 0.09375 0.484375 0.09375q0.234375 0 0.609375 -0.0625z" fill-rule="nonzero"/><path fill="#000000" fill-opacity="0.0" d="m225.98341 113.779526l-97.44882 67.40158" fill-rule="evenodd"/><path stroke="#000000" stroke-width="1.0" stroke-linejoin="round" stroke-linecap="butt" d="m225.98341 113.779526l-97.44882 67.40158" fill-rule="evenodd"/><path fill="#000000" fill-opacity="0.0" d="m225.98341 113.779526l105.54332 67.40158" fill-rule="evenodd"/><path stroke="#000000" stroke-width="1.0" stroke-linejoin="round" stroke-linecap="butt" d="m225.98341 113.779526l105.54332 67.40158" fill-rule="evenodd"/><path fill="#000000" fill-opacity="0.0" d="m331.53937 255.6378l-180.56693 85.82677" fill-rule="evenodd"/><path stroke="#000000" stroke-width="1.0" stroke-linejoin="round" stroke-linecap="butt" d="m331.53937 255.6378l-180.56693 85.82677" fill-rule="evenodd"/><path fill="#000000" fill-opacity="0.0" d="m331.53937 255.6378l-48.06299 85.82677" fill-rule="evenodd"/><path stroke="#000000" stroke-width="1.0" stroke-linejoin="round" stroke-linecap="butt" d="m331.53937 255.6378l-48.06299 85.82677" fill-rule="evenodd"/><path fill="#000000" fill-opacity="0.0" d="m331.53937 255.6378l84.44095 85.82677" fill-rule="evenodd"/><path stroke="#000000" stroke-width="1.0" stroke-linejoin="round" stroke-linecap="butt" d="m331.53937 255.6378l84.44095 85.82677" fill-rule="evenodd"/><path fill="#000000" fill-opacity="0.0" d="m331.53937 255.6378l216.94489 85.82677" fill-rule="evenodd"/><path stroke="#000000" stroke-width="1.0" stroke-linejoin="round" stroke-linecap="butt" d="m331.53937 255.6378l216.94489 85.82677" fill-rule="evenodd"/><path fill="#ffffff" d="m71.99606 223.67061l113.07086 0l0 34.425186l-113.07086 0z" fill-rule="evenodd"/><path stroke="#000000" stroke-width="1.0" stroke-linejoin="round" stroke-linecap="butt" d="m71.99606 223.67061l113.07086 0l0 34.425186l-113.07086 0z" fill-rule="evenodd"/><path fill="#ffffff" d="m116.82959 232.88321l23.403809 0l0 15.999985l-23.403809 0l0 -15.999985z" fill-rule="nonzero"/><path fill="#000000" fill-opacity="0.0" d="m116.82959 234.86044l23.403809 0l0 14.7265625l-23.403809 0l0 -14.7265625z" fill-rule="nonzero"/><path fill="#2b2b2b" d="m121.23584 238.26132l-0.234375 4.296875q-0.015625 0.203125 -0.09375 0.296875q-0.0625 0.078125 -0.171875 0.078125q-0.109375 0 -0.1875 -0.078125q-0.078125 -0.09375 -0.09375 -0.296875l-0.234375 -4.296875q0 -0.15625 0 -0.234375q0 -0.203125 0.140625 -0.34375q0.15625 -0.15625 0.375 -0.15625q0.21875 0 0.359375 0.15625q0.15625 0.140625 0.15625 0.359375q0 0.0625 -0.015625 0.21875zm-0.625 6.296875l0.25 0q0.265625 0 0.453125 0.1875q0.203125 0.1875 0.203125 0.46875q0 0.28125 -0.203125 0.46875q-0.1875 0.1875 -0.453125 0.1875l-0.25 0q-0.28125 0 -0.484375 -0.1875q-0.1875 -0.203125 -0.1875 -0.46875q0 -0.28125 0.203125 -0.46875q0.203125 -0.1875 0.46875 -0.1875zm7.6137695 -2.03125q0.3125 0.234375 0.4375 0.453125q0.140625 0.28125 0.140625 0.671875l0 2.28125q0 0.359375 0.203125 0.59375q0.21875 0.234375 0.53125 0.265625q0.1875 0.015625 0.25 0.078125q0.09375 0.078125 0.09375 0.1875q0 0.125 -0.09375 0.1875q-0.078125 0.078125 -0.234375 0.078125q-0.5 0 -0.84375 -0.3125q-0.453125 -0.4375 -0.453125 -1.0625l0 -2.296875q0 -0.34375 -0.203125 -0.578125q-0.203125 -0.234375 -0.53125 -0.265625q-0.1875 -0.015625 -0.25 -0.078125q-0.0625 -0.078125 -0.0625 -0.203125q0 -0.125 0.0625 -0.1875q0.0625 -0.078125 0.25 -0.09375q0.328125 -0.03125 0.53125 -0.265625q0.203125 -0.234375 0.203125 -0.59375l0 -2.28125q0 -0.59375 0.375 -0.984375q0.390625 -0.40625 0.921875 -0.40625q0.15625 0 0.234375 0.078125q0.09375 0.078125 0.09375 0.1875q0 0.125 -0.09375 0.1875q-0.046875 0.0625 -0.25 0.09375q-0.328125 0.03125 -0.53125 0.265625q-0.203125 0.234375 -0.203125 0.578125l0 2.28125q0 0.40625 -0.125 0.65625q-0.125 0.234375 -0.453125 0.484375zm7.8012695 0q0.3125 0.234375 0.4375 0.453125q0.140625 0.28125 0.140625 0.671875l0 2.28125q0 0.359375 0.203125 0.59375q0.21875 0.234375 0.53125 0.265625q0.1875 0.015625 0.25 0.078125q0.09375 0.078125 0.09375 0.1875q0 0.125 -0.09375 0.1875q-0.078125 0.078125 -0.234375 0.078125q-0.5 0 -0.84375 -0.3125q-0.453125 -0.4375 -0.453125 -1.0625l0 -2.296875q0 -0.34375 -0.203125 -0.578125q-0.203125 -0.234375 -0.53125 -0.265625q-0.1875 -0.015625 -0.25 -0.078125q-0.0625 -0.078125 -0.0625 -0.203125q0 -0.125 0.0625 -0.1875q0.0625 -0.078125 0.25 -0.09375q0.328125 -0.03125 0.53125 -0.265625q0.203125 -0.234375 0.203125 -0.59375l0 -2.28125q0 -0.59375 0.375 -0.984375q0.390625 -0.40625 0.921875 -0.40625q0.15625 0 0.234375 0.078125q0.09375 0.078125 0.09375 0.1875q0 0.125 -0.09375 0.1875q-0.046875 0.0625 -0.25 0.09375q-0.328125 0.03125 -0.53125 0.265625q-0.203125 0.234375 -0.203125 0.578125l0 2.28125q0 0.40625 -0.125 0.65625q-0.125 0.234375 -0.453125 0.484375z" fill-rule="nonzero"/><path fill="#000000" fill-opacity="0.0" d="m140.2334 234.86044l0 0l0 14.7265625l0 0l0 -14.7265625z" fill-rule="nonzero"/><path fill="#ffffff" d="m275.00394 221.2126l113.07086 0l0 34.4252l-113.07086 0z" fill-rule="evenodd"/><path stroke="#000000" stroke-width="1.0" stroke-linejoin="round" stroke-linecap="butt" d="m275.00394 221.2126l113.07086 0l0 34.4252l-113.07086 0z" fill-rule="evenodd"/><path fill="#ffffff" d="m308.13556 230.4252l46.807617 0l0 16.0l-46.807617 0l0 -16.0z" fill-rule="nonzero"/><path fill="#000000" fill-opacity="0.0" d="m308.13556 232.40244l46.807617 0l0 14.7265625l-46.807617 0l0 -14.7265625z" fill-rule="nonzero"/><path fill="#2b2b2b" d="m311.7293 240.06894q0.3125 0.234375 0.4375 0.453125q0.140625 0.28125 0.140625 0.671875l0 2.28125q0 0.359375 0.203125 0.59375q0.21875 0.234375 0.53125 0.265625q0.1875 0.015625 0.25 0.078125q0.09375 0.078125 0.09375 0.1875q0 0.125 -0.09375 0.1875q-0.078125 0.078125 -0.234375 0.078125q-0.5 0 -0.84375 -0.3125q-0.453125 -0.4375 -0.453125 -1.0625l0 -2.296875q0 -0.34375 -0.203125 -0.578125q-0.203125 -0.234375 -0.53125 -0.265625q-0.1875 -0.015625 -0.25 -0.078125q-0.0625 -0.078125 -0.0625 -0.203125q0 -0.125 0.0625 -0.1875q0.0625 -0.078125 0.25 -0.09375q0.328125 -0.03125 0.53125 -0.265625q0.203125 -0.234375 0.203125 -0.59375l0 -2.28125q0 -0.59375 0.375 -0.984375q0.390625 -0.40625 0.921875 -0.40625q0.15625 0 0.234375 0.078125q0.09375 0.078125 0.09375 0.1875q0 0.125 -0.09375 0.1875q-0.046875 0.0625 -0.25 0.09375q-0.328125 0.03125 -0.53125 0.265625q-0.203125 0.234375 -0.203125 0.578125l0 2.28125q0 0.40625 -0.125 0.65625q-0.125 0.234375 -0.453125 0.484375zm7.8012695 0q0.3125 0.234375 0.4375 0.453125q0.140625 0.28125 0.140625 0.671875l0 2.28125q0 0.359375 0.203125 0.59375q0.21875 0.234375 0.53125 0.265625q0.1875 0.015625 0.25 0.078125q0.09375 0.078125 0.09375 0.1875q0 0.125 -0.09375 0.1875q-0.078125 0.078125 -0.234375 0.078125q-0.5 0 -0.84375 -0.3125q-0.453125 -0.4375 -0.453125 -1.0625l0 -2.296875q0 -0.34375 -0.203125 -0.578125q-0.203125 -0.234375 -0.53125 -0.265625q-0.1875 -0.015625 -0.25 -0.078125q-0.0625 -0.078125 -0.0625 -0.203125q0 -0.125 0.0625 -0.1875q0.0625 -0.078125 0.25 -0.09375q0.328125 -0.03125 0.53125 -0.265625q0.203125 -0.234375 0.203125 -0.59375l0 -2.28125q0 -0.59375 0.375 -0.984375q0.390625 -0.40625 0.921875 -0.40625q0.15625 0 0.234375 0.078125q0.09375 0.078125 0.09375 0.1875q0 0.125 -0.09375 0.1875q-0.046875 0.0625 -0.25 0.09375q-0.328125 0.03125 -0.53125 0.265625q-0.203125 0.234375 -0.203125 0.578125l0 2.28125q0 0.40625 -0.125 0.65625q-0.125 0.234375 -0.453125 0.484375zm8.004395 1.625l0.21875 0q0.359375 0 0.609375 0.25q0.25 0.25 0.25 0.609375q0 0.359375 -0.25 0.609375q-0.25 0.25 -0.609375 0.25l-0.21875 0q-0.359375 0 -0.625 -0.25q-0.25 -0.25 -0.25 -0.609375q0 -0.359375 0.25 -0.609375q0.265625 -0.25 0.625 -0.25zm7.8012695 0l0.21875 0q0.359375 0 0.609375 0.25q0.25 0.25 0.25 0.609375q0 0.359375 -0.25 0.609375q-0.25 0.25 -0.609375 0.25l-0.21875 0q-0.359375 0 -0.625 -0.25q-0.25 -0.25 -0.25 -0.609375q0 -0.359375 0.25 -0.609375q0.265625 -0.25 0.625 -0.25zm8.223145 -1.625q-0.328125 -0.25 -0.4375 -0.46875q-0.140625 -0.265625 -0.140625 -0.671875l0 -2.28125q0 -0.359375 -0.21875 -0.59375q-0.203125 -0.234375 -0.515625 -0.25q-0.203125 -0.03125 -0.265625 -0.078125q-0.078125 -0.078125 -0.078125 -0.203125q0 -0.109375 0.078125 -0.1875q0.078125 -0.078125 0.234375 -0.078125q0.515625 0 0.84375 0.328125q0.453125 0.421875 0.453125 1.0625l0 2.28125q0 0.359375 0.203125 0.59375q0.21875 0.234375 0.546875 0.265625q0.171875 0.015625 0.234375 0.09375q0.078125 0.0625 0.078125 0.1875q0 0.125 -0.078125 0.203125q-0.0625 0.0625 -0.234375 0.078125q-0.328125 0.03125 -0.546875 0.265625q-0.203125 0.234375 -0.203125 0.578125l0 2.296875q0 0.59375 -0.390625 0.984375q-0.375 0.40625 -0.90625 0.40625q-0.15625 0 -0.234375 -0.078125q-0.078125 -0.078125 -0.078125 -0.203125q0 -0.109375 0.078125 -0.1875q0.0625 -0.0625 0.265625 -0.078125q0.3125 -0.03125 0.515625 -0.265625q0.21875 -0.234375 0.21875 -0.59375l0 -2.28125q0 -0.390625 0.125 -0.640625q0.125 -0.25 0.453125 -0.484375zm7.8012695 0q-0.328125 -0.25 -0.4375 -0.46875q-0.140625 -0.265625 -0.140625 -0.671875l0 -2.28125q0 -0.359375 -0.21875 -0.59375q-0.203125 -0.234375 -0.515625 -0.25q-0.203125 -0.03125 -0.265625 -0.078125q-0.078125 -0.078125 -0.078125 -0.203125q0 -0.109375 0.078125 -0.1875q0.078125 -0.078125 0.234375 -0.078125q0.515625 0 0.84375 0.328125q0.453125 0.421875 0.453125 1.0625l0 2.28125q0 0.359375 0.203125 0.59375q0.21875 0.234375 0.546875 0.265625q0.171875 0.015625 0.234375 0.09375q0.078125 0.0625 0.078125 0.1875q0 0.125 -0.078125 0.203125q-0.0625 0.0625 -0.234375 0.078125q-0.328125 0.03125 -0.546875 0.265625q-0.203125 0.234375 -0.203125 0.578125l0 2.296875q0 0.59375 -0.390625 0.984375q-0.375 0.40625 -0.90625 0.40625q-0.15625 0 -0.234375 -0.078125q-0.078125 -0.078125 -0.078125 -0.203125q0 -0.109375 0.078125 -0.1875q0.0625 -0.0625 0.265625 -0.078125q0.3125 -0.03125 0.515625 -0.265625q0.21875 -0.234375 0.21875 -0.59375l0 -2.28125q0 -0.390625 0.125 -0.640625q0.125 -0.25 0.453125 -0.484375z" fill-rule="nonzero"/><path fill="#000000" fill-opacity="0.0" d="m354.94318 232.40244l0 0l0 14.7265625l0 0l0 -14.7265625z" fill-rule="nonzero"/><path fill="#ffffff" d="m94.43964 383.9449l113.07086 0l0 34.4252l-113.07086 0z" fill-rule="evenodd"/><path stroke="#000000" stroke-width="1.0" stroke-linejoin="round" stroke-linecap="butt" d="m94.43964 383.9449l113.07086 0l0 34.4252l-113.07086 0z" fill-rule="evenodd"/><path fill="#ffffff" d="m143.1738 393.15747l15.602539 0l0 16.0l-15.602539 0l0 -16.0z" fill-rule="nonzero"/><path fill="#000000" fill-opacity="0.0" d="m143.1738 395.13474l15.602539 0l0 14.7265625l-15.602539 0l0 -14.7265625z" fill-rule="nonzero"/><path fill="#2b2b2b" d="m146.76755 402.80124q0.3125 0.234375 0.4375 0.453125q0.140625 0.28125 0.140625 0.671875l0 2.28125q0 0.359375 0.203125 0.59375q0.21875 0.234375 0.53125 0.265625q0.1875 0.015625 0.25 0.078125q0.09375 0.078125 0.09375 0.1875q0 0.125 -0.09375 0.1875q-0.078125 0.078125 -0.234375 0.078125q-0.5 0 -0.84375 -0.3125q-0.453125 -0.4375 -0.453125 -1.0625l0 -2.296875q0 -0.34375 -0.203125 -0.578125q-0.203125 -0.234375 -0.53125 -0.265625q-0.1875 -0.015625 -0.25 -0.078125q-0.0625 -0.078125 -0.0625 -0.203125q0 -0.125 0.0625 -0.1875q0.0625 -0.078125 0.25 -0.09375q0.328125 -0.03125 0.53125 -0.265625q0.203125 -0.234375 0.203125 -0.59375l0 -2.28125q0 -0.59375 0.375 -0.984375q0.390625 -0.40625 0.921875 -0.40625q0.15625 0 0.234375 0.078125q0.09375 0.078125 0.09375 0.1875q0 0.125 -0.09375 0.1875q-0.046875 0.0625 -0.25 0.09375q-0.328125 0.03125 -0.53125 0.265625q-0.203125 0.234375 -0.203125 0.578125l0 2.28125q0 0.40625 -0.125 0.65625q-0.125 0.234375 -0.453125 0.484375zm7.8012695 0q0.3125 0.234375 0.4375 0.453125q0.140625 0.28125 0.140625 0.671875l0 2.28125q0 0.359375 0.203125 0.59375q0.21875 0.234375 0.53125 0.265625q0.1875 0.015625 0.25 0.078125q0.09375 0.078125 0.09375 0.1875q0 0.125 -0.09375 0.1875q-0.078125 0.078125 -0.234375 0.078125q-0.5 0 -0.84375 -0.3125q-0.453125 -0.4375 -0.453125 -1.0625l0 -2.296875q0 -0.34375 -0.203125 -0.578125q-0.203125 -0.234375 -0.53125 -0.265625q-0.1875 -0.015625 -0.25 -0.078125q-0.0625 -0.078125 -0.0625 -0.203125q0 -0.125 0.0625 -0.1875q0.0625 -0.078125 0.25 -0.09375q0.328125 -0.03125 0.53125 -0.265625q0.203125 -0.234375 0.203125 -0.59375l0 -2.28125q0 -0.59375 0.375 -0.984375q0.390625 -0.40625 0.921875 -0.40625q0.15625 0 0.234375 0.078125q0.09375 0.078125 0.09375 0.1875q0 0.125 -0.09375 0.1875q-0.046875 0.0625 -0.25 0.09375q-0.328125 0.03125 -0.53125 0.265625q-0.203125 0.234375 -0.203125 0.578125l0 2.28125q0 0.40625 -0.125 0.65625q-0.125 0.234375 -0.453125 0.484375z" fill-rule="nonzero"/><path fill="#000000" fill-opacity="0.0" d="m158.77634 395.13474l0 0l0 14.7265625l0 0l0 -14.7265625z" fill-rule="nonzero"/><path fill="#ffffff" d="m226.9462 383.9449l113.07086 0l0 34.4252l-113.07086 0z" fill-rule="evenodd"/><path stroke="#000000" stroke-width="1.0" stroke-linejoin="round" stroke-linecap="butt" d="m226.9462 383.9449l113.07086 0l0 34.4252l-113.07086 0z" fill-rule="evenodd"/><path fill="#ffffff" d="m263.97845 393.15747l39.006348 0l0 16.0l-39.006348 0l0 -16.0z" fill-rule="nonzero"/><path fill="#000000" fill-opacity="0.0" d="m263.97845 395.13474l39.006348 0l0 14.7265625l-39.006348 0l0 -14.7265625z" fill-rule="nonzero"/><path fill="#2b2b2b" d="m269.6347 400.81686q0 -0.1875 0.078125 -0.265625q0.078125 -0.09375 0.1875 -0.09375q0.125 0 0.203125 0.09375q0.078125 0.078125 0.078125 0.265625l0 0.921875q0 0.1875 -0.078125 0.28125q-0.078125 0.078125 -0.203125 0.078125q-0.09375 0 -0.171875 -0.0625q-0.078125 -0.078125 -0.09375 -0.25q-0.03125 -0.375 -0.390625 -0.625q-0.515625 -0.34375 -1.375 -0.34375q-0.890625 0 -1.390625 0.359375q-0.375 0.265625 -0.375 0.609375q0 0.375 0.453125 0.625q0.296875 0.1875 1.140625 0.28125q1.125 0.109375 1.546875 0.265625q0.625 0.21875 0.921875 0.625q0.296875 0.390625 0.296875 0.84375q0 0.6875 -0.65625 1.21875q-0.640625 0.515625 -1.90625 0.515625q-1.265625 0 -2.078125 -0.640625q0 0.21875 -0.03125 0.28125q-0.015625 0.0625 -0.09375 0.109375q-0.0625 0.046875 -0.140625 0.046875q-0.109375 0 -0.1875 -0.078125q-0.078125 -0.09375 -0.078125 -0.28125l0 -1.09375q0 -0.1875 0.0625 -0.265625q0.078125 -0.09375 0.203125 -0.09375q0.109375 0 0.1875 0.078125q0.09375 0.078125 0.09375 0.21875q0 0.296875 0.140625 0.484375q0.21875 0.3125 0.703125 0.515625q0.484375 0.1875 1.1875 0.1875q1.046875 0 1.546875 -0.375q0.515625 -0.390625 0.515625 -0.828125q0 -0.5 -0.515625 -0.796875q-0.515625 -0.296875 -1.515625 -0.390625q-0.984375 -0.109375 -1.421875 -0.265625q-0.4375 -0.171875 -0.671875 -0.5q-0.234375 -0.328125 -0.234375 -0.71875q0 -0.671875 0.671875 -1.078125q0.671875 -0.40625 1.59375 -0.40625q1.109375 0 1.796875 0.546875zm4.0356445 -0.359375l0 0.96875q0.484375 -0.578125 1.015625 -0.859375q0.546875 -0.296875 1.296875 -0.296875q0.78125 0 1.453125 0.375q0.671875 0.359375 1.03125 1.015625q0.359375 0.65625 0.359375 1.390625q0 1.140625 -0.828125 1.953125q-0.8125 0.8125 -2.015625 0.8125q-1.421875 0 -2.3125 -1.15625l0 3.21875l1.296875 0q0.1875 0 0.265625 0.0625q0.09375 0.078125 0.09375 0.203125q0 0.109375 -0.09375 0.1875q-0.078125 0.078125 -0.265625 0.078125l-2.546875 0q-0.1875 0 -0.28125 -0.078125q-0.078125 -0.078125 -0.078125 -0.1875q0 -0.125 0.078125 -0.203125q0.09375 -0.0625 0.28125 -0.0625l0.71875 0l0 -6.875l-0.71875 0q-0.1875 0 -0.28125 -0.078125q-0.078125 -0.078125 -0.078125 -0.203125q0 -0.109375 0.078125 -0.1875q0.09375 -0.078125 0.28125 -0.078125l1.25 0zm4.625 2.59375q0 -0.921875 -0.671875 -1.578125q-0.671875 -0.65625 -1.640625 -0.65625q-0.96875 0 -1.640625 0.65625q-0.671875 0.65625 -0.671875 1.578125q0 0.90625 0.671875 1.578125q0.671875 0.65625 1.640625 0.65625q0.96875 0 1.640625 -0.65625q0.671875 -0.65625 0.671875 -1.578125zm6.7231445 2.90625l0 -0.765625q-1.171875 0.96875 -2.484375 0.96875q-0.953125 0 -1.5 -0.484375q-0.53125 -0.484375 -0.53125 -1.1875q0 -0.765625 0.703125 -1.34375q0.71875 -0.578125 2.078125 -0.578125q0.359375 0 0.796875 0.046875q0.4375 0.046875 0.9375 0.140625l0 -0.859375q0 -0.4375 -0.40625 -0.75q-0.40625 -0.328125 -1.21875 -0.328125q-0.625 0 -1.75 0.359375q-0.203125 0.0625 -0.265625 0.0625q-0.09375 0 -0.171875 -0.078125q-0.0625 -0.078125 -0.0625 -0.1875q0 -0.109375 0.0625 -0.171875q0.078125 -0.09375 0.71875 -0.265625q0.984375 -0.265625 1.484375 -0.265625q1.015625 0 1.578125 0.5q0.5625 0.5 0.5625 1.125l0 3.53125l0.71875 0q0.1875 0 0.265625 0.078125q0.09375 0.0625 0.09375 0.1875q0 0.109375 -0.09375 0.1875q-0.078125 0.078125 -0.265625 0.078125l-1.25 0zm0 -2.65625q-0.375 -0.109375 -0.796875 -0.15625q-0.421875 -0.046875 -0.875 -0.046875q-1.171875 0 -1.828125 0.5q-0.484375 0.375 -0.484375 0.890625q0 0.484375 0.375 0.8125q0.375 0.328125 1.09375 0.328125q0.703125 0 1.296875 -0.265625q0.59375 -0.28125 1.21875 -0.890625l0 -1.171875zm8.48877 -2.296875l0 -0.1875q0 -0.1875 0.078125 -0.265625q0.078125 -0.09375 0.1875 -0.09375q0.125 0 0.203125 0.09375q0.078125 0.078125 0.078125 0.265625l0 1.21875q-0.015625 0.1875 -0.09375 0.28125q-0.0625 0.078125 -0.1875 0.078125q-0.109375 0 -0.1875 -0.078125q-0.0625 -0.078125 -0.078125 -0.25q-0.03125 -0.4375 -0.59375 -0.84375q-0.546875 -0.40625 -1.5 -0.40625q-1.1875 0 -1.796875 0.75q-0.609375 0.734375 -0.609375 1.6875q0 1.03125 0.671875 1.703125q0.6875 0.671875 1.765625 0.671875q0.609375 0 1.25 -0.21875q0.65625 -0.234375 1.171875 -0.734375q0.140625 -0.140625 0.234375 -0.140625q0.109375 0 0.171875 0.078125q0.078125 0.078125 0.078125 0.1875q0 0.265625 -0.640625 0.6875q-1.03125 0.671875 -2.296875 0.671875q-1.28125 0 -2.125 -0.8125q-0.828125 -0.828125 -0.828125 -2.09375q0 -1.28125 0.84375 -2.125q0.859375 -0.859375 2.140625 -0.859375q1.234375 0 2.0625 0.734375zm8.45752 2.328125l-5.421875 0q0.125 1.03125 0.859375 1.671875q0.734375 0.625 1.796875 0.625q0.59375 0 1.25 -0.1875q0.65625 -0.203125 1.0625 -0.53125q0.125 -0.09375 0.21875 -0.09375q0.09375 0 0.171875 0.078125q0.078125 0.078125 0.078125 0.1875q0 0.109375 -0.09375 0.21875q-0.3125 0.3125 -1.09375 0.59375q-0.765625 0.265625 -1.59375 0.265625q-1.375 0 -2.296875 -0.890625q-0.90625 -0.90625 -0.90625 -2.171875q0 -1.171875 0.859375 -2.0q0.859375 -0.828125 2.125 -0.828125q1.3125 0 2.15625 0.859375q0.84375 0.84375 0.828125 2.203125zm-0.53125 -0.53125q-0.15625 -0.890625 -0.84375 -1.4375q-0.671875 -0.546875 -1.609375 -0.546875q-0.921875 0 -1.59375 0.546875q-0.671875 0.53125 -0.84375 1.4375l4.890625 0z" fill-rule="nonzero"/><path fill="#010000" fill-opacity="0.0" d="m302.9848 395.13474l0 0l0 14.7265625l0 0l0 -14.7265625z" fill-rule="nonzero"/><path fill="#ffffff" d="m359.45276 383.9449l113.07086 0l0 34.4252l-113.07086 0z" fill-rule="evenodd"/><path stroke="#000000" stroke-width="1.0" stroke-linejoin="round" stroke-linecap="butt" d="m359.45276 383.9449l113.07086 0l0 34.4252l-113.07086 0z" fill-rule="evenodd"/><path fill="#ffffff" d="m392.58438 393.15747l46.807617 0l0 16.0l-46.807617 0l0 -16.0z" fill-rule="nonzero"/><path fill="#000000" fill-opacity="0.0" d="m392.58438 395.13474l46.807617 0l0 14.7265625l-46.807617 0l0 -14.7265625z" fill-rule="nonzero"/><path fill="#2b2b2b" d="m396.38126 404.42624l0.21875 0q0.359375 0 0.609375 0.25q0.25 0.25 0.25 0.609375q0 0.359375 -0.25 0.609375q-0.25 0.25 -0.609375 0.25l-0.21875 0q-0.359375 0 -0.625 -0.25q-0.25 -0.25 -0.25 -0.609375q0 -0.359375 0.25 -0.609375q0.265625 -0.25 0.625 -0.25zm7.5512695 -3.421875l0 4.421875l2.34375 0q0.1875 0 0.265625 0.078125q0.09375 0.0625 0.09375 0.1875q0 0.109375 -0.09375 0.1875q-0.078125 0.078125 -0.265625 0.078125l-4.171875 0q-0.1875 0 -0.28125 -0.078125q-0.078125 -0.078125 -0.078125 -0.1875q0 -0.125 0.078125 -0.1875q0.09375 -0.078125 0.28125 -0.078125l1.296875 0l0 -4.421875l-1.15625 0q-0.203125 0 -0.28125 -0.078125q-0.078125 -0.078125 -0.078125 -0.203125q0 -0.109375 0.078125 -0.1875q0.078125 -0.078125 0.28125 -0.078125l1.15625 0l0 -0.796875q0 -0.671875 0.53125 -1.171875q0.546875 -0.5 1.453125 -0.5q0.75 0 1.609375 0.140625q0.328125 0.046875 0.390625 0.125q0.078125 0.0625 0.078125 0.1875q0 0.109375 -0.078125 0.1875q-0.078125 0.0625 -0.203125 0.0625q-0.0625 0 -0.171875 -0.015625q-0.96875 -0.140625 -1.625 -0.140625q-0.703125 0 -1.078125 0.34375q-0.375 0.34375 -0.375 0.78125l0 0.796875l2.5 0q0.1875 0 0.265625 0.078125q0.09375 0.078125 0.09375 0.203125q0 0.109375 -0.09375 0.1875q-0.078125 0.078125 -0.265625 0.078125l-2.5 0zm8.42627 -3.28125l0 1.375l-0.796875 0l0 -1.375l0.796875 0zm0.015625 2.734375l0 4.96875l2.09375 0q0.1875 0 0.265625 0.078125q0.09375 0.0625 0.09375 0.1875q0 0.109375 -0.09375 0.1875q-0.078125 0.078125 -0.265625 0.078125l-4.71875 0q-0.203125 0 -0.28125 -0.078125q-0.078125 -0.078125 -0.078125 -0.1875q0 -0.125 0.078125 -0.1875q0.078125 -0.078125 0.28125 -0.078125l2.09375 0l0 -4.421875l-1.5625 0q-0.1875 0 -0.28125 -0.078125q-0.078125 -0.078125 -0.078125 -0.1875q0 -0.125 0.078125 -0.203125q0.078125 -0.078125 0.28125 -0.078125l2.09375 0zm10.39502 2.875l-5.421875 0q0.125 1.03125 0.859375 1.671875q0.734375 0.625 1.796875 0.625q0.59375 0 1.25 -0.1875q0.65625 -0.203125 1.0625 -0.53125q0.125 -0.09375 0.21875 -0.09375q0.09375 0 0.171875 0.078125q0.078125 0.078125 0.078125 0.1875q0 0.109375 -0.09375 0.21875q-0.3125 0.3125 -1.09375 0.59375q-0.765625 0.265625 -1.59375 0.265625q-1.375 0 -2.296875 -0.890625q-0.90625 -0.90625 -0.90625 -2.171875q0 -1.171875 0.859375 -2.0q0.859375 -0.828125 2.125 -0.828125q1.3125 0 2.15625 0.859375q0.84375 0.84375 0.828125 2.203125zm-0.53125 -0.53125q-0.15625 -0.890625 -0.84375 -1.4375q-0.671875 -0.546875 -1.609375 -0.546875q-0.921875 0 -1.59375 0.546875q-0.671875 0.53125 -0.84375 1.4375l4.890625 0zm5.7231445 -4.8125l0 7.4375l2.09375 0q0.203125 0 0.28125 0.078125q0.078125 0.0625 0.078125 0.1875q0 0.109375 -0.078125 0.1875q-0.078125 0.078125 -0.28125 0.078125l-4.71875 0q-0.1875 0 -0.28125 -0.078125q-0.078125 -0.078125 -0.078125 -0.1875q0 -0.125 0.078125 -0.1875q0.09375 -0.078125 0.28125 -0.078125l2.09375 0l0 -6.890625l-1.546875 0q-0.1875 0 -0.28125 -0.078125q-0.078125 -0.078125 -0.078125 -0.203125q0 -0.109375 0.078125 -0.1875q0.09375 -0.078125 0.28125 -0.078125l2.078125 0zm10.14502 0l0 7.4375l0.703125 0q0.203125 0 0.28125 0.078125q0.078125 0.0625 0.078125 0.1875q0 0.109375 -0.078125 0.1875q-0.078125 0.078125 -0.28125 0.078125l-1.25 0l0 -1.0625q-0.921875 1.265625 -2.34375 1.265625q-0.734375 0 -1.40625 -0.375q-0.65625 -0.390625 -1.046875 -1.09375q-0.375 -0.71875 -0.375 -1.46875q0 -0.765625 0.375 -1.46875q0.390625 -0.703125 1.046875 -1.09375q0.671875 -0.390625 1.40625 -0.390625q1.390625 0 2.34375 1.265625l0 -3.0l-0.703125 0q-0.203125 0 -0.28125 -0.078125q-0.078125 -0.078125 -0.078125 -0.203125q0 -0.109375 0.078125 -0.1875q0.078125 -0.078125 0.28125 -0.078125l1.25 0zm-0.546875 5.234375q0 -1.015625 -0.6875 -1.703125q-0.671875 -0.703125 -1.625 -0.703125q-0.953125 0 -1.640625 0.703125q-0.6875 0.6875 -0.6875 1.703125q0 1.0 0.6875 1.703125q0.6875 0.703125 1.640625 0.703125q0.953125 0 1.625 -0.703125q0.6875 -0.703125 0.6875 -1.703125z" fill-rule="nonzero"/><path fill="#010000" fill-opacity="0.0" d="m439.392 395.13474l0 0l0 14.7265625l0 0l0 -14.7265625z" fill-rule="nonzero"/><path fill="#ffffff" d="m491.95932 383.9449l113.07089 0l0 34.4252l-113.07089 0z" fill-rule="evenodd"/><path stroke="#000000" stroke-width="1.0" stroke-linejoin="round" stroke-linecap="butt" d="m491.95932 383.9449l113.07089 0l0 34.4252l-113.07089 0z" fill-rule="evenodd"/><path fill="#ffffff" d="m540.6935 393.15747l15.602539 0l0 16.0l-15.602539 0l0 -16.0z" fill-rule="nonzero"/><path fill="#000000" fill-opacity="0.0" d="m540.6935 395.13474l15.602539 0l0 14.7265625l-15.602539 0l0 -14.7265625z" fill-rule="nonzero"/><path fill="#2b2b2b" d="m544.91223 402.80124q-0.328125 -0.25 -0.4375 -0.46875q-0.140625 -0.265625 -0.140625 -0.671875l0 -2.28125q0 -0.359375 -0.21875 -0.59375q-0.203125 -0.234375 -0.515625 -0.25q-0.203125 -0.03125 -0.265625 -0.078125q-0.078125 -0.078125 -0.078125 -0.203125q0 -0.109375 0.078125 -0.1875q0.078125 -0.078125 0.234375 -0.078125q0.515625 0 0.84375 0.328125q0.453125 0.421875 0.453125 1.0625l0 2.28125q0 0.359375 0.203125 0.59375q0.21875 0.234375 0.546875 0.265625q0.171875 0.015625 0.234375 0.09375q0.078125 0.0625 0.078125 0.1875q0 0.125 -0.078125 0.203125q-0.0625 0.0625 -0.234375 0.078125q-0.328125 0.03125 -0.546875 0.265625q-0.203125 0.234375 -0.203125 0.578125l0 2.296875q0 0.59375 -0.390625 0.984375q-0.375 0.40625 -0.90625 0.40625q-0.15625 0 -0.234375 -0.078125q-0.078125 -0.078125 -0.078125 -0.203125q0 -0.109375 0.078125 -0.1875q0.0625 -0.0625 0.265625 -0.078125q0.3125 -0.03125 0.515625 -0.265625q0.21875 -0.234375 0.21875 -0.59375l0 -2.28125q0 -0.390625 0.125 -0.640625q0.125 -0.25 0.453125 -0.484375zm7.8012695 0q-0.328125 -0.25 -0.4375 -0.46875q-0.140625 -0.265625 -0.140625 -0.671875l0 -2.28125q0 -0.359375 -0.21875 -0.59375q-0.203125 -0.234375 -0.515625 -0.25q-0.203125 -0.03125 -0.265625 -0.078125q-0.078125 -0.078125 -0.078125 -0.203125q0 -0.109375 0.078125 -0.1875q0.078125 -0.078125 0.234375 -0.078125q0.515625 0 0.84375 0.328125q0.453125 0.421875 0.453125 1.0625l0 2.28125q0 0.359375 0.203125 0.59375q0.21875 0.234375 0.546875 0.265625q0.171875 0.015625 0.234375 0.09375q0.078125 0.0625 0.078125 0.1875q0 0.125 -0.078125 0.203125q-0.0625 0.0625 -0.234375 0.078125q-0.328125 0.03125 -0.546875 0.265625q-0.203125 0.234375 -0.203125 0.578125l0 2.296875q0 0.59375 -0.390625 0.984375q-0.375 0.40625 -0.90625 0.40625q-0.15625 0 -0.234375 -0.078125q-0.078125 -0.078125 -0.078125 -0.203125q0 -0.109375 0.078125 -0.1875q0.0625 -0.0625 0.265625 -0.078125q0.3125 -0.03125 0.515625 -0.265625q0.21875 -0.234375 0.21875 -0.59375l0 -2.28125q0 -0.390625 0.125 -0.640625q0.125 -0.25 0.453125 -0.484375z" fill-rule="nonzero"/><path fill="#010000" fill-opacity="0.0" d="m556.296 395.13474l0 0l0 14.7265625l0 0l0 -14.7265625z" fill-rule="nonzero"/></g></svg>