<svg version="1.1" viewBox="0.0 0.0 595.4251968503937 100.0" fill="none" stroke="none" stroke-linecap="square" stroke-miterlimit="10" xmlns:xlink="http://www.w3.org/1999/xlink" xmlns="http://www.w3.org/2000/svg"><clipPath id="p.0"><path d="m0 0l595.4252 0l0 100.0l-595.4252 0l0 -100.0z" clip-rule="nonzero"/></clipPath><g clip-path="url(#p.0)"><path fill="#000000" fill-opacity="0.0" d="m0 0l595.4252 0l0 100.0l-595.4252 0z" fill-rule="evenodd"/><path fill="#f6b26b" d="m195.61417 19.725721l63.874023 0l0 60.7874l-63.874023 0z" fill-rule="evenodd"/><path stroke="#000000" stroke-width="1.0" stroke-linejoin="round" stroke-linecap="butt" d="m195.61417 19.725721l63.874023 0l0 60.7874l-63.874023 0z" fill-rule="evenodd"/><path fill="#000000" d="m213.53555 46.045673q-0.140625 -0.515625 -0.375 -1.03125q0.890625 0 1.140625 -0.234375q0.265625 -0.234375 0.21875 -2.203125l-2.15625 0l0 4.359375q0 0.65625 0.5625 0.65625l1.921875 0q0.328125 0.046875 0.484375 -0.328125q0.171875 -0.375 0.21875 -0.9375q0.375 0.234375 0.984375 0.421875q-0.328125 1.21875 -0.640625 1.421875q-0.296875 0.21875 -0.8125 0.21875l-2.625 0q-0.9375 0 -0.9375 -0.984375l0 -3.984375q0 -0.703125 -0.046875 -1.546875q-0.328125 0.375 -0.75 0.796875q-0.421875 -0.46875 -0.796875 -0.703125q0.515625 -0.375 0.984375 -0.8125q0.46875 -0.453125 0.890625 -1.015625q0.421875 -0.5625 0.796875 -1.125q0.375 -0.5625 0.65625 -1.265625q0.375 0.28125 1.03125 0.609375q-0.28125 0.1875 -0.46875 0.375q0.421875 0.328125 1.078125 0.75q0.65625 0.421875 1.640625 1.40625q-0.375 0.28125 -0.703125 0.75q-0.890625 -1.078125 -1.390625 -1.453125q-0.484375 -0.375 -1.0 -0.75q-0.703125 0.984375 -1.125 1.5l-0.703125 0.796875l3.84375 0q-0.046875 1.359375 -0.046875 2.109375q0 0.703125 -0.125 1.203125q-0.109375 0.484375 -0.578125 0.703125q-0.46875 0.203125 -1.171875 0.296875zm6.75 -7.96875q-0.046875 0.796875 -0.046875 1.640625l0 7.734375q0 0.796875 -0.40625 0.984375q-0.390625 0.1875 -1.328125 0.328125q-0.140625 -0.609375 -0.421875 -1.078125q0.84375 0 1.078125 -0.046875q0.234375 -0.046875 0.234375 -0.515625l0 -7.40625q0 -0.75 -0.046875 -1.640625l0.9375 0zm-2.4375 1.640625q-0.046875 0.75 -0.046875 1.640625l0 3.375q0 0.890625 0.046875 1.5l-0.984375 0q0.046875 -0.75 0.046875 -1.5l0 -3.515625q0 -0.703125 -0.046875 -1.5l0.984375 0z" fill-rule="nonzero"/><path fill="#000000" d="m232.98868 47.40505l-0.28125 0.890625l-5.15625 0q-1.875 0 -3.046875 -1.125q-0.890625 1.125 -1.78125 1.640625l-0.609375 -0.9375q0.984375 -0.515625 1.78125 -1.453125q-0.890625 -1.5 -1.171875 -2.484375l0.796875 -0.1875q0.234375 0.75 0.84375 1.78125q0.421875 -1.171875 0.421875 -2.296875l0 -0.421875l-0.984375 0l-0.421875 0.609375l-0.890625 -0.375q1.03125 -1.734375 1.875 -3.46875l-1.921875 0l0 -0.890625l2.109375 0l0.1875 -0.234375l0.9375 0.703125q0.09375 0.09375 -0.1875 0.1875l-1.265625 2.578125l1.5 0l0 0.703125q0 2.296875 -0.75 3.796875q0.9375 0.984375 2.953125 0.984375l5.0625 0zm-4.40625 -6.796875l0 -0.796875l-2.203125 0l0 -0.75l2.203125 0l0 -1.171875l0.75 0q0.375 0.046875 0.046875 0.28125l0 0.890625l2.4375 0l0 1.546875l0.9375 0l0 0.75l-0.9375 0l0 1.59375l-2.4375 0l0 0.65625l2.578125 0l0 0.75l-2.578125 0l0 0.890625l3.140625 0l0 0.75l-3.140625 0l0 1.03125l-0.796875 0l0 -1.03125l-2.765625 0l0 -0.75l2.765625 0l0 -0.890625l-2.15625 0l0 -0.75l2.15625 0l0 -0.65625l-2.203125 0l0 -0.75l2.203125 0l0 -0.84375l-3.046875 0l0 -0.75l3.046875 0zm2.4375 0.75l-1.640625 0l0 0.84375l1.640625 0l0 -0.84375zm0 -1.546875l-1.640625 0l0 0.796875l1.640625 0l0 -0.796875z" fill-rule="nonzero"/><path fill="#000000" d="m241.70743 40.09255q0.46875 -1.03125 0.9375 -2.25q0.75 0.28125 0.984375 0.421875q-0.421875 0.515625 -0.984375 1.828125l0.1875 0q1.3125 -0.046875 1.875 -0.046875l0 0.84375q-0.515625 -0.046875 -1.453125 -0.046875l-1.171875 0l0 1.828125l0.75 0q1.078125 -0.046875 1.59375 -0.046875l0 0.84375q-0.609375 -0.046875 -1.453125 -0.046875l-0.890625 0l0 1.921875l1.453125 0q0.890625 -0.046875 1.453125 -0.046875l0 0.84375q-0.515625 -0.046875 -1.453125 -0.046875l-1.453125 0l0 1.03125q0 0.984375 0.046875 1.640625l-0.9375 0l0 -2.671875l-1.125 0q-0.890625 0 -1.734375 0.046875l0 -0.890625q0.84375 0.046875 1.78125 0.09375l1.078125 0l0 -1.921875l-0.796875 0q-0.796875 0 -1.40625 0.046875l0 -0.890625q0.5625 0.046875 1.453125 0.09375l0.75 0l0 -1.828125l-1.125 0q-0.796875 0 -1.359375 0.046875l0 -0.890625q0.5625 0.046875 1.359375 0.09375l1.640625 0zm-5.671875 -0.609375q0 -0.796875 -0.046875 -1.453125l0.984375 0q-0.046875 0.75 -0.046875 1.453125l0 1.125q0.609375 0 1.265625 -0.046875l0 0.84375q-0.65625 -0.046875 -1.265625 -0.046875l0 1.734375q0.375 -0.328125 0.5625 -0.46875q0.515625 0.65625 1.171875 1.6875q-0.28125 0.140625 -0.796875 0.5625q-0.515625 -0.9375 -0.9375 -1.640625l0 3.515625q0 0.984375 0.046875 1.96875l-0.984375 0q0.046875 -1.03125 0.046875 -1.96875l0 -3.328125q-0.75 1.78125 -1.5 2.859375q-0.1875 -0.421875 -0.5625 -0.84375q1.359375 -1.828125 1.875 -4.078125q-0.75 0 -1.640625 0.046875l0 -0.84375q0.890625 0.046875 1.828125 0.046875l0 -1.125zm4.21875 -1.59375q0.421875 0.796875 0.703125 1.59375q-0.5625 0.1875 -0.796875 0.328125q-0.328125 -0.796875 -0.703125 -1.546875q0.515625 -0.234375 0.796875 -0.375z" fill-rule="nonzero"/><path fill="#000000" d="m215.21426 56.951923q1.6875 -1.6875 2.296875 -5.015625l0.984375 0.28125q0.1875 0.1875 -0.140625 0.234375q-0.5625 1.96875 -0.75 2.484375l0.1875 0.046875q0.140625 0.140625 -0.09375 0.28125l0 7.3125l-0.9375 0l0 -5.953125q-0.515625 0.75 -1.03125 1.21875l-0.515625 -0.890625zm2.671875 1.96875q1.453125 -1.5 1.734375 -5.203125l-0.984375 0l0 -0.890625l4.171875 0l0 0.890625l-2.296875 0l-0.1875 1.5l1.96875 0l0 1.125q0 4.03125 -3.234375 6.1875l-0.5625 -0.84375q1.640625 -1.03125 2.390625 -2.859375q-0.703125 -0.609375 -1.265625 -0.84375q-0.421875 0.890625 -1.078125 1.734375l-0.65625 -0.796875zm2.015625 -1.78125q0.703125 0.234375 1.265625 0.703125q0.234375 -0.84375 0.234375 -1.734375l-1.21875 0q-0.046875 0.421875 -0.28125 1.03125zm4.734375 4.40625q0.1875 0 0.1875 -0.1875l0 -8.953125l0.890625 0q0.375 0.046875 0.046875 0.28125l0 9.09375q0 0.65625 -0.609375 0.65625l-1.265625 0l-0.09375 -0.890625l0.84375 0zm-0.703125 -1.640625l-0.9375 0l0 -6.234375l0.890625 0q0.375 0.046875 0.046875 0.28125l0 5.953125z" fill-rule="nonzero"/><path fill="#000000" d="m227.87051 61.639423l0 -8.59375l5.796875 0l0 1.015625l-4.65625 0l0 2.65625l4.03125 0l0 1.015625l-4.03125 0l0 3.90625l-1.140625 0zm6.720703 -1.859375l1.03125 -0.15625q0.09375 0.625 0.484375 0.953125q0.40625 0.328125 1.140625 0.328125q0.71875 0 1.0625 -0.28125q0.359375 -0.296875 0.359375 -0.703125q0 -0.359375 -0.3125 -0.5625q-0.21875 -0.140625 -1.078125 -0.359375q-1.15625 -0.296875 -1.609375 -0.5q-0.4375 -0.21875 -0.671875 -0.59375q-0.234375 -0.375 -0.234375 -0.84375q0 -0.40625 0.1875 -0.765625q0.1875 -0.359375 0.515625 -0.59375q0.25 -0.171875 0.671875 -0.296875q0.421875 -0.125 0.921875 -0.125q0.71875 0 1.265625 0.21875q0.5625 0.203125 0.828125 0.5625q0.265625 0.359375 0.359375 0.953125l-1.03125 0.140625q-0.0625 -0.46875 -0.40625 -0.734375q-0.328125 -0.28125 -0.953125 -0.28125q-0.71875 0 -1.03125 0.25q-0.3125 0.234375 -0.3125 0.5625q0 0.203125 0.125 0.359375q0.140625 0.171875 0.40625 0.28125q0.15625 0.0625 0.9375 0.265625q1.125 0.3125 1.5625 0.5q0.4375 0.1875 0.6875 0.546875q0.25 0.359375 0.25 0.90625q0 0.53125 -0.3125 1.0q-0.296875 0.453125 -0.875 0.71875q-0.578125 0.25 -1.3125 0.25q-1.21875 0 -1.859375 -0.5q-0.625 -0.515625 -0.796875 -1.5z" fill-rule="nonzero"/><path fill="#f6b26b" d="m275.61417 19.725721l63.874023 0l0 60.7874l-63.874023 0z" fill-rule="evenodd"/><path stroke="#000000" stroke-width="1.0" stroke-linejoin="round" stroke-linecap="butt" d="m275.61417 19.725721l63.874023 0l0 60.7874l-63.874023 0z" fill-rule="evenodd"/><path fill="#000000" d="m294.5668 34.1238l-1.40625 0l0 0.796875q0 3.9375 -2.296875 6.421875l-0.796875 -0.703125q2.15625 -2.4375 2.15625 -5.765625l0 -0.75l-1.734375 0l0 -0.890625l1.734375 0l0 -2.109377l0.890625 0q0.375 0.046875 0.046875 0.28125l0 1.8281269l2.34375 0l0 4.453125q0 1.875 -0.28125 2.578125q-0.328125 0.796875 -1.359375 0.796875l-0.75 0l-0.09375 -1.03125l0.75 0q0.46875 0 0.609375 -0.421875q0.1875 -0.46875 0.1875 -1.78125l0 -3.703125zm1.734375 -1.40625l4.125 0l0 8.015625l-0.9375 0l0 -0.5625l-2.25 0l0 0.75l-0.9375 0l0 -8.203125zm0.9375 0.890625l0 5.671875l2.25 0l0 -5.671875l-2.25 0z" fill-rule="nonzero"/><path fill="#000000" d="m306.9418 41.15505q0.515625 -0.234375 1.21875 -0.765625q0.703125 -0.546875 1.3125 -1.390625q-0.328125 -0.796875 -0.59375 -1.984375q-0.25 -1.203125 -0.34375 -2.75l-4.921875 0q-0.796875 0 -1.59375 0.046875l0 -0.796875q0.796875 0.046875 2.71875 0.046875l0 -0.84375q-1.5 0 -2.0625 0.046875l0 -0.7968769q0.5625 0.046876907 2.0625 0.046876907q0 -0.6562519 -0.046875 -1.1718769l0.984375 0q-0.046875 0.28125 -0.046875 1.1718769l0.75 0q0.75 0 1.265625 -0.046876907l0 0.7968769q-0.5625 -0.046875 -1.265625 -0.046875l-0.75 0l0 0.84375l2.859375 0q-0.046875 -1.453125 -0.140625 -2.765627q0.609375 0.09375 0.984375 0.09375q-0.09375 0.796875 -0.046875 2.671877l2.0625 0q0.84375 0 1.640625 -0.046875l0 0.796875q-0.84375 -0.046875 -1.640625 -0.046875l-2.015625 0q0.140625 1.453125 0.296875 2.4375q0.171875 0.984375 0.40625 1.40625q0.234375 -0.515625 0.53125 -1.3125q0.3125 -0.796875 0.453125 -1.78125q0.375 0.234375 1.03125 0.421875q-0.375 0.75 -0.6875 1.59375q-0.296875 0.84375 -0.953125 2.015625q1.125 2.109375 1.375 1.5q0.265625 -0.609375 0.359375 -1.03125q0.46875 0.234375 0.890625 0.375q-0.703125 1.875 -1.296875 1.9375q-0.578125 0.078125 -1.84375 -1.984375q-0.984375 1.171875 -2.203125 1.921875q-0.28125 -0.328125 -0.75 -0.609375zm-1.03125 -1.125q0 0.75 0.046875 1.734375l-0.9375 0q0 -0.984375 0.046875 -1.59375q-1.921875 0.28125 -2.578125 0.46875l-0.328125 -0.984375q0.515625 0 2.90625 -0.234375l0 -1.125l-0.984375 0q-0.609375 0 -1.21875 0.140625l-0.328125 -0.890625q0.1875 -0.1875 0.34375 -0.328125q0.171875 -0.140625 0.78125 -0.984375q-0.515625 0 -1.265625 0.046875l0 -0.84375q0.84375 0.046875 1.6875 0.046875q0.375 -0.65625 0.609375 -1.171875q0.46875 0.1875 1.03125 0.375q-0.375 0.421875 -0.65625 0.796875l1.03125 0q0.9375 -0.046875 1.734375 -0.046875l0 0.84375q-0.796875 -0.046875 -1.734375 -0.046875l-1.5 0q-0.1875 0.28125 -1.03125 1.359375l1.5 0q0 -0.375 -0.046875 -0.984375l0.9375 0q-0.046875 0.609375 -0.046875 0.984375q0.796875 0 1.78125 -0.046875l0 0.796875q-0.984375 -0.046875 -1.78125 -0.046875l0 0.984375q1.5 -0.1875 1.921875 -0.28125q-0.09375 0.46875 -0.140625 0.796875q-0.328125 0 -1.78125 0.234375zm5.015625 -8.906252q0.9375 0.9843769 1.171875 1.3593769q-0.421875 0.234375 -0.75 0.46875q-0.234375 -0.328125 -1.125 -1.3593769q0.328125 -0.234375 0.703125 -0.46875zm12.375 0.515625q0.75 0 1.5 -0.046875l0 0.7968769q-0.75 -0.046875 -1.5 -0.046875l-1.5 0q-0.140625 0.75 -0.328125 1.5l2.578125 0q-0.046875 0.703125 -0.046875 1.546875l0 2.34375q0 0.609375 0.046875 1.5l-0.890625 0l0 -4.6875l-3.5625 0l0 4.734375l-0.9375 0q0.046875 -0.84375 0.046875 -1.5l0 -2.390625q0 -0.703125 -0.046875 -1.546875l1.96875 0q0.140625 -0.796875 0.1875 -1.5l-1.171875 0q-0.703125 0 -1.453125 0.046875l0 -0.7968769q0.75 0.046875 1.453125 0.046875l3.65625 0zm-5.578125 6.562502q-0.890625 0.234375 -1.640625 0.5q-0.75 0.25 -1.6875 0.671875q-0.09375 -0.5625 -0.375 -1.03125q0.75 -0.140625 1.453125 -0.328125l0 -5.203125q-0.609375 0 -1.3125 0.046875l0 -0.796875q0.796875 0.046875 1.828125 0.046875q1.03125 0 1.6875 -0.046875l0 0.796875q-0.515625 -0.046875 -1.3125 -0.046875l0 4.921875q0.609375 -0.140625 1.40625 -0.46875q-0.09375 0.46875 -0.046875 0.9375zm4.265625 -2.484375q-0.09375 0.5625 -0.1875 1.3125q-0.09375 0.75 -0.359375 1.6875q-0.25 0.9375 -1.1875 1.71875q-0.9375 0.765625 -2.484375 1.46875q-0.234375 -0.46875 -0.75 -0.890625q1.546875 -0.421875 2.3125 -0.9375q0.78125 -0.515625 1.125 -1.21875q0.359375 -0.703125 0.40625 -1.515625q0.046875 -0.828125 0.046875 -1.8125q0.46875 0.09375 1.078125 0.1875zm0.234375 3.140625q1.640625 1.265625 2.53125 2.109375q-0.46875 0.28125 -0.75 0.75q-0.515625 -0.703125 -2.484375 -2.109375q0.46875 -0.421875 0.703125 -0.75z" fill-rule="nonzero"/><path fill="#000000" d="m299.0668 55.4363l-0.9375 0l0 -0.5625l-5.296875 0l0 0.75l-0.9375 0l0 -10.078125l7.171875 0l0 9.890625zm-0.9375 -7.171875l0 -1.828125l-5.296875 0l0 1.828125l5.296875 0zm0 2.765625l0 -1.875l-5.296875 0l0 1.875l5.296875 0zm0 2.953125l0 -2.0625l-5.296875 0l0 2.0625l5.296875 0zm14.953125 -0.984375l-0.1875 1.265625q-0.140625 0.890625 -1.03125 0.890625l-2.71875 0q-0.84375 0 -0.84375 -0.84375l0 -4.921875l3.140625 0l0 -2.765625l-3.234375 0l0 -0.890625l4.171875 0l0 4.96875l-0.9375 0l0 -0.421875l-2.203125 0l0 3.65625q0 0.328125 0.28125 0.328125l1.875 0q0.515625 0 0.5625 -0.421875l0.140625 -1.078125l0.984375 0.234375zm-8.390625 -4.359375l0 1.078125q0 0.984375 -0.75 1.828125l-0.515625 -0.609375q0.609375 -0.515625 0.609375 -1.3125l0 -0.984375l-0.65625 0l0 3.46875l3.328125 0l0 -1.03125l-0.65625 0q-0.703125 0 -0.703125 -0.75l0 -1.6875l-0.65625 0zm1.3125 0l0 1.59375q0 0.28125 0.28125 0.28125l0.421875 0l0 -1.875l-0.703125 0zm1.5 6.703125l-0.796875 0l0 -0.609375l-3.328125 0l0 0.609375l-0.796875 0l0 -7.453125l1.453125 0l0 -1.359375l-1.875 0l0 -0.890625l5.578125 0l0 0.890625l-1.734375 0l0 1.359375l1.5 0l0 7.453125zm-2.8125 -7.453125l0.65625 0l0 -1.359375l-0.65625 0l0 1.359375zm-1.3125 6.09375l3.328125 0l0 -1.125l-3.328125 0l0 1.125zm12.65625 0.5625l8.8125 0l0 0.75l-8.8125 0l0 0.375l-0.9375 0l0 -5.90625l0.890625 0q0.375 0.046875 0.046875 0.28125l0 4.5zm5.109375 -7.6875l1.734375 0l0 -0.984375l-1.734375 0l0 0.984375zm-0.796875 0l0 -0.984375l-1.6875 0l0 0.984375l1.6875 0zm-2.484375 0l0 -0.984375l-1.734375 0l0 0.984375l1.734375 0zm-2.671875 0.5625l0 -2.109375l8.625 0l0 2.109375l-3.703125 0l0 0.65625l4.640625 0l0 0.75l-4.640625 0l0 0.65625l2.90625 0l0 4.5l-5.859375 0l0 -4.5l2.015625 0l0 -0.65625l-5.0625 0l0 -0.75l5.0625 0l0 -0.65625l-1.96875 0l-2.015625 0zm7.03125 3.328125l0 -0.703125l-4.265625 0l0 0.703125l4.265625 0zm0 1.3125l0 -0.75l-4.265625 0l0 0.75l4.265625 0zm0 1.359375l0 -0.796875l-4.265625 0l0 0.796875l4.265625 0z" fill-rule="nonzero"/><path fill="#000000" d="m301.6918 66.76442q-2.34375 2.015625 -4.828125 2.765625l-0.421875 -1.125q2.484375 -0.703125 4.453125 -2.390625q-1.640625 -1.78125 -2.203125 -4.124996l-2.25 0l0 -0.890625l4.5 0l0 -1.78125l1.03125 0q0.46875 0.09375 0.046875 0.375l0 1.40625l4.546875 0l0 0.890625l-2.203125 0q-0.375 2.2031212 -1.96875 4.124996q1.640625 1.453125 4.359375 2.15625l-0.421875 1.125q-2.390625 -0.609375 -4.640625 -2.53125zm-0.046875 -1.5q1.40625 -1.6874962 1.734375 -3.3749962l-3.65625 0q0.28125 1.59375 1.921875 3.3749962zm11.90625 -4.874996q-0.046875 0.328125 -0.28125 1.3125l1.453125 0l0 -2.578125l0.890625 0q0.375 0.046875 0.046875 0.28125l0 2.296875l2.296875 0l0 0.890625l-2.296875 0l0 2.3437462l3.234375 0l0 0.890625l-3.234375 0l0 3.796875l-0.9375 0l0 -3.796875l-3.46875 0l0 -0.890625l3.46875 0l0 -2.3437462l-1.734375 0q-0.46875 1.265625 -1.125 2.0156212l-0.796875 -0.7499962q1.359375 -1.734375 1.5 -3.984375l1.125 0.28125q0.1875 0.1875 -0.140625 0.234375zm-2.90625 9.281246l-0.9375 0l0 -5.812496q-0.328125 0.6093712 -0.84375 1.2187462l-0.75 -0.84375q1.78125 -2.0624962 2.109375 -5.203121l0.984375 0.1875q0.328125 0.09375 0 0.234375q-0.28125 1.546875 -0.65625 2.625l0.1875 0.046875q0.140625 0.140625 -0.09375 0.28125l0 7.265621z" fill-rule="nonzero"/><path fill="#ffffff" d="m19.614174 19.727034l151.87402 0l0 60.7874l-151.87402 0z" fill-rule="evenodd"/><path stroke="#000000" stroke-width="1.0" stroke-linejoin="round" stroke-linecap="butt" d="m19.614174 19.727034l151.87402 0l0 60.7874l-151.87402 0z" fill-rule="evenodd"/><path fill="#000000" d="m76.723274 57.040733l0 -13.359375l2.65625 0l3.15625 9.453125q0.4375 1.328125 0.640625 1.984375q0.234375 -0.734375 0.703125 -2.140625l3.203125 -9.296875l2.375 0l0 13.359375l-1.703125 0l0 -11.171875l-3.875 11.171875l-1.59375 0l-3.859375 -11.375l0 11.375l-1.703125 0zm21.697052 -1.1875q-0.921875 0.765625 -1.765625 1.09375q-0.828125 0.3125 -1.796875 0.3125q-1.59375 0 -2.453125 -0.78125q-0.859375 -0.78125 -0.859375 -1.984375q0 -0.71875 0.328125 -1.296875q0.328125 -0.59375 0.84375 -0.9375q0.53125 -0.359375 1.1875 -0.546875q0.46875 -0.125 1.453125 -0.25q1.984375 -0.234375 2.921875 -0.5625q0.015625 -0.34375 0.015625 -0.421875q0 -1.0 -0.46875 -1.421875q-0.625 -0.546875 -1.875 -0.546875q-1.15625 0 -1.703125 0.40625q-0.546875 0.40625 -0.8125 1.421875l-1.609375 -0.21875q0.21875 -1.015625 0.71875 -1.640625q0.5 -0.640625 1.453125 -0.984375q0.953125 -0.34375 2.1875 -0.34375q1.25 0 2.015625 0.296875q0.78125 0.28125 1.140625 0.734375q0.375 0.4375 0.515625 1.109375q0.078125 0.421875 0.078125 1.515625l0 2.1875q0 2.28125 0.109375 2.890625q0.109375 0.59375 0.40625 1.15625l-1.703125 0q-0.265625 -0.515625 -0.328125 -1.1875zm-0.140625 -3.671875q-0.890625 0.375 -2.671875 0.625q-1.015625 0.140625 -1.4375 0.328125q-0.421875 0.1875 -0.65625 0.53125q-0.21875 0.34375 -0.21875 0.78125q0 0.65625 0.5 1.09375q0.5 0.4375 1.453125 0.4375q0.9375 0 1.671875 -0.40625q0.75 -0.421875 1.09375 -1.140625q0.265625 -0.5625 0.265625 -1.640625l0 -0.609375zm4.203842 -6.609375l0 -1.890625l1.640625 0l0 1.890625l-1.640625 0zm0 11.46875l0 -9.671875l1.640625 0l0 9.671875l-1.640625 0zm4.144821 0l0 -9.671875l1.46875 0l0 1.375q1.0625 -1.59375 3.078125 -1.59375q0.875 0 1.609375 0.3125q0.734375 0.3125 1.09375 0.828125q0.375 0.5 0.515625 1.203125q0.09375 0.453125 0.09375 1.59375l0 5.953125l-1.640625 0l0 -5.890625q0 -1.0 -0.203125 -1.484375q-0.1875 -0.5 -0.671875 -0.796875q-0.484375 -0.296875 -1.140625 -0.296875q-1.046875 0 -1.8125 0.671875q-0.75 0.65625 -0.75 2.515625l0 5.28125l-1.640625 0z" fill-rule="nonzero"/><path fill="#f6b26b" d="m355.61417 19.725721l63.874023 0l0 60.7874l-63.874023 0z" fill-rule="evenodd"/><path stroke="#000000" stroke-width="1.0" stroke-linejoin="round" stroke-linecap="butt" d="m355.61417 19.725721l63.874023 0l0 60.7874l-63.874023 0z" fill-rule="evenodd"/><path fill="#000000" d="m382.76993 40.28005l0.75 -1.96875l0.984375 0.234375q0.1875 0.1875 -0.140625 0.234375l-0.65625 1.5l2.765625 0l0 0.890625l-2.671875 0l0 1.40625l2.109375 0l0 0.890625l-2.109375 0l0 1.359375l2.109375 0l0 0.890625l-2.109375 0l0 1.5l3.0 0l0 0.890625l-5.71875 0l0 0.375l-0.9375 0l0 -6.5625q-0.421875 0.65625 -1.3125 1.59375l-0.65625 -0.84375q2.109375 -2.0625 2.765625 -4.59375l1.03125 0.28125q0.234375 0.1875 -0.09375 0.234375q-0.234375 0.75 -0.75 1.6875l1.640625 0zm-6.5625 6.75q1.078125 -1.265625 2.015625 -2.953125l0.75 0.75q-0.796875 1.546875 -1.78125 2.90625q0 0.375 -0.1875 0.28125l-0.796875 -0.984375zm6.65625 -4.453125l0 -1.40625l-1.78125 0l0 1.40625l1.78125 0zm0 0.890625l-1.78125 0l0 1.359375l1.78125 0l0 -1.359375zm0 2.25l-1.78125 0l0 1.5l1.78125 0l0 -1.5zm-5.484375 -6.75q1.078125 0.5625 1.640625 1.265625l-0.703125 0.84375q-0.65625 -0.703125 -1.59375 -1.3125l0.65625 -0.796875z" fill-rule="nonzero"/><path fill="#000000" d="m397.11368 43.84255q-0.046875 0.84375 -0.046875 2.484375q0 1.59375 0.046875 2.484375l-0.890625 0l0 -0.609375l-5.296875 0l0 0.609375l-0.890625 0q0.046875 -0.890625 0.046875 -2.484375q0 -1.640625 -0.046875 -2.484375l7.078125 0zm-8.578125 0.28125q-0.09375 -0.421875 -0.515625 -0.890625q1.171875 -0.09375 2.546875 -0.375q1.390625 -0.28125 2.234375 -0.75q-1.078125 -0.890625 -1.78125 -1.59375q-0.5625 0.5625 -1.3125 1.21875q-0.421875 -0.375 -0.75 -0.515625q1.828125 -1.40625 2.859375 -3.515625q0.46875 0.28125 0.984375 0.46875l-0.375 0.375q-0.140625 0.140625 -0.46875 0.5625l5.203125 0q-0.421875 0.796875 -1.109375 1.578125q-0.671875 0.765625 -1.609375 1.46875q0.75 0.375 2.171875 0.609375q1.4375 0.234375 2.515625 0.140625q-0.28125 0.46875 -0.421875 0.984375q-1.6875 -0.1875 -2.8125 -0.390625q-1.125 -0.21875 -2.296875 -0.828125q-1.3125 0.609375 -2.75 0.9375q-1.421875 0.328125 -2.3125 0.515625zm2.953125 -4.21875q0.984375 0.9375 2.203125 1.78125q0.984375 -0.609375 2.0625 -1.921875l-4.125 0l-0.140625 0.140625zm4.734375 5.765625l0 -1.125l-2.25 0l0 1.125l2.25 0zm-3.09375 0l0 -1.125l-2.203125 0l0 1.125l2.203125 0zm3.09375 1.78125l0 -1.078125l-2.25 0l0 1.078125l2.25 0zm-3.09375 0l0 -1.078125l-2.203125 0l0 1.078125l2.203125 0z" fill-rule="nonzero"/><path fill="#000000" d="m365.84415 61.639423l0 -8.59375l1.125 0l0 3.53125l4.46875 0l0 -3.53125l1.140625 0l0 8.59375l-1.140625 0l0 -4.046875l-4.46875 0l0 4.046875l-1.125 0zm12.572266 0l0 -0.921875q-0.734375 1.0625 -1.984375 1.0625q-0.546875 0 -1.03125 -0.203125q-0.46875 -0.21875 -0.703125 -0.53125q-0.234375 -0.328125 -0.328125 -0.796875q-0.0625 -0.296875 -0.0625 -0.984375l0 -3.84375l1.0625 0l0 3.453125q0 0.8125 0.0625 1.109375q0.09375 0.40625 0.40625 0.65625q0.328125 0.234375 0.8125 0.234375q0.46875 0 0.875 -0.234375q0.421875 -0.25 0.59375 -0.671875q0.1875 -0.421875 0.1875 -1.21875l0 -3.328125l1.046875 0l0 6.21875l-0.9375 0zm2.3925781 0.515625l1.03125 0.15625q0.0625 0.46875 0.359375 0.6875q0.390625 0.296875 1.0625 0.296875q0.734375 0 1.125 -0.296875q0.40625 -0.296875 0.546875 -0.8125q0.09375 -0.328125 0.078125 -1.359375q-0.6875 0.8125 -1.71875 0.8125q-1.28125 0 -1.984375 -0.921875q-0.703125 -0.9375 -0.703125 -2.21875q0 -0.890625 0.3125 -1.640625q0.328125 -0.765625 0.9375 -1.171875q0.609375 -0.40625 1.4375 -0.40625q1.109375 0 1.828125 0.890625l0 -0.75l0.96875 0l0 5.375q0 1.453125 -0.296875 2.0625q-0.296875 0.609375 -0.9375 0.953125q-0.640625 0.3593712 -1.578125 0.3593712q-1.109375 0 -1.796875 -0.4999962q-0.6875 -0.5 -0.671875 -1.515625zm0.875 -3.734375q0 1.21875 0.484375 1.78125q0.484375 0.5625 1.21875 0.5625q0.734375 0 1.21875 -0.5625q0.5 -0.5625 0.5 -1.75q0 -1.140625 -0.515625 -1.71875q-0.5 -0.578125 -1.21875 -0.578125q-0.703125 0 -1.203125 0.578125q-0.484375 0.5625 -0.484375 1.6875zm5.611328 0.109375q0 -1.734375 0.953125 -2.5625q0.796875 -0.6875 1.953125 -0.6875q1.28125 0 2.09375 0.84375q0.828125 0.828125 0.828125 2.3125q0 1.203125 -0.359375 1.890625q-0.359375 0.6875 -1.0625 1.078125q-0.6875 0.375 -1.5 0.375q-1.296875 0 -2.109375 -0.828125q-0.796875 -0.84375 -0.796875 -2.421875zm1.078125 0q0 1.1875 0.515625 1.78125q0.53125 0.59375 1.3125 0.59375q0.796875 0 1.3125 -0.59375q0.515625 -0.59375 0.515625 -1.8125q0 -1.15625 -0.53125 -1.75q-0.515625 -0.59375 -1.296875 -0.59375q-0.78125 0 -1.3125 0.59375q-0.515625 0.578125 -0.515625 1.78125zm9.5078125 3.109375l0 -8.59375l5.796875 0l0 1.015625l-4.65625 0l0 2.65625l4.03125 0l0 1.015625l-4.03125 0l0 3.90625l-1.140625 0zm6.720703 -1.859375l1.03125 -0.15625q0.09375 0.625 0.484375 0.953125q0.40625 0.328125 1.140625 0.328125q0.71875 0 1.0625 -0.28125q0.359375 -0.296875 0.359375 -0.703125q0 -0.359375 -0.3125 -0.5625q-0.21875 -0.140625 -1.078125 -0.359375q-1.15625 -0.296875 -1.609375 -0.5q-0.4375 -0.21875 -0.671875 -0.59375q-0.234375 -0.375 -0.234375 -0.84375q0 -0.40625 0.1875 -0.765625q0.1875 -0.359375 0.515625 -0.59375q0.25 -0.171875 0.671875 -0.296875q0.421875 -0.125 0.921875 -0.125q0.71875 0 1.265625 0.21875q0.5625 0.203125 0.828125 0.5625q0.265625 0.359375 0.359375 0.953125l-1.03125 0.140625q-0.0625 -0.46875 -0.40625 -0.734375q-0.328125 -0.28125 -0.953125 -0.28125q-0.71875 0 -1.03125 0.25q-0.3125 0.234375 -0.3125 0.5625q0 0.203125 0.125 0.359375q0.140625 0.171875 0.40625 0.28125q0.15625 0.0625 0.9375 0.265625q1.125 0.3125 1.5625 0.5q0.4375 0.1875 0.6875 0.546875q0.25 0.359375 0.25 0.90625q0 0.53125 -0.3125 1.0q-0.296875 0.453125 -0.875 0.71875q-0.578125 0.25 -1.3125 0.25q-1.21875 0 -1.859375 -0.5q-0.625 -0.515625 -0.796875 -1.5z" fill-rule="nonzero"/><path fill="#f6b26b" d="m435.61417 19.725721l63.874023 0l0 60.7874l-63.874023 0z" fill-rule="evenodd"/><path stroke="#000000" stroke-width="1.0" stroke-linejoin="round" stroke-linecap="butt" d="m435.61417 19.725721l63.874023 0l0 60.7874l-63.874023 0z" fill-rule="evenodd"/><path fill="#000000" d="m459.53555 39.045673q-0.140625 -0.515625 -0.375 -1.03125q0.890625 0 1.140625 -0.234375q0.265625 -0.234375 0.21875 -2.203125l-2.15625 0l0 4.359375q0 0.65625 0.5625 0.65625l1.921875 0q0.328125 0.046875 0.484375 -0.328125q0.171875 -0.375 0.21875 -0.9375q0.375 0.234375 0.984375 0.421875q-0.328125 1.21875 -0.640625 1.421875q-0.296875 0.21875 -0.8125 0.21875l-2.625 0q-0.9375 0 -0.9375 -0.984375l0 -3.984375q0 -0.703125 -0.046875 -1.546875q-0.328125 0.375 -0.75 0.796875q-0.421875 -0.46875 -0.796875 -0.703125q0.515625 -0.375 0.984375 -0.8125q0.46875 -0.453125 0.890625 -1.015625q0.421875 -0.5625 0.796875 -1.125q0.375 -0.5625019 0.65625 -1.2656269q0.375 0.28125 1.03125 0.609375q-0.28125 0.1875 -0.46875 0.375q0.421875 0.3281269 1.078125 0.7500019q0.65625 0.421875 1.640625 1.40625q-0.375 0.28125 -0.703125 0.75q-0.890625 -1.078125 -1.390625 -1.453125q-0.484375 -0.375 -1.0 -0.75q-0.703125 0.984375 -1.125 1.5l-0.703125 0.796875l3.84375 0q-0.046875 1.359375 -0.046875 2.109375q0 0.703125 -0.125 1.203125q-0.109375 0.484375 -0.578125 0.703125q-0.46875 0.203125 -1.171875 0.296875zm6.75 -7.968752q-0.046875 0.796875 -0.046875 1.6406269l0 7.734375q0 0.796875 -0.40625 0.984375q-0.390625 0.1875 -1.328125 0.328125q-0.140625 -0.609375 -0.421875 -1.078125q0.84375 0 1.078125 -0.046875q0.234375 -0.046875 0.234375 -0.515625l0 -7.40625q0 -0.7500019 -0.046875 -1.6406269l0.9375 0zm-2.4375 1.6406269q-0.046875 0.75 -0.046875 1.640625l0 3.375q0 0.890625 0.046875 1.5l-0.984375 0q0.046875 -0.75 0.046875 -1.5l0 -3.515625q0 -0.703125 -0.046875 -1.5l0.984375 0z" fill-rule="nonzero"/><path fill="#000000" d="m478.98868 40.40505l-0.28125 0.890625l-5.15625 0q-1.875 0 -3.046875 -1.125q-0.890625 1.125 -1.78125 1.640625l-0.609375 -0.9375q0.984375 -0.515625 1.78125 -1.453125q-0.890625 -1.5 -1.171875 -2.484375l0.796875 -0.1875q0.234375 0.75 0.84375 1.78125q0.421875 -1.171875 0.421875 -2.296875l0 -0.421875l-0.984375 0l-0.421875 0.609375l-0.890625 -0.375q1.03125 -1.734375 1.875 -3.46875l-1.921875 0l0 -0.8906269l2.109375 0l0.1875 -0.234375l0.9375 0.7031269q0.09375 0.09375 -0.1875 0.1875l-1.265625 2.578125l1.5 0l0 0.703125q0 2.296875 -0.75 3.796875q0.9375 0.984375 2.953125 0.984375l5.0625 0zm-4.40625 -6.796875l0 -0.796875l-2.203125 0l0 -0.75l2.203125 0l0 -1.1718769l0.75 0q0.375 0.046875 0.046875 0.28125l0 0.8906269l2.4375 0l0 1.546875l0.9375 0l0 0.75l-0.9375 0l0 1.59375l-2.4375 0l0 0.65625l2.578125 0l0 0.75l-2.578125 0l0 0.890625l3.140625 0l0 0.75l-3.140625 0l0 1.03125l-0.796875 0l0 -1.03125l-2.765625 0l0 -0.75l2.765625 0l0 -0.890625l-2.15625 0l0 -0.75l2.15625 0l0 -0.65625l-2.203125 0l0 -0.75l2.203125 0l0 -0.84375l-3.046875 0l0 -0.75l3.046875 0zm2.4375 0.75l-1.640625 0l0 0.84375l1.640625 0l0 -0.84375zm0 -1.546875l-1.640625 0l0 0.796875l1.640625 0l0 -0.796875z" fill-rule="nonzero"/><path fill="#000000" d="m448.17618 54.639423l0 -8.59375l1.125 0l0 3.53125l4.46875 0l0 -3.53125l1.140625 0l0 8.59375l-1.140625 0l0 -4.046875l-4.46875 0l0 4.046875l-1.125 0zm12.572266 0l0 -0.921875q-0.734375 1.0625 -1.984375 1.0625q-0.546875 0 -1.03125 -0.203125q-0.46875 -0.21875 -0.703125 -0.53125q-0.234375 -0.328125 -0.328125 -0.796875q-0.0625 -0.296875 -0.0625 -0.984375l0 -3.84375l1.0625 0l0 3.453125q0 0.8125 0.0625 1.109375q0.09375 0.40625 0.40625 0.65625q0.328125 0.234375 0.8125 0.234375q0.46875 0 0.875 -0.234375q0.421875 -0.25 0.59375 -0.671875q0.1875 -0.421875 0.1875 -1.21875l0 -3.328125l1.046875 0l0 6.21875l-0.9375 0zm2.3925781 0.515625l1.03125 0.15625q0.0625 0.46875 0.359375 0.6875q0.390625 0.296875 1.0625 0.296875q0.734375 0 1.125 -0.296875q0.40625 -0.296875 0.546875 -0.8125q0.09375 -0.328125 0.078125 -1.359375q-0.6875 0.8125 -1.71875 0.8125q-1.28125 0 -1.984375 -0.921875q-0.703125 -0.9375 -0.703125 -2.21875q0 -0.890625 0.3125 -1.640625q0.328125 -0.765625 0.9375 -1.171875q0.609375 -0.40625 1.4375 -0.40625q1.109375 0 1.828125 0.890625l0 -0.75l0.96875 0l0 5.375q0 1.453125 -0.296875 2.0625q-0.296875 0.609375 -0.9375 0.953125q-0.640625 0.359375 -1.578125 0.359375q-1.109375 0 -1.796875 -0.5q-0.6875 -0.5 -0.671875 -1.515625zm0.875 -3.734375q0 1.21875 0.484375 1.78125q0.484375 0.5625 1.21875 0.5625q0.734375 0 1.21875 -0.5625q0.5 -0.5625 0.5 -1.75q0 -1.140625 -0.515625 -1.71875q-0.5 -0.578125 -1.21875 -0.578125q-0.703125 0 -1.203125 0.578125q-0.484375 0.5625 -0.484375 1.6875zm5.611328 0.109375q0 -1.734375 0.953125 -2.5625q0.796875 -0.6875 1.953125 -0.6875q1.28125 0 2.09375 0.84375q0.828125 0.828125 0.828125 2.3125q0 1.203125 -0.359375 1.890625q-0.359375 0.6875 -1.0625 1.078125q-0.6875 0.375 -1.5 0.375q-1.296875 0 -2.109375 -0.828125q-0.796875 -0.84375 -0.796875 -2.421875zm1.078125 0q0 1.1875 0.515625 1.78125q0.53125 0.59375 1.3125 0.59375q0.796875 0 1.3125 -0.59375q0.515625 -0.59375 0.515625 -1.8125q0 -1.15625 -0.53125 -1.75q-0.515625 -0.59375 -1.296875 -0.59375q-0.78125 0 -1.3125 0.59375q-0.515625 0.578125 -0.515625 1.78125z" fill-rule="nonzero"/><path fill="#000000" d="m478.05118 48.920673q0.328125 1.828125 0.515625 3.65625l-0.9375 0.09375q-0.1875 -1.734375 -0.5625 -3.5625l0.984375 -0.1875zm5.25 -3.796875l0.890625 0q0.375 0.046875 0.046875 0.28125l0 1.875l2.859375 0l0 0.890625l-2.859375 0l0 2.0625l2.484375 0l0 5.15625l-0.9375 0l0 -0.5625l-3.234375 0l0 0.65625l-0.9375 0l0 -5.25l1.6875 0l0 -5.109375zm-1.875 3.09375l-4.78125 0l0 -0.890625l2.015625 0l0 -2.109375l0.890625 0q0.375 0.046875 0.046875 0.28125l0 1.828125l1.828125 0l0 0.890625zm-4.21875 6.234375q-0.140625 0.46875 -0.328125 0.046875l-0.328125 -0.9375l2.671875 -0.328125q0.375 -2.296875 0.46875 -4.640625l1.171875 0.28125q0.421875 0.1875 -0.09375 0.328125q-0.1875 1.875 -0.609375 3.9375l1.171875 -0.1875l0 0.84375l-4.125 0.65625zm5.34375 -0.515625l3.234375 0l0 -2.8125l-3.234375 0l0 2.8125z" fill-rule="nonzero"/><path fill="#000000" d="m470.8793 66.67067q0.9375 0.890625 1.6875 2.203125l-1.125 0.5625q-0.65625 -1.40625 -1.40625 -2.296875l0.84375 -0.46875zm-2.15625 0.046875q0.796875 1.3125 0.9375 2.53125l-1.171875 0.28125q-0.1875 -1.265625 -0.703125 -2.484375l0.9375 -0.328125zm-6.1875 2.296875q0.84375 -0.84375 1.359375 -2.25l0.984375 0.375q-0.328125 1.40625 -1.3125 2.484375l-1.03125 -0.609375zm4.078125 -2.015625q0.375 0.890625 0.28125 2.484375l-1.125 0.046875q0.046875 -1.59375 -0.140625 -2.484375l0.984375 -0.046875zm3.65625 -1.78125l0 -1.8281212l-5.25 0l0 1.8281212l5.25 0zm-2.484375 -6.187496q0.375 0.046875 0.046875 0.28125l0 1.03125l3.9375 0l0 0.890625l-3.9375 0l0 1.265625l3.515625 0l0 3.8906212l-1.078125 0l0 -0.28125l-5.25 0l0 0.375l-1.078125 0l0 -3.9843712l2.8125 0l0 -3.46875l1.03125 0z" fill-rule="nonzero"/><path fill="#f6b26b" d="m515.6142 19.725721l63.873962 0l0 60.7874l-63.873962 0z" fill-rule="evenodd"/><path stroke="#000000" stroke-width="1.0" stroke-linejoin="round" stroke-linecap="butt" d="m515.6142 19.725721l63.873962 0l0 60.7874l-63.873962 0z" fill-rule="evenodd"/><path fill="#000000" d="m544.08246 40.03005l-0.09375 -0.703125q-1.125 0.328125 -2.8125 0.75q-0.234375 0.375 -0.328125 -0.09375l-0.1875 -0.84375l0.609375 -0.09375q0.609375 -1.96875 0.796875 -4.40625l1.125 0.09375q0.140625 0.140625 -0.09375 0.28125q-0.234375 1.453125 -0.9375 3.84375l1.6875 -0.28125q-0.140625 -0.9375 -0.46875 -1.828125l0.890625 -0.1875q0.609375 1.59375 0.796875 3.28125l-0.984375 0.1875zm-4.21875 -5.015625q1.453125 -1.59375 1.921875 -4.031252l1.03125 0.046875q0.140625 0.09375 -0.09375 0.234375q-0.328125 1.1250019 -0.609375 1.7812519l4.359375 0l-0.09375 7.125q0 1.40625 -1.21875 1.40625l-0.84375 0l-0.09375 -0.890625l0.609375 0q0.609375 0 0.609375 -0.75l0.09375 -6.0l-3.796875 0q-0.421875 0.9375 -1.265625 1.96875l-0.609375 -0.890625zm-1.078125 -1.59375l1.265625 0l0 0.890625l-1.265625 0l0 1.265625q0.703125 0.421875 1.40625 1.171875l-0.609375 0.9375q-0.375 -0.609375 -0.796875 -0.9375l0 4.96875l-0.9375 0l0 -4.828125q-0.328125 1.03125 -1.3125 2.296875l-0.515625 -1.171875q1.40625 -1.59375 1.828125 -3.703125l-1.453125 0l0 -0.890625l1.453125 0l0 -2.484377l0.890625 0q0.375 0.046875 0.046875 0.28125l0 2.203127zm20.203125 6.984375l-0.28125 0.890625l-5.15625 0q-1.875 0 -3.046875 -1.125q-0.890625 1.125 -1.78125 1.640625l-0.609375 -0.9375q0.984375 -0.515625 1.78125 -1.453125q-0.890625 -1.5 -1.171875 -2.484375l0.796875 -0.1875q0.234375 0.75 0.84375 1.78125q0.421875 -1.171875 0.421875 -2.296875l0 -0.421875l-0.984375 0l-0.421875 0.609375l-0.890625 -0.375q1.03125 -1.734375 1.875 -3.46875l-1.921875 0l0 -0.8906269l2.109375 0l0.1875 -0.234375l0.9375 0.7031269q0.09375 0.09375 -0.1875 0.1875l-1.265625 2.578125l1.5 0l0 0.703125q0 2.296875 -0.75 3.796875q0.9375 0.984375 2.953125 0.984375l5.0625 0zm-4.40625 -6.796875l0 -0.796875l-2.203125 0l0 -0.75l2.203125 0l0 -1.1718769l0.75 0q0.375 0.046875 0.046875 0.28125l0 0.8906269l2.4375 0l0 1.546875l0.9375 0l0 0.75l-0.9375 0l0 1.59375l-2.4375 0l0 0.65625l2.578125 0l0 0.75l-2.578125 0l0 0.890625l3.140625 0l0 0.75l-3.140625 0l0 1.03125l-0.796875 0l0 -1.03125l-2.765625 0l0 -0.75l2.765625 0l0 -0.890625l-2.15625 0l0 -0.75l2.15625 0l0 -0.65625l-2.203125 0l0 -0.75l2.203125 0l0 -0.84375l-3.046875 0l0 -0.75l3.046875 0zm2.4375 0.75l-1.640625 0l0 0.84375l1.640625 0l0 -0.84375zm0 -1.546875l-1.640625 0l0 0.796875l1.640625 0l0 -0.796875z" fill-rule="nonzero"/><path fill="#000000" d="m528.1762 54.639423l0 -8.59375l1.125 0l0 3.53125l4.46875 0l0 -3.53125l1.140625 0l0 8.59375l-1.140625 0l0 -4.046875l-4.46875 0l0 4.046875l-1.125 0zm12.572266 0l0 -0.921875q-0.734375 1.0625 -1.984375 1.0625q-0.546875 0 -1.03125 -0.203125q-0.46875 -0.21875 -0.703125 -0.53125q-0.234375 -0.328125 -0.328125 -0.796875q-0.0625 -0.296875 -0.0625 -0.984375l0 -3.84375l1.0625 0l0 3.453125q0 0.8125 0.0625 1.109375q0.09375 0.40625 0.40625 0.65625q0.328125 0.234375 0.8125 0.234375q0.46875 0 0.875 -0.234375q0.421875 -0.25 0.59375 -0.671875q0.1875 -0.421875 0.1875 -1.21875l0 -3.328125l1.046875 0l0 6.21875l-0.9375 0zm2.3925781 0.515625l1.03125 0.15625q0.0625 0.46875 0.359375 0.6875q0.390625 0.296875 1.0625 0.296875q0.734375 0 1.125 -0.296875q0.40625 -0.296875 0.546875 -0.8125q0.09375 -0.328125 0.078125 -1.359375q-0.6875 0.8125 -1.71875 0.8125q-1.28125 0 -1.984375 -0.921875q-0.703125 -0.9375 -0.703125 -2.21875q0 -0.890625 0.3125 -1.640625q0.328125 -0.765625 0.9375 -1.171875q0.609375 -0.40625 1.4375 -0.40625q1.109375 0 1.828125 0.890625l0 -0.75l0.96875 0l0 5.375q0 1.453125 -0.296875 2.0625q-0.296875 0.609375 -0.9375 0.953125q-0.640625 0.359375 -1.578125 0.359375q-1.109375 0 -1.796875 -0.5q-0.6875 -0.5 -0.671875 -1.515625zm0.875 -3.734375q0 1.21875 0.484375 1.78125q0.484375 0.5625 1.21875 0.5625q0.734375 0 1.21875 -0.5625q0.5 -0.5625 0.5 -1.75q0 -1.140625 -0.515625 -1.71875q-0.5 -0.578125 -1.21875 -0.578125q-0.703125 0 -1.203125 0.578125q-0.484375 0.5625 -0.484375 1.6875zm5.611328 0.109375q0 -1.734375 0.953125 -2.5625q0.796875 -0.6875 1.953125 -0.6875q1.28125 0 2.09375 0.84375q0.828125 0.828125 0.828125 2.3125q0 1.203125 -0.359375 1.890625q-0.359375 0.6875 -1.0625 1.078125q-0.6875 0.375 -1.5 0.375q-1.296875 0 -2.109375 -0.828125q-0.796875 -0.84375 -0.796875 -2.421875zm1.078125 0q0 1.1875 0.515625 1.78125q0.53125 0.59375 1.3125 0.59375q0.796875 0 1.3125 -0.59375q0.515625 -0.59375 0.515625 -1.8125q0 -1.15625 -0.53125 -1.75q-0.515625 -0.59375 -1.296875 -0.59375q-0.78125 0 -1.3125 0.59375q-0.515625 0.578125 -0.515625 1.78125z" fill-rule="nonzero"/><path fill="#000000" d="m558.0512 48.920673q0.328125 1.828125 0.515625 3.65625l-0.9375 0.09375q-0.1875 -1.734375 -0.5625 -3.5625l0.984375 -0.1875zm5.25 -3.796875l0.890625 0q0.375 0.046875 0.046875 0.28125l0 1.875l2.859375 0l0 0.890625l-2.859375 0l0 2.0625l2.484375 0l0 5.15625l-0.9375 0l0 -0.5625l-3.234375 0l0 0.65625l-0.9375 0l0 -5.25l1.6875 0l0 -5.109375zm-1.875 3.09375l-4.78125 0l0 -0.890625l2.015625 0l0 -2.109375l0.890625 0q0.375 0.046875 0.046875 0.28125l0 1.828125l1.828125 0l0 0.890625zm-4.21875 6.234375q-0.140625 0.46875 -0.328125 0.046875l-0.328125 -0.9375l2.671875 -0.328125q0.375 -2.296875 0.46875 -4.640625l1.171875 0.28125q0.421875 0.1875 -0.09375 0.328125q-0.1875 1.875 -0.609375 3.9375l1.171875 -0.1875l0 0.84375l-4.125 0.65625zm5.34375 -0.515625l3.234375 0l0 -2.8125l-3.234375 0l0 2.8125z" fill-rule="nonzero"/><path fill="#000000" d="m550.87933 66.67067q0.9375 0.890625 1.6875 2.203125l-1.125 0.5625q-0.65625 -1.40625 -1.40625 -2.296875l0.84375 -0.46875zm-2.15625 0.046875q0.796875 1.3125 0.9375 2.53125l-1.171875 0.28125q-0.1875 -1.265625 -0.703125 -2.484375l0.9375 -0.328125zm-6.1875 2.296875q0.84375 -0.84375 1.359375 -2.25l0.984375 0.375q-0.328125 1.40625 -1.3125 2.484375l-1.03125 -0.609375zm4.078125 -2.015625q0.375 0.890625 0.28125 2.484375l-1.125 0.046875q0.046875 -1.59375 -0.140625 -2.484375l0.984375 -0.046875zm3.65625 -1.78125l0 -1.8281212l-5.25 0l0 1.8281212l5.25 0zm-2.484375 -6.187496q0.375 0.046875 0.046875 0.28125l0 1.03125l3.9375 0l0 0.890625l-3.9375 0l0 1.265625l3.515625 0l0 3.8906212l-1.078125 0l0 -0.28125l-5.25 0l0 0.375l-1.078125 0l0 -3.9843712l2.8125 0l0 -3.46875l1.03125 0z" fill-rule="nonzero"/></g></svg>