<svg version="1.1" viewBox="0.0 0.0 635.6220472440945 150.9028871391076" fill="none" stroke="none" stroke-linecap="square" stroke-miterlimit="10" xmlns:xlink="http://www.w3.org/1999/xlink" xmlns="http://www.w3.org/2000/svg"><clipPath id="p.0"><path d="m0 0l635.6221 0l0 150.9029l-635.6221 0l0 -150.9029z" clip-rule="nonzero"/></clipPath><g clip-path="url(#p.0)"><path fill="#000000" fill-opacity="0.0" d="m0 0l635.6221 0l0 150.9029l-635.6221 0z" fill-rule="evenodd"/><path fill="#000000" fill-opacity="0.0" d="m292.47696 51.157482l98.897644 0l0 36.85039l-98.897644 0z" fill-rule="evenodd"/><path stroke="#000000" stroke-width="1.0" stroke-linejoin="round" stroke-linecap="butt" d="m292.47696 51.157482l98.897644 0l0 36.85039l-98.897644 0z" fill-rule="evenodd"/><path fill="#000000" d="m303.96027 76.31643l2.703125 0.328125q0.078125 0.46875 0.3125 0.65625q0.34375 0.25 1.078125 0.25q0.921875 0 1.390625 -0.28125q0.3125 -0.1875 0.46875 -0.59375q0.109375 -0.296875 0.109375 -1.09375l0 -1.3125q-1.0625 1.453125 -2.6875 1.453125q-1.8125 0 -2.859375 -1.53125q-0.84375 -1.203125 -0.84375 -3.015625q0 -2.25 1.09375 -3.4375q1.09375 -1.203125 2.703125 -1.203125q1.671875 0 2.75 1.46875l0 -1.265625l2.21875 0l0 8.0625q0 1.59375 -0.265625 2.375q-0.25 0.78125 -0.734375 1.234375q-0.46875 0.453125 -1.265625 0.703125q-0.78125 0.25 -1.984375 0.25q-2.296875 0 -3.25 -0.78125q-0.953125 -0.78125 -0.953125 -1.984375q0 -0.109375 0.015625 -0.28125zm2.109375 -5.265625q0 1.421875 0.546875 2.09375q0.5625 0.65625 1.375 0.65625q0.875 0 1.46875 -0.671875q0.609375 -0.6875 0.609375 -2.03125q0 -1.390625 -0.578125 -2.0625q-0.578125 -0.6875 -1.453125 -0.6875q-0.859375 0 -1.421875 0.671875q-0.546875 0.65625 -0.546875 2.03125zm8.131592 0.046875q0 -1.171875 0.578125 -2.28125q0.59375 -1.109375 1.65625 -1.6875q1.078125 -0.59375 2.40625 -0.59375q2.03125 0 3.328125 1.328125q1.3125 1.3125 1.3125 3.34375q0 2.03125 -1.328125 3.375q-1.3125 1.34375 -3.296875 1.34375q-1.234375 0 -2.359375 -0.546875q-1.125 -0.5625 -1.71875 -1.640625q-0.578125 -1.09375 -0.578125 -2.640625zm2.4375 0.125q0 1.34375 0.640625 2.0625q0.640625 0.703125 1.5625 0.703125q0.9375 0 1.5625 -0.703125q0.625 -0.71875 0.625 -2.078125q0 -1.3125 -0.625 -2.015625q-0.625 -0.71875 -1.5625 -0.71875q-0.921875 0 -1.5625 0.71875q-0.640625 0.703125 -0.640625 2.03125zm8.709717 4.5l0 -12.40625l2.375 0l0 12.40625l-2.375 0zm13.048676 0l-2.203125 0l0 -1.3125q-0.5625 0.765625 -1.3125 1.140625q-0.734375 0.375 -1.5 0.375q-1.546875 0 -2.65625 -1.25q-1.109375 -1.25 -1.109375 -3.484375q0 -2.28125 1.078125 -3.46875q1.078125 -1.1875 2.71875 -1.1875q1.5 0 2.609375 1.25l0 -4.46875l2.375 0l0 12.40625zm-6.34375 -4.6875q0 1.4375 0.390625 2.078125q0.578125 0.9375 1.609375 0.9375q0.828125 0 1.390625 -0.703125q0.578125 -0.703125 0.578125 -2.078125q0 -1.546875 -0.5625 -2.234375q-0.546875 -0.6875 -1.421875 -0.6875q-0.84375 0 -1.421875 0.671875q-0.5625 0.671875 -0.5625 2.015625zm8.506592 -4.296875l2.1875 0l0 1.21875q1.1875 -1.421875 2.8125 -1.421875q0.859375 0 1.484375 0.359375q0.640625 0.34375 1.046875 1.0625q0.59375 -0.71875 1.28125 -1.0625q0.6875 -0.359375 1.46875 -0.359375q0.984375 0 1.671875 0.40625q0.6875 0.390625 1.015625 1.171875q0.25 0.578125 0.25 1.859375l0 5.75l-2.375 0l0 -5.140625q0 -1.328125 -0.25 -1.71875q-0.328125 -0.515625 -1.015625 -0.515625q-0.5 0 -0.9375 0.3125q-0.4375 0.296875 -0.640625 0.890625q-0.1875 0.59375 -0.1875 1.859375l0 4.3125l-2.375 0l0 -4.921875q0 -1.3125 -0.125 -1.6875q-0.125 -0.390625 -0.390625 -0.578125q-0.265625 -0.1875 -0.734375 -0.1875q-0.546875 0 -0.984375 0.296875q-0.4375 0.296875 -0.640625 0.859375q-0.1875 0.5625 -0.1875 1.859375l0 4.359375l-2.375 0l0 -8.984375zm17.360626 2.734375l-2.15625 -0.390625q0.375 -1.296875 1.25 -1.921875q0.890625 -0.625 2.640625 -0.625q1.59375 0 2.375 0.375q0.78125 0.375 1.09375 0.953125q0.3125 0.578125 0.3125 2.125l-0.015625 2.78125q0 1.1875 0.109375 1.75q0.109375 0.5625 0.421875 1.203125l-2.34375 0q-0.09375 -0.234375 -0.234375 -0.703125q-0.0625 -0.203125 -0.078125 -0.28125q-0.609375 0.59375 -1.3125 0.890625q-0.6875 0.296875 -1.46875 0.296875q-1.390625 0 -2.1875 -0.75q-0.796875 -0.75 -0.796875 -1.90625q0 -0.765625 0.359375 -1.359375q0.359375 -0.59375 1.015625 -0.90625q0.65625 -0.328125 1.890625 -0.5625q1.671875 -0.3125 2.3125 -0.578125l0 -0.234375q0 -0.6875 -0.34375 -0.984375q-0.328125 -0.296875 -1.28125 -0.296875q-0.625 0 -0.984375 0.25q-0.359375 0.25 -0.578125 0.875zm3.1875 1.9375q-0.453125 0.15625 -1.453125 0.375q-0.984375 0.203125 -1.296875 0.40625q-0.453125 0.328125 -0.453125 0.828125q0 0.5 0.359375 0.875q0.375 0.359375 0.953125 0.359375q0.640625 0 1.234375 -0.421875q0.421875 -0.328125 0.5625 -0.796875q0.09375 -0.296875 0.09375 -1.15625l0 -0.46875zm6.949585 4.3125l-2.375 0l0 -8.984375l2.203125 0l0 1.28125q0.578125 -0.90625 1.03125 -1.1875q0.453125 -0.296875 1.015625 -0.296875q0.8125 0 1.578125 0.453125l-0.734375 2.0625q-0.609375 -0.390625 -1.125 -0.390625q-0.5 0 -0.84375 0.28125q-0.34375 0.28125 -0.546875 1.0q-0.203125 0.71875 -0.203125 3.0l0 2.78125zm4.384033 0l0 -12.40625l2.375 0l0 6.578125l2.796875 -3.15625l2.921875 0l-3.078125 3.28125l3.296875 5.703125l-2.5625 0l-2.265625 -4.03125l-1.109375 1.15625l0 2.875l-2.375 0z" fill-rule="nonzero"/><path fill="#000000" fill-opacity="0.0" d="m455.2861 13.850393l155.49606 0l0 111.46457l-155.49606 0z" fill-rule="evenodd"/><path stroke="#000000" stroke-width="1.0" stroke-linejoin="round" stroke-linecap="butt" stroke-dasharray="1.0,3.0" d="m455.2861 13.850393l155.49606 0l0 111.46457l-155.49606 0z" fill-rule="evenodd"/><path fill="#2b2b2b" d="m9.645669 6.2755904l225.6063 0l0 126.61418l-225.6063 0z" fill-rule="evenodd"/><path fill="#2b2b2b" d="m18.64567 31.18268l201.63281 0l0 19.199999l-201.63281 0l0 -19.199999z" fill-rule="nonzero"/><path fill="#000000" fill-opacity="0.0" d="m18.64567 33.222366l105.61719 0l0 18.125l-105.61719 0l0 -18.125z" fill-rule="nonzero"/><path fill="#6a8759" d="m25.411295 43.964554l-3.890625 0l-0.390625 0.96875l0.390625 0q0.578125 0 0.8125 0.234375q0.25 0.21875 0.25 0.578125q0 0.34375 -0.25 0.578125q-0.234375 0.21875 -0.8125 0.21875l-2.15625 0q-0.578125 0 -0.828125 -0.21875q-0.25 -0.234375 -0.25 -0.59375q0 -0.359375 0.265625 -0.578125q0.25 -0.234375 0.84375 -0.21875l2.515625 -6.265625l-1.046875 0q-0.578125 0 -0.828125 -0.21875q-0.234375 -0.21875 -0.234375 -0.578125q0 -0.359375 0.234375 -0.578125q0.25 -0.234375 0.828125 -0.234375l3.46875 0.015625l3.1875 7.859375q0.5625 0 0.734375 0.125q0.359375 0.265625 0.359375 0.6875q0 0.34375 -0.25 0.578125q-0.234375 0.21875 -0.8125 0.21875l-2.15625 0q-0.578125 0 -0.828125 -0.21875q-0.234375 -0.234375 -0.234375 -0.59375q0 -0.34375 0.234375 -0.5625q0.25 -0.234375 0.828125 -0.234375l0.390625 0l-0.375 -0.96875zm-0.671875 -1.609375l-1.28125 -3.171875l-1.296875 3.171875l2.578125 0zm15.921873 3.296875l0 2.640625l0.96875 0q0.578125 0 0.8125 0.21875q0.25 0.21875 0.25 0.578125q0 0.359375 -0.25 0.578125q-0.234375 0.21875 -0.8125 0.21875l-2.84375 0q-0.578125 0 -0.828125 -0.21875q-0.25 -0.21875 -0.25 -0.578125q0 -0.359375 0.25 -0.578125q0.265625 -0.21875 0.828125 -0.21875l0.28125 0l0 -7.25l-0.28125 0q-0.578125 0 -0.828125 -0.21875q-0.25 -0.21875 -0.25 -0.578125q0 -0.359375 0.25 -0.578125q0.25 -0.21875 0.828125 -0.21875l1.875 0l0 0.546875q0.5625 -0.390625 1.15625 -0.578125q0.609375 -0.1875 1.25 -0.1875q1.640625 0 2.796875 1.125q1.15625 1.109375 1.15625 2.546875q0 1.578125 -1.375 2.609375q-1.140625 0.859375 -2.5625 0.859375q-0.625 0 -1.234375 -0.171875q-0.59375 -0.1875 -1.1875 -0.546875zm4.75 -2.75q0 -0.328125 -0.265625 -0.84375q-0.265625 -0.53125 -0.8125 -0.875q-0.546875 -0.34375 -1.296875 -0.34375q-1.1875 0 -1.890625 0.890625q-0.484375 0.625 -0.484375 1.1875q0 0.640625 0.6875 1.25q0.6875 0.609375 1.6875 0.609375q1.015625 0 1.6875 -0.59375q0.6875 -0.609375 0.6875 -1.28125zm8.2890625 3.640625l0 -0.375q-0.609375 0.3125 -1.34375 0.46875q-0.71875 0.171875 -1.3125 0.171875q-1.28125 0 -2.09375 -0.6875q-0.796875 -0.6875 -0.796875 -1.515625q0 -1.0 1.015625 -1.859375q1.03125 -0.875 2.84375 -0.875q0.734375 0 1.6875 0.15625l0 -0.375q0 -0.359375 -0.3125 -0.578125q-0.3125 -0.234375 -1.171875 -0.234375q-0.71875 0 -1.84375 0.28125q-0.421875 0.09375 -0.65625 0.09375q-0.328125 0 -0.546875 -0.21875q-0.21875 -0.234375 -0.21875 -0.59375q0 -0.203125 0.078125 -0.34375q0.078125 -0.15625 0.21875 -0.25q0.140625 -0.09375 0.578125 -0.21875q0.59375 -0.15625 1.203125 -0.25q0.625 -0.109375 1.125 -0.109375q1.5 0 2.3125 0.65625q0.828125 0.640625 0.828125 1.75l0 3.296875l0.28125 0q0.578125 0 0.8125 0.234375q0.25 0.21875 0.25 0.578125q0 0.34375 -0.25 0.578125q-0.234375 0.21875 -0.8125 0.21875l-1.875 0zm0 -2.875q-0.96875 -0.1875 -1.78125 -0.1875q-0.96875 0 -1.671875 0.484375q-0.4375 0.296875 -0.4375 0.609375q0 0.234375 0.203125 0.375q0.390625 0.25 1.078125 0.25q0.578125 0 1.296875 -0.21875q0.734375 -0.234375 1.3125 -0.625l0 -0.6875zm7.8203125 -4.21875l0 1.0q1.015625 -0.734375 1.59375 -0.96875q0.578125 -0.25 1.09375 -0.25q0.78125 0 1.515625 0.578125q0.5 0.390625 0.5 0.796875q0 0.34375 -0.25 0.59375q-0.234375 0.234375 -0.5625 0.234375q-0.296875 0 -0.625 -0.296875q-0.328125 -0.296875 -0.59375 -0.296875q-0.328125 0 -1.0 0.421875q-0.671875 0.421875 -1.671875 1.265625l0 2.40625l2.28125 0q0.578125 0 0.828125 0.234375q0.25 0.21875 0.25 0.578125q0 0.34375 -0.25 0.578125q-0.25 0.21875 -0.828125 0.21875l-4.828125 0q-0.578125 0 -0.828125 -0.21875q-0.25 -0.234375 -0.25 -0.59375q0 -0.34375 0.25 -0.5625q0.25 -0.234375 0.828125 -0.234375l0.953125 0l0 -3.890625l-0.578125 0q-0.578125 0 -0.828125 -0.21875q-0.25 -0.21875 -0.25 -0.578125q0 -0.359375 0.25 -0.578125q0.25 -0.21875 0.828125 -0.21875l2.171875 0zm11.3828125 7.09375l0 -0.375q-0.609375 0.3125 -1.34375 0.46875q-0.71875 0.171875 -1.3125 0.171875q-1.28125 0 -2.09375 -0.6875q-0.796875 -0.6875 -0.796875 -1.515625q0 -1.0 1.015625 -1.859375q1.03125 -0.875 2.84375 -0.875q0.734375 0 1.6875 0.15625l0 -0.375q0 -0.359375 -0.3125 -0.578125q-0.3125 -0.234375 -1.171875 -0.234375q-0.71875 0 -1.84375 0.28125q-0.421875 0.09375 -0.65625 0.09375q-0.328125 0 -0.546875 -0.21875q-0.21875 -0.234375 -0.21875 -0.59375q0 -0.203125 0.078125 -0.34375q0.078125 -0.15625 0.21875 -0.25q0.140625 -0.09375 0.578125 -0.21875q0.59375 -0.15625 1.203125 -0.25q0.625 -0.109375 1.125 -0.109375q1.5 0 2.3125 0.65625q0.828125 0.640625 0.828125 1.75l0 3.296875l0.28125 0q0.578125 0 0.8125 0.234375q0.25 0.21875 0.25 0.578125q0 0.34375 -0.25 0.578125q-0.234375 0.21875 -0.8125 0.21875l-1.875 0zm0 -2.875q-0.96875 -0.1875 -1.78125 -0.1875q-0.96875 0 -1.671875 0.484375q-0.4375 0.296875 -0.4375 0.609375q0 0.234375 0.203125 0.375q0.390625 0.25 1.078125 0.25q0.578125 0 1.296875 -0.21875q0.734375 -0.234375 1.3125 -0.625l0 -0.6875zm9.9140625 -3.75l0 -0.46875l1.875 0q0.578125 0 0.828125 0.21875q0.25 0.21875 0.25 0.578125q0 0.359375 -0.25 0.578125q-0.25 0.21875 -0.828125 0.21875l-0.265625 0l0 5.84375q0 0.84375 -0.359375 1.46875q-0.359375 0.625 -1.09375 1.078125q-0.734375 0.453125 -1.65625 0.453125l-1.8125 0q-0.578125 0 -0.828125 -0.21875q-0.234375 -0.21875 -0.234375 -0.578125q0 -0.359375 0.234375 -0.578125q0.25 -0.21875 0.828125 -0.21875l1.765625 0q0.734375 0 1.140625 -0.40625q0.40625 -0.390625 0.40625 -1.0l0 -0.796875q-0.53125 0.34375 -1.078125 0.515625q-0.546875 0.1875 -1.125 0.1875q-1.640625 0 -2.75 -1.09375q-1.09375 -1.09375 -1.09375 -2.703125q0 -1.609375 1.09375 -2.6875q1.109375 -1.09375 2.75 -1.09375q0.609375 0 1.15625 0.171875q0.546875 0.171875 1.046875 0.53125zm0 3.078125q0 -0.890625 -0.65625 -1.53125q-0.65625 -0.65625 -1.5625 -0.65625q-0.921875 0 -1.578125 0.65625q-0.640625 0.640625 -0.640625 1.53125q0 0.890625 0.640625 1.53125q0.65625 0.640625 1.578125 0.640625q0.90625 0 1.5625 -0.640625q0.65625 -0.640625 0.65625 -1.53125zm7.5078125 -3.546875l0 1.0q1.015625 -0.734375 1.59375 -0.96875q0.578125 -0.25 1.09375 -0.25q0.78125 0 1.515625 0.578125q0.5 0.390625 0.5 0.796875q0 0.34375 -0.25 0.59375q-0.234375 0.234375 -0.5625 0.234375q-0.296875 0 -0.625 -0.296875q-0.328125 -0.296875 -0.59375 -0.296875q-0.328125 0 -1.0 0.421875q-0.671875 0.421875 -1.671875 1.265625l0 2.40625l2.28125 0q0.578125 0 0.828125 0.234375q0.25 0.21875 0.25 0.578125q0 0.34375 -0.25 0.578125q-0.25 0.21875 -0.828125 0.21875l-4.828125 0q-0.578125 0 -0.828125 -0.21875q-0.25 -0.234375 -0.25 -0.59375q0 -0.34375 0.25 -0.5625q0.25 -0.234375 0.828125 -0.234375l0.953125 0l0 -3.890625l-0.578125 0q-0.578125 0 -0.828125 -0.21875q-0.25 -0.21875 -0.25 -0.578125q0 -0.359375 0.25 -0.578125q0.25 -0.21875 0.828125 -0.21875l2.171875 0zm11.3828125 7.09375l0 -0.375q-0.609375 0.3125 -1.34375 0.46875q-0.71875 0.171875 -1.3125 0.171875q-1.28125 0 -2.09375 -0.6875q-0.796875 -0.6875 -0.796875 -1.515625q0 -1.0 1.015625 -1.859375q1.03125 -0.875 2.84375 -0.875q0.734375 0 1.6875 0.15625l0 -0.375q0 -0.359375 -0.3125 -0.578125q-0.3125 -0.234375 -1.171875 -0.234375q-0.71875 0 -1.84375 0.28125q-0.421875 0.09375 -0.65625 0.09375q-0.328125 0 -0.546875 -0.21875q-0.21875 -0.234375 -0.21875 -0.59375q0 -0.203125 0.078125 -0.34375q0.078125 -0.15625 0.21875 -0.25q0.140625 -0.09375 0.578125 -0.21875q0.59375 -0.15625 1.203125 -0.25q0.625 -0.109375 1.125 -0.109375q1.5 0 2.3125 0.65625q0.828125 0.640625 0.828125 1.75l0 3.296875l0.28125 0q0.578125 0 0.8125 0.234375q0.25 0.21875 0.25 0.578125q0 0.34375 -0.25 0.578125q-0.234375 0.21875 -0.8125 0.21875l-1.875 0zm0 -2.875q-0.96875 -0.1875 -1.78125 -0.1875q-0.96875 0 -1.671875 0.484375q-0.4375 0.296875 -0.4375 0.609375q0 0.234375 0.203125 0.375q0.390625 0.25 1.078125 0.25q0.578125 0 1.296875 -0.21875q0.734375 -0.234375 1.3125 -0.625l0 -0.6875zm6.1640625 1.984375l0 2.640625l0.96875 0q0.578125 0 0.8125 0.21875q0.25 0.21875 0.25 0.578125q0 0.359375 -0.25 0.578125q-0.234375 0.21875 -0.8125 0.21875l-2.84375 0q-0.578125 0 -0.828125 -0.21875q-0.25 -0.21875 -0.25 -0.578125q0 -0.359375 0.25 -0.578125q0.265625 -0.21875 0.828125 -0.21875l0.28125 0l0 -7.25l-0.28125 0q-0.578125 0 -0.828125 -0.21875q-0.25 -0.21875 -0.25 -0.578125q0 -0.359375 0.25 -0.578125q0.25 -0.21875 0.828125 -0.21875l1.875 0l0 0.546875q0.5625 -0.390625 1.15625 -0.578125q0.609375 -0.1875 1.25 -0.1875q1.640625 0 2.796875 1.125q1.15625 1.109375 1.15625 2.546875q0 1.578125 -1.375 2.609375q-1.140625 0.859375 -2.5625 0.859375q-0.625 0 -1.234375 -0.171875q-0.59375 -0.1875 -1.1875 -0.546875zm4.75 -2.75q0 -0.328125 -0.265625 -0.84375q-0.265625 -0.53125 -0.8125 -0.875q-0.546875 -0.34375 -1.296875 -0.34375q-1.1875 0 -1.890625 0.890625q-0.484375 0.625 -0.484375 1.1875q0 0.640625 0.6875 1.25q0.6875 0.609375 1.6875 0.609375q1.015625 0 1.6875 -0.59375q0.6875 -0.609375 0.6875 -1.28125zm5.1953125 -6.5l0 3.421875q0.5 -0.296875 1.0 -0.4375q0.515625 -0.15625 1.046875 -0.15625q0.828125 0 1.46875 0.28125q0.65625 0.28125 1.078125 0.890625q0.421875 0.609375 0.421875 1.53125l0 3.0q0.609375 0 0.796875 0.125q0.375 0.234375 0.375 0.6875q0 0.34375 -0.25 0.578125q-0.234375 0.21875 -0.8125 0.21875l-1.828125 0q-0.5625 0 -0.8125 -0.21875q-0.25 -0.234375 -0.25 -0.59375q0 -0.4375 0.375 -0.671875q0.203125 -0.125 0.796875 -0.125l0 -2.890625q0 -0.625 -0.28125 -0.875q-0.359375 -0.328125 -1.078125 -0.328125q-0.53125 0 -0.953125 0.203125q-0.40625 0.203125 -1.09375 0.890625l0 3.0q0.609375 0 0.796875 0.125q0.375 0.234375 0.375 0.6875q0 0.34375 -0.25 0.578125q-0.234375 0.21875 -0.8125 0.21875l-1.828125 0q-0.578125 0 -0.828125 -0.21875q-0.234375 -0.234375 -0.234375 -0.59375q0 -0.4375 0.375 -0.671875q0.1875 -0.125 0.796875 -0.125l0 -6.921875l-0.265625 0q-0.578125 0 -0.828125 -0.21875q-0.25 -0.234375 -0.25 -0.59375q0 -0.34375 0.25 -0.5625q0.25 -0.234375 0.828125 -0.234375l1.875 0z" fill-rule="nonzero"/><path fill="#010000" fill-opacity="0.0" d="m124.262856 33.222366l19.203133 0l0 18.125l-19.203133 0l0 -18.125z" fill-rule="nonzero"/><path fill="#cc7832" d="m127.231606 35.94893l5.1406326 11.015625q0.046875 0.09375 0.140625 0.40625q0.046875 0.171875 0.046875 0.265625q0 0.28125 -0.234375 0.484375q-0.21875 0.21875 -0.546875 0.21875q-0.296875 0 -0.484375 -0.140625q-0.171875 -0.140625 -0.375 -0.546875l-5.1250076 -11.03125q-0.203125 -0.40625 -0.203125 -0.609375q0 -0.296875 0.234375 -0.53125q0.25 -0.234375 0.5625 -0.234375q0.296875 0 0.46875 0.140625q0.1875 0.140625 0.375 0.5625zm9.82032 3.5l0 0.53125q0.4375 -0.375 0.953125 -0.5625q0.53125 -0.1875 1.15625 -0.1875q1.421875 0 2.25 0.890625q0.65625 0.703125 0.65625 1.84375l0 2.96875q0.5 0 0.734375 0.234375q0.25 0.21875 0.25 0.578125q0 0.34375 -0.25 0.578125q-0.234375 0.21875 -0.8125 0.21875l-1.453125 0q-0.578125 0 -0.828125 -0.21875q-0.234375 -0.234375 -0.234375 -0.59375q0 -0.34375 0.234375 -0.5625q0.25 -0.234375 0.75 -0.234375l0 -3.015625q0 -0.53125 -0.28125 -0.765625q-0.359375 -0.3125 -1.09375 -0.3125q-0.5625 0 -0.984375 0.21875q-0.40625 0.203125 -1.046875 0.90625l0 2.96875q0.609375 0 0.796875 0.125q0.375 0.234375 0.375 0.6875q0 0.34375 -0.25 0.578125q-0.234375 0.21875 -0.8125 0.21875l-1.828125 0q-0.578125 0 -0.828125 -0.21875q-0.234375 -0.234375 -0.234375 -0.59375q0 -0.4375 0.375 -0.671875q0.1875 -0.125 0.796875 -0.125l0 -3.890625q-0.5 0 -0.75 -0.21875q-0.234375 -0.234375 -0.234375 -0.578125q0 -0.359375 0.234375 -0.578125q0.25 -0.21875 0.828125 -0.21875l1.53125 0z" fill-rule="nonzero"/><path fill="#000000" fill-opacity="0.0" d="m143.46599 33.222366l76.8125 0l0 18.125l-76.8125 0l0 -18.125z" fill-rule="nonzero"/><path fill="#6a8759" d="m148.27849 43.589554l-1.109375 2.953125l-1.5 0l-1.34375 -5.5q-0.4375 -0.015625 -0.671875 -0.234375q-0.21875 -0.234375 -0.21875 -0.5625q0 -0.359375 0.25 -0.578125q0.25 -0.21875 0.828125 -0.21875l1.484375 0q0.578125 0 0.828125 0.21875q0.25 0.21875 0.25 0.578125q0 0.359375 -0.28125 0.609375q-0.21875 0.1875 -0.828125 0.1875l0.609375 2.546875l0.984375 -2.609375l1.421875 0l1.0 2.609375l0.625 -2.546875q-0.59375 0 -0.78125 -0.109375q-0.375 -0.25 -0.375 -0.6875q0 -0.359375 0.25 -0.578125q0.25 -0.21875 0.828125 -0.21875l1.5 0q0.578125 0 0.828125 0.21875q0.25 0.21875 0.25 0.578125q0 0.328125 -0.21875 0.546875q-0.21875 0.21875 -0.640625 0.25l-1.3125 5.5l-1.484375 0l-1.171875 -2.953125zm10.1640625 -7.1875l0 1.703125l-1.90625 0l0 -1.703125l1.90625 0zm0.21875 3.046875l0 5.484375l1.921875 0q0.578125 0 0.828125 0.234375q0.25 0.21875 0.25 0.578125q0 0.34375 -0.25 0.578125q-0.25 0.21875 -0.828125 0.21875l-5.4375 0q-0.578125 0 -0.828125 -0.21875q-0.25 -0.234375 -0.25 -0.59375q0 -0.34375 0.25 -0.5625q0.25 -0.234375 0.828125 -0.234375l1.921875 0l0 -3.890625l-1.296875 0q-0.5625 0 -0.8125 -0.21875q-0.25 -0.21875 -0.25 -0.578125q0 -0.359375 0.234375 -0.578125q0.25 -0.21875 0.828125 -0.21875l2.890625 0zm8.4140625 1.59375l0 3.21875q0 0.515625 0.21875 0.671875q0.328125 0.265625 1.171875 0.265625q1.21875 0 2.265625 -0.53125q0.390625 -0.203125 0.625 -0.203125q0.3125 0 0.53125 0.234375q0.234375 0.234375 0.234375 0.578125q0 0.3125 -0.25 0.53125q-0.375 0.375 -1.515625 0.6875q-1.125 0.3125 -1.890625 0.3125q-1.5 0 -2.25 -0.640625q-0.734375 -0.65625 -0.734375 -1.59375l0 -3.53125l-0.578125 0q-0.578125 0 -0.828125 -0.21875q-0.25 -0.21875 -0.25 -0.578125q0 -0.359375 0.25 -0.578125q0.25 -0.21875 0.828125 -0.21875l0.578125 0l0 -1.453125q0 -0.578125 0.21875 -0.8125q0.21875 -0.25 0.578125 -0.25q0.359375 0 0.578125 0.25q0.21875 0.234375 0.21875 0.8125l0 1.453125l2.96875 0q0.578125 0 0.8125 0.21875q0.25 0.21875 0.25 0.578125q0 0.359375 -0.25 0.578125q-0.234375 0.21875 -0.8125 0.21875l-2.96875 0zm8.3515625 -4.640625l0 3.421875q0.5 -0.296875 1.0 -0.4375q0.515625 -0.15625 1.046875 -0.15625q0.828125 0 1.46875 0.28125q0.65625 0.28125 1.078125 0.890625q0.421875 0.609375 0.421875 1.53125l0 3.0q0.609375 0 0.796875 0.125q0.375 0.234375 0.375 0.6875q0 0.34375 -0.25 0.578125q-0.234375 0.21875 -0.8125 0.21875l-1.828125 0q-0.5625 0 -0.8125 -0.21875q-0.25 -0.234375 -0.25 -0.59375q0 -0.4375 0.375 -0.671875q0.203125 -0.125 0.796875 -0.125l0 -2.890625q0 -0.625 -0.28125 -0.875q-0.359375 -0.328125 -1.078125 -0.328125q-0.53125 0 -0.953125 0.203125q-0.40625 0.203125 -1.09375 0.890625l0 3.0q0.609375 0 0.796875 0.125q0.375 0.234375 0.375 0.6875q0 0.34375 -0.25 0.578125q-0.234375 0.21875 -0.8125 0.21875l-1.828125 0q-0.578125 0 -0.828125 -0.21875q-0.234375 -0.234375 -0.234375 -0.59375q0 -0.4375 0.375 -0.671875q0.1875 -0.125 0.796875 -0.125l0 -6.921875l-0.265625 0q-0.578125 0 -0.828125 -0.21875q-0.25 -0.234375 -0.25 -0.59375q0 -0.34375 0.25 -0.5625q0.25 -0.234375 0.828125 -0.234375l1.875 0zm20.453125 4.640625l0 3.21875q0 0.515625 0.21875 0.671875q0.328125 0.265625 1.171875 0.265625q1.21875 0 2.265625 -0.53125q0.390625 -0.203125 0.625 -0.203125q0.3125 0 0.53125 0.234375q0.234375 0.234375 0.234375 0.578125q0 0.3125 -0.25 0.53125q-0.375 0.375 -1.515625 0.6875q-1.125 0.3125 -1.890625 0.3125q-1.5 0 -2.25 -0.640625q-0.734375 -0.65625 -0.734375 -1.59375l0 -3.53125l-0.578125 0q-0.578125 0 -0.828125 -0.21875q-0.25 -0.21875 -0.25 -0.578125q0 -0.359375 0.25 -0.578125q0.25 -0.21875 0.828125 -0.21875l0.578125 0l0 -1.453125q0 -0.578125 0.21875 -0.8125q0.21875 -0.25 0.578125 -0.25q0.359375 0 0.578125 0.25q0.21875 0.234375 0.21875 0.8125l0 1.453125l2.96875 0q0.578125 0 0.8125 0.21875q0.25 0.21875 0.25 0.578125q0 0.359375 -0.25 0.578125q-0.234375 0.21875 -0.8125 0.21875l-2.96875 0zm10.0078125 2.546875l-1.109375 2.953125l-1.5 0l-1.34375 -5.5q-0.4375 -0.015625 -0.671875 -0.234375q-0.21875 -0.234375 -0.21875 -0.5625q0 -0.359375 0.25 -0.578125q0.25 -0.21875 0.828125 -0.21875l1.484375 0q0.578125 0 0.828125 0.21875q0.25 0.21875 0.25 0.578125q0 0.359375 -0.28125 0.609375q-0.21875 0.1875 -0.828125 0.1875l0.609375 2.546875l0.984375 -2.609375l1.421875 0l1.0 2.609375l0.625 -2.546875q-0.59375 0 -0.78125 -0.109375q-0.375 -0.25 -0.375 -0.6875q0 -0.359375 0.25 -0.578125q0.25 -0.21875 0.828125 -0.21875l1.5 0q0.578125 0 0.828125 0.21875q0.25 0.21875 0.25 0.578125q0 0.328125 -0.21875 0.546875q-0.21875 0.21875 -0.640625 0.25l-1.3125 5.5l-1.484375 0l-1.171875 -2.953125zm13.7578125 -0.46875q0 0.921875 -0.515625 1.796875q-0.515625 0.859375 -1.53125 1.375q-1.0 0.515625 -2.109375 0.515625q-1.09375 0 -2.09375 -0.5q-1.0 -0.515625 -1.53125 -1.375q-0.515625 -0.875 -0.515625 -1.828125q0 -0.953125 0.53125 -1.875q0.53125 -0.9375 1.53125 -1.46875q1.0 -0.53125 2.078125 -0.53125q1.09375 0 2.109375 0.546875q1.015625 0.546875 1.53125 1.46875q0.515625 0.90625 0.515625 1.875zm-1.609375 0.015625q0 -0.78125 -0.546875 -1.421875q-0.765625 -0.875 -2.0 -0.875q-1.078125 0 -1.8125 0.703125q-0.71875 0.6875 -0.71875 1.59375q0 0.75 0.734375 1.40625q0.734375 0.65625 1.796875 0.65625q1.078125 0 1.8125 -0.65625q0.734375 -0.65625 0.734375 -1.40625z" fill-rule="nonzero"/><path fill="#000000" fill-opacity="0.0" d="m220.27849 33.222366l9.6015625 0l0 18.125l-9.6015625 0l0 -18.125z" fill-rule="nonzero"/><path fill="#2b2b2b" d="m18.64567 50.382683l201.63281 0l0 19.199997l-201.63281 0l0 -19.199997z" fill-rule="nonzero"/><path fill="#000000" fill-opacity="0.0" d="m18.64567 52.422367l57.609375 0l0 18.124996l-57.609375 0l0 -18.124996z" fill-rule="nonzero"/><path fill="#6a8759" d="m24.255045 55.602055l0 8.531254l1.921875 0q0.578125 0 0.8125 0.234375q0.25 0.21875 0.25 0.578125q0 0.34375 -0.25 0.578125q-0.234375 0.21875 -0.8125 0.21875l-5.453125 0q-0.578125 0 -0.828125 -0.21875q-0.234375 -0.234375 -0.234375 -0.59375q0 -0.34375 0.234375 -0.5625q0.25 -0.234375 0.828125 -0.234375l1.921875 0l0 -6.921879l-1.28125 0q-0.578125 0 -0.828125 -0.21875q-0.25 -0.234375 -0.25 -0.59375q0 -0.34375 0.25 -0.5625q0.25 -0.234375 0.828125 -0.234375l2.890625 0zm9.367186 0l0 1.703125l-1.9062481 0l0 -1.703125l1.9062481 0zm0.21875 3.046875l0 5.484379l1.921875 0q0.578125 0 0.828125 0.234375q0.25 0.21875 0.25 0.578125q0 0.34375 -0.25 0.578125q-0.25 0.21875 -0.828125 0.21875l-5.437498 0q-0.578125 0 -0.828125 -0.21875q-0.25 -0.234375 -0.25 -0.59375q0 -0.34375 0.25 -0.5625q0.25 -0.234375 0.828125 -0.234375l1.9218731 0l0 -3.8906288l-1.2968731 0q-0.5625 0 -0.8125 -0.21875q-0.25 -0.21875 -0.25 -0.578125q0 -0.359375 0.234375 -0.578125q0.25 -0.21875 0.828125 -0.21875l2.890623 0zm7.1953125 0l0 0.53125q0.4375 -0.375 0.953125 -0.5625q0.53125 -0.1875 1.15625 -0.1875q1.421875 0 2.25 0.890625q0.65625 0.703125 0.65625 1.84375l0 2.9687538q0.5 0 0.734375 0.234375q0.25 0.21875 0.25 0.578125q0 0.34375 -0.25 0.578125q-0.234375 0.21875 -0.8125 0.21875l-1.453125 0q-0.578125 0 -0.828125 -0.21875q-0.234375 -0.234375 -0.234375 -0.59375q0 -0.34375 0.234375 -0.5625q0.25 -0.234375 0.75 -0.234375l0 -3.0156288q0 -0.53125 -0.28125 -0.765625q-0.359375 -0.3125 -1.09375 -0.3125q-0.5625 0 -0.984375 0.21875q-0.40625 0.203125 -1.046875 0.90625l0 2.9687538q0.609375 0 0.796875 0.125q0.375 0.234375 0.375 0.6875q0 0.34375 -0.25 0.578125q-0.234375 0.21875 -0.8125 0.21875l-1.828125 0q-0.578125 0 -0.828125 -0.21875q-0.234375 -0.234375 -0.234375 -0.59375q0 -0.4375 0.375 -0.671875q0.1875 -0.125 0.796875 -0.125l0 -3.8906288q-0.5 0 -0.75 -0.21875q-0.234375 -0.234375 -0.234375 -0.578125q0 -0.359375 0.234375 -0.578125q0.25 -0.21875 0.828125 -0.21875l1.53125 0zm15.2421875 4.359375l-6.578125 0q0.25 0.625 0.890625 1.0156288q0.640625 0.375 1.71875 0.375q0.890625 0 2.375 -0.390625q0.609375 -0.15625381 0.84375 -0.15625381q0.3125 0 0.53125 0.23437881q0.21875 0.21875 0.21875 0.5625q0 0.3125 -0.234375 0.53125q-0.3125 0.296875 -1.53125 0.5625q-1.203125 0.265625 -2.3125 0.265625q-1.921875 0 -3.078125 -1.09375q-1.15625 -1.0937538 -1.15625 -2.6718788q0 -1.6875 1.25 -2.75q1.25 -1.0625 2.875 -1.0625q0.96875 0 1.78125 0.34375q0.828125 0.34375 1.21875 0.75q0.5625 0.578125 0.9375 1.421875q0.25 0.59375 0.25 1.375l0 0.6875zm-1.78125 -1.609375q-0.359375 -0.6875 -0.953125 -1.015625q-0.59375 -0.34375 -1.421875 -0.34375q-0.8125 0 -1.40625 0.34375q-0.59375 0.328125 -0.96875 1.015625l4.75 0zm9.0859375 -0.875q-0.390625 -0.25 -0.828125 -0.359375q-0.421875 -0.125 -0.890625 -0.125q-0.921875 0 -1.46875 0.296875q-0.25 0.140625 -0.25 0.296875q0 0.171875 0.328125 0.34375q0.25 0.125 1.125 0.25q1.59375 0.21875 2.21875 0.4375q0.8125 0.28125 1.25 0.859375q0.453125 0.5625 0.453125 1.203125q0 0.8593788 -0.75 1.4375038q-1.09375 0.84375 -2.828125 0.84375q-0.6875 0 -1.28125 -0.125q-0.59375 -0.125 -1.078125 -0.359375q-0.125 0.09375 -0.265625 0.15625q-0.125 0.046875 -0.265625 0.046875q-0.375 0 -0.59375 -0.234375q-0.21875 -0.25 -0.21875 -0.828125l0 -0.546875q0 -0.5781288 0.21875 -0.8125038q0.21875 -0.25 0.578125 -0.25q0.296875 0 0.484375 0.15625q0.203125 0.15625 0.3125 0.546875q0.359375 0.3125038 0.875 0.4843788q0.515625 0.15625 1.1875 0.15625q1.109375 0 1.71875 -0.34375q0.28125 -0.17187881 0.28125 -0.3593788q0 -0.3125 -0.40625 -0.515625q-0.421875 -0.203125 -1.71875 -0.34375q-1.921875 -0.203125 -2.578125 -0.78125q-0.640625 -0.578125 -0.640625 -1.40625q0 -0.859375 0.71875 -1.4375q0.984375 -0.78125 2.578125 -0.78125q0.5625 0 1.0625 0.109375q0.515625 0.109375 0.984375 0.328125q0.15625 -0.109375 0.28125 -0.15625q0.125 -0.0625 0.234375 -0.0625q0.328125 0 0.546875 0.25q0.21875 0.234375 0.21875 0.8125l0 0.390625q0 0.53125 -0.125 0.71875q-0.25 0.359375 -0.671875 0.359375q-0.296875 0 -0.515625 -0.171875q-0.21875 -0.1875 -0.28125 -0.484375zm9.1015625 4.406254q0 0.453125 -0.328125 0.765625q-0.3125 0.3125 -0.875 0.3125q-0.5625 0 -0.890625 -0.3125q-0.3125 -0.3125 -0.3125 -0.765625q0 -0.453125 0.3125 -0.75q0.328125 -0.3125038 0.890625 -0.3125038q0.5625 0 0.875 0.3125038q0.328125 0.296875 0.328125 0.75z" fill-rule="nonzero"/><path fill="#010000" fill-opacity="0.0" d="m76.25504 52.422367l38.40625 0l0 18.124996l-38.40625 0l0 -18.124996z" fill-rule="nonzero"/><path fill="#cc7832" d="m79.22379 55.14893l5.140625 11.015629q0.046875 0.09375 0.140625 0.40625q0.046875 0.171875 0.046875 0.265625q0 0.28125 -0.234375 0.484375q-0.21875 0.21875 -0.546875 0.21875q-0.296875 0 -0.484375 -0.140625q-0.171875 -0.140625 -0.375 -0.546875l-5.125 -11.031254q-0.203125 -0.40625 -0.203125 -0.609375q0 -0.296875 0.234375 -0.53125q0.25 -0.234375 0.5625 -0.234375q0.296875 0 0.46875 0.140625q0.1875 0.140625 0.375 0.5625zm9.8203125 3.5l0 0.53125q0.4375 -0.375 0.953125 -0.5625q0.53125 -0.1875 1.15625 -0.1875q1.421875 0 2.25 0.890625q0.65625 0.703125 0.65625 1.84375l0 2.9687538q0.5 0 0.734375 0.234375q0.25 0.21875 0.25 0.578125q0 0.34375 -0.25 0.578125q-0.234375 0.21875 -0.8125 0.21875l-1.453125 0q-0.578125 0 -0.828125 -0.21875q-0.234375 -0.234375 -0.234375 -0.59375q0 -0.34375 0.234375 -0.5625q0.25 -0.234375 0.75 -0.234375l0 -3.0156288q0 -0.53125 -0.28125 -0.765625q-0.359375 -0.3125 -1.09375 -0.3125q-0.5625 0 -0.984375 0.21875q-0.40625 0.203125 -1.046875 0.90625l0 2.9687538q0.609375 0 0.796875 0.125q0.375 0.234375 0.375 0.6875q0 0.34375 -0.25 0.578125q-0.234375 0.21875 -0.8125 0.21875l-1.828125 0q-0.578125 0 -0.828125 -0.21875q-0.234375 -0.234375 -0.234375 -0.59375q0 -0.4375 0.375 -0.671875q0.1875 -0.125 0.796875 -0.125l0 -3.8906288q-0.5 0 -0.75 -0.21875q-0.234375 -0.234375 -0.234375 -0.578125q0 -0.359375 0.234375 -0.578125q0.25 -0.21875 0.828125 -0.21875l1.53125 0zm9.3828125 -3.5l5.140625 11.015629q0.046875 0.09375 0.140625 0.40625q0.046875 0.171875 0.046875 0.265625q0 0.28125 -0.234375 0.484375q-0.21875 0.21875 -0.546875 0.21875q-0.296875 0 -0.484375 -0.140625q-0.171875 -0.140625 -0.375 -0.546875l-5.125 -11.031254q-0.203125 -0.40625 -0.203125 -0.609375q0 -0.296875 0.234375 -0.53125q0.25 -0.234375 0.5625 -0.234375q0.296875 0 0.46875 0.140625q0.1875 0.140625 0.375 0.5625zm9.8203125 3.5l0 0.53125q0.4375 -0.375 0.953125 -0.5625q0.53125 -0.1875 1.15625 -0.1875q1.421875 0 2.25 0.890625q0.65625 0.703125 0.65625 1.84375l0 2.9687538q0.5 0 0.734375 0.234375q0.25 0.21875 0.25 0.578125q0 0.34375 -0.25 0.578125q-0.234375 0.21875 -0.8125 0.21875l-1.453125 0q-0.578125 0 -0.828125 -0.21875q-0.234375 -0.234375 -0.234375 -0.59375q0 -0.34375 0.234375 -0.5625q0.25 -0.234375 0.75 -0.234375l0 -3.0156288q0 -0.53125 -0.28125 -0.765625q-0.359375 -0.3125 -1.09375 -0.3125q-0.5625 0 -0.984375 0.21875q-0.40625 0.203125 -1.046875 0.90625l0 2.9687538q0.609375 0 0.796875 0.125q0.375 0.234375 0.375 0.6875q0 0.34375 -0.25 0.578125q-0.234375 0.21875 -0.8125 0.21875l-1.828125 0q-0.578125 0 -0.828125 -0.21875q-0.234375 -0.234375 -0.234375 -0.59375q0 -0.4375 0.375 -0.671875q0.1875 -0.125 0.796875 -0.125l0 -3.8906288q-0.5 0 -0.75 -0.21875q-0.234375 -0.234375 -0.234375 -0.578125q0 -0.359375 0.234375 -0.578125q0.25 -0.21875 0.828125 -0.21875l1.53125 0z" fill-rule="nonzero"/><path fill="#000000" fill-opacity="0.0" d="m114.66129 52.422367l105.617195 0l0 18.124996l-105.617195 0l0 -18.124996z" fill-rule="nonzero"/><path fill="#6a8759" d="m148.84099 55.602055l0 1.703125l-1.90625 0l0 -1.703125l1.90625 0zm0.21875 3.046875l0 5.484379l1.921875 0q0.578125 0 0.828125 0.234375q0.25 0.21875 0.25 0.578125q0 0.34375 -0.25 0.578125q-0.25 0.21875 -0.828125 0.21875l-5.4375 0q-0.578125 0 -0.828125 -0.21875q-0.25 -0.234375 -0.25 -0.59375q0 -0.34375 0.25 -0.5625q0.25 -0.234375 0.828125 -0.234375l1.921875 0l0 -3.8906288l-1.296875 0q-0.5625 0 -0.8125 -0.21875q-0.25 -0.21875 -0.25 -0.578125q0 -0.359375 0.234375 -0.578125q0.25 -0.21875 0.828125 -0.21875l2.890625 0zm7.1953125 0l0 0.53125q0.4375 -0.375 0.953125 -0.5625q0.53125 -0.1875 1.15625 -0.1875q1.421875 0 2.25 0.890625q0.65625 0.703125 0.65625 1.84375l0 2.9687538q0.5 0 0.734375 0.234375q0.25 0.21875 0.25 0.578125q0 0.34375 -0.25 0.578125q-0.234375 0.21875 -0.8125 0.21875l-1.453125 0q-0.578125 0 -0.828125 -0.21875q-0.234375 -0.234375 -0.234375 -0.59375q0 -0.34375 0.234375 -0.5625q0.25 -0.234375 0.75 -0.234375l0 -3.0156288q0 -0.53125 -0.28125 -0.765625q-0.359375 -0.3125 -1.09375 -0.3125q-0.5625 0 -0.984375 0.21875q-0.40625 0.203125 -1.046875 0.90625l0 2.9687538q0.609375 0 0.796875 0.125q0.375 0.234375 0.375 0.6875q0 0.34375 -0.25 0.578125q-0.234375 0.21875 -0.8125 0.21875l-1.828125 0q-0.578125 0 -0.828125 -0.21875q-0.234375 -0.234375 -0.234375 -0.59375q0 -0.4375 0.375 -0.671875q0.1875 -0.125 0.796875 -0.125l0 -3.8906288q-0.5 0 -0.75 -0.21875q-0.234375 -0.234375 -0.234375 -0.578125q0 -0.359375 0.234375 -0.578125q0.25 -0.21875 0.828125 -0.21875l1.53125 0zm14.8984375 -3.046875l0 8.531254l0.265625 0q0.578125 0 0.828125 0.234375q0.25 0.21875 0.25 0.578125q0 0.34375 -0.25 0.578125q-0.25 0.21875 -0.828125 0.21875l-1.875 0l0 -0.390625q-0.546875 0.3125 -1.140625 0.484375q-0.59375 0.171875 -1.234375 0.171875q-1.8125 0 -2.921875 -1.046875q-1.09375 -1.0468788 -1.09375 -2.6093788q0 -1.625 1.15625 -2.765625q1.15625 -1.15625 2.828125 -1.15625q0.625 0 1.21875 0.203125q0.609375 0.1875 1.1875 0.5625l0 -1.984375l-0.265625 0q-0.578125 0 -0.828125 -0.21875q-0.25 -0.234375 -0.25 -0.578125q0 -0.359375 0.25 -0.578125q0.25 -0.234375 0.828125 -0.234375l1.875 0zm-1.609375 6.796875q0 -0.984375 -0.703125 -1.671875q-0.6875 -0.6875 -1.6875 -0.6875q-1.0 0 -1.703125 0.6875q-0.6875 0.6875 -0.6875 1.65625q0 0.875 0.625 1.453125q0.625 0.5625038 1.765625 0.5625038q1.125 0 1.75 -0.5625038q0.640625 -0.578125 0.640625 -1.4375zm11.5546875 0.609375l-6.578125 0q0.25 0.625 0.890625 1.0156288q0.640625 0.375 1.71875 0.375q0.890625 0 2.375 -0.390625q0.609375 -0.15625381 0.84375 -0.15625381q0.3125 0 0.53125 0.23437881q0.21875 0.21875 0.21875 0.5625q0 0.3125 -0.234375 0.53125q-0.3125 0.296875 -1.53125 0.5625q-1.203125 0.265625 -2.3125 0.265625q-1.921875 0 -3.078125 -1.09375q-1.15625 -1.0937538 -1.15625 -2.6718788q0 -1.6875 1.25 -2.75q1.25 -1.0625 2.875 -1.0625q0.96875 0 1.78125 0.34375q0.828125 0.34375 1.21875 0.75q0.5625 0.578125 0.9375 1.421875q0.25 0.59375 0.25 1.375l0 0.6875zm-1.78125 -1.609375q-0.359375 -0.6875 -0.953125 -1.015625q-0.59375 -0.34375 -1.421875 -0.34375q-0.8125 0 -1.40625 0.34375q-0.59375 0.328125 -0.96875 1.015625l4.75 0zm5.7421875 -2.75l0 0.53125q0.4375 -0.375 0.953125 -0.5625q0.53125 -0.1875 1.15625 -0.1875q1.421875 0 2.25 0.890625q0.65625 0.703125 0.65625 1.84375l0 2.9687538q0.5 0 0.734375 0.234375q0.25 0.21875 0.25 0.578125q0 0.34375 -0.25 0.578125q-0.234375 0.21875 -0.8125 0.21875l-1.453125 0q-0.578125 0 -0.828125 -0.21875q-0.234375 -0.234375 -0.234375 -0.59375q0 -0.34375 0.234375 -0.5625q0.25 -0.234375 0.75 -0.234375l0 -3.0156288q0 -0.53125 -0.28125 -0.765625q-0.359375 -0.3125 -1.09375 -0.3125q-0.5625 0 -0.984375 0.21875q-0.40625 0.203125 -1.046875 0.90625l0 2.9687538q0.609375 0 0.796875 0.125q0.375 0.234375 0.375 0.6875q0 0.34375 -0.25 0.578125q-0.234375 0.21875 -0.8125 0.21875l-1.828125 0q-0.578125 0 -0.828125 -0.21875q-0.234375 -0.234375 -0.234375 -0.59375q0 -0.4375 0.375 -0.671875q0.1875 -0.125 0.796875 -0.125l0 -3.8906288q-0.5 0 -0.75 -0.21875q-0.234375 -0.234375 -0.234375 -0.578125q0 -0.359375 0.234375 -0.578125q0.25 -0.21875 0.828125 -0.21875l1.53125 0zm10.8203125 1.59375l0 3.21875q0 0.515625 0.21875 0.6718788q0.328125 0.265625 1.171875 0.265625q1.21875 0 2.265625 -0.5312538q0.390625 -0.203125 0.625 -0.203125q0.3125 0 0.53125 0.234375q0.234375 0.23437881 0.234375 0.5781288q0 0.3125 -0.25 0.53125q-0.375 0.375 -1.515625 0.6875q-1.125 0.3125 -1.890625 0.3125q-1.5 0 -2.25 -0.640625q-0.734375 -0.65625 -0.734375 -1.5937538l0 -3.53125l-0.578125 0q-0.578125 0 -0.828125 -0.21875q-0.25 -0.21875 -0.25 -0.578125q0 -0.359375 0.25 -0.578125q0.25 -0.21875 0.828125 -0.21875l0.578125 0l0 -1.453125q0 -0.578125 0.21875 -0.8125q0.21875 -0.25 0.578125 -0.25q0.359375 0 0.578125 0.25q0.21875 0.234375 0.21875 0.8125l0 1.453125l2.96875 0q0.578125 0 0.8125 0.21875q0.25 0.21875 0.25 0.578125q0 0.359375 -0.25 0.578125q-0.234375 0.21875 -0.8125 0.21875l-2.96875 0zm14.0234375 2.765625l-6.578125 0q0.25 0.625 0.890625 1.0156288q0.640625 0.375 1.71875 0.375q0.890625 0 2.375 -0.390625q0.609375 -0.15625381 0.84375 -0.15625381q0.3125 0 0.53125 0.23437881q0.21875 0.21875 0.21875 0.5625q0 0.3125 -0.234375 0.53125q-0.3125 0.296875 -1.53125 0.5625q-1.203125 0.265625 -2.3125 0.265625q-1.921875 0 -3.078125 -1.09375q-1.15625 -1.0937538 -1.15625 -2.6718788q0 -1.6875 1.25 -2.75q1.25 -1.0625 2.875 -1.0625q0.96875 0 1.78125 0.34375q0.828125 0.34375 1.21875 0.75q0.5625 0.578125 0.9375 1.421875q0.25 0.59375 0.25 1.375l0 0.6875zm-1.78125 -1.609375q-0.359375 -0.6875 -0.953125 -1.015625q-0.59375 -0.34375 -1.421875 -0.34375q-0.8125 0 -1.40625 0.34375q-0.59375 0.328125 -0.96875 1.015625l4.75 0zm11.0390625 -5.796875l0 8.531254l0.265625 0q0.578125 0 0.828125 0.234375q0.25 0.21875 0.25 0.578125q0 0.34375 -0.25 0.578125q-0.25 0.21875 -0.828125 0.21875l-1.875 0l0 -0.390625q-0.546875 0.3125 -1.140625 0.484375q-0.59375 0.171875 -1.234375 0.171875q-1.8125 0 -2.921875 -1.046875q-1.09375 -1.0468788 -1.09375 -2.6093788q0 -1.625 1.15625 -2.765625q1.15625 -1.15625 2.828125 -1.15625q0.625 0 1.21875 0.203125q0.609375 0.1875 1.1875 0.5625l0 -1.984375l-0.265625 0q-0.578125 0 -0.828125 -0.21875q-0.25 -0.234375 -0.25 -0.578125q0 -0.359375 0.25 -0.578125q0.25 -0.234375 0.828125 -0.234375l1.875 0zm-1.609375 6.796875q0 -0.984375 -0.703125 -1.671875q-0.6875 -0.6875 -1.6875 -0.6875q-1.0 0 -1.703125 0.6875q-0.6875 0.6875 -0.6875 1.65625q0 0.875 0.625 1.453125q0.625 0.5625038 1.765625 0.5625038q1.125 0 1.75 -0.5625038q0.640625 -0.578125 0.640625 -1.4375z" fill-rule="nonzero"/><path fill="#000000" fill-opacity="0.0" d="m220.27849 52.422367l9.6015625 0l0 18.124996l-9.6015625 0l0 -18.124996z" fill-rule="nonzero"/><path fill="#2b2b2b" d="m18.64567 69.58268l163.22656 0l0 19.200005l-163.22656 0l0 -19.200005z" fill-rule="nonzero"/><path fill="#000000" fill-opacity="0.0" d="m18.64567 71.62237l38.40625 0l0 18.125l-38.40625 0l0 -18.125z" fill-rule="nonzero"/><path fill="#6a8759" d="m25.942545 78.13018q0.296875 -0.265625 0.59375 -0.265625q0.34375 0 0.5625 0.25q0.234375 0.234375 0.234375 0.8125l0 1.03125q0 0.578125 -0.234375 0.828125q-0.21875 0.234375 -0.578125 0.234375q-0.328125 0 -0.546875 -0.1875q-0.171875 -0.140625 -0.265625 -0.578125q-0.09375 -0.4375 -0.453125 -0.640625q-0.625 -0.375 -1.609375 -0.375q-1.140625 0 -1.828125 0.671875q-0.671875 0.65625 -0.671875 1.671875q0 0.9375 0.65625 1.484375q0.65625 0.53125 2.171875 0.53125q1.0 0 1.640625 -0.203125q0.375 -0.125 0.703125 -0.421875q0.34375 -0.296875 0.609375 -0.296875q0.328125 0 0.5625 0.25q0.25 0.234375 0.25 0.5625q0 0.53125 -0.734375 1.0q-1.078125 0.71875 -3.15625 0.71875q-1.859375 0 -2.90625 -0.78125q-1.40625 -1.03125 -1.40625 -2.84375q0 -1.703125 1.140625 -2.828125q1.140625 -1.125 2.984375 -1.125q0.65625 0 1.21875 0.125q0.578125 0.125 1.0625 0.375zm11.273436 3.390625q0 0.921875 -0.515625 1.796875q-0.515625 0.859375 -1.53125 1.375q-1.0 0.515625 -2.109375 0.515625q-1.0937481 0 -2.093748 -0.5q-1.0 -0.515625 -1.53125 -1.375q-0.515625 -0.875 -0.515625 -1.828125q0 -0.953125 0.53125 -1.875q0.53125 -0.9375 1.53125 -1.46875q1.0 -0.53125 2.078123 -0.53125q1.09375 0 2.109375 0.546875q1.015625 0.546875 1.53125 1.46875q0.515625 0.90625 0.515625 1.875zm-1.609375 0.015625q0 -0.78125 -0.546875 -1.421875q-0.765625 -0.875 -2.0 -0.875q-1.0781231 0 -1.8124981 0.703125q-0.71875 0.6875 -0.71875 1.59375q0 0.75 0.734375 1.40625q0.734375 0.65625 1.7968731 0.65625q1.078125 0 1.8125 -0.65625q0.734375 -0.65625 0.734375 -1.40625zm10.7265625 -6.734375l0 8.53125l0.265625 0q0.578125 0 0.828125 0.234375q0.25 0.21875 0.25 0.578125q0 0.34375 -0.25 0.578125q-0.25 0.21875 -0.828125 0.21875l-1.875 0l0 -0.390625q-0.546875 0.3125 -1.140625 0.484375q-0.59375 0.171875 -1.234375 0.171875q-1.8125 0 -2.921875 -1.046875q-1.09375 -1.046875 -1.09375 -2.609375q0 -1.625 1.15625 -2.765625q1.15625 -1.15625 2.828125 -1.15625q0.625 0 1.21875 0.203125q0.609375 0.1875 1.1875 0.5625l0 -1.984375l-0.265625 0q-0.578125 0 -0.828125 -0.21875q-0.25 -0.234375 -0.25 -0.578125q0 -0.359375 0.25 -0.578125q0.25 -0.234375 0.828125 -0.234375l1.875 0zm-1.609375 6.796875q0 -0.984375 -0.703125 -1.671875q-0.6875 -0.6875 -1.6875 -0.6875q-1.0 0 -1.703125 0.6875q-0.6875 0.6875 -0.6875 1.65625q0 0.875 0.625 1.453125q0.625 0.5625 1.765625 0.5625q1.125 0 1.75 -0.5625q0.640625 -0.578125 0.640625 -1.4375zm11.5546875 0.609375l-6.578125 0q0.25 0.625 0.890625 1.015625q0.640625 0.375 1.71875 0.375q0.890625 0 2.375 -0.390625q0.609375 -0.15625 0.84375 -0.15625q0.3125 0 0.53125 0.234375q0.21875 0.21875 0.21875 0.5625q0 0.3125 -0.234375 0.53125q-0.3125 0.296875 -1.53125 0.5625q-1.203125 0.265625 -2.3125 0.265625q-1.921875 0 -3.078125 -1.09375q-1.15625 -1.09375 -1.15625 -2.671875q0 -1.6875 1.25 -2.75q1.25 -1.0625 2.875 -1.0625q0.96875 0 1.78125 0.34375q0.828125 0.34375 1.21875 0.75q0.5625 0.578125 0.9375 1.421875q0.25 0.59375 0.25 1.375l0 0.6875zm-1.78125 -1.609375q-0.359375 -0.6875 -0.953125 -1.015625q-0.59375 -0.34375 -1.421875 -0.34375q-0.8125 0 -1.40625 0.34375q-0.59375 0.328125 -0.96875 1.015625l4.75 0z" fill-rule="nonzero"/><path fill="#010000" fill-opacity="0.0" d="m57.051918 71.62237l38.40625 0l0 18.125l-38.40625 0l0 -18.125z" fill-rule="nonzero"/><path fill="#cc7832" d="m60.020668 74.34893l5.140625 11.015625q0.046875 0.09375 0.140625 0.40625q0.046875 0.171875 0.046875 0.265625q0 0.28125 -0.234375 0.484375q-0.21875 0.21875 -0.546875 0.21875q-0.296875 0 -0.484375 -0.140625q-0.171875 -0.140625 -0.375 -0.546875l-5.125 -11.03125q-0.203125 -0.40625 -0.203125 -0.609375q0 -0.296875 0.234375 -0.53125q0.25 -0.234375 0.5625 -0.234375q0.296875 0 0.46875 0.140625q0.1875 0.140625 0.375 0.5625zm9.8203125 3.5l0 0.53125q0.4375 -0.375 0.953125 -0.5625q0.53125 -0.1875 1.15625 -0.1875q1.421875 0 2.25 0.890625q0.65625 0.703125 0.65625 1.84375l0 2.96875q0.5 0 0.734375 0.234375q0.25 0.21875 0.25 0.578125q0 0.34375 -0.25 0.578125q-0.234375 0.21875 -0.8125 0.21875l-1.453125 0q-0.578125 0 -0.828125 -0.21875q-0.234375 -0.234375 -0.234375 -0.59375q0 -0.34375 0.234375 -0.5625q0.25 -0.234375 0.75 -0.234375l0 -3.015625q0 -0.53125 -0.28125 -0.765625q-0.359375 -0.3125 -1.09375 -0.3125q-0.5625 0 -0.984375 0.21875q-0.40625 0.203125 -1.046875 0.90625l0 2.96875q0.609375 0 0.796875 0.125q0.375 0.234375 0.375 0.6875q0 0.34375 -0.25 0.578125q-0.234375 0.21875 -0.8125 0.21875l-1.828125 0q-0.578125 0 -0.828125 -0.21875q-0.234375 -0.234375 -0.234375 -0.59375q0 -0.4375 0.375 -0.671875q0.1875 -0.125 0.796875 -0.125l0 -3.890625q-0.5 0 -0.75 -0.21875q-0.234375 -0.234375 -0.234375 -0.578125q0 -0.359375 0.234375 -0.578125q0.25 -0.21875 0.828125 -0.21875l1.53125 0zm9.3828125 -3.5l5.140625 11.015625q0.046875 0.09375 0.140625 0.40625q0.046875 0.171875 0.046875 0.265625q0 0.28125 -0.234375 0.484375q-0.21875 0.21875 -0.546875 0.21875q-0.296875 0 -0.484375 -0.140625q-0.171875 -0.140625 -0.375 -0.546875l-5.125 -11.03125q-0.203125 -0.40625 -0.203125 -0.609375q0 -0.296875 0.234375 -0.53125q0.25 -0.234375 0.5625 -0.234375q0.296875 0 0.46875 0.140625q0.1875 0.140625 0.375 0.5625zm9.8203125 3.5l0 0.53125q0.4375 -0.375 0.953125 -0.5625q0.53125 -0.1875 1.15625 -0.1875q1.421875 0 2.25 0.890625q0.65625 0.703125 0.65625 1.84375l0 2.96875q0.5 0 0.734375 0.234375q0.25 0.21875 0.25 0.578125q0 0.34375 -0.25 0.578125q-0.234375 0.21875 -0.8125 0.21875l-1.453125 0q-0.578125 0 -0.828125 -0.21875q-0.234375 -0.234375 -0.234375 -0.59375q0 -0.34375 0.234375 -0.5625q0.25 -0.234375 0.75 -0.234375l0 -3.015625q0 -0.53125 -0.28125 -0.765625q-0.359375 -0.3125 -1.09375 -0.3125q-0.5625 0 -0.984375 0.21875q-0.40625 0.203125 -1.046875 0.90625l0 2.96875q0.609375 0 0.796875 0.125q0.375 0.234375 0.375 0.6875q0 0.34375 -0.25 0.578125q-0.234375 0.21875 -0.8125 0.21875l-1.828125 0q-0.578125 0 -0.828125 -0.21875q-0.234375 -0.234375 -0.234375 -0.59375q0 -0.4375 0.375 -0.671875q0.1875 -0.125 0.796875 -0.125l0 -3.890625q-0.5 0 -0.75 -0.21875q-0.234375 -0.234375 -0.234375 -0.578125q0 -0.359375 0.234375 -0.578125q0.25 -0.21875 0.828125 -0.21875l1.53125 0z" fill-rule="nonzero"/><path fill="#000000" fill-opacity="0.0" d="m95.45817 71.62237l86.41407 0l0 18.125l-86.41407 0l0 -18.125z" fill-rule="nonzero"/><path fill="#6a8759" d="m101.95817 80.38018l-5.1875 -2.875q-0.390625 -0.21875 -0.53125 -0.390625q-0.125 -0.171875 -0.125 -0.4375q0 -0.34375 0.234375 -0.578125q0.25 -0.25 0.578125 -0.25q0.203125 0 0.625 0.234375l7.734375 4.296875l-7.734375 4.296875q-0.421875 0.234375 -0.625 0.234375q-0.328125 0 -0.578125 -0.234375q-0.234375 -0.25 -0.234375 -0.59375q0 -0.265625 0.125 -0.4375q0.140625 -0.171875 0.53125 -0.390625l5.1875 -2.875zm19.46875 1.984375l-3.890625 0l-0.390625 0.96875l0.390625 0q0.578125 0 0.8125 0.234375q0.25 0.21875 0.25 0.578125q0 0.34375 -0.25 0.578125q-0.234375 0.21875 -0.8125 0.21875l-2.15625 0q-0.578125 0 -0.828125 -0.21875q-0.25 -0.234375 -0.25 -0.59375q0 -0.359375 0.265625 -0.578125q0.25 -0.234375 0.84375 -0.21875l2.515625 -6.265625l-1.046875 0q-0.578125 0 -0.828125 -0.21875q-0.234375 -0.21875 -0.234375 -0.578125q0 -0.359375 0.234375 -0.578125q0.25 -0.234375 0.828125 -0.234375l3.46875 0.015625l3.1875 7.859375q0.5625 0 0.734375 0.125q0.359375 0.265625 0.359375 0.6875q0 0.34375 -0.25 0.578125q-0.234375 0.21875 -0.8125 0.21875l-2.15625 0q-0.578125 0 -0.828125 -0.21875q-0.234375 -0.234375 -0.234375 -0.59375q0 -0.34375 0.234375 -0.5625q0.25 -0.234375 0.828125 -0.234375l0.390625 0l-0.375 -0.96875zm-0.671875 -1.609375l-1.28125 -3.171875l-1.296875 3.171875l2.578125 0zm15.890633 -5.953125l0 3.59375q0.59375 -0.375 1.1875 -0.5625q0.609375 -0.203125 1.234375 -0.203125q1.65625 0 2.8125 1.15625q1.15625 1.140625 1.15625 2.765625q0 1.5625 -1.109375 2.609375q-1.09375 1.046875 -2.890625 1.046875q-0.640625 0 -1.234375 -0.171875q-0.59375 -0.171875 -1.15625 -0.484375l0 0.390625l-1.875 0q-0.578125 0 -0.828125 -0.21875q-0.25 -0.234375 -0.25 -0.59375q0 -0.34375 0.25 -0.5625q0.265625 -0.234375 0.828125 -0.234375l0.28125 0l0 -6.921875l-0.28125 0q-0.578125 0 -0.828125 -0.21875q-0.25 -0.234375 -0.25 -0.59375q0 -0.34375 0.25 -0.5625q0.25 -0.234375 0.828125 -0.234375l1.875 0zm4.796875 6.796875q0 -0.984375 -0.703125 -1.671875q-0.6875 -0.6875 -1.703125 -0.6875q-1.0 0 -1.703125 0.6875q-0.6875 0.6875 -0.6875 1.65625q0 0.875 0.625 1.453125q0.625 0.5625 1.765625 0.5625q1.140625 0 1.765625 -0.5625q0.640625 -0.578125 0.640625 -1.4375zm7.6328125 -6.796875l0 8.53125l1.921875 0q0.578125 0 0.8125 0.234375q0.25 0.21875 0.25 0.578125q0 0.34375 -0.25 0.578125q-0.234375 0.21875 -0.8125 0.21875l-5.453125 0q-0.578125 0 -0.828125 -0.21875q-0.234375 -0.234375 -0.234375 -0.59375q0 -0.34375 0.234375 -0.5625q0.25 -0.234375 0.828125 -0.234375l1.921875 0l0 -6.921875l-1.28125 0q-0.578125 0 -0.828125 -0.21875q-0.25 -0.234375 -0.25 -0.59375q0 -0.34375 0.25 -0.5625q0.25 -0.234375 0.828125 -0.234375l2.890625 0zm12.9609375 6.71875q0 0.921875 -0.515625 1.796875q-0.515625 0.859375 -1.53125 1.375q-1.0 0.515625 -2.109375 0.515625q-1.09375 0 -2.09375 -0.5q-1.0 -0.515625 -1.53125 -1.375q-0.515625 -0.875 -0.515625 -1.828125q0 -0.953125 0.53125 -1.875q0.53125 -0.9375 1.53125 -1.46875q1.0 -0.53125 2.078125 -0.53125q1.09375 0 2.109375 0.546875q1.015625 0.546875 1.53125 1.46875q0.515625 0.90625 0.515625 1.875zm-1.609375 0.015625q0 -0.78125 -0.546875 -1.421875q-0.765625 -0.875 -2.0 -0.875q-1.078125 0 -1.8125 0.703125q-0.71875 0.6875 -0.71875 1.59375q0 0.75 0.734375 1.40625q0.734375 0.65625 1.796875 0.65625q1.078125 0 1.8125 -0.65625q0.734375 -0.65625 0.734375 -1.40625zm9.5390625 -3.40625q0.296875 -0.265625 0.59375 -0.265625q0.34375 0 0.5625 0.25q0.234375 0.234375 0.234375 0.8125l0 1.03125q0 0.578125 -0.234375 0.828125q-0.21875 0.234375 -0.578125 0.234375q-0.328125 0 -0.546875 -0.1875q-0.171875 -0.140625 -0.265625 -0.578125q-0.09375 -0.4375 -0.453125 -0.640625q-0.625 -0.375 -1.609375 -0.375q-1.140625 0 -1.828125 0.671875q-0.671875 0.65625 -0.671875 1.671875q0 0.9375 0.65625 1.484375q0.65625 0.53125 2.171875 0.53125q1.0 0 1.640625 -0.203125q0.375 -0.125 0.703125 -0.421875q0.34375 -0.296875 0.609375 -0.296875q0.328125 0 0.5625 0.25q0.25 0.234375 0.25 0.5625q0 0.53125 -0.734375 1.0q-1.078125 0.71875 -3.15625 0.71875q-1.859375 0 -2.90625 -0.78125q-1.40625 -1.03125 -1.40625 -2.84375q0 -1.703125 1.140625 -2.828125q1.140625 -1.125 2.984375 -1.125q0.65625 0 1.21875 0.125q0.578125 0.125 1.0625 0.375zm5.7890625 4.140625l0 2.671875l-1.875 0q-0.578125 0 -0.828125 -0.21875q-0.234375 -0.234375 -0.234375 -0.59375q0 -0.34375 0.25 -0.5625q0.25 -0.234375 0.8125 -0.234375l0.28125 0l0 -6.921875l-0.28125 0q-0.578125 0 -0.828125 -0.21875q-0.234375 -0.234375 -0.234375 -0.59375q0 -0.34375 0.234375 -0.5625q0.25 -0.234375 0.828125 -0.234375l1.875 0l0 5.40625l1.25 -1.015625q-0.1875 -0.328125 -0.1875 -0.546875q0 -0.359375 0.234375 -0.578125q0.25 -0.21875 0.828125 -0.21875l1.828125 0q0.578125 0 0.8125 0.21875q0.25 0.21875 0.25 0.578125q0 0.359375 -0.25 0.578125q-0.234375 0.21875 -0.8125 0.21875l-0.453125 0l-1.9375 1.578125l2.609375 2.3125l0.46875 0q0.578125 0 0.828125 0.234375q0.25 0.21875 0.25 0.578125q0 0.34375 -0.25 0.578125q-0.25 0.21875 -0.828125 0.21875l-1.84375 0q-0.578125 0 -0.828125 -0.21875q-0.234375 -0.234375 -0.234375 -0.59375q0 -0.296875 0.265625 -0.59375l-1.703125 -1.5l-0.296875 0.234375z" fill-rule="nonzero"/><path fill="#000000" fill-opacity="0.0" d="m181.87224 71.62237l9.6015625 0l0 18.125l-9.6015625 0l0 -18.125z" fill-rule="nonzero"/><path fill="#2b2b2b" d="m18.64567 88.78268l76.8125 0l0 19.200005l-76.8125 0l0 -19.200005z" fill-rule="nonzero"/><path fill="#000000" fill-opacity="0.0" d="m18.64567 90.822365l57.609375 0l0 18.125l-57.609375 0l0 -18.125z" fill-rule="nonzero"/><path fill="#6a8759" d="m27.161295 98.64268l0 7.25l0.28125 0q0.578125 0 0.8125 0.21875q0.25 0.21875 0.25 0.578125q0 0.359375 -0.25 0.578125q-0.234375 0.21875 -0.8125 0.21875l-2.828125 0q-0.578125 0 -0.828125 -0.21875q-0.25 -0.21875 -0.25 -0.578125q0 -0.359375 0.25 -0.578125q0.25 -0.21875 0.828125 -0.21875l0.953125 0l0 -2.640625q-0.59375 0.359375 -1.203125 0.546875q-0.59375 0.171875 -1.21875 0.171875q-1.421875 0 -2.5625 -0.859375q-1.375 -1.03125 -1.375 -2.609375q0 -1.4375 1.15625 -2.546875q1.15625 -1.125 2.8125 -1.125q0.625 0 1.21875 0.1875q0.609375 0.1875 1.171875 0.578125l0 -0.546875l1.875 0q0.578125 0 0.8125 0.21875q0.25 0.21875 0.25 0.578125q0 0.359375 -0.25 0.578125q-0.234375 0.21875 -0.8125 0.21875l-0.28125 0zm-1.59375 1.859375q0 -0.328125 -0.265625 -0.84375q-0.265625 -0.53125 -0.828125 -0.875q-0.546875 -0.34375 -1.28125 -0.34375q-1.203125 0 -1.90625 0.890625q-0.46875 0.625 -0.46875 1.1875q0 0.65625 0.671875 1.265625q0.6875 0.59375 1.703125 0.59375q1.015625 0 1.6875 -0.59375q0.6875 -0.609375 0.6875 -1.28125zm10.882811 -3.453125l0 5.484375q0.515625 0 0.75 0.234375q0.25 0.21875 0.25 0.578125q0 0.34375 -0.25 0.578125q-0.25 0.21875 -0.828125 0.21875l-1.515625 0l0 -0.375q-0.6875 0.3125 -1.3125 0.46875q-0.625 0.171875 -1.1875 0.171875q-0.7968731 0 -1.3749981 -0.328125q-0.578125 -0.34375 -0.90625 -0.9375q-0.25 -0.421875 -0.25 -1.046875l0 -3.453125l-0.265625 0q-0.578125 0 -0.828125 -0.21875q-0.25 -0.21875 -0.25 -0.578125q0 -0.359375 0.25 -0.578125q0.25 -0.21875 0.828125 -0.21875l1.875 0l0 4.765625q0 0.5 0.234375 0.75q0.25 0.234375 0.7656231 0.234375q0.484375 0 1.03125 -0.1875q0.5625 -0.203125 1.390625 -0.703125l0 -3.265625l-0.578125 0q-0.578125 0 -0.828125 -0.21875q-0.25 -0.21875 -0.25 -0.578125q0 -0.359375 0.25 -0.578125q0.25 -0.21875 0.828125 -0.21875l2.171875 0zm10.3671875 3.671875q0 0.921875 -0.515625 1.796875q-0.515625 0.859375 -1.53125 1.375q-1.0 0.515625 -2.109375 0.515625q-1.09375 0 -2.09375 -0.5q-1.0 -0.515625 -1.53125 -1.375q-0.515625 -0.875 -0.515625 -1.828125q0 -0.953125 0.53125 -1.875q0.53125 -0.9375 1.53125 -1.46875q1.0 -0.53125 2.078125 -0.53125q1.09375 0 2.109375 0.546875q1.015625 0.546875 1.53125 1.46875q0.515625 0.90625 0.515625 1.875zm-1.609375 0.015625q0 -0.78125 -0.546875 -1.421875q-0.765625 -0.875 -2.0 -0.875q-1.078125 0 -1.8125 0.703125q-0.71875 0.6875 -0.71875 1.59375q0 0.75 0.734375 1.40625q0.734375 0.65625 1.796875 0.65625q1.078125 0 1.8125 -0.65625q0.734375 -0.65625 0.734375 -1.40625zm6.6484375 -2.09375l0 3.21875q0 0.515625 0.21875 0.671875q0.328125 0.265625 1.171875 0.265625q1.21875 0 2.265625 -0.53125q0.390625 -0.203125 0.625 -0.203125q0.3125 0 0.53125 0.234375q0.234375 0.234375 0.234375 0.578125q0 0.3125 -0.25 0.53125q-0.375 0.375 -1.515625 0.6875q-1.125 0.3125 -1.890625 0.3125q-1.5 0 -2.25 -0.640625q-0.734375 -0.65625 -0.734375 -1.59375l0 -3.53125l-0.578125 0q-0.578125 0 -0.828125 -0.21875q-0.25 -0.21875 -0.25 -0.578125q0 -0.359375 0.25 -0.578125q0.25 -0.21875 0.828125 -0.21875l0.578125 0l0 -1.453125q0 -0.578125 0.21875 -0.8125q0.21875 -0.25 0.578125 -0.25q0.359375 0 0.578125 0.25q0.21875 0.234375 0.21875 0.8125l0 1.453125l2.96875 0q0.578125 0 0.8125 0.21875q0.25 0.21875 0.25 0.578125q0 0.359375 -0.25 0.578125q-0.234375 0.21875 -0.8125 0.21875l-2.96875 0zm14.0234375 2.765625l-6.578125 0q0.25 0.625 0.890625 1.015625q0.640625 0.375 1.71875 0.375q0.890625 0 2.375 -0.390625q0.609375 -0.15625 0.84375 -0.15625q0.3125 0 0.53125 0.234375q0.21875 0.21875 0.21875 0.5625q0 0.3125 -0.234375 0.53125q-0.3125 0.296875 -1.53125 0.5625q-1.203125 0.265625 -2.3125 0.265625q-1.921875 0 -3.078125 -1.09375q-1.15625 -1.09375 -1.15625 -2.671875q0 -1.6875 1.25 -2.75q1.25 -1.0625 2.875 -1.0625q0.96875 0 1.78125 0.34375q0.828125 0.34375 1.21875 0.75q0.5625 0.578125 0.9375 1.421875q0.25 0.59375 0.25 1.375l0 0.6875zm-1.78125 -1.609375q-0.359375 -0.6875 -0.953125 -1.015625q-0.59375 -0.34375 -1.421875 -0.34375q-0.8125 0 -1.40625 0.34375q-0.59375 0.328125 -0.96875 1.015625l4.75 0zm8.5859375 3.53125q0 0.453125 -0.328125 0.765625q-0.3125 0.3125 -0.875 0.3125q-0.5625 0 -0.890625 -0.3125q-0.3125 -0.3125 -0.3125 -0.765625q0 -0.453125 0.3125 -0.75q0.328125 -0.3125 0.890625 -0.3125q0.5625 0 0.875 0.3125q0.328125 0.296875 0.328125 0.75z" fill-rule="nonzero"/><path fill="#010000" fill-opacity="0.0" d="m76.25504 90.822365l19.203125 0l0 18.125l-19.203125 0l0 -18.125z" fill-rule="nonzero"/><path fill="#cc7832" d="m79.22379 93.54893l5.140625 11.015625q0.046875 0.09375 0.140625 0.40625q0.046875 0.171875 0.046875 0.265625q0 0.28125 -0.234375 0.484375q-0.21875 0.21875 -0.546875 0.21875q-0.296875 0 -0.484375 -0.140625q-0.171875 -0.140625 -0.375 -0.546875l-5.125 -11.03125q-0.203125 -0.40625 -0.203125 -0.609375q0 -0.296875 0.234375 -0.53125q0.25 -0.234375 0.5625 -0.234375q0.296875 0 0.46875 0.140625q0.1875 0.140625 0.375 0.5625zm9.8203125 3.5l0 0.53125q0.4375 -0.375 0.953125 -0.5625q0.53125 -0.1875 1.15625 -0.1875q1.421875 0 2.25 0.890625q0.65625 0.703125 0.65625 1.84375l0 2.96875q0.5 0 0.734375 0.234375q0.25 0.21875 0.25 0.578125q0 0.34375 -0.25 0.578125q-0.234375 0.21875 -0.8125 0.21875l-1.453125 0q-0.578125 0 -0.828125 -0.21875q-0.234375 -0.234375 -0.234375 -0.59375q0 -0.34375 0.234375 -0.5625q0.25 -0.234375 0.75 -0.234375l0 -3.015625q0 -0.53125 -0.28125 -0.765625q-0.359375 -0.3125 -1.09375 -0.3125q-0.5625 0 -0.984375 0.21875q-0.40625 0.203125 -1.046875 0.90625l0 2.96875q0.609375 0 0.796875 0.125q0.375 0.234375 0.375 0.6875q0 0.34375 -0.25 0.578125q-0.234375 0.21875 -0.8125 0.21875l-1.828125 0q-0.578125 0 -0.828125 -0.21875q-0.234375 -0.234375 -0.234375 -0.59375q0 -0.4375 0.375 -0.671875q0.1875 -0.125 0.796875 -0.125l0 -3.890625q-0.5 0 -0.75 -0.21875q-0.234375 -0.234375 -0.234375 -0.578125q0 -0.359375 0.234375 -0.578125q0.25 -0.21875 0.828125 -0.21875l1.53125 0z" fill-rule="nonzero"/><path fill="#000000" fill-opacity="0.0" d="m95.45817 90.822365l0 0l0 18.125l0 0l0 -18.125z" fill-rule="nonzero"/><path fill="#b6d7a8" d="m514.1352 35.220474l0 0c0 -10.436878 8.460754 -18.89764 18.897644 -18.89764l0 0c5.011963 0 9.8186035 1.9909954 13.36261 5.5349903c3.5440063 3.543995 5.534973 8.350683 5.534973 13.36265l0 0c0 10.436874 -8.460754 18.897636 -18.897583 18.897636l0 0c-10.43689 0 -18.897644 -8.460762 -18.897644 -18.897636z" fill-rule="evenodd"/><path stroke="#000000" stroke-width="1.0" stroke-linejoin="round" stroke-linecap="butt" d="m514.1352 35.220474l0 0c0 -10.436878 8.460754 -18.89764 18.897644 -18.89764l0 0c5.011963 0 9.8186035 1.9909954 13.36261 5.5349903c3.5440063 3.543995 5.534973 8.350683 5.534973 13.36265l0 0c0 10.436874 -8.460754 18.897636 -18.897583 18.897636l0 0c-10.43689 0 -18.897644 -8.460762 -18.897644 -18.897636z" fill-rule="evenodd"/><path fill="#000000" d="m522.40906 40.020473l0 -6.90625l1.0625 0l0 1.046875q0.40625 -0.734375 0.734375 -0.96875q0.34375 -0.234375 0.765625 -0.234375q0.59375 0 1.203125 0.375l-0.40625 1.078125q-0.4375 -0.25 -0.859375 -0.25q-0.390625 0 -0.703125 0.234375q-0.296875 0.234375 -0.421875 0.640625q-0.203125 0.625 -0.203125 1.359375l0 3.625l-1.171875 0zm4.0164795 -3.453125q0 -1.921875 1.078125 -2.84375q0.890625 -0.765625 2.171875 -0.765625q1.421875 0 2.328125 0.9375q0.90625 0.921875 0.90625 2.578125q0 1.328125 -0.40625 2.09375q-0.390625 0.765625 -1.15625 1.1875q-0.765625 0.421875 -1.671875 0.421875q-1.453125 0 -2.359375 -0.921875q-0.890625 -0.9375 -0.890625 -2.6875zm1.203125 0q0 1.328125 0.578125 1.984375q0.59375 0.65625 1.46875 0.65625q0.875 0 1.453125 -0.65625q0.578125 -0.671875 0.578125 -2.03125q0 -1.28125 -0.59375 -1.9375q-0.578125 -0.65625 -1.4375 -0.65625q-0.875 0 -1.46875 0.65625q-0.578125 0.65625 -0.578125 1.984375zm6.2093506 0q0 -1.921875 1.078125 -2.84375q0.890625 -0.765625 2.171875 -0.765625q1.421875 0 2.328125 0.9375q0.90625 0.921875 0.90625 2.578125q0 1.328125 -0.40625 2.09375q-0.390625 0.765625 -1.15625 1.1875q-0.765625 0.421875 -1.671875 0.421875q-1.453125 0 -2.359375 -0.921875q-0.890625 -0.9375 -0.890625 -2.6875zm1.203125 0q0 1.328125 0.578125 1.984375q0.59375 0.65625 1.46875 0.65625q0.875 0 1.453125 -0.65625q0.578125 -0.671875 0.578125 -2.03125q0 -1.28125 -0.59375 -1.9375q-0.578125 -0.65625 -1.4375 -0.65625q-0.875 0 -1.46875 0.65625q-0.578125 0.65625 -0.578125 1.984375zm9.209351 2.40625l0.171875 1.03125q-0.5 0.109375 -0.890625 0.109375q-0.640625 0 -1.0 -0.203125q-0.34375 -0.203125 -0.484375 -0.53125q-0.140625 -0.328125 -0.140625 -1.390625l0 -3.96875l-0.859375 0l0 -0.90625l0.859375 0l0 -1.7187519l1.171875 -0.703125l0 2.421877l1.171875 0l0 0.90625l-1.171875 0l0 4.046875q0 0.5 0.046875 0.640625q0.0625 0.140625 0.203125 0.234375q0.140625 0.078125 0.40625 0.078125q0.203125 0 0.515625 -0.046875z" fill-rule="nonzero"/><path fill="#b6d7a8" d="m466.1299 103.944885l0 0c0 -10.436882 8.460754 -18.897644 18.897644 -18.897644l0 0c5.011963 0 9.818665 1.9909973 13.36264 5.534996c3.5440063 3.543991 5.5350037 8.3506775 5.5350037 13.362648l0 0c0 10.436874 -8.460754 18.897636 -18.897644 18.897636l0 0c-10.43689 0 -18.897644 -8.460762 -18.897644 -18.897636z" fill-rule="evenodd"/><path stroke="#000000" stroke-width="1.0" stroke-linejoin="round" stroke-linecap="butt" d="m466.1299 103.944885l0 0c0 -10.436882 8.460754 -18.897644 18.897644 -18.897644l0 0c5.011963 0 9.818665 1.9909973 13.36264 5.534996c3.5440063 3.543991 5.5350037 8.3506775 5.5350037 13.362648l0 0c0 10.436874 -8.460754 18.897636 -18.897644 18.897636l0 0c-10.43689 0 -18.897644 -8.460762 -18.897644 -18.897636z" fill-rule="evenodd"/><path fill="#000000" d="m482.19632 108.74488l0 -6.90625l1.0625 0l0 0.984375q0.75 -1.140625 2.1875 -1.140625q0.625 0 1.15625 0.21875q0.53125 0.21875 0.78125 0.59375q0.265625 0.359375 0.375 0.859375q0.0625 0.328125 0.0625 1.140625l0 4.25l-1.171875 0l0 -4.203125q0 -0.71875 -0.140625 -1.0625q-0.140625 -0.359375 -0.484375 -0.5625q-0.34375 -0.21875 -0.8125 -0.21875q-0.75 0 -1.296875 0.46875q-0.546875 0.46875 -0.546875 1.796875l0 3.78125l-1.171875 0z" fill-rule="nonzero"/><path fill="#b6d7a8" d="m562.14044 103.944885l0 0c0 -10.436882 8.460754 -18.897644 18.897644 -18.897644l0 0c5.011963 0 9.8186035 1.9909973 13.36261 5.534996c3.5440063 3.543991 5.534973 8.3506775 5.534973 13.362648l0 0c0 10.436874 -8.460754 18.897636 -18.897583 18.897636l0 0c-10.43689 0 -18.897644 -8.460762 -18.897644 -18.897636z" fill-rule="evenodd"/><path stroke="#000000" stroke-width="1.0" stroke-linejoin="round" stroke-linecap="butt" d="m562.14044 103.944885l0 0c0 -10.436882 8.460754 -18.897644 18.897644 -18.897644l0 0c5.011963 0 9.8186035 1.9909973 13.36261 5.534996c3.5440063 3.543991 5.534973 8.3506775 5.534973 13.362648l0 0c0 10.436874 -8.460754 18.897636 -18.897583 18.897636l0 0c-10.43689 0 -18.897644 -8.460762 -18.897644 -18.897636z" fill-rule="evenodd"/><path fill="#000000" d="m578.20685 108.74488l0 -6.90625l1.0625 0l0 0.984375q0.75 -1.140625 2.1875 -1.140625q0.625 0 1.15625 0.21875q0.53125 0.21875 0.78125 0.59375q0.265625 0.359375 0.375 0.859375q0.0625 0.328125 0.0625 1.140625l0 4.25l-1.171875 0l0 -4.203125q0 -0.71875 -0.140625 -1.0625q-0.140625 -0.359375 -0.484375 -0.5625q-0.34375 -0.21875 -0.8125 -0.21875q-0.75 0 -1.296875 0.46875q-0.546875 0.46875 -0.546875 1.796875l0 3.78125l-1.171875 0z" fill-rule="nonzero"/><path fill="#000000" fill-opacity="0.0" d="m533.03284 54.11811l-48.00003 30.92913" fill-rule="evenodd"/><path stroke="#000000" stroke-width="1.0" stroke-linejoin="round" stroke-linecap="butt" d="m533.03284 54.11811l-48.00003 30.92913" fill-rule="evenodd"/><path fill="#000000" fill-opacity="0.0" d="m533.03284 54.11811l48.0 30.92913" fill-rule="evenodd"/><path stroke="#000000" stroke-width="1.0" stroke-linejoin="round" stroke-linecap="butt" d="m533.03284 54.11811l48.0 30.92913" fill-rule="evenodd"/><path fill="#000000" fill-opacity="0.0" d="m235.25197 69.58268l57.228348 0" fill-rule="evenodd"/><path stroke="#000000" stroke-width="1.0" stroke-linejoin="round" stroke-linecap="butt" stroke-dasharray="4.0,3.0" d="m235.25197 69.58268l53.801254 0" fill-rule="evenodd"/><path fill="#000000" stroke="#000000" stroke-width="1.0" stroke-linecap="butt" d="m289.05322 69.58268l-1.1245728 1.1245804l3.0897522 -1.1245804l-3.0897522 -1.124588z" fill-rule="evenodd"/><path fill="#000000" fill-opacity="0.0" d="m391.3746 69.58268l63.905518 0" fill-rule="evenodd"/><path stroke="#000000" stroke-width="1.0" stroke-linejoin="round" stroke-linecap="butt" stroke-dasharray="4.0,3.0" d="m391.3746 69.58268l60.478424 0" fill-rule="evenodd"/><path fill="#000000" stroke="#000000" stroke-width="1.0" stroke-linecap="butt" d="m451.85303 69.58268l-1.1246033 1.1245804l3.0897827 -1.1245804l-3.0897827 -1.124588z" fill-rule="evenodd"/></g></svg>