<svg version="1.1" viewBox="0.0 0.0 699.7401574803149 100.0" fill="none" stroke="none" stroke-linecap="square" stroke-miterlimit="10" xmlns:xlink="http://www.w3.org/1999/xlink" xmlns="http://www.w3.org/2000/svg"><clipPath id="p.0"><path d="m0 0l699.7402 0l0 100.0l-699.7402 0l0 -100.0z" clip-rule="nonzero"/></clipPath><g clip-path="url(#p.0)"><path fill="#000000" fill-opacity="0.0" d="m0 0l699.7402 0l0 100.0l-699.7402 0z" fill-rule="evenodd"/><path fill="#fff2cc" d="m16.784777 52.519684l96.8189 0l0 42.960632l-96.8189 0z" fill-rule="evenodd"/><path stroke="#ffffff" stroke-width="1.0" stroke-linejoin="round" stroke-linecap="butt" d="m16.784777 52.519684l96.8189 0l0 42.960632l-96.8189 0z" fill-rule="evenodd"/><path fill="#000000" d="m44.06923 60.2975q0.625 -1.375 1.25 -3.0q1.0 0.375 1.3125 0.5625q-0.5625 0.6875 -1.3125 2.4375l0.25 0q1.75 -0.0625 2.5 -0.0625l0 1.125q-0.6875 -0.0625 -1.9375 -0.0625l-1.5625 0l0 2.4375l1.0 0q1.4375 -0.0625 2.125 -0.0625l0 1.125q-0.8125 -0.0625 -1.9375 -0.0625l-1.1875 0l0 2.5625l1.9375 0q1.1875 -0.0625 1.9375 -0.0625l0 1.125q-0.6875 -0.0625 -1.9375 -0.0625l-1.9375 0l0 1.375q0 1.3125 0.0625 2.1875l-1.25 0l0 -3.5625l-1.5 0q-1.1875 0 -2.3125 0.0625l0 -1.1875q1.125 0.0625 2.375 0.125l1.4375 0l0 -2.5625l-1.0625 0q-1.0625 0 -1.875 0.0625l0 -1.1875q0.75 0.0625 1.9375 0.125l1.0 0l0 -2.4375l-1.5 0q-1.0625 0 -1.8125 0.0625l0 -1.1875q0.75 0.0625 1.8125 0.125l2.1875 0zm-7.5625 -0.8125q0 -1.0625 -0.0625 -1.9375l1.3125 0q-0.0625 1.0 -0.0625 1.9375l0 1.5q0.8125 0 1.6875 -0.0625l0 1.125q-0.875 -0.0625 -1.6875 -0.0625l0 2.3125q0.5 -0.4375 0.75 -0.625q0.6875 0.875 1.5625 2.25q-0.375 0.1875 -1.0625 0.75q-0.6875 -1.25 -1.25 -2.1875l0 4.6875q0 1.3125 0.0625 2.625l-1.3125 0q0.0625 -1.375 0.0625 -2.625l0 -4.4375q-1.0 2.375 -2.0 3.8125q-0.25 -0.5625 -0.75 -1.125q1.8125 -2.4375 2.5 -5.4375q-1.0 0 -2.1875 0.0625l0 -1.125q1.1875 0.0625 2.4375 0.0625l0 -1.5zm5.625 -2.125q0.5625 1.0625 0.9375 2.125q-0.75 0.25 -1.0625 0.4375q-0.4375 -1.0625 -0.9375 -2.0625q0.6875 -0.3125 1.0625 -0.5z" fill-rule="nonzero"/><path fill="#000000" d="m49.63173 64.11q2.25 -2.25 3.0625 -6.6875l1.3125 0.375q0.25 0.25 -0.1875 0.3125q-0.75 2.625 -1.0 3.3125l0.25 0.0625q0.1875 0.1875 -0.125 0.375l0 9.75l-1.25 0l0 -7.9375q-0.6875 1.0 -1.375 1.625l-0.6875 -1.1875zm3.5625 2.625q1.9375 -2.0 2.3125 -6.9375l-1.3125 0l0 -1.1875l5.5625 0l0 1.1875l-3.0625 0l-0.25 2.0l2.625 0l0 1.5q0 5.375 -4.3125 8.25l-0.75 -1.125q2.1875 -1.375 3.1875 -3.8125q-0.9375 -0.8125 -1.6875 -1.125q-0.5625 1.1875 -1.4375 2.3125l-0.875 -1.0625zm2.6875 -2.375q0.9375 0.3125 1.6875 0.9375q0.3125 -1.125 0.3125 -2.3125l-1.625 0q-0.0625 0.5625 -0.375 1.375zm6.3125 5.875q0.25 0 0.25 -0.25l0 -11.9375l1.1875 0q0.5 0.0625 0.0625 0.375l0 12.125q0 0.875 -0.8125 0.875l-1.6875 0l-0.125 -1.1875l1.125 0zm-0.9375 -2.1875l-1.25 0l0 -8.3125l1.1875 0q0.5 0.0625 0.0625 0.375l0 7.9375zm12.125 -0.1875q-3.125 2.6875 -6.4375 3.6875l-0.5625 -1.5q3.3125 -0.9375 5.9375 -3.1875q-2.1875 -2.375 -2.9375 -5.5l-3.0 0l0 -1.1875l6.0 0l0 -2.375l1.375 0q0.625 0.125 0.0625 0.5l0 1.875l6.0625 0l0 1.1875l-2.9375 0q-0.5 2.9375 -2.625 5.5q2.1875 1.9375 5.8125 2.875l-0.5625 1.5q-3.1875 -0.8125 -6.1875 -3.375zm-0.0625 -2.0q1.875 -2.25 2.3125 -4.5l-4.875 0q0.375 2.125 2.5625 4.5zm15.875 -6.5q-0.0625 0.4375 -0.375 1.75l1.9375 0l0 -3.4375l1.1875 0q0.5 0.0625 0.0625 0.375l0 3.0625l3.0625 0l0 1.1875l-3.0625 0l0 3.125l4.3125 0l0 1.1875l-4.3125 0l0 5.0625l-1.25 0l0 -5.0625l-4.625 0l0 -1.1875l4.625 0l0 -3.125l-2.3125 0q-0.625 1.6875 -1.5 2.6875l-1.0625 -1.0q1.8125 -2.3125 2.0 -5.3125l1.5 0.375q0.25 0.25 -0.1875 0.3125zm-3.875 12.375l-1.25 0l0 -7.75q-0.4375 0.8125 -1.125 1.625l-1.0 -1.125q2.375 -2.75 2.8125 -6.9375l1.3125 0.25q0.4375 0.125 0 0.3125q-0.375 2.0625 -0.875 3.5l0.25 0.0625q0.1875 0.1875 -0.125 0.375l0 9.6875z" fill-rule="nonzero"/><path fill="#000000" d="m56.44423 78.36q-2.6875 0.125 -5.25 0.125l-0.3125 -1.125q6.1875 -0.0625 11.0 -0.875l0.875 1.1875q0.125 0.3125 -0.4375 0.125q-2.5 0.3125 -5.25 0.5l0.75 0.5q0.4375 0.3125 -0.3125 0.375q-1.5625 1.75 -2.4375 2.625l1.4375 0.875q1.9375 -1.75 3.25 -3.25l1.1875 0.875q0.4375 0.3125 -0.3125 0.3125q-2.0 1.75 -4.1875 3.5l4.5625 -0.25q-0.625 -0.625 -1.1875 -1.0l0.9375 -0.875q2.0625 1.375 3.375 3.1875l-1.1875 1.0625q-0.6875 -1.0625 -1.0625 -1.375l-4.0625 0.3125l0 5.5625l-1.25 0l0 -5.4375l-5.25 0.3125q-0.0625 0.4375 -0.3125 0.1875l-0.4375 -1.5625l4.0 -0.0625l0.8125 -0.5625q-1.5625 -1.125 -3.25 -2.0l0.8125 -1.0l1.125 0.5625q0.6875 -0.625 2.375 -2.8125zm6.875 11.8125q-2.4375 -1.0625 -4.1875 -3.1875l1.1875 -0.9375q1.375 1.6875 3.8125 2.75l-0.8125 1.375zm-8.0 -3.3125q0.5 0.3125 -0.1875 0.375q-1.4375 1.875 -3.5625 3.1875l-0.9375 -1.3125q2.125 -1.3125 3.4375 -3.0l1.25 0.75z" fill-rule="nonzero"/><path fill="#000000" d="m78.06923 78.61q0.9375 0 2.0 -0.0625l0 1.125q-1.0 -0.0625 -1.9375 -0.0625l-3.5 0q0.5 0.375 1.1875 0.75q-0.5 0.375 -1.03125 1.09375q-0.53125 0.71875 -1.53125 1.96875q1.4375 0 4.5 -0.3125q-0.25 -0.3125 -1.0 -1.1875q0.5625 -0.3125 1.0 -0.6875q1.0625 1.125 2.3125 2.875q-0.625 0.375 -1.0625 0.8125q-0.375 -0.5 -0.625 -0.875q-0.875 0.0625 -1.125 0.125l0 4.6875q0 0.75 0.625 0.75l0.625 0q0.5625 0 0.75 -1.6875q0.5625 0.4375 1.3125 0.625q-0.5625 2.125 -1.5625 2.125l-1.6875 0q-1.25 0 -1.25 -1.3125l0 -5.0625q-0.875 0.0625 -1.1875 0.125q0.0625 2.3125 -0.59375 3.78125q-0.65625 1.46875 -2.53125 2.90625q-0.3125 -0.5 -1.125 -0.8125q1.0 -0.625 1.6875 -1.375q0.6875 -0.75 1.0625 -1.6875q0.375 -0.9375 0.3125 -2.6875q-0.9375 0.0625 -1.6875 0.25q-0.1875 -0.9375 -0.5 -1.625q0.75 -0.0625 1.65625 -1.25q0.90625 -1.1875 1.21875 -2.3125l-1.0 0q-0.8125 0 -2.0 0.0625l0 -1.125q1.0 0.0625 1.9375 0.0625l4.75 0zm-8.1875 -1.3125q-0.4375 0.5625 -0.9375 1.4375q-0.5 0.875 -1.5 2.5q1.1875 -0.0625 1.875 -0.0625q0.5 -0.875 0.8125 -1.75q0.6875 0.4375 1.4375 0.75q-0.4375 0.4375 -1.1875 1.59375q-0.75 1.15625 -2.125 3.28125q1.8125 -0.1875 3.1875 -0.4375q-0.3125 0.75 -0.3125 1.1875q-0.5625 0.0625 -1.96875 0.25q-1.40625 0.1875 -2.46875 0.5q-0.1875 -0.625 -0.4375 -1.25q0.6875 -0.1875 1.3125 -1.125q0.625 -0.9375 1.25 -2.0625q-0.5625 0.0625 -1.3125 0.15625q-0.75 0.09375 -1.25 0.21875q-0.25 -0.625 -0.5625 -1.1875q0.75 -0.1875 1.65625 -2.0q0.90625 -1.8125 1.03125 -2.625q0.75 0.375 1.5 0.625zm1.6875 10.0q-0.0625 0.625 0 1.1875q-1.4375 0.375 -2.84375 0.78125q-1.40625 0.40625 -2.15625 0.71875q-0.25 -0.625 -0.6875 -1.3125q1.5625 -0.25 2.9375 -0.5625q1.375 -0.3125 2.75 -0.8125zm3.875 -11.125q0.6875 1.125 1.0 1.75q-0.4375 0.1875 -1.1875 0.5625q-0.5 -1.1875 -0.9375 -1.8125q0.75 -0.25 1.125 -0.5z" fill-rule="nonzero"/><path fill="#fff2cc" d="m158.51393 52.519684l96.81889 0l0 42.960632l-96.81889 0z" fill-rule="evenodd"/><path stroke="#ffffff" stroke-width="1.0" stroke-linejoin="round" stroke-linecap="butt" d="m158.51393 52.519684l96.81889 0l0 42.960632l-96.81889 0z" fill-rule="evenodd"/><path fill="#000000" d="m181.61089 61.6725l-1.875 0l0 1.0625q0 5.25 -3.0625 8.5625l-1.0625 -0.9375q2.875 -3.25 2.875 -7.6875l0 -1.0l-2.3125 0l0 -1.1875l2.3125 0l0 -2.8125l1.1875 0q0.5 0.0625 0.0625 0.375l0 2.4375l3.125 0l0 5.9375q0 2.5 -0.375 3.4375q-0.4375 1.0625 -1.8125 1.0625l-1.0 0l-0.125 -1.375l1.0 0q0.625 0 0.8125 -0.5625q0.25 -0.625 0.25 -2.375l0 -4.9375zm2.3125 -1.875l5.5 0l0 10.6875l-1.25 0l0 -0.75l-3.0 0l0 1.0l-1.25 0l0 -10.9375zm1.25 1.1875l0 7.5625l3.0 0l0 -7.5625l-3.0 0z" fill-rule="nonzero"/><path fill="#000000" d="m198.11089 71.0475q0.6875 -0.3125 1.625 -1.03125q0.9375 -0.71875 1.75 -1.84375q-0.4375 -1.0625 -0.78125 -2.65625q-0.34375 -1.59375 -0.46875 -3.65625l-6.5625 0q-1.0625 0 -2.125 0.0625l0 -1.0625q1.0625 0.0625 3.625 0.0625l0 -1.125q-2.0 0 -2.75 0.0625l0 -1.0625q0.75 0.0625 2.75 0.0625q0 -0.875 -0.0625 -1.5625l1.3125 0q-0.0625 0.375 -0.0625 1.5625l1.0 0q1.0 0 1.6875 -0.0625l0 1.0625q-0.75 -0.0625 -1.6875 -0.0625l-1.0 0l0 1.125l3.8125 0q-0.0625 -1.9375 -0.1875 -3.6875q0.8125 0.125 1.3125 0.125q-0.125 1.0625 -0.0625 3.5625l2.75 0q1.125 0 2.1875 -0.0625l0 1.0625q-1.125 -0.0625 -2.1875 -0.0625l-2.6875 0q0.1875 1.9375 0.40625 3.25q0.21875 1.3125 0.53125 1.875q0.3125 -0.6875 0.71875 -1.75q0.40625 -1.0625 0.59375 -2.375q0.5 0.3125 1.375 0.5625q-0.5 1.0 -0.90625 2.125q-0.40625 1.125 -1.28125 2.6875q1.5 2.8125 1.84375 2.0q0.34375 -0.8125 0.46875 -1.375q0.625 0.3125 1.1875 0.5q-0.9375 2.5 -1.71875 2.59375q-0.78125 0.09375 -2.46875 -2.65625q-1.3125 1.5625 -2.9375 2.5625q-0.375 -0.4375 -1.0 -0.8125zm-1.375 -1.5q0 1.0 0.0625 2.3125l-1.25 0q0 -1.3125 0.0625 -2.125q-2.5625 0.375 -3.4375 0.625l-0.4375 -1.3125q0.6875 0 3.875 -0.3125l0 -1.5l-1.3125 0q-0.8125 0 -1.625 0.1875l-0.4375 -1.1875q0.25 -0.25 0.46875 -0.4375q0.21875 -0.1875 1.03125 -1.3125q-0.6875 0 -1.6875 0.0625l0 -1.125q1.125 0.0625 2.25 0.0625q0.5 -0.875 0.8125 -1.5625q0.625 0.25 1.375 0.5q-0.5 0.5625 -0.875 1.0625l1.375 0q1.25 -0.0625 2.3125 -0.0625l0 1.125q-1.0625 -0.0625 -2.3125 -0.0625l-2.0 0q-0.25 0.375 -1.375 1.8125l2.0 0q0 -0.5 -0.0625 -1.3125l1.25 0q-0.0625 0.8125 -0.0625 1.3125q1.0625 0 2.375 -0.0625l0 1.0625q-1.3125 -0.0625 -2.375 -0.0625l0 1.3125q2.0 -0.25 2.5625 -0.375q-0.125 0.625 -0.1875 1.0625q-0.4375 0 -2.375 0.3125zm6.6875 -11.875q1.25 1.3125 1.5625 1.8125q-0.5625 0.3125 -1.0 0.625q-0.3125 -0.4375 -1.5 -1.8125q0.4375 -0.3125 0.9375 -0.625z" fill-rule="nonzero"/><path fill="#000000" d="m222.29839 68.1725l-0.25 1.6875q-0.1875 1.1875 -1.375 1.1875l-3.625 0q-1.125 0 -1.125 -1.125l0 -6.5625l4.1875 0l0 -3.6875l-4.3125 0l0 -1.1875l5.5625 0l0 6.625l-1.25 0l0 -0.5625l-2.9375 0l0 4.875q0 0.4375 0.375 0.4375l2.5 0q0.6875 0 0.75 -0.5625l0.1875 -1.4375l1.3125 0.3125zm-11.1875 -5.8125l0 1.4375q0 1.3125 -1.0 2.4375l-0.6875 -0.8125q0.8125 -0.6875 0.8125 -1.75l0 -1.3125l-0.875 0l0 4.625l4.4375 0l0 -1.375l-0.875 0q-0.9375 0 -0.9375 -1.0l0 -2.25l-0.875 0zm1.75 0l0 2.125q0 0.375 0.375 0.375l0.5625 0l0 -2.5l-0.9375 0zm2.0 8.9375l-1.0625 0l0 -0.8125l-4.4375 0l0 0.8125l-1.0625 0l0 -9.9375l1.9375 0l0 -1.8125l-2.5 0l0 -1.1875l7.4375 0l0 1.1875l-2.3125 0l0 1.8125l2.0 0l0 9.9375zm-3.75 -9.9375l0.875 0l0 -1.8125l-0.875 0l0 1.8125zm-1.75 8.125l4.4375 0l0 -1.5l-4.4375 0l0 1.5zm16.875 0.75l11.75 0l0 1.0l-11.75 0l0 0.5l-1.25 0l0 -7.875l1.1875 0q0.5 0.0625 0.0625 0.375l0 6.0zm6.8125 -10.25l2.3125 0l0 -1.3125l-2.3125 0l0 1.3125zm-1.0625 0l0 -1.3125l-2.25 0l0 1.3125l2.25 0zm-3.3125 0l0 -1.3125l-2.3125 0l0 1.3125l2.3125 0zm-3.5625 0.75l0 -2.8125l11.5 0l0 2.8125l-4.9375 0l0 0.875l6.1875 0l0 1.0l-6.1875 0l0 0.875l3.875 0l0 6.0l-7.8125 0l0 -6.0l2.6875 0l0 -0.875l-6.75 0l0 -1.0l6.75 0l0 -0.875l-2.625 0l-2.6875 0zm9.375 4.4375l0 -0.9375l-5.6875 0l0 0.9375l5.6875 0zm0 1.75l0 -1.0l-5.6875 0l0 1.0l5.6875 0zm0 1.8125l0 -1.0625l-5.6875 0l0 1.0625l5.6875 0z" fill-rule="nonzero"/><path fill="#000000" d="m199.11089 86.86q-3.125 2.6875 -6.4375 3.6875l-0.5625 -1.5q3.3125 -0.9375 5.9375 -3.1875q-2.1875 -2.375 -2.9375 -5.5l-3.0 0l0 -1.1875l6.0 0l0 -2.375l1.375 0q0.625 0.125 0.0625 0.5l0 1.875l6.0625 0l0 1.1875l-2.9375 0q-0.5 2.9375 -2.625 5.5q2.1875 1.9375 5.8125 2.875l-0.5625 1.5q-3.1875 -0.8125 -6.1875 -3.375zm-0.0625 -2.0q1.875 -2.25 2.3125 -4.5l-4.875 0q0.375 2.125 2.5625 4.5zm15.875 -6.5q-0.0625 0.4375 -0.375 1.75l1.9375 0l0 -3.4375l1.1875 0q0.5 0.0625 0.0625 0.375l0 3.0625l3.0625 0l0 1.1875l-3.0625 0l0 3.125l4.3125 0l0 1.1875l-4.3125 0l0 5.0625l-1.25 0l0 -5.0625l-4.625 0l0 -1.1875l4.625 0l0 -3.125l-2.3125 0q-0.625 1.6875 -1.5 2.6875l-1.0625 -1.0q1.8125 -2.3125 2.0 -5.3125l1.5 0.375q0.25 0.25 -0.1875 0.3125zm-3.875 12.375l-1.25 0l0 -7.75q-0.4375 0.8125 -1.125 1.625l-1.0 -1.125q2.375 -2.75 2.8125 -6.9375l1.3125 0.25q0.4375 0.125 0 0.3125q-0.375 2.0625 -0.875 3.5l0.25 0.0625q0.1875 0.1875 -0.125 0.375l0 9.6875z" fill-rule="nonzero"/><path fill="#fff2cc" d="m300.24307 52.519684l96.81891 0l0 42.960632l-96.81891 0z" fill-rule="evenodd"/><path stroke="#ffffff" stroke-width="1.0" stroke-linejoin="round" stroke-linecap="butt" d="m300.24307 52.519684l96.81891 0l0 42.960632l-96.81891 0z" fill-rule="evenodd"/><path fill="#000000" d="m324.48065 60.5475l1.0 -2.625l1.3125 0.3125q0.25 0.25 -0.1875 0.3125l-0.875 2.0l3.6875 0l0 1.1875l-3.5625 0l0 1.875l2.8125 0l0 1.1875l-2.8125 0l0 1.8125l2.8125 0l0 1.1875l-2.8125 0l0 2.0l4.0 0l0 1.1875l-7.625 0l0 0.5l-1.25 0l0 -8.75q-0.5625 0.875 -1.75 2.125l-0.875 -1.125q2.8125 -2.75 3.6875 -6.125l1.375 0.375q0.3125 0.25 -0.125 0.3125q-0.3125 1.0 -1.0 2.25l2.1875 0zm-8.75 9.0q1.4375 -1.6875 2.6875 -3.9375l1.0 1.0q-1.0625 2.0625 -2.375 3.875q0 0.5 -0.25 0.375l-1.0625 -1.3125zm8.875 -5.9375l0 -1.875l-2.375 0l0 1.875l2.375 0zm0 1.1875l-2.375 0l0 1.8125l2.375 0l0 -1.8125zm0 3.0l-2.375 0l0 2.0l2.375 0l0 -2.0zm-7.3125 -9.0q1.4375 0.75 2.1875 1.6875l-0.9375 1.125q-0.875 -0.9375 -2.125 -1.75l0.875 -1.0625z" fill-rule="nonzero"/><path fill="#000000" d="m343.60565 65.2975q-0.0625 1.125 -0.0625 3.3125q0 2.125 0.0625 3.3125l-1.1875 0l0 -0.8125l-7.0625 0l0 0.8125l-1.1875 0q0.0625 -1.1875 0.0625 -3.3125q0 -2.1875 -0.0625 -3.3125l9.4375 0zm-11.4375 0.375q-0.125 -0.5625 -0.6875 -1.1875q1.5625 -0.125 3.40625 -0.5q1.84375 -0.375 2.96875 -1.0q-1.4375 -1.1875 -2.375 -2.125q-0.75 0.75 -1.75 1.625q-0.5625 -0.5 -1.0 -0.6875q2.4375 -1.875 3.8125 -4.6875q0.625 0.375 1.3125 0.625l-0.5 0.5q-0.1875 0.1875 -0.625 0.75l6.9375 0q-0.5625 1.0625 -1.46875 2.09375q-0.90625 1.03125 -2.15625 1.96875q1.0 0.5 2.90625 0.8125q1.90625 0.3125 3.34375 0.1875q-0.375 0.625 -0.5625 1.3125q-2.25 -0.25 -3.75 -0.53125q-1.5 -0.28125 -3.0625 -1.09375q-1.75 0.8125 -3.65625 1.25q-1.90625 0.4375 -3.09375 0.6875zm3.9375 -5.625q1.3125 1.25 2.9375 2.375q1.3125 -0.8125 2.75 -2.5625l-5.5 0l-0.1875 0.1875zm6.3125 7.6875l0 -1.5l-3.0 0l0 1.5l3.0 0zm-4.125 0l0 -1.5l-2.9375 0l0 1.5l2.9375 0zm4.125 2.375l0 -1.4375l-3.0 0l0 1.4375l3.0 0zm-4.125 0l0 -1.4375l-2.9375 0l0 1.4375l2.9375 0z" fill-rule="nonzero"/><path fill="#000000" d="m347.91815 70.36l0 -11.453125l1.40625 0l0 4.109375q0.984375 -1.140625 2.484375 -1.140625q0.921875 0 1.59375 0.359375q0.6875 0.359375 0.96875 1.0q0.296875 0.640625 0.296875 1.859375l0 5.265625l-1.40625 0l0 -5.265625q0 -1.046875 -0.453125 -1.53125q-0.453125 -0.484375 -1.296875 -0.484375q-0.625 0 -1.171875 0.328125q-0.546875 0.328125 -0.78125 0.890625q-0.234375 0.546875 -0.234375 1.515625l0 4.546875l-1.40625 0zm14.3359375 0l0 -1.21875q-0.96875 1.40625 -2.640625 1.40625q-0.734375 0 -1.375 -0.28125q-0.625 -0.28125 -0.9375 -0.703125q-0.3125 -0.4375 -0.4375 -1.046875q-0.078125 -0.421875 -0.078125 -1.3125l0 -5.140625l1.40625 0l0 4.59375q0 1.109375 0.078125 1.484375q0.140625 0.5625 0.5625 0.875q0.4375 0.3125 1.0625 0.3125q0.640625 0 1.1875 -0.3125q0.5625 -0.328125 0.78125 -0.890625q0.234375 -0.5625 0.234375 -1.625l0 -4.4375l1.40625 0l0 8.296875l-1.25 0zm3.1953125 0.6875l1.375 0.203125q0.078125 0.640625 0.46875 0.921875q0.53125 0.390625 1.4375 0.390625q0.96875 0 1.5 -0.390625q0.53125 -0.390625 0.71875 -1.09375q0.109375 -0.421875 0.109375 -1.8125q-0.921875 1.09375 -2.296875 1.09375q-1.71875 0 -2.65625 -1.234375q-0.9375 -1.234375 -0.9375 -2.96875q0 -1.1875 0.421875 -2.1875q0.4375 -1.0 1.25 -1.546875q0.828125 -0.546875 1.921875 -0.546875q1.46875 0 2.421875 1.1875l0 -1.0l1.296875 0l0 7.171875q0 1.9375 -0.390625 2.75q-0.390625 0.8125 -1.25 1.28125q-0.859375 0.46875 -2.109375 0.46875q-1.484375 0 -2.40625 -0.671875q-0.90625 -0.671875 -0.875 -2.015625zm1.171875 -4.984375q0 1.625 0.640625 2.375q0.65625 0.75 1.625 0.75q0.96875 0 1.625 -0.734375q0.65625 -0.75 0.65625 -2.34375q0 -1.53125 -0.671875 -2.296875q-0.671875 -0.78125 -1.625 -0.78125q-0.9375 0 -1.59375 0.765625q-0.65625 0.765625 -0.65625 2.265625zm7.4609375 0.140625q0 -2.296875 1.28125 -3.40625q1.078125 -0.921875 2.609375 -0.921875q1.71875 0 2.796875 1.125q1.09375 1.109375 1.09375 3.09375q0 1.59375 -0.484375 2.515625q-0.484375 0.921875 -1.40625 1.4375q-0.90625 0.5 -2.0 0.5q-1.734375 0 -2.8125 -1.109375q-1.078125 -1.125 -1.078125 -3.234375zm1.453125 0q0 1.59375 0.6875 2.390625q0.703125 0.796875 1.75 0.796875q1.046875 0 1.734375 -0.796875q0.703125 -0.796875 0.703125 -2.4375q0 -1.53125 -0.703125 -2.328125q-0.6875 -0.796875 -1.734375 -0.796875q-1.046875 0 -1.75 0.796875q-0.6875 0.78125 -0.6875 2.375z" fill-rule="nonzero"/><path fill="#000000" d="m324.84003 86.86q-3.125 2.6875 -6.4375 3.6875l-0.5625 -1.5q3.3125 -0.9375 5.9375 -3.1875q-2.1875 -2.375 -2.9375 -5.5l-3.0 0l0 -1.1875l6.0 0l0 -2.375l1.375 0q0.625 0.125 0.0625 0.5l0 1.875l6.0625 0l0 1.1875l-2.9375 0q-0.5 2.9375 -2.625 5.5q2.1875 1.9375 5.8125 2.875l-0.5625 1.5q-3.1875 -0.8125 -6.1875 -3.375zm-0.0625 -2.0q1.875 -2.25 2.3125 -4.5l-4.875 0q0.375 2.125 2.5625 4.5zm15.875 -6.5q-0.0625 0.4375 -0.375 1.75l1.9375 0l0 -3.4375l1.1875 0q0.5 0.0625 0.0625 0.375l0 3.0625l3.0625 0l0 1.1875l-3.0625 0l0 3.125l4.3125 0l0 1.1875l-4.3125 0l0 5.0625l-1.25 0l0 -5.0625l-4.625 0l0 -1.1875l4.625 0l0 -3.125l-2.3125 0q-0.625 1.6875 -1.5 2.6875l-1.0625 -1.0q1.8125 -2.3125 2.0 -5.3125l1.5 0.375q0.25 0.25 -0.1875 0.3125zm-3.875 12.375l-1.25 0l0 -7.75q-0.4375 0.8125 -1.125 1.625l-1.0 -1.125q2.375 -2.75 2.8125 -6.9375l1.3125 0.25q0.4375 0.125 0 0.3125q-0.375 2.0625 -0.875 3.5l0.25 0.0625q0.1875 0.1875 -0.125 0.375l0 9.6875zm19.125 -12.375q-2.6875 0.125 -5.25 0.125l-0.3125 -1.125q6.1875 -0.0625 11.0 -0.875l0.875 1.1875q0.125 0.3125 -0.4375 0.125q-2.5 0.3125 -5.25 0.5l0.75 0.5q0.4375 0.3125 -0.3125 0.375q-1.5625 1.75 -2.4375 2.625l1.4375 0.875q1.9375 -1.75 3.25 -3.25l1.1875 0.875q0.4375 0.3125 -0.3125 0.3125q-2.0 1.75 -4.1875 3.5l4.5625 -0.25q-0.625 -0.625 -1.1875 -1.0l0.9375 -0.875q2.0625 1.375 3.375 3.1875l-1.1875 1.0625q-0.6875 -1.0625 -1.0625 -1.375l-4.0625 0.3125l0 5.5625l-1.25 0l0 -5.4375l-5.25 0.3125q-0.0625 0.4375 -0.3125 0.1875l-0.4375 -1.5625l4.0 -0.0625l0.8125 -0.5625q-1.5625 -1.125 -3.25 -2.0l0.8125 -1.0l1.125 0.5625q0.6875 -0.625 2.375 -2.8125zm6.875 11.8125q-2.4375 -1.0625 -4.1875 -3.1875l1.1875 -0.9375q1.375 1.6875 3.8125 2.75l-0.8125 1.375zm-8.0 -3.3125q0.5 0.3125 -0.1875 0.375q-1.4375 1.875 -3.5625 3.1875l-0.9375 -1.3125q2.125 -1.3125 3.4375 -3.0l1.25 0.75z" fill-rule="nonzero"/><path fill="#000000" d="m377.52753 78.61q0.9375 0 2.0 -0.0625l0 1.125q-1.0 -0.0625 -1.9375 -0.0625l-3.5 0q0.5 0.375 1.1875 0.75q-0.5 0.375 -1.03125 1.09375q-0.53125 0.71875 -1.53125 1.96875q1.4375 0 4.5 -0.3125q-0.25 -0.3125 -1.0 -1.1875q0.5625 -0.3125 1.0 -0.6875q1.0625 1.125 2.3125 2.875q-0.625 0.375 -1.0625 0.8125q-0.375 -0.5 -0.625 -0.875q-0.875 0.0625 -1.125 0.125l0 4.6875q0 0.75 0.625 0.75l0.625 0q0.5625 0 0.75 -1.6875q0.5625 0.4375 1.3125 0.625q-0.5625 2.125 -1.5625 2.125l-1.6875 0q-1.25 0 -1.25 -1.3125l0 -5.0625q-0.875 0.0625 -1.1875 0.125q0.0625 2.3125 -0.59375 3.78125q-0.65625 1.46875 -2.53125 2.90625q-0.3125 -0.5 -1.125 -0.8125q1.0 -0.625 1.6875 -1.375q0.6875 -0.75 1.0625 -1.6875q0.375 -0.9375 0.3125 -2.6875q-0.9375 0.0625 -1.6875 0.25q-0.1875 -0.9375 -0.5 -1.625q0.75 -0.0625 1.65625 -1.25q0.90625 -1.1875 1.21875 -2.3125l-1.0 0q-0.8125 0 -2.0 0.0625l0 -1.125q1.0 0.0625 1.9375 0.0625l4.75 0zm-8.1875 -1.3125q-0.4375 0.5625 -0.9375 1.4375q-0.5 0.875 -1.5 2.5q1.1875 -0.0625 1.875 -0.0625q0.5 -0.875 0.8125 -1.75q0.6875 0.4375 1.4375 0.75q-0.4375 0.4375 -1.1875 1.59375q-0.75 1.15625 -2.125 3.28125q1.8125 -0.1875 3.1875 -0.4375q-0.3125 0.75 -0.3125 1.1875q-0.5625 0.0625 -1.96875 0.25q-1.40625 0.1875 -2.46875 0.5q-0.1875 -0.625 -0.4375 -1.25q0.6875 -0.1875 1.3125 -1.125q0.625 -0.9375 1.25 -2.0625q-0.5625 0.0625 -1.3125 0.15625q-0.75 0.09375 -1.25 0.21875q-0.25 -0.625 -0.5625 -1.1875q0.75 -0.1875 1.65625 -2.0q0.90625 -1.8125 1.03125 -2.625q0.75 0.375 1.5 0.625zm1.6875 10.0q-0.0625 0.625 0 1.1875q-1.4375 0.375 -2.84375 0.78125q-1.40625 0.40625 -2.15625 0.71875q-0.25 -0.625 -0.6875 -1.3125q1.5625 -0.25 2.9375 -0.5625q1.375 -0.3125 2.75 -0.8125zm3.875 -11.125q0.6875 1.125 1.0 1.75q-0.4375 0.1875 -1.1875 0.5625q-0.5 -1.1875 -0.9375 -1.8125q0.75 -0.25 1.125 -0.5z" fill-rule="nonzero"/><path fill="#fff2cc" d="m441.97223 52.519684l96.81891 0l0 42.960632l-96.81891 0z" fill-rule="evenodd"/><path stroke="#ffffff" stroke-width="1.0" stroke-linejoin="round" stroke-linecap="butt" d="m441.97223 52.519684l96.81891 0l0 42.960632l-96.81891 0z" fill-rule="evenodd"/><path fill="#000000" d="m461.8973 68.235q-0.1875 -0.6875 -0.5 -1.375q1.1875 0 1.53125 -0.3125q0.34375 -0.3125 0.28125 -2.9375l-2.875 0l0 5.8125q0 0.875 0.75 0.875l2.5625 0q0.4375 0.0625 0.65625 -0.4375q0.21875 -0.5 0.28125 -1.25q0.5 0.3125 1.3125 0.5625q-0.4375 1.625 -0.84375 1.90625q-0.40625 0.28125 -1.09375 0.28125l-3.5 0q-1.25 0 -1.25 -1.3125l0 -5.3125q0 -0.9375 -0.0625 -2.0625q-0.4375 0.5 -1.0 1.0625q-0.5625 -0.625 -1.0625 -0.9375q0.6875 -0.5 1.3125 -1.09375q0.625 -0.59375 1.1875 -1.34375q0.5625 -0.75 1.0625 -1.5q0.5 -0.75 0.875 -1.6875q0.5 0.375 1.375 0.8125q-0.375 0.25 -0.625 0.5q0.5625 0.4375 1.4375 1.0q0.875 0.5625 2.1875 1.875q-0.5 0.375 -0.9375 1.0q-1.1875 -1.4375 -1.84375 -1.9375q-0.65625 -0.5 -1.34375 -1.0q-0.9375 1.3125 -1.5 2.0l-0.9375 1.0625l5.125 0q-0.0625 1.8125 -0.0625 2.8125q0 0.9375 -0.15625 1.59375q-0.15625 0.65625 -0.78125 0.9375q-0.625 0.28125 -1.5625 0.40625zm9.0 -10.625q-0.0625 1.0625 -0.0625 2.1875l0 10.3125q0 1.0625 -0.53125 1.3125q-0.53125 0.25 -1.78125 0.4375q-0.1875 -0.8125 -0.5625 -1.4375q1.125 0 1.4375 -0.0625q0.3125 -0.0625 0.3125 -0.6875l0 -9.875q0 -1.0 -0.0625 -2.1875l1.25 0zm-3.25 2.1875q-0.0625 1.0 -0.0625 2.1875l0 4.5q0 1.1875 0.0625 2.0l-1.3125 0q0.0625 -1.0 0.0625 -2.0l0 -4.6875q0 -0.9375 -0.0625 -2.0l1.3125 0z" fill-rule="nonzero"/><path fill="#000000" d="m487.8348 70.0475l-0.375 1.1875l-6.875 0q-2.5 0 -4.0625 -1.5q-1.1875 1.5 -2.375 2.1875l-0.8125 -1.25q1.3125 -0.6875 2.375 -1.9375q-1.1875 -2.0 -1.5625 -3.3125l1.0625 -0.25q0.3125 1.0 1.125 2.375q0.5625 -1.5625 0.5625 -3.0625l0 -0.5625l-1.3125 0l-0.5625 0.8125l-1.1875 -0.5q1.375 -2.3125 2.5 -4.625l-2.5625 0l0 -1.1875l2.8125 0l0.25 -0.3125l1.25 0.9375q0.125 0.125 -0.25 0.25l-1.6875 3.4375l2.0 0l0 0.9375q0 3.0625 -1.0 5.0625q1.25 1.3125 3.9375 1.3125l6.75 0zm-5.875 -9.0625l0 -1.0625l-2.9375 0l0 -1.0l2.9375 0l0 -1.5625l1.0 0q0.5 0.0625 0.0625 0.375l0 1.1875l3.25 0l0 2.0625l1.25 0l0 1.0l-1.25 0l0 2.125l-3.25 0l0 0.875l3.4375 0l0 1.0l-3.4375 0l0 1.1875l4.1875 0l0 1.0l-4.1875 0l0 1.375l-1.0625 0l0 -1.375l-3.6875 0l0 -1.0l3.6875 0l0 -1.1875l-2.875 0l0 -1.0l2.875 0l0 -0.875l-2.9375 0l0 -1.0l2.9375 0l0 -1.125l-4.0625 0l0 -1.0l4.0625 0zm3.25 1.0l-2.1875 0l0 1.125l2.1875 0l0 -1.125zm0 -2.0625l-2.1875 0l0 1.0625l2.1875 0l0 -1.0625z" fill-rule="nonzero"/><path fill="#000000" d="m489.6473 70.36l0 -11.453125l1.40625 0l0 4.109375q0.984375 -1.140625 2.484375 -1.140625q0.921875 0 1.59375 0.359375q0.6875 0.359375 0.96875 1.0q0.296875 0.640625 0.296875 1.859375l0 5.265625l-1.40625 0l0 -5.265625q0 -1.046875 -0.453125 -1.53125q-0.453125 -0.484375 -1.296875 -0.484375q-0.625 0 -1.171875 0.328125q-0.546875 0.328125 -0.78125 0.890625q-0.234375 0.546875 -0.234375 1.515625l0 4.546875l-1.40625 0zm14.3359375 0l0 -1.21875q-0.96875 1.40625 -2.640625 1.40625q-0.734375 0 -1.375 -0.28125q-0.625 -0.28125 -0.9375 -0.703125q-0.3125 -0.4375 -0.4375 -1.046875q-0.078125 -0.421875 -0.078125 -1.3125l0 -5.140625l1.40625 0l0 4.59375q0 1.109375 0.078125 1.484375q0.140625 0.5625 0.5625 0.875q0.4375 0.3125 1.0625 0.3125q0.640625 0 1.1875 -0.3125q0.5625 -0.328125 0.78125 -0.890625q0.234375 -0.5625 0.234375 -1.625l0 -4.4375l1.40625 0l0 8.296875l-1.25 0zm3.1953125 0.6875l1.375 0.203125q0.078125 0.640625 0.46875 0.921875q0.53125 0.390625 1.4375 0.390625q0.96875 0 1.5 -0.390625q0.5312805 -0.390625 0.7187805 -1.09375q0.109375 -0.421875 0.109375 -1.8125q-0.9219055 1.09375 -2.2969055 1.09375q-1.71875 0 -2.65625 -1.234375q-0.9375 -1.234375 -0.9375 -2.96875q0 -1.1875 0.421875 -2.1875q0.4375 -1.0 1.25 -1.546875q0.828125 -0.546875 1.921875 -0.546875q1.46875 0 2.4219055 1.1875l0 -1.0l1.296875 0l0 7.171875q0 1.9375 -0.390625 2.75q-0.390625 0.8125 -1.25 1.28125q-0.8594055 0.46875 -2.1094055 0.46875q-1.484375 0 -2.40625 -0.671875q-0.90625 -0.671875 -0.875 -2.015625zm1.171875 -4.984375q0 1.625 0.640625 2.375q0.65625 0.75 1.625 0.75q0.96875 0 1.6250305 -0.734375q0.65625 -0.75 0.65625 -2.34375q0 -1.53125 -0.671875 -2.296875q-0.6719055 -0.78125 -1.6250305 -0.78125q-0.9375 0 -1.59375 0.765625q-0.65625 0.765625 -0.65625 2.265625zm7.460968 0.140625q0 -2.296875 1.28125 -3.40625q1.078125 -0.921875 2.609375 -0.921875q1.71875 0 2.796875 1.125q1.09375 1.109375 1.09375 3.09375q0 1.59375 -0.484375 2.515625q-0.484375 0.921875 -1.40625 1.4375q-0.90625 0.5 -2.0 0.5q-1.734375 0 -2.8125 -1.109375q-1.078125 -1.125 -1.078125 -3.234375zm1.453125 0q0 1.59375 0.6875 2.390625q0.703125 0.796875 1.75 0.796875q1.046875 0 1.734375 -0.796875q0.703125 -0.796875 0.703125 -2.4375q0 -1.53125 -0.703125 -2.328125q-0.6875 -0.796875 -1.734375 -0.796875q-1.046875 0 -1.75 0.796875q-0.6875 0.78125 -0.6875 2.375z" fill-rule="nonzero"/><path fill="#000000" d="m469.44418 86.1725q4.625 -1.3125 6.375 -4.125l1.375 0.3125q0.25 0.25 -0.1875 0.3125l-0.5625 0.75l3.25 0l0.125 -0.25l1.0 0.75q0.5 0.3125 0 0.4375q-3.5 5.625 -11.8125 6.4375l-0.375 -1.375q4.125 -0.375 6.0625 -1.4375q-0.5625 -0.875 -1.8125 -1.6875q-1.5 0.6875 -2.8125 1.125l-0.625 -1.25zm-1.125 -2.5625q3.0625 -0.5625 4.6875 -1.5625q-0.625 -0.6875 -1.75 -1.5q-0.5625 0.4375 -2.25 1.125l-0.625 -1.1875q3.625 -1.4375 4.75 -4.0625l1.25 0.375q0.1875 0.25 -0.1875 0.3125l-0.375 0.5625l3.9375 0l0.125 -0.3125l1.0 0.75q0.5 0.3125 0 0.4375q-3.125 4.75 -9.9375 6.3125l-0.625 -1.25zm5.9375 -2.3125q1.5 -0.8125 2.75 -2.4375l-3.9375 0q-0.4375 0.5 -0.875 0.875q1.125 0.75 2.0625 1.5625zm-0.1875 4.3125q1.1875 0.75 2.0 1.625q1.625 -1.0 2.875 -2.625l-3.5625 0q-0.6875 0.625 -1.3125 1.0zm11.1875 -3.875q0.4375 2.4375 0.6875 4.875l-1.25 0.125q-0.25 -2.3125 -0.75 -4.75l1.3125 -0.25zm7.0 -5.0625l1.1875 0q0.5 0.0625 0.0625 0.375l0 2.5l3.8125 0l0 1.1875l-3.8125 0l0 2.75l3.3125 0l0 6.875l-1.25 0l0 -0.75l-4.3125 0l0 0.875l-1.25 0l0 -7.0l2.25 0l0 -6.8125zm-2.5 4.125l-6.375 0l0 -1.1875l2.6875 0l0 -2.8125l1.1875 0q0.5 0.0625 0.0625 0.375l0 2.4375l2.4375 0l0 1.1875zm-5.625 8.3125q-0.1875 0.625 -0.4375 0.0625l-0.4375 -1.25l3.5625 -0.4375q0.5 -3.0625 0.625 -6.1875l1.5625 0.375q0.5625 0.25 -0.125 0.4375q-0.25 2.5 -0.8125 5.25l1.5625 -0.25l0 1.125l-5.5 0.875zm7.125 -0.6875l4.3125 0l0 -3.75l-4.3125 0l0 3.75zm19.5625 -1.6875q1.2500305 1.1875 2.2500305 2.9375l-1.5000305 0.75q-0.875 -1.875 -1.875 -3.0625l1.125 -0.625zm-2.875 0.0625q1.0625 1.75 1.25 3.375l-1.5625 0.375q-0.25 -1.6875 -0.9375 -3.3125l1.25 -0.4375zm-8.25 3.0625q1.125 -1.125 1.8125 -3.0l1.3125 0.5q-0.4375 1.875 -1.75 3.3125l-1.375 -0.8125zm5.4375 -2.6875q0.5 1.1875 0.375 3.3125l-1.5 0.0625q0.0625 -2.125 -0.1875 -3.3125l1.3125 -0.0625zm4.875 -2.375l0 -2.4375l-7.0 0l0 2.4375l7.0 0zm-3.3125 -8.25q0.5 0.0625 0.0625 0.375l0 1.375l5.2500305 0l0 1.1875l-5.2500305 0l0 1.6875l4.6875 0l0 5.1875l-1.4375 0l0 -0.375l-7.0 0l0 0.5l-1.4375 0l0 -5.3125l3.75 0l0 -4.625l1.375 0z" fill-rule="nonzero"/><path fill="#fff2cc" d="m586.1375 52.519684l96.81891 0l0 42.960632l-96.81891 0z" fill-rule="evenodd"/><path stroke="#ffffff" stroke-width="1.0" stroke-linejoin="round" stroke-linecap="butt" d="m586.1375 52.519684l96.81891 0l0 42.960632l-96.81891 0z" fill-rule="evenodd"/><path fill="#000000" d="m629.922 79.0475l-0.125 -0.9375q-1.5 0.4375 -3.75 1.0q-0.3125 0.5 -0.4375 -0.125l-0.25 -1.125l0.8125 -0.125q0.8125 -2.625 1.0625 -5.875l1.5 0.125q0.1875 0.1875 -0.125 0.375q-0.3125 1.9375 -1.25 5.125l2.25 -0.375q-0.1875 -1.25 -0.625 -2.4375l1.1875 -0.25q0.8125 2.125 1.0625 4.375l-1.3125 0.25zm-5.625 -6.6875q1.9375 -2.125 2.5625 -5.375l1.375 0.0625q0.1875 0.125 -0.125 0.3125q-0.4375 1.5 -0.8125 2.375l5.8125 0l-0.125 9.5q0 1.875 -1.625 1.875l-1.125 0l-0.125 -1.1875l0.8125 0q0.8125 0 0.8125 -1.0l0.125 -8.0l-5.0625 0q-0.5625 1.25 -1.6875 2.625l-0.8125 -1.1875zm-1.4375 -2.125l1.6875 0l0 1.1875l-1.6875 0l0 1.6875q0.9375 0.5625 1.875 1.5625l-0.8125 1.25q-0.5 -0.8125 -1.0625 -1.25l0 6.625l-1.25 0l0 -6.4375q-0.4375 1.375 -1.75 3.0625l-0.6875 -1.5625q1.875 -2.125 2.4375 -4.9375l-1.9375 0l0 -1.1875l1.9375 0l0 -3.3125l1.1875 0q0.5 0.0625 0.0625 0.375l0 2.9375zm26.9375 9.3125l-0.375 1.1875l-6.875 0q-2.5 0 -4.0625 -1.5q-1.1875 1.5 -2.375 2.1875l-0.8125 -1.25q1.3125 -0.6875 2.375 -1.9375q-1.1875 -2.0 -1.5625 -3.3125l1.0625 -0.25q0.3125 1.0 1.125 2.375q0.5625 -1.5625 0.5625 -3.0625l0 -0.5625l-1.3125 0l-0.5625 0.8125l-1.1875 -0.5q1.375 -2.3125 2.5 -4.625l-2.5625 0l0 -1.1875l2.8125 0l0.25 -0.3125l1.25 0.9375q0.125 0.125 -0.25 0.25l-1.6875 3.4375l2.0 0l0 0.9375q0 3.0625 -1.0 5.0625q1.25 1.3125 3.9375 1.3125l6.75 0zm-5.875 -9.0625l0 -1.0625l-2.9375 0l0 -1.0l2.9375 0l0 -1.5625l1.0 0q0.5 0.0625 0.0625 0.375l0 1.1875l3.25 0l0 2.0625l1.25 0l0 1.0l-1.25 0l0 2.125l-3.25 0l0 0.875l3.4375 0l0 1.0l-3.4375 0l0 1.1875l4.1875 0l0 1.0l-4.1875 0l0 1.375l-1.0625 0l0 -1.375l-3.6875 0l0 -1.0l3.6875 0l0 -1.1875l-2.875 0l0 -1.0l2.875 0l0 -0.875l-2.9375 0l0 -1.0l2.9375 0l0 -1.125l-4.0625 0l0 -1.0l4.0625 0zm3.25 1.0l-2.1875 0l0 1.125l2.1875 0l0 -1.125zm0 -2.0625l-2.1875 0l0 1.0625l2.1875 0l0 -1.0625z" fill-rule="nonzero"/><path fill="#000000" fill-opacity="0.0" d="m113.88401 74.44095l44.62992 -0.4409485" fill-rule="evenodd"/><path stroke="#000000" stroke-width="1.0" stroke-linejoin="round" stroke-linecap="butt" d="m113.88401 74.44095l38.630226 -0.38167572" fill-rule="evenodd"/><path fill="#000000" stroke="#000000" stroke-width="1.0" stroke-linecap="butt" d="m152.53055 75.71093l4.5215607 -1.6964874l-4.554199 -1.6068192z" fill-rule="evenodd"/><path fill="#000000" fill-opacity="0.0" d="m255.33282 74.0l44.91339 0" fill-rule="evenodd"/><path stroke="#000000" stroke-width="1.0" stroke-linejoin="round" stroke-linecap="butt" d="m255.33282 74.0l38.91339 0" fill-rule="evenodd"/><path fill="#000000" stroke="#000000" stroke-width="1.0" stroke-linecap="butt" d="m294.24622 75.65173l4.538086 -1.6517334l-4.538086 -1.6517334z" fill-rule="evenodd"/><path fill="#000000" fill-opacity="0.0" d="m397.06198 74.0l44.91339 0" fill-rule="evenodd"/><path stroke="#000000" stroke-width="1.0" stroke-linejoin="round" stroke-linecap="butt" d="m397.06198 74.0l38.91336 0" fill-rule="evenodd"/><path fill="#000000" stroke="#000000" stroke-width="1.0" stroke-linecap="butt" d="m435.97534 75.65173l4.5381165 -1.6517334l-4.5381165 -1.6517334z" fill-rule="evenodd"/><path fill="#000000" fill-opacity="0.0" d="m538.79114 74.0l47.338562 0" fill-rule="evenodd"/><path stroke="#000000" stroke-width="1.0" stroke-linejoin="round" stroke-linecap="butt" d="m538.79114 74.0l41.338562 0" fill-rule="evenodd"/><path fill="#000000" stroke="#000000" stroke-width="1.0" stroke-linecap="butt" d="m580.1297 75.65173l4.538086 -1.6517334l-4.538086 -1.6517334z" fill-rule="evenodd"/><path fill="#fce5cd" d="m45.288715 28.251968l0 0c0 -10.993511 8.911999 -19.905512 19.905514 -19.905512l0 0c5.2792664 0 10.342308 2.0971823 14.075317 5.8301897c3.7330093 3.7330084 5.8301926 8.796052 5.8301926 14.075322l0 0c0 10.993511 -8.912003 19.905514 -19.90551 19.905514l0 0c-10.993515 0 -19.905514 -8.912003 -19.905514 -19.905514z" fill-rule="evenodd"/><path stroke="#000000" stroke-width="1.0" stroke-linejoin="round" stroke-linecap="butt" d="m45.288715 28.251968l0 0c0 -10.993511 8.911999 -19.905512 19.905514 -19.905512l0 0c5.2792664 0 10.342308 2.0971823 14.075317 5.8301897c3.7330093 3.7330084 5.8301926 8.796052 5.8301926 14.075322l0 0c0 10.993511 -8.912003 19.905514 -19.90551 19.905514l0 0c-10.993515 0 -19.905514 -8.912003 -19.905514 -19.905514z" fill-rule="evenodd"/><path fill="#000000" d="m66.959496 35.171967l-1.640625 0l0 -10.453125q-0.59375 0.5625 -1.5625038 1.140625q-0.953125 0.5625 -1.71875 0.84375l0 -1.59375q1.375 -0.640625 2.4062538 -1.5625q1.03125 -0.921875 1.453125 -1.78125l1.0625 0l0 13.40625z" fill-rule="nonzero"/><path fill="#fce5cd" d="m187.01837 28.251968l0 0c0 -10.993511 8.912003 -19.905512 19.905518 -19.905512l0 0c5.2792664 0 10.342316 2.0971823 14.075317 5.8301897c3.7330017 3.7330084 5.830185 8.796052 5.830185 14.075322l0 0c0 10.993511 -8.912003 19.905514 -19.905502 19.905514l0 0c-10.993515 0 -19.905518 -8.912003 -19.905518 -19.905514z" fill-rule="evenodd"/><path stroke="#000000" stroke-width="1.0" stroke-linejoin="round" stroke-linecap="butt" d="m187.01837 28.251968l0 0c0 -10.993511 8.912003 -19.905512 19.905518 -19.905512l0 0c5.2792664 0 10.342316 2.0971823 14.075317 5.8301897c3.7330017 3.7330084 5.830185 8.796052 5.830185 14.075322l0 0c0 10.993511 -8.912003 19.905514 -19.905502 19.905514l0 0c-10.993515 0 -19.905518 -8.912003 -19.905518 -19.905514z" fill-rule="evenodd"/><path fill="#000000" d="m211.12665 33.59384l0 1.578125l-8.828125 0q-0.015625 -0.59375 0.1875 -1.140625q0.34375 -0.90625 1.078125 -1.78125q0.75 -0.875 2.15625 -2.015625q2.171875 -1.78125 2.9375 -2.828125q0.765625 -1.046875 0.765625 -1.96875q0 -0.984375 -0.703125 -1.640625q-0.6875 -0.671875 -1.8125 -0.671875q-1.1875 0 -1.90625 0.71875q-0.703125 0.703125 -0.703125 1.953125l-1.6875 -0.171875q0.171875 -1.890625 1.296875 -2.875q1.140625 -0.984375 3.03125 -0.984375q1.921875 0 3.046875 1.0625q1.125 1.0625 1.125 2.640625q0 0.796875 -0.328125 1.578125q-0.328125 0.78125 -1.09375 1.640625q-0.75 0.84375 -2.53125 2.34375q-1.46875 1.234375 -1.890625 1.6875q-0.421875 0.4375 -0.6875 0.875l6.546875 0z" fill-rule="nonzero"/><path fill="#fce5cd" d="m329.96457 28.251968l0 0c0 -10.993511 8.911987 -19.905512 19.905518 -19.905512l0 0c5.2792664 0 10.342316 2.0971823 14.075317 5.8301897c3.7330017 3.7330084 5.8302 8.796052 5.8302 14.075322l0 0c0 10.993511 -8.912018 19.905514 -19.905518 19.905514l0 0c-10.99353 0 -19.905518 -8.912003 -19.905518 -19.905514z" fill-rule="evenodd"/><path stroke="#000000" stroke-width="1.0" stroke-linejoin="round" stroke-linecap="butt" d="m329.96457 28.251968l0 0c0 -10.993511 8.911987 -19.905512 19.905518 -19.905512l0 0c5.2792664 0 10.342316 2.0971823 14.075317 5.8301897c3.7330017 3.7330084 5.8302 8.796052 5.8302 14.075322l0 0c0 10.993511 -8.912018 19.905514 -19.905518 19.905514l0 0c-10.99353 0 -19.905518 -8.912003 -19.905518 -19.905514z" fill-rule="evenodd"/><path fill="#000000" d="m345.46347 31.640717l1.640625 -0.21875q0.28125 1.40625 0.953125 2.015625q0.6875 0.609375 1.65625 0.609375q1.15625 0 1.953125 -0.796875q0.796875 -0.796875 0.796875 -1.984375q0 -1.125 -0.734375 -1.859375q-0.734375 -0.734375 -1.875 -0.734375q-0.46875 0 -1.15625 0.171875l0.1875 -1.4375q0.15625 0.015625 0.265625 0.015625q1.046875 0 1.875 -0.546875q0.84375 -0.546875 0.84375 -1.671875q0 -0.90625 -0.609375 -1.5q-0.609375 -0.59375 -1.578125 -0.59375q-0.953125 0 -1.59375 0.609375q-0.640625 0.59375 -0.8125 1.796875l-1.640625 -0.296875q0.296875 -1.640625 1.359375 -2.546875q1.0625 -0.90625 2.65625 -0.90625q1.09375 0 2.0 0.46875q0.921875 0.46875 1.40625 1.28125q0.5 0.8125 0.5 1.71875q0 0.859375 -0.46875 1.578125q-0.46875 0.703125 -1.375 1.125q1.1875 0.28125 1.84375 1.140625q0.65625 0.859375 0.65625 2.15625q0 1.734375 -1.28125 2.953125q-1.265625 1.21875 -3.21875 1.21875q-1.765625 0 -2.921875 -1.046875q-1.15625 -1.046875 -1.328125 -2.71875z" fill-rule="nonzero"/><path fill="#fce5cd" d="m470.47375 28.251968l0 0c0 -10.993511 8.911987 -19.905512 19.905518 -19.905512l0 0c5.2792664 0 10.342316 2.0971823 14.075317 5.8301897c3.7330017 3.7330084 5.8302 8.796052 5.8302 14.075322l0 0c0 10.993511 -8.912018 19.905514 -19.905518 19.905514l0 0c-10.99353 0 -19.905518 -8.912003 -19.905518 -19.905514z" fill-rule="evenodd"/><path stroke="#000000" stroke-width="1.0" stroke-linejoin="round" stroke-linecap="butt" d="m470.47375 28.251968l0 0c0 -10.993511 8.911987 -19.905512 19.905518 -19.905512l0 0c5.2792664 0 10.342316 2.0971823 14.075317 5.8301897c3.7330017 3.7330084 5.8302 8.796052 5.8302 14.075322l0 0c0 10.993511 -8.912018 19.905514 -19.905518 19.905514l0 0c-10.99353 0 -19.905518 -8.912003 -19.905518 -19.905514z" fill-rule="evenodd"/><path fill="#000000" d="m491.22266 35.171967l0 -3.203125l-5.796875 0l0 -1.5l6.09375 -8.65625l1.34375 0l0 8.65625l1.796875 0l0 1.5l-1.796875 0l0 3.203125l-1.640625 0zm0 -4.703125l0 -6.015625l-4.1875 6.015625l4.1875 0z" fill-rule="nonzero"/><path fill="#fce5cd" d="m610.9829 28.251968l0 0c0 -10.993511 8.912048 -19.905512 19.905518 -19.905512l0 0c5.279297 0 10.342346 2.0971823 14.075317 5.8301897c3.7330322 3.7330084 5.8302 8.796052 5.8302 14.075322l0 0c0 10.993511 -8.911987 19.905514 -19.905518 19.905514l0 0c-10.993469 0 -19.905518 -8.912003 -19.905518 -19.905514z" fill-rule="evenodd"/><path stroke="#000000" stroke-width="1.0" stroke-linejoin="round" stroke-linecap="butt" d="m610.9829 28.251968l0 0c0 -10.993511 8.912048 -19.905512 19.905518 -19.905512l0 0c5.279297 0 10.342346 2.0971823 14.075317 5.8301897c3.7330322 3.7330084 5.8302 8.796052 5.8302 14.075322l0 0c0 10.993511 -8.911987 19.905514 -19.905518 19.905514l0 0c-10.993469 0 -19.905518 -8.912003 -19.905518 -19.905514z" fill-rule="evenodd"/><path fill="#000000" d="m626.4819 31.671967l1.71875 -0.140625q0.1875 1.25 0.875 1.890625q0.703125 0.625 1.6875 0.625q1.1875 0 2.0 -0.890625q0.82806396 -0.890625 0.82806396 -2.359375q0 -1.40625 -0.79681396 -2.21875q-0.78125 -0.8125 -2.0625 -0.8125q-0.78125 0 -1.421875 0.359375q-0.640625 0.359375 -1.0 0.9375l-1.546875 -0.203125l1.296875 -6.859375l6.640564 0l0 1.5625l-5.328064 0l-0.71875 3.59375q1.203125 -0.84375 2.515625 -0.84375q1.749939 0 2.953064 1.21875q1.203125 1.203125 1.203125 3.109375q0 1.8125 -1.046875 3.140625q-1.296875 1.625 -3.515564 1.625q-1.8125 0 -2.96875 -1.015625q-1.15625 -1.03125 -1.3125 -2.71875z" fill-rule="nonzero"/></g></svg>