<svg version="1.1" viewBox="0.0 0.0 598.9475065616798 189.0524934383202" fill="none" stroke="none" stroke-linecap="square" stroke-miterlimit="10" xmlns:xlink="http://www.w3.org/1999/xlink" xmlns="http://www.w3.org/2000/svg"><clipPath id="p.0"><path d="m0 0l598.9475 0l0 189.05249l-598.9475 0l0 -189.05249z" clip-rule="nonzero"/></clipPath><g clip-path="url(#p.0)"><path fill="#000000" fill-opacity="0.0" d="m0 0l598.9475 0l0 189.05249l-598.9475 0z" fill-rule="evenodd"/><path fill="#f6b26b" d="m195.61417 27.725721l63.874023 0l0 60.7874l-63.874023 0z" fill-rule="evenodd"/><path stroke="#000000" stroke-width="1.0" stroke-linejoin="round" stroke-linecap="butt" d="m195.61417 27.725721l63.874023 0l0 60.7874l-63.874023 0z" fill-rule="evenodd"/><path fill="#000000" d="m219.53555 47.045673q-0.140625 -0.515625 -0.375 -1.03125q0.890625 0 1.140625 -0.234375q0.265625 -0.234375 0.21875 -2.203125l-2.15625 0l0 4.359375q0 0.65625 0.5625 0.65625l1.921875 0q0.328125 0.046875 0.484375 -0.328125q0.171875 -0.375 0.21875 -0.9375q0.375 0.234375 0.984375 0.421875q-0.328125 1.21875 -0.640625 1.421875q-0.296875 0.21875 -0.8125 0.21875l-2.625 0q-0.9375 0 -0.9375 -0.984375l0 -3.984375q0 -0.703125 -0.046875 -1.546875q-0.328125 0.375 -0.75 0.796875q-0.421875 -0.46875 -0.796875 -0.703125q0.515625 -0.375 0.984375 -0.8125q0.46875 -0.453125 0.890625 -1.015625q0.421875 -0.5625 0.796875 -1.125q0.375 -0.5625 0.65625 -1.265625q0.375 0.28125 1.03125 0.609375q-0.28125 0.1875 -0.46875 0.375q0.421875 0.328125 1.078125 0.75q0.65625 0.421875 1.640625 1.40625q-0.375 0.28125 -0.703125 0.75q-0.890625 -1.078125 -1.390625 -1.453125q-0.484375 -0.375 -1.0 -0.75q-0.703125 0.984375 -1.125 1.5l-0.703125 0.796875l3.84375 0q-0.046875 1.359375 -0.046875 2.109375q0 0.703125 -0.125 1.203125q-0.109375 0.484375 -0.578125 0.703125q-0.46875 0.203125 -1.171875 0.296875zm6.75 -7.96875q-0.046875 0.796875 -0.046875 1.640625l0 7.734375q0 0.796875 -0.40625 0.984375q-0.390625 0.1875 -1.328125 0.328125q-0.140625 -0.609375 -0.421875 -1.078125q0.84375 0 1.078125 -0.046875q0.234375 -0.046875 0.234375 -0.515625l0 -7.40625q0 -0.75 -0.046875 -1.640625l0.9375 0zm-2.4375 1.640625q-0.046875 0.75 -0.046875 1.640625l0 3.375q0 0.890625 0.046875 1.5l-0.984375 0q0.046875 -0.75 0.046875 -1.5l0 -3.515625q0 -0.703125 -0.046875 -1.5l0.984375 0z" fill-rule="nonzero"/><path fill="#000000" d="m238.98868 48.40505l-0.28125 0.890625l-5.15625 0q-1.875 0 -3.046875 -1.125q-0.890625 1.125 -1.78125 1.640625l-0.609375 -0.9375q0.984375 -0.515625 1.78125 -1.453125q-0.890625 -1.5 -1.171875 -2.484375l0.796875 -0.1875q0.234375 0.75 0.84375 1.78125q0.421875 -1.171875 0.421875 -2.296875l0 -0.421875l-0.984375 0l-0.421875 0.609375l-0.890625 -0.375q1.03125 -1.734375 1.875 -3.46875l-1.921875 0l0 -0.890625l2.109375 0l0.1875 -0.234375l0.9375 0.703125q0.09375 0.09375 -0.1875 0.1875l-1.265625 2.578125l1.5 0l0 0.703125q0 2.296875 -0.75 3.796875q0.9375 0.984375 2.953125 0.984375l5.0625 0zm-4.40625 -6.796875l0 -0.796875l-2.203125 0l0 -0.75l2.203125 0l0 -1.171875l0.75 0q0.375 0.046875 0.046875 0.28125l0 0.890625l2.4375 0l0 1.546875l0.9375 0l0 0.75l-0.9375 0l0 1.59375l-2.4375 0l0 0.65625l2.578125 0l0 0.75l-2.578125 0l0 0.890625l3.140625 0l0 0.75l-3.140625 0l0 1.03125l-0.796875 0l0 -1.03125l-2.765625 0l0 -0.75l2.765625 0l0 -0.890625l-2.15625 0l0 -0.75l2.15625 0l0 -0.65625l-2.203125 0l0 -0.75l2.203125 0l0 -0.84375l-3.046875 0l0 -0.75l3.046875 0zm2.4375 0.75l-1.640625 0l0 0.84375l1.640625 0l0 -0.84375zm0 -1.546875l-1.640625 0l0 0.796875l1.640625 0l0 -0.796875z" fill-rule="nonzero"/><path fill="#000000" d="m206.6713 65.030045l0 -8.609371l0.953125 0l0 0.796875q0.34375 -0.46875 0.765625 -0.703125q0.4375 -0.234375 1.046875 -0.234375q0.796875 0 1.40625 0.40625q0.609375 0.40625 0.90625 1.15625q0.3125 0.75 0.3125 1.640625q0 0.953125 -0.34375 1.71875q-0.328125 0.765625 -0.984375 1.171875q-0.65625 0.40625 -1.375 0.40625q-0.53125 0 -0.953125 -0.21875q-0.421875 -0.234375 -0.6875 -0.5625l0 3.0312462l-1.046875 0zm0.953125 -5.468746q0 1.203125 0.484375 1.78125q0.484375 0.5625 1.171875 0.5625q0.703125 0 1.203125 -0.59375q0.5 -0.59375 0.5 -1.84375q0 -1.1875 -0.484375 -1.765625q-0.484375 -0.59375 -1.171875 -0.59375q-0.671875 0 -1.1875 0.625q-0.515625 0.625 -0.515625 1.828125zm9.798828 3.078125l0 -0.921875q-0.734375 1.0625 -1.984375 1.0625q-0.546875 0 -1.03125 -0.203125q-0.46875 -0.21875 -0.703125 -0.53125q-0.234375 -0.328125 -0.328125 -0.796875q-0.0625 -0.296875 -0.0625 -0.984375l0 -3.84375l1.0625 0l0 3.453125q0 0.8125 0.0625 1.109375q0.09375 0.40625 0.40625 0.65625q0.328125 0.234375 0.8125 0.234375q0.46875 0 0.875 -0.234375q0.421875 -0.25 0.59375 -0.671875q0.1875 -0.421875 0.1875 -1.21875l0 -3.328125l1.046875 0l0 6.21875l-0.9375 0zm3.5644531 0l-0.984375 0l0 -8.59375l1.0625 0l0 3.0625q0.671875 -0.828125 1.703125 -0.828125q0.578125 0 1.078125 0.234375q0.515625 0.21875 0.84375 0.640625q0.34375 0.421875 0.53125 1.015625q0.1875 0.59375 0.1875 1.265625q0 1.59375 -0.796875 2.46875q-0.796875 0.875 -1.890625 0.875q-1.109375 0 -1.734375 -0.921875l0 0.78125zm-0.015625 -3.15625q0 1.109375 0.3125 1.609375q0.5 0.8125 1.34375 0.8125q0.6875 0 1.1875 -0.59375q0.515625 -0.59375 0.515625 -1.796875q0 -1.21875 -0.484375 -1.796875q-0.484375 -0.578125 -1.171875 -0.578125q-0.6875 0 -1.203125 0.609375q-0.5 0.59375 -0.5 1.734375zm5.689453 3.15625l0 -8.59375l1.0625 0l0 8.59375l-1.0625 0zm2.6972656 -7.375l0 -1.21875l1.0625 0l0 1.21875l-1.0625 0zm0 7.375l0 -6.21875l1.0625 0l0 6.21875l-1.0625 0zm6.7285156 -2.28125l1.03125 0.140625q-0.171875 1.0625 -0.875 1.671875q-0.703125 0.609375 -1.71875 0.609375q-1.28125 0 -2.0625 -0.828125q-0.765625 -0.84375 -0.765625 -2.40625q0 -1.0 0.328125 -1.75q0.34375 -0.765625 1.015625 -1.140625q0.6875 -0.375 1.5 -0.375q1.0 0 1.640625 0.515625q0.65625 0.5 0.84375 1.453125l-1.03125 0.15625q-0.140625 -0.625 -0.515625 -0.9375q-0.375 -0.328125 -0.90625 -0.328125q-0.796875 0 -1.296875 0.578125q-0.5 0.5625 -0.5 1.796875q0 1.265625 0.484375 1.828125q0.484375 0.5625 1.25 0.5625q0.625 0 1.03125 -0.375q0.421875 -0.375 0.546875 -1.171875z" fill-rule="nonzero"/><path fill="#000000" d="m243.36856 60.764423q-2.34375 2.015625 -4.828125 2.765625l-0.421875 -1.125q2.484375 -0.703125 4.453125 -2.390625q-1.640625 -1.78125 -2.203125 -4.125l-2.25 0l0 -0.890625l4.5 0l0 -1.78125l1.03125 0q0.46875 0.09375 0.046875 0.375l0 1.40625l4.546875 0l0 0.890625l-2.203125 0q-0.375 2.203125 -1.96875 4.125q1.640625 1.453125 4.359375 2.15625l-0.421875 1.125q-2.390625 -0.609375 -4.640625 -2.53125zm-0.046875 -1.5q1.40625 -1.6875 1.734375 -3.375l-3.65625 0q0.28125 1.59375 1.921875 3.375z" fill-rule="nonzero"/><path fill="#000000" d="m221.55118 68.38942q-0.046875 0.328125 -0.28125 1.3125l1.453125 0l0 -2.578125l0.890625 0q0.375 0.046875 0.046875 0.28125l0 2.296875l2.296875 0l0 0.890625l-2.296875 0l0 2.34375l3.234375 0l0 0.890625l-3.234375 0l0 3.796875l-0.9375 0l0 -3.796875l-3.46875 0l0 -0.890625l3.46875 0l0 -2.34375l-1.734375 0q-0.46875 1.265625 -1.125 2.015625l-0.796875 -0.75q1.359375 -1.734375 1.5 -3.984375l1.125 0.28125q0.1875 0.1875 -0.140625 0.234375zm-2.90625 9.28125l-0.9375 0l0 -5.8125q-0.328125 0.609375 -0.84375 1.21875l-0.75 -0.84375q1.78125 -2.0625 2.109375 -5.203125l0.984375 0.1875q0.328125 0.09375 0 0.234375q-0.28125 1.546875 -0.65625 2.625l0.1875 0.046875q0.140625 0.140625 -0.09375 0.28125l0 7.265625z" fill-rule="nonzero"/><path fill="#000000" d="m237.72305 70.217545q-0.46875 0.46875 -0.734375 0.96875q-0.25 0.484375 -0.8125 1.421875l0.9375 0q0.84375 0 1.546875 -0.046875l0 0.890625q-0.703125 -0.046875 -1.5 -0.046875l-2.578125 0q0.421875 0.703125 1.0 1.390625q0.59375 0.671875 1.578125 1.328125q0.984375 0.65625 1.6875 0.84375q-0.328125 0.234375 -0.703125 0.890625q-0.703125 -0.328125 -1.640625 -1.0625q-0.9375 -0.71875 -1.671875 -1.625q-0.71875 -0.921875 -1.046875 -1.71875q-0.234375 1.03125 -0.75 1.6875q-0.515625 0.65625 -1.171875 1.171875q-0.65625 0.515625 -1.265625 0.84375q-0.609375 0.328125 -1.640625 0.75q-0.1875 -0.515625 -0.515625 -0.890625q0.796875 -0.1875 1.59375 -0.578125q0.796875 -0.40625 1.453125 -0.9375q0.65625 -0.546875 0.984375 -1.078125q0.328125 -0.546875 0.421875 -1.015625l-2.8125 0q-0.9375 0 -1.5 0.046875l0 -0.890625q0.5625 0.046875 1.5 0.046875l2.953125 0q0.09375 -1.5 0.09375 -3.09375l-2.4375 0q-0.9375 0 -1.546875 0.046875l0 -0.84375q0.609375 0.046875 1.546875 0.046875l2.4375 0l0 -0.46875q0 -0.75 -0.046875 -1.3125l1.03125 0q-0.140625 0.75 -0.09375 1.453125l0 0.328125l2.203125 0q0.984375 0 1.828125 -0.046875l0 0.84375q-0.796875 -0.046875 -1.78125 -0.046875l-2.25 0q0 1.5 -0.09375 3.09375l2.15625 0q-0.375 -0.328125 -0.75 -0.515625q0.5625 -0.703125 0.84375 -1.265625q0.28125 -0.5625 0.515625 -1.125q0.28125 0.234375 1.03125 0.515625zm-7.171875 -0.46875q0.609375 0.796875 1.40625 2.109375q-0.515625 0.234375 -0.9375 0.515625q-0.328125 -0.65625 -0.5625 -1.09375q-0.234375 -0.453125 -0.703125 -1.015625q0.328125 -0.1875 0.796875 -0.515625z" fill-rule="nonzero"/><path fill="#f6b26b" d="m275.61417 27.725721l63.874023 0l0 60.7874l-63.874023 0z" fill-rule="evenodd"/><path stroke="#000000" stroke-width="1.0" stroke-linejoin="round" stroke-linecap="butt" d="m275.61417 27.725721l63.874023 0l0 60.7874l-63.874023 0z" fill-rule="evenodd"/><path fill="#000000" d="m293.53555 47.045673q-0.140625 -0.515625 -0.375 -1.03125q0.890625 0 1.140625 -0.234375q0.265625 -0.234375 0.21875 -2.203125l-2.15625 0l0 4.359375q0 0.65625 0.5625 0.65625l1.921875 0q0.328125 0.046875 0.484375 -0.328125q0.171875 -0.375 0.21875 -0.9375q0.375 0.234375 0.984375 0.421875q-0.328125 1.21875 -0.640625 1.421875q-0.296875 0.21875 -0.8125 0.21875l-2.625 0q-0.9375 0 -0.9375 -0.984375l0 -3.984375q0 -0.703125 -0.046875 -1.546875q-0.328125 0.375 -0.75 0.796875q-0.421875 -0.46875 -0.796875 -0.703125q0.515625 -0.375 0.984375 -0.8125q0.46875 -0.453125 0.890625 -1.015625q0.421875 -0.5625 0.796875 -1.125q0.375 -0.5625 0.65625 -1.265625q0.375 0.28125 1.03125 0.609375q-0.28125 0.1875 -0.46875 0.375q0.421875 0.328125 1.078125 0.75q0.65625 0.421875 1.640625 1.40625q-0.375 0.28125 -0.703125 0.75q-0.890625 -1.078125 -1.390625 -1.453125q-0.484375 -0.375 -1.0 -0.75q-0.703125 0.984375 -1.125 1.5l-0.703125 0.796875l3.84375 0q-0.046875 1.359375 -0.046875 2.109375q0 0.703125 -0.125 1.203125q-0.109375 0.484375 -0.578125 0.703125q-0.46875 0.203125 -1.171875 0.296875zm6.75 -7.96875q-0.046875 0.796875 -0.046875 1.640625l0 7.734375q0 0.796875 -0.40625 0.984375q-0.390625 0.1875 -1.328125 0.328125q-0.140625 -0.609375 -0.421875 -1.078125q0.84375 0 1.078125 -0.046875q0.234375 -0.046875 0.234375 -0.515625l0 -7.40625q0 -0.75 -0.046875 -1.640625l0.9375 0zm-2.4375 1.640625q-0.046875 0.75 -0.046875 1.640625l0 3.375q0 0.890625 0.046875 1.5l-0.984375 0q0.046875 -0.75 0.046875 -1.5l0 -3.515625q0 -0.703125 -0.046875 -1.5l0.984375 0z" fill-rule="nonzero"/><path fill="#000000" d="m312.98868 48.40505l-0.28125 0.890625l-5.15625 0q-1.875 0 -3.046875 -1.125q-0.890625 1.125 -1.78125 1.640625l-0.609375 -0.9375q0.984375 -0.515625 1.78125 -1.453125q-0.890625 -1.5 -1.171875 -2.484375l0.796875 -0.1875q0.234375 0.75 0.84375 1.78125q0.421875 -1.171875 0.421875 -2.296875l0 -0.421875l-0.984375 0l-0.421875 0.609375l-0.890625 -0.375q1.03125 -1.734375 1.875 -3.46875l-1.921875 0l0 -0.890625l2.109375 0l0.1875 -0.234375l0.9375 0.703125q0.09375 0.09375 -0.1875 0.1875l-1.265625 2.578125l1.5 0l0 0.703125q0 2.296875 -0.75 3.796875q0.9375 0.984375 2.953125 0.984375l5.0625 0zm-4.40625 -6.796875l0 -0.796875l-2.203125 0l0 -0.75l2.203125 0l0 -1.171875l0.75 0q0.375 0.046875 0.046875 0.28125l0 0.890625l2.4375 0l0 1.546875l0.9375 0l0 0.75l-0.9375 0l0 1.59375l-2.4375 0l0 0.65625l2.578125 0l0 0.75l-2.578125 0l0 0.890625l3.140625 0l0 0.75l-3.140625 0l0 1.03125l-0.796875 0l0 -1.03125l-2.765625 0l0 -0.75l2.765625 0l0 -0.890625l-2.15625 0l0 -0.75l2.15625 0l0 -0.65625l-2.203125 0l0 -0.75l2.203125 0l0 -0.84375l-3.046875 0l0 -0.75l3.046875 0zm2.4375 0.75l-1.640625 0l0 0.84375l1.640625 0l0 -0.84375zm0 -1.546875l-1.640625 0l0 0.796875l1.640625 0l0 -0.796875zm13.640625 7.03125q-2.484375 -0.703125 -3.75 -2.578125l-2.765625 0q-1.078125 2.109375 -3.65625 2.8125l-0.375 -0.9375q2.15625 -0.5625 3.046875 -1.875l-2.859375 0l0 -0.75l2.71875 0l0 -3.5625l-2.015625 0l0 -0.75l2.015625 0l0 -1.3125l0.890625 0q0.46875 0.046875 0.046875 0.28125l0 1.03125l3.140625 0l0 -1.3125l0.890625 0q0.46875 0.046875 0.046875 0.28125l0 1.03125l1.921875 0l0 0.75l-1.921875 0l0 3.5625l2.671875 0l0 0.75l-2.71875 0q0.65625 0.984375 3.046875 1.59375l-0.375 0.984375zm-7.453125 -0.328125l0 -0.75l1.828125 0l0 -1.03125l0.890625 0q0.46875 0.046875 0.046875 0.28125l0 0.75l1.921875 0l0 0.75l-1.921875 0l0 0.9375l4.03125 0l0 0.890625l-8.953125 0l0 -0.890625l3.984375 0l0 -0.9375l-1.828125 0zm0.75 -6.5625l0 0.703125l3.140625 0l0 -0.703125l-3.140625 0zm0 1.453125l0 0.65625l3.140625 0l0 -0.65625l-3.140625 0zm0 1.40625l0 0.703125l3.140625 0l0 -0.703125l-3.140625 0z" fill-rule="nonzero"/><path fill="#000000" d="m300.42618 61.84255q-2.859375 -1.78125 -4.453125 -4.546875l0 2.953125l1.921875 0l0 0.890625l-1.921875 0l0 2.53125l-0.9375 0l0 -2.53125l-1.828125 0l0 -0.890625l1.828125 0l0 -2.953125q-1.359375 3.0 -4.40625 4.78125l-0.515625 -0.984375q3.1875 -1.734375 4.546875 -5.0625l-4.078125 0l0 -0.890625l4.453125 0l0 -2.109375l0.890625 0q0.375 0.046875 0.046875 0.28125l0 1.828125l4.5 0l0 0.890625l-4.171875 0q1.59375 2.859375 4.640625 4.734375l-0.515625 1.078125zm10.640625 0.375l0 -2.109375l-2.34375 0l0 2.109375l2.34375 0zm0.9375 1.265625l-0.9375 0l0 -0.515625l-2.34375 0l0 0.65625l-0.9375 0l0 -4.265625l4.21875 0l0 4.125zm-3.328125 -8.71875q0.234375 0.65625 1.171875 1.6875q0.84375 -1.125 1.078125 -1.6875l-2.25 0zm1.171875 3.0q-1.640625 1.5 -3.046875 2.015625l-0.421875 -0.9375q1.3125 -0.421875 2.859375 -1.78125q-0.375 -0.375 -0.984375 -1.359375q-0.46875 1.078125 -0.9375 1.546875l-0.703125 -0.703125q1.125 -1.5 1.734375 -3.75l0.984375 0.28125q0.1875 0.1875 -0.140625 0.234375l-0.234375 0.5625l2.390625 0l0.140625 -0.234375l0.75 0.609375q0.1875 0.140625 -0.1875 0.28125q-0.65625 1.5 -1.546875 2.53125q1.59375 1.21875 2.71875 1.59375l-0.375 1.03125q-1.125 -0.375 -3.0 -1.921875zm-3.421875 -4.21875l0 3.46875l-1.171875 0l0 1.734375l1.078125 0l0 0.890625l-1.078125 0l0 2.15625l1.640625 -0.515625l0.1875 0.84375l-4.3125 1.21875q-0.046875 0.375 -0.234375 0.1875l-0.375 -1.03125l0.5625 -0.09375l0 -4.359375l0.890625 0q0.375 0.046875 0.046875 0.28125l0 3.84375l0.65625 -0.140625l0 -5.015625l-0.84375 0l-0.796875 0l0 -3.46875l3.75 0zm-0.9375 2.71875l0 -1.96875l-1.875 0l0 1.96875l1.875 0zm8.625 2.53125q1.828125 -1.40625 2.8125 -3.5625l0.9375 0.5625q0.09375 0.09375 -0.1875 0.1875q-0.28125 0.515625 -1.03125 1.546875l0 6.09375l-0.9375 0l0 -4.921875q-0.609375 0.65625 -1.125 1.125l-0.46875 -1.03125zm6.46875 0.796875l0 -1.359375l0.890625 0q0.375 0.046875 0.046875 0.28125l0 1.078125l2.296875 0l0 0.890625l-2.296875 0l0 1.875l3.09375 0l0 0.890625l-7.21875 0l0 -0.890625l3.1875 0l0 -1.875l-2.390625 0l0 -0.890625l2.390625 0zm3.28125 -5.53125l-0.28125 0.1875q-0.9375 1.640625 -1.828125 2.4375q1.125 0.65625 3.09375 0.890625l-0.234375 1.03125q-2.296875 -0.375 -3.609375 -1.3125q-1.6875 1.125 -3.46875 1.6875l-0.328125 -0.984375q1.734375 -0.421875 3.0 -1.3125q-0.9375 -1.078125 -1.40625 -2.34375l-0.890625 0l0 -0.890625l5.0625 0l0.140625 -0.140625l0.75 0.75zm-6.515625 -0.375q-1.125 1.78125 -2.578125 2.859375l-0.5625 -0.9375q1.5 -0.984375 2.390625 -2.671875l0.9375 0.5625q0.09375 0.09375 -0.1875 0.1875zm3.65625 2.4375q0.75 -0.65625 1.40625 -1.78125l-2.671875 0q0.421875 1.03125 1.265625 1.78125z" fill-rule="nonzero"/><path fill="#000000" d="m301.8705 76.63942l0 -8.59375l5.796875 0l0 1.015625l-4.65625 0l0 2.65625l4.03125 0l0 1.015625l-4.03125 0l0 3.90625l-1.140625 0zm6.720703 -1.859375l1.03125 -0.15625q0.09375 0.625 0.484375 0.953125q0.40625 0.328125 1.140625 0.328125q0.71875 0 1.0625 -0.28125q0.359375 -0.296875 0.359375 -0.703125q0 -0.359375 -0.3125 -0.5625q-0.21875 -0.140625 -1.078125 -0.359375q-1.15625 -0.296875 -1.609375 -0.5q-0.4375 -0.21875 -0.671875 -0.59375q-0.234375 -0.375 -0.234375 -0.84375q0 -0.40625 0.1875 -0.765625q0.1875 -0.359375 0.515625 -0.59375q0.25 -0.171875 0.671875 -0.296875q0.421875 -0.125 0.921875 -0.125q0.71875 0 1.265625 0.21875q0.5625 0.203125 0.828125 0.5625q0.265625 0.359375 0.359375 0.953125l-1.03125 0.140625q-0.0625 -0.46875 -0.40625 -0.734375q-0.328125 -0.28125 -0.953125 -0.28125q-0.71875 0 -1.03125 0.25q-0.3125 0.234375 -0.3125 0.5625q0 0.203125 0.125 0.359375q0.140625 0.171875 0.40625 0.28125q0.15625 0.0625 0.9375 0.265625q1.125 0.3125 1.5625 0.5q0.4375 0.1875 0.6875 0.546875q0.25 0.359375 0.25 0.90625q0 0.53125 -0.3125 1.0q-0.296875 0.453125 -0.875 0.71875q-0.578125 0.25 -1.3125 0.25q-1.21875 0 -1.859375 -0.5q-0.625 -0.515625 -0.796875 -1.5z" fill-rule="nonzero"/><path fill="#f6b26b" d="m355.61417 27.725721l63.874023 0l0 60.7874l-63.874023 0z" fill-rule="evenodd"/><path stroke="#000000" stroke-width="1.0" stroke-linejoin="round" stroke-linecap="butt" d="m355.61417 27.725721l63.874023 0l0 60.7874l-63.874023 0z" fill-rule="evenodd"/><path fill="#000000" d="m373.53555 54.045673q-0.140625 -0.515625 -0.375 -1.03125q0.890625 0 1.140625 -0.234375q0.265625 -0.234375 0.21875 -2.203125l-2.15625 0l0 4.359375q0 0.65625 0.5625 0.65625l1.921875 0q0.328125 0.046875 0.484375 -0.328125q0.171875 -0.375 0.21875 -0.9375q0.375 0.234375 0.984375 0.421875q-0.328125 1.21875 -0.640625 1.421875q-0.296875 0.21875 -0.8125 0.21875l-2.625 0q-0.9375 0 -0.9375 -0.984375l0 -3.984375q0 -0.703125 -0.046875 -1.546875q-0.328125 0.375 -0.75 0.796875q-0.421875 -0.46875 -0.796875 -0.703125q0.515625 -0.375 0.984375 -0.8125q0.46875 -0.453125 0.890625 -1.015625q0.421875 -0.5625 0.796875 -1.125q0.375 -0.5625 0.65625 -1.265625q0.375 0.28125 1.03125 0.609375q-0.28125 0.1875 -0.46875 0.375q0.421875 0.328125 1.078125 0.75q0.65625 0.421875 1.640625 1.40625q-0.375 0.28125 -0.703125 0.75q-0.890625 -1.078125 -1.390625 -1.453125q-0.484375 -0.375 -1.0 -0.75q-0.703125 0.984375 -1.125 1.5l-0.703125 0.796875l3.84375 0q-0.046875 1.359375 -0.046875 2.109375q0 0.703125 -0.125 1.203125q-0.109375 0.484375 -0.578125 0.703125q-0.46875 0.203125 -1.171875 0.296875zm6.75 -7.96875q-0.046875 0.796875 -0.046875 1.640625l0 7.734375q0 0.796875 -0.40625 0.984375q-0.390625 0.1875 -1.328125 0.328125q-0.140625 -0.609375 -0.421875 -1.078125q0.84375 0 1.078125 -0.046875q0.234375 -0.046875 0.234375 -0.515625l0 -7.40625q0 -0.75 -0.046875 -1.640625l0.9375 0zm-2.4375 1.640625q-0.046875 0.75 -0.046875 1.640625l0 3.375q0 0.890625 0.046875 1.5l-0.984375 0q0.046875 -0.75 0.046875 -1.5l0 -3.515625q0 -0.703125 -0.046875 -1.5l0.984375 0z" fill-rule="nonzero"/><path fill="#000000" d="m392.98868 55.40505l-0.28125 0.890625l-5.15625 0q-1.875 0 -3.046875 -1.125q-0.890625 1.125 -1.78125 1.640625l-0.609375 -0.9375q0.984375 -0.515625 1.78125 -1.453125q-0.890625 -1.5 -1.171875 -2.484375l0.796875 -0.1875q0.234375 0.75 0.84375 1.78125q0.421875 -1.171875 0.421875 -2.296875l0 -0.421875l-0.984375 0l-0.421875 0.609375l-0.890625 -0.375q1.03125 -1.734375 1.875 -3.46875l-1.921875 0l0 -0.890625l2.109375 0l0.1875 -0.234375l0.9375 0.703125q0.09375 0.09375 -0.1875 0.1875l-1.265625 2.578125l1.5 0l0 0.703125q0 2.296875 -0.75 3.796875q0.9375 0.984375 2.953125 0.984375l5.0625 0zm-4.40625 -6.796875l0 -0.796875l-2.203125 0l0 -0.75l2.203125 0l0 -1.171875l0.75 0q0.375 0.046875 0.046875 0.28125l0 0.890625l2.4375 0l0 1.546875l0.9375 0l0 0.75l-0.9375 0l0 1.59375l-2.4375 0l0 0.65625l2.578125 0l0 0.75l-2.578125 0l0 0.890625l3.140625 0l0 0.75l-3.140625 0l0 1.03125l-0.796875 0l0 -1.03125l-2.765625 0l0 -0.75l2.765625 0l0 -0.890625l-2.15625 0l0 -0.75l2.15625 0l0 -0.65625l-2.203125 0l0 -0.75l2.203125 0l0 -0.84375l-3.046875 0l0 -0.75l3.046875 0zm2.4375 0.75l-1.640625 0l0 0.84375l1.640625 0l0 -0.84375zm0 -1.546875l-1.640625 0l0 0.796875l1.640625 0l0 -0.796875zm4.828125 5.4375q3.46875 -0.984375 4.78125 -3.09375l1.03125 0.234375q0.1875 0.1875 -0.140625 0.234375l-0.421875 0.5625l2.4375 0l0.09375 -0.1875l0.75 0.5625q0.375 0.234375 0 0.328125q-2.625 4.21875 -8.859375 4.828125l-0.28125 -1.03125q3.09375 -0.28125 4.546875 -1.078125q-0.421875 -0.65625 -1.359375 -1.265625q-1.125 0.515625 -2.109375 0.84375l-0.46875 -0.9375zm-0.84375 -1.921875q2.296875 -0.421875 3.515625 -1.171875q-0.46875 -0.515625 -1.3125 -1.125q-0.421875 0.328125 -1.6875 0.84375l-0.46875 -0.890625q2.71875 -1.078125 3.5625 -3.046875l0.9375 0.28125q0.140625 0.1875 -0.140625 0.234375l-0.28125 0.421875l2.953125 0l0.09375 -0.234375l0.75 0.5625q0.375 0.234375 0 0.328125q-2.34375 3.5625 -7.453125 4.734375l-0.46875 -0.9375zm4.453125 -1.734375q1.125 -0.609375 2.0625 -1.828125l-2.953125 0q-0.328125 0.375 -0.65625 0.65625q0.84375 0.5625 1.546875 1.171875zm-0.140625 3.234375q0.890625 0.5625 1.5 1.21875q1.21875 -0.75 2.15625 -1.96875l-2.671875 0q-0.515625 0.46875 -0.984375 0.75z" fill-rule="nonzero"/><path fill="#000000" d="m385.11368 60.170673q0.75 0 1.453125 -0.046875l0 0.75q-0.703125 -0.046875 -3.28125 -0.046875l-0.234375 1.359375l2.90625 0l-0.28125 2.5781212q0.703125 0 1.40625 -0.046875l0 0.796875q-0.609375 -0.046875 -1.03125 -0.046875l-4.875 0q-0.84375 0 -1.734375 0.046875l0 -0.796875q0.65625 0.046875 2.109375 0.046875l0.375 -1.9218712q-0.9375 0 -1.78125 0.09375l0 -0.84375q0.984375 0.046875 2.015625 0.046875l0.1875 -1.3125q-1.6875 0 -2.578125 0.046875l0 -0.75q0.84375 0.046875 1.78125 0.046875l3.5625 0zm0.9375 6.374996q-0.046875 0.5625 -0.046875 1.359375l0 1.59375q0 0.703125 0.046875 1.3125l-0.9375 0l0 -0.703125l-3.5625 0l0 0.75l-0.9375 0q0.046875 -0.609375 0.046875 -1.265625l0 -1.453125q0 -1.03125 -0.046875 -1.59375l5.4375 0zm-6.65625 0.46875q0.234375 0.375 0.609375 0.890625q-0.609375 0.609375 -1.0625 1.15625q-0.4375 0.53125 -1.0 1.375q-0.328125 -0.375 -0.84375 -0.75q0.28125 -0.28125 0.4375 -0.515625q0.171875 -0.234375 0.171875 -0.75l0 -4.171875l-0.421875 0q-0.609375 0 -1.3125 0.046875l0 -0.8906212q0.65625 0.046875 1.3125 0.046875l1.359375 0q-0.046875 0.9374962 -0.046875 1.9218712l0 2.71875q0.515625 -0.609375 0.796875 -1.078125zm5.71875 2.34375l0 -2.015625l-3.5625 0l0 2.015625l3.5625 0zm-0.46875 -4.59375l0.28125 -1.8749962l-2.0625 0l-0.375 1.8749962l2.15625 0zm-6.421875 -2.5781212q-0.796875 -1.125 -1.3125 -1.59375q0.28125 -0.328125 0.65625 -0.609375q0.421875 0.46875 1.359375 1.59375q-0.375 0.28125 -0.703125 0.609375z" fill-rule="nonzero"/><path fill="#000000" d="m390.26993 61.108173l0 -0.890625l6.46875 0l0 0.890625l-6.46875 0zm8.4375 0.796875l0 0.890625l-10.40625 0l0 -0.890625l10.40625 0zm-1.96875 1.6875l0 0.8906212l-6.46875 0l0 -0.8906212l6.46875 0zm0 1.6874962l0 0.890625l-6.46875 0l0 -0.890625l6.46875 0zm0.46875 1.640625l0 3.65625l-1.078125 0l0 -0.515625l-5.296875 0l0 0.703125l-1.078125 0l0 -3.84375l7.453125 0zm-1.078125 0.890625l-5.296875 0l0 1.359375l5.296875 0l0 -1.359375z" fill-rule="nonzero"/><path fill="#f6b26b" d="m435.61417 27.725721l63.874023 0l0 60.7874l-63.874023 0z" fill-rule="evenodd"/><path stroke="#000000" stroke-width="1.0" stroke-linejoin="round" stroke-linecap="butt" d="m435.61417 27.725721l63.874023 0l0 60.7874l-63.874023 0z" fill-rule="evenodd"/><path fill="#000000" d="m453.53555 54.045673q-0.140625 -0.515625 -0.375 -1.03125q0.890625 0 1.140625 -0.234375q0.265625 -0.234375 0.21875 -2.203125l-2.15625 0l0 4.359375q0 0.65625 0.5625 0.65625l1.921875 0q0.328125 0.046875 0.484375 -0.328125q0.171875 -0.375 0.21875 -0.9375q0.375 0.234375 0.984375 0.421875q-0.328125 1.21875 -0.640625 1.421875q-0.296875 0.21875 -0.8125 0.21875l-2.625 0q-0.9375 0 -0.9375 -0.984375l0 -3.984375q0 -0.703125 -0.046875 -1.546875q-0.328125 0.375 -0.75 0.796875q-0.421875 -0.46875 -0.796875 -0.703125q0.515625 -0.375 0.984375 -0.8125q0.46875 -0.453125 0.890625 -1.015625q0.421875 -0.5625 0.796875 -1.125q0.375 -0.5625 0.65625 -1.265625q0.375 0.28125 1.03125 0.609375q-0.28125 0.1875 -0.46875 0.375q0.421875 0.328125 1.078125 0.75q0.65625 0.421875 1.640625 1.40625q-0.375 0.28125 -0.703125 0.75q-0.890625 -1.078125 -1.390625 -1.453125q-0.484375 -0.375 -1.0 -0.75q-0.703125 0.984375 -1.125 1.5l-0.703125 0.796875l3.84375 0q-0.046875 1.359375 -0.046875 2.109375q0 0.703125 -0.125 1.203125q-0.109375 0.484375 -0.578125 0.703125q-0.46875 0.203125 -1.171875 0.296875zm6.75 -7.96875q-0.046875 0.796875 -0.046875 1.640625l0 7.734375q0 0.796875 -0.40625 0.984375q-0.390625 0.1875 -1.328125 0.328125q-0.140625 -0.609375 -0.421875 -1.078125q0.84375 0 1.078125 -0.046875q0.234375 -0.046875 0.234375 -0.515625l0 -7.40625q0 -0.75 -0.046875 -1.640625l0.9375 0zm-2.4375 1.640625q-0.046875 0.75 -0.046875 1.640625l0 3.375q0 0.890625 0.046875 1.5l-0.984375 0q0.046875 -0.75 0.046875 -1.5l0 -3.515625q0 -0.703125 -0.046875 -1.5l0.984375 0z" fill-rule="nonzero"/><path fill="#000000" d="m472.98868 55.40505l-0.28125 0.890625l-5.15625 0q-1.875 0 -3.046875 -1.125q-0.890625 1.125 -1.78125 1.640625l-0.609375 -0.9375q0.984375 -0.515625 1.78125 -1.453125q-0.890625 -1.5 -1.171875 -2.484375l0.796875 -0.1875q0.234375 0.75 0.84375 1.78125q0.421875 -1.171875 0.421875 -2.296875l0 -0.421875l-0.984375 0l-0.421875 0.609375l-0.890625 -0.375q1.03125 -1.734375 1.875 -3.46875l-1.921875 0l0 -0.890625l2.109375 0l0.1875 -0.234375l0.9375 0.703125q0.09375 0.09375 -0.1875 0.1875l-1.265625 2.578125l1.5 0l0 0.703125q0 2.296875 -0.75 3.796875q0.9375 0.984375 2.953125 0.984375l5.0625 0zm-4.40625 -6.796875l0 -0.796875l-2.203125 0l0 -0.75l2.203125 0l0 -1.171875l0.75 0q0.375 0.046875 0.046875 0.28125l0 0.890625l2.4375 0l0 1.546875l0.9375 0l0 0.75l-0.9375 0l0 1.59375l-2.4375 0l0 0.65625l2.578125 0l0 0.75l-2.578125 0l0 0.890625l3.140625 0l0 0.75l-3.140625 0l0 1.03125l-0.796875 0l0 -1.03125l-2.765625 0l0 -0.75l2.765625 0l0 -0.890625l-2.15625 0l0 -0.75l2.15625 0l0 -0.65625l-2.203125 0l0 -0.75l2.203125 0l0 -0.84375l-3.046875 0l0 -0.75l3.046875 0zm2.4375 0.75l-1.640625 0l0 0.84375l1.640625 0l0 -0.84375zm0 -1.546875l-1.640625 0l0 0.796875l1.640625 0l0 -0.796875zm4.6875 2.109375q0.328125 1.828125 0.515625 3.65625l-0.9375 0.09375q-0.1875 -1.734375 -0.5625 -3.5625l0.984375 -0.1875zm5.25 -3.796875l0.890625 0q0.375 0.046875 0.046875 0.28125l0 1.875l2.859375 0l0 0.890625l-2.859375 0l0 2.0625l2.484375 0l0 5.15625l-0.9375 0l0 -0.5625l-3.234375 0l0 0.65625l-0.9375 0l0 -5.25l1.6875 0l0 -5.109375zm-1.875 3.09375l-4.78125 0l0 -0.890625l2.015625 0l0 -2.109375l0.890625 0q0.375 0.046875 0.046875 0.28125l0 1.828125l1.828125 0l0 0.890625zm-4.21875 6.234375q-0.140625 0.46875 -0.328125 0.046875l-0.328125 -0.9375l2.671875 -0.328125q0.375 -2.296875 0.46875 -4.640625l1.171875 0.28125q0.421875 0.1875 -0.09375 0.328125q-0.1875 1.875 -0.609375 3.9375l1.171875 -0.1875l0 0.84375l-4.125 0.65625zm5.34375 -0.515625l3.234375 0l0 -2.8125l-3.234375 0l0 2.8125z" fill-rule="nonzero"/><path fill="#000000" d="m470.8793 67.67067q0.9375 0.890625 1.6875 2.203125l-1.125 0.5625q-0.65625 -1.40625 -1.40625 -2.296875l0.84375 -0.46875zm-2.15625 0.046875q0.796875 1.3125 0.9375 2.53125l-1.171875 0.28125q-0.1875 -1.265625 -0.703125 -2.484375l0.9375 -0.328125zm-6.1875 2.296875q0.84375 -0.84375 1.359375 -2.25l0.984375 0.375q-0.328125 1.40625 -1.3125 2.484375l-1.03125 -0.609375zm4.078125 -2.015625q0.375 0.890625 0.28125 2.484375l-1.125 0.046875q0.046875 -1.59375 -0.140625 -2.484375l0.984375 -0.046875zm3.65625 -1.78125l0 -1.828125l-5.25 0l0 1.828125l5.25 0zm-2.484375 -6.187496q0.375 0.046875 0.046875 0.28125l0 1.03125l3.9375 0l0 0.890625l-3.9375 0l0 1.265625l3.515625 0l0 3.8906212l-1.078125 0l0 -0.28125l-5.25 0l0 0.375l-1.078125 0l0 -3.9843712l2.8125 0l0 -3.46875l1.03125 0z" fill-rule="nonzero"/><path fill="#f6b26b" d="m515.6142 27.725721l63.873962 0l0 60.7874l-63.873962 0z" fill-rule="evenodd"/><path stroke="#000000" stroke-width="1.0" stroke-linejoin="round" stroke-linecap="butt" d="m515.6142 27.725721l63.873962 0l0 60.7874l-63.873962 0z" fill-rule="evenodd"/><path fill="#000000" d="m533.81683 50.90505q0.75 0.046875 1.6875 0.046875l4.21875 0q-0.28125 0.84375 -0.78125 1.859375q-0.484375 1.0 -1.328125 1.984375q1.5 0.984375 3.46875 1.03125q-0.375 0.421875 -0.5625 0.984375q-2.015625 -0.421875 -3.609375 -1.453125q-0.609375 0.375 -1.453125 0.8125q-0.84375 0.453125 -1.828125 0.734375q-0.1875 -0.375 -0.703125 -0.703125q1.03125 -0.1875 1.9375 -0.609375q0.921875 -0.421875 1.390625 -0.84375q-1.03125 -1.078125 -1.6875 -3.046875l-0.75 0l0 -0.796875zm4.78125 -0.46875q-0.796875 0 -0.84375 -0.65625l0 -2.625l-2.0625 0q0 1.3125 -0.3125 2.0625q-0.296875 0.75 -1.28125 1.546875q-0.1875 -0.328125 -0.75 -0.5625q1.171875 -0.796875 1.328125 -1.828125q0.171875 -1.03125 0.125 -1.96875l3.9375 0q-0.046875 0.5625 -0.046875 1.40625l0 1.265625q0 0.375 0.25 0.453125q0.265625 0.0625 0.734375 0.046875q0.46875 -0.03125 1.078125 -0.078125q-0.09375 0.46875 0 0.9375l-2.15625 0zm-5.953125 -0.84375q-0.046875 0.84375 -0.046875 1.875l0 2.859375q0.609375 -0.5625 1.03125 -1.125q0.140625 0.46875 0.46875 0.984375q-0.609375 0.5625 -1.125 1.078125q-0.515625 0.515625 -0.9375 1.125q-0.328125 -0.515625 -0.703125 -0.796875q0.375 -0.375 0.375 -1.078125l0 -4.125q-0.984375 0 -1.640625 0.046875l0 -0.890625q0.609375 0.046875 1.265625 0.046875l1.3125 0zm4.3125 4.546875q0.9375 -0.9375 1.453125 -2.4375l-2.90625 0q0.328125 1.453125 1.453125 2.4375zm-5.484375 -8.203125q0.75 0.609375 1.828125 1.921875q-0.375 0.234375 -0.75 0.609375q-0.796875 -1.078125 -1.6875 -1.921875q0.28125 -0.1875 0.609375 -0.609375z" fill-rule="nonzero"/><path fill="#000000" d="m544.0356 55.545673l8.8125 0l0 0.75l-8.8125 0l0 0.375l-0.9375 0l0 -5.90625l0.890625 0q0.375 0.046875 0.046875 0.28125l0 4.5zm5.109375 -7.6875l1.734375 0l0 -0.984375l-1.734375 0l0 0.984375zm-0.796875 0l0 -0.984375l-1.6875 0l0 0.984375l1.6875 0zm-2.484375 0l0 -0.984375l-1.734375 0l0 0.984375l1.734375 0zm-2.671875 0.5625l0 -2.109375l8.625 0l0 2.109375l-3.703125 0l0 0.65625l4.640625 0l0 0.75l-4.640625 0l0 0.65625l2.90625 0l0 4.5l-5.859375 0l0 -4.5l2.015625 0l0 -0.65625l-5.0625 0l0 -0.75l5.0625 0l0 -0.65625l-1.96875 0l-2.015625 0zm7.03125 3.328125l0 -0.703125l-4.265625 0l0 0.703125l4.265625 0zm0 1.3125l0 -0.75l-4.265625 0l0 0.75l4.265625 0zm0 1.359375l0 -0.796875l-4.265625 0l0 0.796875l4.265625 0zm5.484375 -4.5q0.328125 1.828125 0.515625 3.65625l-0.9375 0.09375q-0.1875 -1.734375 -0.5625 -3.5625l0.984375 -0.1875zm5.25 -3.796875l0.890625 0q0.375 0.046875 0.046875 0.28125l0 1.875l2.859375 0l0 0.890625l-2.859375 0l0 2.0625l2.484375 0l0 5.15625l-0.9375 0l0 -0.5625l-3.234375 0l0 0.65625l-0.9375 0l0 -5.25l1.6875 0l0 -5.109375zm-1.875 3.09375l-4.78125 0l0 -0.890625l2.015625 0l0 -2.109375l0.890625 0q0.375 0.046875 0.046875 0.28125l0 1.828125l1.828125 0l0 0.890625zm-4.21875 6.234375q-0.140625 0.46875 -0.328125 0.046875l-0.328125 -0.9375l2.671875 -0.328125q0.375 -2.296875 0.46875 -4.640625l1.171875 0.28125q0.421875 0.1875 -0.09375 0.328125q-0.1875 1.875 -0.609375 3.9375l1.171875 -0.1875l0 0.84375l-4.125 0.65625zm5.34375 -0.515625l3.234375 0l0 -2.8125l-3.234375 0l0 2.8125z" fill-rule="nonzero"/><path fill="#000000" d="m538.87933 67.67067q0.9375 0.890625 1.6875 2.203125l-1.125 0.5625q-0.65625 -1.40625 -1.40625 -2.296875l0.84375 -0.46875zm-2.15625 0.046875q0.796875 1.3125 0.9375 2.53125l-1.171875 0.28125q-0.1875 -1.265625 -0.703125 -2.484375l0.9375 -0.328125zm-6.1875 2.296875q0.84375 -0.84375 1.359375 -2.25l0.984375 0.375q-0.328125 1.40625 -1.3125 2.484375l-1.03125 -0.609375zm4.078125 -2.015625q0.375 0.890625 0.28125 2.484375l-1.125 0.046875q0.046875 -1.59375 -0.140625 -2.484375l0.984375 -0.046875zm3.65625 -1.78125l0 -1.828125l-5.25 0l0 1.828125l5.25 0zm-2.484375 -6.187496q0.375 0.046875 0.046875 0.28125l0 1.03125l3.9375 0l0 0.890625l-3.9375 0l0 1.265625l3.515625 0l0 3.8906212l-1.078125 0l0 -0.28125l-5.25 0l0 0.375l-1.078125 0l0 -3.9843712l2.8125 0l0 -3.46875l1.03125 0zm12.84375 3.609375q-0.421875 0.9374962 -0.890625 1.6406212l0 3.5625q0.609375 -0.1875 2.109375 -0.703125l0.234375 0.9375q-3.28125 1.125 -4.171875 1.265625q-0.140625 0.234375 -0.234375 0.09375l-0.328125 -1.125q0.75 -0.140625 1.453125 -0.234375l0 -2.8125q-0.5625 0.75 -1.875 1.5l-0.328125 -1.078125q2.109375 -0.890625 3.421875 -3.7499962l-3.09375 0l0 -0.890625l3.1875 0l0 -2.0625l0.890625 0q0.375 0.046875 0.046875 0.28125l0 1.78125l3.5625 0l0 0.890625l-3.234375 0q0.1875 1.4062462 0.609375 2.6249962l1.6875 -1.6874962l0.703125 0.7031212q0.28125 0.328125 -0.140625 0.28125l-1.828125 1.59375q0.796875 1.546875 2.71875 2.765625l-0.703125 1.078125q-3.28125 -2.578125 -3.796875 -6.656246zm-4.359375 6.984371l-0.9375 0l0 -5.953125q-0.28125 0.609375 -0.890625 1.265625l-0.609375 -0.890625q1.6875 -1.9218712 2.15625 -5.015621l0.9375 0.234375q0.328125 0.046875 0 0.28125q-0.375 1.734375 -0.796875 2.53125q0.421875 0 0.140625 0.375l0 7.171871z" fill-rule="nonzero"/><path fill="#000000" d="m556.45746 63.40505l0 -1.171875q-1.6875 0 -2.203125 0.046875l0 -0.796875q0.515625 0.046875 2.203125 0.046875q0 -0.84375 -0.046875 -1.546875l0.9375 0q-0.046875 0.515625 -0.046875 1.546875q1.359375 0 2.015625 -0.046875l0 0.796875q-0.65625 -0.046875 -2.015625 -0.046875l0 1.171875l1.875 0q-0.046875 0.515625 -0.046875 1.4531212q0 0.890625 0.046875 1.40625l-1.875 0l0 1.078125q0.28125 -0.1875 0.5625 -0.421875q1.078125 0.984375 1.5 1.40625q-0.328125 0.234375 -0.65625 0.5625q-1.03125 -1.125 -1.40625 -1.40625q0 2.484375 0.046875 3.1875l-0.9375 0q0.046875 -0.703125 0.046875 -3.234375q-0.421875 0.515625 -0.75 0.984375q-0.328125 0.46875 -0.890625 1.171875q-0.46875 -0.375 -0.84375 -0.65625q0.75 -0.5625 1.1875 -1.09375q0.453125 -0.546875 1.0625 -1.578125l-1.6875 0q0.046875 -0.46875 0.046875 -1.453125q0 -0.9843712 -0.046875 -1.4062462l1.921875 0zm5.765625 -3.140625q-0.328125 0.234375 -0.796875 0.984375l2.71875 0q-0.421875 0.5625 -0.78125 1.0625q-0.34375 0.484375 -0.71875 1.09375l1.921875 0q-0.046875 0.5625 -0.046875 2.3437462q0 1.78125 0.046875 2.484375l-0.890625 0l0 -4.125l-3.0 0l0 3.890625l-0.890625 0q0.046875 -0.796875 0.046875 -2.390625q0 -1.6406212 -0.046875 -2.2031212q-0.421875 -0.28125 -0.75 -0.421875q0.796875 -0.703125 1.265625 -1.5q0.46875 -0.796875 0.796875 -1.640625q0.5625 0.28125 1.125 0.421875zm0.421875 4.828121q-0.1875 0.5625 -0.234375 1.453125q-0.046875 0.890625 -0.265625 1.6875q-0.203125 0.796875 -0.953125 1.453125q-0.75 0.65625 -1.828125 1.21875q-0.28125 -0.375 -0.75 -0.703125q1.171875 -0.46875 1.796875 -0.984375q0.640625 -0.515625 0.890625 -1.140625q0.265625 -0.640625 0.28125 -1.4375q0.03125 -0.796875 0.03125 -1.78125q0.796875 0.234375 1.03125 0.234375zm0.28125 3.140625q1.125 0.890625 2.25 1.875q-0.46875 0.28125 -0.84375 0.609375q-1.078125 -1.171875 -2.15625 -1.875q0.515625 -0.28125 0.75 -0.609375zm-1.21875 -4.828121l0.890625 -1.453125l-1.546875 0q-0.328125 0.46875 -1.125 1.453125l1.78125 0zm-5.25 2.1562462l0 -1.453125l-1.078125 0l0 1.453125l1.078125 0zm1.875 0l0 -1.453125l-1.03125 0l0 1.453125l1.03125 0z" fill-rule="nonzero"/><path fill="#ffffff" d="m19.614174 27.727034l151.87402 0l0 60.7874l-151.87402 0z" fill-rule="evenodd"/><path stroke="#000000" stroke-width="1.0" stroke-linejoin="round" stroke-linecap="butt" d="m19.614174 27.727034l151.87402 0l0 60.7874l-151.87402 0z" fill-rule="evenodd"/><path fill="#000000" d="m61.797424 55.540733l0 -13.359375l1.765625 0l0 5.484375l6.9375 0l0 -5.484375l1.765625 0l0 13.359375l-1.765625 0l0 -6.296875l-6.9375 0l0 6.296875l-1.765625 0zm19.535446 0l0 -1.421875q-1.125 1.640625 -3.0625 1.640625q-0.859375 0 -1.609375 -0.328125q-0.734375 -0.328125 -1.09375 -0.828125q-0.359375 -0.5 -0.5 -1.21875q-0.109375 -0.46875 -0.109375 -1.53125l0 -5.984375l1.640625 0l0 5.359375q0 1.28125 0.109375 1.734375q0.15625 0.640625 0.65625 1.015625q0.5 0.375 1.234375 0.375q0.734375 0 1.375 -0.375q0.65625 -0.390625 0.921875 -1.03125q0.265625 -0.65625 0.265625 -1.890625l0 -5.1875l1.640625 0l0 9.671875l-1.46875 0zm3.7350922 0.796875l1.59375 0.234375q0.109375 0.75 0.5625 1.078125q0.609375 0.453125 1.671875 0.453125q1.140625 0 1.75 -0.453125q0.625 -0.453125 0.84375 -1.265625q0.125 -0.5 0.109375 -2.109375q-1.0625 1.265625 -2.671875 1.265625q-2.0 0 -3.09375 -1.4375q-1.09375 -1.4375 -1.09375 -3.453125q0 -1.390625 0.5 -2.5625q0.515625 -1.171875 1.453125 -1.796875q0.953125 -0.640625 2.25 -0.640625q1.703125 0 2.8125 1.375l0 -1.15625l1.515625 0l0 8.359375q0 2.265625 -0.46875 3.203125q-0.453125 0.9375 -1.453125 1.484375q-0.984375 0.546875 -2.453125 0.546875q-1.71875 0 -2.796875 -0.78125q-1.0625 -0.765625 -1.03125 -2.34375zm1.359375 -5.8125q0 1.90625 0.75 2.78125q0.765625 0.875 1.90625 0.875q1.125 0 1.890625 -0.859375q0.765625 -0.875 0.765625 -2.734375q0 -1.78125 -0.796875 -2.671875q-0.78125 -0.90625 -1.890625 -0.90625q-1.09375 0 -1.859375 0.890625q-0.765625 0.875 -0.765625 2.625zm8.719467 0.171875q0 -2.6875 1.484375 -3.96875q1.25 -1.078125 3.046875 -1.078125q2.0 0 3.265625 1.3125q1.265625 1.296875 1.265625 3.609375q0 1.859375 -0.5625 2.9375q-0.5625 1.0625 -1.640625 1.65625q-1.0625 0.59375 -2.328125 0.59375q-2.03125 0 -3.28125 -1.296875q-1.25 -1.3125 -1.25 -3.765625zm1.6875 0q0 1.859375 0.796875 2.796875q0.8125 0.921875 2.046875 0.921875q1.21875 0 2.03125 -0.921875q0.8125 -0.9375 0.8125 -2.84375q0 -1.796875 -0.8125 -2.71875q-0.8125 -0.921875 -2.03125 -0.921875q-1.234375 0 -2.046875 0.921875q-0.796875 0.90625 -0.796875 2.765625zm14.777771 4.84375l0 -13.359375l9.015625 0l0 1.578125l-7.25 0l0 4.140625l6.265625 0l0 1.578125l-6.265625 0l0 6.0625l-1.765625 0zm10.442856 -2.890625l1.625 -0.25q0.125 0.96875 0.75 1.5q0.625 0.515625 1.75 0.515625q1.125 0 1.671875 -0.453125q0.546875 -0.46875 0.546875 -1.09375q0 -0.546875 -0.484375 -0.875q-0.328125 -0.21875 -1.671875 -0.546875q-1.8125 -0.46875 -2.515625 -0.796875q-0.6875 -0.328125 -1.046875 -0.90625q-0.359375 -0.59375 -0.359375 -1.3125q0 -0.640625 0.296875 -1.1875q0.296875 -0.5625 0.8125 -0.921875q0.375 -0.28125 1.03125 -0.46875q0.671875 -0.203125 1.421875 -0.203125q1.140625 0 2.0 0.328125q0.859375 0.328125 1.265625 0.890625q0.421875 0.5625 0.578125 1.5l-1.609375 0.21875q-0.109375 -0.75 -0.640625 -1.171875q-0.515625 -0.421875 -1.46875 -0.421875q-1.140625 0 -1.625 0.375q-0.46875 0.375 -0.46875 0.875q0 0.3125 0.1875 0.578125q0.203125 0.265625 0.640625 0.4375q0.234375 0.09375 1.4375 0.421875q1.75 0.453125 2.4375 0.75q0.6875 0.296875 1.078125 0.859375q0.390625 0.5625 0.390625 1.40625q0 0.828125 -0.484375 1.546875q-0.46875 0.71875 -1.375 1.125q-0.90625 0.390625 -2.046875 0.390625q-1.875 0 -2.875 -0.78125q-0.984375 -0.78125 -1.25 -2.328125z" fill-rule="nonzero"/><path fill="#000000" d="m74.605865 74.980736l-1.40625 0l0 -8.96875q-0.515625 0.484375 -1.34375 0.96875q-0.8125 0.484375 -1.46875 0.734375l0 -1.359375q1.171875 -0.5625 2.046875 -1.34375q0.890625 -0.796875 1.265625 -1.53125l0.90625 0l0 11.5zm8.1015625 0l0 -2.75l-4.96875 0l0 -1.28125l5.234375 -7.421875l1.140625 0l0 7.421875l1.546875 0l0 1.28125l-1.546875 0l0 2.75l-1.40625 0zm0 -4.03125l0 -5.171875l-3.578125 5.171875l3.578125 0zm8.859375 -0.328125l0 -1.59375q0.828125 -0.9375 2.171875 -0.9375q0.46875 0 0.984375 0.140625q0.515625 0.125 1.46875 0.53125q0.53125 0.234375 0.796875 0.3125q0.28125 0.0625 0.546875 0.0625q0.515625 0 1.046875 -0.296875q0.546875 -0.3125 0.96875 -0.78125l0 1.65625q-0.5 0.46875 -1.015625 0.6875q-0.5 0.203125 -1.140625 0.203125q-0.46875 0 -0.90625 -0.109375q-0.421875 -0.109375 -1.34375 -0.515625q-0.921875 -0.421875 -1.546875 -0.421875q-0.5 0 -0.9375 0.21875q-0.4375 0.21875 -1.09375 0.84375zm21.164062 3.0l0 1.359375l-7.578125 0q-0.015625 -0.515625 0.171875 -0.984375q0.28125 -0.765625 0.921875 -1.515625q0.640625 -0.75 1.84375 -1.734375q1.859375 -1.53125 2.515625 -2.421875q0.65625 -0.90625 0.65625 -1.703125q0 -0.828125 -0.59375 -1.40625q-0.59375 -0.578125 -1.5625 -0.578125q-1.015625 0 -1.625 0.609375q-0.609375 0.609375 -0.609375 1.6875l-1.453125 -0.140625q0.15625 -1.625 1.125 -2.46875q0.96875 -0.84375 2.59375 -0.84375q1.65625 0 2.609375 0.921875q0.96875 0.90625 0.96875 2.25q0 0.6875 -0.28125 1.359375q-0.28125 0.65625 -0.9375 1.390625q-0.65625 0.734375 -2.171875 2.015625q-1.265625 1.0625 -1.625 1.453125q-0.359375 0.375 -0.59375 0.75l5.625 0zm6.0078125 1.359375l0 -2.75l-4.96875 0l0 -1.28125l5.234375 -7.421875l1.140625 0l0 7.421875l1.546875 0l0 1.28125l-1.546875 0l0 2.75l-1.40625 0zm0 -4.03125l0 -5.171875l-3.578125 5.171875l3.578125 0z" fill-rule="nonzero"/><path fill="#f6b26b" d="m195.61417 105.520996l63.874023 0l0 60.7874l-63.874023 0z" fill-rule="evenodd"/><path stroke="#000000" stroke-width="1.0" stroke-linejoin="round" stroke-linecap="butt" d="m195.61417 105.520996l63.874023 0l0 60.7874l-63.874023 0z" fill-rule="evenodd"/><path fill="#000000" d="m213.8168 128.70032q0.75 0.046875 1.6875 0.046875l4.21875 0q-0.28125 0.84375 -0.78125 1.859375q-0.484375 1.0 -1.328125 1.984375q1.5 0.984375 3.46875 1.03125q-0.375 0.421875 -0.5625 0.984375q-2.015625 -0.421875 -3.609375 -1.453125q-0.609375 0.375 -1.453125 0.8125q-0.84375 0.453125 -1.828125 0.734375q-0.1875 -0.375 -0.703125 -0.703125q1.03125 -0.1875 1.9375 -0.609375q0.921875 -0.421875 1.390625 -0.84375q-1.03125 -1.078125 -1.6875 -3.046875l-0.75 0l0 -0.796875zm4.78125 -0.46875q-0.796875 0 -0.84375 -0.6562424l0 -2.625l-2.0625 0q0 1.3125 -0.3125 2.0625q-0.296875 0.75 -1.28125 1.5468674q-0.1875 -0.328125 -0.75 -0.5624924q1.171875 -0.796875 1.328125 -1.828125q0.171875 -1.03125 0.125 -1.96875l3.9375 0q-0.046875 0.5625 -0.046875 1.40625l0 1.265625q0 0.375 0.25 0.453125q0.265625 0.0625 0.734375 0.046875q0.46875 -0.03125 1.078125 -0.078125q-0.09375 0.46875 0 0.9374924l-2.15625 0zm-5.953125 -0.8437424q-0.046875 0.8437424 -0.046875 1.8749924l0 2.859375q0.609375 -0.5625 1.03125 -1.125q0.140625 0.46875 0.46875 0.984375q-0.609375 0.5625 -1.125 1.078125q-0.515625 0.515625 -0.9375 1.125q-0.328125 -0.515625 -0.703125 -0.796875q0.375 -0.375 0.375 -1.078125l0 -4.125q-0.984375 0 -1.640625 0.046875l0 -0.8906174q0.609375 0.046875 1.265625 0.046875l1.3125 0zm4.3125 4.5468674q0.9375 -0.9375 1.453125 -2.4375l-2.90625 0q0.328125 1.453125 1.453125 2.4375zm-5.484375 -8.203117q0.75 0.609375 1.828125 1.921875q-0.375 0.234375 -0.75 0.609375q-0.796875 -1.078125 -1.6875 -1.921875q0.28125 -0.1875 0.609375 -0.609375z" fill-rule="nonzero"/><path fill="#000000" d="m224.03555 133.34094l8.8125 0l0 0.75l-8.8125 0l0 0.375l-0.9375 0l0 -5.90625l0.890625 0q0.375 0.046875 0.046875 0.28125l0 4.5zm5.109375 -7.6874924l1.734375 0l0 -0.984375l-1.734375 0l0 0.984375zm-0.796875 0l0 -0.984375l-1.6875 0l0 0.984375l1.6875 0zm-2.484375 0l0 -0.984375l-1.734375 0l0 0.984375l1.734375 0zm-2.671875 0.5625l0 -2.109375l8.625 0l0 2.109375l-3.703125 0l0 0.65625l4.640625 0l0 0.75l-4.640625 0l0 0.6562424l2.90625 0l0 4.5l-5.859375 0l0 -4.5l2.015625 0l0 -0.6562424l-5.0625 0l0 -0.75l5.0625 0l0 -0.65625l-1.96875 0l-2.015625 0zm7.03125 3.3281174l0 -0.703125l-4.265625 0l0 0.703125l4.265625 0zm0 1.3125l0 -0.75l-4.265625 0l0 0.75l4.265625 0zm0 1.359375l0 -0.796875l-4.265625 0l0 0.796875l4.265625 0zm5.484375 -4.4999924q0.328125 1.8281174 0.515625 3.6562424l-0.9375 0.09375q-0.1875 -1.734375 -0.5625 -3.5624924l0.984375 -0.1875zm5.25 -3.796875l0.890625 0q0.375 0.046875 0.046875 0.28125l0 1.875l2.859375 0l0 0.890625l-2.859375 0l0 2.0624924l2.484375 0l0 5.15625l-0.9375 0l0 -0.5625l-3.234375 0l0 0.65625l-0.9375 0l0 -5.25l1.6875 0l0 -5.1093674zm-1.875 3.09375l-4.78125 0l0 -0.890625l2.015625 0l0 -2.109375l0.890625 0q0.375 0.046875 0.046875 0.28125l0 1.828125l1.828125 0l0 0.890625zm-4.21875 6.2343674q-0.140625 0.46875 -0.328125 0.046875l-0.328125 -0.9375l2.671875 -0.328125q0.375 -2.296875 0.46875 -4.6406174l1.171875 0.28125q0.421875 0.1875 -0.09375 0.328125q-0.1875 1.8749924 -0.609375 3.9374924l1.171875 -0.1875l0 0.84375l-4.125 0.65625zm5.34375 -0.515625l3.234375 0l0 -2.8125l-3.234375 0l0 2.8125z" fill-rule="nonzero"/><path fill="#000000" d="m218.8793 145.46594q0.9375 0.890625 1.6875 2.203125l-1.125 0.5625q-0.65625 -1.40625 -1.40625 -2.296875l0.84375 -0.46875zm-2.15625 0.046875q0.796875 1.3125 0.9375 2.53125l-1.171875 0.28125q-0.1875 -1.265625 -0.703125 -2.484375l0.9375 -0.328125zm-6.1875 2.296875q0.84375 -0.84375 1.359375 -2.25l0.984375 0.375q-0.328125 1.40625 -1.3125 2.484375l-1.03125 -0.609375zm4.078125 -2.015625q0.375 0.890625 0.28125 2.484375l-1.125 0.046875q0.046875 -1.59375 -0.140625 -2.484375l0.984375 -0.046875zm3.65625 -1.78125l0 -1.828125l-5.25 0l0 1.828125l5.25 0zm-2.484375 -6.1875q0.375 0.046875 0.046875 0.28125l0 1.03125l3.9375 0l0 0.890625l-3.9375 0l0 1.265625l3.515625 0l0 3.890625l-1.078125 0l0 -0.28125l-5.25 0l0 0.375l-1.078125 0l0 -3.984375l2.8125 0l0 -3.46875l1.03125 0z" fill-rule="nonzero"/><path fill="#000000" d="m231.11368 137.96594q0.75 0 1.453125 -0.046875l0 0.75q-0.703125 -0.046875 -3.28125 -0.046875l-0.234375 1.359375l2.90625 0l-0.28125 2.578125q0.703125 0 1.40625 -0.046875l0 0.796875q-0.609375 -0.046875 -1.03125 -0.046875l-4.875 0q-0.84375 0 -1.734375 0.046875l0 -0.796875q0.65625 0.046875 2.109375 0.046875l0.375 -1.921875q-0.9375 0 -1.78125 0.09375l0 -0.84375q0.984375 0.046875 2.015625 0.046875l0.1875 -1.3125q-1.6875 0 -2.578125 0.046875l0 -0.75q0.84375 0.046875 1.78125 0.046875l3.5625 0zm0.9375 6.375q-0.046875 0.5625 -0.046875 1.359375l0 1.59375q0 0.703125 0.046875 1.3125l-0.9375 0l0 -0.703125l-3.5625 0l0 0.75l-0.9375 0q0.046875 -0.609375 0.046875 -1.265625l0 -1.453125q0 -1.03125 -0.046875 -1.59375l5.4375 0zm-6.65625 0.46875q0.234375 0.375 0.609375 0.890625q-0.609375 0.609375 -1.0625 1.15625q-0.4375 0.53125 -1.0 1.375q-0.328125 -0.375 -0.84375 -0.75q0.28125 -0.28125 0.4375 -0.515625q0.171875 -0.234375 0.171875 -0.75l0 -4.171875l-0.421875 0q-0.609375 0 -1.3125 0.046875l0 -0.890625q0.65625 0.046875 1.3125 0.046875l1.359375 0q-0.046875 0.9375 -0.046875 1.921875l0 2.71875q0.515625 -0.609375 0.796875 -1.078125zm5.71875 2.34375l0 -2.015625l-3.5625 0l0 2.015625l3.5625 0zm-0.46875 -4.59375l0.28125 -1.875l-2.0625 0l-0.375 1.875l2.15625 0zm-6.421875 -2.578125q-0.796875 -1.125 -1.3125 -1.59375q0.28125 -0.328125 0.65625 -0.609375q0.421875 0.46875 1.359375 1.59375q-0.375 0.28125 -0.703125 0.609375z" fill-rule="nonzero"/><path fill="#000000" d="m236.26993 138.90344l0 -0.890625l6.46875 0l0 0.890625l-6.46875 0zm8.4375 0.796875l0 0.890625l-10.40625 0l0 -0.890625l10.40625 0zm-1.96875 1.6875l0 0.890625l-6.46875 0l0 -0.890625l6.46875 0zm0 1.6875l0 0.890625l-6.46875 0l0 -0.890625l6.46875 0zm0.46875 1.640625l0 3.65625l-1.078125 0l0 -0.515625l-5.296875 0l0 0.703125l-1.078125 0l0 -3.84375l7.453125 0zm-1.078125 0.890625l-5.296875 0l0 1.359375l5.296875 0l0 -1.359375z" fill-rule="nonzero"/><path fill="#f6b26b" d="m275.61417 105.520996l63.874023 0l0 60.7874l-63.874023 0z" fill-rule="evenodd"/><path stroke="#000000" stroke-width="1.0" stroke-linejoin="round" stroke-linecap="butt" d="m275.61417 105.520996l63.874023 0l0 60.7874l-63.874023 0z" fill-rule="evenodd"/><path fill="#000000" d="m293.8168 114.700325q0.75 0.046875 1.6875 0.046875l4.21875 0q-0.28125 0.84375 -0.78125 1.859375q-0.484375 1.0 -1.328125 1.984375q1.5 0.984375 3.46875 1.03125q-0.375 0.421875 -0.5625 0.984375q-2.015625 -0.421875 -3.609375 -1.453125q-0.609375 0.375 -1.453125 0.8125q-0.84375 0.453125 -1.828125 0.734375q-0.1875 -0.375 -0.703125 -0.703125q1.03125 -0.1875 1.9375 -0.609375q0.921875 -0.421875 1.390625 -0.84375q-1.03125 -1.078125 -1.6875 -3.046875l-0.75 0l0 -0.796875zm4.78125 -0.46875q-0.796875 0 -0.84375 -0.65625l0 -2.625l-2.0625 0q0 1.3125 -0.3125 2.0625q-0.296875 0.75 -1.28125 1.546875q-0.1875 -0.328125 -0.75 -0.5625q1.171875 -0.796875 1.328125 -1.828125q0.171875 -1.03125 0.125 -1.96875l3.9375 0q-0.046875 0.5625 -0.046875 1.40625l0 1.265625q0 0.375 0.25 0.453125q0.265625 0.0625 0.734375 0.046875q0.46875 -0.03125 1.078125 -0.078125q-0.09375 0.46875 0 0.9375l-2.15625 0zm-5.953125 -0.84375q-0.046875 0.84375 -0.046875 1.875l0 2.859375q0.609375 -0.5625 1.03125 -1.125q0.140625 0.46875 0.46875 0.984375q-0.609375 0.5625 -1.125 1.078125q-0.515625 0.515625 -0.9375 1.125q-0.328125 -0.515625 -0.703125 -0.796875q0.375 -0.375 0.375 -1.078125l0 -4.125q-0.984375 0 -1.640625 0.046875l0 -0.890625q0.609375 0.046875 1.265625 0.046875l1.3125 0zm4.3125 4.546875q0.9375 -0.9375 1.453125 -2.4375l-2.90625 0q0.328125 1.453125 1.453125 2.4375zm-5.484375 -8.203125q0.75 0.609375 1.828125 1.921875q-0.375 0.234375 -0.75 0.609375q-0.796875 -1.078125 -1.6875 -1.921875q0.28125 -0.1875 0.609375 -0.609375z" fill-rule="nonzero"/><path fill="#000000" d="m304.03555 119.34095l8.8125 0l0 0.75l-8.8125 0l0 0.375l-0.9375 0l0 -5.90625l0.890625 0q0.375 0.046875 0.046875 0.28125l0 4.5zm5.109375 -7.6875l1.734375 0l0 -0.984375l-1.734375 0l0 0.984375zm-0.796875 0l0 -0.984375l-1.6875 0l0 0.984375l1.6875 0zm-2.484375 0l0 -0.984375l-1.734375 0l0 0.984375l1.734375 0zm-2.671875 0.5625l0 -2.109375l8.625 0l0 2.109375l-3.703125 0l0 0.65625l4.640625 0l0 0.75l-4.640625 0l0 0.65625l2.90625 0l0 4.5l-5.859375 0l0 -4.5l2.015625 0l0 -0.65625l-5.0625 0l0 -0.75l5.0625 0l0 -0.65625l-1.96875 0l-2.015625 0zm7.03125 3.328125l0 -0.703125l-4.265625 0l0 0.703125l4.265625 0zm0 1.3125l0 -0.75l-4.265625 0l0 0.75l4.265625 0zm0 1.359375l0 -0.796875l-4.265625 0l0 0.796875l4.265625 0zm5.484375 -4.5q0.328125 1.828125 0.515625 3.65625l-0.9375 0.09375q-0.1875 -1.734375 -0.5625 -3.5625l0.984375 -0.1875zm5.25 -3.796875l0.890625 0q0.375 0.046875 0.046875 0.28125l0 1.875l2.859375 0l0 0.890625l-2.859375 0l0 2.0625l2.484375 0l0 5.15625l-0.9375 0l0 -0.5625l-3.234375 0l0 0.65625l-0.9375 0l0 -5.25l1.6875 0l0 -5.109375zm-1.875 3.09375l-4.78125 0l0 -0.890625l2.015625 0l0 -2.109375l0.890625 0q0.375 0.046875 0.046875 0.28125l0 1.828125l1.828125 0l0 0.890625zm-4.21875 6.234375q-0.140625 0.46875 -0.328125 0.046875l-0.328125 -0.9375l2.671875 -0.328125q0.375 -2.296875 0.46875 -4.640625l1.171875 0.28125q0.421875 0.1875 -0.09375 0.328125q-0.1875 1.875 -0.609375 3.9375l1.171875 -0.1875l0 0.84375l-4.125 0.65625zm5.34375 -0.515625l3.234375 0l0 -2.8125l-3.234375 0l0 2.8125z" fill-rule="nonzero"/><path fill="#000000" d="m298.8793 131.46594q0.9375 0.890625 1.6875 2.203125l-1.125 0.5625q-0.65625 -1.40625 -1.40625 -2.296875l0.84375 -0.46875zm-2.15625 0.046875q0.796875 1.3125 0.9375 2.53125l-1.171875 0.28125q-0.1875 -1.265625 -0.703125 -2.484375l0.9375 -0.328125zm-6.1875 2.296875q0.84375 -0.84375 1.359375 -2.25l0.984375 0.375q-0.328125 1.40625 -1.3125 2.484375l-1.03125 -0.609375zm4.078125 -2.015625q0.375 0.890625 0.28125 2.484375l-1.125 0.046875q0.046875 -1.59375 -0.140625 -2.484375l0.984375 -0.046875zm3.65625 -1.78125l0 -1.828125l-5.25 0l0 1.828125l5.25 0zm-2.484375 -6.1874924q0.375 0.046875 0.046875 0.28125l0 1.03125l3.9375 0l0 0.890625l-3.9375 0l0 1.265625l3.515625 0l0 3.8906174l-1.078125 0l0 -0.28125l-5.25 0l0 0.375l-1.078125 0l0 -3.9843674l2.8125 0l0 -3.46875l1.03125 0zm14.765625 2.953125l2.15625 0l0 0.890625l-2.015625 0q0.046875 2.8593674 2.4375 5.5312424l-0.703125 0.890625q-1.453125 -1.5 -2.109375 -4.078125q-0.1875 2.71875 -2.0625 4.546875l-0.65625 -0.796875q2.015625 -1.828125 2.015625 -6.0937424l-1.453125 0l0 -0.890625l1.453125 0l0 -2.90625l0.890625 0q0.375 0.046875 0.046875 0.28125l0 2.625zm-3.1875 6.5624924q-0.28125 -0.75 -0.609375 -1.359375l0.796875 -0.234375q0.375 0.5625 0.609375 1.265625l-0.796875 0.328125zm4.125 -8.765617q0.515625 0.5625 0.984375 1.3125l-0.84375 0.515625q-0.375 -0.65625 -0.890625 -1.3125l0.75 -0.515625zm-6.375 7.5468674q0.140625 1.03125 0.140625 1.921875l-0.984375 0.046875q0 -0.9375 -0.09375 -1.828125l0.9375 -0.140625zm-0.9375 -6.7031174q0.328125 0.84375 0.46875 1.546875l-0.65625 0.234375q-0.140625 -0.75 -0.375 -1.546875l0.5625 -0.234375zm1.453125 1.59375q0.234375 -0.703125 0.375 -1.640625l0.65625 0.09375q0.421875 0.046875 0 0.28125q-0.140625 0.75 -0.421875 1.5l-0.609375 -0.234375zm2.671875 4.3593674q-2.625 0.328125 -5.625 0.46875q-0.328125 0.515625 -0.421875 -0.046875l-0.09375 -0.890625q1.265625 -0.046875 2.625 -0.09375l0 -0.75l-2.109375 0l0 -0.890625l2.109375 0l0 -0.796875l-1.078125 0l-1.03125 0l0 -4.2187424l5.0625 0l0 4.2187424l-2.15625 0l0 0.796875l2.203125 0l0 0.890625l-2.203125 0l0 0.703125q1.265625 -0.09375 2.71875 -0.234375l0 0.84375zm-3.515625 -3.7499924l0 -2.71875l-1.3125 0l0 2.71875l1.3125 0zm2.15625 0l0 -2.71875l-1.359375 0l0 2.71875l1.359375 0zm-0.5625 4.3593674q0.28125 0.84375 0.421875 1.546875l-0.890625 0.234375q-0.140625 -0.703125 -0.375 -1.640625l0.84375 -0.140625zm-4.078125 2.25q0.328125 -0.796875 0.5625 -2.109375l0.890625 0.1875q-0.09375 1.21875 -0.46875 2.203125l-0.984375 -0.28125z" fill-rule="nonzero"/><path fill="#000000" d="m324.14493 134.5597q-1.265625 -1.078125 -1.953125 -2.25q-0.671875 -1.171875 -1.140625 -3.046875q-0.515625 2.0625 -1.484375 3.359375q-0.953125 1.28125 -1.796875 1.984375q-0.1875 -0.328125 -0.890625 -0.65625q1.03125 -0.703125 1.84375 -1.796875q0.828125 -1.109375 1.21875 -2.203125q0.40625 -1.109375 0.46875 -2.2031174q0.078125 -1.109375 0.078125 -1.953125q0 -0.84375 -0.046875 -1.96875q0.5625 0.046875 1.21875 0.046875q-0.140625 0.1875 -0.1875 1.03125q-0.046875 0.84375 0.046875 2.140625q0.09375 1.2812424 0.46875 2.4531174q0.375 1.171875 1.078125 2.34375q0.703125 1.171875 2.015625 1.96875q-0.75 0.28125 -0.9375 0.75zm-8.71875 -1.59375q0.328125 -0.375 0.328125 -0.796875l0 -3.9375q-1.078125 0 -1.59375 0.046875l0 -0.8906174q0.515625 0.046875 1.125 0.046875l1.453125 0q-0.046875 0.8437424 -0.046875 1.5937424l0 2.765625q0.375 -0.375 1.453125 -1.59375q0.1875 0.421875 0.515625 0.84375q-0.703125 0.703125 -1.359375 1.40625q-0.65625 0.703125 -1.078125 1.265625q-0.46875 -0.46875 -0.796875 -0.75zm1.6875 -6.6562424q-0.75 -1.03125 -1.6875 -1.78125q0.421875 -0.28125 0.65625 -0.65625q0.75 0.609375 1.78125 1.78125q-0.46875 0.28125 -0.75 0.65625z" fill-rule="nonzero"/><path fill="#000000" d="m292.1293 141.01282q-0.140625 1.3125 -0.46875 2.90625q0.609375 0.28125 1.078125 0.609375q0.375 -1.03125 0.375 -3.0l0 -0.515625l-0.984375 0zm7.03125 -3.140625q0.375 0.046875 0.046875 0.28125l0 1.03125l1.359375 0l0 0.75l-1.359375 0l0 3.328125l-1.5 0l0 0.984375l3.1875 0l0 0.75l-2.90625 0q0.796875 1.21875 3.046875 2.0625l-0.421875 0.984375q-2.015625 -0.984375 -2.90625 -2.203125l0 2.625l-0.796875 0l0 -2.484375q-1.171875 1.640625 -3.046875 2.34375l-0.375 -0.890625q1.96875 -0.703125 3.234375 -2.4375l-2.578125 0l0 -0.75l2.765625 0l0 -0.984375l-0.75 0l-0.75 0l0 -1.6875l0 -1.640625l-1.03125 0l0 -0.75l1.03125 0l0 -1.3125l0.75 0q0.375 0.046875 0.046875 0.28125l0 1.03125l2.203125 0l0 -1.3125l0.75 0zm-5.390625 8.765625l-0.703125 -0.703125q-0.703125 1.453125 -2.296875 2.34375l-0.46875 -0.84375q1.453125 -0.75 2.109375 -2.109375q-0.375 -0.375 -0.890625 -0.609375l-0.234375 0.75l-0.796875 -0.375q0.5625 -2.25 0.796875 -4.078125l-0.890625 0l0 -0.890625l1.03125 0l0.234375 -2.25l0.9375 0.140625q0.1875 0.1875 -0.140625 0.234375l-0.234375 1.875l1.03125 0l0.09375 -0.1875l0.609375 0.46875q0.234375 0.09375 -0.046875 0.1875l0 0.984375q0 2.203125 -0.46875 3.421875q0.46875 0.421875 0.9375 0.84375l-0.609375 0.796875zm2.4375 -5.0625l0 0.9375l2.203125 0l0 -0.9375l-2.203125 0zm2.203125 -1.640625l-2.203125 0l0 0.890625l2.203125 0l0 -0.890625zm6.375 5.71875q2.296875 -2.109375 3.375 -4.6875l-2.953125 0l0 -0.890625l3.1875 0l0 -2.34375l0.890625 0q0.375 0.046875 0.046875 0.28125l0 2.0625l3.375 0l0 0.890625l-3.09375 0q0.75 2.25 3.375 4.6875l-0.65625 0.9375q-2.015625 -2.015625 -3.0 -4.078125l0 2.71875l1.359375 0l0 0.890625l-1.359375 0l0 2.296875l-0.9375 0l0 -2.296875l-1.21875 0l0 -0.890625l1.21875 0l0 -2.71875q-1.125 2.484375 -2.90625 4.03125l-0.703125 -0.890625zm0.375 -7.359375q-0.234375 1.21875 -0.65625 2.296875q0.375 0.140625 0 0.328125l0 7.59375l-0.9375 0l0 -5.859375q-0.328125 0.703125 -0.84375 1.21875l-0.65625 -0.84375q1.59375 -2.15625 2.203125 -5.34375l1.03125 0.375q0.234375 0.1875 -0.140625 0.234375z" fill-rule="nonzero"/><path fill="#000000" d="m317.53555 140.16907q-0.703125 -0.9375 -1.5 -1.59375q0.375 -0.28125 0.65625 -0.609375l1.59375 1.546875q-0.234375 0.1875 -0.609375 0.65625l1.546875 0l0 -1.265625q0 -0.65625 -0.046875 -1.078125l0.984375 0q-0.046875 0.515625 -0.046875 1.078125l0 1.265625l1.546875 0q-0.375 -0.328125 -0.609375 -0.515625q0.84375 -0.796875 1.5 -1.921875q0.375 0.328125 0.890625 0.65625q-0.328125 0.28125 -0.6875 0.65625q-0.34375 0.375 -0.953125 1.125l1.171875 0q0.75 0 1.640625 -0.046875l0 0.84375q-0.890625 -0.046875 -1.640625 -0.046875l-2.859375 0l0 0.796875q0 0.75 0.046875 1.640625l-0.65625 0q0.5625 0.1875 0.9375 0.328125q-0.1875 0.234375 -0.28125 0.796875l2.8125 0q0.9375 0 1.875 -0.046875l0 0.84375q-0.890625 -0.046875 -1.828125 -0.046875l-2.578125 0q0.703125 1.078125 1.9375 1.6875q1.25 0.609375 2.515625 0.84375q-0.375 0.328125 -0.609375 0.9375q-1.40625 -0.421875 -2.578125 -1.203125q-1.171875 -0.765625 -1.96875 -1.84375q-0.46875 1.125 -1.640625 1.875q-1.171875 0.75 -3.09375 1.21875q-0.234375 -0.515625 -0.5625 -0.890625q1.6875 -0.234375 2.875 -0.84375q1.203125 -0.609375 1.671875 -1.78125l-2.390625 0q-1.125 0 -2.0625 0.046875l0 -0.84375q0.796875 0.046875 2.015625 0.046875l2.671875 0q0.09375 -0.46875 0.140625 -1.125l-0.1875 0q0.046875 -0.9375 0.046875 -1.640625l0 -0.515625q-0.5625 0.796875 -1.484375 1.453125q-0.90625 0.65625 -2.453125 1.359375q-0.140625 -0.375 -0.5625 -0.84375q1.03125 -0.234375 2.0625 -0.859375q1.03125 -0.640625 1.640625 -1.390625l-1.96875 0q-0.9375 0 -1.78125 0.09375l0 -0.890625q0.890625 0.046875 1.78125 0.046875l1.078125 0zm3.703125 0.796875q1.40625 0.84375 3.1875 2.0625q-0.421875 0.421875 -0.703125 0.796875q-1.359375 -1.171875 -3.0 -2.15625q0.28125 -0.328125 0.515625 -0.703125z" fill-rule="nonzero"/><path fill="#000000" d="m307.97305 157.91907q0.375 0.046875 0.046875 0.28125l0 0.703125l3.375 0l0 0.890625l-3.375 0l0 1.453125l4.640625 0l0 0.890625l-10.078125 0l0 -0.890625l4.5 0l0 -1.453125l-3.28125 0l0 -0.890625l3.28125 0l0 -0.984375l0.890625 0zm-3.703125 -2.578125l-1.78125 0l0 -0.75l1.78125 0l0 -1.6875l-1.359375 0l0 -0.75l5.34375 0l0 0.75l-1.21875 0l0 1.6875l1.546875 0l0 0.75l-1.546875 0l0 2.484375l-0.796875 0l0 -2.484375l-1.171875 0l0 0.375q0 1.96875 -2.34375 2.8125l-0.375 -0.890625q1.921875 -0.5625 1.921875 -2.015625l0 -0.28125zm7.875 -3.328125q0.375 0.046875 0.046875 0.28125l0 4.875q0 0.75 -0.75 0.75l-0.9375 0l-0.140625 -0.890625l0.703125 0q0.1875 0 0.1875 -0.1875l0 -4.828125l0.890625 0zm-5.90625 2.578125l0 -1.6875l-1.171875 0l0 1.6875l1.171875 0zm3.75 -1.78125q0.375 0.046875 0.046875 0.28125l0 3.46875l-0.9375 0l0 -3.75l0.890625 0z" fill-rule="nonzero"/><path fill="#f6b26b" d="m355.61417 105.520996l63.874023 0l0 60.7874l-63.874023 0z" fill-rule="evenodd"/><path stroke="#000000" stroke-width="1.0" stroke-linejoin="round" stroke-linecap="butt" d="m355.61417 105.520996l63.874023 0l0 60.7874l-63.874023 0z" fill-rule="evenodd"/><path fill="#000000" d="m373.8168 114.700325q0.75 0.046875 1.6875 0.046875l4.21875 0q-0.28125 0.84375 -0.78125 1.859375q-0.484375 1.0 -1.328125 1.984375q1.5 0.984375 3.46875 1.03125q-0.375 0.421875 -0.5625 0.984375q-2.015625 -0.421875 -3.609375 -1.453125q-0.609375 0.375 -1.453125 0.8125q-0.84375 0.453125 -1.828125 0.734375q-0.1875 -0.375 -0.703125 -0.703125q1.03125 -0.1875 1.9375 -0.609375q0.921875 -0.421875 1.390625 -0.84375q-1.03125 -1.078125 -1.6875 -3.046875l-0.75 0l0 -0.796875zm4.78125 -0.46875q-0.796875 0 -0.84375 -0.65625l0 -2.625l-2.0625 0q0 1.3125 -0.3125 2.0625q-0.296875 0.75 -1.28125 1.546875q-0.1875 -0.328125 -0.75 -0.5625q1.171875 -0.796875 1.328125 -1.828125q0.171875 -1.03125 0.125 -1.96875l3.9375 0q-0.046875 0.5625 -0.046875 1.40625l0 1.265625q0 0.375 0.25 0.453125q0.265625 0.0625 0.734375 0.046875q0.46875 -0.03125 1.078125 -0.078125q-0.09375 0.46875 0 0.9375l-2.15625 0zm-5.953125 -0.84375q-0.046875 0.84375 -0.046875 1.875l0 2.859375q0.609375 -0.5625 1.03125 -1.125q0.140625 0.46875 0.46875 0.984375q-0.609375 0.5625 -1.125 1.078125q-0.515625 0.515625 -0.9375 1.125q-0.328125 -0.515625 -0.703125 -0.796875q0.375 -0.375 0.375 -1.078125l0 -4.125q-0.984375 0 -1.640625 0.046875l0 -0.890625q0.609375 0.046875 1.265625 0.046875l1.3125 0zm4.3125 4.546875q0.9375 -0.9375 1.453125 -2.4375l-2.90625 0q0.328125 1.453125 1.453125 2.4375zm-5.484375 -8.203125q0.75 0.609375 1.828125 1.921875q-0.375 0.234375 -0.75 0.609375q-0.796875 -1.078125 -1.6875 -1.921875q0.28125 -0.1875 0.609375 -0.609375z" fill-rule="nonzero"/><path fill="#000000" d="m384.03555 119.34095l8.8125 0l0 0.75l-8.8125 0l0 0.375l-0.9375 0l0 -5.90625l0.890625 0q0.375 0.046875 0.046875 0.28125l0 4.5zm5.109375 -7.6875l1.734375 0l0 -0.984375l-1.734375 0l0 0.984375zm-0.796875 0l0 -0.984375l-1.6875 0l0 0.984375l1.6875 0zm-2.484375 0l0 -0.984375l-1.734375 0l0 0.984375l1.734375 0zm-2.671875 0.5625l0 -2.109375l8.625 0l0 2.109375l-3.703125 0l0 0.65625l4.640625 0l0 0.75l-4.640625 0l0 0.65625l2.90625 0l0 4.5l-5.859375 0l0 -4.5l2.015625 0l0 -0.65625l-5.0625 0l0 -0.75l5.0625 0l0 -0.65625l-1.96875 0l-2.015625 0zm7.03125 3.328125l0 -0.703125l-4.265625 0l0 0.703125l4.265625 0zm0 1.3125l0 -0.75l-4.265625 0l0 0.75l4.265625 0zm0 1.359375l0 -0.796875l-4.265625 0l0 0.796875l4.265625 0zm5.484375 -4.5q0.328125 1.828125 0.515625 3.65625l-0.9375 0.09375q-0.1875 -1.734375 -0.5625 -3.5625l0.984375 -0.1875zm5.25 -3.796875l0.890625 0q0.375 0.046875 0.046875 0.28125l0 1.875l2.859375 0l0 0.890625l-2.859375 0l0 2.0625l2.484375 0l0 5.15625l-0.9375 0l0 -0.5625l-3.234375 0l0 0.65625l-0.9375 0l0 -5.25l1.6875 0l0 -5.109375zm-1.875 3.09375l-4.78125 0l0 -0.890625l2.015625 0l0 -2.109375l0.890625 0q0.375 0.046875 0.046875 0.28125l0 1.828125l1.828125 0l0 0.890625zm-4.21875 6.234375q-0.140625 0.46875 -0.328125 0.046875l-0.328125 -0.9375l2.671875 -0.328125q0.375 -2.296875 0.46875 -4.640625l1.171875 0.28125q0.421875 0.1875 -0.09375 0.328125q-0.1875 1.875 -0.609375 3.9375l1.171875 -0.1875l0 0.84375l-4.125 0.65625zm5.34375 -0.515625l3.234375 0l0 -2.8125l-3.234375 0l0 2.8125z" fill-rule="nonzero"/><path fill="#000000" d="m378.8793 131.46594q0.9375 0.890625 1.6875 2.203125l-1.125 0.5625q-0.65625 -1.40625 -1.40625 -2.296875l0.84375 -0.46875zm-2.15625 0.046875q0.796875 1.3125 0.9375 2.53125l-1.171875 0.28125q-0.1875 -1.265625 -0.703125 -2.484375l0.9375 -0.328125zm-6.1875 2.296875q0.84375 -0.84375 1.359375 -2.25l0.984375 0.375q-0.328125 1.40625 -1.3125 2.484375l-1.03125 -0.609375zm4.078125 -2.015625q0.375 0.890625 0.28125 2.484375l-1.125 0.046875q0.046875 -1.59375 -0.140625 -2.484375l0.984375 -0.046875zm3.65625 -1.78125l0 -1.828125l-5.25 0l0 1.828125l5.25 0zm-2.484375 -6.1874924q0.375 0.046875 0.046875 0.28125l0 1.03125l3.9375 0l0 0.890625l-3.9375 0l0 1.265625l3.515625 0l0 3.8906174l-1.078125 0l0 -0.28125l-5.25 0l0 0.375l-1.078125 0l0 -3.9843674l2.8125 0l0 -3.46875l1.03125 0zm14.765625 2.953125l2.15625 0l0 0.890625l-2.015625 0q0.046875 2.8593674 2.4375 5.5312424l-0.703125 0.890625q-1.453125 -1.5 -2.109375 -4.078125q-0.1875 2.71875 -2.0625 4.546875l-0.65625 -0.796875q2.015625 -1.828125 2.015625 -6.0937424l-1.453125 0l0 -0.890625l1.453125 0l0 -2.90625l0.890625 0q0.375 0.046875 0.046875 0.28125l0 2.625zm-3.1875 6.5624924q-0.28125 -0.75 -0.609375 -1.359375l0.796875 -0.234375q0.375 0.5625 0.609375 1.265625l-0.796875 0.328125zm4.125 -8.765617q0.515625 0.5625 0.984375 1.3125l-0.84375 0.515625q-0.375 -0.65625 -0.890625 -1.3125l0.75 -0.515625zm-6.375 7.5468674q0.140625 1.03125 0.140625 1.921875l-0.984375 0.046875q0 -0.9375 -0.09375 -1.828125l0.9375 -0.140625zm-0.9375 -6.7031174q0.328125 0.84375 0.46875 1.546875l-0.65625 0.234375q-0.140625 -0.75 -0.375 -1.546875l0.5625 -0.234375zm1.453125 1.59375q0.234375 -0.703125 0.375 -1.640625l0.65625 0.09375q0.421875 0.046875 0 0.28125q-0.140625 0.75 -0.421875 1.5l-0.609375 -0.234375zm2.671875 4.3593674q-2.625 0.328125 -5.625 0.46875q-0.328125 0.515625 -0.421875 -0.046875l-0.09375 -0.890625q1.265625 -0.046875 2.625 -0.09375l0 -0.75l-2.109375 0l0 -0.890625l2.109375 0l0 -0.796875l-1.078125 0l-1.03125 0l0 -4.2187424l5.0625 0l0 4.2187424l-2.15625 0l0 0.796875l2.203125 0l0 0.890625l-2.203125 0l0 0.703125q1.265625 -0.09375 2.71875 -0.234375l0 0.84375zm-3.515625 -3.7499924l0 -2.71875l-1.3125 0l0 2.71875l1.3125 0zm2.15625 0l0 -2.71875l-1.359375 0l0 2.71875l1.359375 0zm-0.5625 4.3593674q0.28125 0.84375 0.421875 1.546875l-0.890625 0.234375q-0.140625 -0.703125 -0.375 -1.640625l0.84375 -0.140625zm-4.078125 2.25q0.328125 -0.796875 0.5625 -2.109375l0.890625 0.1875q-0.09375 1.21875 -0.46875 2.203125l-0.984375 -0.28125z" fill-rule="nonzero"/><path fill="#000000" d="m404.14493 134.5597q-1.265625 -1.078125 -1.953125 -2.25q-0.671875 -1.171875 -1.140625 -3.046875q-0.515625 2.0625 -1.484375 3.359375q-0.953125 1.28125 -1.796875 1.984375q-0.1875 -0.328125 -0.890625 -0.65625q1.03125 -0.703125 1.84375 -1.796875q0.828125 -1.109375 1.21875 -2.203125q0.40625 -1.109375 0.46875 -2.2031174q0.078125 -1.109375 0.078125 -1.953125q0 -0.84375 -0.046875 -1.96875q0.5625 0.046875 1.21875 0.046875q-0.140625 0.1875 -0.1875 1.03125q-0.046875 0.84375 0.046875 2.140625q0.09375 1.2812424 0.46875 2.4531174q0.375 1.171875 1.078125 2.34375q0.703125 1.171875 2.015625 1.96875q-0.75 0.28125 -0.9375 0.75zm-8.71875 -1.59375q0.328125 -0.375 0.328125 -0.796875l0 -3.9375q-1.078125 0 -1.59375 0.046875l0 -0.8906174q0.515625 0.046875 1.125 0.046875l1.453125 0q-0.046875 0.8437424 -0.046875 1.5937424l0 2.765625q0.375 -0.375 1.453125 -1.59375q0.1875 0.421875 0.515625 0.84375q-0.703125 0.703125 -1.359375 1.40625q-0.65625 0.703125 -1.078125 1.265625q-0.46875 -0.46875 -0.796875 -0.75zm1.6875 -6.6562424q-0.75 -1.03125 -1.6875 -1.78125q0.421875 -0.28125 0.65625 -0.65625q0.75 0.609375 1.78125 1.78125q-0.46875 0.28125 -0.75 0.65625z" fill-rule="nonzero"/><path fill="#000000" d="m375.59805 140.59094q-0.9375 1.03125 -1.265625 1.3125l2.90625 0q-0.046875 0.515625 -0.046875 1.265625l0 4.453125q0.046875 0.421875 -0.21875 0.609375q-0.25 0.1875 -0.90625 0.328125q-0.140625 -0.46875 -0.46875 -0.9375q0.796875 0 0.796875 -0.234375l0 -1.21875l-1.265625 0l0 2.34375l-0.84375 0q0.046875 -0.84375 0.046875 -1.6875l0 -3.28125q0 -0.796875 -0.046875 -1.59375l-0.28125 0.234375q-0.328125 -0.375 -0.796875 -0.5625q1.171875 -0.796875 2.015625 -1.84375q0.84375 -1.0625 1.40625 -2.28125q0.5625 0.28125 1.03125 0.375l-0.1875 0.234375q0.890625 1.21875 1.875 1.875q0.984375 0.65625 1.828125 0.9375q-0.421875 0.375 -0.703125 0.84375q-1.03125 -0.515625 -1.78125 -1.171875l0 0.5625l-3.09375 0l0 -0.5625zm-1.875 5.296875q-0.46875 0.09375 -0.9375 0.28125q0 1.453125 0.046875 2.484375l-0.890625 0q0.046875 -1.03125 0.046875 -2.296875q-1.078125 0.28125 -1.546875 0.46875q-0.140625 -0.46875 -0.421875 -0.9375q0.75 -0.09375 1.96875 -0.375l0 -1.78125q-1.125 0.09375 -1.6875 0.328125l-0.328125 -0.796875q0.375 -0.234375 0.703125 -1.171875q0.328125 -0.9375 0.515625 -1.828125q-0.46875 0 -0.984375 0.046875l0 -0.84375q0.609375 0.046875 1.125 0.046875q0.1875 -0.890625 0.234375 -1.78125q0.609375 0.1875 1.125 0.28125q-0.28125 0.328125 -0.515625 1.5q0.984375 0 1.6875 -0.046875l0 0.84375q-0.84375 -0.046875 -1.828125 -0.046875q-0.46875 1.734375 -0.9375 2.8125l0.890625 -0.09375q0 -0.609375 -0.046875 -1.40625l0.890625 0q-0.046875 0.421875 -0.046875 1.3125l0.796875 -0.09375l0 0.75l-0.796875 0.09375l0 1.6875l0.9375 -0.234375l0 0.796875zm6.65625 -3.9375q-0.046875 0.75 -0.046875 1.453125l0 4.21875q0 0.515625 -0.234375 0.703125q-0.234375 0.1875 -1.171875 0.375q-0.09375 -0.421875 -0.46875 -0.9375q1.03125 0.046875 1.078125 -0.328125l0 -3.9375q0 -0.75 -0.046875 -1.546875l0.890625 0zm-1.5 0.421875q-0.046875 0.5625 -0.046875 1.3125l0 2.0625q0 0.890625 0.046875 1.453125l-0.9375 0q0.046875 -0.703125 0.046875 -1.40625l0 -2.109375q0 -0.65625 -0.046875 -1.3125l0.9375 0zm-0.421875 -1.96875q-0.5625 -0.515625 -1.453125 -1.734375q-0.75 1.125 -1.265625 1.734375l2.71875 0zm-2.0625 3.28125l0 -1.078125l-1.265625 0l0 1.078125l1.265625 0zm0 1.734375l0 -1.03125l-1.265625 0l0 1.03125l1.265625 0z" fill-rule="nonzero"/><path fill="#000000" d="m384.22305 138.95032q0.375 0.046875 0.046875 0.28125l0 2.53125l2.765625 0l0 -3.75l0.890625 0q0.375 0.046875 0.046875 0.28125l0 3.46875l2.71875 0l0 -2.765625l0.890625 0q0.375 0.046875 0.046875 0.28125l0 3.796875l-0.9375 0l0 -0.421875l-2.71875 0l0 4.03125l3.09375 0l0 -2.859375l0.890625 0q0.375 0.046875 0.046875 0.28125l0 3.984375l-0.9375 0l0 -0.515625l-7.265625 0l0 0.65625l-0.9375 0l0 -4.453125l0.890625 0q0.375 0.046875 0.046875 0.28125l0 2.625l3.234375 0l0 -4.03125l-2.765625 0l0 0.515625l-0.9375 0l0 -4.21875l0.890625 0zm20.34375 5.296875q-1.96875 -0.65625 -3.234375 -1.6875q-0.984375 0.890625 -2.953125 1.828125l-0.28125 -0.75l-0.421875 0.609375q-0.375 -0.609375 -0.796875 -0.984375l0 5.203125l-0.9375 0l0 -5.15625q-0.421875 1.265625 -1.3125 2.34375l-0.609375 -0.890625q1.546875 -1.96875 1.875 -3.9375l-1.59375 0l0 -0.890625l1.640625 0l0 -2.15625l0.890625 0q0.328125 0.09375 0.046875 0.28125l0 1.875l1.359375 0l0 0.890625l-1.359375 0l0 1.40625q0.84375 0.46875 1.3125 1.078125q1.6875 -0.609375 2.484375 -1.359375q-0.46875 -0.515625 -0.890625 -1.3125q-0.234375 0.609375 -1.171875 1.59375l-0.703125 -0.75q1.6875 -1.59375 2.15625 -3.796875l0.984375 0.234375q0.1875 0.1875 -0.140625 0.234375l-0.28125 0.84375l2.4375 0l0.1875 -0.234375l0.703125 0.609375l-0.234375 0.140625q-0.65625 1.3125 -1.6875 2.4375q1.21875 0.796875 2.953125 1.3125l-0.421875 0.984375zm-1.78125 3.984375l0 -0.46875l-2.765625 0l0 0.65625l-0.9375 0l0 -4.3125l4.640625 0l0 4.125l-0.9375 0zm0 -1.21875l0 -2.15625l-2.765625 0l0 2.15625l2.765625 0zm-1.40625 -5.671875q0.65625 -0.609375 1.125 -1.59375l-2.203125 0q0.421875 0.890625 1.078125 1.59375z" fill-rule="nonzero"/><path fill="#000000" d="m390.26993 159.70032q0.609375 1.125 1.078125 1.125q0.1875 0 0.234375 -0.28125l0.09375 -0.796875l1.03125 0.46875l-0.1875 1.125q-0.140625 0.796875 -0.84375 0.796875q-1.40625 0 -2.390625 -1.921875q-0.9375 -1.828125 -0.984375 -5.15625l-5.765625 0l0 -1.03125l5.71875 0l0 -2.15625l1.03125 0q0.46875 0.09375 0.046875 0.375l0 1.78125l3.28125 0l0 1.03125l-3.28125 0q0.1875 3.28125 0.9375 4.640625zm-1.828125 0.84375q-2.625 0.5625 -5.296875 1.03125q-0.09375 0.421875 -0.328125 0.09375l-0.234375 -1.171875q1.171875 -0.09375 2.296875 -0.28125l0 -2.671875l-1.875 0l0 -0.890625l4.640625 0l0 0.890625l-1.828125 0l0 2.53125q1.078125 -0.140625 2.484375 -0.421875l0.140625 0.890625zm2.15625 -8.4375q0.65625 0.328125 1.265625 0.890625l-0.84375 0.703125q-0.46875 -0.46875 -1.21875 -0.890625l0.796875 -0.703125z" fill-rule="nonzero"/><path fill="#f6b26b" d="m435.61417 105.520996l63.874023 0l0 60.7874l-63.874023 0z" fill-rule="evenodd"/><path stroke="#000000" stroke-width="1.0" stroke-linejoin="round" stroke-linecap="butt" d="m435.61417 105.520996l63.874023 0l0 60.7874l-63.874023 0z" fill-rule="evenodd"/><path fill="#000000" d="m453.11368 112.481575q3.09375 -0.796875 3.5625 -3.5625l-2.8125 0l0 -0.890625l0.890625 0l0 -3.328125l2.015625 0l0 -1.96875l0.890625 0q0.375 0.046875 0.046875 0.28125l0 1.6875l2.109375 0l0 3.328125l0.984375 0l0 0.890625l-3.0 0q0.890625 2.34375 3.375 3.28125l-0.515625 0.984375q-2.34375 -1.078125 -3.328125 -3.28125q-0.84375 2.625 -3.703125 3.5625l-0.515625 -0.984375zm3.65625 -6.890625l-1.078125 0l0 2.4375l1.078125 0l0 -2.4375zm2.109375 2.4375l0 -2.4375l-1.171875 0l0 2.4375l1.171875 0zm-8.390625 4.265625l0 -8.53125l3.09375 0l0 7.78125l-2.15625 0l0 0.75l-0.9375 0zm2.15625 -5.203125l0 -2.4375l-1.21875 0l0 2.4375l1.21875 0zm0 3.5625l0 -2.671875l-1.21875 0l0 2.671875l1.21875 0zm16.21875 -3.234375q0.703125 0.9375 1.171875 2.578125l-0.890625 0.46875q-0.28125 -1.453125 -1.03125 -2.578125l0.75 -0.46875zm-1.78125 5.203125q0 0.703125 -0.609375 0.703125l-1.078125 0l-0.1875 -0.75l0.9375 0q0.140625 0 0.140625 -0.1875l0 -2.15625q-1.40625 1.546875 -3.796875 2.671875l-0.328125 -0.84375q2.4375 -1.078125 3.796875 -2.71875l-3.140625 0.5625q-0.1875 0.375 -0.328125 0.046875l-0.234375 -0.984375l0.9375 -0.046875l0 -4.921875l1.265625 0l0.28125 -1.265625l0.984375 0.09375q0.328125 0.046875 -0.046875 0.28125l-0.328125 0.890625l1.734375 0l0 3.984375l0.609375 0.46875q-0.234375 0.375 -0.609375 0.890625l0 3.28125zm4.40625 -0.09375q0 0.75 -0.75 0.75l-1.171875 0l-0.1875 -0.890625l0.984375 0q0.1875 0 0.1875 -0.1875l0 -5.859375l-3.0 0l0 -0.890625l3.0 0l0 -2.390625l0.890625 0q0.375 0.046875 0.046875 0.28125l0 2.109375l1.5 0l0 0.890625l-1.5 0l0 6.1875zm-5.203125 -3.9375l0 -0.84375l-2.296875 0l0 1.078125l2.296875 -0.234375zm-2.296875 -2.34375l0 0.75l2.296875 0l0 -0.75l-2.296875 0zm2.296875 -0.75l0 -0.75l-2.296875 0l0 0.75l2.296875 0zm9.421875 1.21875q0.328125 1.828125 0.515625 3.65625l-0.9375 0.09375q-0.1875 -1.734375 -0.5625 -3.5625l0.984375 -0.1875zm5.25 -3.796875l0.890625 0q0.375 0.046875 0.046875 0.28125l0 1.875l2.859375 0l0 0.890625l-2.859375 0l0 2.0625l2.484375 0l0 5.15625l-0.9375 0l0 -0.5625l-3.234375 0l0 0.65625l-0.9375 0l0 -5.25l1.6875 0l0 -5.109375zm-1.875 3.09375l-4.78125 0l0 -0.890625l2.015625 0l0 -2.109375l0.890625 0q0.375 0.046875 0.046875 0.28125l0 1.828125l1.828125 0l0 0.890625zm-4.21875 6.234375q-0.140625 0.46875 -0.328125 0.046875l-0.328125 -0.9375l2.671875 -0.328125q0.375 -2.296875 0.46875 -4.640625l1.171875 0.28125q0.421875 0.1875 -0.09375 0.328125q-0.1875 1.875 -0.609375 3.9375l1.171875 -0.1875l0 0.84375l-4.125 0.65625zm5.34375 -0.515625l3.234375 0l0 -2.8125l-3.234375 0l0 2.8125z" fill-rule="nonzero"/><path fill="#000000" d="m458.8793 124.46595q0.9375 0.890625 1.6875 2.203125l-1.125 0.5625q-0.65625 -1.40625 -1.40625 -2.296875l0.84375 -0.46875zm-2.15625 0.046875q0.796875 1.3125 0.9375 2.53125l-1.171875 0.28125q-0.1875 -1.265625 -0.703125 -2.484375l0.9375 -0.328125zm-6.1875 2.296875q0.84375 -0.84375 1.359375 -2.25l0.984375 0.375q-0.328125 1.40625 -1.3125 2.484375l-1.03125 -0.609375zm4.078125 -2.015625q0.375 0.890625 0.28125 2.484375l-1.125 0.046875q0.046875 -1.59375 -0.140625 -2.484375l0.984375 -0.046875zm3.65625 -1.78125l0 -1.828125l-5.25 0l0 1.828125l5.25 0zm-2.484375 -6.1875q0.375 0.046875 0.046875 0.28125l0 1.03125l3.9375 0l0 0.890625l-3.9375 0l0 1.265625l3.515625 0l0 3.890625l-1.078125 0l0 -0.28125l-5.25 0l0 0.375l-1.078125 0l0 -3.984375l2.8125 0l0 -3.46875l1.03125 0z" fill-rule="nonzero"/><path fill="#000000" d="m467.59805 119.59095q-0.9375 1.03125 -1.265625 1.3125l2.90625 0q-0.046875 0.515625 -0.046875 1.265625l0 4.453125q0.046875 0.421875 -0.21875 0.609375q-0.25 0.1875 -0.90625 0.328125q-0.140625 -0.46875 -0.46875 -0.9375q0.796875 0 0.796875 -0.234375l0 -1.21875l-1.265625 0l0 2.34375l-0.84375 0q0.046875 -0.84375 0.046875 -1.6875l0 -3.28125q0 -0.796875 -0.046875 -1.59375l-0.28125 0.234375q-0.328125 -0.375 -0.796875 -0.5625q1.171875 -0.796875 2.015625 -1.84375q0.84375 -1.0625 1.40625 -2.28125q0.5625 0.28125 1.03125 0.375l-0.1875 0.234375q0.890625 1.21875 1.875 1.875q0.984375 0.65625 1.828125 0.9375q-0.421875 0.375 -0.703125 0.84375q-1.03125 -0.515625 -1.78125 -1.171875l0 0.5625l-3.09375 0l0 -0.5625zm-1.875 5.296875q-0.46875 0.09375 -0.9375 0.28125q0 1.453125 0.046875 2.484375l-0.890625 0q0.046875 -1.03125 0.046875 -2.296875q-1.078125 0.28125 -1.546875 0.46875q-0.140625 -0.46875 -0.421875 -0.9375q0.75 -0.09375 1.96875 -0.375l0 -1.78125q-1.125 0.09375 -1.6875 0.328125l-0.328125 -0.796875q0.375 -0.234375 0.703125 -1.171875q0.328125 -0.9375 0.515625 -1.828125q-0.46875 0 -0.984375 0.046875l0 -0.84375q0.609375 0.046875 1.125 0.046875q0.1875 -0.890625 0.234375 -1.78125q0.609375 0.1875 1.125 0.28125q-0.28125 0.328125 -0.515625 1.5q0.984375 0 1.6875 -0.046875l0 0.84375q-0.84375 -0.046875 -1.828125 -0.046875q-0.46875 1.734375 -0.9375 2.8125l0.890625 -0.09375q0 -0.609375 -0.046875 -1.40625l0.890625 0q-0.046875 0.421875 -0.046875 1.3125l0.796875 -0.09375l0 0.75l-0.796875 0.09375l0 1.6875l0.9375 -0.234375l0 0.796875zm6.65625 -3.9375q-0.046875 0.75 -0.046875 1.453125l0 4.21875q0 0.515625 -0.234375 0.703125q-0.234375 0.1875 -1.171875 0.375q-0.09375 -0.421875 -0.46875 -0.9375q1.03125 0.046875 1.078125 -0.328125l0 -3.9375q0 -0.75 -0.046875 -1.546875l0.890625 0zm-1.5 0.421875q-0.046875 0.5625 -0.046875 1.3125l0 2.0625q0 0.890625 0.046875 1.453125l-0.9375 0q0.046875 -0.703125 0.046875 -1.40625l0 -2.109375q0 -0.65625 -0.046875 -1.3125l0.9375 0zm-0.421875 -1.96875q-0.5625 -0.515625 -1.453125 -1.734375q-0.75 1.125 -1.265625 1.734375l2.71875 0zm-2.0625 3.28125l0 -1.078125l-1.265625 0l0 1.078125l1.265625 0zm0 1.734375l0 -1.03125l-1.265625 0l0 1.03125l1.265625 0z" fill-rule="nonzero"/><path fill="#000000" d="m476.22305 117.950325q0.375 0.046875 0.046875 0.28125l0 2.53125l2.765625 0l0 -3.75l0.890625 0q0.375 0.046875 0.046875 0.28125l0 3.46875l2.71875 0l0 -2.765625l0.890625 0q0.375 0.046875 0.046875 0.28125l0 3.796875l-0.9375 0l0 -0.421875l-2.71875 0l0 4.03125l3.09375 0l0 -2.859375l0.890625 0q0.375 0.046875 0.046875 0.28125l0 3.984375l-0.9375 0l0 -0.515625l-7.265625 0l0 0.65625l-0.9375 0l0 -4.453125l0.890625 0q0.375 0.046875 0.046875 0.28125l0 2.625l3.234375 0l0 -4.03125l-2.765625 0l0 0.515625l-0.9375 0l0 -4.21875l0.890625 0z" fill-rule="nonzero"/><path fill="#000000" d="m460.5668 137.2472q-1.96875 -0.65625 -3.234375 -1.6875q-0.984375 0.890625 -2.953125 1.828125l-0.28125 -0.75l-0.421875 0.609375q-0.375 -0.609375 -0.796875 -0.984375l0 5.203125l-0.9375 0l0 -5.15625q-0.421875 1.265625 -1.3125 2.34375l-0.609375 -0.890625q1.546875 -1.96875 1.875 -3.9375l-1.59375 0l0 -0.890625l1.640625 0l0 -2.15625l0.890625 0q0.328125 0.09375 0.046875 0.28125l0 1.875l1.359375 0l0 0.890625l-1.359375 0l0 1.40625q0.84375 0.46875 1.3125 1.078125q1.6875 -0.609375 2.484375 -1.359375q-0.46875 -0.515625 -0.890625 -1.3125q-0.234375 0.609375 -1.171875 1.59375l-0.703125 -0.75q1.6875 -1.59375 2.15625 -3.796875l0.984375 0.234375q0.1875 0.1875 -0.140625 0.234375l-0.28125 0.84375l2.4375 0l0.1875 -0.234375l0.703125 0.609375l-0.234375 0.140625q-0.65625 1.3125 -1.6875 2.4375q1.21875 0.796875 2.953125 1.3125l-0.421875 0.984375zm-1.78125 3.984375l0 -0.46875l-2.765625 0l0 0.65625l-0.9375 0l0 -4.3125l4.640625 0l0 4.125l-0.9375 0zm0 -1.21875l0 -2.15625l-2.765625 0l0 2.15625l2.765625 0zm-1.40625 -5.671875q0.65625 -0.609375 1.125 -1.59375l-2.203125 0q0.421875 0.890625 1.078125 1.59375zm12.890625 4.359375q0.609375 1.125 1.078125 1.125q0.1875 0 0.234375 -0.28125l0.09375 -0.796875l1.03125 0.46875l-0.1875 1.125q-0.140625 0.796875 -0.84375 0.796875q-1.40625 0 -2.390625 -1.921875q-0.9375 -1.828125 -0.984375 -5.15625l-5.765625 0l0 -1.03125l5.71875 0l0 -2.15625l1.03125 0q0.46875 0.09375 0.046875 0.375l0 1.78125l3.28125 0l0 1.03125l-3.28125 0q0.1875 3.28125 0.9375 4.640625zm-1.828125 0.84375q-2.625 0.5625 -5.296875 1.03125q-0.09375 0.421875 -0.328125 0.09375l-0.234375 -1.171875q1.171875 -0.09375 2.296875 -0.28125l0 -2.671875l-1.875 0l0 -0.890625l4.640625 0l0 0.890625l-1.828125 0l0 2.53125q1.078125 -0.140625 2.484375 -0.421875l0.140625 0.890625zm2.15625 -8.4375q0.65625 0.328125 1.265625 0.890625l-0.84375 0.703125q-0.46875 -0.46875 -1.21875 -0.890625l0.796875 -0.703125zm13.78125 0.046875q0.375 0.046875 0.046875 0.28125l0 9.140625q0 0.75 -0.75 0.75l-0.9375 0l-0.140625 -0.890625l0.703125 0q0.1875 0 0.1875 -0.1875l0 -9.09375l0.890625 0zm-3.09375 7.875l0 -6.796875l0.890625 0q0.375 0.046875 0.046875 0.28125l0 6.515625l-0.9375 0zm-6.46875 -1.875l2.15625 0l0 -1.359375l0.890625 0q0.375 0.046875 0.046875 0.28125l0 1.078125l2.203125 0l0 0.890625l-2.203125 0l0 1.640625l2.53125 -0.375l0.140625 0.796875l-5.625 1.03125q-0.046875 0.328125 -0.234375 0.140625l-0.375 -1.125l2.625 -0.328125l0 -1.78125l-2.15625 0l0 -0.890625zm0.140625 -1.5q-0.046875 0.328125 -0.234375 0.140625l-0.28125 -1.125l1.21875 -0.046875l0.890625 -2.34375l-2.0625 0l0 -0.890625l5.90625 0l0 0.890625l-2.765625 0l-1.03125 2.296875l2.25 -0.1875q-0.328125 -0.46875 -0.890625 -1.03125l0.75 -0.515625q1.125 1.03125 1.828125 2.25l-0.84375 0.609375l-0.375 -0.5625l-4.359375 0.515625z" fill-rule="nonzero"/><path fill="#000000" d="m456.72305 145.76282q2.0625 -0.328125 3.09375 -0.796875l0.515625 0.890625q0.1875 0.421875 -0.28125 0.1875q-1.734375 0.375 -3.28125 0.515625l0 1.96875l4.125 0l0 0.890625l-1.546875 0l0 5.90625l-0.9375 0l0 -5.90625l-1.640625 0l0 1.453125q0 3.09375 -2.25 4.59375l-0.703125 -0.84375q2.015625 -1.21875 2.015625 -3.84375l0 -5.34375l0.890625 0.328125zm-1.78125 1.6875l0 4.078125l-0.9375 0l0 -0.46875l-2.109375 0l0 1.3125q0 1.78125 -0.75 3.0l-0.84375 -0.65625q0.65625 -0.9375 0.65625 -2.390625l0 -4.875l3.984375 0zm-0.9375 2.71875l0 -1.828125l-2.109375 0l0 1.828125l2.109375 0zm-3.421875 -3.984375l0 -0.890625l4.6875 0l0 0.890625l-4.6875 0zm11.625 5.0625q2.765625 -1.546875 3.5625 -3.984375l-3.140625 0l0 -0.890625l3.375 0q0.140625 -0.5625 0.234375 -1.6875l1.21875 0.234375q0.1875 0.1875 -0.140625 0.234375l-0.234375 1.21875l5.625 0l0 0.890625l-5.8125 0q-0.1875 0.65625 -0.421875 1.078125l4.640625 0l0 6.234375q0 0.75 -0.75 0.75l-1.078125 0l-0.234375 -0.890625l0.9375 0q0.1875 0 0.1875 -0.1875l0 -1.265625l-4.078125 0l0 2.484375l-0.9375 0l0 -5.15625q-1.125 1.171875 -2.390625 1.921875l-0.5625 -0.984375zm3.890625 -0.1875l0 1.03125l4.078125 0l0 -1.03125l-4.078125 0zm4.078125 -0.890625l0 -0.9375l-4.078125 0l0 0.9375l4.078125 0z" fill-rule="nonzero"/><path fill="#000000" d="m482.73868 145.38782q0.75 0 1.875 -0.046875l0 0.9375q-1.125 -0.046875 -1.875 -0.046875l-2.71875 0l-0.1875 1.59375l3.515625 0q-0.046875 0.703125 -0.046875 1.40625l0 1.921875q0 0.75 0.046875 1.546875l-1.03125 0l0 -4.125l-5.390625 0l0 4.3125l-1.03125 0q0.046875 -0.84375 0.046875 -1.59375l0 -1.96875q0 -0.796875 -0.046875 -1.5l3.046875 0q0.09375 -0.75 0.1875 -1.59375l-2.90625 0q-0.890625 0 -1.6875 0.046875l0 -0.9375q1.03125 0.046875 1.6875 0.046875l6.515625 0zm-2.625 4.21875q-0.234375 0.703125 -0.359375 1.546875q-0.109375 0.84375 -0.4375 1.671875q-0.328125 0.8125 -1.34375 1.546875q-1.0 0.71875 -2.96875 1.28125q-0.234375 -0.421875 -0.65625 -0.9375q1.453125 -0.234375 2.34375 -0.65625q0.890625 -0.421875 1.40625 -1.03125q0.515625 -0.609375 0.671875 -1.5q0.171875 -0.890625 0.171875 -2.0625q0.515625 0.140625 1.171875 0.140625zm0.5625 3.046875q0.84375 0.421875 1.6875 0.921875q0.84375 0.484375 1.921875 1.234375q-0.328125 0.375 -0.65625 0.796875q-0.84375 -0.703125 -1.59375 -1.171875q-0.75 -0.46875 -1.96875 -1.078125q0.421875 -0.421875 0.609375 -0.703125z" fill-rule="nonzero"/><path fill="#000000" d="m460.05118 169.13782l-0.9375 0l0 -0.46875l-7.171875 0l0 0.65625l-0.9375 0l0 -7.40625l3.84375 0l0.375 -1.546875l-4.78125 0l0 -0.890625l10.171875 0l0 0.890625l-4.3125 0l-0.515625 1.546875l4.265625 0l0 7.21875zm-6.46875 -1.359375l0 -4.96875l-1.640625 0l0 4.96875l1.640625 0zm2.953125 0l0 -1.171875l-2.015625 0l0 1.171875l2.015625 0zm0 -1.921875l0 -1.078125l-2.015625 0l0 1.078125l2.015625 0zm0 -3.046875l-2.015625 0l0 1.21875l2.015625 0l0 -1.21875zm2.578125 0l-1.640625 0l0 4.96875l1.640625 0l0 -4.96875z" fill-rule="nonzero"/><path fill="#000000" d="m465.53555 161.16907q-0.703125 -0.9375 -1.5 -1.59375q0.375 -0.28125 0.65625 -0.609375l1.59375 1.546875q-0.234375 0.1875 -0.609375 0.65625l1.546875 0l0 -1.265625q0 -0.65625 -0.046875 -1.078125l0.984375 0q-0.046875 0.515625 -0.046875 1.078125l0 1.265625l1.546875 0q-0.375 -0.328125 -0.609375 -0.515625q0.84375 -0.796875 1.5 -1.921875q0.375 0.328125 0.890625 0.65625q-0.328125 0.28125 -0.6875 0.65625q-0.34375 0.375 -0.953125 1.125l1.171875 0q0.75 0 1.640625 -0.046875l0 0.84375q-0.890625 -0.046875 -1.640625 -0.046875l-2.859375 0l0 0.796875q0 0.75 0.046875 1.640625l-0.65625 0q0.5625 0.1875 0.9375 0.328125q-0.1875 0.234375 -0.28125 0.796875l2.8125 0q0.9375 0 1.875 -0.046875l0 0.84375q-0.890625 -0.046875 -1.828125 -0.046875l-2.578125 0q0.703125 1.078125 1.9375 1.6875q1.25 0.609375 2.515625 0.84375q-0.375 0.328125 -0.609375 0.9375q-1.40625 -0.421875 -2.578125 -1.203125q-1.171875 -0.765625 -1.96875 -1.84375q-0.46875 1.125 -1.640625 1.875q-1.171875 0.75 -3.09375 1.21875q-0.234375 -0.515625 -0.5625 -0.890625q1.6875 -0.234375 2.875 -0.84375q1.203125 -0.609375 1.671875 -1.78125l-2.390625 0q-1.125 0 -2.0625 0.046875l0 -0.84375q0.796875 0.046875 2.015625 0.046875l2.671875 0q0.09375 -0.46875 0.140625 -1.125l-0.1875 0q0.046875 -0.9375 0.046875 -1.640625l0 -0.515625q-0.5625 0.796875 -1.484375 1.453125q-0.90625 0.65625 -2.453125 1.359375q-0.140625 -0.375 -0.5625 -0.84375q1.03125 -0.234375 2.0625 -0.859375q1.03125 -0.640625 1.640625 -1.390625l-1.96875 0q-0.9375 0 -1.78125 0.09375l0 -0.890625q0.890625 0.046875 1.78125 0.046875l1.078125 0zm3.703125 0.796875q1.40625 0.84375 3.1875 2.0625q-0.421875 0.421875 -0.703125 0.796875q-1.359375 -1.171875 -3.0 -2.15625q0.28125 -0.328125 0.515625 -0.703125z" fill-rule="nonzero"/><path fill="#000000" d="m479.97305 164.91907q0.375 0.046875 0.046875 0.28125l0 0.703125l3.375 0l0 0.890625l-3.375 0l0 1.453125l4.640625 0l0 0.890625l-10.078125 0l0 -0.890625l4.5 0l0 -1.453125l-3.28125 0l0 -0.890625l3.28125 0l0 -0.984375l0.890625 0zm-3.703125 -2.578125l-1.78125 0l0 -0.75l1.78125 0l0 -1.6875l-1.359375 0l0 -0.75l5.34375 0l0 0.75l-1.21875 0l0 1.6875l1.546875 0l0 0.75l-1.546875 0l0 2.484375l-0.796875 0l0 -2.484375l-1.171875 0l0 0.375q0 1.96875 -2.34375 2.8125l-0.375 -0.890625q1.921875 -0.5625 1.921875 -2.015625l0 -0.28125zm7.875 -3.328125q0.375 0.046875 0.046875 0.28125l0 4.875q0 0.75 -0.75 0.75l-0.9375 0l-0.140625 -0.890625l0.703125 0q0.1875 0 0.1875 -0.1875l0 -4.828125l0.890625 0zm-5.90625 2.578125l0 -1.6875l-1.171875 0l0 1.6875l1.171875 0zm3.75 -1.78125q0.375 0.046875 0.046875 0.28125l0 3.46875l-0.9375 0l0 -3.75l0.890625 0z" fill-rule="nonzero"/></g></svg>