<svg version="1.1" viewBox="0.0 0.0 668.1154855643044 244.0524934383202" fill="none" stroke="none" stroke-linecap="square" stroke-miterlimit="10" xmlns:xlink="http://www.w3.org/1999/xlink" xmlns="http://www.w3.org/2000/svg"><clipPath id="p.0"><path d="m0 0l668.1155 0l0 244.05249l-668.1155 0l0 -244.05249z" clip-rule="nonzero"/></clipPath><g clip-path="url(#p.0)"><path fill="#000000" fill-opacity="0.0" d="m0 0l668.1155 0l0 244.05249l-668.1155 0z" fill-rule="evenodd"/><path fill="#f6b26b" d="m454.21652 101.28609l184.7244 0l0 41.795273l-184.7244 0z" fill-rule="evenodd"/><path stroke="#000000" stroke-width="1.0" stroke-linejoin="round" stroke-linecap="butt" d="m454.21652 101.28609l184.7244 0l0 41.795273l-184.7244 0z" fill-rule="evenodd"/><path fill="#000000" d="m493.35422 127.263725l0 -9.25l-3.453125 0l0 -1.234375l8.3125 0l0 1.234375l-3.46875 0l0 9.25l-1.390625 0zm9.701965 -2.453125l1.328125 0.171875q-0.3125 1.171875 -1.171875 1.8125q-0.84375 0.640625 -2.171875 0.640625q-1.671875 0 -2.65625 -1.015625q-0.96875 -1.03125 -0.96875 -2.890625q0 -1.921875 0.984375 -2.96875q1.0 -1.0625 2.578125 -1.0625q1.515625 0 2.484375 1.03125q0.96875 1.03125 0.96875 2.921875q0 0.109375 -0.015625 0.34375l-5.65625 0q0.0625 1.25 0.703125 1.921875q0.640625 0.65625 1.59375 0.65625q0.703125 0 1.203125 -0.359375q0.5 -0.375 0.796875 -1.203125zm-4.234375 -2.078125l4.25 0q-0.09375 -0.953125 -0.484375 -1.4375q-0.625 -0.75 -1.609375 -0.75q-0.875 0 -1.484375 0.59375q-0.609375 0.59375 -0.671875 1.59375zm7.182373 4.53125l0 -7.59375l1.15625 0l0 1.0625q0.34375 -0.5625 0.9375 -0.890625q0.609375 -0.34375 1.359375 -0.34375q0.84375 0 1.375 0.34375q0.546875 0.34375 0.765625 0.984375q0.9062195 -1.328125 2.3593445 -1.328125q1.125 0 1.734375 0.625q0.609375 0.625 0.609375 1.921875l0 5.21875l-1.28125 0l0 -4.78125q0 -0.78125 -0.125 -1.109375q-0.125 -0.34375 -0.453125 -0.546875q-0.328125 -0.21875 -0.78125 -0.21875q-0.796875 0 -1.328125 0.53125q-0.5312195 0.53125 -0.5312195 1.703125l0 4.421875l-1.28125 0l0 -4.9375q0 -0.859375 -0.3125 -1.28125q-0.3125 -0.4375 -1.03125 -0.4375q-0.546875 0 -1.015625 0.296875q-0.453125 0.28125 -0.671875 0.828125q-0.203125 0.546875 -0.203125 1.59375l0 3.9375l-1.28125 0zm12.208771 2.9062576l0 -10.500008l1.171875 0l0 0.984375q0.421875 -0.578125 0.9375 -0.859375q0.515625 -0.296875 1.265625 -0.296875q0.96875 0 1.71875 0.5q0.75 0.5 1.125 1.421875q0.375 0.90625 0.375 1.984375q0 1.171875 -0.421875 2.109375q-0.40625 0.921875 -1.21875 1.421875q-0.796875 0.5 -1.671875 0.5q-0.640625 0 -1.15625 -0.265625q-0.515625 -0.28125 -0.84375 -0.6875l0 3.6875076l-1.28125 0zm1.15625 -6.6562576q0 1.453125 0.59375 2.15625q0.609375 0.703125 1.453125 0.703125q0.859375 0 1.46875 -0.71875q0.609375 -0.734375 0.609375 -2.25q0 -1.453125 -0.609375 -2.171875q-0.59375 -0.734375 -1.421875 -0.734375q-0.8125 0 -1.453125 0.78125q-0.640625 0.765625 -0.640625 2.234375zm6.963623 3.75l0 -10.484375l1.28125 0l0 10.484375l-1.28125 0zm8.2404785 -0.9375q-0.71875 0.609375 -1.375 0.859375q-0.65625 0.25 -1.421875 0.25q-1.25 0 -1.921875 -0.609375q-0.671875 -0.609375 -0.671875 -1.5625q0 -0.5625 0.25 -1.015625q0.25 -0.46875 0.65625 -0.75q0.421875 -0.28125 0.9375 -0.421875q0.375 -0.09375 1.140625 -0.1875q1.5625 -0.1875 2.296875 -0.453125q0.015625 -0.265625 0.015625 -0.328125q0 -0.796875 -0.375 -1.109375q-0.484375 -0.4375 -1.453125 -0.4375q-0.921875 0 -1.359375 0.328125q-0.421875 0.3125 -0.625 1.109375l-1.265625 -0.171875q0.171875 -0.796875 0.5625 -1.296875q0.390625 -0.5 1.140625 -0.765625q0.75 -0.265625 1.71875 -0.265625q0.984375 0 1.59375 0.234375q0.609375 0.21875 0.890625 0.5625q0.28125 0.34375 0.40625 0.875q0.0625 0.328125 0.0625 1.1875l0 1.71875q0 1.796875 0.078125 2.28125q0.078125 0.46875 0.328125 0.90625l-1.34375 0q-0.203125 -0.40625 -0.265625 -0.9375zm-0.109375 -2.875q-0.703125 0.28125 -2.09375 0.484375q-0.796875 0.109375 -1.125 0.265625q-0.328125 0.140625 -0.515625 0.421875q-0.171875 0.265625 -0.171875 0.59375q0 0.515625 0.390625 0.859375q0.390625 0.34375 1.140625 0.34375q0.734375 0 1.3125 -0.3125q0.59375 -0.328125 0.859375 -0.890625q0.203125 -0.4375 0.203125 -1.296875l0 -0.46875zm6.119873 2.65625l0.1875 1.140625q-0.546875 0.109375 -0.984375 0.109375q-0.6875 0 -1.078125 -0.21875q-0.390625 -0.21875 -0.546875 -0.578125q-0.15625 -0.359375 -0.15625 -1.515625l0 -4.375l-0.953125 0l0 -1.0l0.953125 0l0 -1.890625l1.28125 -0.765625l0 2.65625l1.296875 0l0 1.0l-1.296875 0l0 4.4375q0 0.546875 0.0625 0.71875q0.078125 0.15625 0.21875 0.25q0.15625 0.078125 0.453125 0.078125q0.203125 0 0.5625 -0.046875zm6.4625854 -1.296875l1.328125 0.171875q-0.3125 1.171875 -1.171875 1.8125q-0.84375 0.640625 -2.171875 0.640625q-1.671875 0 -2.65625 -1.015625q-0.96875 -1.03125 -0.96875 -2.890625q0 -1.921875 0.984375 -2.96875q1.0 -1.0625 2.578125 -1.0625q1.515625 0 2.484375 1.03125q0.96875 1.03125 0.96875 2.921875q0 0.109375 -0.015625 0.34375l-5.65625 0q0.0625 1.25 0.703125 1.921875q0.640625 0.65625 1.59375 0.65625q0.703125 0 1.203125 -0.359375q0.5 -0.375 0.796875 -1.203125zm-4.234375 -2.078125l4.25 0q-0.09375 -0.953125 -0.484375 -1.4375q-0.625 -0.75 -1.609375 -0.75q-0.875 0 -1.484375 0.59375q-0.609375 0.59375 -0.671875 1.59375zm7.338623 4.53125l0 -10.484375l3.96875 0q1.046875 0 1.59375 0.09375q0.765625 0.125 1.28125 0.484375q0.53125 0.359375 0.84375 1.015625q0.328125 0.65625 0.328125 1.4375q0 1.328125 -0.859375 2.265625q-0.84375 0.921875 -3.078125 0.921875l-2.6875 0l0 4.265625l-1.390625 0zm1.390625 -5.5l2.71875 0q1.34375 0 1.90625 -0.5q0.5625 -0.5 0.5625 -1.40625q0 -0.671875 -0.328125 -1.140625q-0.328125 -0.46875 -0.875 -0.609375q-0.359375 -0.09375 -1.296875 -0.09375l-2.6875 0l0 3.75zm8.213135 5.5l0 -7.59375l1.15625 0l0 1.140625q0.453125 -0.796875 0.828125 -1.046875q0.375 -0.265625 0.8125 -0.265625q0.65625 0 1.328125 0.40625l-0.4375 1.203125q-0.46875 -0.28125 -0.953125 -0.28125q-0.421875 0 -0.765625 0.25q-0.328125 0.25 -0.46875 0.703125q-0.21875 0.6875 -0.21875 1.5l0 3.984375l-1.28125 0zm4.411865 -3.796875q0 -2.109375 1.171875 -3.125q0.984375 -0.84375 2.390625 -0.84375q1.578125 0 2.5625 1.03125q1.0 1.015625 1.0 2.828125q0 1.46875 -0.4375 2.3125q-0.4375 0.828125 -1.28125 1.296875q-0.84375 0.46875 -1.84375 0.46875q-1.59375 0 -2.578125 -1.015625q-0.984375 -1.03125 -0.984375 -2.953125zm1.328125 0q0 1.453125 0.625 2.1875q0.640625 0.71875 1.609375 0.71875q0.96875 0 1.59375 -0.71875q0.640625 -0.734375 0.640625 -2.234375q0 -1.40625 -0.640625 -2.125q-0.640625 -0.734375 -1.59375 -0.734375q-0.96875 0 -1.609375 0.71875q-0.625 0.71875 -0.625 2.1875zm9.416748 3.796875l-2.890625 -7.59375l1.359375 0l1.625 4.546875q0.265625 0.734375 0.5 1.53125q0.15625 -0.609375 0.46875 -1.453125l1.6875 -4.625l1.328125 0l-2.875 7.59375l-1.203125 0zm5.21875 -9.015625l0 -1.46875l1.296875 0l0 1.46875l-1.296875 0zm0 9.015625l0 -7.59375l1.296875 0l0 7.59375l-1.296875 0zm8.17804 0l0 -0.953125q-0.71875 1.125 -2.125 1.125q-0.90625 0 -1.671875 -0.5q-0.75 -0.5 -1.171875 -1.390625q-0.421875 -0.90625 -0.421875 -2.078125q0 -1.140625 0.375 -2.0625q0.390625 -0.921875 1.140625 -1.40625q0.765625 -0.5 1.703125 -0.5q0.6875 0 1.21875 0.296875q0.53125 0.28125 0.875 0.734375l0 -3.75l1.28125 0l0 10.484375l-1.203125 0zm-4.0625 -3.796875q0 1.46875 0.609375 2.1875q0.625 0.71875 1.453125 0.71875q0.84375 0 1.4375 -0.6875q0.59375 -0.6875 0.59375 -2.109375q0 -1.5625 -0.609375 -2.28125q-0.59375 -0.734375 -1.484375 -0.734375q-0.84375 0 -1.421875 0.703125q-0.578125 0.703125 -0.578125 2.203125zm12.494812 1.34375l1.328125 0.171875q-0.3125 1.171875 -1.171875 1.8125q-0.84375 0.640625 -2.171875 0.640625q-1.671875 0 -2.65625 -1.015625q-0.96875 -1.03125 -0.96875 -2.890625q0 -1.921875 0.984375 -2.96875q1.0 -1.0625 2.578125 -1.0625q1.515625 0 2.484375 1.03125q0.96875 1.03125 0.96875 2.921875q0 0.109375 -0.015625 0.34375l-5.65625 0q0.0625 1.25 0.703125 1.921875q0.640625 0.65625 1.59375 0.65625q0.703125 0 1.203125 -0.359375q0.5 -0.375 0.796875 -1.203125zm-4.234375 -2.078125l4.25 0q-0.09375 -0.953125 -0.484375 -1.4375q-0.625 -0.75 -1.609375 -0.75q-0.875 0 -1.484375 0.59375q-0.609375 0.59375 -0.671875 1.59375zm7.166748 4.53125l0 -7.59375l1.15625 0l0 1.140625q0.453125 -0.796875 0.828125 -1.046875q0.375 -0.265625 0.8125 -0.265625q0.65625 0 1.328125 0.40625l-0.4375 1.203125q-0.46875 -0.28125 -0.953125 -0.28125q-0.421875 0 -0.765625 0.25q-0.328125 0.25 -0.46875 0.703125q-0.21875 0.6875 -0.21875 1.5l0 3.984375l-1.28125 0z" fill-rule="nonzero"/><path fill="#ffffff" d="m454.21783 143.08136l184.72443 0l0 26.425201l-184.72443 0z" fill-rule="evenodd"/><path stroke="#000000" stroke-width="1.0" stroke-linejoin="round" stroke-linecap="butt" d="m454.21783 143.08136l184.72443 0l0 26.425201l-184.72443 0z" fill-rule="evenodd"/><path fill="#000000" d="m463.68658 158.21771l0 -1.28125l3.953125 0l0 1.28125l-3.953125 0zm16.499512 -7.328125l1.390625 0l0 6.046875q0 1.59375 -0.359375 2.53125q-0.359375 0.921875 -1.296875 1.5q-0.9375 0.578125 -2.453125 0.578125q-1.46875 0 -2.40625 -0.5q-0.9375 -0.515625 -1.34375 -1.46875q-0.390625 -0.96875 -0.390625 -2.640625l0 -6.046875l1.390625 0l0 6.046875q0 1.375 0.25 2.015625q0.25 0.640625 0.859375 1.0q0.625 0.34375 1.53125 0.34375q1.53125 0 2.171875 -0.6875q0.65625 -0.703125 0.65625 -2.671875l0 -6.046875zm3.537384 13.390625l0 -10.5l1.171875 0l0 0.984375q0.421875 -0.578125 0.9375 -0.859375q0.515625 -0.296875 1.265625 -0.296875q0.96875 0 1.71875 0.5q0.75 0.5 1.125 1.421875q0.375 0.90625 0.375 1.984375q0 1.171875 -0.421875 2.109375q-0.40625 0.921875 -1.21875 1.421875q-0.796875 0.5 -1.671875 0.5q-0.640625 0 -1.15625 -0.265625q-0.515625 -0.28125 -0.84375 -0.6875l0 3.6875l-1.28125 0zm1.15625 -6.65625q0 1.453125 0.59375 2.15625q0.609375 0.703125 1.453125 0.703125q0.859375 0 1.46875 -0.71875q0.609375 -0.734375 0.609375 -2.25q0 -1.453125 -0.609375 -2.171875q-0.59375 -0.734375 -1.421875 -0.734375q-0.8125 0 -1.453125 0.78125q-0.640625 0.765625 -0.640625 2.234375zm11.916748 3.75l0 -0.953125q-0.71875 1.125 -2.125 1.125q-0.90625 0 -1.671875 -0.5q-0.75 -0.5 -1.171875 -1.390625q-0.421875 -0.90625 -0.421875 -2.078125q0 -1.140625 0.375 -2.0625q0.390625 -0.921875 1.140625 -1.40625q0.765625 -0.5 1.703125 -0.5q0.6875 0 1.21875 0.296875q0.53125 0.28125 0.875 0.734375l0 -3.75l1.28125 0l0 10.484375l-1.203125 0zm-4.0625 -3.796875q0 1.46875 0.609375 2.1875q0.625 0.71875 1.453125 0.71875q0.84375 0 1.4375 -0.6875q0.59375 -0.6875 0.59375 -2.109375q0 -1.5625 -0.609375 -2.28125q-0.59375 -0.734375 -1.484375 -0.734375q-0.84375 0 -1.421875 0.703125q-0.578125 0.703125 -0.578125 2.203125zm12.244843 2.859375q-0.71875 0.609375 -1.375 0.859375q-0.65625 0.25 -1.421875 0.25q-1.25 0 -1.921875 -0.609375q-0.671875 -0.609375 -0.671875 -1.5625q0 -0.5625 0.25 -1.015625q0.25 -0.46875 0.65625 -0.75q0.421875 -0.28125 0.9375 -0.421875q0.375 -0.09375 1.140625 -0.1875q1.5625 -0.1875 2.296875 -0.453125q0.015625 -0.265625 0.015625 -0.328125q0 -0.796875 -0.375 -1.109375q-0.484375 -0.4375 -1.453125 -0.4375q-0.921875 0 -1.359375 0.328125q-0.421875 0.3125 -0.625 1.109375l-1.265625 -0.171875q0.171875 -0.796875 0.5625 -1.296875q0.390625 -0.5 1.140625 -0.765625q0.75 -0.265625 1.71875 -0.265625q0.984375 0 1.59375 0.234375q0.609375 0.21875 0.890625 0.5625q0.28125 0.34375 0.40625 0.875q0.0625 0.328125 0.0625 1.1875l0 1.71875q0 1.796875 0.078125 2.28125q0.078125 0.46875 0.328125 0.90625l-1.34375 0q-0.203125 -0.40625 -0.265625 -0.9375zm-0.109375 -2.875q-0.703125 0.28125 -2.09375 0.484375q-0.796875 0.109375 -1.125 0.265625q-0.328125 0.140625 -0.515625 0.421875q-0.171875 0.265625 -0.171875 0.59375q0 0.515625 0.390625 0.859375q0.390625 0.34375 1.140625 0.34375q0.734375 0 1.3125 -0.3125q0.59375 -0.328125 0.859375 -0.890625q0.203125 -0.4375 0.203125 -1.296875l0 -0.46875zm6.119873 2.65625l0.1875 1.140625q-0.546875 0.109375 -0.984375 0.109375q-0.6875 0 -1.078125 -0.21875q-0.390625 -0.21875 -0.546875 -0.578125q-0.15625 -0.359375 -0.15625 -1.515625l0 -4.375l-0.953125 0l0 -1.0l0.953125 0l0 -1.890625l1.28125 -0.765625l0 2.65625l1.296875 0l0 1.0l-1.296875 0l0 4.4375q0 0.546875 0.0625 0.71875q0.078125 0.15625 0.21875 0.25q0.15625 0.078125 0.453125 0.078125q0.203125 0 0.5625 -0.046875zm6.4625854 -1.296875l1.328125 0.171875q-0.3125 1.171875 -1.171875 1.8125q-0.84375 0.640625 -2.171875 0.640625q-1.671875 0 -2.65625 -1.015625q-0.96875 -1.03125 -0.96875 -2.890625q0 -1.921875 0.984375 -2.96875q1.0 -1.0625 2.578125 -1.0625q1.515625 0 2.484375 1.03125q0.96875 1.03125 0.96875 2.921875q0 0.109375 -0.015625 0.34375l-5.65625 0q0.0625 1.25 0.703125 1.921875q0.640625 0.65625 1.59375 0.65625q0.703125 0 1.203125 -0.359375q0.5 -0.375 0.796875 -1.203125zm-4.234375 -2.078125l4.25 0q-0.09375 -0.953125 -0.484375 -1.4375q-0.625 -0.75 -1.609375 -0.75q-0.875 0 -1.484375 0.59375q-0.609375 0.59375 -0.671875 1.59375z" fill-rule="nonzero"/><path fill="#ffffff" d="m454.21783 169.50656l184.72443 0l0 26.425201l-184.72443 0z" fill-rule="evenodd"/><path stroke="#000000" stroke-width="1.0" stroke-linejoin="round" stroke-linecap="butt" d="m454.21783 169.50656l184.72443 0l0 26.425201l-184.72443 0z" fill-rule="evenodd"/><path fill="#ffffff" d="m454.21783 195.93176l184.72443 0l0 26.425186l-184.72443 0z" fill-rule="evenodd"/><path stroke="#000000" stroke-width="1.0" stroke-linejoin="round" stroke-linecap="butt" d="m454.21783 195.93176l184.72443 0l0 26.425186l-184.72443 0z" fill-rule="evenodd"/><path fill="#fce5cd" d="m232.55249 101.28609l184.72443 0l0 41.795273l-184.72443 0z" fill-rule="evenodd"/><path stroke="#000000" stroke-width="1.0" stroke-linejoin="round" stroke-linecap="butt" d="m232.55249 101.28609l184.72443 0l0 41.795273l-184.72443 0z" fill-rule="evenodd"/><path fill="#000000" d="m292.2763 127.263725l0 -10.484375l1.390625 0l0 4.296875l5.453125 0l0 -4.296875l1.390625 0l0 10.484375l-1.390625 0l0 -4.9375l-5.453125 0l0 4.9375l-1.390625 0zm15.365509 0l0 -1.109375q-0.890625 1.28125 -2.421875 1.28125q-0.671875 0 -1.25 -0.25q-0.578125 -0.265625 -0.875 -0.65625q-0.28125 -0.390625 -0.390625 -0.953125q-0.078125 -0.375 -0.078125 -1.203125l0 -4.703125l1.28125 0l0 4.203125q0 1.015625 0.078125 1.359375q0.125 0.515625 0.515625 0.8125q0.40625 0.28125 0.984375 0.28125q0.578125 0 1.078125 -0.296875q0.515625 -0.296875 0.71875 -0.8125q0.21875 -0.515625 0.21875 -1.484375l0 -4.0625l1.28125 0l0 7.59375l-1.140625 0zm2.932373 0.625l1.25 0.18750763q0.078125 0.578125 0.4375 0.84375q0.46875 0.359375 1.3125 0.359375q0.890625 0 1.375 -0.359375q0.484375 -0.359375 0.65625 -1.0000076q0.109375 -0.390625 0.09375 -1.65625q-0.84375 1.0 -2.109375 1.0q-1.5625 0 -2.421875 -1.125q-0.859375 -1.140625 -0.859375 -2.71875q0 -1.09375 0.390625 -2.0q0.40625 -0.921875 1.140625 -1.421875q0.75 -0.5 1.765625 -0.5q1.34375 0 2.21875 1.078125l0 -0.90625l1.1875 0l0 6.5625q0 1.7812576 -0.359375 2.5156326q-0.359375 0.734375 -1.15625 1.15625q-0.78125 0.4375 -1.921875 0.4375q-1.359375 0 -2.203125 -0.609375q-0.828125 -0.609375 -0.796875 -1.8437576zm1.0625 -4.5625q0 1.5 0.59375 2.1875q0.59375 0.6875 1.484375 0.6875q0.890625 0 1.484375 -0.6875q0.609375 -0.6875 0.609375 -2.140625q0 -1.390625 -0.625 -2.09375q-0.609375 -0.71875 -1.484375 -0.71875q-0.859375 0 -1.46875 0.703125q-0.59375 0.6875 -0.59375 2.0625zm6.8385925 0.140625q0 -2.109375 1.171875 -3.125q0.984375 -0.84375 2.390625 -0.84375q1.578125 0 2.5625 1.03125q1.0 1.015625 1.0 2.828125q0 1.46875 -0.4375 2.3125q-0.4375 0.828125 -1.28125 1.296875q-0.84375 0.46875 -1.84375 0.46875q-1.59375 0 -2.578125 -1.015625q-0.984375 -1.03125 -0.984375 -2.953125zm1.328125 0q0 1.453125 0.625 2.1875q0.640625 0.71875 1.609375 0.71875q0.96875 0 1.59375 -0.71875q0.640625 -0.734375 0.640625 -2.234375q0 -1.40625 -0.640625 -2.125q-0.640625 -0.734375 -1.59375 -0.734375q-0.96875 0 -1.609375 0.71875q-0.625 0.71875 -0.625 2.1875zm6.994873 0.421875l1.3125 -0.109375q0.09375 0.78125 0.421875 1.296875q0.34375 0.5 1.0625 0.8125q0.71875 0.3125 1.609375 0.3125q0.796875 0 1.40625 -0.234375q0.609375 -0.234375 0.90625 -0.640625q0.296875 -0.421875 0.296875 -0.90625q0 -0.5 -0.296875 -0.859375q-0.28125 -0.375 -0.9375 -0.625q-0.421875 -0.171875 -1.875 -0.515625q-1.4375 -0.34375 -2.015625 -0.65625q-0.75 -0.390625 -1.125 -0.96875q-0.359375 -0.59375 -0.359375 -1.3125q0 -0.796875 0.4375 -1.484375q0.453125 -0.6875 1.3125 -1.046875q0.875 -0.359375 1.9375 -0.359375q1.171875 0 2.0625 0.375q0.890625 0.375 1.359375 1.109375q0.484375 0.734375 0.515625 1.65625l-1.328125 0.09375q-0.109375 -1.0 -0.734375 -1.5q-0.609375 -0.515625 -1.8125 -0.515625q-1.265625 0 -1.84375 0.46875q-0.578125 0.46875 -0.578125 1.109375q0 0.5625 0.421875 0.9375q0.390625 0.359375 2.078125 0.75q1.703125 0.375 2.328125 0.65625q0.921875 0.421875 1.359375 1.078125q0.4375 0.640625 0.4375 1.484375q0 0.84375 -0.484375 1.59375q-0.484375 0.734375 -1.390625 1.140625q-0.890625 0.40625 -2.015625 0.40625q-1.421875 0 -2.390625 -0.40625q-0.953125 -0.421875 -1.5 -1.25q-0.546875 -0.828125 -0.578125 -1.890625zm10.088104 -5.640625l0 -1.46875l1.296875 0l0 1.46875l-1.296875 0zm0 9.015625l0 -7.59375l1.296875 0l0 7.59375l-1.296875 0zm6.068634 -1.15625l0.1875 1.140625q-0.546875 0.109375 -0.984375 0.109375q-0.6875 0 -1.078125 -0.21875q-0.390625 -0.21875 -0.546875 -0.578125q-0.15625 -0.359375 -0.15625 -1.515625l0 -4.375l-0.953125 0l0 -1.0l0.953125 0l0 -1.890625l1.28125 -0.765625l0 2.65625l1.296875 0l0 1.0l-1.296875 0l0 4.4375q0 0.546875 0.0625 0.71875q0.078125 0.15625 0.21875 0.25q0.15625 0.078125 0.453125 0.078125q0.203125 0 0.5625 -0.046875zm6.462616 -1.296875l1.328125 0.171875q-0.3125 1.171875 -1.171875 1.8125q-0.84375 0.640625 -2.171875 0.640625q-1.671875 0 -2.65625 -1.015625q-0.96875 -1.03125 -0.96875 -2.890625q0 -1.921875 0.984375 -2.96875q1.0 -1.0625 2.578125 -1.0625q1.515625 0 2.484375 1.03125q0.96875 1.03125 0.96875 2.921875q0 0.109375 -0.015625 0.34375l-5.65625 0q0.0625 1.25 0.703125 1.921875q0.640625 0.65625 1.59375 0.65625q0.703125 0 1.203125 -0.359375q0.5 -0.375 0.796875 -1.203125zm-4.234375 -2.078125l4.25 0q-0.09375 -0.953125 -0.484375 -1.4375q-0.625 -0.75 -1.609375 -0.75q-0.875 0 -1.484375 0.59375q-0.609375 0.59375 -0.671875 1.59375zm6.6667175 2.265625l1.265625 -0.203125q0.109375 0.765625 0.59375 1.171875q0.5 0.40625 1.375 0.40625q0.890625 0 1.3125 -0.359375q0.4375 -0.359375 0.4375 -0.84375q0 -0.4375 -0.375 -0.6875q-0.265625 -0.171875 -1.3125 -0.4375q-1.421875 -0.359375 -1.96875 -0.609375q-0.546875 -0.265625 -0.828125 -0.734375q-0.28125 -0.46875 -0.28125 -1.015625q0 -0.515625 0.21875 -0.9375q0.234375 -0.4375 0.640625 -0.734375q0.296875 -0.21875 0.8125 -0.359375q0.53125 -0.15625 1.125 -0.15625q0.890625 0 1.5625 0.265625q0.671875 0.25 1.0 0.6875q0.328125 0.4375 0.4375 1.171875l-1.25 0.171875q-0.09375 -0.578125 -0.5 -0.90625q-0.40625 -0.34375 -1.15625 -0.34375q-0.890625 0 -1.28125 0.296875q-0.375 0.296875 -0.375 0.6875q0 0.25 0.15625 0.453125q0.15625 0.203125 0.5 0.34375q0.1875 0.078125 1.140625 0.328125q1.359375 0.359375 1.890625 0.59375q0.546875 0.234375 0.859375 0.6875q0.3125 0.4375 0.3125 1.09375q0 0.640625 -0.375 1.21875q-0.375 0.5625 -1.09375 0.875q-0.703125 0.3125 -1.59375 0.3125q-1.484375 0 -2.265625 -0.609375q-0.765625 -0.625 -0.984375 -1.828125z" fill-rule="nonzero"/><path fill="#f4cccc" d="m232.5538 143.08136l184.72443 0l0 26.425201l-184.72443 0z" fill-rule="evenodd"/><path stroke="#000000" stroke-width="1.0" stroke-linejoin="round" stroke-linecap="butt" d="m232.5538 143.08136l184.72443 0l0 26.425201l-184.72443 0z" fill-rule="evenodd"/><path fill="#000000" d="m242.52255 152.35834l0 -1.46875l1.296875 0l0 1.46875l-1.296875 0zm0 9.015625l0 -7.59375l1.296875 0l0 7.59375l-1.296875 0zm3.2561493 0l0 -7.59375l1.15625 0l0 1.078125q0.84375 -1.25 2.421875 -1.25q0.6875 0 1.265625 0.25q0.578125 0.234375 0.859375 0.640625q0.28125 0.40625 0.40625 0.953125q0.0625 0.359375 0.0625 1.25l0 4.671875l-1.28125 0l0 -4.625q0 -0.78125 -0.15625 -1.171875q-0.15625 -0.390625 -0.546875 -0.625q-0.375 -0.234375 -0.890625 -0.234375q-0.8125 0 -1.421875 0.53125q-0.59375 0.515625 -0.59375 1.96875l0 4.15625l-1.28125 0zm8.151108 -9.015625l0 -1.46875l1.296875 0l0 1.46875l-1.296875 0zm0 9.015625l0 -7.59375l1.296875 0l0 7.59375l-1.296875 0zm6.0686646 -1.15625l0.1875 1.140625q-0.546875 0.109375 -0.984375 0.109375q-0.6875 0 -1.078125 -0.21875q-0.390625 -0.21875 -0.546875 -0.578125q-0.15625 -0.359375 -0.15625 -1.515625l0 -4.375l-0.953125 0l0 -1.0l0.953125 0l0 -1.890625l1.28125 -0.765625l0 2.65625l1.296875 0l0 1.0l-1.296875 0l0 4.4375q0 0.546875 0.0625 0.71875q0.078125 0.15625 0.21875 0.25q0.15625 0.078125 0.453125 0.078125q0.203125 0 0.5625 -0.046875z" fill-rule="nonzero"/><path fill="#ffffff" d="m232.5538 169.50656l184.72443 0l0 26.425201l-184.72443 0z" fill-rule="evenodd"/><path stroke="#000000" stroke-width="1.0" stroke-linejoin="round" stroke-linecap="butt" d="m232.5538 169.50656l184.72443 0l0 26.425201l-184.72443 0z" fill-rule="evenodd"/><path fill="#ffffff" d="m232.5538 195.93176l184.72443 0l0 26.425186l-184.72443 0z" fill-rule="evenodd"/><path stroke="#000000" stroke-width="1.0" stroke-linejoin="round" stroke-linecap="butt" d="m232.5538 195.93176l184.72443 0l0 26.425186l-184.72443 0z" fill-rule="evenodd"/><path fill="#f4cccc" d="m10.888452 101.284775l184.7244 0l0 41.795273l-184.7244 0z" fill-rule="evenodd"/><path stroke="#000000" stroke-width="1.0" stroke-linejoin="round" stroke-linecap="butt" d="m10.888452 101.284775l184.7244 0l0 41.795273l-184.7244 0z" fill-rule="evenodd"/><path fill="#000000" d="m61.850105 127.26241l0 -10.484375l1.28125 0l0 3.75q0.90625 -1.03125 2.28125 -1.03125q0.84375 0 1.46875 0.328125q0.625 0.328125 0.890625 0.921875q0.265625 0.578125 0.265625 1.703125l0 4.8125l-1.28125 0l0 -4.8125q0 -0.96875 -0.421875 -1.40625q-0.421875 -0.4375 -1.1875 -0.4375q-0.578125 0 -1.078125 0.296875q-0.5 0.296875 -0.71875 0.8125q-0.21875 0.5 -0.21875 1.390625l0 4.15625l-1.28125 0zm13.135483 0l0 -1.109375q-0.890625 1.28125 -2.421875 1.28125q-0.671875 0 -1.25 -0.25q-0.578125 -0.265625 -0.875 -0.65625q-0.28125 -0.390625 -0.390625 -0.953125q-0.078125 -0.375 -0.078125 -1.203125l0 -4.703125l1.28125 0l0 4.203125q0 1.015625 0.078125 1.359375q0.125 0.515625 0.515625 0.8125q0.40625 0.28125 0.984375 0.28125q0.578125 0 1.078125 -0.296875q0.515625 -0.296875 0.71875 -0.8125q0.21875 -0.515625 0.21875 -1.484375l0 -4.0625l1.28125 0l0 7.59375l-1.140625 0zm2.9323578 0.625l1.25 0.18750763q0.078125 0.578125 0.4375 0.84375q0.46875 0.359375 1.3125 0.359375q0.890625 0 1.375 -0.359375q0.484375 -0.359375 0.65625 -1.0000076q0.109375 -0.390625 0.09375 -1.65625q-0.84375 1.0 -2.109375 1.0q-1.5625 0 -2.421875 -1.125q-0.859375 -1.140625 -0.859375 -2.71875q0 -1.09375 0.390625 -2.0q0.40625 -0.921875 1.140625 -1.421875q0.75 -0.5 1.765625 -0.5q1.34375 0 2.21875 1.078125l0 -0.90625l1.1875 0l0 6.5625q0 1.7812576 -0.359375 2.5156326q-0.359375 0.734375 -1.15625 1.15625q-0.78125 0.4375 -1.921875 0.4375q-1.359375 0 -2.203125 -0.609375q-0.828125 -0.609375 -0.796875 -1.8437576zm1.0625 -4.5625q0 1.5 0.59375 2.1875q0.59375 0.6875 1.484375 0.6875q0.890625 0 1.484375 -0.6875q0.609375 -0.6875 0.609375 -2.140625q0 -1.390625 -0.625 -2.09375q-0.609375 -0.71875 -1.484375 -0.71875q-0.859375 0 -1.46875 0.703125q-0.59375 0.6875 -0.59375 2.0625zm6.838608 0.140625q0 -2.109375 1.171875 -3.125q0.984375 -0.84375 2.390625 -0.84375q1.578125 0 2.5625 1.03125q1.0 1.015625 1.0 2.828125q0 1.46875 -0.4375 2.3125q-0.4375 0.828125 -1.28125 1.296875q-0.84375 0.46875 -1.84375 0.46875q-1.59375 0 -2.578125 -1.015625q-0.984375 -1.03125 -0.984375 -2.953125zm1.328125 0q0 1.453125 0.625 2.1875q0.640625 0.71875 1.609375 0.71875q0.96875 0 1.59375 -0.71875q0.640625 -0.734375 0.640625 -2.234375q0 -1.40625 -0.640625 -2.125q-0.640625 -0.734375 -1.59375 -0.734375q-0.96875 0 -1.609375 0.71875q-0.625 0.71875 -0.625 2.1875zm6.994858 0.421875l1.3125 -0.109375q0.09375 0.78125 0.421875 1.296875q0.34375 0.5 1.0625 0.8125q0.71875 0.3125 1.609375 0.3125q0.796875 0 1.40625 -0.234375q0.609375 -0.234375 0.90625 -0.640625q0.296875 -0.421875 0.296875 -0.90625q0 -0.5 -0.296875 -0.859375q-0.28125 -0.375 -0.9375 -0.625q-0.421875 -0.171875 -1.875 -0.515625q-1.4375 -0.34375 -2.015625 -0.65625q-0.75 -0.390625 -1.125 -0.96875q-0.359375 -0.59375 -0.359375 -1.3125q0 -0.796875 0.4375 -1.484375q0.453125 -0.6875 1.3125 -1.046875q0.875 -0.359375 1.9375 -0.359375q1.171875 0 2.0625 0.375q0.890625 0.375 1.359375 1.109375q0.484375 0.734375 0.515625 1.65625l-1.328125 0.09375q-0.109375 -1.0 -0.734375 -1.5q-0.609375 -0.515625 -1.8125 -0.515625q-1.265625 0 -1.84375 0.46875q-0.578125 0.46875 -0.578125 1.109375q0 0.5625 0.421875 0.9375q0.390625 0.359375 2.078125 0.75q1.703125 0.375 2.328125 0.65625q0.921875 0.421875 1.359375 1.078125q0.4375 0.640625 0.4375 1.484375q0 0.84375 -0.484375 1.59375q-0.484375 0.734375 -1.390625 1.140625q-0.890625 0.40625 -2.015625 0.40625q-1.421875 0 -2.390625 -0.40625q-0.953125 -0.421875 -1.5 -1.25q-0.546875 -0.828125 -0.578125 -1.890625zm10.088104 -5.640625l0 -1.46875l1.296875 0l0 1.46875l-1.296875 0zm0 9.015625l0 -7.59375l1.296875 0l0 7.59375l-1.296875 0zm6.0686493 -1.15625l0.1875 1.140625q-0.546875 0.109375 -0.984375 0.109375q-0.6875 0 -1.078125 -0.21875q-0.390625 -0.21875 -0.546875 -0.578125q-0.15625 -0.359375 -0.15625 -1.515625l0 -4.375l-0.953125 0l0 -1.0l0.953125 0l0 -1.890625l1.28125 -0.765625l0 2.65625l1.296875 0l0 1.0l-1.296875 0l0 4.4375q0 0.546875 0.0625 0.71875q0.078125 0.15625 0.21875 0.25q0.15625 0.078125 0.453125 0.078125q0.203125 0 0.5625 -0.046875zm6.4626007 -1.296875l1.328125 0.171875q-0.3125 1.171875 -1.171875 1.8125q-0.84375 0.640625 -2.171875 0.640625q-1.671875 0 -2.65625 -1.015625q-0.96875 -1.03125 -0.96875 -2.890625q0 -1.921875 0.984375 -2.96875q1.0 -1.0625 2.578125 -1.0625q1.515625 0 2.484375 1.03125q0.96875 1.03125 0.96875 2.921875q0 0.109375 -0.015625 0.34375l-5.65625 0q0.0625 1.25 0.703125 1.921875q0.640625 0.65625 1.59375 0.65625q0.703125 0 1.203125 -0.359375q0.5 -0.375 0.796875 -1.203125zm-4.234375 -2.078125l4.25 0q-0.09375 -0.953125 -0.484375 -1.4375q-0.625 -0.75 -1.609375 -0.75q-0.875 0 -1.484375 0.59375q-0.609375 0.59375 -0.671875 1.59375zm6.666733 2.265625l1.265625 -0.203125q0.109375 0.765625 0.59375 1.171875q0.5 0.40625 1.375 0.40625q0.890625 0 1.3125 -0.359375q0.4375 -0.359375 0.4375 -0.84375q0 -0.4375 -0.375 -0.6875q-0.265625 -0.171875 -1.3125 -0.4375q-1.421875 -0.359375 -1.96875 -0.609375q-0.546875 -0.265625 -0.828125 -0.734375q-0.28125 -0.46875 -0.28125 -1.015625q0 -0.515625 0.21875 -0.9375q0.234375 -0.4375 0.640625 -0.734375q0.296875 -0.21875 0.8125 -0.359375q0.53125 -0.15625 1.125 -0.15625q0.890625 0 1.5625 0.265625q0.671875 0.25 1.0 0.6875q0.328125 0.4375 0.4375 1.171875l-1.25 0.171875q-0.09375 -0.578125 -0.5 -0.90625q-0.40625 -0.34375 -1.15625 -0.34375q-0.890625 0 -1.28125 0.296875q-0.375 0.296875 -0.375 0.6875q0 0.25 0.15625 0.453125q0.15625 0.203125 0.5 0.34375q0.1875 0.078125 1.140625 0.328125q1.359375 0.359375 1.890625 0.59375q0.546875 0.234375 0.859375 0.6875q0.3125 0.4375 0.3125 1.09375q0 0.640625 -0.375 1.21875q-0.375 0.5625 -1.09375 0.875q-0.703125 0.3125 -1.59375 0.3125q-1.484375 0 -2.265625 -0.609375q-0.765625 -0.625 -0.984375 -1.828125zm8.234375 2.265625l0 -10.484375l1.3906326 0l0 10.484375l-1.3906326 0zm3.6813583 0l0 -7.59375l1.15625 0l0 1.078125q0.84375 -1.25 2.421875 -1.25q0.6875 0 1.265625 0.25q0.578125 0.234375 0.859375 0.640625q0.28125 0.40625 0.40625 0.953125q0.0625 0.359375 0.0625 1.25l0 4.671875l-1.28125 0l0 -4.625q0 -0.78125 -0.15625 -1.171875q-0.15625 -0.390625 -0.546875 -0.625q-0.375 -0.234375 -0.890625 -0.234375q-0.8125 0 -1.421875 0.53125q-0.59375 0.515625 -0.59375 1.96875l0 4.15625l-1.28125 0zm8.151108 -9.015625l0 -1.46875l1.296875 0l0 1.46875l-1.296875 0zm0 9.015625l0 -7.59375l1.296875 0l0 7.59375l-1.296875 0zm6.0686493 -1.15625l0.1875 1.140625q-0.546875 0.109375 -0.984375 0.109375q-0.6875 0 -1.078125 -0.21875q-0.390625 -0.21875 -0.546875 -0.578125q-0.15625 -0.359375 -0.15625 -1.515625l0 -4.375l-0.953125 0l0 -1.0l0.953125 0l0 -1.890625l1.28125 -0.765625l0 2.65625l1.296875 0l0 1.0l-1.296875 0l0 4.4375q0 0.546875 0.0625 0.71875q0.078125 0.15625 0.21875 0.25q0.15625 0.078125 0.453125 0.078125q0.203125 0 0.5625 -0.046875z" fill-rule="nonzero"/><path fill="#ffffff" d="m10.889764 143.08005l184.7244 0l0 26.425201l-184.7244 0z" fill-rule="evenodd"/><path stroke="#000000" stroke-width="1.0" stroke-linejoin="round" stroke-linecap="butt" d="m10.889764 143.08005l184.7244 0l0 26.425201l-184.7244 0z" fill-rule="evenodd"/><path fill="#000000" d="m20.827263 161.37265l0 -10.484375l1.28125 0l0 10.484375l-1.28125 0zm8.240524 -0.9375q-0.71875 0.609375 -1.375 0.859375q-0.65625 0.25 -1.421875 0.25q-1.25 0 -1.921875 -0.609375q-0.671875 -0.609375 -0.671875 -1.5625q0 -0.5625 0.25 -1.015625q0.25 -0.46875 0.65625 -0.75q0.421875 -0.28125 0.9375 -0.421875q0.375 -0.09375 1.140625 -0.1875q1.5625 -0.1875 2.296875 -0.453125q0.015625 -0.265625 0.015625 -0.328125q0 -0.796875 -0.375 -1.109375q-0.484375 -0.4375 -1.453125 -0.4375q-0.921875 0 -1.359375 0.328125q-0.421875 0.3125 -0.625 1.109375l-1.265625 -0.171875q0.171875 -0.796875 0.5625 -1.296875q0.390625 -0.5 1.140625 -0.765625q0.75 -0.265625 1.71875 -0.265625q0.984375 0 1.59375 0.234375q0.609375 0.21875 0.890625 0.5625q0.28125 0.34375 0.40625 0.875q0.0625 0.328125 0.0625 1.1875l0 1.71875q0 1.796875 0.078125 2.28125q0.078125 0.46875 0.328125 0.90625l-1.34375 0q-0.203125 -0.40625 -0.265625 -0.9375zm-0.109375 -2.875q-0.703125 0.28125 -2.09375 0.484375q-0.796875 0.109375 -1.125 0.265625q-0.328125 0.140625 -0.515625 0.421875q-0.171875 0.265625 -0.171875 0.59375q0 0.515625 0.390625 0.859375q0.390625 0.34375 1.140625 0.34375q0.734375 0 1.3125 -0.3125q0.59375 -0.328125 0.859375 -0.890625q0.203125 -0.4375 0.203125 -1.296875l0 -0.46875zm3.2448578 6.734375l-0.140625 -1.203125q0.421875 0.109375 0.734375 0.109375q0.4375 0 0.6875 -0.140625q0.265625 -0.140625 0.421875 -0.40625q0.125 -0.1875 0.390625 -0.953125q0.046875 -0.109375 0.125 -0.3125l-2.890625 -7.609375l1.390625 0l1.578125 4.390625q0.3125 0.84375 0.546875 1.765625q0.234375 -0.890625 0.53125 -1.734375l1.625 -4.421875l1.296875 0l-2.890625 7.71875q-0.46875 1.25 -0.734375 1.734375q-0.34375 0.625 -0.78125 0.921875q-0.4375 0.296875 -1.0625 0.296875q-0.375 0 -0.828125 -0.15625zm6.90625 -6.71875q0 -2.109375 1.171875 -3.125q0.984375 -0.84375 2.390625 -0.84375q1.578125 0 2.5625 1.03125q1.0 1.015625 1.0 2.828125q0 1.46875 -0.4375 2.3125q-0.4375 0.828125 -1.28125 1.296875q-0.84375 0.46875 -1.84375 0.46875q-1.59375 0 -2.578125 -1.015625q-0.984375 -1.03125 -0.984375 -2.953125zm1.328125 0q0 1.453125 0.625 2.1875q0.640625 0.71875 1.609375 0.71875q0.96875 0 1.59375 -0.71875q0.640625 -0.734375 0.640625 -2.234375q0 -1.40625 -0.640625 -2.125q-0.640625 -0.734375 -1.59375 -0.734375q-0.96875 0 -1.609375 0.71875q-0.625 0.71875 -0.625 2.1875zm12.291733 3.796875l0 -1.109375q-0.890625 1.28125 -2.421875 1.28125q-0.671875 0 -1.25 -0.25q-0.578125 -0.265625 -0.875 -0.65625q-0.28125 -0.390625 -0.390625 -0.953125q-0.078125 -0.375 -0.078125 -1.203125l0 -4.703125l1.28125 0l0 4.203125q0 1.015625 0.078125 1.359375q0.125 0.515625 0.515625 0.8125q0.40625 0.28125 0.984375 0.28125q0.578125 0 1.078125 -0.296875q0.515625 -0.296875 0.71875 -0.8125q0.21875 -0.515625 0.21875 -1.484375l0 -4.0625l1.28125 0l0 7.59375l-1.140625 0zm5.979233 -1.15625l0.1875 1.140625q-0.546875 0.109375 -0.984375 0.109375q-0.6875 0 -1.078125 -0.21875q-0.390625 -0.21875 -0.546875 -0.578125q-0.15625 -0.359375 -0.15625 -1.515625l0 -4.375l-0.953125 0l0 -1.0l0.953125 0l0 -1.890625l1.28125 -0.765625l0 2.65625l1.296875 0l0 1.0l-1.296875 0l0 4.4375q0 0.546875 0.0625 0.71875q0.078125 0.15625 0.21875 0.25q0.15625 0.078125 0.453125 0.078125q0.203125 0 0.5625 -0.046875zm0.7438507 -1.109375l1.265625 -0.203125q0.109375 0.765625 0.59375 1.171875q0.5 0.40625 1.375 0.40625q0.890625 0 1.3125 -0.359375q0.4375 -0.359375 0.4375 -0.84375q0 -0.4375 -0.375 -0.6875q-0.265625 -0.171875 -1.3125 -0.4375q-1.421875 -0.359375 -1.96875 -0.609375q-0.546875 -0.265625 -0.828125 -0.734375q-0.28125 -0.46875 -0.28125 -1.015625q0 -0.515625 0.21875 -0.9375q0.234375 -0.4375 0.640625 -0.734375q0.296875 -0.21875 0.8125 -0.359375q0.53125 -0.15625 1.125 -0.15625q0.890625 0 1.5625 0.265625q0.671875 0.25 1.0 0.6875q0.328125 0.4375 0.4375 1.171875l-1.25 0.171875q-0.09375 -0.578125 -0.5 -0.90625q-0.40625 -0.34375 -1.15625 -0.34375q-0.890625 0 -1.28125 0.296875q-0.375 0.296875 -0.375 0.6875q0 0.25 0.15625 0.453125q0.15625 0.203125 0.5 0.34375q0.1875 0.078125 1.140625 0.328125q1.359375 0.359375 1.890625 0.59375q0.546875 0.234375 0.859375 0.6875q0.3125 0.4375 0.3125 1.09375q0 0.640625 -0.375 1.21875q-0.375 0.5625 -1.09375 0.875q-0.703125 0.3125 -1.59375 0.3125q-1.484375 0 -2.265625 -0.609375q-0.765625 -0.625 -0.984375 -1.828125z" fill-rule="nonzero"/><path fill="#ffffff" d="m10.889764 169.50525l184.7244 0l0 26.425201l-184.7244 0z" fill-rule="evenodd"/><path stroke="#000000" stroke-width="1.0" stroke-linejoin="round" stroke-linecap="butt" d="m10.889764 169.50525l184.7244 0l0 26.425201l-184.7244 0z" fill-rule="evenodd"/><path fill="#ffffff" d="m10.889764 195.93045l184.7244 0l0 26.425186l-184.7244 0z" fill-rule="evenodd"/><path stroke="#000000" stroke-width="1.0" stroke-linejoin="round" stroke-linecap="butt" d="m10.889764 195.93045l184.7244 0l0 26.425186l-184.7244 0z" fill-rule="evenodd"/><path fill="#f6b26b" d="m19.614174 21.538057l63.874016 0l0 60.787407l-63.874016 0z" fill-rule="evenodd"/><path stroke="#000000" stroke-width="1.0" stroke-linejoin="round" stroke-linecap="butt" d="m19.614174 21.538057l63.874016 0l0 60.787407l-63.874016 0z" fill-rule="evenodd"/><path fill="#000000" d="m48.098057 33.929882q1.171875 0 2.484375 -0.078125l0 1.25q-1.3125 -0.078125 -2.484375 -0.078125l-1.75 0q-0.359375 0.953125 -0.796875 2.328125l4.21875 0q-0.0625 1.09375 -0.0625 2.34375l0 2.984375q0 1.09375 0.0625 2.6875l-1.375 0l0 -6.921875l-4.8125 0l0 7.078125l-1.3125 0q0.078125 -1.53125 0.078125 -2.765625l0 -3.0q0 -0.9375 -0.078125 -2.40625l1.96875 0q0.4375 -1.375 0.65625 -2.328125l-0.953125 0q-1.375 0 -2.546875 0.078125l0 -1.25q1.171875 0.078125 2.40625 0.078125l4.296875 0zm-11.4375 8.171875q-0.875 0 -2.265625 0.0625l0 -1.234375q1.390625 0.078125 2.265625 0.078125l4.8125 0l0 0.875q-0.59375 0.71875 -1.328125 1.78125q-0.71875 1.046875 -1.890625 2.875q0.59375 0.4375 1.75 1.390625q-0.359375 0.4375 -0.9375 1.15625q-1.3125 -1.375 -4.296875 -3.421875q0.359375 -0.4375 0.796875 -1.09375q1.453125 1.015625 1.828125 1.234375q1.890625 -2.90625 2.328125 -3.703125l-3.0625 0zm2.625 -8.75q-0.4375 0.578125 -0.734375 1.015625q2.046875 1.75 3.578125 3.359375q-0.65625 0.5 -1.09375 1.015625q-0.953125 -1.3125 -1.5 -1.890625q-0.546875 -0.59375 -1.5625 -1.53125q-0.734375 1.3125 -1.5 2.296875q-0.765625 0.984375 -2.140625 2.515625q-0.375 -0.515625 -1.03125 -0.953125q1.53125 -1.234375 2.734375 -3.0625q1.203125 -1.828125 1.71875 -3.5q0.65625 0.375 1.53125 0.734375zm7.640625 6.5625q-0.203125 0.875 -0.203125 2.109375q0 1.234375 -0.1875 2.40625q-0.1875 1.15625 -1.140625 2.40625q-0.9375 1.234375 -4.078125 2.765625q-0.28125 -0.578125 -0.875 -1.171875q1.96875 -0.65625 3.171875 -1.671875q1.203125 -1.015625 1.5 -2.0q0.296875 -0.984375 0.296875 -2.296875q0 -1.3125 -0.078125 -2.703125q0.796875 0.15625 1.59375 0.15625zm0 5.53125q0.734375 0.578125 1.640625 1.234375q0.921875 0.65625 2.078125 1.75l-1.15625 1.171875q-0.953125 -1.171875 -1.6875 -1.78125q-0.71875 -0.625 -1.671875 -1.28125q0.4375 -0.4375 0.796875 -1.09375zm-9.25 -8.15625q1.171875 1.453125 1.75 2.46875q-0.515625 0.375 -1.171875 0.734375q-1.15625 -1.96875 -1.671875 -2.40625q0.65625 -0.359375 1.09375 -0.796875z" fill-rule="nonzero"/><path fill="#000000" d="m64.36368 44.429882q-0.6562462 -3.328125 -0.6562462 -7.1875l-5.9375 0l0 1.25l-2.015625 0l0 5.578125q0.75 -0.234375 1.78125 -0.59375l0.15625 1.328125q-2.53125 1.046875 -4.75 1.703125q-0.296875 0.53125 -0.515625 0.234375l-0.375 -1.71875q1.109375 -0.296875 2.21875 -0.59375l0 -5.9375l-1.78125 0l0 -1.40625l1.78125 0l0 -3.9375l1.421875 0q0.59375 0.078125 0.0625 0.453125l0 3.484375l2.015625 0l0 -1.265625l5.9375 0l0 -3.03125l1.4062462 0q0.59375 0.0625 0.078125 0.4375l0 2.59375l1.84375 0q-0.890625 -1.484375 -1.1875 -1.703125l1.1875 -0.890625q0.53125 0.515625 1.34375 1.703125l-1.1875 0.890625l1.78125 0l0 1.421875l-3.78125 0q0 3.109375 0.296875 5.484375q0.734375 -1.328125 1.546875 -4.0l1.34375 0.59375q0.21875 0.296875 -0.15625 0.359375q-0.8125 2.828125 -2.078125 4.90625q0.375 1.484375 1.046875 2.15625q0.375 0.359375 0.4375 -0.15625l0.296875 -1.625l1.421875 0.65625l-0.53125 2.078125q-0.359375 1.5 -1.484375 1.125q-1.484375 -0.515625 -2.375 -2.90625q-1.8437462 2.015625 -5.562496 3.578125l-0.59375 -1.5625q3.640625 -1.484375 5.562496 -3.5zm-7.046871 0.671875q2.96875 -0.515625 5.859375 -1.625l0.078125 1.40625q-2.671875 1.03125 -5.1875 1.703125q-0.296875 0.375 -0.375 0.15625l-0.375 -1.640625zm2.15625 -2.15625l0 0.375l-1.265625 0l0 -4.59375l4.609375 0l0 4.21875l-3.34375 0zm2.078125 -1.1875l0 -1.84375l-2.078125 0l0 1.84375l2.078125 0z" fill-rule="nonzero"/><path fill="#000000" d="m40.941807 70.0705q0.296875 0 0.296875 -0.296875l0 -1.484375l-5.859375 0l0 -1.1875l5.859375 0l0 -1.1875l-7.796875 0l0 -1.1875l7.796875 0l0 -1.1093712l-5.859375 0l0 -1.1875l5.859375 0l0 -1.046875l-2.53125 0l-2.4375 0l0 -3.1875l4.96875 0l0 -0.96875l-7.34375 0l0 -1.1875l7.34375 0l0 -1.703125l1.40625 0q0.59375 0.078125 0.078125 0.453125l0 1.25l7.125 0l0 1.1875l-7.125 0l0 0.96875l4.828125 0l0 3.1875l-4.828125 0l0 1.046875l5.71875 0l0 2.2968712l2.0 0l0 1.1875l-2.0 0l0 2.828125l-1.484375 0l0 -0.453125l-4.234375 0l0 2.015625q0 1.1875 -1.1875 1.1875l-1.640625 0l-0.21875 -1.421875l1.265625 0zm-3.421875 -9.578121l3.71875 0l0 -1.40625l-3.71875 0l0 1.40625zm5.203125 0l3.5625 0l0 -1.40625l-3.5625 0l0 1.40625zm0 6.609371l4.234375 0l0 -1.1875l-4.234375 0l0 1.1875zm4.234375 -2.375l0 -1.1093712l-4.234375 0l0 1.1093712l4.234375 0zm14.09375 -7.937496q-0.078125 0.515625 -0.4375 2.078125l2.296875 0l0 -4.078125l1.4062462 0q0.59375 0.0625 0.078125 0.4375l0 3.640625l3.640625 0l0 1.40625l-3.640625 0l0 3.71875l5.125 0l0 1.4062462l-5.125 0l0 6.015625l-1.4843712 0l0 -6.015625l-5.5 0l0 -1.4062462l5.5 0l0 -3.71875l-2.75 0q-0.734375 2.0 -1.78125 3.1875l-1.265625 -1.1875q2.15625 -2.734375 2.375 -6.296875l1.78125 0.4375q0.296875 0.296875 -0.21875 0.375zm-4.59375 14.703121l-1.484375 0l0 -9.218746q-0.53125 0.96875 -1.34375 1.9374962l-1.1875 -1.3437462q2.828125 -3.265625 3.34375 -8.234375l1.5625 0.296875q0.515625 0.15625 0 0.375q-0.453125 2.453125 -1.046875 4.15625l0.296875 0.078125q0.21875 0.21875 -0.140625 0.4375l0 11.515621z" fill-rule="nonzero"/><path fill="#f6b26b" d="m112.17556 21.538057l63.874016 0l0 60.787407l-63.874016 0z" fill-rule="evenodd"/><path stroke="#000000" stroke-width="1.0" stroke-linejoin="round" stroke-linecap="butt" d="m112.17556 21.538057l63.874016 0l0 60.787407l-63.874016 0z" fill-rule="evenodd"/><path fill="#000000" d="m139.80006 28.092382q-1.40625 -1.078125 -2.015625 -1.40625l0.609375 -0.890625q0.9375 0.515625 2.109375 1.40625l-0.609375 0.890625l3.28125 0l0 0.890625l-3.09375 0l0 2.484375l2.484375 0l0 0.8906269l-2.484375 0l0 2.71875l3.421875 0l0 0.890625l-7.96875 0l0 -0.890625l3.609375 0l0 -2.71875l-2.53125 0l0 -0.8906269l2.53125 0l0 -2.484375l-3.1875 0l0 -0.890625l3.84375 0zm-4.265625 4.687502q-0.890625 1.734375 -1.78125 3.140625q0.1875 0.421875 -0.140625 0.234375l-0.84375 -0.65625q1.125 -1.59375 1.921875 -3.28125l0.84375 0.5625zm-0.609375 -1.6406269q-0.890625 -0.796875 -1.78125 -1.359375l0.5625 -0.703125q0.984375 0.515625 1.78125 1.21875l-0.5625 0.84375zm0.1875 -2.625q-0.75 -0.75 -1.6875 -1.359375l0.609375 -0.796875q0.984375 0.515625 1.734375 1.3125l-0.65625 0.84375zm13.40625 2.578125l-1.359375 0l0 1.0312519q0 2.390625 -1.453125 4.125l-0.65625 -0.75q1.171875 -1.3125 1.171875 -3.375l0 -1.0312519l-1.453125 0l0 -0.890625l1.453125 0l0 -3.796875l3.234375 0l0 3.796875l1.40625 0l0 -3.796875l3.421875 0l0 3.796875l1.21875 0l0 0.890625l-1.21875 0l0 4.171877q0 0.84375 -0.703125 0.84375l-0.75 0l-0.28125 -0.890625l0.65625 0q0.140625 0 0.140625 -0.140625l0 -3.984377l-1.546875 0l0 1.0312519q0 2.34375 -1.359375 4.03125l-0.65625 -0.84375q1.078125 -1.078125 1.078125 -3.1875l0 -1.0312519l-1.40625 0l0 4.218752q0 0.84375 -0.703125 0.84375l-0.703125 0l-0.28125 -0.890625l0.609375 0q0.140625 0 0.140625 -0.140625l0 -4.031252zm4.828125 -3.796875l-1.546875 0l0 2.90625l1.546875 0l0 -2.90625zm-6.1875 0l0 2.90625l1.359375 0l0 -2.90625l-1.359375 0z" fill-rule="nonzero"/><path fill="#000000" d="m125.867455 49.45176l0 -8.59375l1.0625 0l0 8.59375l-1.0625 0zm6.759758 -0.765625q-0.59375 0.5 -1.140625 0.703125q-0.53125 0.203125 -1.15625 0.203125q-1.03125 0 -1.578125 -0.5q-0.546875 -0.5 -0.546875 -1.28125q0 -0.453125 0.203125 -0.828125q0.203125 -0.390625 0.546875 -0.609375q0.34375 -0.234375 0.765625 -0.34375q0.296875 -0.09375 0.9375 -0.171875q1.265625 -0.140625 1.875 -0.359375q0 -0.21875 0 -0.265625q0 -0.65625 -0.296875 -0.921875q-0.40625 -0.34375 -1.203125 -0.34375q-0.734375 0 -1.09375 0.265625q-0.359375 0.25 -0.53125 0.90625l-1.03125 -0.140625q0.140625 -0.65625 0.46875 -1.0625q0.328125 -0.40625 0.9375 -0.625q0.609375 -0.21875 1.40625 -0.21875q0.796875 0 1.296875 0.1875q0.5 0.1875 0.734375 0.46875q0.234375 0.28125 0.328125 0.71875q0.046875 0.265625 0.046875 0.96875l0 1.40625q0 1.46875 0.0625 1.859375q0.078125 0.390625 0.28125 0.75l-1.109375 0q-0.15625 -0.328125 -0.203125 -0.765625zm-0.09375 -2.359375q-0.578125 0.234375 -1.71875 0.40625q-0.65625 0.09375 -0.921875 0.21875q-0.265625 0.109375 -0.421875 0.328125q-0.140625 0.21875 -0.140625 0.5q0 0.421875 0.3125 0.703125q0.328125 0.28125 0.9375 0.28125q0.609375 0 1.078125 -0.265625q0.484375 -0.265625 0.703125 -0.734375q0.171875 -0.359375 0.171875 -1.046875l0 -0.390625zm2.6582031 5.515625l-0.125 -0.984375q0.34375 0.09375 0.609375 0.09375q0.34375 0 0.546875 -0.125q0.21875 -0.109375 0.359375 -0.3125q0.09375 -0.171875 0.328125 -0.796875q0.015625 -0.078125 0.09375 -0.25l-2.375 -6.234375l1.140625 0l1.296875 3.59375q0.25 0.6875 0.453125 1.453125q0.1875 -0.734375 0.4375 -1.421875l1.328125 -3.625l1.046875 0l-2.359375 6.328125q-0.390625 1.015625 -0.59375 1.40625q-0.28125 0.53125 -0.65625 0.765625q-0.359375 0.25 -0.859375 0.25q-0.296875 0 -0.671875 -0.140625zm5.65625 -5.5q0 -1.734375 0.953125 -2.5625q0.796875 -0.6875 1.953125 -0.6875q1.28125 0 2.09375 0.84375q0.828125 0.828125 0.828125 2.3125q0 1.203125 -0.359375 1.890625q-0.359375 0.6875 -1.0625 1.078125q-0.6875 0.375 -1.5 0.375q-1.296875 0 -2.109375 -0.828125q-0.796875 -0.84375 -0.796875 -2.421875zm1.078125 0q0 1.1875 0.515625 1.78125q0.53125 0.59375 1.3125 0.59375q0.796875 0 1.3125 -0.59375q0.515625 -0.59375 0.515625 -1.8125q0 -1.15625 -0.53125 -1.75q-0.515625 -0.59375 -1.296875 -0.59375q-0.78125 0 -1.3125 0.59375q-0.515625 0.578125 -0.515625 1.78125zm10.064453 3.109375l0 -0.921875q-0.734375 1.0625 -1.984375 1.0625q-0.546875 0 -1.03125 -0.203125q-0.46875 -0.21875 -0.703125 -0.53125q-0.234375 -0.328125 -0.328125 -0.796875q-0.0625 -0.296875 -0.0625 -0.984375l0 -3.84375l1.0625 0l0 3.453125q0 0.8125 0.0625 1.109375q0.09375 0.40625 0.40625 0.65625q0.328125 0.234375 0.8125 0.234375q0.46875 0 0.875 -0.234375q0.421875 -0.25 0.59375 -0.671875q0.1875 -0.421875 0.1875 -1.21875l0 -3.328125l1.046875 0l0 6.21875l-0.9375 0zm4.892578 -0.9375l0.15625 0.921875q-0.453125 0.09375 -0.796875 0.09375q-0.578125 0 -0.890625 -0.171875q-0.3125 -0.1875 -0.453125 -0.484375q-0.125 -0.296875 -0.125 -1.25l0 -3.578125l-0.765625 0l0 -0.8125l0.765625 0l0 -1.546875l1.046875 -0.625l0 2.171875l1.0625 0l0 0.8125l-1.0625 0l0 3.640625q0 0.453125 0.046875 0.578125q0.0625 0.125 0.1875 0.203125q0.125 0.078125 0.359375 0.078125q0.1875 0 0.46875 -0.03125zm0.6152344 -0.921875l1.03125 -0.15625q0.09375 0.625 0.484375 0.953125q0.40625 0.328125 1.140625 0.328125q0.71875 0 1.0625 -0.28125q0.359375 -0.296875 0.359375 -0.703125q0 -0.359375 -0.3125 -0.5625q-0.21875 -0.140625 -1.078125 -0.359375q-1.15625 -0.296875 -1.609375 -0.5q-0.4375 -0.21875 -0.671875 -0.59375q-0.234375 -0.375 -0.234375 -0.84375q0 -0.40625 0.1875 -0.765625q0.1875 -0.359375 0.515625 -0.59375q0.25 -0.171875 0.671875 -0.296875q0.421875 -0.125 0.921875 -0.125q0.71875 0 1.265625 0.21875q0.5625 0.203125 0.828125 0.5625q0.265625 0.359375 0.359375 0.953125l-1.03125 0.140625q-0.0625 -0.46875 -0.40625 -0.734375q-0.328125 -0.28125 -0.953125 -0.28125q-0.71875 0 -1.03125 0.25q-0.3125 0.234375 -0.3125 0.5625q0 0.203125 0.125 0.359375q0.140625 0.171875 0.40625 0.28125q0.15625 0.0625 0.9375 0.265625q1.125 0.3125 1.5625 0.5q0.4375 0.1875 0.6875 0.546875q0.25 0.359375 0.25 0.90625q0 0.53125 -0.3125 1.0q-0.296875 0.453125 -0.875 0.71875q-0.578125 0.25 -1.3125 0.25q-1.21875 0 -1.859375 -0.5q-0.625 -0.515625 -0.796875 -1.5z" fill-rule="nonzero"/><path fill="#000000" d="m130.80006 60.217384l2.625 0l0 -2.484375l-2.625 0l0 2.484375zm2.625 1.359375l0 -0.46875l-2.625 0l0 0.515625l-0.9375 0l0 -4.78125l4.5 0l0 4.734375l-0.9375 0zm-5.109375 1.3125l7.546875 0l0 -7.640625l-7.546875 0l0 7.640625zm7.546875 1.3125l0 -0.421875l-7.546875 0l0 0.65625l-0.9374924 0l0 -10.078125l9.421867 0l0 9.84375l-0.9375 0z" fill-rule="nonzero"/><path fill="#000000" d="m149.26881 63.07676q0.046875 0.9375 -0.46875 1.1875q-0.515625 0.265625 -1.5 0.40625q-0.140625 -0.5625 -0.375 -1.125q0.9375 0.046875 1.1875 -0.09375q0.265625 -0.140625 0.3125 -0.5625l0 -7.921875l-4.546875 0l0 4.21875q0 1.96875 -0.328125 3.125q-0.328125 1.140625 -1.171875 2.359375q-0.28125 -0.375 -0.84375 -0.65625q0.609375 -0.703125 0.90625 -1.375q0.3125 -0.6875 0.453125 -1.453125q0.140625 -0.78125 0.140625 -3.21875q0 -2.484375 -0.046875 -3.703125l6.328125 0q-0.046875 0.703125 -0.046875 1.875l0 6.9375zm-1.546875 -3.046875q-0.046875 0.65625 -0.046875 1.21875q0 0.5625 0.046875 1.40625l-3.1875 0q0.046875 -0.84375 0.046875 -1.40625q0 -0.5625 -0.046875 -1.21875l3.1875 0zm-5.625 0.421875q0.1875 0.421875 0.515625 0.75q-0.609375 0.609375 -0.984375 1.03125q-0.375 0.421875 -1.03125 1.125q-0.328125 -0.375 -0.609375 -0.65625q0.328125 -0.375 0.328125 -0.796875l0 -3.75l-0.421875 0q-0.328125 0 -1.21875 0.046875l0 -0.84375q0.890625 0.046875 1.21875 0.046875l1.3125 0q-0.046875 0.84375 -0.046875 1.875l0 2.203125q0.234375 -0.1875 0.9375 -1.03125zm3.609375 -3.890625q0 -0.5625 -0.046875 -1.171875l0.890625 0q-0.046875 0.5625 -0.046875 1.171875q0.515625 0 1.21875 -0.046875l0 0.796875q-0.703125 -0.046875 -1.21875 -0.046875l0 1.171875q0.84375 0 1.40625 -0.046875l0 0.84375q-0.75 -0.046875 -1.734375 -0.046875q-0.984375 0 -1.78125 0.046875l0 -0.84375q0.796875 0.046875 1.3125 0.046875l0 -1.171875q-0.609375 0 -1.265625 0.046875l0 -0.796875q0.703125 0.046875 1.265625 0.046875zm1.171875 5.4375l0 -1.3125l-1.5 0l0 1.3125l1.5 0zm-6.421875 -7.96875q0.515625 0.609375 1.359375 1.734375q-0.421875 0.234375 -0.75 0.609375q-0.9375 -1.40625 -1.3125 -1.78125q0.375 -0.234375 0.703125 -0.5625z" fill-rule="nonzero"/><path fill="#000000" d="m160.94069 54.17051q0.375 0.046875 0.046875 0.28125l0 9.140625q0 0.75 -0.75 0.75l-0.9375 0l-0.140625 -0.890625l0.703125 0q0.1875 0 0.1875 -0.1875l0 -9.09375l0.890625 0zm-3.09375 7.875l0 -6.796875l0.890625 0q0.375 0.046875 0.046875 0.28125l0 6.515625l-0.9375 0zm-6.46875 -1.875l2.15625 0l0 -1.359375l0.890625 0q0.375 0.046875 0.046875 0.28125l0 1.078125l2.203125 0l0 0.890625l-2.203125 0l0 1.640625l2.53125 -0.375l0.140625 0.796875l-5.625 1.03125q-0.046875 0.328125 -0.234375 0.140625l-0.375 -1.125l2.625 -0.328125l0 -1.78125l-2.15625 0l0 -0.890625zm0.140625 -1.5q-0.046875 0.328125 -0.234375 0.140625l-0.28125 -1.125l1.21875 -0.046875l0.890625 -2.34375l-2.0625 0l0 -0.890625l5.90625 0l0 0.890625l-2.765625 0l-1.03125 2.296875l2.25 -0.1875q-0.328125 -0.46875 -0.890625 -1.03125l0.75 -0.515625q1.125 1.03125 1.828125 2.25l-0.84375 0.609375l-0.375 -0.5625l-4.359375 0.515625z" fill-rule="nonzero"/><path fill="#000000" d="m131.92506 73.04551q-0.421875 0.375 -0.890625 0.75q0.46875 0.328125 0.9375 0.75l-0.65625 0.890625q-0.703125 -0.796875 -1.59375 -1.59375l0 4.6875l-0.9375 0l0 -4.6875q-0.703125 0.703125 -1.5468674 1.359375l-0.46875 -0.984375q2.0624924 -1.546875 3.3281174 -3.515625l-2.9531174 0l0 -0.890625l1.6406174 0l0 -2.203125l0.890625 0q0.375 0.046875 0.046875 0.28125l0 1.921875l0.890625 0l0.28125 -0.28125l0.609375 0.609375q0.1875 0.328125 -0.1875 0.328125q-0.609375 1.265625 -1.640625 2.4375l0.703125 0.421875q0.5625 -0.5625 0.9375 -1.078125l0.84375 0.65625q0.046875 0.234375 -0.234375 0.140625zm4.171875 -3.09375l-1.875 0l0 2.765625q0 3.703125 -3.234375 5.578125l-0.609375 -0.890625q2.90625 -1.453125 2.90625 -4.546875l0 -2.90625l-1.453125 0l0 -0.890625l5.203125 0l0 5.8125q0 3.421875 -1.6875 3.421875l-1.359375 0l-0.140625 -0.890625l1.265625 0q0.984375 0 0.984375 -2.53125l0 -4.921875zm7.59375 2.765625q-0.234375 0.28125 -0.28125 0l-0.234375 -0.984375l0.84375 0q0.515625 -1.5 1.078125 -3.9375l1.125 0.328125q0.28125 0.234375 -0.1875 0.328125q-0.5625 1.6875 -1.125 3.234375l2.8125 -0.1875q-0.421875 -0.703125 -0.984375 -1.453125l0.796875 -0.375q1.078125 1.171875 1.921875 2.859375l-0.9375 0.46875l-0.375 -0.75l-4.453125 0.46875zm-2.765625 -1.6875q-0.234375 1.5 -0.609375 2.90625q0.5625 0.375 1.125 0.75q0.328125 -1.171875 0.515625 -3.65625l-1.03125 0zm1.265625 4.171875q0.375 0.28125 0.9375 0.75l-0.515625 0.984375q-0.328125 -0.375 -0.84375 -0.796875q-0.75 1.21875 -2.203125 2.15625l-0.609375 -0.75q1.359375 -0.890625 2.109375 -2.015625q-0.515625 -0.375 -1.03125 -0.796875l-0.234375 0.609375l-0.84375 -0.375q0.703125 -1.734375 1.078125 -3.9375l-1.125 0l0 -0.890625l1.265625 0q0.140625 -1.078125 0.28125 -2.203125l0.84375 0.1875q0.46875 0.140625 0 0.328125q-0.09375 0.84375 -0.234375 1.6875l1.078125 0l0.1875 -0.1875l0.703125 0.46875l-0.140625 0.1875q-0.1875 3.046875 -0.703125 4.59375zm5.484375 2.625l-2.953125 0l0 0.609375l-0.9375 0l0 -4.78125l4.828125 0l0 4.59375l-0.9375 0l0 -0.421875zm0 -0.890625l0 -2.390625l-2.953125 0l0 2.390625l2.953125 0zm3.1875 -3.796875q2.015625 -1.828125 2.53125 -5.015625l1.03125 0.28125q0.328125 0.09375 -0.140625 0.375q-0.09375 0.703125 -0.65625 2.0625l0.28125 0.09375q0.1875 0.140625 -0.140625 0.328125l0 6.9375l-0.9375 0l0 -5.859375q-0.5625 0.890625 -1.359375 1.640625l-0.609375 -0.84375zm10.40625 2.296875l-0.140625 1.078125q-0.1875 1.359375 -1.359375 1.359375l-3.140625 0q-0.84375 0 -0.84375 -0.796875l0 -8.8125l0.890625 0q0.46875 0.046875 0.046875 0.28125l0 3.46875q1.78125 -0.703125 3.28125 -1.828125l0.703125 0.84375q0.328125 0.28125 -0.234375 0.28125q-2.015625 1.03125 -3.75 1.734375l0 3.421875q0 0.375 0.328125 0.375l2.484375 0q0.515625 0 0.5625 -0.46875l0.09375 -1.125l1.078125 0.1875z" fill-rule="nonzero"/><path fill="#f6b26b" d="m204.73695 21.538057l63.87401 0l0 60.787407l-63.87401 0z" fill-rule="evenodd"/><path stroke="#000000" stroke-width="1.0" stroke-linejoin="round" stroke-linecap="butt" d="m204.73695 21.538057l63.87401 0l0 60.787407l-63.87401 0z" fill-rule="evenodd"/><path fill="#000000" d="m222.93959 30.717382q0.75 0.046875 1.6875 0.046875l4.21875 0q-0.28125 0.84375 -0.78125 1.8593769q-0.484375 1.0 -1.328125 1.984375q1.5 0.984375 3.46875 1.03125q-0.375 0.421875 -0.5625 0.984375q-2.015625 -0.421875 -3.609375 -1.453125q-0.609375 0.375 -1.453125 0.8125q-0.84375 0.453125 -1.828125 0.734375q-0.1875 -0.375 -0.703125 -0.703125q1.03125 -0.1875 1.9375 -0.609375q0.921875 -0.421875 1.390625 -0.84375q-1.03125 -1.078125 -1.6875 -3.046877l-0.75 0l0 -0.796875zm4.78125 -0.46875q-0.796875 0 -0.84375 -0.65625l0 -2.625l-2.0625 0q0 1.3125 -0.3125 2.0625q-0.296875 0.75 -1.28125 1.546875q-0.1875 -0.328125 -0.75 -0.5625q1.171875 -0.796875 1.328125 -1.828125q0.171875 -1.03125 0.125 -1.96875l3.9375 0q-0.046875 0.5625 -0.046875 1.40625l0 1.265625q0 0.375 0.25 0.453125q0.265625 0.0625 0.734375 0.046875q0.46875 -0.03125 1.078125 -0.078125q-0.09375 0.46875 0 0.9375l-2.15625 0zm-5.953125 -0.84375q-0.046875 0.84375 -0.046875 1.875l0 2.859377q0.609375 -0.5625 1.03125 -1.125q0.140625 0.46875 0.46875 0.984375q-0.609375 0.5625 -1.125 1.078125q-0.515625 0.515625 -0.9375 1.125q-0.328125 -0.515625 -0.703125 -0.796875q0.375 -0.375 0.375 -1.078125l0 -4.125002q-0.984375 0 -1.640625 0.046875l0 -0.890625q0.609375 0.046875 1.265625 0.046875l1.3125 0zm4.3125 4.546877q0.9375 -0.9375 1.453125 -2.437502l-2.90625 0q0.328125 1.4531269 1.453125 2.437502zm-5.484375 -8.203127q0.75 0.609375 1.828125 1.921875q-0.375 0.234375 -0.75 0.609375q-0.796875 -1.078125 -1.6875 -1.921875q0.28125 -0.1875 0.609375 -0.609375z" fill-rule="nonzero"/><path fill="#000000" d="m233.15834 35.35801l8.8125 0l0 0.75l-8.8125 0l0 0.375l-0.9375 0l0 -5.906252l0.890625 0q0.375 0.046875 0.046875 0.28125l0 4.500002zm5.109375 -7.687502l1.734375 0l0 -0.984375l-1.734375 0l0 0.984375zm-0.796875 0l0 -0.984375l-1.6875 0l0 0.984375l1.6875 0zm-2.484375 0l0 -0.984375l-1.734375 0l0 0.984375l1.734375 0zm-2.671875 0.5625l0 -2.109375l8.625 0l0 2.109375l-3.703125 0l0 0.65625l4.640625 0l0 0.75l-4.640625 0l0 0.65625l2.90625 0l0 4.500002l-5.859375 0l0 -4.500002l2.015625 0l0 -0.65625l-5.0625 0l0 -0.75l5.0625 0l0 -0.65625l-1.96875 0l-2.015625 0zm7.03125 3.328125l0 -0.703125l-4.265625 0l0 0.703125l4.265625 0zm0 1.3125019l0 -0.75l-4.265625 0l0 0.75l4.265625 0zm0 1.359375l0 -0.796875l-4.265625 0l0 0.796875l4.265625 0zm12.328125 -5.437502l2.15625 0l0 0.890625l-2.015625 0q0.046875 2.859377 2.4375 5.531252l-0.703125 0.890625q-1.453125 -1.5 -2.109375 -4.078125q-0.1875 2.71875 -2.0625 4.546875l-0.65625 -0.796875q2.015625 -1.828125 2.015625 -6.093752l-1.453125 0l0 -0.890625l1.453125 0l0 -2.90625l0.890625 0q0.375 0.046875 0.046875 0.28125l0 2.625zm-3.1875 6.562502q-0.28125 -0.75 -0.609375 -1.359375l0.796875 -0.234375q0.375 0.5625 0.609375 1.265625l-0.796875 0.328125zm4.125 -8.765627q0.515625 0.5625 0.984375 1.3125l-0.84375 0.515625q-0.375 -0.65625 -0.890625 -1.3125l0.75 -0.515625zm-6.375 7.546877q0.140625 1.03125 0.140625 1.921875l-0.984375 0.046875q0 -0.9375 -0.09375 -1.828125l0.9375 -0.140625zm-0.9375 -6.703127q0.328125 0.84375 0.46875 1.546875l-0.65625 0.234375q-0.140625 -0.75 -0.375 -1.546875l0.5625 -0.234375zm1.453125 1.59375q0.234375 -0.703125 0.375 -1.640625l0.65625 0.09375q0.421875 0.046875 0 0.28125q-0.140625 0.75 -0.421875 1.5l-0.609375 -0.234375zm2.671875 4.359377q-2.625 0.328125 -5.625 0.46875q-0.328125 0.515625 -0.421875 -0.046875l-0.09375 -0.890625q1.265625 -0.046875 2.625 -0.09375l0 -0.75l-2.109375 0l0 -0.8906269l2.109375 0l0 -0.796875l-1.078125 0l-1.03125 0l0 -4.21875l5.0625 0l0 4.21875l-2.15625 0l0 0.796875l2.203125 0l0 0.8906269l-2.203125 0l0 0.703125q1.265625 -0.09375 2.71875 -0.234375l0 0.84375zm-3.515625 -3.750002l0 -2.71875l-1.3125 0l0 2.71875l1.3125 0zm2.15625 0l0 -2.71875l-1.359375 0l0 2.71875l1.359375 0zm-0.5625 4.359377q0.28125 0.84375 0.421875 1.546875l-0.890625 0.234375q-0.140625 -0.703125 -0.375 -1.640625l0.84375 -0.140625zm-4.078125 2.25q0.328125 -0.796875 0.5625 -2.109375l0.890625 0.1875q-0.09375 1.21875 -0.46875 2.203125l-0.984375 -0.28125z" fill-rule="nonzero"/><path fill="#000000" d="m229.26772 50.57676q-1.265625 -1.078125 -1.953125 -2.25q-0.671875 -1.171875 -1.140625 -3.046875q-0.515625 2.0625 -1.484375 3.359375q-0.953125 1.28125 -1.796875 1.984375q-0.1875 -0.328125 -0.890625 -0.65625q1.03125 -0.703125 1.84375 -1.796875q0.828125 -1.109375 1.21875 -2.203125q0.40625 -1.109375 0.46875 -2.203125q0.078125 -1.109375 0.078125 -1.953125q0 -0.84375 -0.046875 -1.96875q0.5625 0.046875 1.21875 0.046875q-0.140625 0.1875 -0.1875 1.03125q-0.046875 0.84375 0.046875 2.140625q0.09375 1.28125 0.46875 2.453125q0.375 1.171875 1.078125 2.34375q0.703125 1.171875 2.015625 1.96875q-0.75 0.28125 -0.9375 0.75zm-8.71875 -1.59375q0.328125 -0.375 0.328125 -0.796875l0 -3.9375q-1.078125 0 -1.59375 0.046875l0 -0.890625q0.515625 0.046875 1.125 0.046875l1.453125 0q-0.046875 0.84375 -0.046875 1.59375l0 2.765625q0.375 -0.375 1.453125 -1.59375q0.1875 0.421875 0.515625 0.84375q-0.703125 0.703125 -1.359375 1.40625q-0.65625 0.703125 -1.078125 1.265625q-0.46875 -0.46875 -0.796875 -0.75zm1.6875 -6.65625q-0.75 -1.03125 -1.6875 -1.78125q0.421875 -0.28125 0.65625 -0.65625q0.75 0.609375 1.78125 1.78125q-0.46875 0.28125 -0.75 0.65625z" fill-rule="nonzero"/><path fill="#000000" d="m234.61147 49.592384q2.953125 -0.5625 3.1875 -1.875l-2.953125 0l0 -0.75l3.09375 0l0 -0.75l-1.03125 0l-1.03125 0l0 -3.75l1.078125 0l0 -0.890625l-1.734375 0l0 -0.75l1.734375 0l0 -1.171875l0.75 0q0.375 0.046875 0.046875 0.28125l0 0.890625l1.40625 0l0 -1.125l0.75 0q0.375 0.046875 0.046875 0.28125l0 0.84375l1.828125 0l0 0.75l-1.828125 0l0 0.890625l1.125 0l0 3.75l-2.203125 0l0 0.75l3.1875 0l0 0.75l-3.0 0q0.609375 1.265625 3.1875 1.78125l-0.421875 0.984375q-2.25 -0.609375 -3.328125 -2.203125q-0.75 1.640625 -3.46875 2.203125l-0.421875 -0.890625zm-0.75 -7.6875l1.5 0l0 0.890625l-1.5 0l0 1.21875q0.703125 0.46875 1.59375 1.59375l-0.65625 0.84375q-0.421875 -0.65625 -0.9375 -1.40625l0 5.484375l-0.9375 0l0 -4.96875q-0.5625 1.3125 -1.125 2.015625l-0.703125 -0.75q1.59375 -2.296875 1.828125 -4.03125l-1.546875 0l0 -0.890625l1.546875 0l0 -2.25l0.890625 0q0.375 0.046875 0.046875 0.28125l0 1.96875zm2.8125 1.3125l0 0.75l3.609375 0l0 -0.75l-3.609375 0zm0 1.5l0 0.75l3.609375 0l0 -0.75l-3.609375 0zm2.484375 -3.140625l-1.40625 0l0 0.890625l1.40625 0l0 -0.890625zm11.34375 2.859375q0.234375 1.453125 0.84375 2.484375q0.609375 -0.890625 0.84375 -2.484375l-1.6875 0zm-1.828125 4.96875q1.3125 -0.609375 2.0625 -1.59375q-0.890625 -1.734375 -1.125 -3.375l-0.515625 0l0 0.984375q0 3.703125 -1.59375 5.015625l-0.5625 -0.9375q1.21875 -1.21875 1.21875 -4.03125l0 -4.921875l5.578125 0l0 0.890625l-4.640625 0l0 2.109375l3.234375 0l0.234375 -0.234375l0.796875 0.5625q0.1875 0.140625 -0.140625 0.328125q-0.375 2.015625 -1.265625 3.5625q0.515625 0.75 2.0625 1.5l-0.375 0.984375q-1.125 -0.46875 -2.296875 -1.6875q-0.84375 1.078125 -2.296875 1.828125l-0.375 -0.984375zm-3.375 1.171875l0 -4.875q-0.703125 1.640625 -1.5 2.296875l-0.46875 -0.84375q1.546875 -1.78125 1.96875 -4.125l-1.6875 0l0 -0.890625l1.6875 0l0 -2.4375l0.890625 0q0.375 0.046875 0.046875 0.28125l0 2.15625l1.546875 0l0 0.890625l-1.546875 0l0 1.640625q0.984375 0.5625 1.546875 1.078125l-0.421875 0.9375q-0.5625 -0.421875 -1.125 -0.9375l0 4.828125l-0.9375 0z" fill-rule="nonzero"/><path fill="#000000" d="m224.81459 61.85801q0.328125 0.5625 1.3125 1.125l0 -3.1875l-2.953125 0l0 -0.890625l6.796875 0l0 0.890625l-2.90625 0l0 1.03125l2.203125 0l0 0.890625l-2.203125 0l0 1.59375q0.421875 0.09375 1.078125 0.09375l1.921875 0l-0.140625 0.890625l-1.875 0q-2.296875 0 -3.5625 -1.546875q-0.84375 1.3125 -1.640625 1.734375l-0.609375 -0.75q1.734375 -1.3125 1.96875 -3.421875l0.984375 0.234375q0.328125 0.1875 -0.09375 0.28125l-0.28125 1.03125zm-3.09375 -2.71875l0.9375 -0.328125l0.1875 0.796875l-1.125 0.46875l0 3.5625q0 0.75 -0.75 0.75l-0.9375 0l-0.140625 -0.890625l0.703125 0q0.1875 0 0.1875 -0.1875l0 -2.90625l-1.078125 0.421875q-0.09375 0.328125 -0.1875 0.140625l-0.28125 -1.078125l1.546875 -0.46875l0 -2.765625l-1.3125 0l0 -0.890625l1.3125 0l0 -2.015625l0.890625 0q0.375 0.046875 0.046875 0.28125l0 1.734375l1.359375 0l0 0.890625l-1.359375 0l0 2.484375zm2.15625 -4.96875l5.203125 0l0 3.9375l-5.203125 0l0 -3.9375zm0.796875 0.75l0 0.84375l3.609375 0l0 -0.84375l-3.609375 0zm0 1.59375l0 0.84375l3.609375 0l0 -0.84375l-3.609375 0zm8.0625 2.15625q-0.46875 0.75 -0.890625 1.078125l-0.5625 -0.890625q1.640625 -1.96875 2.109375 -5.109375l1.03125 0.234375q0.421875 0.140625 -0.046875 0.234375q-0.328125 1.359375 -0.75 2.671875q0.65625 0.1875 0.046875 0.46875l0 7.125l-0.9375 0l0 -5.8125zm6.703125 2.484375q0.9375 1.5 2.4375 2.296875l-0.703125 0.890625q-1.453125 -0.703125 -2.625 -2.625l0.890625 -0.5625zm-5.390625 2.34375q1.78125 -1.078125 2.4375 -2.34375l0.796875 0.515625q0.328125 0.28125 -0.09375 0.28125q-1.171875 1.546875 -2.53125 2.4375l-0.609375 -0.890625zm5.578125 -9.609375q0.46875 0.09375 0.046875 0.375l0 2.109375l1.734375 0l0 0.890625l-1.734375 0l0 2.625l2.203125 0l0 0.890625l-7.6875 0l0 -0.890625l1.875 0l0 -2.625l-1.453125 0l0 -0.890625l1.453125 0l0 -2.4375l0.890625 0q0.46875 0.09375 0.046875 0.375l0 2.0625l1.734375 0l0 -2.484375l0.890625 0zm-0.890625 3.375l-1.734375 0l0 2.625l1.734375 0l0 -2.625zm9.5625 1.078125l4.359375 0l-0.46875 4.21875q-0.1875 1.6875 -1.359375 1.6875l-1.875 0l-0.234375 -1.03125l2.015625 0q0.328125 0 0.421875 -0.703125l0.375 -3.28125l-3.375 0q-0.609375 3.0 -4.03125 5.15625l-0.65625 -0.984375q3.65625 -1.875 3.890625 -5.859375l0.046875 -0.84375l-3.9375 0l0 -1.03125l4.59375 0l0 -1.875l1.03125 0q0.46875 0.09375 0.046875 0.375l0 1.5l4.734375 0l0 1.03125l-5.390625 0l-0.1875 1.640625z" fill-rule="nonzero"/><path fill="#000000" d="m229.50209 68.17051q0.375 0.046875 0.046875 0.28125l0 9.140625q0 0.75 -0.75 0.75l-0.9375 0l-0.140625 -0.890625l0.703125 0q0.1875 0 0.1875 -0.1875l0 -9.09375l0.890625 0zm-3.09375 7.875l0 -6.796875l0.890625 0q0.375 0.046875 0.046875 0.28125l0 6.515625l-0.9375 0zm-6.46875 -1.875l2.15625 0l0 -1.359375l0.890625 0q0.375 0.046875 0.046875 0.28125l0 1.078125l2.203125 0l0 0.890625l-2.203125 0l0 1.640625l2.53125 -0.375l0.140625 0.796875l-5.625 1.03125q-0.046875 0.328125 -0.234375 0.140625l-0.375 -1.125l2.625 -0.328125l0 -1.78125l-2.15625 0l0 -0.890625zm0.140625 -1.5q-0.046875 0.328125 -0.234375 0.140625l-0.28125 -1.125l1.21875 -0.046875l0.890625 -2.34375l-2.0625 0l0 -0.890625l5.90625 0l0 0.890625l-2.765625 0l-1.03125 2.296875l2.25 -0.1875q-0.328125 -0.46875 -0.890625 -1.03125l0.75 -0.515625q1.125 1.03125 1.828125 2.25l-0.84375 0.609375l-0.375 -0.5625l-4.359375 0.515625zm22.125 3.140625l-0.1875 1.265625q-0.140625 0.890625 -1.03125 0.890625l-2.71875 0q-0.84375 0 -0.84375 -0.84375l0 -4.921875l3.140625 0l0 -2.765625l-3.234375 0l0 -0.890625l4.171875 0l0 4.96875l-0.9375 0l0 -0.421875l-2.203125 0l0 3.65625q0 0.328125 0.28125 0.328125l1.875 0q0.515625 0 0.5625 -0.421875l0.140625 -1.078125l0.984375 0.234375zm-8.390625 -4.359375l0 1.078125q0 0.984375 -0.75 1.828125l-0.515625 -0.609375q0.609375 -0.515625 0.609375 -1.3125l0 -0.984375l-0.65625 0l0 3.46875l3.328125 0l0 -1.03125l-0.65625 0q-0.703125 0 -0.703125 -0.75l0 -1.6875l-0.65625 0zm1.3125 0l0 1.59375q0 0.28125 0.28125 0.28125l0.421875 0l0 -1.875l-0.703125 0zm1.5 6.703125l-0.796875 0l0 -0.609375l-3.328125 0l0 0.609375l-0.796875 0l0 -7.453125l1.453125 0l0 -1.359375l-1.875 0l0 -0.890625l5.578125 0l0 0.890625l-1.734375 0l0 1.359375l1.5 0l0 7.453125zm-2.8125 -7.453125l0.65625 0l0 -1.359375l-0.65625 0l0 1.359375zm-1.3125 6.09375l3.328125 0l0 -1.125l-3.328125 0l0 1.125zm12.65625 0.5625l8.8125 0l0 0.75l-8.8125 0l0 0.375l-0.9375 0l0 -5.90625l0.890625 0q0.375 0.046875 0.046875 0.28125l0 4.5zm5.109375 -7.6875l1.734375 0l0 -0.984375l-1.734375 0l0 0.984375zm-0.796875 0l0 -0.984375l-1.6875 0l0 0.984375l1.6875 0zm-2.484375 0l0 -0.984375l-1.734375 0l0 0.984375l1.734375 0zm-2.671875 0.5625l0 -2.109375l8.625 0l0 2.109375l-3.703125 0l0 0.65625l4.640625 0l0 0.75l-4.640625 0l0 0.65625l2.90625 0l0 4.5l-5.859375 0l0 -4.5l2.015625 0l0 -0.65625l-5.0625 0l0 -0.75l5.0625 0l0 -0.65625l-1.96875 0l-2.015625 0zm7.03125 3.328125l0 -0.703125l-4.265625 0l0 0.703125l4.265625 0zm0 1.3125l0 -0.75l-4.265625 0l0 0.75l4.265625 0zm0 1.359375l0 -0.796875l-4.265625 0l0 0.796875l4.265625 0z" fill-rule="nonzero"/><path fill="#f6b26b" d="m297.29834 21.538057l63.874023 0l0 60.787407l-63.874023 0z" fill-rule="evenodd"/><path stroke="#000000" stroke-width="1.0" stroke-linejoin="round" stroke-linecap="butt" d="m297.29834 21.538057l63.874023 0l0 60.787407l-63.874023 0z" fill-rule="evenodd"/><path fill="#000000" d="m316.62598 36.29551q-1.453125 0 -2.671875 -1.125q-0.5625 0.65625 -1.734375 1.3125l-0.375 -1.171875q0.515625 -0.140625 1.59375 -0.84375l0 -3.046877l-1.453125 0l0 -0.890625l2.390625 0l0 3.890627q0.9375 0.84375 2.4375 0.84375l5.8125 0l-0.1875 1.03125l-5.8125 0zm0.65625 -9.093752q1.171875 0.28125 1.5 0.421875l0.890625 -0.65625l-4.3125 0l0 -0.890625l5.34375 0l0.234375 -0.140625l0.703125 0.515625q0.28125 0.234375 -0.234375 0.28125l-1.828125 1.21875l0.609375 0.28125l-0.5625 0.5625l2.109375 0l0 5.343752q0 0.65625 -0.65625 0.65625l-1.03125 0l-0.046875 -0.890625l0.609375 0q0.1875 0 0.1875 -0.1875l0 -0.890625l-1.78125 0l0 1.828125l-0.9375 0l0 -1.828125l-1.6875 0l0 2.015625l-0.9375 0l0 -6.046877l3.46875 0q-1.96875 -0.796875 -2.34375 -0.890625l0.703125 -0.703125zm1.734375 2.34375l0 0.890625l1.78125 0l0 -0.890625l-1.78125 0zm-2.625 0l0 0.890625l1.6875 0l0 -0.890625l-1.6875 0zm1.6875 1.640625l-1.6875 0l0 0.8906269l1.6875 0l0 -0.8906269zm2.71875 0l-1.78125 0l0 0.8906269l1.78125 0l0 -0.8906269zm-7.640625 -5.203125q1.265625 0.796875 1.734375 1.546875l-0.796875 0.84375q-0.75 -0.9375 -1.59375 -1.59375l0.65625 -0.796875zm10.875 5.34375l0 -0.890625l2.4375 0l0 -1.921875l-0.609375 0q-0.421875 0.84375 -1.171875 1.5l-0.703125 -0.703125q1.40625 -1.171875 1.96875 -3.46875l0.9375 0.28125q0.28125 0.140625 -0.140625 0.28125q-0.1875 0.5625 -0.515625 1.21875l2.953125 0l0 0.890625l-1.78125 0l0 1.921875l2.34375 0l0 0.890625l-2.34375 0q0 0.609375 -0.09375 1.2187519q0.984375 0.703125 2.34375 2.203125l-0.65625 0.890625q-1.3125 -1.640625 -1.921875 -2.296875q-0.515625 1.640625 -2.390625 2.859375l-0.65625 -0.84375q2.4375 -1.171875 2.4375 -4.031252l-2.4375 0zm9.984375 -4.03125l0 8.437502l-0.9375 0l0 -0.75l-1.96875 0l0 0.890625l-0.9375 0l0 -8.578127l3.84375 0zm-0.9375 0.890625l-1.96875 0l0 5.906252l1.96875 0l0 -5.906252zm6.09375 7.406252q2.953125 -0.5625 3.1875 -1.875l-2.953125 0l0 -0.75l3.09375 0l0 -0.75l-1.03125 0l-1.03125 0l0 -3.750002l1.078125 0l0 -0.890625l-1.734375 0l0 -0.75l1.734375 0l0 -1.171875l0.75 0q0.375 0.046875 0.046875 0.28125l0 0.890625l1.40625 0l0 -1.125l0.75 0q0.375 0.046875 0.046875 0.28125l0 0.84375l1.828125 0l0 0.75l-1.828125 0l0 0.890625l1.125 0l0 3.750002l-2.203125 0l0 0.75l3.1875 0l0 0.75l-3.0 0q0.609375 1.265625 3.1875 1.78125l-0.421875 0.984375q-2.25 -0.609375 -3.328125 -2.203125q-0.75 1.640625 -3.46875 2.203125l-0.421875 -0.890625zm-0.75 -7.687502l1.5 0l0 0.890625l-1.5 0l0 1.21875q0.703125 0.46875 1.59375 1.59375l-0.65625 0.8437519q-0.421875 -0.6562519 -0.9375 -1.4062519l0 5.484377l-0.9375 0l0 -4.968752q-0.5625 1.3125019 -1.125 2.015627l-0.703125 -0.75q1.59375 -2.296877 1.828125 -4.031252l-1.546875 0l0 -0.890625l1.546875 0l0 -2.25l0.890625 0q0.375 0.046875 0.046875 0.28125l0 1.96875zm2.8125 1.3125l0 0.75l3.609375 0l0 -0.75l-3.609375 0zm0 1.5l0 0.75l3.609375 0l0 -0.75l-3.609375 0zm2.484375 -3.140625l-1.40625 0l0 0.890625l1.40625 0l0 -0.890625z" fill-rule="nonzero"/><path fill="#000000" d="m319.06348 44.436134q0.234375 1.453125 0.84375 2.484375q0.609375 -0.890625 0.84375 -2.484375l-1.6875 0zm-1.828125 4.96875q1.3125 -0.609375 2.0625 -1.59375q-0.890625 -1.734375 -1.125 -3.375l-0.515625 0l0 0.984375q0 3.703125 -1.59375 5.015625l-0.5625 -0.9375q1.21875 -1.21875 1.21875 -4.03125l0 -4.921875l5.578125 0l0 0.890625l-4.640625 0l0 2.109375l3.234375 0l0.234375 -0.234375l0.796875 0.5625q0.1875 0.140625 -0.140625 0.328125q-0.375 2.015625 -1.265625 3.5625q0.515625 0.75 2.0625 1.5l-0.375 0.984375q-1.125 -0.46875 -2.296875 -1.6875q-0.84375 1.078125 -2.296875 1.828125l-0.375 -0.984375zm-3.375 1.171875l0 -4.875q-0.703125 1.640625 -1.5 2.296875l-0.46875 -0.84375q1.546875 -1.78125 1.96875 -4.125l-1.6875 0l0 -0.890625l1.6875 0l0 -2.4375l0.890625 0q0.375 0.046875 0.046875 0.28125l0 2.15625l1.546875 0l0 0.890625l-1.546875 0l0 1.640625q0.984375 0.5625 1.546875 1.078125l-0.421875 0.9375q-0.5625 -0.421875 -1.125 -0.9375l0 4.828125l-0.9375 0zm15.515625 -2.71875q0.328125 0.5625 1.3125 1.125l0 -3.1875l-2.953125 0l0 -0.890625l6.796875 0l0 0.890625l-2.90625 0l0 1.03125l2.203125 0l0 0.890625l-2.203125 0l0 1.59375q0.421875 0.09375 1.078125 0.09375l1.921875 0l-0.140625 0.890625l-1.875 0q-2.296875 0 -3.5625 -1.546875q-0.84375 1.3125 -1.640625 1.734375l-0.609375 -0.75q1.734375 -1.3125 1.96875 -3.421875l0.984375 0.234375q0.328125 0.1875 -0.09375 0.28125l-0.28125 1.03125zm-3.09375 -2.71875l0.9375 -0.328125l0.1875 0.796875l-1.125 0.46875l0 3.5625q0 0.75 -0.75 0.75l-0.9375 0l-0.140625 -0.890625l0.703125 0q0.1875 0 0.1875 -0.1875l0 -2.90625l-1.078125 0.421875q-0.09375 0.328125 -0.1875 0.140625l-0.28125 -1.078125l1.546875 -0.46875l0 -2.765625l-1.3125 0l0 -0.890625l1.3125 0l0 -2.015625l0.890625 0q0.375 0.046875 0.046875 0.28125l0 1.734375l1.359375 0l0 0.890625l-1.359375 0l0 2.484375zm2.15625 -4.96875l5.203125 0l0 3.9375l-5.203125 0l0 -3.9375zm0.796875 0.75l0 0.84375l3.609375 0l0 -0.84375l-3.609375 0zm0 1.59375l0 0.84375l3.609375 0l0 -0.84375l-3.609375 0zm8.0625 2.15625q-0.46875 0.75 -0.890625 1.078125l-0.5625 -0.890625q1.640625 -1.96875 2.109375 -5.109375l1.03125 0.234375q0.421875 0.140625 -0.046875 0.234375q-0.328125 1.359375 -0.75 2.671875q0.65625 0.1875 0.046875 0.46875l0 7.125l-0.9375 0l0 -5.8125zm6.703125 2.484375q0.9375 1.5 2.4375 2.296875l-0.703125 0.890625q-1.453125 -0.703125 -2.625 -2.625l0.890625 -0.5625zm-5.390625 2.34375q1.78125 -1.078125 2.4375 -2.34375l0.796875 0.515625q0.328125 0.28125 -0.09375 0.28125q-1.171875 1.546875 -2.53125 2.4375l-0.609375 -0.890625zm5.578125 -9.609375q0.46875 0.09375 0.046875 0.375l0 2.109375l1.734375 0l0 0.890625l-1.734375 0l0 2.625l2.203125 0l0 0.890625l-7.6875 0l0 -0.890625l1.875 0l0 -2.625l-1.453125 0l0 -0.890625l1.453125 0l0 -2.4375l0.890625 0q0.46875 0.09375 0.046875 0.375l0 2.0625l1.734375 0l0 -2.484375l0.890625 0zm-0.890625 3.375l-1.734375 0l0 2.625l1.734375 0l0 -2.625z" fill-rule="nonzero"/><path fill="#000000" d="m320.79785 58.904884l0 5.4375l-0.9375 0l0 -0.46875l-4.21875 0l0 0.609375l-0.9375 0l0 -4.265625q-1.21875 0.65625 -2.625 1.03125l-0.328125 -0.84375q1.3125 -0.328125 2.953125 -1.171875l0 -0.328125l0.65625 0q0.984375 -0.5625 1.6875 -1.125l-4.921875 0l0 -0.890625l4.125 0l0 -1.125l-2.90625 0l0 -0.890625l2.90625 0l0 -1.125l0.890625 0q0.375 0.046875 0.046875 0.28125l0 0.84375l2.25 0l0 0.796875q0.5625 -0.609375 1.125 -1.359375l0.65625 0.421875q0.328125 0.234375 -0.09375 0.28125q-0.890625 1.078125 -1.78125 1.875l3.234375 0l0 0.890625l-4.21875 0q-0.9375 0.796875 -1.5 1.125l3.9375 0zm-2.71875 -2.015625q0.5625 -0.421875 1.265625 -1.125l-2.15625 0l0 1.125l0.890625 0zm-2.4375 4.03125l4.21875 0l0 -1.265625l-4.21875 0l0 1.265625zm0 2.203125l4.21875 0l0 -1.453125l-4.21875 0l0 1.453125zm8.578125 0.328125q2.765625 -0.75 2.765625 -2.671875l0 -1.078125l-3.0 0l0 -1.03125l3.0 0l0 -2.859375l-2.296875 0l0 -1.03125l9.09375 0l0 1.03125l-2.203125 0l0 2.859375l2.90625 0l0 1.03125l-2.90625 0l0 4.640625l-1.078125 0l0 -4.640625l-2.4375 0l0 1.078125q0 2.71875 -3.375 3.75l-0.46875 -1.078125zm3.84375 -7.640625l0 2.859375l2.4375 0l0 -2.859375l-2.4375 0zm12.75 2.90625q-0.234375 0.28125 -0.28125 0l-0.234375 -0.984375l0.84375 0q0.515625 -1.5 1.078125 -3.9375l1.125 0.328125q0.28125 0.234375 -0.1875 0.328125q-0.5625 1.6875 -1.125 3.234375l2.8125 -0.1875q-0.421875 -0.703125 -0.984375 -1.453125l0.796875 -0.375q1.078125 1.171875 1.921875 2.859375l-0.9375 0.46875l-0.375 -0.75l-4.453125 0.46875zm-2.765625 -1.6875q-0.234375 1.5 -0.609375 2.90625q0.5625 0.375 1.125 0.75q0.328125 -1.171875 0.515625 -3.65625l-1.03125 0zm1.265625 4.171875q0.375 0.28125 0.9375 0.75l-0.515625 0.984375q-0.328125 -0.375 -0.84375 -0.796875q-0.75 1.21875 -2.203125 2.15625l-0.609375 -0.75q1.359375 -0.890625 2.109375 -2.015625q-0.515625 -0.375 -1.03125 -0.796875l-0.234375 0.609375l-0.84375 -0.375q0.703125 -1.734375 1.078125 -3.9375l-1.125 0l0 -0.890625l1.265625 0q0.140625 -1.078125 0.28125 -2.203125l0.84375 0.1875q0.46875 0.140625 0 0.328125q-0.09375 0.84375 -0.234375 1.6875l1.078125 0l0.1875 -0.1875l0.703125 0.46875l-0.140625 0.1875q-0.1875 3.046875 -0.703125 4.59375zm5.484375 2.625l-2.953125 0l0 0.609375l-0.9375 0l0 -4.78125l4.828125 0l0 4.59375l-0.9375 0l0 -0.421875zm0 -0.890625l0 -2.390625l-2.953125 0l0 2.390625l2.953125 0z" fill-rule="nonzero"/><path fill="#000000" d="m328.34473 78.57676q-3.703125 -0.328125 -5.8125 -1.5q-1.171875 0.984375 -4.171875 1.546875l-0.328125 -0.984375q2.765625 -0.46875 3.65625 -1.171875q-0.609375 -0.515625 -1.21875 -1.3125l0.84375 -0.328125q0.375 0.46875 1.03125 0.984375q0.375 -0.609375 0.421875 -1.359375l-2.4375 0l0 0.375l-0.9375 0l0 -4.78125l3.421875 0l0 -0.984375l-4.734375 0l0 -0.890625l10.125 0l0 0.890625l-4.453125 0l0 0.984375l3.46875 0l0 4.96875l-0.9375 0l0 -0.5625l-2.578125 0q-0.046875 0.9375 -0.5625 1.828125q1.59375 0.9375 5.34375 1.265625l-0.140625 1.03125zm-8.015625 -7.78125l0 1.078125l2.484375 0l0 -1.078125l-2.484375 0zm3.421875 0l0 1.078125l2.53125 0l0 -1.078125l-2.53125 0zm0 2.90625l2.53125 0l0 -1.078125l-2.53125 0l0 1.078125zm-0.9375 0l0 -1.078125l-2.484375 0l0 1.078125l2.484375 0zm11.296875 3.9375q1.921875 -1.03125 1.921875 -3.515625l0 -5.390625l0.984375 0.1875l2.53125 -0.796875l0.703125 0.9375q0.09375 0.28125 -0.328125 0.09375l-2.953125 0.5625l0 2.015625l3.703125 0l0 0.890625l-1.40625 0l0 5.859375l-0.9375 0l0 -5.859375l-1.359375 0l0 1.78125q0 2.765625 -2.34375 4.125l-0.515625 -0.890625zm-0.890625 0.890625l-0.9375 0l0 -2.8125q-0.75 1.21875 -1.640625 1.921875l-0.703125 -0.84375q1.3125 -0.9375 2.203125 -2.34375l-1.96875 0l0 -0.890625l2.109375 0l0 -1.03125l-2.390625 0l0 -0.890625l3.28125 0l0.515625 -1.6875l-3.46875 0l0 -0.890625l2.0625 0l0 -1.3125l0.890625 0q0.375 0.046875 0.046875 0.28125l0 1.03125l2.0625 0l0 0.890625l-0.609375 0l-0.65625 1.6875l1.5 0l0 0.890625l-2.296875 0l0 1.03125l2.0625 0l0 0.890625l-2.0625 0l0 0.421875q0.65625 0.1875 1.828125 0.984375l-0.5625 0.9375q-0.65625 -0.65625 -1.265625 -1.03125l0 2.765625zm-1.875 -6.984375q-0.1875 -0.65625 -0.515625 -1.265625l0.890625 -0.28125q0.375 0.609375 0.5625 1.265625l-0.9375 0.28125z" fill-rule="nonzero"/></g></svg>