<svg version="1.1" viewBox="0.0 0.0 487.005249343832 285.03937007874015" fill="none" stroke="none" stroke-linecap="square" stroke-miterlimit="10" xmlns:xlink="http://www.w3.org/1999/xlink" xmlns="http://www.w3.org/2000/svg"><clipPath id="p.0"><path d="m0 0l487.00525 0l0 285.03937l-487.00525 0l0 -285.03937z" clip-rule="nonzero"/></clipPath><g clip-path="url(#p.0)"><path fill="#000000" fill-opacity="0.0" d="m0 0l487.00525 0l0 285.03937l-487.00525 0z" fill-rule="evenodd"/><path fill="#2b2b2b" d="m9.645669 19.055119l225.6063 0l0 36.85039l-225.6063 0z" fill-rule="evenodd"/><path fill="#2b2b2b" d="m18.64567 27.880314l124.82032 0l0 19.2l-124.82032 0l0 -19.2z" fill-rule="nonzero"/><path fill="#000000" fill-opacity="0.0" d="m18.64567 29.920002l105.61719 0l0 18.125l-105.61719 0l0 -18.125z" fill-rule="nonzero"/><path fill="#6a8759" d="m25.411295 40.66219l-3.890625 0l-0.390625 0.96875l0.390625 0q0.578125 0 0.8125 0.234375q0.25 0.21875 0.25 0.578125q0 0.34375 -0.25 0.578125q-0.234375 0.21875 -0.8125 0.21875l-2.15625 0q-0.578125 0 -0.828125 -0.21875q-0.25 -0.234375 -0.25 -0.59375q0 -0.359375 0.265625 -0.578125q0.25 -0.234375 0.84375 -0.21875l2.515625 -6.265625l-1.046875 0q-0.578125 0 -0.828125 -0.21875q-0.234375 -0.21875 -0.234375 -0.578125q0 -0.359375 0.234375 -0.578125q0.25 -0.234375 0.828125 -0.234375l3.46875 0.015625l3.1875 7.859375q0.5625 0 0.734375 0.125q0.359375 0.265625 0.359375 0.6875q0 0.34375 -0.25 0.578125q-0.234375 0.21875 -0.8125 0.21875l-2.15625 0q-0.578125 0 -0.828125 -0.21875q-0.234375 -0.234375 -0.234375 -0.59375q0 -0.34375 0.234375 -0.5625q0.25 -0.234375 0.828125 -0.234375l0.390625 0l-0.375 -0.96875zm-0.671875 -1.609375l-1.28125 -3.171875l-1.296875 3.171875l2.578125 0zm15.921873 3.296875l0 2.640625l0.96875 0q0.578125 0 0.8125 0.21875q0.25 0.21875 0.25 0.578125q0 0.359375 -0.25 0.578125q-0.234375 0.21875 -0.8125 0.21875l-2.84375 0q-0.578125 0 -0.828125 -0.21875q-0.25 -0.21875 -0.25 -0.578125q0 -0.359375 0.25 -0.578125q0.265625 -0.21875 0.828125 -0.21875l0.28125 0l0 -7.25l-0.28125 0q-0.578125 0 -0.828125 -0.21875q-0.25 -0.21875 -0.25 -0.578125q0 -0.359375 0.25 -0.578125q0.25 -0.21875 0.828125 -0.21875l1.875 0l0 0.546875q0.5625 -0.390625 1.15625 -0.578125q0.609375 -0.1875 1.25 -0.1875q1.640625 0 2.796875 1.125q1.15625 1.109375 1.15625 2.546875q0 1.578125 -1.375 2.609375q-1.140625 0.859375 -2.5625 0.859375q-0.625 0 -1.234375 -0.171875q-0.59375 -0.1875 -1.1875 -0.546875zm4.75 -2.75q0 -0.328125 -0.265625 -0.84375q-0.265625 -0.53125 -0.8125 -0.875q-0.546875 -0.34375 -1.296875 -0.34375q-1.1875 0 -1.890625 0.890625q-0.484375 0.625 -0.484375 1.1875q0 0.640625 0.6875 1.25q0.6875 0.609375 1.6875 0.609375q1.015625 0 1.6875 -0.59375q0.6875 -0.609375 0.6875 -1.28125zm8.2890625 3.640625l0 -0.375q-0.609375 0.3125 -1.34375 0.46875q-0.71875 0.171875 -1.3125 0.171875q-1.28125 0 -2.09375 -0.6875q-0.796875 -0.6875 -0.796875 -1.515625q0 -1.0 1.015625 -1.859375q1.03125 -0.875 2.84375 -0.875q0.734375 0 1.6875 0.15625l0 -0.375q0 -0.359375 -0.3125 -0.578125q-0.3125 -0.234375 -1.171875 -0.234375q-0.71875 0 -1.84375 0.28125q-0.421875 0.09375 -0.65625 0.09375q-0.328125 0 -0.546875 -0.21875q-0.21875 -0.234375 -0.21875 -0.59375q0 -0.203125 0.078125 -0.34375q0.078125 -0.15625 0.21875 -0.25q0.140625 -0.09375 0.578125 -0.21875q0.59375 -0.15625 1.203125 -0.25q0.625 -0.109375 1.125 -0.109375q1.5 0 2.3125 0.65625q0.828125 0.640625 0.828125 1.75l0 3.296875l0.28125 0q0.578125 0 0.8125 0.234375q0.25 0.21875 0.25 0.578125q0 0.34375 -0.25 0.578125q-0.234375 0.21875 -0.8125 0.21875l-1.875 0zm0 -2.875q-0.96875 -0.1875 -1.78125 -0.1875q-0.96875 0 -1.671875 0.484375q-0.4375 0.296875 -0.4375 0.609375q0 0.234375 0.203125 0.375q0.390625 0.25 1.078125 0.25q0.578125 0 1.296875 -0.21875q0.734375 -0.234375 1.3125 -0.625l0 -0.6875zm7.8203125 -4.21875l0 1.0q1.015625 -0.734375 1.59375 -0.96875q0.578125 -0.25 1.09375 -0.25q0.78125 0 1.515625 0.578125q0.5 0.390625 0.5 0.796875q0 0.34375 -0.25 0.59375q-0.234375 0.234375 -0.5625 0.234375q-0.296875 0 -0.625 -0.296875q-0.328125 -0.296875 -0.59375 -0.296875q-0.328125 0 -1.0 0.421875q-0.671875 0.421875 -1.671875 1.265625l0 2.40625l2.28125 0q0.578125 0 0.828125 0.234375q0.25 0.21875 0.25 0.578125q0 0.34375 -0.25 0.578125q-0.25 0.21875 -0.828125 0.21875l-4.828125 0q-0.578125 0 -0.828125 -0.21875q-0.25 -0.234375 -0.25 -0.59375q0 -0.34375 0.25 -0.5625q0.25 -0.234375 0.828125 -0.234375l0.953125 0l0 -3.890625l-0.578125 0q-0.578125 0 -0.828125 -0.21875q-0.25 -0.21875 -0.25 -0.578125q0 -0.359375 0.25 -0.578125q0.25 -0.21875 0.828125 -0.21875l2.171875 0zm11.3828125 7.09375l0 -0.375q-0.609375 0.3125 -1.34375 0.46875q-0.71875 0.171875 -1.3125 0.171875q-1.28125 0 -2.09375 -0.6875q-0.796875 -0.6875 -0.796875 -1.515625q0 -1.0 1.015625 -1.859375q1.03125 -0.875 2.84375 -0.875q0.734375 0 1.6875 0.15625l0 -0.375q0 -0.359375 -0.3125 -0.578125q-0.3125 -0.234375 -1.171875 -0.234375q-0.71875 0 -1.84375 0.28125q-0.421875 0.09375 -0.65625 0.09375q-0.328125 0 -0.546875 -0.21875q-0.21875 -0.234375 -0.21875 -0.59375q0 -0.203125 0.078125 -0.34375q0.078125 -0.15625 0.21875 -0.25q0.140625 -0.09375 0.578125 -0.21875q0.59375 -0.15625 1.203125 -0.25q0.625 -0.109375 1.125 -0.109375q1.5 0 2.3125 0.65625q0.828125 0.640625 0.828125 1.75l0 3.296875l0.28125 0q0.578125 0 0.8125 0.234375q0.25 0.21875 0.25 0.578125q0 0.34375 -0.25 0.578125q-0.234375 0.21875 -0.8125 0.21875l-1.875 0zm0 -2.875q-0.96875 -0.1875 -1.78125 -0.1875q-0.96875 0 -1.671875 0.484375q-0.4375 0.296875 -0.4375 0.609375q0 0.234375 0.203125 0.375q0.390625 0.25 1.078125 0.25q0.578125 0 1.296875 -0.21875q0.734375 -0.234375 1.3125 -0.625l0 -0.6875zm9.9140625 -3.75l0 -0.46875l1.875 0q0.578125 0 0.828125 0.21875q0.25 0.21875 0.25 0.578125q0 0.359375 -0.25 0.578125q-0.25 0.21875 -0.828125 0.21875l-0.265625 0l0 5.84375q0 0.84375 -0.359375 1.46875q-0.359375 0.625 -1.09375 1.078125q-0.734375 0.453125 -1.65625 0.453125l-1.8125 0q-0.578125 0 -0.828125 -0.21875q-0.234375 -0.21875 -0.234375 -0.578125q0 -0.359375 0.234375 -0.578125q0.25 -0.21875 0.828125 -0.21875l1.765625 0q0.734375 0 1.140625 -0.40625q0.40625 -0.390625 0.40625 -1.0l0 -0.796875q-0.53125 0.34375 -1.078125 0.515625q-0.546875 0.1875 -1.125 0.1875q-1.640625 0 -2.75 -1.09375q-1.09375 -1.09375 -1.09375 -2.703125q0 -1.609375 1.09375 -2.6875q1.109375 -1.09375 2.75 -1.09375q0.609375 0 1.15625 0.171875q0.546875 0.171875 1.046875 0.53125zm0 3.078125q0 -0.890625 -0.65625 -1.53125q-0.65625 -0.65625 -1.5625 -0.65625q-0.921875 0 -1.578125 0.65625q-0.640625 0.640625 -0.640625 1.53125q0 0.890625 0.640625 1.53125q0.65625 0.640625 1.578125 0.640625q0.90625 0 1.5625 -0.640625q0.65625 -0.640625 0.65625 -1.53125zm7.5078125 -3.546875l0 1.0q1.015625 -0.734375 1.59375 -0.96875q0.578125 -0.25 1.09375 -0.25q0.78125 0 1.515625 0.578125q0.5 0.390625 0.5 0.796875q0 0.34375 -0.25 0.59375q-0.234375 0.234375 -0.5625 0.234375q-0.296875 0 -0.625 -0.296875q-0.328125 -0.296875 -0.59375 -0.296875q-0.328125 0 -1.0 0.421875q-0.671875 0.421875 -1.671875 1.265625l0 2.40625l2.28125 0q0.578125 0 0.828125 0.234375q0.25 0.21875 0.25 0.578125q0 0.34375 -0.25 0.578125q-0.25 0.21875 -0.828125 0.21875l-4.828125 0q-0.578125 0 -0.828125 -0.21875q-0.25 -0.234375 -0.25 -0.59375q0 -0.34375 0.25 -0.5625q0.25 -0.234375 0.828125 -0.234375l0.953125 0l0 -3.890625l-0.578125 0q-0.578125 0 -0.828125 -0.21875q-0.25 -0.21875 -0.25 -0.578125q0 -0.359375 0.25 -0.578125q0.25 -0.21875 0.828125 -0.21875l2.171875 0zm11.3828125 7.09375l0 -0.375q-0.609375 0.3125 -1.34375 0.46875q-0.71875 0.171875 -1.3125 0.171875q-1.28125 0 -2.09375 -0.6875q-0.796875 -0.6875 -0.796875 -1.515625q0 -1.0 1.015625 -1.859375q1.03125 -0.875 2.84375 -0.875q0.734375 0 1.6875 0.15625l0 -0.375q0 -0.359375 -0.3125 -0.578125q-0.3125 -0.234375 -1.171875 -0.234375q-0.71875 0 -1.84375 0.28125q-0.421875 0.09375 -0.65625 0.09375q-0.328125 0 -0.546875 -0.21875q-0.21875 -0.234375 -0.21875 -0.59375q0 -0.203125 0.078125 -0.34375q0.078125 -0.15625 0.21875 -0.25q0.140625 -0.09375 0.578125 -0.21875q0.59375 -0.15625 1.203125 -0.25q0.625 -0.109375 1.125 -0.109375q1.5 0 2.3125 0.65625q0.828125 0.640625 0.828125 1.75l0 3.296875l0.28125 0q0.578125 0 0.8125 0.234375q0.25 0.21875 0.25 0.578125q0 0.34375 -0.25 0.578125q-0.234375 0.21875 -0.8125 0.21875l-1.875 0zm0 -2.875q-0.96875 -0.1875 -1.78125 -0.1875q-0.96875 0 -1.671875 0.484375q-0.4375 0.296875 -0.4375 0.609375q0 0.234375 0.203125 0.375q0.390625 0.25 1.078125 0.25q0.578125 0 1.296875 -0.21875q0.734375 -0.234375 1.3125 -0.625l0 -0.6875zm6.1640625 1.984375l0 2.640625l0.96875 0q0.578125 0 0.8125 0.21875q0.25 0.21875 0.25 0.578125q0 0.359375 -0.25 0.578125q-0.234375 0.21875 -0.8125 0.21875l-2.84375 0q-0.578125 0 -0.828125 -0.21875q-0.25 -0.21875 -0.25 -0.578125q0 -0.359375 0.25 -0.578125q0.265625 -0.21875 0.828125 -0.21875l0.28125 0l0 -7.25l-0.28125 0q-0.578125 0 -0.828125 -0.21875q-0.25 -0.21875 -0.25 -0.578125q0 -0.359375 0.25 -0.578125q0.25 -0.21875 0.828125 -0.21875l1.875 0l0 0.546875q0.5625 -0.390625 1.15625 -0.578125q0.609375 -0.1875 1.25 -0.1875q1.640625 0 2.796875 1.125q1.15625 1.109375 1.15625 2.546875q0 1.578125 -1.375 2.609375q-1.140625 0.859375 -2.5625 0.859375q-0.625 0 -1.234375 -0.171875q-0.59375 -0.1875 -1.1875 -0.546875zm4.75 -2.75q0 -0.328125 -0.265625 -0.84375q-0.265625 -0.53125 -0.8125 -0.875q-0.546875 -0.34375 -1.296875 -0.34375q-1.1875 0 -1.890625 0.890625q-0.484375 0.625 -0.484375 1.1875q0 0.640625 0.6875 1.25q0.6875 0.609375 1.6875 0.609375q1.015625 0 1.6875 -0.59375q0.6875 -0.609375 0.6875 -1.28125zm5.1953125 -6.5l0 3.421875q0.5 -0.296875 1.0 -0.4375q0.515625 -0.15625 1.046875 -0.15625q0.828125 0 1.46875 0.28125q0.65625 0.28125 1.078125 0.890625q0.421875 0.609375 0.421875 1.53125l0 3.0q0.609375 0 0.796875 0.125q0.375 0.234375 0.375 0.6875q0 0.34375 -0.25 0.578125q-0.234375 0.21875 -0.8125 0.21875l-1.828125 0q-0.5625 0 -0.8125 -0.21875q-0.25 -0.234375 -0.25 -0.59375q0 -0.4375 0.375 -0.671875q0.203125 -0.125 0.796875 -0.125l0 -2.890625q0 -0.625 -0.28125 -0.875q-0.359375 -0.328125 -1.078125 -0.328125q-0.53125 0 -0.953125 0.203125q-0.40625 0.203125 -1.09375 0.890625l0 3.0q0.609375 0 0.796875 0.125q0.375 0.234375 0.375 0.6875q0 0.34375 -0.25 0.578125q-0.234375 0.21875 -0.8125 0.21875l-1.828125 0q-0.578125 0 -0.828125 -0.21875q-0.234375 -0.234375 -0.234375 -0.59375q0 -0.4375 0.375 -0.671875q0.1875 -0.125 0.796875 -0.125l0 -6.921875l-0.265625 0q-0.578125 0 -0.828125 -0.21875q-0.25 -0.234375 -0.25 -0.59375q0 -0.34375 0.25 -0.5625q0.25 -0.234375 0.828125 -0.234375l1.875 0z" fill-rule="nonzero"/><path fill="#010000" fill-opacity="0.0" d="m124.262856 29.920002l19.203133 0l0 18.125l-19.203133 0l0 -18.125z" fill-rule="nonzero"/><path fill="#cc7832" d="m127.231606 32.646564l5.1406326 11.015625q0.046875 0.09375 0.140625 0.40625q0.046875 0.171875 0.046875 0.265625q0 0.28125 -0.234375 0.484375q-0.21875 0.21875 -0.546875 0.21875q-0.296875 0 -0.484375 -0.140625q-0.171875 -0.140625 -0.375 -0.546875l-5.1250076 -11.03125q-0.203125 -0.40625 -0.203125 -0.609375q0 -0.296875 0.234375 -0.53125q0.25 -0.234375 0.5625 -0.234375q0.296875 0 0.46875 0.140625q0.1875 0.140625 0.375 0.5625zm9.82032 3.5l0 0.53125q0.4375 -0.375 0.953125 -0.5625q0.53125 -0.1875 1.15625 -0.1875q1.421875 0 2.25 0.890625q0.65625 0.703125 0.65625 1.84375l0 2.96875q0.5 0 0.734375 0.234375q0.25 0.21875 0.25 0.578125q0 0.34375 -0.25 0.578125q-0.234375 0.21875 -0.8125 0.21875l-1.453125 0q-0.578125 0 -0.828125 -0.21875q-0.234375 -0.234375 -0.234375 -0.59375q0 -0.34375 0.234375 -0.5625q0.25 -0.234375 0.75 -0.234375l0 -3.015625q0 -0.53125 -0.28125 -0.765625q-0.359375 -0.3125 -1.09375 -0.3125q-0.5625 0 -0.984375 0.21875q-0.40625 0.203125 -1.046875 0.90625l0 2.96875q0.609375 0 0.796875 0.125q0.375 0.234375 0.375 0.6875q0 0.34375 -0.25 0.578125q-0.234375 0.21875 -0.8125 0.21875l-1.828125 0q-0.578125 0 -0.828125 -0.21875q-0.234375 -0.234375 -0.234375 -0.59375q0 -0.4375 0.375 -0.671875q0.1875 -0.125 0.796875 -0.125l0 -3.890625q-0.5 0 -0.75 -0.21875q-0.234375 -0.234375 -0.234375 -0.578125q0 -0.359375 0.234375 -0.578125q0.25 -0.21875 0.828125 -0.21875l1.53125 0z" fill-rule="nonzero"/><path fill="#000000" fill-opacity="0.0" d="m143.46599 29.920002l0 0l0 18.125l0 0l0 -18.125z" fill-rule="nonzero"/><path fill="#2b2b2b" d="m9.645669 62.952755l225.6063 0l0 36.85039l-225.6063 0z" fill-rule="evenodd"/><path fill="#2b2b2b" d="m18.64567 71.777954l163.22656 0l0 19.199997l-163.22656 0l0 -19.199997z" fill-rule="nonzero"/><path fill="#000000" fill-opacity="0.0" d="m18.64567 73.81764l144.02344 0l0 18.125l-144.02344 0l0 -18.125z" fill-rule="nonzero"/><path fill="#6a8759" d="m23.45817 84.18483l-1.109375 2.953125l-1.5 0l-1.34375 -5.5q-0.4375 -0.015625 -0.671875 -0.234375q-0.21875 -0.234375 -0.21875 -0.5625q0 -0.359375 0.25 -0.578125q0.25 -0.21875 0.828125 -0.21875l1.484375 0q0.578125 0 0.828125 0.21875q0.25 0.21875 0.25 0.578125q0 0.359375 -0.28125 0.609375q-0.21875 0.1875 -0.828125 0.1875l0.609375 2.546875l0.984375 -2.609375l1.421875 0l1.0 2.609375l0.625 -2.546875q-0.59375 0 -0.78125 -0.109375q-0.375 -0.25 -0.375 -0.6875q0 -0.359375 0.25 -0.578125q0.25 -0.21875 0.828125 -0.21875l1.5 0q0.578125 0 0.828125 0.21875q0.25 0.21875 0.25 0.578125q0 0.328125 -0.21875 0.546875q-0.21875 0.21875 -0.640625 0.25l-1.3125 5.5l-1.484375 0l-1.171875 -2.953125zm10.164061 -7.1875l0 1.703125l-1.9062481 0l0 -1.703125l1.9062481 0zm0.21875 3.046875l0 5.484375l1.921875 0q0.578125 0 0.828125 0.234375q0.25 0.21875 0.25 0.578125q0 0.34375 -0.25 0.578125q-0.25 0.21875 -0.828125 0.21875l-5.437498 0q-0.578125 0 -0.828125 -0.21875q-0.25 -0.234375 -0.25 -0.59375q0 -0.34375 0.25 -0.5625q0.25 -0.234375 0.828125 -0.234375l1.9218731 0l0 -3.890625l-1.2968731 0q-0.5625 0 -0.8125 -0.21875q-0.25 -0.21875 -0.25 -0.578125q0 -0.359375 0.234375 -0.578125q0.25 -0.21875 0.828125 -0.21875l2.890623 0zm8.4140625 1.59375l0 3.21875q0 0.515625 0.21875 0.671875q0.328125 0.265625 1.171875 0.265625q1.21875 0 2.265625 -0.53125q0.390625 -0.203125 0.625 -0.203125q0.3125 0 0.53125 0.234375q0.234375 0.234375 0.234375 0.578125q0 0.3125 -0.25 0.53125q-0.375 0.375 -1.515625 0.6875q-1.125 0.3125 -1.890625 0.3125q-1.5 0 -2.25 -0.640625q-0.734375 -0.65625 -0.734375 -1.59375l0 -3.53125l-0.578125 0q-0.578125 0 -0.828125 -0.21875q-0.25 -0.21875 -0.25 -0.578125q0 -0.359375 0.25 -0.578125q0.25 -0.21875 0.828125 -0.21875l0.578125 0l0 -1.453125q0 -0.578125 0.21875 -0.8125q0.21875 -0.25 0.578125 -0.25q0.359375 0 0.578125 0.25q0.21875 0.234375 0.21875 0.8125l0 1.453125l2.96875 0q0.578125 0 0.8125 0.21875q0.25 0.21875 0.25 0.578125q0 0.359375 -0.25 0.578125q-0.234375 0.21875 -0.8125 0.21875l-2.96875 0zm8.3515625 -4.640625l0 3.421875q0.5 -0.296875 1.0 -0.4375q0.515625 -0.15625 1.046875 -0.15625q0.828125 0 1.46875 0.28125q0.65625 0.28125 1.078125 0.890625q0.421875 0.609375 0.421875 1.53125l0 3.0q0.609375 0 0.796875 0.125q0.375 0.234375 0.375 0.6875q0 0.34375 -0.25 0.578125q-0.234375 0.21875 -0.8125 0.21875l-1.828125 0q-0.5625 0 -0.8125 -0.21875q-0.25 -0.234375 -0.25 -0.59375q0 -0.4375 0.375 -0.671875q0.203125 -0.125 0.796875 -0.125l0 -2.890625q0 -0.625 -0.28125 -0.875q-0.359375 -0.328125 -1.078125 -0.328125q-0.53125 0 -0.953125 0.203125q-0.40625 0.203125 -1.09375 0.890625l0 3.0q0.609375 0 0.796875 0.125q0.375 0.234375 0.375 0.6875q0 0.34375 -0.25 0.578125q-0.234375 0.21875 -0.8125 0.21875l-1.828125 0q-0.578125 0 -0.828125 -0.21875q-0.234375 -0.234375 -0.234375 -0.59375q0 -0.4375 0.375 -0.671875q0.1875 -0.125 0.796875 -0.125l0 -6.921875l-0.265625 0q-0.578125 0 -0.828125 -0.21875q-0.25 -0.234375 -0.25 -0.59375q0 -0.34375 0.25 -0.5625q0.25 -0.234375 0.828125 -0.234375l1.875 0zm20.453125 4.640625l0 3.21875q0 0.515625 0.21875 0.671875q0.328125 0.265625 1.171875 0.265625q1.21875 0 2.265625 -0.53125q0.390625 -0.203125 0.625 -0.203125q0.3125 0 0.53125 0.234375q0.234375 0.234375 0.234375 0.578125q0 0.3125 -0.25 0.53125q-0.375 0.375 -1.515625 0.6875q-1.125 0.3125 -1.890625 0.3125q-1.5 0 -2.25 -0.640625q-0.734375 -0.65625 -0.734375 -1.59375l0 -3.53125l-0.578125 0q-0.578125 0 -0.828125 -0.21875q-0.25 -0.21875 -0.25 -0.578125q0 -0.359375 0.25 -0.578125q0.25 -0.21875 0.828125 -0.21875l0.578125 0l0 -1.453125q0 -0.578125 0.21875 -0.8125q0.21875 -0.25 0.578125 -0.25q0.359375 0 0.578125 0.25q0.21875 0.234375 0.21875 0.8125l0 1.453125l2.96875 0q0.578125 0 0.8125 0.21875q0.25 0.21875 0.25 0.578125q0 0.359375 -0.25 0.578125q-0.234375 0.21875 -0.8125 0.21875l-2.96875 0zm10.0078125 2.546875l-1.109375 2.953125l-1.5 0l-1.34375 -5.5q-0.4375 -0.015625 -0.671875 -0.234375q-0.21875 -0.234375 -0.21875 -0.5625q0 -0.359375 0.25 -0.578125q0.25 -0.21875 0.828125 -0.21875l1.484375 0q0.578125 0 0.828125 0.21875q0.25 0.21875 0.25 0.578125q0 0.359375 -0.28125 0.609375q-0.21875 0.1875 -0.828125 0.1875l0.609375 2.546875l0.984375 -2.609375l1.421875 0l1.0 2.609375l0.625 -2.546875q-0.59375 0 -0.78125 -0.109375q-0.375 -0.25 -0.375 -0.6875q0 -0.359375 0.25 -0.578125q0.25 -0.21875 0.828125 -0.21875l1.5 0q0.578125 0 0.828125 0.21875q0.25 0.21875 0.25 0.578125q0 0.328125 -0.21875 0.546875q-0.21875 0.21875 -0.640625 0.25l-1.3125 5.5l-1.484375 0l-1.171875 -2.953125zm13.7578125 -0.46875q0 0.921875 -0.515625 1.796875q-0.515625 0.859375 -1.53125 1.375q-1.0 0.515625 -2.109375 0.515625q-1.09375 0 -2.09375 -0.5q-1.0 -0.515625 -1.53125 -1.375q-0.515625 -0.875 -0.515625 -1.828125q0 -0.953125 0.53125 -1.875q0.53125 -0.9375 1.53125 -1.46875q1.0 -0.53125 2.078125 -0.53125q1.09375 0 2.109375 0.546875q1.015625 0.546875 1.53125 1.46875q0.515625 0.90625 0.515625 1.875zm-1.609375 0.015625q0 -0.78125 -0.546875 -1.421875q-0.765625 -0.875 -2.0 -0.875q-1.078125 0 -1.8125 0.703125q-0.71875 0.6875 -0.71875 1.59375q0 0.75 0.734375 1.40625q0.734375 0.65625 1.796875 0.65625q1.078125 0 1.8125 -0.65625q0.734375 -0.65625 0.734375 -1.40625zm17.453125 -6.734375l0 8.53125l1.921875 0q0.578125 0 0.8125 0.234375q0.25 0.21875 0.25 0.578125q0 0.34375 -0.25 0.578125q-0.234375 0.21875 -0.8125 0.21875l-5.453125 0q-0.578125 0 -0.828125 -0.21875q-0.234375 -0.234375 -0.234375 -0.59375q0 -0.34375 0.234375 -0.5625q0.25 -0.234375 0.828125 -0.234375l1.921875 0l0 -6.921875l-1.28125 0q-0.578125 0 -0.828125 -0.21875q-0.25 -0.234375 -0.25 -0.59375q0 -0.34375 0.25 -0.5625q0.25 -0.234375 0.828125 -0.234375l2.890625 0zm9.3671875 0l0 1.703125l-1.90625 0l0 -1.703125l1.90625 0zm0.21875 3.046875l0 5.484375l1.921875 0q0.578125 0 0.828125 0.234375q0.25 0.21875 0.25 0.578125q0 0.34375 -0.25 0.578125q-0.25 0.21875 -0.828125 0.21875l-5.4375 0q-0.578125 0 -0.828125 -0.21875q-0.25 -0.234375 -0.25 -0.59375q0 -0.34375 0.25 -0.5625q0.25 -0.234375 0.828125 -0.234375l1.921875 0l0 -3.890625l-1.296875 0q-0.5625 0 -0.8125 -0.21875q-0.25 -0.21875 -0.25 -0.578125q0 -0.359375 0.234375 -0.578125q0.25 -0.21875 0.828125 -0.21875l2.890625 0zm7.1953125 0l0 0.53125q0.4375 -0.375 0.9531326 -0.5625q0.53125 -0.1875 1.15625 -0.1875q1.421875 0 2.25 0.890625q0.65625 0.703125 0.65625 1.84375l0 2.96875q0.5 0 0.734375 0.234375q0.25 0.21875 0.25 0.578125q0 0.34375 -0.25 0.578125q-0.234375 0.21875 -0.8125 0.21875l-1.453125 0q-0.578125 0 -0.828125 -0.21875q-0.234375 -0.234375 -0.234375 -0.59375q0 -0.34375 0.234375 -0.5625q0.25 -0.234375 0.75 -0.234375l0 -3.015625q0 -0.53125 -0.28125 -0.765625q-0.359375 -0.3125 -1.09375 -0.3125q-0.5625 0 -0.984375 0.21875q-0.40625 0.203125 -1.0468826 0.90625l0 2.96875q0.6093826 0 0.7968826 0.125q0.375 0.234375 0.375 0.6875q0 0.34375 -0.25 0.578125q-0.234375 0.21875 -0.8125076 0.21875l-1.828125 0q-0.578125 0 -0.828125 -0.21875q-0.234375 -0.234375 -0.234375 -0.59375q0 -0.4375 0.375 -0.671875q0.1875 -0.125 0.796875 -0.125l0 -3.890625q-0.5 0 -0.75 -0.21875q-0.234375 -0.234375 -0.234375 -0.578125q0 -0.359375 0.234375 -0.578125q0.25 -0.21875 0.828125 -0.21875l1.53125 0zm15.242195 4.359375l-6.578125 0q0.25 0.625 0.890625 1.015625q0.640625 0.375 1.71875 0.375q0.890625 0 2.375 -0.390625q0.609375 -0.15625 0.84375 -0.15625q0.3125 0 0.53125 0.234375q0.21875 0.21875 0.21875 0.5625q0 0.3125 -0.234375 0.53125q-0.3125 0.296875 -1.53125 0.5625q-1.203125 0.265625 -2.3125 0.265625q-1.921875 0 -3.078125 -1.09375q-1.15625 -1.09375 -1.15625 -2.671875q0 -1.6875 1.25 -2.75q1.25 -1.0625 2.875 -1.0625q0.96875 0 1.78125 0.34375q0.828125 0.34375 1.21875 0.75q0.5625 0.578125 0.9375 1.421875q0.25 0.59375 0.25 1.375l0 0.6875zm-1.78125 -1.609375q-0.359375 -0.6875 -0.953125 -1.015625q-0.59375 -0.34375 -1.421875 -0.34375q-0.8125 0 -1.40625 0.34375q-0.59375 0.328125 -0.96875 1.015625l4.75 0zm9.0859375 -0.875q-0.390625 -0.25 -0.828125 -0.359375q-0.421875 -0.125 -0.890625 -0.125q-0.921875 0 -1.46875 0.296875q-0.25 0.140625 -0.25 0.296875q0 0.171875 0.328125 0.34375q0.25 0.125 1.125 0.25q1.59375 0.21875 2.21875 0.4375q0.8125 0.28125 1.25 0.859375q0.453125 0.5625 0.453125 1.203125q0 0.859375 -0.75 1.4375q-1.09375 0.84375 -2.828125 0.84375q-0.6875 0 -1.28125 -0.125q-0.59375 -0.125 -1.078125 -0.359375q-0.125 0.09375 -0.265625 0.15625q-0.125 0.046875 -0.265625 0.046875q-0.375 0 -0.59375 -0.234375q-0.21875 -0.25 -0.21875 -0.828125l0 -0.546875q0 -0.578125 0.21875 -0.8125q0.21875 -0.25 0.578125 -0.25q0.296875 0 0.484375 0.15625q0.203125 0.15625 0.3125 0.546875q0.359375 0.3125 0.875 0.484375q0.515625 0.15625 1.1875 0.15625q1.109375 0 1.71875 -0.34375q0.28125 -0.171875 0.28125 -0.359375q0 -0.3125 -0.40625 -0.515625q-0.421875 -0.203125 -1.71875 -0.34375q-1.921875 -0.203125 -2.578125 -0.78125q-0.640625 -0.578125 -0.640625 -1.40625q0 -0.859375 0.71875 -1.4375q0.984375 -0.78125 2.578125 -0.78125q0.5625 0 1.0625 0.109375q0.515625 0.109375 0.984375 0.328125q0.15625 -0.109375 0.28125 -0.15625q0.125 -0.0625 0.234375 -0.0625q0.328125 0 0.546875 0.25q0.21875 0.234375 0.21875 0.8125l0 0.390625q0 0.53125 -0.125 0.71875q-0.25 0.359375 -0.671875 0.359375q-0.296875 0 -0.515625 -0.171875q-0.21875 -0.1875 -0.28125 -0.484375zm9.1015625 4.40625q0 0.453125 -0.328125 0.765625q-0.3125 0.3125 -0.875 0.3125q-0.5625 0 -0.890625 -0.3125q-0.3125 -0.3125 -0.3125 -0.765625q0 -0.453125 0.3125 -0.75q0.328125 -0.3125 0.890625 -0.3125q0.5625 0 0.875 0.3125q0.328125 0.296875 0.328125 0.75z" fill-rule="nonzero"/><path fill="#010000" fill-opacity="0.0" d="m162.66911 73.81764l19.203125 0l0 18.125l-19.203125 0l0 -18.125z" fill-rule="nonzero"/><path fill="#cc7832" d="m165.63786 76.544205l5.140625 11.015625q0.046875 0.09375 0.140625 0.40625q0.046875 0.171875 0.046875 0.265625q0 0.28125 -0.234375 0.484375q-0.21875 0.21875 -0.546875 0.21875q-0.296875 0 -0.484375 -0.140625q-0.171875 -0.140625 -0.375 -0.546875l-5.125 -11.03125q-0.203125 -0.40625 -0.203125 -0.609375q0 -0.296875 0.234375 -0.53125q0.25 -0.234375 0.5625 -0.234375q0.296875 0 0.46875 0.140625q0.1875 0.140625 0.375 0.5625zm9.8203125 3.5l0 0.53125q0.4375 -0.375 0.953125 -0.5625q0.53125 -0.1875 1.15625 -0.1875q1.421875 0 2.25 0.890625q0.65625 0.703125 0.65625 1.84375l0 2.96875q0.5 0 0.734375 0.234375q0.25 0.21875 0.25 0.578125q0 0.34375 -0.25 0.578125q-0.234375 0.21875 -0.8125 0.21875l-1.453125 0q-0.578125 0 -0.828125 -0.21875q-0.234375 -0.234375 -0.234375 -0.59375q0 -0.34375 0.234375 -0.5625q0.25 -0.234375 0.75 -0.234375l0 -3.015625q0 -0.53125 -0.28125 -0.765625q-0.359375 -0.3125 -1.09375 -0.3125q-0.5625 0 -0.984375 0.21875q-0.40625 0.203125 -1.046875 0.90625l0 2.96875q0.609375 0 0.796875 0.125q0.375 0.234375 0.375 0.6875q0 0.34375 -0.25 0.578125q-0.234375 0.21875 -0.8125 0.21875l-1.828125 0q-0.578125 0 -0.828125 -0.21875q-0.234375 -0.234375 -0.234375 -0.59375q0 -0.4375 0.375 -0.671875q0.1875 -0.125 0.796875 -0.125l0 -3.890625q-0.5 0 -0.75 -0.21875q-0.234375 -0.234375 -0.234375 -0.578125q0 -0.359375 0.234375 -0.578125q0.25 -0.21875 0.828125 -0.21875l1.53125 0z" fill-rule="nonzero"/><path fill="#000000" fill-opacity="0.0" d="m181.87224 73.81764l0 0l0 18.125l0 0l0 -18.125z" fill-rule="nonzero"/><path fill="#2b2b2b" d="m9.645669 150.74803l225.6063 0l0 36.850388l-225.6063 0z" fill-rule="evenodd"/><path fill="#2b2b2b" d="m18.64567 159.57323l163.22656 0l0 19.199997l-163.22656 0l0 -19.199997z" fill-rule="nonzero"/><path fill="#000000" fill-opacity="0.0" d="m18.64567 161.61292l144.02344 0l0 18.125l-144.02344 0l0 -18.125z" fill-rule="nonzero"/><path fill="#6a8759" d="m43.223793 164.7926l0 1.703125l-1.90625 0l0 -1.703125l1.90625 0zm0.21875 3.046875l0 5.484375l1.921875 0q0.578125 0 0.828125 0.234375q0.25 0.21875 0.25 0.578125q0 0.34375 -0.25 0.578125q-0.25 0.21875 -0.828125 0.21875l-5.4375 0q-0.578125 0 -0.828125 -0.21875q-0.25 -0.234375 -0.25 -0.59375q0 -0.34375 0.25 -0.5625q0.25 -0.234375 0.828125 -0.234375l1.921875 0l0 -3.890625l-1.296875 0q-0.5625 0 -0.8125 -0.21875q-0.25 -0.21875 -0.25 -0.578125q0 -0.359375 0.234375 -0.578125q0.25 -0.21875 0.828125 -0.21875l2.890625 0zm7.1953125 0l0 0.53125q0.4375 -0.375 0.953125 -0.5625q0.53125 -0.1875 1.15625 -0.1875q1.421875 0 2.25 0.890625q0.65625 0.703125 0.65625 1.84375l0 2.96875q0.5 0 0.734375 0.234375q0.25 0.21875 0.25 0.578125q0 0.34375 -0.25 0.578125q-0.234375 0.21875 -0.8125 0.21875l-1.453125 0q-0.578125 0 -0.828125 -0.21875q-0.234375 -0.234375 -0.234375 -0.59375q0 -0.34375 0.234375 -0.5625q0.25 -0.234375 0.75 -0.234375l0 -3.015625q0 -0.53125 -0.28125 -0.765625q-0.359375 -0.3125 -1.09375 -0.3125q-0.5625 0 -0.984375 0.21875q-0.40625 0.203125 -1.046875 0.90625l0 2.96875q0.609375 0 0.796875 0.125q0.375 0.234375 0.375 0.6875q0 0.34375 -0.25 0.578125q-0.234375 0.21875 -0.8125 0.21875l-1.828125 0q-0.578125 0 -0.828125 -0.21875q-0.234375 -0.234375 -0.234375 -0.59375q0 -0.4375 0.375 -0.671875q0.1875 -0.125 0.796875 -0.125l0 -3.890625q-0.5 0 -0.75 -0.21875q-0.234375 -0.234375 -0.234375 -0.578125q0 -0.359375 0.234375 -0.578125q0.25 -0.21875 0.828125 -0.21875l1.53125 0zm14.8984375 -3.046875l0 8.53125l0.265625 0q0.578125 0 0.828125 0.234375q0.25 0.21875 0.25 0.578125q0 0.34375 -0.25 0.578125q-0.25 0.21875 -0.828125 0.21875l-1.875 0l0 -0.390625q-0.546875 0.3125 -1.140625 0.484375q-0.59375 0.171875 -1.234375 0.171875q-1.8125 0 -2.921875 -1.046875q-1.09375 -1.046875 -1.09375 -2.609375q0 -1.625 1.15625 -2.765625q1.15625 -1.15625 2.828125 -1.15625q0.625 0 1.21875 0.203125q0.609375 0.1875 1.1875 0.5625l0 -1.984375l-0.265625 0q-0.578125 0 -0.828125 -0.21875q-0.25 -0.234375 -0.25 -0.578125q0 -0.359375 0.25 -0.578125q0.25 -0.234375 0.828125 -0.234375l1.875 0zm-1.609375 6.796875q0 -0.984375 -0.703125 -1.671875q-0.6875 -0.6875 -1.6875 -0.6875q-1.0 0 -1.703125 0.6875q-0.6875 0.6875 -0.6875 1.65625q0 0.875 0.625 1.453125q0.625 0.5625 1.765625 0.5625q1.125 0 1.75 -0.5625q0.640625 -0.578125 0.640625 -1.4375zm11.5546875 0.609375l-6.578125 0q0.25 0.625 0.890625 1.015625q0.640625 0.375 1.71875 0.375q0.890625 0 2.375 -0.390625q0.609375 -0.15625 0.84375 -0.15625q0.3125 0 0.53125 0.234375q0.21875 0.21875 0.21875 0.5625q0 0.3125 -0.234375 0.53125q-0.3125 0.296875 -1.53125 0.5625q-1.203125 0.265625 -2.3125 0.265625q-1.921875 0 -3.078125 -1.09375q-1.15625 -1.09375 -1.15625 -2.671875q0 -1.6875 1.25 -2.75q1.25 -1.0625 2.875 -1.0625q0.96875 0 1.78125 0.34375q0.828125 0.34375 1.21875 0.75q0.5625 0.578125 0.9375 1.421875q0.25 0.59375 0.25 1.375l0 0.6875zm-1.78125 -1.609375q-0.359375 -0.6875 -0.953125 -1.015625q-0.59375 -0.34375 -1.421875 -0.34375q-0.8125 0 -1.40625 0.34375q-0.59375 0.328125 -0.96875 1.015625l4.75 0zm5.7421875 -2.75l0 0.53125q0.4375 -0.375 0.953125 -0.5625q0.53125 -0.1875 1.15625 -0.1875q1.421875 0 2.25 0.890625q0.65625 0.703125 0.65625 1.84375l0 2.96875q0.5 0 0.734375 0.234375q0.25 0.21875 0.25 0.578125q0 0.34375 -0.25 0.578125q-0.234375 0.21875 -0.8125 0.21875l-1.453125 0q-0.578125 0 -0.828125 -0.21875q-0.234375 -0.234375 -0.234375 -0.59375q0 -0.34375 0.234375 -0.5625q0.25 -0.234375 0.75 -0.234375l0 -3.015625q0 -0.53125 -0.28125 -0.765625q-0.359375 -0.3125 -1.09375 -0.3125q-0.5625 0 -0.984375 0.21875q-0.40625 0.203125 -1.046875 0.90625l0 2.96875q0.609375 0 0.796875 0.125q0.375 0.234375 0.375 0.6875q0 0.34375 -0.25 0.578125q-0.234375 0.21875 -0.8125 0.21875l-1.828125 0q-0.578125 0 -0.828125 -0.21875q-0.234375 -0.234375 -0.234375 -0.59375q0 -0.4375 0.375 -0.671875q0.1875 -0.125 0.796875 -0.125l0 -3.890625q-0.5 0 -0.75 -0.21875q-0.234375 -0.234375 -0.234375 -0.578125q0 -0.359375 0.234375 -0.578125q0.25 -0.21875 0.828125 -0.21875l1.53125 0zm10.8203125 1.59375l0 3.21875q0 0.515625 0.21875 0.671875q0.328125 0.265625 1.171875 0.265625q1.21875 0 2.265625 -0.53125q0.390625 -0.203125 0.625 -0.203125q0.3125 0 0.53125 0.234375q0.234375 0.234375 0.234375 0.578125q0 0.3125 -0.25 0.53125q-0.375 0.375 -1.515625 0.6875q-1.125 0.3125 -1.890625 0.3125q-1.5 0 -2.25 -0.640625q-0.734375 -0.65625 -0.734375 -1.59375l0 -3.53125l-0.578125 0q-0.578125 0 -0.828125 -0.21875q-0.25 -0.21875 -0.25 -0.578125q0 -0.359375 0.25 -0.578125q0.25 -0.21875 0.828125 -0.21875l0.578125 0l0 -1.453125q0 -0.578125 0.21875 -0.8125q0.21875 -0.25 0.578125 -0.25q0.359375 0 0.578125 0.25q0.21875 0.234375 0.21875 0.8125l0 1.453125l2.96875 0q0.578125 0 0.8125 0.21875q0.25 0.21875 0.25 0.578125q0 0.359375 -0.25 0.578125q-0.234375 0.21875 -0.8125 0.21875l-2.96875 0zm14.0234375 2.765625l-6.578125 0q0.25 0.625 0.890625 1.015625q0.640625 0.375 1.71875 0.375q0.890625 0 2.375 -0.390625q0.609375 -0.15625 0.84375 -0.15625q0.3125 0 0.53125 0.234375q0.21875 0.21875 0.21875 0.5625q0 0.3125 -0.234375 0.53125q-0.3125 0.296875 -1.53125 0.5625q-1.203125 0.265625 -2.3125 0.265625q-1.921875 0 -3.078125 -1.09375q-1.15625 -1.09375 -1.15625 -2.671875q0 -1.6875 1.25 -2.75q1.25 -1.0625 2.875 -1.0625q0.96875 0 1.78125 0.34375q0.828125 0.34375 1.21875 0.75q0.5625 0.578125 0.9375 1.421875q0.25 0.59375 0.25 1.375l0 0.6875zm-1.78125 -1.609375q-0.359375 -0.6875 -0.953125 -1.015625q-0.59375 -0.34375 -1.421875 -0.34375q-0.8125 0 -1.40625 0.34375q-0.59375 0.328125 -0.96875 1.015625l4.75 0zm11.0390625 -5.796875l0 8.53125l0.265625 0q0.578125 0 0.828125 0.234375q0.25 0.21875 0.25 0.578125q0 0.34375 -0.25 0.578125q-0.25 0.21875 -0.828125 0.21875l-1.875 0l0 -0.390625q-0.546875 0.3125 -1.140625 0.484375q-0.59375 0.171875 -1.234375 0.171875q-1.8125 0 -2.921875 -1.046875q-1.09375 -1.046875 -1.09375 -2.609375q0 -1.625 1.15625 -2.765625q1.15625 -1.15625 2.828125 -1.15625q0.625 0 1.21875 0.203125q0.609375 0.1875 1.1875 0.5625l0 -1.984375l-0.265625 0q-0.578125 0 -0.828125 -0.21875q-0.25 -0.234375 -0.25 -0.578125q0 -0.359375 0.25 -0.578125q0.25 -0.234375 0.828125 -0.234375l1.875 0zm-1.609375 6.796875q0 -0.984375 -0.703125 -1.671875q-0.6875 -0.6875 -1.6875 -0.6875q-1.0 0 -1.703125 0.6875q-0.6875 0.6875 -0.6875 1.65625q0 0.875 0.625 1.453125q0.625 0.5625 1.765625 0.5625q1.125 0 1.75 -0.5625q0.640625 -0.578125 0.640625 -1.4375zm19.625008 -3.46875q0.296875 -0.265625 0.59375 -0.265625q0.34375 0 0.5625 0.25q0.234375 0.234375 0.234375 0.8125l0 1.03125q0 0.578125 -0.234375 0.828125q-0.21875 0.234375 -0.578125 0.234375q-0.328125 0 -0.546875 -0.1875q-0.171875 -0.140625 -0.265625 -0.578125q-0.09375 -0.4375 -0.453125 -0.640625q-0.625 -0.375 -1.609375 -0.375q-1.140625 0 -1.8281326 0.671875q-0.671875 0.65625 -0.671875 1.671875q0 0.9375 0.65625 1.484375q0.6562576 0.53125 2.1718826 0.53125q1.0 0 1.640625 -0.203125q0.375 -0.125 0.703125 -0.421875q0.34375 -0.296875 0.609375 -0.296875q0.328125 0 0.5625 0.25q0.25 0.234375 0.25 0.5625q0 0.53125 -0.734375 1.0q-1.078125 0.71875 -3.15625 0.71875q-1.8593826 0 -2.9062576 -0.78125q-1.40625 -1.03125 -1.40625 -2.84375q0 -1.703125 1.140625 -2.828125q1.140625 -1.125 2.9843826 -1.125q0.65625 0 1.21875 0.125q0.578125 0.125 1.0625 0.375zm11.2734375 3.390625q0 0.921875 -0.515625 1.796875q-0.515625 0.859375 -1.53125 1.375q-1.0 0.515625 -2.109375 0.515625q-1.09375 0 -2.09375 -0.5q-1.0 -0.515625 -1.53125 -1.375q-0.515625 -0.875 -0.515625 -1.828125q0 -0.953125 0.53125 -1.875q0.53125 -0.9375 1.53125 -1.46875q1.0 -0.53125 2.078125 -0.53125q1.09375 0 2.109375 0.546875q1.015625 0.546875 1.53125 1.46875q0.515625 0.90625 0.515625 1.875zm-1.609375 0.015625q0 -0.78125 -0.546875 -1.421875q-0.765625 -0.875 -2.0 -0.875q-1.078125 0 -1.8125 0.703125q-0.71875 0.6875 -0.71875 1.59375q0 0.75 0.734375 1.40625q0.734375 0.65625 1.796875 0.65625q1.078125 0 1.8125 -0.65625q0.734375 -0.65625 0.734375 -1.40625zm10.7265625 -6.734375l0 8.53125l0.265625 0q0.578125 0 0.828125 0.234375q0.25 0.21875 0.25 0.578125q0 0.34375 -0.25 0.578125q-0.25 0.21875 -0.828125 0.21875l-1.875 0l0 -0.390625q-0.546875 0.3125 -1.140625 0.484375q-0.59375 0.171875 -1.234375 0.171875q-1.8125 0 -2.921875 -1.046875q-1.09375 -1.046875 -1.09375 -2.609375q0 -1.625 1.15625 -2.765625q1.15625 -1.15625 2.828125 -1.15625q0.625 0 1.21875 0.203125q0.609375 0.1875 1.1875 0.5625l0 -1.984375l-0.265625 0q-0.578125 0 -0.828125 -0.21875q-0.25 -0.234375 -0.25 -0.578125q0 -0.359375 0.25 -0.578125q0.25 -0.234375 0.828125 -0.234375l1.875 0zm-1.609375 6.796875q0 -0.984375 -0.703125 -1.671875q-0.6875 -0.6875 -1.6875 -0.6875q-1.0 0 -1.703125 0.6875q-0.6875 0.6875 -0.6875 1.65625q0 0.875 0.625 1.453125q0.625 0.5625 1.765625 0.5625q1.125 0 1.75 -0.5625q0.640625 -0.578125 0.640625 -1.4375zm11.5546875 0.609375l-6.578125 0q0.25 0.625 0.890625 1.015625q0.640625 0.375 1.71875 0.375q0.890625 0 2.375 -0.390625q0.609375 -0.15625 0.84375 -0.15625q0.3125 0 0.53125 0.234375q0.21875 0.21875 0.21875 0.5625q0 0.3125 -0.234375 0.53125q-0.3125 0.296875 -1.53125 0.5625q-1.203125 0.265625 -2.3125 0.265625q-1.921875 0 -3.078125 -1.09375q-1.15625 -1.09375 -1.15625 -2.671875q0 -1.6875 1.25 -2.75q1.25 -1.0625 2.875 -1.0625q0.96875 0 1.78125 0.34375q0.828125 0.34375 1.21875 0.75q0.5625 0.578125 0.9375 1.421875q0.25 0.59375 0.25 1.375l0 0.6875zm-1.78125 -1.609375q-0.359375 -0.6875 -0.953125 -1.015625q-0.59375 -0.34375 -1.421875 -0.34375q-0.8125 0 -1.40625 0.34375q-0.59375 0.328125 -0.96875 1.015625l4.75 0z" fill-rule="nonzero"/><path fill="#010000" fill-opacity="0.0" d="m162.66911 161.61292l19.203125 0l0 18.125l-19.203125 0l0 -18.125z" fill-rule="nonzero"/><path fill="#cc7832" d="m165.63786 164.33948l5.140625 11.015625q0.046875 0.09375 0.140625 0.40625q0.046875 0.171875 0.046875 0.265625q0 0.28125 -0.234375 0.484375q-0.21875 0.21875 -0.546875 0.21875q-0.296875 0 -0.484375 -0.140625q-0.171875 -0.140625 -0.375 -0.546875l-5.125 -11.03125q-0.203125 -0.40625 -0.203125 -0.609375q0 -0.296875 0.234375 -0.53125q0.25 -0.234375 0.5625 -0.234375q0.296875 0 0.46875 0.140625q0.1875 0.140625 0.375 0.5625zm9.8203125 3.5l0 0.53125q0.4375 -0.375 0.953125 -0.5625q0.53125 -0.1875 1.15625 -0.1875q1.421875 0 2.25 0.890625q0.65625 0.703125 0.65625 1.84375l0 2.96875q0.5 0 0.734375 0.234375q0.25 0.21875 0.25 0.578125q0 0.34375 -0.25 0.578125q-0.234375 0.21875 -0.8125 0.21875l-1.453125 0q-0.578125 0 -0.828125 -0.21875q-0.234375 -0.234375 -0.234375 -0.59375q0 -0.34375 0.234375 -0.5625q0.25 -0.234375 0.75 -0.234375l0 -3.015625q0 -0.53125 -0.28125 -0.765625q-0.359375 -0.3125 -1.09375 -0.3125q-0.5625 0 -0.984375 0.21875q-0.40625 0.203125 -1.046875 0.90625l0 2.96875q0.609375 0 0.796875 0.125q0.375 0.234375 0.375 0.6875q0 0.34375 -0.25 0.578125q-0.234375 0.21875 -0.8125 0.21875l-1.828125 0q-0.578125 0 -0.828125 -0.21875q-0.234375 -0.234375 -0.234375 -0.59375q0 -0.4375 0.375 -0.671875q0.1875 -0.125 0.796875 -0.125l0 -3.890625q-0.5 0 -0.75 -0.21875q-0.234375 -0.234375 -0.234375 -0.578125q0 -0.359375 0.234375 -0.578125q0.25 -0.21875 0.828125 -0.21875l1.53125 0z" fill-rule="nonzero"/><path fill="#000000" fill-opacity="0.0" d="m181.87224 161.61292l0 0l0 18.125l0 0l0 -18.125z" fill-rule="nonzero"/><path fill="#2b2b2b" d="m9.645669 238.54248l225.6063 0l0 36.850403l-225.6063 0z" fill-rule="evenodd"/><path fill="#2b2b2b" d="m18.64567 247.36768l172.82812 0l0 19.200012l-172.82812 0l0 -19.200012z" fill-rule="nonzero"/><path fill="#000000" fill-opacity="0.0" d="m18.64567 249.40736l153.625 0l0 18.125015l-153.625 0l0 -18.125015z" fill-rule="nonzero"/><path fill="#6a8759" d="m25.14567 258.1652l-5.1875 -2.8750153q-0.390625 -0.21875 -0.53125 -0.390625q-0.125 -0.171875 -0.125 -0.4375q0 -0.34375 0.234375 -0.578125q0.25 -0.25 0.578125 -0.25q0.203125 0 0.625 0.234375l7.734375 4.2968903l-7.734375 4.296875q-0.421875 0.234375 -0.625 0.234375q-0.328125 0 -0.578125 -0.234375q-0.234375 -0.25 -0.234375 -0.59375q0 -0.265625 0.125 -0.4375q0.140625 -0.171875 0.53125 -0.390625l5.1875 -2.875zm19.468748 1.984375l-3.890625 0l-0.390625 0.96875l0.390625 0q0.578125 0 0.8125 0.234375q0.25 0.21875 0.25 0.578125q0 0.34375 -0.25 0.578125q-0.234375 0.21875 -0.8125 0.21875l-2.15625 0q-0.578125 0 -0.828125 -0.21875q-0.25 -0.234375 -0.25 -0.59375q0 -0.359375 0.265625 -0.578125q0.25 -0.234375 0.84375 -0.21875l2.515625 -6.2656403l-1.046875 0q-0.578125 0 -0.828125 -0.21875q-0.234375 -0.21875 -0.234375 -0.578125q0 -0.359375 0.234375 -0.578125q0.25 -0.234375 0.828125 -0.234375l3.46875 0.015625l3.1875 7.8593903q0.5625 0 0.734375 0.125q0.359375 0.265625 0.359375 0.6875q0 0.34375 -0.25 0.578125q-0.234375 0.21875 -0.8125 0.21875l-2.15625 0q-0.578125 0 -0.828125 -0.21875q-0.234375 -0.234375 -0.234375 -0.59375q0 -0.34375 0.234375 -0.5625q0.25 -0.234375 0.828125 -0.234375l0.390625 0l-0.375 -0.96875zm-0.671875 -1.609375l-1.28125 -3.1718903l-1.296875 3.1718903l2.578125 0zm15.890625 -5.9531403l0 3.5937653q0.59375 -0.37501526 1.1875 -0.56251526q0.609375 -0.203125 1.234375 -0.203125q1.65625 0 2.8125 1.1562653q1.15625 1.140625 1.15625 2.765625q0 1.5625 -1.109375 2.609375q-1.09375 1.046875 -2.890625 1.046875q-0.640625 0 -1.234375 -0.171875q-0.59375 -0.171875 -1.15625 -0.484375l0 0.390625l-1.875 0q-0.578125 0 -0.828125 -0.21875q-0.25 -0.234375 -0.25 -0.59375q0 -0.34375 0.25 -0.5625q0.265625 -0.234375 0.828125 -0.234375l0.28125 0l0 -6.9218903l-0.28125 0q-0.578125 0 -0.828125 -0.21875q-0.25 -0.234375 -0.25 -0.59375q0 -0.34375 0.25 -0.5625q0.25 -0.234375 0.828125 -0.234375l1.875 0zm4.796875 6.7968903q0 -0.984375 -0.703125 -1.671875q-0.6875 -0.6875 -1.703125 -0.6875q-1.0 0 -1.703125 0.6875q-0.6875 0.6875 -0.6875 1.65625q0 0.875 0.625 1.453125q0.625 0.5625 1.765625 0.5625q1.140625 0 1.765625 -0.5625q0.640625 -0.578125 0.640625 -1.4375zm7.6328125 -6.7968903l0 8.531265l1.921875 0q0.578125 0 0.8125 0.234375q0.25 0.21875 0.25 0.578125q0 0.34375 -0.25 0.578125q-0.234375 0.21875 -0.8125 0.21875l-5.453125 0q-0.578125 0 -0.828125 -0.21875q-0.234375 -0.234375 -0.234375 -0.59375q0 -0.34375 0.234375 -0.5625q0.25 -0.234375 0.828125 -0.234375l1.921875 0l0 -6.9218903l-1.28125 0q-0.578125 0 -0.828125 -0.21875q-0.25 -0.234375 -0.25 -0.59375q0 -0.34375 0.25 -0.5625q0.25 -0.234375 0.828125 -0.234375l2.890625 0zm12.9609375 6.7187653q0 0.921875 -0.515625 1.796875q-0.515625 0.859375 -1.53125 1.375q-1.0 0.515625 -2.109375 0.515625q-1.09375 0 -2.09375 -0.5q-1.0 -0.515625 -1.53125 -1.375q-0.515625 -0.875 -0.515625 -1.828125q0 -0.953125 0.53125 -1.875q0.53125 -0.9375 1.53125 -1.4687653q1.0 -0.53125 2.078125 -0.53125q1.09375 0 2.109375 0.546875q1.015625 0.54689026 1.53125 1.4687653q0.515625 0.90625 0.515625 1.875zm-1.609375 0.015625q0 -0.78125 -0.546875 -1.421875q-0.765625 -0.875 -2.0 -0.875q-1.078125 0 -1.8125 0.703125q-0.71875 0.6875 -0.71875 1.59375q0 0.75 0.734375 1.40625q0.734375 0.65625 1.796875 0.65625q1.078125 0 1.8125 -0.65625q0.734375 -0.65625 0.734375 -1.40625zm9.5390625 -3.4062653q0.296875 -0.265625 0.59375 -0.265625q0.34375 0 0.5625 0.25q0.234375 0.23439026 0.234375 0.81251526l0 1.03125q0 0.578125 -0.234375 0.828125q-0.21875 0.234375 -0.578125 0.234375q-0.328125 0 -0.546875 -0.1875q-0.171875 -0.140625 -0.265625 -0.578125q-0.09375 -0.4375 -0.453125 -0.640625q-0.625 -0.375 -1.609375 -0.375q-1.140625 0 -1.828125 0.671875q-0.671875 0.65625 -0.671875 1.671875q0 0.9375 0.65625 1.484375q0.65625 0.53125 2.171875 0.53125q1.0 0 1.640625 -0.203125q0.375 -0.125 0.703125 -0.421875q0.34375 -0.296875 0.609375 -0.296875q0.328125 0 0.5625 0.25q0.25 0.234375 0.25 0.5625q0 0.53125 -0.734375 1.0q-1.078125 0.71875 -3.15625 0.71875q-1.859375 0 -2.90625 -0.78125q-1.40625 -1.03125 -1.40625 -2.84375q0 -1.703125 1.140625 -2.828125q1.140625 -1.1250153 2.984375 -1.1250153q0.65625 0 1.21875 0.125q0.578125 0.125 1.0625 0.375zm5.7890625 4.1406403l0 2.671875l-1.875 0q-0.578125 0 -0.828125 -0.21875q-0.234375 -0.234375 -0.234375 -0.59375q0 -0.34375 0.25 -0.5625q0.25 -0.234375 0.8125 -0.234375l0.28125 0l0 -6.9218903l-0.28125 0q-0.578125 0 -0.828125 -0.21875q-0.234375 -0.234375 -0.234375 -0.59375q0 -0.34375 0.234375 -0.5625q0.25 -0.234375 0.828125 -0.234375l1.875 0l0 5.4062653l1.25 -1.015625q-0.1875 -0.328125 -0.1875 -0.546875q0 -0.359375 0.234375 -0.57814026q0.25 -0.21875 0.828125 -0.21875l1.828125 0q0.578125 0 0.8125 0.21875q0.25 0.21876526 0.25 0.57814026q0 0.359375 -0.25 0.578125q-0.234375 0.21875 -0.8125 0.21875l-0.453125 0l-1.9375 1.578125l2.609375 2.3125l0.46875 0q0.578125 0 0.828125 0.234375q0.25 0.21875 0.25 0.578125q0 0.34375 -0.25 0.578125q-0.25 0.21875 -0.828125 0.21875l-1.84375 0q-0.578125 0 -0.828125 -0.21875q-0.234375 -0.234375 -0.234375 -0.59375q0 -0.296875 0.265625 -0.59375l-1.703125 -1.5l-0.296875 0.234375zm24.234375 -2.828125l0 7.25l0.28125 0q0.578125 0 0.8125 0.21875q0.25 0.21875 0.25 0.578125q0 0.359375 -0.25 0.578125q-0.234375 0.21875 -0.8125 0.21875l-2.828125 0q-0.578125 0 -0.828125 -0.21875q-0.25 -0.21875 -0.25 -0.578125q0 -0.359375 0.25 -0.578125q0.25 -0.21875 0.828125 -0.21875l0.953125 0l0 -2.640625q-0.59375 0.359375 -1.203125 0.546875q-0.59375 0.171875 -1.21875 0.171875q-1.421875 0 -2.5625 -0.859375q-1.375 -1.03125 -1.375 -2.609375q0 -1.4375 1.15625 -2.546875q1.15625 -1.1250153 2.8125 -1.1250153q0.625 0 1.21875 0.1875q0.609375 0.1875 1.171875 0.57814026l0 -0.54689026l1.875 0q0.578125 0 0.8125 0.21875q0.25 0.21876526 0.25 0.57814026q0 0.359375 -0.25 0.578125q-0.234375 0.21875 -0.8125 0.21875l-0.28125 0zm-1.59375 1.859375q0 -0.328125 -0.265625 -0.84375q-0.265625 -0.53125 -0.828125 -0.875q-0.546875 -0.34375 -1.28125 -0.34375q-1.203125 0 -1.90625 0.890625q-0.46875 0.625 -0.46875 1.1875q0 0.65625 0.671875 1.265625q0.6875 0.59375 1.703125 0.59375q1.015625 0 1.6875 -0.59375q0.6875 -0.609375 0.6875 -1.28125zm10.88282 -3.4531403l0 5.4843903q0.515625 0 0.75 0.234375q0.25 0.21875 0.25 0.578125q0 0.34375 -0.25 0.578125q-0.25 0.21875 -0.828125 0.21875l-1.515625 0l0 -0.375q-0.6875 0.3125 -1.3125 0.46875q-0.625 0.171875 -1.1875 0.171875q-0.7968826 0 -1.3750076 -0.328125q-0.578125 -0.34375 -0.90625 -0.9375q-0.25 -0.421875 -0.25 -1.046875l0 -3.453125l-0.265625 0q-0.578125 0 -0.828125 -0.21875q-0.25 -0.21875 -0.25 -0.578125q0 -0.359375 0.25 -0.57814026q0.25 -0.21875 0.828125 -0.21875l1.875 0l0 4.7656403q0 0.5 0.234375 0.75q0.25 0.234375 0.7656326 0.234375q0.484375 0 1.03125 -0.1875q0.5625 -0.203125 1.390625 -0.703125l0 -3.265625l-0.578125 0q-0.578125 0 -0.828125 -0.21875q-0.25 -0.21875 -0.25 -0.578125q0 -0.359375 0.25 -0.57814026q0.25 -0.21875 0.828125 -0.21875l2.171875 0zm10.3671875 3.6718903q0 0.921875 -0.515625 1.796875q-0.515625 0.859375 -1.53125 1.375q-1.0 0.515625 -2.109375 0.515625q-1.09375 0 -2.09375 -0.5q-1.0 -0.515625 -1.53125 -1.375q-0.515625 -0.875 -0.515625 -1.828125q0 -0.953125 0.53125 -1.875q0.53125 -0.9375 1.53125 -1.4687653q1.0 -0.53125 2.078125 -0.53125q1.09375 0 2.109375 0.546875q1.015625 0.54689026 1.53125 1.4687653q0.515625 0.90625 0.515625 1.875zm-1.609375 0.015625q0 -0.78125 -0.546875 -1.421875q-0.765625 -0.875 -2.0 -0.875q-1.078125 0 -1.8125 0.703125q-0.71875 0.6875 -0.71875 1.59375q0 0.75 0.734375 1.40625q0.734375 0.65625 1.796875 0.65625q1.078125 0 1.8125 -0.65625q0.734375 -0.65625 0.734375 -1.40625zm6.6484375 -2.09375l0 3.21875q0 0.515625 0.21875 0.671875q0.328125 0.265625 1.171875 0.265625q1.21875 0 2.265625 -0.53125q0.390625 -0.203125 0.625 -0.203125q0.3125 0 0.53125 0.234375q0.234375 0.234375 0.234375 0.578125q0 0.3125 -0.25 0.53125q-0.375 0.375 -1.515625 0.6875q-1.125 0.3125 -1.890625 0.3125q-1.5 0 -2.25 -0.640625q-0.734375 -0.65625 -0.734375 -1.59375l0 -3.53125l-0.578125 0q-0.578125 0 -0.828125 -0.21875q-0.25 -0.21875 -0.25 -0.578125q0 -0.359375 0.25 -0.57814026q0.25 -0.21875 0.828125 -0.21875l0.578125 0l0 -1.453125q0 -0.578125 0.21875 -0.8125q0.21875 -0.25 0.578125 -0.25q0.359375 0 0.578125 0.25q0.21875 0.234375 0.21875 0.8125l0 1.453125l2.96875 0q0.578125 0 0.8125 0.21875q0.25 0.21876526 0.25 0.57814026q0 0.359375 -0.25 0.578125q-0.234375 0.21875 -0.8125 0.21875l-2.96875 0zm14.0234375 2.765625l-6.578125 0q0.25 0.625 0.890625 1.015625q0.640625 0.375 1.71875 0.375q0.890625 0 2.375 -0.390625q0.609375 -0.15625 0.84375 -0.15625q0.3125 0 0.53125 0.234375q0.21875 0.21875 0.21875 0.5625q0 0.3125 -0.234375 0.53125q-0.3125 0.296875 -1.53125 0.5625q-1.203125 0.265625 -2.3125 0.265625q-1.921875 0 -3.078125 -1.09375q-1.15625 -1.09375 -1.15625 -2.671875q0 -1.6875 1.25 -2.75q1.25 -1.0625153 2.875 -1.0625153q0.96875 0 1.78125 0.34375q0.828125 0.34376526 1.21875 0.75001526q0.5625 0.578125 0.9375 1.421875q0.25 0.59375 0.25 1.375l0 0.6875zm-1.78125 -1.609375q-0.359375 -0.6875 -0.953125 -1.015625q-0.59375 -0.34375 -1.421875 -0.34375q-0.8125 0 -1.40625 0.34375q-0.59375 0.328125 -0.96875 1.015625l4.75 0zm8.5859375 3.53125q0 0.453125 -0.328125 0.765625q-0.3125 0.3125 -0.875 0.3125q-0.5625 0 -0.890625 -0.3125q-0.3125 -0.3125 -0.3125 -0.765625q0 -0.453125 0.3125 -0.75q0.328125 -0.3125 0.890625 -0.3125q0.5625 0 0.875 0.3125q0.328125 0.296875 0.328125 0.75z" fill-rule="nonzero"/><path fill="#010000" fill-opacity="0.0" d="m172.27068 249.40736l19.203125 0l0 18.125015l-19.203125 0l0 -18.125015z" fill-rule="nonzero"/><path fill="#cc7832" d="m175.23943 252.13393l5.140625 11.01564q0.046875 0.09375 0.140625 0.40625q0.046875 0.171875 0.046875 0.265625q0 0.28125 -0.234375 0.484375q-0.21875 0.21875 -0.546875 0.21875q-0.296875 0 -0.484375 -0.140625q-0.171875 -0.140625 -0.375 -0.546875l-5.125 -11.031265q-0.203125 -0.40625 -0.203125 -0.609375q0 -0.296875 0.234375 -0.53125q0.25 -0.234375 0.5625 -0.234375q0.296875 0 0.46875 0.140625q0.1875 0.140625 0.375 0.5625zm9.8203125 3.5l0 0.53126526q0.4375 -0.37501526 0.953125 -0.56251526q0.53125 -0.1875 1.15625 -0.1875q1.421875 0 2.25 0.89064026q0.65625 0.703125 0.65625 1.84375l0 2.96875q0.5 0 0.734375 0.234375q0.25 0.21875 0.25 0.578125q0 0.34375 -0.25 0.578125q-0.234375 0.21875 -0.8125 0.21875l-1.453125 0q-0.578125 0 -0.828125 -0.21875q-0.234375 -0.234375 -0.234375 -0.59375q0 -0.34375 0.234375 -0.5625q0.25 -0.234375 0.75 -0.234375l0 -3.015625q0 -0.53125 -0.28125 -0.765625q-0.359375 -0.3125 -1.09375 -0.3125q-0.5625 0 -0.984375 0.21875q-0.40625 0.203125 -1.046875 0.90625l0 2.96875q0.609375 0 0.796875 0.125q0.375 0.234375 0.375 0.6875q0 0.34375 -0.25 0.578125q-0.234375 0.21875 -0.8125 0.21875l-1.828125 0q-0.578125 0 -0.828125 -0.21875q-0.234375 -0.234375 -0.234375 -0.59375q0 -0.4375 0.375 -0.671875q0.1875 -0.125 0.796875 -0.125l0 -3.890625q-0.5 0 -0.75 -0.21875q-0.234375 -0.234375 -0.234375 -0.578125q0 -0.359375 0.234375 -0.57814026q0.25 -0.21875 0.828125 -0.21875l1.53125 0z" fill-rule="nonzero"/><path fill="#000000" fill-opacity="0.0" d="m191.4738 249.40736l0 0l0 18.125015l0 0l0 -18.125015z" fill-rule="nonzero"/><path fill="#2b2b2b" d="m9.645669 106.850395l225.6063 0l0 36.850395l-225.6063 0z" fill-rule="evenodd"/><path fill="#2b2b2b" d="m18.64567 115.67559l19.203123 0l0 19.200005l-19.203123 0l0 -19.200005z" fill-rule="nonzero"/><path fill="#000000" fill-opacity="0.0" d="m18.64567 117.71528l19.203123 0l0 18.124992l-19.203123 0l0 -18.124992z" fill-rule="nonzero"/><path fill="#cc7832" d="m21.61442 120.44184l5.140625 11.015617q0.046875 0.09375 0.140625 0.40625q0.046875 0.171875 0.046875 0.265625q0 0.28125 -0.234375 0.484375q-0.21875 0.21875 -0.546875 0.21875q-0.296875 0 -0.484375 -0.140625q-0.171875 -0.140625 -0.375 -0.546875l-5.125 -11.031242q-0.203125 -0.40625 -0.203125 -0.609375q0 -0.296875 0.234375 -0.53125q0.25 -0.234375 0.5625 -0.234375q0.296875 0 0.46875 0.140625q0.1875 0.140625 0.375 0.5625zm9.8203125 3.5l0 0.53125q0.4375 -0.375 0.9531231 -0.5625q0.53125 -0.1875 1.15625 -0.1875q1.421875 0 2.25 0.890625q0.65625 0.703125 0.65625 1.84375l0 2.9687424q0.5 0 0.734375 0.234375q0.25 0.21875 0.25 0.578125q0 0.34375 -0.25 0.578125q-0.234375 0.21875 -0.8125 0.21875l-1.453125 0q-0.578125 0 -0.828125 -0.21875q-0.234375 -0.234375 -0.234375 -0.59375q0 -0.34375 0.234375 -0.5625q0.25 -0.234375 0.75 -0.234375l0 -3.0156174q0 -0.53125 -0.28125 -0.765625q-0.359375 -0.3125 -1.09375 -0.3125q-0.5625 0 -0.984375 0.21875q-0.40625 0.203125 -1.0468731 0.90625l0 2.9687424q0.6093731 0 0.7968731 0.125q0.375 0.234375 0.375 0.6875q0 0.34375 -0.25 0.578125q-0.234375 0.21875 -0.8124981 0.21875l-1.828125 0q-0.578125 0 -0.828125 -0.21875q-0.234375 -0.234375 -0.234375 -0.59375q0 -0.4375 0.375 -0.671875q0.1875 -0.125 0.796875 -0.125l0 -3.8906174q-0.5 0 -0.75 -0.21875q-0.234375 -0.234375 -0.234375 -0.578125q0 -0.359375 0.234375 -0.578125q0.25 -0.21875 0.828125 -0.21875l1.53125 0z" fill-rule="nonzero"/><path fill="#010000" fill-opacity="0.0" d="m37.848793 117.71528l0 0l0 18.124992l0 0l0 -18.124992z" fill-rule="nonzero"/><path fill="#2b2b2b" d="m9.645669 194.64568l225.6063 0l0 36.850388l-225.6063 0z" fill-rule="evenodd"/><path fill="#2b2b2b" d="m18.64567 203.47087l19.203123 0l0 19.199997l-19.203123 0l0 -19.199997z" fill-rule="nonzero"/><path fill="#000000" fill-opacity="0.0" d="m18.64567 205.51056l19.203123 0l0 18.125l-19.203123 0l0 -18.125z" fill-rule="nonzero"/><path fill="#cc7832" d="m21.61442 208.23712l5.140625 11.015625q0.046875 0.09375 0.140625 0.40625q0.046875 0.171875 0.046875 0.265625q0 0.28125 -0.234375 0.484375q-0.21875 0.21875 -0.546875 0.21875q-0.296875 0 -0.484375 -0.140625q-0.171875 -0.140625 -0.375 -0.546875l-5.125 -11.03125q-0.203125 -0.40625 -0.203125 -0.609375q0 -0.296875 0.234375 -0.53125q0.25 -0.234375 0.5625 -0.234375q0.296875 0 0.46875 0.140625q0.1875 0.140625 0.375 0.5625zm9.8203125 3.5l0 0.53125q0.4375 -0.375 0.9531231 -0.5625q0.53125 -0.1875 1.15625 -0.1875q1.421875 0 2.25 0.890625q0.65625 0.703125 0.65625 1.84375l0 2.96875q0.5 0 0.734375 0.234375q0.25 0.21875 0.25 0.578125q0 0.34375 -0.25 0.578125q-0.234375 0.21875 -0.8125 0.21875l-1.453125 0q-0.578125 0 -0.828125 -0.21875q-0.234375 -0.234375 -0.234375 -0.59375q0 -0.34375 0.234375 -0.5625q0.25 -0.234375 0.75 -0.234375l0 -3.015625q0 -0.53125 -0.28125 -0.765625q-0.359375 -0.3125 -1.09375 -0.3125q-0.5625 0 -0.984375 0.21875q-0.40625 0.203125 -1.0468731 0.90625l0 2.96875q0.6093731 0 0.7968731 0.125q0.375 0.234375 0.375 0.6875q0 0.34375 -0.25 0.578125q-0.234375 0.21875 -0.8124981 0.21875l-1.828125 0q-0.578125 0 -0.828125 -0.21875q-0.234375 -0.234375 -0.234375 -0.59375q0 -0.4375 0.375 -0.671875q0.1875 -0.125 0.796875 -0.125l0 -3.890625q-0.5 0 -0.75 -0.21875q-0.234375 -0.234375 -0.234375 -0.578125q0 -0.359375 0.234375 -0.578125q0.25 -0.21875 0.828125 -0.21875l1.53125 0z" fill-rule="nonzero"/><path fill="#010000" fill-opacity="0.0" d="m37.848793 205.51056l0 0l0 18.125l0 0l0 -18.125z" fill-rule="nonzero"/><path fill="#b6d7a8" d="m290.0643 129.71129l0 0c0 -10.436882 8.460754 -18.897636 18.897644 -18.897636l0 0c5.011963 0 9.818665 1.9909897 13.36264 5.5349884c3.5440063 3.543991 5.5350037 8.3506775 5.5350037 13.362648l0 0c0 10.436874 -8.460754 18.897629 -18.897644 18.897629l0 0c-10.43689 0 -18.897644 -8.460754 -18.897644 -18.897629z" fill-rule="evenodd"/><path stroke="#000000" stroke-width="1.0" stroke-linejoin="round" stroke-linecap="butt" d="m290.0643 129.71129l0 0c0 -10.436882 8.460754 -18.897636 18.897644 -18.897636l0 0c5.011963 0 9.818665 1.9909897 13.36264 5.5349884c3.5440063 3.543991 5.5350037 8.3506775 5.5350037 13.362648l0 0c0 10.436874 -8.460754 18.897629 -18.897644 18.897629l0 0c-10.43689 0 -18.897644 -8.460754 -18.897644 -18.897629z" fill-rule="evenodd"/><path fill="#000000" d="m306.1307 137.16754l0 -9.562508l1.078125 0l0 0.8906326q0.375 -0.5312576 0.84375 -0.7812576q0.484375 -0.265625 1.15625 -0.265625q0.875 0 1.546875 0.453125q0.6875 0.45313263 1.03125 1.2812576q0.34375 0.828125 0.34375 1.828125q0 1.046875 -0.375 1.90625q-0.375 0.84375 -1.109375 1.296875q-0.71875 0.453125 -1.53125 0.453125q-0.578125 0 -1.046875 -0.25q-0.46875 -0.25 -0.765625 -0.625l0 3.375l-1.171875 0zm1.0625 -6.078125q0 1.34375 0.53125 1.984375q0.546875 0.625 1.3125 0.625q0.78125 0 1.34375 -0.65625q0.5625 -0.65625 0.5625 -2.046875q0 -1.3125 -0.546875 -1.96875q-0.546875 -0.671875 -1.296875 -0.671875q-0.75 0 -1.328125 0.703125q-0.578125 0.703125 -0.578125 2.03125z" fill-rule="nonzero"/><path fill="#b6d7a8" d="m344.10892 78.46719l0 0c0 -10.436882 8.460754 -18.89764 18.897644 -18.89764l0 0c5.011963 0 9.818665 1.9909973 13.36264 5.534992c3.5440063 3.543991 5.5350037 8.3506775 5.5350037 13.362648l0 0c0 10.436874 -8.460754 18.897636 -18.897644 18.897636l0 0c-10.43689 0 -18.897644 -8.460762 -18.897644 -18.897636z" fill-rule="evenodd"/><path stroke="#000000" stroke-width="1.0" stroke-linejoin="round" stroke-linecap="butt" d="m344.10892 78.46719l0 0c0 -10.436882 8.460754 -18.89764 18.897644 -18.89764l0 0c5.011963 0 9.818665 1.9909973 13.36264 5.534992c3.5440063 3.543991 5.5350037 8.3506775 5.5350037 13.362648l0 0c0 10.436874 -8.460754 18.897636 -18.897644 18.897636l0 0c-10.43689 0 -18.897644 -8.460762 -18.897644 -18.897636z" fill-rule="evenodd"/><path fill="#000000" d="m352.38278 83.26719l0 -6.90625l1.0625 0l0 1.046875q0.40625 -0.734375 0.734375 -0.96875q0.34375 -0.234375 0.765625 -0.234375q0.59375 0 1.203125 0.375l-0.40625 1.078125q-0.4375 -0.25 -0.859375 -0.25q-0.390625 0 -0.703125 0.234375q-0.296875 0.234375 -0.421875 0.640625q-0.203125 0.625 -0.203125 1.359375l0 3.625l-1.171875 0zm4.01651 -3.453125q0 -1.921875 1.078125 -2.84375q0.890625 -0.765625 2.171875 -0.765625q1.421875 0 2.328125 0.9375q0.90625 0.921875 0.90625 2.578125q0 1.328125 -0.40625 2.09375q-0.390625 0.765625 -1.15625 1.1875q-0.765625 0.421875 -1.671875 0.421875q-1.453125 0 -2.359375 -0.921875q-0.890625 -0.9375 -0.890625 -2.6875zm1.203125 0q0 1.328125 0.578125 1.984375q0.59375 0.65625 1.46875 0.65625q0.875 0 1.453125 -0.65625q0.578125 -0.671875 0.578125 -2.03125q0 -1.28125 -0.59375 -1.9375q-0.578125 -0.65625 -1.4375 -0.65625q-0.875 0 -1.46875 0.65625q-0.578125 0.65625 -0.578125 1.984375zm6.2093506 0q0 -1.921875 1.078125 -2.84375q0.890625 -0.765625 2.171875 -0.765625q1.421875 0 2.328125 0.9375q0.90625 0.921875 0.90625 2.578125q0 1.328125 -0.40625 2.09375q-0.390625 0.765625 -1.15625 1.1875q-0.765625 0.421875 -1.671875 0.421875q-1.453125 0 -2.359375 -0.921875q-0.890625 -0.9375 -0.890625 -2.6875zm1.203125 0q0 1.328125 0.578125 1.984375q0.59375 0.65625 1.46875 0.65625q0.875 0 1.453125 -0.65625q0.578125 -0.671875 0.578125 -2.03125q0 -1.28125 -0.59375 -1.9375q-0.578125 -0.65625 -1.4375 -0.65625q-0.875 0 -1.46875 0.65625q-0.578125 0.65625 -0.578125 1.984375zm9.209351 2.40625l0.171875 1.03125q-0.5 0.109375 -0.890625 0.109375q-0.640625 0 -1.0 -0.203125q-0.34375 -0.203125 -0.484375 -0.53125q-0.140625 -0.328125 -0.140625 -1.390625l0 -3.96875l-0.859375 0l0 -0.90625l0.859375 0l0 -1.71875l1.171875 -0.703125l0 2.421875l1.171875 0l0 0.90625l-1.171875 0l0 4.046875q0 0.5 0.046875 0.640625q0.0625 0.140625 0.203125 0.234375q0.140625 0.078125 0.40625 0.078125q0.203125 0 0.515625 -0.046875z" fill-rule="nonzero"/><path fill="#000000" fill-opacity="0.0" d="m363.00656 97.36483l-54.04724 13.448822" fill-rule="evenodd"/><path stroke="#000000" stroke-width="1.0" stroke-linejoin="round" stroke-linecap="butt" d="m363.00656 97.36483l-54.04724 13.448822" fill-rule="evenodd"/><path fill="#b6d7a8" d="m344.10892 129.71129l0 0c0 -10.436882 8.460754 -18.897636 18.897644 -18.897636l0 0c5.011963 0 9.818665 1.9909897 13.36264 5.5349884c3.5440063 3.543991 5.5350037 8.3506775 5.5350037 13.362648l0 0c0 10.436874 -8.460754 18.897629 -18.897644 18.897629l0 0c-10.43689 0 -18.897644 -8.460754 -18.897644 -18.897629z" fill-rule="evenodd"/><path stroke="#000000" stroke-width="1.0" stroke-linejoin="round" stroke-linecap="butt" d="m344.10892 129.71129l0 0c0 -10.436882 8.460754 -18.897636 18.897644 -18.897636l0 0c5.011963 0 9.818665 1.9909897 13.36264 5.5349884c3.5440063 3.543991 5.5350037 8.3506775 5.5350037 13.362648l0 0c0 10.436874 -8.460754 18.897629 -18.897644 18.897629l0 0c-10.43689 0 -18.897644 -8.460754 -18.897644 -18.897629z" fill-rule="evenodd"/><path fill="#000000" d="m365.06516 131.98004l1.15625 0.15625q-0.1875 1.1875 -0.96875 1.859375q-0.78125 0.671875 -1.921875 0.671875q-1.40625 0 -2.28125 -0.921875q-0.859375 -0.9375 -0.859375 -2.65625q0 -1.125 0.375 -1.96875q0.375 -0.84375 1.125 -1.2500076q0.765625 -0.421875 1.65625 -0.421875q1.125 0 1.84375 0.5781326q0.71875 0.5625 0.921875 1.609375l-1.140625 0.171875q-0.171875 -0.703125 -0.59375 -1.046875q-0.40625 -0.359375 -0.984375 -0.359375q-0.890625 0 -1.453125 0.640625q-0.546875 0.640625 -0.546875 2.0q0 1.40625 0.53125 2.03125q0.546875 0.625 1.40625 0.625q0.6875 0 1.140625 -0.421875q0.46875 -0.421875 0.59375 -1.296875z" fill-rule="nonzero"/><path fill="#b6d7a8" d="m398.15353 129.71129l0 0c0 -10.436882 8.460785 -18.897636 18.897644 -18.897636l0 0c5.011963 0 9.818665 1.9909897 13.36264 5.5349884c3.5440063 3.543991 5.5350037 8.3506775 5.5350037 13.362648l0 0c0 10.436874 -8.460754 18.897629 -18.897644 18.897629l0 0c-10.436859 0 -18.897644 -8.460754 -18.897644 -18.897629z" fill-rule="evenodd"/><path stroke="#000000" stroke-width="1.0" stroke-linejoin="round" stroke-linecap="butt" d="m398.15353 129.71129l0 0c0 -10.436882 8.460785 -18.897636 18.897644 -18.897636l0 0c5.011963 0 9.818665 1.9909897 13.36264 5.5349884c3.5440063 3.543991 5.5350037 8.3506775 5.5350037 13.362648l0 0c0 10.436874 -8.460754 18.897629 -18.897644 18.897629l0 0c-10.436859 0 -18.897644 -8.460754 -18.897644 -18.897629z" fill-rule="evenodd"/><path fill="#000000" d="m418.6262 137.16754l0 -3.390625q-0.265625 0.390625 -0.765625 0.640625q-0.484375 0.25 -1.046875 0.25q-1.21875 0 -2.109375 -0.984375q-0.890625 -0.984375 -0.890625 -2.6875q0 -1.046875 0.359375 -1.875q0.359375 -0.828125 1.046875 -1.2500076q0.6875 -0.421875 1.515625 -0.421875q1.28125 0 2.015625 1.0781326l0 -0.9218826l1.046875 0l0 9.562508l-1.171875 0zm-3.609375 -6.125q0 1.328125 0.5625 2.0q0.5625 0.65625 1.34375 0.65625q0.75 0 1.28125 -0.625q0.546875 -0.640625 0.546875 -1.9375q0 -1.375 -0.578125 -2.0625q-0.5625 -0.703125 -1.328125 -0.703125q-0.765625 0 -1.296875 0.65625q-0.53125 0.640625 -0.53125 2.015625z" fill-rule="nonzero"/><path fill="#000000" fill-opacity="0.0" d="m363.00656 97.36483l0 13.448822" fill-rule="evenodd"/><path stroke="#000000" stroke-width="1.0" stroke-linejoin="round" stroke-linecap="butt" d="m363.00656 97.36483l0 13.448822" fill-rule="evenodd"/><path fill="#000000" fill-opacity="0.0" d="m363.00656 97.36483l54.04724 13.448822" fill-rule="evenodd"/><path stroke="#000000" stroke-width="1.0" stroke-linejoin="round" stroke-linecap="butt" d="m363.00656 97.36483l54.04724 13.448822" fill-rule="evenodd"/><path fill="#b6d7a8" d="m435.94882 183.44882l0 0c0 -10.436874 8.460754 -18.897644 18.897644 -18.897644l0 0c5.011963 0 9.818634 1.9909973 13.36264 5.5349884c3.5440063 3.5440063 5.534973 8.350693 5.534973 13.362656l0 0c0 10.436874 -8.460754 18.897629 -18.897614 18.897629l0 0c-10.43689 0 -18.897644 -8.460754 -18.897644 -18.897629z" fill-rule="evenodd"/><path stroke="#000000" stroke-width="1.0" stroke-linejoin="round" stroke-linecap="butt" d="m435.94882 183.44882l0 0c0 -10.436874 8.460754 -18.897644 18.897644 -18.897644l0 0c5.011963 0 9.818634 1.9909973 13.36264 5.5349884c3.5440063 3.5440063 5.534973 8.350693 5.534973 13.362656l0 0c0 10.436874 -8.460754 18.897629 -18.897614 18.897629l0 0c-10.43689 0 -18.897644 -8.460754 -18.897644 -18.897629z" fill-rule="evenodd"/><path fill="#000000" d="m452.01523 190.90508l0 -9.5625l1.078125 0l0 0.890625q0.375 -0.53125 0.84375 -0.78125q0.484375 -0.265625 1.15625 -0.265625q0.875 0 1.546875 0.453125q0.6875 0.453125 1.03125 1.28125q0.34375 0.828125 0.34375 1.828125q0 1.046875 -0.375 1.90625q-0.375 0.84375 -1.109375 1.296875q-0.71875 0.453125 -1.53125 0.453125q-0.578125 0 -1.046875 -0.25q-0.46875 -0.25 -0.765625 -0.625l0 3.375l-1.171875 0zm1.0625 -6.078125q0 1.34375 0.53125 1.984375q0.546875 0.625 1.3125 0.625q0.78125 0 1.34375 -0.65625q0.5625 -0.65625 0.5625 -2.046875q0 -1.3125 -0.546875 -1.96875q-0.546875 -0.671875 -1.296875 -0.671875q-0.75 0 -1.328125 0.703125q-0.578125 0.703125 -0.578125 2.03125z" fill-rule="nonzero"/><path fill="#000000" fill-opacity="0.0" d="m454.84647 164.55118l-37.795288 -15.937012" fill-rule="evenodd"/><path stroke="#000000" stroke-width="1.0" stroke-linejoin="round" stroke-linecap="butt" d="m454.84647 164.55118l-37.795288 -15.937012" fill-rule="evenodd"/></g></svg>